%TF.GenerationSoftware,Altium Limited,Altium Designer,21.6.4 (81)*%
G04 Layer_Color=32896*
%FSLAX43Y43*%
%MOMM*%
%TF.SameCoordinates,95A2699C-722C-4572-8EE5-7BEA9F810E30*%
%TF.FilePolarity,Positive*%
%TF.FileFunction,Other,Bottom_3D_Body*%
%TF.Part,Single*%
G01*
G75*
%TA.AperFunction,NonConductor*%
%ADD94C,0.200*%
D94*
X-107992Y30474D02*
X-106542D01*
X-107992D02*
Y32674D01*
X-106542D01*
Y30474D02*
Y32674D01*
X-117813Y118107D02*
X-115613D01*
Y119557D01*
X-117813D02*
X-115613D01*
X-117813Y118107D02*
Y119557D01*
Y22603D02*
X-115613D01*
Y24053D01*
X-117813D02*
X-115613D01*
X-117813Y22603D02*
Y24053D01*
X-87601Y61587D02*
X-86328Y60314D01*
X-85373Y61269D01*
X-86646Y62542D02*
X-85373Y61269D01*
X-87601Y61587D02*
X-86646Y62542D01*
X-105957Y62322D02*
Y64522D01*
X-107407D02*
X-105957D01*
X-107407Y62322D02*
Y64522D01*
Y62322D02*
X-105957D01*
X-106163Y78638D02*
Y80838D01*
X-107613D02*
X-106163D01*
X-107613Y78638D02*
Y80838D01*
Y78638D02*
X-106163D01*
X-105919Y94296D02*
Y96496D01*
X-107369D02*
X-105919D01*
X-107369Y94296D02*
Y96496D01*
Y94296D02*
X-105919D01*
X-105969Y110487D02*
Y112687D01*
X-107419D02*
X-105969D01*
X-107419Y110487D02*
Y112687D01*
Y110487D02*
X-105969D01*
X-106028Y126239D02*
Y128439D01*
X-107478D02*
X-106028D01*
X-107478Y126239D02*
Y128439D01*
Y126239D02*
X-106028D01*
X-32850Y102920D02*
X-30650D01*
X-32850Y101470D02*
Y102920D01*
Y101470D02*
X-30650D01*
Y102920D01*
X-32850Y100761D02*
X-30650D01*
X-32850Y99311D02*
Y100761D01*
Y99311D02*
X-30650D01*
Y100761D01*
X-32850Y24561D02*
X-30650D01*
X-32850Y23111D02*
Y24561D01*
Y23111D02*
X-30650D01*
Y24561D01*
X-32850Y22148D02*
X-30650D01*
X-32850Y20698D02*
Y22148D01*
Y20698D02*
X-30650D01*
Y22148D01*
X-106104Y14814D02*
Y17014D01*
X-107554D02*
X-106104D01*
X-107554Y14814D02*
Y17014D01*
Y14814D02*
X-106104D01*
X-107068Y46731D02*
Y48931D01*
X-108518D02*
X-107068D01*
X-108518Y46731D02*
Y48931D01*
Y46731D02*
X-107068D01*
X-63965Y114297D02*
X-61765D01*
Y115747D01*
X-63965D02*
X-61765D01*
X-63965Y114297D02*
Y115747D01*
X-117686Y54226D02*
X-115486D01*
Y55676D01*
X-117686D02*
X-115486D01*
X-117686Y54226D02*
Y55676D01*
X-117813Y86484D02*
X-115613D01*
Y87934D01*
X-117813D02*
X-115613D01*
X-117813Y86484D02*
Y87934D01*
X-159994Y8776D02*
X-155244D01*
X-159994Y5876D02*
Y8776D01*
Y5876D02*
X-155244D01*
Y8776D01*
X-159867Y20079D02*
X-155117D01*
X-159867Y17179D02*
Y20079D01*
Y17179D02*
X-155117D01*
Y20079D01*
X-159867Y24778D02*
X-155117D01*
X-159867Y21878D02*
Y24778D01*
Y21878D02*
X-155117D01*
Y24778D01*
X-159994Y40780D02*
X-155244D01*
X-159994Y37880D02*
Y40780D01*
Y37880D02*
X-155244D01*
Y40780D01*
X-159867Y52210D02*
X-155117D01*
X-159867Y49310D02*
Y52210D01*
Y49310D02*
X-155117D01*
Y52210D01*
X-159867Y56655D02*
X-155117D01*
X-159867Y53755D02*
Y56655D01*
Y53755D02*
X-155117D01*
Y56655D01*
X-159867Y68085D02*
X-155117D01*
X-159867Y65185D02*
Y68085D01*
Y65185D02*
X-155117D01*
Y68085D01*
X-159855Y72530D02*
X-155105D01*
X-159855Y69630D02*
Y72530D01*
Y69630D02*
X-155105D01*
Y72530D01*
X-159728Y84087D02*
X-154978D01*
X-159728Y81187D02*
Y84087D01*
Y81187D02*
X-154978D01*
Y84087D01*
X-159855Y88532D02*
X-155105D01*
X-159855Y85632D02*
Y88532D01*
Y85632D02*
X-155105D01*
Y88532D01*
X-159982Y100089D02*
X-155232D01*
X-159982Y97189D02*
Y100089D01*
Y97189D02*
X-155232D01*
Y100089D01*
X-159994Y104661D02*
X-155244D01*
X-159994Y101761D02*
Y104661D01*
Y101761D02*
X-155244D01*
Y104661D01*
X-159855Y116091D02*
X-155105D01*
X-159855Y113191D02*
Y116091D01*
Y113191D02*
X-155105D01*
Y116091D01*
X-159855Y120536D02*
X-155105D01*
X-159855Y117636D02*
Y120536D01*
Y117636D02*
X-155105D01*
Y120536D01*
X-159855Y131839D02*
X-155105D01*
X-159855Y128939D02*
Y131839D01*
Y128939D02*
X-155105D01*
Y131839D01*
X-159855Y36208D02*
X-155105D01*
X-159855Y33308D02*
Y36208D01*
Y33308D02*
X-155105D01*
Y36208D01*
X-125023Y39673D02*
Y41273D01*
X-128723Y39673D02*
X-125023D01*
X-128723D02*
Y41273D01*
X-125023D01*
X-125150Y49071D02*
Y50671D01*
X-128850Y49071D02*
X-125150D01*
X-128850D02*
Y50671D01*
X-125150D01*
X-124926Y112571D02*
Y114171D01*
X-128626Y112571D02*
X-124926D01*
X-128626D02*
Y114171D01*
X-124926D01*
X-106797Y118848D02*
X-105547D01*
X-106797D02*
Y120848D01*
X-105547D01*
Y118848D02*
Y120848D01*
X-106797Y39219D02*
X-105547D01*
X-106797D02*
Y41219D01*
X-105547D01*
Y39219D02*
Y41219D01*
X-106797Y23090D02*
X-105547D01*
X-106797D02*
Y25090D01*
X-105547D01*
Y23090D02*
Y25090D01*
X-106797Y7342D02*
X-105547D01*
X-106797D02*
Y9342D01*
X-105547D01*
Y7342D02*
Y9342D01*
X-107202Y17296D02*
Y20216D01*
X-102602D01*
Y17296D02*
Y20216D01*
X-107202Y17296D02*
X-102602D01*
X-107456Y33171D02*
Y36091D01*
X-102856D01*
Y33171D02*
Y36091D01*
X-107456Y33171D02*
X-102856D01*
X-107329Y49300D02*
Y52220D01*
X-102729D01*
Y49300D02*
Y52220D01*
X-107329Y49300D02*
X-102729D01*
X-107329Y65048D02*
Y67968D01*
X-102729D01*
Y65048D02*
Y67968D01*
X-107329Y65048D02*
X-102729D01*
X-107329Y81558D02*
Y84478D01*
X-102729D01*
Y81558D02*
Y84478D01*
X-107329Y81558D02*
X-102729D01*
X-107329Y97179D02*
Y100099D01*
X-102729D01*
Y97179D02*
Y100099D01*
X-107329Y97179D02*
X-102729D01*
X-107456Y113308D02*
Y116228D01*
X-102856D01*
Y113308D02*
Y116228D01*
X-107456Y113308D02*
X-102856D01*
X-107329Y128929D02*
Y131849D01*
X-102729D01*
Y128929D02*
Y131849D01*
X-107329Y128929D02*
X-102729D01*
X-113147Y130119D02*
X-111897D01*
Y128119D02*
Y130119D01*
X-113147Y128119D02*
X-111897D01*
X-113147D02*
Y130119D01*
X-113274Y114590D02*
X-112024D01*
Y112590D02*
Y114590D01*
X-113274Y112590D02*
X-112024D01*
X-113274D02*
Y114590D01*
X-113147Y98461D02*
X-111897D01*
Y96461D02*
Y98461D01*
X-113147Y96461D02*
X-111897D01*
X-113147D02*
Y98461D01*
Y82840D02*
X-111897D01*
Y80840D02*
Y82840D01*
X-113147Y80840D02*
X-111897D01*
X-113147D02*
Y82840D01*
Y66238D02*
X-111897D01*
Y64238D02*
Y66238D01*
X-113147Y64238D02*
X-111897D01*
X-113147D02*
Y66238D01*
Y50617D02*
X-111897D01*
Y48617D02*
Y50617D01*
X-113147Y48617D02*
X-111897D01*
X-113147D02*
Y50617D01*
Y18613D02*
X-111897D01*
Y16613D02*
Y18613D01*
X-113147Y16613D02*
X-111897D01*
X-113147D02*
Y18613D01*
X-119219Y14398D02*
Y15748D01*
X-121319Y14398D02*
X-119219D01*
X-121319D02*
Y15748D01*
X-119219D01*
X-119854Y29765D02*
Y31115D01*
X-121954Y29765D02*
X-119854D01*
X-121954D02*
Y31115D01*
X-119854D01*
X-119092Y45767D02*
Y47117D01*
X-121192Y45767D02*
X-119092D01*
X-121192D02*
Y47117D01*
X-119092D01*
X-119219Y61515D02*
Y62865D01*
X-121319Y61515D02*
X-119219D01*
X-121319D02*
Y62865D01*
X-119219D01*
X-119854Y77390D02*
Y78740D01*
X-121954Y77390D02*
X-119854D01*
X-121954D02*
Y78740D01*
X-119854D01*
X-120015Y93773D02*
Y95123D01*
X-122115Y93773D02*
X-120015D01*
X-122115D02*
Y95123D01*
X-120015D01*
X-120108Y110156D02*
Y111506D01*
X-122208Y110156D02*
X-120108D01*
X-122208D02*
Y111506D01*
X-120108D01*
X-124993Y128573D02*
Y130173D01*
X-128693Y128573D02*
X-124993D01*
X-128693D02*
Y130173D01*
X-124993D01*
X-126889Y125573D02*
Y126823D01*
X-128889Y125573D02*
X-126889D01*
X-128889D02*
Y126823D01*
X-126889D01*
X-126802Y109698D02*
Y110948D01*
X-128802Y109698D02*
X-126802D01*
X-128802D02*
Y110948D01*
X-126802D01*
X-125023Y103427D02*
Y105027D01*
X-128723Y103427D02*
X-125023D01*
X-128723D02*
Y105027D01*
X-125023D01*
X-124993Y96696D02*
Y98296D01*
X-128693Y96696D02*
X-124993D01*
X-128693D02*
Y98296D01*
X-124993D01*
X-125023Y87425D02*
Y89025D01*
X-128723Y87425D02*
X-125023D01*
X-128723D02*
Y89025D01*
X-125023D01*
X-126889Y93442D02*
Y94692D01*
X-128889Y93442D02*
X-126889D01*
X-128889D02*
Y94692D01*
X-126889D01*
X-124993Y71423D02*
Y73023D01*
X-128693Y71423D02*
X-124993D01*
X-128693D02*
Y73023D01*
X-124993D01*
Y80567D02*
Y82167D01*
X-128693Y80567D02*
X-124993D01*
X-128693D02*
Y82167D01*
X-124993D01*
X-126929Y77440D02*
Y78690D01*
X-128929Y77440D02*
X-126929D01*
X-128929D02*
Y78690D01*
X-126929D01*
X-124993Y55421D02*
Y57021D01*
X-128693Y55421D02*
X-124993D01*
X-128693D02*
Y57021D01*
X-124993D01*
Y64565D02*
Y66165D01*
X-128693Y64565D02*
X-124993D01*
X-128693D02*
Y66165D01*
X-124993D01*
X-126929Y61565D02*
Y62815D01*
X-128929Y61565D02*
X-126929D01*
X-128929D02*
Y62815D01*
X-126929D01*
X-124896Y22782D02*
Y24382D01*
X-128596Y22782D02*
X-124896D01*
X-128596D02*
Y24382D01*
X-124896D01*
X-125023Y16813D02*
Y18413D01*
X-128723Y16813D02*
X-125023D01*
X-128723D02*
Y18413D01*
X-125023D01*
X-126889Y13813D02*
Y15063D01*
X-128889Y13813D02*
X-126889D01*
X-128889D02*
Y15063D01*
X-126889D01*
X-89301Y60169D02*
X-87746Y58614D01*
X-86721Y59639D01*
X-88276Y61194D02*
X-86721Y59639D01*
X-89301Y60169D02*
X-88276Y61194D01*
X-66822Y62433D02*
X-65797Y61408D01*
X-66822Y62433D02*
X-65267Y63988D01*
X-64242Y62963D01*
X-65797Y61408D02*
X-64242Y62963D01*
X-70221Y30837D02*
X-68971D01*
X-70221D02*
Y32837D01*
X-68971D01*
Y30837D02*
Y32837D01*
X-52695Y25249D02*
X-51445D01*
X-52695D02*
Y27249D01*
X-51445D01*
Y25249D02*
Y27249D01*
X-88001Y25122D02*
X-86751D01*
X-88001D02*
Y27122D01*
X-86751D01*
Y25122D02*
Y27122D01*
X-70221Y25249D02*
X-68971D01*
X-70221D02*
Y27249D01*
X-68971D01*
Y25249D02*
Y27249D01*
X-42910Y15083D02*
Y16333D01*
X-40910D01*
Y15083D02*
Y16333D01*
X-42910Y15083D02*
X-40910D01*
X-10235Y40678D02*
Y44078D01*
X-16435Y40678D02*
X-10235D01*
X-16435D02*
Y44078D01*
X-10235D01*
X-19376Y45388D02*
Y46988D01*
X-15676D01*
Y45388D02*
Y46988D01*
X-19376Y45388D02*
X-15676D01*
X-86751Y30802D02*
Y32802D01*
X-88001D02*
X-86751D01*
X-88001Y30802D02*
Y32802D01*
Y30802D02*
X-86751D01*
X-51445Y30837D02*
Y32837D01*
X-52695D02*
X-51445D01*
X-52695Y30837D02*
Y32837D01*
Y30837D02*
X-51445D01*
X-35550Y126436D02*
X-34300D01*
Y124436D02*
Y126436D01*
X-35550Y124436D02*
X-34300D01*
X-35550D02*
Y126436D01*
X-34300Y9120D02*
Y11120D01*
X-35550D02*
X-34300D01*
X-35550Y9120D02*
Y11120D01*
Y9120D02*
X-34300D01*
X-105547Y103100D02*
Y105100D01*
X-106797D02*
X-105547D01*
X-106797Y103100D02*
Y105100D01*
Y103100D02*
X-105547D01*
Y86971D02*
Y88971D01*
X-106797D02*
X-105547D01*
X-106797Y86971D02*
Y88971D01*
Y86971D02*
X-105547D01*
Y71223D02*
Y73223D01*
X-106797D02*
X-105547D01*
X-106797Y71223D02*
Y73223D01*
Y71223D02*
X-105547D01*
Y54967D02*
Y56967D01*
X-106797D02*
X-105547D01*
X-106797Y54967D02*
Y56967D01*
Y54967D02*
X-105547D01*
X-113147Y32453D02*
Y34453D01*
Y32453D02*
X-111897D01*
Y34453D01*
X-113147D02*
X-111897D01*
X-122208Y126619D02*
X-120108D01*
X-122208Y125269D02*
Y126619D01*
Y125269D02*
X-120108D01*
Y126619D01*
X-128469Y34542D02*
X-124769D01*
X-128469Y32942D02*
Y34542D01*
Y32942D02*
X-124769D01*
Y34542D01*
X-128635Y30811D02*
X-126635D01*
X-128635Y29561D02*
Y30811D01*
Y29561D02*
X-126635D01*
Y30811D01*
X-128723Y9142D02*
X-125023D01*
X-128723Y7542D02*
Y9142D01*
Y7542D02*
X-125023D01*
Y9142D01*
X-128929Y46813D02*
X-126929D01*
X-128929Y45563D02*
Y46813D01*
Y45563D02*
X-126929D01*
Y46813D01*
X-128693Y120902D02*
X-124993D01*
X-128693Y119302D02*
Y120902D01*
Y119302D02*
X-124993D01*
Y120902D01*
%TF.MD5,a1adfc3081bf6fd16691926143c5d873*%
M02*
