%TF.GenerationSoftware,Altium Limited,Altium Designer,21.6.4 (81)*%
G04 Layer_Color=8388736*
%FSLAX43Y43*%
%MOMM*%
%TF.SameCoordinates,95A2699C-722C-4572-8EE5-7BEA9F810E30*%
%TF.FilePolarity,Positive*%
%TF.FileFunction,Other,Top_Assembly*%
%TF.Part,Single*%
G01*
G75*
%TA.AperFunction,NonConductor*%
%ADD94C,0.200*%
%ADD95C,0.150*%
%ADD137C,0.100*%
G36*
X-112248Y116722D02*
X-112243Y116722D01*
X-112238Y116721D01*
X-112231Y116720D01*
X-112224Y116719D01*
X-112209Y116715D01*
X-112192Y116709D01*
X-112184Y116705D01*
X-112176Y116700D01*
X-112168Y116696D01*
X-112161Y116690D01*
X-112160Y116689D01*
X-112159Y116688D01*
X-112157Y116686D01*
X-112155Y116684D01*
X-112151Y116680D01*
X-112148Y116676D01*
X-112145Y116671D01*
X-112141Y116666D01*
X-112137Y116659D01*
X-112133Y116652D01*
X-112129Y116644D01*
X-112125Y116636D01*
X-112122Y116627D01*
X-112119Y116617D01*
X-112117Y116607D01*
X-112115Y116596D01*
X-112176Y116591D01*
Y116592D01*
X-112177Y116593D01*
Y116595D01*
X-112177Y116598D01*
X-112179Y116606D01*
X-112183Y116615D01*
X-112186Y116625D01*
X-112191Y116635D01*
X-112197Y116644D01*
X-112205Y116652D01*
X-112206Y116653D01*
X-112209Y116655D01*
X-112213Y116658D01*
X-112220Y116662D01*
X-112228Y116665D01*
X-112237Y116668D01*
X-112248Y116670D01*
X-112260Y116671D01*
X-112265D01*
X-112270Y116670D01*
X-112278Y116670D01*
X-112285Y116668D01*
X-112294Y116666D01*
X-112302Y116662D01*
X-112311Y116658D01*
X-112312Y116658D01*
X-112315Y116656D01*
X-112319Y116653D01*
X-112324Y116649D01*
X-112330Y116644D01*
X-112336Y116638D01*
X-112342Y116631D01*
X-112347Y116623D01*
X-112348Y116622D01*
X-112350Y116619D01*
X-112352Y116614D01*
X-112355Y116607D01*
X-112359Y116599D01*
X-112363Y116589D01*
X-112367Y116577D01*
X-112370Y116563D01*
Y116563D01*
X-112371Y116561D01*
Y116559D01*
X-112372Y116557D01*
X-112372Y116553D01*
X-112373Y116549D01*
X-112375Y116539D01*
X-112377Y116528D01*
X-112378Y116515D01*
X-112379Y116501D01*
X-112380Y116486D01*
Y116485D01*
Y116483D01*
Y116479D01*
Y116473D01*
X-112379Y116475D01*
X-112376Y116478D01*
X-112372Y116484D01*
X-112366Y116491D01*
X-112358Y116499D01*
X-112350Y116507D01*
X-112339Y116515D01*
X-112328Y116522D01*
X-112327D01*
X-112326Y116523D01*
X-112324Y116524D01*
X-112322Y116525D01*
X-112316Y116528D01*
X-112306Y116531D01*
X-112296Y116535D01*
X-112284Y116538D01*
X-112271Y116540D01*
X-112257Y116541D01*
X-112251D01*
X-112246Y116540D01*
X-112241Y116539D01*
X-112234Y116538D01*
X-112228Y116537D01*
X-112220Y116535D01*
X-112212Y116533D01*
X-112203Y116529D01*
X-112195Y116526D01*
X-112185Y116521D01*
X-112176Y116516D01*
X-112167Y116510D01*
X-112159Y116503D01*
X-112150Y116495D01*
X-112149Y116494D01*
X-112148Y116493D01*
X-112146Y116490D01*
X-112143Y116486D01*
X-112140Y116482D01*
X-112136Y116476D01*
X-112132Y116469D01*
X-112128Y116462D01*
X-112124Y116454D01*
X-112120Y116445D01*
X-112116Y116435D01*
X-112113Y116424D01*
X-112110Y116413D01*
X-112108Y116400D01*
X-112107Y116388D01*
X-112106Y116374D01*
Y116373D01*
Y116370D01*
Y116366D01*
X-112107Y116361D01*
X-112107Y116354D01*
X-112109Y116346D01*
X-112110Y116338D01*
X-112112Y116329D01*
X-112117Y116309D01*
X-112121Y116298D01*
X-112125Y116288D01*
X-112131Y116278D01*
X-112137Y116267D01*
X-112143Y116258D01*
X-112151Y116249D01*
X-112152Y116248D01*
X-112153Y116247D01*
X-112156Y116244D01*
X-112159Y116241D01*
X-112164Y116237D01*
X-112169Y116233D01*
X-112176Y116229D01*
X-112183Y116225D01*
X-112191Y116220D01*
X-112200Y116216D01*
X-112209Y116212D01*
X-112219Y116208D01*
X-112230Y116205D01*
X-112242Y116203D01*
X-112254Y116201D01*
X-112266Y116201D01*
X-112271D01*
X-112275Y116201D01*
X-112279D01*
X-112284Y116202D01*
X-112296Y116204D01*
X-112310Y116207D01*
X-112326Y116212D01*
X-112342Y116219D01*
X-112358Y116228D01*
X-112358D01*
X-112360Y116229D01*
X-112362Y116231D01*
X-112364Y116233D01*
X-112372Y116239D01*
X-112381Y116247D01*
X-112391Y116259D01*
X-112402Y116271D01*
X-112411Y116286D01*
X-112420Y116304D01*
Y116305D01*
X-112421Y116306D01*
X-112422Y116310D01*
X-112423Y116314D01*
X-112425Y116319D01*
X-112427Y116325D01*
X-112429Y116332D01*
X-112431Y116341D01*
X-112433Y116351D01*
X-112435Y116362D01*
X-112437Y116373D01*
X-112439Y116386D01*
X-112440Y116400D01*
X-112441Y116415D01*
X-112442Y116431D01*
Y116448D01*
Y116450D01*
Y116452D01*
Y116457D01*
Y116464D01*
X-112441Y116473D01*
X-112441Y116482D01*
X-112440Y116493D01*
X-112439Y116505D01*
X-112438Y116517D01*
X-112437Y116529D01*
X-112433Y116556D01*
X-112428Y116581D01*
X-112425Y116593D01*
X-112421Y116605D01*
Y116605D01*
X-112420Y116607D01*
X-112419Y116610D01*
X-112417Y116614D01*
X-112415Y116619D01*
X-112412Y116625D01*
X-112405Y116637D01*
X-112396Y116652D01*
X-112385Y116666D01*
X-112372Y116680D01*
X-112357Y116693D01*
X-112356D01*
X-112355Y116694D01*
X-112353Y116696D01*
X-112350Y116698D01*
X-112346Y116700D01*
X-112341Y116702D01*
X-112335Y116705D01*
X-112329Y116708D01*
X-112314Y116714D01*
X-112298Y116718D01*
X-112279Y116722D01*
X-112269Y116722D01*
X-112258Y116723D01*
X-112252D01*
X-112248Y116722D01*
D02*
G37*
G36*
X-110821Y116203D02*
X-111059D01*
X-111065Y116203D01*
X-111071D01*
X-111079Y116204D01*
X-111087Y116205D01*
X-111103Y116206D01*
X-111120Y116209D01*
X-111137Y116212D01*
X-111145Y116214D01*
X-111152Y116217D01*
X-111152D01*
X-111153Y116217D01*
X-111155Y116218D01*
X-111158Y116219D01*
X-111164Y116223D01*
X-111172Y116228D01*
X-111182Y116235D01*
X-111191Y116243D01*
X-111200Y116254D01*
X-111209Y116266D01*
Y116266D01*
X-111210Y116267D01*
X-111211Y116269D01*
X-111212Y116272D01*
X-111216Y116279D01*
X-111220Y116288D01*
X-111224Y116300D01*
X-111227Y116313D01*
X-111230Y116328D01*
X-111230Y116343D01*
Y116344D01*
Y116346D01*
Y116348D01*
X-111230Y116352D01*
X-111229Y116357D01*
X-111228Y116362D01*
X-111226Y116375D01*
X-111222Y116390D01*
X-111216Y116405D01*
X-111212Y116412D01*
X-111207Y116420D01*
X-111201Y116428D01*
X-111195Y116435D01*
X-111194Y116436D01*
X-111194Y116436D01*
X-111191Y116438D01*
X-111188Y116441D01*
X-111184Y116444D01*
X-111180Y116447D01*
X-111174Y116451D01*
X-111168Y116455D01*
X-111161Y116459D01*
X-111153Y116463D01*
X-111144Y116467D01*
X-111134Y116471D01*
X-111123Y116474D01*
X-111112Y116477D01*
X-111099Y116480D01*
X-111086Y116482D01*
X-111087Y116483D01*
X-111091Y116484D01*
X-111095Y116487D01*
X-111101Y116490D01*
X-111114Y116499D01*
X-111120Y116503D01*
X-111126Y116508D01*
X-111127D01*
X-111128Y116509D01*
X-111132Y116513D01*
X-111137Y116519D01*
X-111145Y116527D01*
X-111154Y116536D01*
X-111163Y116548D01*
X-111173Y116561D01*
X-111183Y116576D01*
X-111272Y116714D01*
X-111186D01*
X-111119Y116609D01*
Y116608D01*
X-111118Y116607D01*
X-111116Y116604D01*
X-111114Y116601D01*
X-111112Y116597D01*
X-111108Y116593D01*
X-111102Y116583D01*
X-111094Y116571D01*
X-111086Y116560D01*
X-111078Y116549D01*
X-111070Y116539D01*
X-111069Y116537D01*
X-111067Y116535D01*
X-111063Y116530D01*
X-111059Y116525D01*
X-111053Y116519D01*
X-111047Y116513D01*
X-111041Y116509D01*
X-111035Y116504D01*
X-111035Y116503D01*
X-111033Y116503D01*
X-111030Y116501D01*
X-111026Y116499D01*
X-111021Y116496D01*
X-111016Y116494D01*
X-111005Y116490D01*
X-111004D01*
X-111003Y116489D01*
X-111000D01*
X-110996Y116489D01*
X-110991Y116488D01*
X-110984D01*
X-110977Y116487D01*
X-110889D01*
Y116714D01*
X-110821D01*
Y116203D01*
D02*
G37*
G36*
X-111485Y116314D02*
X-111484Y116315D01*
X-111481Y116318D01*
X-111476Y116322D01*
X-111469Y116328D01*
X-111461Y116334D01*
X-111450Y116342D01*
X-111439Y116350D01*
X-111425Y116358D01*
X-111425D01*
X-111424Y116358D01*
X-111422Y116360D01*
X-111419Y116361D01*
X-111412Y116365D01*
X-111403Y116370D01*
X-111393Y116375D01*
X-111382Y116380D01*
X-111371Y116386D01*
X-111359Y116390D01*
Y116329D01*
X-111360D01*
X-111362Y116328D01*
X-111365Y116326D01*
X-111368Y116324D01*
X-111373Y116322D01*
X-111378Y116319D01*
X-111391Y116312D01*
X-111405Y116304D01*
X-111421Y116293D01*
X-111436Y116282D01*
X-111451Y116269D01*
X-111452Y116268D01*
X-111453Y116268D01*
X-111455Y116266D01*
X-111458Y116263D01*
X-111465Y116257D01*
X-111473Y116247D01*
X-111482Y116237D01*
X-111491Y116225D01*
X-111500Y116213D01*
X-111507Y116201D01*
X-111548D01*
Y116714D01*
X-111485D01*
Y116314D01*
D02*
G37*
G36*
X-111868Y116722D02*
X-111863D01*
X-111856Y116722D01*
X-111850Y116720D01*
X-111842Y116718D01*
X-111833Y116716D01*
X-111824Y116714D01*
X-111815Y116710D01*
X-111805Y116706D01*
X-111795Y116701D01*
X-111785Y116695D01*
X-111776Y116688D01*
X-111767Y116680D01*
X-111759Y116670D01*
X-111758Y116670D01*
X-111757Y116667D01*
X-111754Y116664D01*
X-111751Y116658D01*
X-111747Y116651D01*
X-111743Y116642D01*
X-111739Y116633D01*
X-111734Y116621D01*
X-111729Y116607D01*
X-111725Y116591D01*
X-111720Y116575D01*
X-111717Y116555D01*
X-111713Y116535D01*
X-111711Y116513D01*
X-111709Y116488D01*
X-111709Y116462D01*
Y116461D01*
Y116458D01*
Y116453D01*
Y116447D01*
X-111709Y116440D01*
X-111710Y116431D01*
Y116421D01*
X-111711Y116410D01*
X-111713Y116387D01*
X-111717Y116362D01*
X-111721Y116338D01*
X-111724Y116327D01*
X-111727Y116316D01*
Y116316D01*
X-111728Y116314D01*
X-111729Y116311D01*
X-111731Y116307D01*
X-111733Y116302D01*
X-111735Y116297D01*
X-111741Y116284D01*
X-111749Y116271D01*
X-111759Y116257D01*
X-111770Y116243D01*
X-111783Y116231D01*
X-111783Y116230D01*
X-111785Y116229D01*
X-111787Y116228D01*
X-111789Y116226D01*
X-111793Y116224D01*
X-111797Y116221D01*
X-111802Y116219D01*
X-111808Y116215D01*
X-111821Y116210D01*
X-111837Y116205D01*
X-111855Y116202D01*
X-111865Y116201D01*
X-111882D01*
X-111886Y116201D01*
X-111890D01*
X-111900Y116203D01*
X-111911Y116205D01*
X-111923Y116208D01*
X-111936Y116212D01*
X-111948Y116217D01*
X-111948D01*
X-111949Y116218D01*
X-111953Y116221D01*
X-111958Y116224D01*
X-111966Y116229D01*
X-111974Y116237D01*
X-111982Y116245D01*
X-111991Y116254D01*
X-111999Y116265D01*
Y116266D01*
X-112000Y116266D01*
X-112001Y116268D01*
X-112002Y116270D01*
X-112006Y116277D01*
X-112010Y116286D01*
X-112016Y116298D01*
X-112021Y116310D01*
X-112026Y116326D01*
X-112030Y116342D01*
Y116342D01*
X-112031Y116344D01*
X-112032Y116346D01*
X-112032Y116350D01*
X-112033Y116354D01*
X-112034Y116360D01*
X-112035Y116366D01*
X-112036Y116374D01*
X-112037Y116382D01*
X-112038Y116391D01*
X-112039Y116400D01*
X-112040Y116412D01*
X-112041Y116423D01*
X-112041Y116435D01*
X-112042Y116448D01*
Y116462D01*
Y116463D01*
Y116466D01*
Y116471D01*
Y116477D01*
X-112041Y116485D01*
Y116493D01*
X-112041Y116503D01*
X-112040Y116514D01*
X-112037Y116537D01*
X-112034Y116562D01*
X-112030Y116586D01*
X-112027Y116597D01*
X-112024Y116608D01*
Y116609D01*
X-112023Y116611D01*
X-112022Y116613D01*
X-112020Y116617D01*
X-112018Y116622D01*
X-112016Y116627D01*
X-112010Y116639D01*
X-112002Y116653D01*
X-111992Y116667D01*
X-111981Y116681D01*
X-111968Y116693D01*
X-111967D01*
X-111966Y116694D01*
X-111964Y116696D01*
X-111961Y116698D01*
X-111958Y116700D01*
X-111953Y116702D01*
X-111948Y116705D01*
X-111942Y116708D01*
X-111929Y116714D01*
X-111913Y116718D01*
X-111895Y116722D01*
X-111885Y116722D01*
X-111875Y116723D01*
X-111872D01*
X-111868Y116722D01*
D02*
G37*
G36*
X-111463Y84922D02*
X-111457Y84922D01*
X-111451Y84921D01*
X-111443Y84920D01*
X-111435Y84918D01*
X-111417Y84913D01*
X-111408Y84910D01*
X-111399Y84906D01*
X-111389Y84902D01*
X-111379Y84896D01*
X-111371Y84890D01*
X-111362Y84883D01*
X-111361Y84882D01*
X-111360Y84881D01*
X-111358Y84879D01*
X-111355Y84876D01*
X-111351Y84872D01*
X-111347Y84867D01*
X-111343Y84861D01*
X-111339Y84855D01*
X-111335Y84848D01*
X-111330Y84840D01*
X-111326Y84831D01*
X-111322Y84822D01*
X-111318Y84812D01*
X-111315Y84802D01*
X-111313Y84791D01*
X-111311Y84779D01*
X-111374Y84770D01*
Y84771D01*
X-111375Y84773D01*
X-111375Y84775D01*
X-111376Y84779D01*
X-111377Y84783D01*
X-111379Y84788D01*
X-111383Y84800D01*
X-111387Y84813D01*
X-111394Y84825D01*
X-111401Y84838D01*
X-111405Y84843D01*
X-111410Y84848D01*
X-111411Y84848D01*
X-111415Y84851D01*
X-111420Y84855D01*
X-111428Y84859D01*
X-111437Y84864D01*
X-111448Y84867D01*
X-111461Y84870D01*
X-111474Y84871D01*
X-111478D01*
X-111481Y84870D01*
X-111485D01*
X-111490Y84870D01*
X-111500Y84867D01*
X-111512Y84864D01*
X-111524Y84858D01*
X-111537Y84850D01*
X-111543Y84846D01*
X-111549Y84840D01*
X-111550Y84840D01*
X-111550Y84839D01*
X-111552Y84837D01*
X-111554Y84835D01*
X-111559Y84829D01*
X-111564Y84819D01*
X-111570Y84809D01*
X-111575Y84795D01*
X-111578Y84781D01*
X-111580Y84773D01*
Y84765D01*
Y84764D01*
Y84763D01*
Y84761D01*
X-111579Y84757D01*
Y84754D01*
X-111578Y84749D01*
X-111576Y84739D01*
X-111573Y84728D01*
X-111568Y84716D01*
X-111560Y84705D01*
X-111556Y84699D01*
X-111551Y84693D01*
X-111550Y84692D01*
X-111546Y84689D01*
X-111540Y84685D01*
X-111532Y84679D01*
X-111521Y84674D01*
X-111509Y84670D01*
X-111495Y84667D01*
X-111479Y84665D01*
X-111472D01*
X-111467Y84666D01*
X-111461Y84667D01*
X-111453Y84668D01*
X-111444Y84670D01*
X-111435Y84672D01*
X-111442Y84617D01*
X-111443D01*
X-111445Y84618D01*
X-111449Y84618D01*
X-111456D01*
X-111459Y84618D01*
X-111467Y84617D01*
X-111476Y84616D01*
X-111487Y84613D01*
X-111499Y84610D01*
X-111512Y84604D01*
X-111524Y84598D01*
X-111524D01*
X-111525Y84596D01*
X-111529Y84594D01*
X-111534Y84588D01*
X-111540Y84582D01*
X-111546Y84572D01*
X-111551Y84561D01*
X-111555Y84548D01*
X-111556Y84540D01*
X-111556Y84532D01*
Y84532D01*
Y84531D01*
X-111556Y84526D01*
X-111555Y84520D01*
X-111554Y84512D01*
X-111550Y84504D01*
X-111546Y84494D01*
X-111540Y84484D01*
X-111532Y84476D01*
X-111531Y84474D01*
X-111528Y84472D01*
X-111523Y84468D01*
X-111516Y84464D01*
X-111508Y84460D01*
X-111497Y84456D01*
X-111486Y84453D01*
X-111473Y84453D01*
X-111469D01*
X-111467Y84453D01*
X-111459Y84454D01*
X-111451Y84455D01*
X-111441Y84459D01*
X-111431Y84463D01*
X-111421Y84468D01*
X-111411Y84476D01*
X-111409Y84477D01*
X-111407Y84480D01*
X-111403Y84485D01*
X-111398Y84493D01*
X-111393Y84502D01*
X-111387Y84514D01*
X-111383Y84528D01*
X-111380Y84544D01*
X-111317Y84533D01*
Y84532D01*
X-111318Y84530D01*
X-111319Y84527D01*
X-111320Y84522D01*
X-111321Y84518D01*
X-111323Y84511D01*
X-111325Y84504D01*
X-111328Y84497D01*
X-111335Y84482D01*
X-111344Y84466D01*
X-111355Y84450D01*
X-111362Y84443D01*
X-111369Y84436D01*
X-111370Y84435D01*
X-111371Y84435D01*
X-111373Y84433D01*
X-111377Y84431D01*
X-111381Y84428D01*
X-111385Y84425D01*
X-111391Y84421D01*
X-111397Y84418D01*
X-111405Y84415D01*
X-111412Y84412D01*
X-111429Y84406D01*
X-111449Y84402D01*
X-111460Y84401D01*
X-111471Y84401D01*
X-111478D01*
X-111482Y84401D01*
X-111486D01*
X-111496Y84403D01*
X-111508Y84405D01*
X-111521Y84408D01*
X-111534Y84413D01*
X-111548Y84419D01*
X-111548D01*
X-111549Y84419D01*
X-111551Y84421D01*
X-111554Y84422D01*
X-111560Y84426D01*
X-111568Y84431D01*
X-111576Y84439D01*
X-111586Y84447D01*
X-111594Y84457D01*
X-111602Y84468D01*
Y84468D01*
X-111602Y84469D01*
X-111605Y84473D01*
X-111608Y84480D01*
X-111612Y84488D01*
X-111615Y84498D01*
X-111618Y84509D01*
X-111620Y84521D01*
X-111621Y84534D01*
Y84534D01*
Y84535D01*
Y84539D01*
X-111620Y84546D01*
X-111619Y84554D01*
X-111616Y84563D01*
X-111614Y84573D01*
X-111609Y84584D01*
X-111603Y84594D01*
X-111602Y84596D01*
X-111600Y84599D01*
X-111596Y84604D01*
X-111590Y84610D01*
X-111582Y84617D01*
X-111573Y84624D01*
X-111562Y84631D01*
X-111550Y84638D01*
X-111551D01*
X-111552Y84638D01*
X-111555Y84639D01*
X-111558Y84640D01*
X-111562Y84641D01*
X-111566Y84643D01*
X-111576Y84647D01*
X-111588Y84653D01*
X-111599Y84661D01*
X-111611Y84670D01*
X-111621Y84681D01*
Y84682D01*
X-111622Y84683D01*
X-111624Y84685D01*
X-111625Y84687D01*
X-111627Y84691D01*
X-111629Y84694D01*
X-111634Y84704D01*
X-111638Y84716D01*
X-111642Y84730D01*
X-111645Y84745D01*
X-111646Y84763D01*
Y84764D01*
Y84766D01*
Y84770D01*
X-111646Y84775D01*
X-111645Y84781D01*
X-111644Y84787D01*
X-111642Y84795D01*
X-111640Y84803D01*
X-111638Y84811D01*
X-111634Y84821D01*
X-111630Y84830D01*
X-111626Y84840D01*
X-111620Y84849D01*
X-111613Y84859D01*
X-111606Y84868D01*
X-111597Y84877D01*
X-111596Y84878D01*
X-111595Y84879D01*
X-111592Y84881D01*
X-111588Y84884D01*
X-111584Y84888D01*
X-111578Y84892D01*
X-111571Y84896D01*
X-111564Y84900D01*
X-111555Y84904D01*
X-111546Y84908D01*
X-111536Y84912D01*
X-111524Y84916D01*
X-111513Y84919D01*
X-111500Y84921D01*
X-111488Y84922D01*
X-111474Y84923D01*
X-111467D01*
X-111463Y84922D01*
D02*
G37*
G36*
X-110821Y84403D02*
X-111059D01*
X-111065Y84403D01*
X-111071D01*
X-111079Y84404D01*
X-111087Y84405D01*
X-111103Y84406D01*
X-111120Y84409D01*
X-111137Y84412D01*
X-111145Y84414D01*
X-111152Y84417D01*
X-111152D01*
X-111153Y84417D01*
X-111155Y84418D01*
X-111158Y84419D01*
X-111164Y84423D01*
X-111172Y84428D01*
X-111182Y84435D01*
X-111191Y84443D01*
X-111200Y84454D01*
X-111209Y84466D01*
Y84466D01*
X-111210Y84467D01*
X-111211Y84469D01*
X-111212Y84472D01*
X-111216Y84479D01*
X-111220Y84488D01*
X-111224Y84500D01*
X-111227Y84513D01*
X-111230Y84528D01*
X-111230Y84543D01*
Y84544D01*
Y84546D01*
Y84548D01*
X-111230Y84552D01*
X-111229Y84557D01*
X-111228Y84562D01*
X-111226Y84575D01*
X-111222Y84590D01*
X-111216Y84605D01*
X-111212Y84612D01*
X-111207Y84620D01*
X-111201Y84628D01*
X-111195Y84635D01*
X-111194Y84636D01*
X-111194Y84636D01*
X-111191Y84638D01*
X-111188Y84641D01*
X-111184Y84644D01*
X-111180Y84647D01*
X-111174Y84651D01*
X-111168Y84655D01*
X-111161Y84659D01*
X-111153Y84663D01*
X-111144Y84667D01*
X-111134Y84671D01*
X-111123Y84674D01*
X-111112Y84677D01*
X-111099Y84680D01*
X-111086Y84682D01*
X-111087Y84683D01*
X-111091Y84684D01*
X-111095Y84687D01*
X-111101Y84690D01*
X-111114Y84699D01*
X-111120Y84703D01*
X-111126Y84708D01*
X-111127D01*
X-111128Y84709D01*
X-111132Y84713D01*
X-111137Y84719D01*
X-111145Y84727D01*
X-111154Y84736D01*
X-111163Y84748D01*
X-111173Y84761D01*
X-111183Y84776D01*
X-111272Y84914D01*
X-111186D01*
X-111119Y84809D01*
Y84808D01*
X-111118Y84807D01*
X-111116Y84804D01*
X-111114Y84801D01*
X-111112Y84797D01*
X-111108Y84793D01*
X-111102Y84783D01*
X-111094Y84771D01*
X-111086Y84760D01*
X-111078Y84749D01*
X-111070Y84739D01*
X-111069Y84737D01*
X-111067Y84735D01*
X-111063Y84730D01*
X-111059Y84725D01*
X-111053Y84719D01*
X-111047Y84713D01*
X-111041Y84709D01*
X-111035Y84704D01*
X-111035Y84703D01*
X-111033Y84703D01*
X-111030Y84701D01*
X-111026Y84699D01*
X-111021Y84696D01*
X-111016Y84694D01*
X-111005Y84690D01*
X-111004D01*
X-111003Y84689D01*
X-111000D01*
X-110996Y84689D01*
X-110991Y84688D01*
X-110984D01*
X-110977Y84687D01*
X-110889D01*
Y84914D01*
X-110821D01*
Y84403D01*
D02*
G37*
G36*
X-111699Y84913D02*
Y84910D01*
Y84906D01*
X-111700Y84900D01*
X-111701Y84894D01*
X-111702Y84886D01*
X-111704Y84879D01*
X-111707Y84871D01*
Y84870D01*
X-111707Y84870D01*
X-111708Y84868D01*
X-111709Y84865D01*
X-111712Y84858D01*
X-111717Y84850D01*
X-111723Y84839D01*
X-111729Y84828D01*
X-111738Y84816D01*
X-111748Y84803D01*
X-111749Y84803D01*
X-111749Y84802D01*
X-111751Y84800D01*
X-111753Y84797D01*
X-111760Y84790D01*
X-111769Y84781D01*
X-111781Y84769D01*
X-111795Y84756D01*
X-111811Y84741D01*
X-111831Y84725D01*
X-111831Y84725D01*
X-111834Y84722D01*
X-111839Y84719D01*
X-111844Y84714D01*
X-111850Y84708D01*
X-111858Y84701D01*
X-111867Y84694D01*
X-111876Y84686D01*
X-111894Y84669D01*
X-111913Y84651D01*
X-111922Y84642D01*
X-111930Y84633D01*
X-111937Y84625D01*
X-111943Y84617D01*
X-111944Y84616D01*
X-111944Y84615D01*
X-111946Y84613D01*
X-111948Y84610D01*
X-111950Y84606D01*
X-111952Y84602D01*
X-111958Y84592D01*
X-111964Y84581D01*
X-111968Y84568D01*
X-111972Y84554D01*
X-111973Y84548D01*
Y84541D01*
Y84540D01*
Y84539D01*
Y84538D01*
X-111972Y84535D01*
X-111972Y84528D01*
X-111970Y84519D01*
X-111966Y84509D01*
X-111962Y84499D01*
X-111955Y84488D01*
X-111946Y84478D01*
X-111944Y84477D01*
X-111941Y84474D01*
X-111935Y84470D01*
X-111927Y84465D01*
X-111917Y84461D01*
X-111905Y84457D01*
X-111891Y84454D01*
X-111876Y84453D01*
X-111871D01*
X-111868Y84453D01*
X-111864D01*
X-111860Y84454D01*
X-111850Y84456D01*
X-111839Y84459D01*
X-111826Y84464D01*
X-111814Y84470D01*
X-111803Y84480D01*
X-111802Y84481D01*
X-111799Y84484D01*
X-111795Y84491D01*
X-111790Y84499D01*
X-111785Y84510D01*
X-111780Y84523D01*
X-111777Y84538D01*
X-111776Y84555D01*
X-111711Y84548D01*
Y84548D01*
X-111712Y84545D01*
Y84542D01*
X-111713Y84536D01*
X-111714Y84530D01*
X-111715Y84524D01*
X-111717Y84516D01*
X-111720Y84508D01*
X-111726Y84490D01*
X-111730Y84480D01*
X-111735Y84472D01*
X-111740Y84463D01*
X-111746Y84454D01*
X-111753Y84446D01*
X-111761Y84439D01*
X-111761Y84438D01*
X-111763Y84437D01*
X-111765Y84435D01*
X-111769Y84433D01*
X-111773Y84430D01*
X-111779Y84427D01*
X-111785Y84423D01*
X-111792Y84419D01*
X-111800Y84416D01*
X-111809Y84413D01*
X-111818Y84409D01*
X-111829Y84407D01*
X-111839Y84404D01*
X-111851Y84402D01*
X-111864Y84401D01*
X-111877Y84401D01*
X-111884D01*
X-111889Y84401D01*
X-111896Y84402D01*
X-111903Y84403D01*
X-111911Y84404D01*
X-111920Y84406D01*
X-111938Y84411D01*
X-111948Y84414D01*
X-111958Y84418D01*
X-111968Y84423D01*
X-111977Y84429D01*
X-111986Y84435D01*
X-111994Y84442D01*
X-111995Y84443D01*
X-111996Y84444D01*
X-111998Y84446D01*
X-112001Y84449D01*
X-112004Y84453D01*
X-112008Y84458D01*
X-112012Y84463D01*
X-112016Y84470D01*
X-112020Y84476D01*
X-112024Y84484D01*
X-112031Y84502D01*
X-112034Y84511D01*
X-112035Y84521D01*
X-112037Y84532D01*
X-112037Y84543D01*
Y84544D01*
Y84548D01*
X-112037Y84554D01*
X-112036Y84562D01*
X-112034Y84571D01*
X-112032Y84582D01*
X-112029Y84592D01*
X-112025Y84604D01*
X-112024Y84605D01*
X-112022Y84609D01*
X-112020Y84615D01*
X-112015Y84622D01*
X-112009Y84632D01*
X-112002Y84642D01*
X-111993Y84654D01*
X-111983Y84666D01*
Y84667D01*
X-111982Y84667D01*
X-111980Y84669D01*
X-111978Y84672D01*
X-111974Y84675D01*
X-111970Y84679D01*
X-111966Y84684D01*
X-111960Y84689D01*
X-111954Y84695D01*
X-111946Y84702D01*
X-111938Y84710D01*
X-111930Y84718D01*
X-111920Y84727D01*
X-111910Y84735D01*
X-111898Y84745D01*
X-111886Y84756D01*
X-111885Y84757D01*
X-111883Y84758D01*
X-111880Y84761D01*
X-111876Y84763D01*
X-111872Y84767D01*
X-111867Y84772D01*
X-111856Y84782D01*
X-111843Y84793D01*
X-111831Y84803D01*
X-111826Y84808D01*
X-111821Y84813D01*
X-111817Y84817D01*
X-111813Y84821D01*
X-111813Y84821D01*
X-111811Y84823D01*
X-111808Y84827D01*
X-111804Y84831D01*
X-111800Y84836D01*
X-111795Y84842D01*
X-111787Y84854D01*
X-112038D01*
Y84914D01*
X-111699D01*
Y84913D01*
D02*
G37*
G36*
X-111978Y20787D02*
X-111973Y20787D01*
X-111968Y20786D01*
X-111961Y20785D01*
X-111954Y20784D01*
X-111938Y20780D01*
X-111922Y20774D01*
X-111914Y20770D01*
X-111906Y20765D01*
X-111898Y20761D01*
X-111890Y20755D01*
X-111890Y20754D01*
X-111889Y20753D01*
X-111887Y20751D01*
X-111884Y20749D01*
X-111881Y20745D01*
X-111878Y20741D01*
X-111874Y20736D01*
X-111870Y20731D01*
X-111866Y20724D01*
X-111862Y20717D01*
X-111859Y20709D01*
X-111855Y20701D01*
X-111852Y20692D01*
X-111849Y20682D01*
X-111847Y20672D01*
X-111845Y20661D01*
X-111906Y20656D01*
Y20657D01*
X-111906Y20658D01*
Y20660D01*
X-111907Y20663D01*
X-111909Y20671D01*
X-111912Y20680D01*
X-111916Y20690D01*
X-111921Y20700D01*
X-111927Y20709D01*
X-111934Y20717D01*
X-111936Y20718D01*
X-111938Y20720D01*
X-111943Y20723D01*
X-111950Y20727D01*
X-111958Y20730D01*
X-111967Y20733D01*
X-111978Y20735D01*
X-111990Y20736D01*
X-111995D01*
X-112000Y20735D01*
X-112007Y20735D01*
X-112015Y20733D01*
X-112023Y20731D01*
X-112032Y20727D01*
X-112041Y20723D01*
X-112041Y20723D01*
X-112045Y20721D01*
X-112049Y20718D01*
X-112053Y20714D01*
X-112059Y20709D01*
X-112065Y20703D01*
X-112071Y20696D01*
X-112077Y20688D01*
X-112077Y20687D01*
X-112079Y20684D01*
X-112081Y20679D01*
X-112085Y20672D01*
X-112089Y20664D01*
X-112093Y20654D01*
X-112097Y20642D01*
X-112100Y20628D01*
Y20628D01*
X-112101Y20626D01*
Y20624D01*
X-112101Y20622D01*
X-112102Y20618D01*
X-112103Y20614D01*
X-112105Y20604D01*
X-112107Y20593D01*
X-112108Y20580D01*
X-112109Y20566D01*
X-112109Y20551D01*
Y20550D01*
Y20548D01*
Y20544D01*
Y20538D01*
X-112109Y20540D01*
X-112106Y20543D01*
X-112101Y20549D01*
X-112095Y20556D01*
X-112088Y20564D01*
X-112079Y20572D01*
X-112069Y20580D01*
X-112057Y20587D01*
X-112057D01*
X-112056Y20588D01*
X-112054Y20589D01*
X-112051Y20590D01*
X-112045Y20593D01*
X-112036Y20596D01*
X-112026Y20600D01*
X-112014Y20603D01*
X-112001Y20605D01*
X-111987Y20606D01*
X-111981D01*
X-111976Y20605D01*
X-111971Y20604D01*
X-111964Y20603D01*
X-111958Y20602D01*
X-111950Y20600D01*
X-111942Y20598D01*
X-111933Y20594D01*
X-111924Y20591D01*
X-111915Y20586D01*
X-111906Y20581D01*
X-111897Y20575D01*
X-111888Y20568D01*
X-111880Y20560D01*
X-111879Y20559D01*
X-111878Y20558D01*
X-111876Y20555D01*
X-111873Y20551D01*
X-111870Y20547D01*
X-111866Y20541D01*
X-111862Y20534D01*
X-111858Y20527D01*
X-111854Y20519D01*
X-111850Y20510D01*
X-111846Y20500D01*
X-111842Y20489D01*
X-111840Y20478D01*
X-111838Y20465D01*
X-111836Y20453D01*
X-111836Y20439D01*
Y20438D01*
Y20435D01*
Y20431D01*
X-111836Y20426D01*
X-111837Y20419D01*
X-111838Y20411D01*
X-111840Y20403D01*
X-111842Y20394D01*
X-111847Y20374D01*
X-111850Y20363D01*
X-111855Y20353D01*
X-111860Y20343D01*
X-111866Y20332D01*
X-111873Y20323D01*
X-111881Y20314D01*
X-111882Y20313D01*
X-111883Y20312D01*
X-111886Y20309D01*
X-111889Y20306D01*
X-111894Y20302D01*
X-111899Y20298D01*
X-111906Y20294D01*
X-111913Y20290D01*
X-111920Y20285D01*
X-111930Y20281D01*
X-111939Y20277D01*
X-111949Y20273D01*
X-111960Y20270D01*
X-111971Y20268D01*
X-111983Y20266D01*
X-111996Y20266D01*
X-112001D01*
X-112005Y20266D01*
X-112009D01*
X-112014Y20267D01*
X-112026Y20269D01*
X-112040Y20272D01*
X-112055Y20277D01*
X-112071Y20284D01*
X-112087Y20293D01*
X-112088D01*
X-112089Y20294D01*
X-112091Y20296D01*
X-112094Y20298D01*
X-112101Y20304D01*
X-112111Y20312D01*
X-112121Y20323D01*
X-112131Y20336D01*
X-112141Y20351D01*
X-112150Y20369D01*
Y20370D01*
X-112151Y20371D01*
X-112152Y20375D01*
X-112153Y20379D01*
X-112155Y20384D01*
X-112157Y20390D01*
X-112159Y20397D01*
X-112161Y20406D01*
X-112163Y20416D01*
X-112165Y20427D01*
X-112166Y20438D01*
X-112168Y20451D01*
X-112170Y20465D01*
X-112171Y20480D01*
X-112172Y20496D01*
Y20513D01*
Y20514D01*
Y20517D01*
Y20522D01*
Y20529D01*
X-112171Y20538D01*
X-112170Y20547D01*
X-112170Y20558D01*
X-112169Y20570D01*
X-112168Y20582D01*
X-112166Y20594D01*
X-112163Y20621D01*
X-112158Y20646D01*
X-112155Y20658D01*
X-112151Y20670D01*
Y20670D01*
X-112150Y20672D01*
X-112149Y20675D01*
X-112147Y20679D01*
X-112145Y20684D01*
X-112142Y20690D01*
X-112135Y20702D01*
X-112126Y20717D01*
X-112115Y20731D01*
X-112102Y20745D01*
X-112087Y20758D01*
X-112086D01*
X-112085Y20759D01*
X-112083Y20761D01*
X-112079Y20763D01*
X-112075Y20765D01*
X-112071Y20767D01*
X-112065Y20770D01*
X-112059Y20773D01*
X-112044Y20779D01*
X-112027Y20783D01*
X-112009Y20787D01*
X-111999Y20787D01*
X-111988Y20788D01*
X-111982D01*
X-111978Y20787D01*
D02*
G37*
G36*
X-110948Y20268D02*
X-111186D01*
X-111192Y20268D01*
X-111198D01*
X-111206Y20269D01*
X-111214Y20270D01*
X-111230Y20271D01*
X-111247Y20274D01*
X-111264Y20277D01*
X-111272Y20279D01*
X-111279Y20282D01*
X-111279D01*
X-111280Y20282D01*
X-111282Y20283D01*
X-111285Y20284D01*
X-111291Y20288D01*
X-111299Y20293D01*
X-111309Y20300D01*
X-111318Y20308D01*
X-111327Y20319D01*
X-111336Y20331D01*
Y20331D01*
X-111337Y20332D01*
X-111338Y20334D01*
X-111339Y20337D01*
X-111343Y20344D01*
X-111347Y20353D01*
X-111351Y20365D01*
X-111354Y20378D01*
X-111357Y20393D01*
X-111357Y20408D01*
Y20409D01*
Y20411D01*
Y20413D01*
X-111357Y20417D01*
X-111356Y20422D01*
X-111355Y20427D01*
X-111353Y20440D01*
X-111349Y20455D01*
X-111343Y20470D01*
X-111339Y20477D01*
X-111334Y20485D01*
X-111328Y20493D01*
X-111322Y20500D01*
X-111321Y20501D01*
X-111321Y20501D01*
X-111318Y20503D01*
X-111315Y20506D01*
X-111311Y20509D01*
X-111307Y20512D01*
X-111301Y20516D01*
X-111295Y20520D01*
X-111288Y20524D01*
X-111280Y20528D01*
X-111271Y20532D01*
X-111261Y20536D01*
X-111250Y20539D01*
X-111239Y20542D01*
X-111226Y20545D01*
X-111213Y20547D01*
X-111214Y20548D01*
X-111218Y20549D01*
X-111222Y20552D01*
X-111228Y20555D01*
X-111241Y20564D01*
X-111247Y20568D01*
X-111253Y20573D01*
X-111254D01*
X-111255Y20574D01*
X-111259Y20578D01*
X-111264Y20584D01*
X-111272Y20592D01*
X-111281Y20601D01*
X-111290Y20613D01*
X-111300Y20626D01*
X-111310Y20641D01*
X-111399Y20779D01*
X-111313D01*
X-111246Y20674D01*
Y20673D01*
X-111245Y20672D01*
X-111243Y20669D01*
X-111241Y20666D01*
X-111239Y20662D01*
X-111235Y20658D01*
X-111229Y20648D01*
X-111221Y20636D01*
X-111213Y20625D01*
X-111205Y20614D01*
X-111197Y20604D01*
X-111196Y20602D01*
X-111194Y20600D01*
X-111190Y20595D01*
X-111186Y20590D01*
X-111180Y20584D01*
X-111174Y20578D01*
X-111168Y20574D01*
X-111162Y20569D01*
X-111162Y20568D01*
X-111160Y20568D01*
X-111157Y20566D01*
X-111153Y20564D01*
X-111148Y20561D01*
X-111143Y20559D01*
X-111132Y20555D01*
X-111131D01*
X-111130Y20554D01*
X-111127D01*
X-111123Y20554D01*
X-111118Y20553D01*
X-111111D01*
X-111104Y20552D01*
X-111016D01*
Y20779D01*
X-110948D01*
Y20268D01*
D02*
G37*
G36*
X-111429Y20778D02*
Y20775D01*
Y20771D01*
X-111430Y20765D01*
X-111430Y20759D01*
X-111432Y20751D01*
X-111434Y20744D01*
X-111436Y20736D01*
Y20735D01*
X-111437Y20735D01*
X-111438Y20733D01*
X-111439Y20730D01*
X-111442Y20723D01*
X-111446Y20715D01*
X-111452Y20704D01*
X-111459Y20693D01*
X-111468Y20681D01*
X-111478Y20668D01*
X-111478Y20668D01*
X-111479Y20667D01*
X-111481Y20665D01*
X-111483Y20662D01*
X-111490Y20655D01*
X-111499Y20646D01*
X-111510Y20634D01*
X-111524Y20621D01*
X-111541Y20606D01*
X-111560Y20590D01*
X-111561Y20590D01*
X-111564Y20587D01*
X-111568Y20584D01*
X-111574Y20579D01*
X-111580Y20573D01*
X-111588Y20566D01*
X-111597Y20559D01*
X-111605Y20551D01*
X-111624Y20534D01*
X-111643Y20516D01*
X-111651Y20507D01*
X-111659Y20498D01*
X-111667Y20490D01*
X-111673Y20482D01*
X-111673Y20481D01*
X-111674Y20480D01*
X-111675Y20478D01*
X-111677Y20475D01*
X-111679Y20471D01*
X-111682Y20467D01*
X-111688Y20457D01*
X-111693Y20446D01*
X-111698Y20433D01*
X-111701Y20419D01*
X-111703Y20413D01*
Y20406D01*
Y20405D01*
Y20404D01*
Y20403D01*
X-111702Y20400D01*
X-111701Y20393D01*
X-111699Y20384D01*
X-111696Y20374D01*
X-111691Y20364D01*
X-111685Y20353D01*
X-111675Y20343D01*
X-111674Y20342D01*
X-111671Y20339D01*
X-111665Y20335D01*
X-111657Y20330D01*
X-111647Y20326D01*
X-111635Y20322D01*
X-111621Y20319D01*
X-111605Y20318D01*
X-111601D01*
X-111598Y20318D01*
X-111594D01*
X-111590Y20319D01*
X-111580Y20321D01*
X-111568Y20324D01*
X-111556Y20329D01*
X-111544Y20335D01*
X-111533Y20345D01*
X-111532Y20346D01*
X-111529Y20349D01*
X-111524Y20356D01*
X-111520Y20364D01*
X-111514Y20375D01*
X-111510Y20388D01*
X-111507Y20403D01*
X-111506Y20420D01*
X-111441Y20413D01*
Y20413D01*
X-111442Y20410D01*
Y20407D01*
X-111442Y20401D01*
X-111444Y20395D01*
X-111445Y20389D01*
X-111447Y20381D01*
X-111450Y20373D01*
X-111456Y20355D01*
X-111460Y20345D01*
X-111464Y20337D01*
X-111470Y20327D01*
X-111476Y20319D01*
X-111482Y20311D01*
X-111490Y20304D01*
X-111491Y20303D01*
X-111492Y20302D01*
X-111495Y20300D01*
X-111498Y20298D01*
X-111503Y20295D01*
X-111508Y20292D01*
X-111514Y20288D01*
X-111522Y20284D01*
X-111530Y20281D01*
X-111538Y20278D01*
X-111548Y20274D01*
X-111558Y20272D01*
X-111569Y20269D01*
X-111581Y20267D01*
X-111594Y20266D01*
X-111607Y20266D01*
X-111614D01*
X-111619Y20266D01*
X-111625Y20267D01*
X-111633Y20268D01*
X-111641Y20269D01*
X-111649Y20271D01*
X-111668Y20276D01*
X-111677Y20279D01*
X-111687Y20283D01*
X-111697Y20288D01*
X-111707Y20294D01*
X-111715Y20300D01*
X-111724Y20307D01*
X-111725Y20308D01*
X-111726Y20309D01*
X-111728Y20311D01*
X-111731Y20314D01*
X-111734Y20318D01*
X-111738Y20323D01*
X-111741Y20328D01*
X-111746Y20335D01*
X-111750Y20341D01*
X-111753Y20349D01*
X-111761Y20367D01*
X-111763Y20376D01*
X-111765Y20386D01*
X-111767Y20397D01*
X-111767Y20408D01*
Y20409D01*
Y20413D01*
X-111767Y20419D01*
X-111766Y20427D01*
X-111764Y20436D01*
X-111762Y20447D01*
X-111759Y20457D01*
X-111755Y20469D01*
X-111754Y20470D01*
X-111752Y20474D01*
X-111749Y20480D01*
X-111745Y20487D01*
X-111739Y20497D01*
X-111731Y20507D01*
X-111723Y20519D01*
X-111713Y20531D01*
Y20532D01*
X-111711Y20532D01*
X-111709Y20534D01*
X-111707Y20537D01*
X-111704Y20540D01*
X-111700Y20544D01*
X-111695Y20549D01*
X-111689Y20554D01*
X-111683Y20560D01*
X-111676Y20567D01*
X-111668Y20575D01*
X-111659Y20583D01*
X-111649Y20592D01*
X-111639Y20600D01*
X-111627Y20610D01*
X-111615Y20621D01*
X-111615Y20622D01*
X-111613Y20623D01*
X-111610Y20626D01*
X-111606Y20628D01*
X-111602Y20632D01*
X-111597Y20637D01*
X-111586Y20647D01*
X-111573Y20658D01*
X-111561Y20668D01*
X-111556Y20673D01*
X-111551Y20678D01*
X-111546Y20682D01*
X-111543Y20686D01*
X-111542Y20686D01*
X-111540Y20688D01*
X-111538Y20692D01*
X-111534Y20696D01*
X-111530Y20701D01*
X-111525Y20707D01*
X-111516Y20719D01*
X-111768D01*
Y20779D01*
X-111429D01*
Y20778D01*
D02*
G37*
G36*
X-15848Y36783D02*
X-15840D01*
X-15832Y36783D01*
X-15824Y36781D01*
X-15814Y36780D01*
X-15803Y36779D01*
X-15792Y36777D01*
X-15768Y36771D01*
X-15745Y36764D01*
X-15733Y36759D01*
X-15722Y36754D01*
X-15721Y36753D01*
X-15719Y36753D01*
X-15716Y36751D01*
X-15712Y36748D01*
X-15707Y36745D01*
X-15701Y36741D01*
X-15695Y36737D01*
X-15688Y36731D01*
X-15673Y36719D01*
X-15659Y36704D01*
X-15644Y36687D01*
X-15637Y36677D01*
X-15631Y36667D01*
X-15631Y36666D01*
X-15630Y36664D01*
X-15629Y36661D01*
X-15627Y36657D01*
X-15624Y36652D01*
X-15621Y36646D01*
X-15619Y36638D01*
X-15615Y36630D01*
X-15613Y36621D01*
X-15610Y36612D01*
X-15605Y36590D01*
X-15601Y36567D01*
X-15600Y36555D01*
Y36535D01*
X-15601Y36530D01*
X-15601Y36523D01*
X-15602Y36515D01*
X-15603Y36507D01*
X-15605Y36497D01*
X-15609Y36477D01*
X-15613Y36467D01*
X-15617Y36455D01*
X-15621Y36445D01*
X-15626Y36434D01*
X-15633Y36423D01*
X-15639Y36413D01*
X-15640Y36413D01*
X-15641Y36411D01*
X-15643Y36408D01*
X-15647Y36405D01*
X-15651Y36401D01*
X-15655Y36395D01*
X-15661Y36390D01*
X-15668Y36384D01*
X-15675Y36378D01*
X-15683Y36372D01*
X-15692Y36366D01*
X-15702Y36360D01*
X-15712Y36354D01*
X-15724Y36349D01*
X-15736Y36343D01*
X-15749Y36339D01*
X-15765Y36406D01*
X-15764D01*
X-15762Y36407D01*
X-15760Y36408D01*
X-15756Y36409D01*
X-15751Y36411D01*
X-15746Y36413D01*
X-15734Y36419D01*
X-15720Y36427D01*
X-15707Y36435D01*
X-15694Y36446D01*
X-15689Y36452D01*
X-15684Y36458D01*
Y36459D01*
X-15682Y36459D01*
X-15681Y36461D01*
X-15680Y36464D01*
X-15678Y36467D01*
X-15676Y36471D01*
X-15670Y36481D01*
X-15666Y36494D01*
X-15662Y36508D01*
X-15659Y36525D01*
X-15658Y36544D01*
Y36550D01*
X-15659Y36554D01*
Y36558D01*
X-15659Y36564D01*
X-15661Y36571D01*
X-15661Y36578D01*
X-15665Y36594D01*
X-15670Y36610D01*
X-15677Y36627D01*
X-15681Y36635D01*
X-15686Y36643D01*
Y36644D01*
X-15688Y36645D01*
X-15689Y36647D01*
X-15692Y36650D01*
X-15698Y36656D01*
X-15706Y36664D01*
X-15717Y36674D01*
X-15730Y36683D01*
X-15745Y36692D01*
X-15762Y36698D01*
X-15763D01*
X-15764Y36699D01*
X-15767Y36699D01*
X-15770Y36701D01*
X-15775Y36702D01*
X-15780Y36703D01*
X-15786Y36705D01*
X-15792Y36706D01*
X-15808Y36709D01*
X-15824Y36711D01*
X-15842Y36713D01*
X-15861Y36714D01*
X-15861D01*
X-15863D01*
X-15867D01*
X-15871D01*
X-15877Y36713D01*
X-15884Y36713D01*
X-15891D01*
X-15899Y36711D01*
X-15917Y36709D01*
X-15936Y36706D01*
X-15956Y36701D01*
X-15975Y36695D01*
X-15975D01*
X-15977Y36695D01*
X-15979Y36694D01*
X-15983Y36692D01*
X-15987Y36690D01*
X-15991Y36688D01*
X-16002Y36681D01*
X-16014Y36672D01*
X-16026Y36662D01*
X-16037Y36650D01*
X-16047Y36636D01*
Y36636D01*
X-16048Y36634D01*
X-16049Y36632D01*
X-16051Y36629D01*
X-16052Y36626D01*
X-16054Y36621D01*
X-16059Y36610D01*
X-16064Y36597D01*
X-16067Y36582D01*
X-16070Y36566D01*
X-16071Y36549D01*
Y36544D01*
X-16070Y36540D01*
X-16070Y36534D01*
X-16069Y36529D01*
X-16068Y36522D01*
X-16067Y36516D01*
X-16063Y36501D01*
X-16057Y36485D01*
X-16054Y36476D01*
X-16049Y36468D01*
X-16045Y36460D01*
X-16039Y36453D01*
X-16038Y36452D01*
X-16037Y36451D01*
X-16035Y36449D01*
X-16033Y36446D01*
X-16029Y36443D01*
X-16025Y36439D01*
X-16020Y36435D01*
X-16014Y36431D01*
X-16008Y36427D01*
X-16001Y36422D01*
X-15993Y36418D01*
X-15984Y36413D01*
X-15974Y36409D01*
X-15964Y36405D01*
X-15953Y36402D01*
X-15941Y36399D01*
X-15959Y36331D01*
X-15959D01*
X-15962Y36332D01*
X-15967Y36333D01*
X-15973Y36335D01*
X-15979Y36337D01*
X-15987Y36341D01*
X-15996Y36344D01*
X-16006Y36349D01*
X-16016Y36353D01*
X-16027Y36359D01*
X-16037Y36365D01*
X-16047Y36373D01*
X-16058Y36380D01*
X-16068Y36389D01*
X-16077Y36398D01*
X-16086Y36408D01*
X-16086Y36409D01*
X-16088Y36411D01*
X-16090Y36413D01*
X-16092Y36418D01*
X-16096Y36423D01*
X-16100Y36430D01*
X-16103Y36437D01*
X-16107Y36445D01*
X-16112Y36455D01*
X-16115Y36465D01*
X-16119Y36477D01*
X-16122Y36489D01*
X-16125Y36501D01*
X-16127Y36514D01*
X-16128Y36528D01*
X-16129Y36543D01*
Y36551D01*
X-16128Y36557D01*
X-16128Y36564D01*
X-16127Y36572D01*
X-16126Y36581D01*
X-16125Y36591D01*
X-16121Y36612D01*
X-16115Y36635D01*
X-16111Y36646D01*
X-16106Y36658D01*
X-16102Y36668D01*
X-16096Y36678D01*
X-16095Y36679D01*
X-16094Y36680D01*
X-16092Y36683D01*
X-16089Y36687D01*
X-16086Y36691D01*
X-16082Y36696D01*
X-16076Y36701D01*
X-16070Y36707D01*
X-16064Y36714D01*
X-16057Y36720D01*
X-16049Y36727D01*
X-16040Y36733D01*
X-16031Y36740D01*
X-16021Y36746D01*
X-16009Y36752D01*
X-15998Y36757D01*
X-15997D01*
X-15995Y36759D01*
X-15991Y36760D01*
X-15987Y36761D01*
X-15981Y36763D01*
X-15974Y36766D01*
X-15966Y36768D01*
X-15957Y36771D01*
X-15947Y36773D01*
X-15936Y36775D01*
X-15925Y36778D01*
X-15913Y36780D01*
X-15887Y36783D01*
X-15861Y36784D01*
X-15860D01*
X-15858D01*
X-15853D01*
X-15848Y36783D01*
D02*
G37*
G36*
X-16106Y36282D02*
X-16100Y36281D01*
X-16092Y36280D01*
X-16085Y36278D01*
X-16077Y36275D01*
X-16076D01*
X-16076Y36274D01*
X-16074Y36274D01*
X-16071Y36272D01*
X-16064Y36270D01*
X-16056Y36265D01*
X-16045Y36259D01*
X-16034Y36252D01*
X-16022Y36244D01*
X-16009Y36234D01*
X-16009Y36233D01*
X-16008Y36232D01*
X-16006Y36230D01*
X-16003Y36228D01*
X-15996Y36222D01*
X-15987Y36212D01*
X-15975Y36201D01*
X-15962Y36187D01*
X-15947Y36170D01*
X-15931Y36151D01*
X-15931Y36150D01*
X-15928Y36148D01*
X-15925Y36143D01*
X-15920Y36138D01*
X-15914Y36131D01*
X-15907Y36123D01*
X-15900Y36115D01*
X-15892Y36106D01*
X-15875Y36087D01*
X-15857Y36069D01*
X-15848Y36060D01*
X-15839Y36052D01*
X-15831Y36045D01*
X-15823Y36039D01*
X-15822Y36038D01*
X-15821Y36037D01*
X-15819Y36036D01*
X-15816Y36034D01*
X-15812Y36032D01*
X-15808Y36029D01*
X-15798Y36023D01*
X-15787Y36018D01*
X-15774Y36013D01*
X-15760Y36010D01*
X-15754Y36009D01*
X-15747D01*
X-15746D01*
X-15745D01*
X-15744D01*
X-15741Y36009D01*
X-15734Y36010D01*
X-15725Y36012D01*
X-15715Y36015D01*
X-15705Y36020D01*
X-15694Y36027D01*
X-15684Y36036D01*
X-15683Y36037D01*
X-15680Y36041D01*
X-15676Y36047D01*
X-15671Y36055D01*
X-15667Y36065D01*
X-15663Y36077D01*
X-15660Y36091D01*
X-15659Y36106D01*
Y36111D01*
X-15659Y36113D01*
Y36117D01*
X-15660Y36122D01*
X-15662Y36132D01*
X-15665Y36143D01*
X-15670Y36156D01*
X-15676Y36168D01*
X-15686Y36178D01*
X-15687Y36180D01*
X-15690Y36182D01*
X-15697Y36187D01*
X-15705Y36192D01*
X-15716Y36197D01*
X-15729Y36202D01*
X-15744Y36204D01*
X-15761Y36206D01*
X-15754Y36270D01*
X-15754D01*
X-15751Y36270D01*
X-15748D01*
X-15742Y36269D01*
X-15736Y36268D01*
X-15730Y36266D01*
X-15722Y36264D01*
X-15714Y36262D01*
X-15696Y36256D01*
X-15686Y36252D01*
X-15678Y36247D01*
X-15669Y36242D01*
X-15660Y36236D01*
X-15652Y36229D01*
X-15645Y36221D01*
X-15644Y36220D01*
X-15643Y36219D01*
X-15641Y36216D01*
X-15639Y36213D01*
X-15636Y36208D01*
X-15633Y36203D01*
X-15629Y36197D01*
X-15625Y36190D01*
X-15622Y36182D01*
X-15619Y36173D01*
X-15615Y36164D01*
X-15613Y36153D01*
X-15610Y36142D01*
X-15608Y36131D01*
X-15607Y36118D01*
X-15607Y36105D01*
Y36097D01*
X-15607Y36093D01*
X-15608Y36086D01*
X-15609Y36079D01*
X-15610Y36071D01*
X-15612Y36062D01*
X-15617Y36043D01*
X-15620Y36034D01*
X-15624Y36024D01*
X-15629Y36014D01*
X-15635Y36005D01*
X-15641Y35996D01*
X-15648Y35987D01*
X-15649Y35987D01*
X-15650Y35985D01*
X-15652Y35983D01*
X-15655Y35981D01*
X-15659Y35977D01*
X-15664Y35973D01*
X-15669Y35970D01*
X-15676Y35965D01*
X-15682Y35961D01*
X-15690Y35958D01*
X-15708Y35951D01*
X-15717Y35948D01*
X-15727Y35946D01*
X-15738Y35945D01*
X-15749Y35944D01*
X-15750D01*
X-15754D01*
X-15760Y35945D01*
X-15768Y35945D01*
X-15777Y35947D01*
X-15788Y35950D01*
X-15798Y35953D01*
X-15810Y35957D01*
X-15811Y35957D01*
X-15815Y35959D01*
X-15821Y35962D01*
X-15828Y35967D01*
X-15838Y35973D01*
X-15848Y35980D01*
X-15860Y35989D01*
X-15872Y35999D01*
X-15873D01*
X-15873Y36000D01*
X-15875Y36002D01*
X-15878Y36004D01*
X-15881Y36007D01*
X-15885Y36011D01*
X-15890Y36016D01*
X-15895Y36022D01*
X-15901Y36028D01*
X-15908Y36035D01*
X-15916Y36043D01*
X-15924Y36052D01*
X-15933Y36062D01*
X-15941Y36072D01*
X-15951Y36084D01*
X-15962Y36096D01*
X-15963Y36097D01*
X-15964Y36099D01*
X-15967Y36101D01*
X-15969Y36105D01*
X-15973Y36109D01*
X-15978Y36115D01*
X-15988Y36126D01*
X-15999Y36138D01*
X-16009Y36150D01*
X-16014Y36156D01*
X-16019Y36160D01*
X-16023Y36165D01*
X-16027Y36168D01*
X-16027Y36169D01*
X-16029Y36171D01*
X-16033Y36174D01*
X-16037Y36178D01*
X-16042Y36182D01*
X-16048Y36186D01*
X-16060Y36195D01*
Y35944D01*
X-16120D01*
Y36282D01*
X-16119D01*
X-16116D01*
X-16112D01*
X-16106Y36282D01*
D02*
G37*
G36*
X-16531Y92118D02*
X-16525Y92117D01*
X-16519Y92116D01*
X-16511Y92115D01*
X-16503Y92113D01*
X-16495Y92110D01*
X-16485Y92107D01*
X-16476Y92103D01*
X-16466Y92098D01*
X-16457Y92092D01*
X-16447Y92086D01*
X-16438Y92078D01*
X-16429Y92070D01*
X-16428Y92069D01*
X-16427Y92068D01*
X-16425Y92065D01*
X-16422Y92061D01*
X-16418Y92056D01*
X-16414Y92050D01*
X-16410Y92044D01*
X-16406Y92036D01*
X-16402Y92028D01*
X-16398Y92018D01*
X-16394Y92008D01*
X-16390Y91997D01*
X-16387Y91986D01*
X-16385Y91973D01*
X-16384Y91960D01*
X-16383Y91946D01*
Y91940D01*
X-16384Y91935D01*
X-16384Y91930D01*
X-16385Y91923D01*
X-16386Y91915D01*
X-16388Y91907D01*
X-16393Y91890D01*
X-16396Y91881D01*
X-16400Y91871D01*
X-16404Y91861D01*
X-16410Y91852D01*
X-16416Y91843D01*
X-16423Y91835D01*
X-16424Y91834D01*
X-16425Y91833D01*
X-16427Y91831D01*
X-16430Y91827D01*
X-16434Y91824D01*
X-16439Y91820D01*
X-16445Y91816D01*
X-16451Y91811D01*
X-16458Y91807D01*
X-16466Y91803D01*
X-16475Y91799D01*
X-16484Y91795D01*
X-16494Y91791D01*
X-16504Y91788D01*
X-16515Y91785D01*
X-16527Y91784D01*
X-16536Y91847D01*
X-16535D01*
X-16533Y91847D01*
X-16531Y91848D01*
X-16527Y91849D01*
X-16523Y91850D01*
X-16518Y91851D01*
X-16506Y91855D01*
X-16493Y91860D01*
X-16481Y91867D01*
X-16468Y91874D01*
X-16463Y91878D01*
X-16458Y91883D01*
X-16458Y91884D01*
X-16455Y91887D01*
X-16451Y91893D01*
X-16447Y91901D01*
X-16442Y91910D01*
X-16439Y91921D01*
X-16436Y91933D01*
X-16435Y91946D01*
Y91951D01*
X-16436Y91954D01*
Y91958D01*
X-16436Y91962D01*
X-16439Y91972D01*
X-16442Y91984D01*
X-16448Y91997D01*
X-16456Y92010D01*
X-16460Y92016D01*
X-16466Y92022D01*
X-16466Y92022D01*
X-16467Y92023D01*
X-16469Y92024D01*
X-16471Y92026D01*
X-16478Y92032D01*
X-16487Y92037D01*
X-16497Y92042D01*
X-16511Y92048D01*
X-16525Y92051D01*
X-16533Y92052D01*
X-16541D01*
X-16542D01*
X-16543D01*
X-16545D01*
X-16549Y92052D01*
X-16552D01*
X-16557Y92051D01*
X-16567Y92049D01*
X-16578Y92046D01*
X-16590Y92040D01*
X-16601Y92033D01*
X-16607Y92029D01*
X-16613Y92024D01*
X-16614Y92022D01*
X-16617Y92018D01*
X-16621Y92012D01*
X-16627Y92004D01*
X-16632Y91994D01*
X-16636Y91982D01*
X-16639Y91968D01*
X-16641Y91952D01*
Y91944D01*
X-16640Y91940D01*
X-16639Y91933D01*
X-16638Y91925D01*
X-16636Y91917D01*
X-16634Y91907D01*
X-16689Y91915D01*
Y91916D01*
X-16688Y91918D01*
X-16688Y91921D01*
Y91928D01*
X-16688Y91931D01*
X-16689Y91939D01*
X-16690Y91948D01*
X-16693Y91960D01*
X-16696Y91972D01*
X-16702Y91984D01*
X-16708Y91996D01*
Y91997D01*
X-16710Y91998D01*
X-16712Y92002D01*
X-16718Y92007D01*
X-16724Y92013D01*
X-16734Y92019D01*
X-16745Y92024D01*
X-16758Y92028D01*
X-16766Y92028D01*
X-16774Y92029D01*
X-16774D01*
X-16775D01*
X-16780Y92028D01*
X-16786Y92028D01*
X-16794Y92026D01*
X-16802Y92023D01*
X-16812Y92019D01*
X-16822Y92013D01*
X-16830Y92005D01*
X-16832Y92004D01*
X-16834Y92001D01*
X-16838Y91996D01*
X-16842Y91989D01*
X-16846Y91980D01*
X-16850Y91970D01*
X-16853Y91958D01*
X-16853Y91945D01*
Y91942D01*
X-16853Y91939D01*
X-16852Y91932D01*
X-16851Y91923D01*
X-16847Y91914D01*
X-16844Y91903D01*
X-16838Y91893D01*
X-16830Y91883D01*
X-16829Y91882D01*
X-16826Y91879D01*
X-16821Y91875D01*
X-16813Y91871D01*
X-16804Y91865D01*
X-16792Y91860D01*
X-16778Y91856D01*
X-16762Y91853D01*
X-16773Y91790D01*
X-16774D01*
X-16776Y91791D01*
X-16779Y91791D01*
X-16784Y91793D01*
X-16788Y91794D01*
X-16795Y91796D01*
X-16802Y91798D01*
X-16809Y91801D01*
X-16824Y91808D01*
X-16840Y91817D01*
X-16856Y91828D01*
X-16863Y91835D01*
X-16870Y91842D01*
X-16871Y91843D01*
X-16871Y91844D01*
X-16873Y91846D01*
X-16875Y91849D01*
X-16878Y91853D01*
X-16881Y91858D01*
X-16885Y91864D01*
X-16888Y91870D01*
X-16891Y91877D01*
X-16894Y91885D01*
X-16900Y91902D01*
X-16904Y91922D01*
X-16905Y91932D01*
X-16905Y91944D01*
Y91951D01*
X-16905Y91954D01*
Y91959D01*
X-16903Y91969D01*
X-16901Y91981D01*
X-16898Y91994D01*
X-16893Y92007D01*
X-16887Y92020D01*
Y92021D01*
X-16887Y92022D01*
X-16885Y92024D01*
X-16884Y92026D01*
X-16880Y92032D01*
X-16875Y92040D01*
X-16867Y92049D01*
X-16859Y92058D01*
X-16850Y92067D01*
X-16838Y92074D01*
X-16838D01*
X-16837Y92075D01*
X-16833Y92078D01*
X-16826Y92080D01*
X-16818Y92084D01*
X-16808Y92088D01*
X-16797Y92091D01*
X-16785Y92093D01*
X-16772Y92094D01*
X-16772D01*
X-16771D01*
X-16767D01*
X-16760Y92093D01*
X-16752Y92092D01*
X-16743Y92089D01*
X-16733Y92086D01*
X-16722Y92082D01*
X-16712Y92076D01*
X-16710Y92075D01*
X-16707Y92072D01*
X-16702Y92068D01*
X-16696Y92062D01*
X-16689Y92055D01*
X-16682Y92046D01*
X-16675Y92035D01*
X-16668Y92023D01*
Y92024D01*
X-16668Y92025D01*
X-16667Y92028D01*
X-16666Y92030D01*
X-16665Y92034D01*
X-16663Y92039D01*
X-16659Y92049D01*
X-16653Y92060D01*
X-16645Y92072D01*
X-16636Y92084D01*
X-16625Y92094D01*
X-16624D01*
X-16623Y92095D01*
X-16621Y92096D01*
X-16619Y92098D01*
X-16615Y92100D01*
X-16612Y92102D01*
X-16602Y92106D01*
X-16590Y92111D01*
X-16576Y92115D01*
X-16561Y92117D01*
X-16543Y92119D01*
X-16542D01*
X-16540D01*
X-16536D01*
X-16531Y92118D01*
D02*
G37*
G36*
X-16550Y91725D02*
X-16545Y91724D01*
X-16539Y91722D01*
X-16533Y91720D01*
X-16525Y91716D01*
X-16516Y91713D01*
X-16506Y91708D01*
X-16496Y91704D01*
X-16485Y91698D01*
X-16476Y91692D01*
X-16465Y91684D01*
X-16454Y91677D01*
X-16444Y91668D01*
X-16435Y91659D01*
X-16426Y91649D01*
X-16426Y91648D01*
X-16424Y91646D01*
X-16422Y91644D01*
X-16420Y91639D01*
X-16416Y91634D01*
X-16412Y91627D01*
X-16409Y91620D01*
X-16405Y91612D01*
X-16400Y91602D01*
X-16397Y91592D01*
X-16393Y91580D01*
X-16390Y91568D01*
X-16387Y91556D01*
X-16385Y91543D01*
X-16384Y91529D01*
X-16383Y91514D01*
Y91506D01*
X-16384Y91500D01*
X-16384Y91493D01*
X-16385Y91485D01*
X-16386Y91476D01*
X-16387Y91466D01*
X-16391Y91445D01*
X-16397Y91422D01*
X-16401Y91411D01*
X-16406Y91399D01*
X-16410Y91389D01*
X-16416Y91379D01*
X-16417Y91378D01*
X-16418Y91377D01*
X-16420Y91374D01*
X-16423Y91370D01*
X-16426Y91366D01*
X-16430Y91361D01*
X-16436Y91356D01*
X-16442Y91350D01*
X-16448Y91343D01*
X-16455Y91337D01*
X-16463Y91330D01*
X-16472Y91324D01*
X-16481Y91317D01*
X-16491Y91311D01*
X-16503Y91305D01*
X-16514Y91300D01*
X-16515D01*
X-16517Y91298D01*
X-16521Y91297D01*
X-16525Y91296D01*
X-16531Y91294D01*
X-16538Y91291D01*
X-16546Y91289D01*
X-16555Y91286D01*
X-16565Y91284D01*
X-16576Y91282D01*
X-16587Y91279D01*
X-16599Y91277D01*
X-16625Y91274D01*
X-16651Y91273D01*
X-16652D01*
X-16655D01*
X-16659D01*
X-16664Y91274D01*
X-16672D01*
X-16680Y91274D01*
X-16688Y91276D01*
X-16698Y91277D01*
X-16709Y91278D01*
X-16720Y91280D01*
X-16744Y91286D01*
X-16767Y91293D01*
X-16779Y91298D01*
X-16790Y91303D01*
X-16791Y91304D01*
X-16793Y91304D01*
X-16796Y91306D01*
X-16800Y91309D01*
X-16805Y91312D01*
X-16811Y91316D01*
X-16817Y91320D01*
X-16824Y91326D01*
X-16839Y91338D01*
X-16853Y91353D01*
X-16868Y91370D01*
X-16875Y91380D01*
X-16881Y91390D01*
X-16881Y91391D01*
X-16882Y91393D01*
X-16883Y91396D01*
X-16885Y91400D01*
X-16888Y91405D01*
X-16891Y91411D01*
X-16893Y91419D01*
X-16897Y91427D01*
X-16899Y91436D01*
X-16902Y91445D01*
X-16907Y91467D01*
X-16911Y91490D01*
X-16912Y91502D01*
Y91522D01*
X-16911Y91527D01*
X-16911Y91534D01*
X-16910Y91542D01*
X-16909Y91550D01*
X-16907Y91560D01*
X-16903Y91580D01*
X-16899Y91590D01*
X-16895Y91602D01*
X-16891Y91612D01*
X-16886Y91623D01*
X-16879Y91634D01*
X-16873Y91644D01*
X-16872Y91644D01*
X-16871Y91646D01*
X-16869Y91649D01*
X-16865Y91652D01*
X-16861Y91656D01*
X-16857Y91662D01*
X-16851Y91667D01*
X-16844Y91673D01*
X-16837Y91679D01*
X-16829Y91685D01*
X-16820Y91691D01*
X-16810Y91697D01*
X-16800Y91703D01*
X-16788Y91708D01*
X-16776Y91714D01*
X-16763Y91718D01*
X-16747Y91651D01*
X-16748D01*
X-16750Y91650D01*
X-16752Y91649D01*
X-16756Y91648D01*
X-16761Y91646D01*
X-16766Y91644D01*
X-16778Y91638D01*
X-16792Y91630D01*
X-16805Y91622D01*
X-16818Y91611D01*
X-16823Y91605D01*
X-16828Y91599D01*
Y91598D01*
X-16830Y91598D01*
X-16831Y91596D01*
X-16832Y91593D01*
X-16834Y91590D01*
X-16836Y91586D01*
X-16842Y91576D01*
X-16846Y91563D01*
X-16850Y91549D01*
X-16853Y91532D01*
X-16854Y91513D01*
Y91507D01*
X-16853Y91503D01*
Y91499D01*
X-16853Y91493D01*
X-16851Y91486D01*
X-16851Y91479D01*
X-16847Y91463D01*
X-16842Y91447D01*
X-16835Y91430D01*
X-16831Y91422D01*
X-16826Y91414D01*
Y91413D01*
X-16824Y91412D01*
X-16823Y91410D01*
X-16820Y91407D01*
X-16814Y91401D01*
X-16806Y91393D01*
X-16795Y91383D01*
X-16782Y91374D01*
X-16767Y91365D01*
X-16750Y91359D01*
X-16749D01*
X-16748Y91358D01*
X-16745Y91357D01*
X-16742Y91356D01*
X-16737Y91355D01*
X-16732Y91354D01*
X-16726Y91352D01*
X-16720Y91351D01*
X-16704Y91348D01*
X-16688Y91346D01*
X-16670Y91344D01*
X-16651Y91343D01*
X-16651D01*
X-16649D01*
X-16645D01*
X-16641D01*
X-16635Y91344D01*
X-16628Y91344D01*
X-16621D01*
X-16613Y91346D01*
X-16595Y91348D01*
X-16576Y91351D01*
X-16556Y91356D01*
X-16537Y91362D01*
X-16537D01*
X-16535Y91362D01*
X-16533Y91363D01*
X-16529Y91365D01*
X-16525Y91367D01*
X-16521Y91369D01*
X-16510Y91376D01*
X-16498Y91385D01*
X-16486Y91395D01*
X-16475Y91407D01*
X-16465Y91421D01*
Y91421D01*
X-16464Y91423D01*
X-16463Y91425D01*
X-16461Y91428D01*
X-16460Y91431D01*
X-16458Y91436D01*
X-16453Y91447D01*
X-16448Y91460D01*
X-16445Y91475D01*
X-16442Y91491D01*
X-16441Y91508D01*
Y91513D01*
X-16442Y91517D01*
X-16442Y91523D01*
X-16443Y91528D01*
X-16444Y91535D01*
X-16445Y91541D01*
X-16449Y91556D01*
X-16455Y91572D01*
X-16458Y91581D01*
X-16463Y91589D01*
X-16468Y91597D01*
X-16473Y91604D01*
X-16474Y91605D01*
X-16475Y91606D01*
X-16477Y91608D01*
X-16479Y91611D01*
X-16483Y91614D01*
X-16487Y91618D01*
X-16492Y91622D01*
X-16498Y91626D01*
X-16504Y91630D01*
X-16511Y91635D01*
X-16519Y91639D01*
X-16528Y91644D01*
X-16538Y91648D01*
X-16548Y91652D01*
X-16559Y91655D01*
X-16571Y91658D01*
X-16553Y91726D01*
X-16553D01*
X-16550Y91725D01*
D02*
G37*
G36*
X-110794Y52399D02*
X-111032D01*
X-111038Y52399D01*
X-111044D01*
X-111052Y52400D01*
X-111060Y52401D01*
X-111076Y52402D01*
X-111093Y52405D01*
X-111110Y52408D01*
X-111118Y52410D01*
X-111125Y52413D01*
X-111125D01*
X-111126Y52413D01*
X-111128Y52414D01*
X-111131Y52415D01*
X-111137Y52419D01*
X-111145Y52424D01*
X-111155Y52431D01*
X-111164Y52439D01*
X-111173Y52450D01*
X-111182Y52462D01*
Y52462D01*
X-111183Y52463D01*
X-111184Y52465D01*
X-111185Y52468D01*
X-111189Y52475D01*
X-111193Y52484D01*
X-111197Y52496D01*
X-111200Y52509D01*
X-111203Y52524D01*
X-111203Y52539D01*
Y52540D01*
Y52542D01*
Y52544D01*
X-111203Y52548D01*
X-111202Y52553D01*
X-111201Y52558D01*
X-111199Y52571D01*
X-111195Y52586D01*
X-111189Y52601D01*
X-111185Y52608D01*
X-111180Y52616D01*
X-111174Y52624D01*
X-111168Y52631D01*
X-111167Y52632D01*
X-111167Y52632D01*
X-111164Y52634D01*
X-111161Y52637D01*
X-111157Y52640D01*
X-111153Y52643D01*
X-111147Y52647D01*
X-111141Y52651D01*
X-111134Y52655D01*
X-111126Y52659D01*
X-111117Y52663D01*
X-111107Y52667D01*
X-111096Y52670D01*
X-111085Y52673D01*
X-111072Y52676D01*
X-111059Y52678D01*
X-111060Y52679D01*
X-111064Y52680D01*
X-111068Y52683D01*
X-111074Y52686D01*
X-111087Y52695D01*
X-111093Y52699D01*
X-111099Y52704D01*
X-111100D01*
X-111101Y52705D01*
X-111105Y52709D01*
X-111110Y52715D01*
X-111118Y52723D01*
X-111127Y52732D01*
X-111136Y52744D01*
X-111146Y52757D01*
X-111156Y52772D01*
X-111245Y52910D01*
X-111159D01*
X-111092Y52805D01*
Y52804D01*
X-111091Y52803D01*
X-111089Y52800D01*
X-111087Y52797D01*
X-111085Y52793D01*
X-111081Y52789D01*
X-111075Y52779D01*
X-111067Y52767D01*
X-111059Y52756D01*
X-111051Y52745D01*
X-111043Y52735D01*
X-111042Y52733D01*
X-111040Y52731D01*
X-111036Y52726D01*
X-111032Y52721D01*
X-111026Y52715D01*
X-111020Y52709D01*
X-111014Y52705D01*
X-111008Y52700D01*
X-111008Y52699D01*
X-111006Y52699D01*
X-111003Y52697D01*
X-110999Y52695D01*
X-110994Y52692D01*
X-110989Y52690D01*
X-110978Y52686D01*
X-110977D01*
X-110976Y52685D01*
X-110973D01*
X-110969Y52685D01*
X-110964Y52684D01*
X-110957D01*
X-110950Y52683D01*
X-110862D01*
Y52910D01*
X-110794D01*
Y52399D01*
D02*
G37*
G36*
X-112155Y52910D02*
Y52908D01*
Y52904D01*
X-112156Y52900D01*
Y52894D01*
X-112156Y52887D01*
X-112157Y52879D01*
X-112158Y52870D01*
X-112160Y52860D01*
X-112161Y52848D01*
X-112163Y52836D01*
X-112165Y52824D01*
X-112168Y52811D01*
X-112171Y52796D01*
X-112174Y52781D01*
X-112178Y52765D01*
Y52764D01*
X-112180Y52761D01*
X-112181Y52757D01*
X-112182Y52751D01*
X-112185Y52743D01*
X-112188Y52734D01*
X-112191Y52724D01*
X-112195Y52713D01*
X-112199Y52700D01*
X-112204Y52687D01*
X-112215Y52659D01*
X-112228Y52630D01*
X-112243Y52600D01*
X-112243Y52600D01*
X-112245Y52597D01*
X-112247Y52592D01*
X-112250Y52587D01*
X-112254Y52580D01*
X-112259Y52572D01*
X-112264Y52563D01*
X-112270Y52554D01*
X-112283Y52532D01*
X-112299Y52510D01*
X-112316Y52487D01*
X-112333Y52466D01*
X-112083D01*
Y52405D01*
X-112414D01*
Y52454D01*
X-112413Y52455D01*
X-112412Y52457D01*
X-112409Y52460D01*
X-112405Y52464D01*
X-112401Y52469D01*
X-112396Y52476D01*
X-112390Y52483D01*
X-112383Y52491D01*
X-112376Y52500D01*
X-112369Y52511D01*
X-112361Y52522D01*
X-112352Y52535D01*
X-112343Y52548D01*
X-112335Y52562D01*
X-112326Y52577D01*
X-112317Y52593D01*
X-112316Y52594D01*
X-112315Y52597D01*
X-112312Y52602D01*
X-112309Y52608D01*
X-112305Y52616D01*
X-112301Y52625D01*
X-112295Y52636D01*
X-112290Y52647D01*
X-112284Y52660D01*
X-112278Y52674D01*
X-112272Y52689D01*
X-112266Y52704D01*
X-112254Y52736D01*
X-112243Y52770D01*
Y52771D01*
X-112243Y52773D01*
X-112241Y52777D01*
X-112240Y52781D01*
X-112239Y52787D01*
X-112237Y52795D01*
X-112235Y52803D01*
X-112233Y52812D01*
X-112231Y52822D01*
X-112229Y52833D01*
X-112227Y52844D01*
X-112225Y52856D01*
X-112222Y52882D01*
X-112219Y52910D01*
X-112155D01*
Y52910D01*
D02*
G37*
G36*
X-111458Y52510D02*
X-111457Y52511D01*
X-111454Y52514D01*
X-111449Y52518D01*
X-111442Y52524D01*
X-111434Y52530D01*
X-111423Y52538D01*
X-111412Y52546D01*
X-111398Y52554D01*
X-111398D01*
X-111397Y52554D01*
X-111395Y52556D01*
X-111392Y52557D01*
X-111385Y52561D01*
X-111376Y52566D01*
X-111366Y52571D01*
X-111355Y52576D01*
X-111344Y52582D01*
X-111332Y52586D01*
Y52525D01*
X-111333D01*
X-111335Y52524D01*
X-111338Y52522D01*
X-111341Y52520D01*
X-111346Y52518D01*
X-111351Y52515D01*
X-111364Y52508D01*
X-111378Y52500D01*
X-111394Y52489D01*
X-111409Y52478D01*
X-111424Y52465D01*
X-111425Y52464D01*
X-111426Y52464D01*
X-111428Y52462D01*
X-111431Y52459D01*
X-111438Y52453D01*
X-111446Y52443D01*
X-111455Y52433D01*
X-111464Y52421D01*
X-111473Y52409D01*
X-111480Y52397D01*
X-111521D01*
Y52910D01*
X-111458D01*
Y52510D01*
D02*
G37*
G36*
X-111841Y52918D02*
X-111836D01*
X-111829Y52918D01*
X-111823Y52916D01*
X-111815Y52914D01*
X-111806Y52912D01*
X-111797Y52910D01*
X-111788Y52906D01*
X-111778Y52902D01*
X-111768Y52897D01*
X-111758Y52891D01*
X-111749Y52884D01*
X-111740Y52876D01*
X-111732Y52866D01*
X-111731Y52866D01*
X-111730Y52863D01*
X-111727Y52860D01*
X-111724Y52854D01*
X-111720Y52847D01*
X-111716Y52838D01*
X-111712Y52828D01*
X-111707Y52817D01*
X-111702Y52803D01*
X-111698Y52787D01*
X-111693Y52771D01*
X-111690Y52751D01*
X-111686Y52731D01*
X-111684Y52709D01*
X-111682Y52684D01*
X-111682Y52658D01*
Y52657D01*
Y52654D01*
Y52649D01*
Y52643D01*
X-111682Y52636D01*
X-111683Y52627D01*
Y52617D01*
X-111684Y52606D01*
X-111686Y52583D01*
X-111690Y52558D01*
X-111694Y52534D01*
X-111697Y52523D01*
X-111700Y52512D01*
Y52512D01*
X-111701Y52510D01*
X-111702Y52507D01*
X-111704Y52503D01*
X-111706Y52498D01*
X-111708Y52493D01*
X-111714Y52480D01*
X-111722Y52467D01*
X-111732Y52453D01*
X-111743Y52439D01*
X-111756Y52427D01*
X-111756Y52426D01*
X-111758Y52425D01*
X-111760Y52424D01*
X-111762Y52422D01*
X-111766Y52420D01*
X-111770Y52417D01*
X-111775Y52415D01*
X-111781Y52411D01*
X-111794Y52406D01*
X-111810Y52401D01*
X-111828Y52398D01*
X-111838Y52397D01*
X-111855D01*
X-111859Y52397D01*
X-111863D01*
X-111873Y52399D01*
X-111884Y52401D01*
X-111896Y52404D01*
X-111909Y52408D01*
X-111921Y52413D01*
X-111921D01*
X-111922Y52414D01*
X-111926Y52417D01*
X-111931Y52420D01*
X-111939Y52425D01*
X-111947Y52433D01*
X-111955Y52441D01*
X-111964Y52450D01*
X-111972Y52461D01*
Y52462D01*
X-111973Y52462D01*
X-111974Y52464D01*
X-111975Y52466D01*
X-111979Y52473D01*
X-111983Y52482D01*
X-111989Y52494D01*
X-111994Y52506D01*
X-111999Y52522D01*
X-112003Y52538D01*
Y52538D01*
X-112004Y52540D01*
X-112005Y52542D01*
X-112005Y52546D01*
X-112006Y52550D01*
X-112007Y52556D01*
X-112008Y52562D01*
X-112009Y52570D01*
X-112010Y52578D01*
X-112011Y52587D01*
X-112012Y52596D01*
X-112013Y52608D01*
X-112014Y52619D01*
X-112014Y52631D01*
X-112015Y52644D01*
Y52658D01*
Y52659D01*
Y52662D01*
Y52667D01*
Y52673D01*
X-112014Y52681D01*
Y52689D01*
X-112014Y52699D01*
X-112013Y52710D01*
X-112010Y52733D01*
X-112007Y52758D01*
X-112003Y52782D01*
X-112000Y52793D01*
X-111997Y52804D01*
Y52805D01*
X-111996Y52807D01*
X-111995Y52809D01*
X-111993Y52813D01*
X-111991Y52818D01*
X-111989Y52823D01*
X-111983Y52835D01*
X-111975Y52849D01*
X-111965Y52863D01*
X-111954Y52877D01*
X-111941Y52889D01*
X-111940D01*
X-111939Y52890D01*
X-111937Y52892D01*
X-111934Y52894D01*
X-111931Y52896D01*
X-111926Y52898D01*
X-111921Y52901D01*
X-111915Y52904D01*
X-111902Y52910D01*
X-111886Y52914D01*
X-111868Y52918D01*
X-111858Y52918D01*
X-111848Y52919D01*
X-111845D01*
X-111841Y52918D01*
D02*
G37*
%LPC*%
G36*
X-112272Y116485D02*
X-112276D01*
X-112280Y116485D01*
X-112283D01*
X-112288Y116484D01*
X-112298Y116481D01*
X-112309Y116478D01*
X-112321Y116473D01*
X-112332Y116465D01*
X-112338Y116461D01*
X-112344Y116455D01*
X-112344Y116455D01*
X-112345Y116454D01*
X-112346Y116452D01*
X-112348Y116450D01*
X-112350Y116447D01*
X-112353Y116443D01*
X-112358Y116434D01*
X-112363Y116422D01*
X-112368Y116407D01*
X-112371Y116390D01*
X-112372Y116380D01*
Y116370D01*
Y116370D01*
Y116368D01*
Y116365D01*
X-112372Y116362D01*
Y116357D01*
X-112371Y116352D01*
X-112369Y116339D01*
X-112366Y116326D01*
X-112360Y116311D01*
X-112353Y116297D01*
X-112349Y116290D01*
X-112344Y116284D01*
Y116284D01*
X-112342Y116283D01*
X-112338Y116279D01*
X-112332Y116274D01*
X-112324Y116268D01*
X-112314Y116262D01*
X-112302Y116257D01*
X-112288Y116254D01*
X-112281Y116253D01*
X-112274Y116253D01*
X-112270D01*
X-112266Y116253D01*
X-112263Y116254D01*
X-112259Y116255D01*
X-112249Y116257D01*
X-112238Y116261D01*
X-112225Y116267D01*
X-112219Y116271D01*
X-112213Y116276D01*
X-112207Y116281D01*
X-112201Y116287D01*
Y116288D01*
X-112200Y116288D01*
X-112199Y116290D01*
X-112197Y116293D01*
X-112194Y116296D01*
X-112191Y116300D01*
X-112189Y116306D01*
X-112186Y116311D01*
X-112181Y116324D01*
X-112175Y116339D01*
X-112172Y116356D01*
X-112171Y116366D01*
X-112171Y116376D01*
Y116376D01*
Y116378D01*
Y116380D01*
X-112171Y116384D01*
Y116388D01*
X-112172Y116393D01*
X-112174Y116404D01*
X-112178Y116417D01*
X-112183Y116430D01*
X-112190Y116444D01*
X-112194Y116450D01*
X-112199Y116455D01*
X-112200D01*
X-112201Y116457D01*
X-112205Y116460D01*
X-112211Y116465D01*
X-112219Y116470D01*
X-112230Y116476D01*
X-112242Y116481D01*
X-112256Y116484D01*
X-112264Y116485D01*
X-112272Y116485D01*
D02*
G37*
G36*
X-110889Y116429D02*
X-111045D01*
X-111050Y116428D01*
X-111061Y116428D01*
X-111072Y116427D01*
X-111085Y116425D01*
X-111096Y116423D01*
X-111106Y116420D01*
X-111108Y116419D01*
X-111111Y116418D01*
X-111116Y116416D01*
X-111122Y116412D01*
X-111128Y116408D01*
X-111134Y116403D01*
X-111141Y116396D01*
X-111146Y116389D01*
X-111147Y116388D01*
X-111148Y116385D01*
X-111151Y116381D01*
X-111154Y116375D01*
X-111156Y116368D01*
X-111158Y116360D01*
X-111160Y116352D01*
X-111160Y116343D01*
Y116342D01*
Y116342D01*
Y116340D01*
X-111160Y116337D01*
X-111159Y116330D01*
X-111157Y116322D01*
X-111154Y116312D01*
X-111149Y116302D01*
X-111142Y116292D01*
X-111134Y116283D01*
X-111132Y116282D01*
X-111128Y116279D01*
X-111122Y116276D01*
X-111113Y116271D01*
X-111108Y116269D01*
X-111102Y116266D01*
X-111095Y116265D01*
X-111087Y116263D01*
X-111079Y116261D01*
X-111071Y116260D01*
X-111061Y116259D01*
X-110889D01*
Y116429D01*
D02*
G37*
G36*
X-111875Y116671D02*
X-111879D01*
X-111882Y116670D01*
X-111886Y116670D01*
X-111890Y116669D01*
X-111900Y116666D01*
X-111912Y116661D01*
X-111918Y116658D01*
X-111924Y116654D01*
X-111930Y116649D01*
X-111936Y116643D01*
X-111942Y116637D01*
X-111948Y116630D01*
X-111948Y116629D01*
X-111949Y116628D01*
X-111950Y116625D01*
X-111952Y116621D01*
X-111954Y116617D01*
X-111957Y116610D01*
X-111960Y116603D01*
X-111963Y116593D01*
X-111966Y116583D01*
X-111968Y116571D01*
X-111971Y116557D01*
X-111973Y116541D01*
X-111975Y116524D01*
X-111976Y116505D01*
X-111978Y116485D01*
Y116462D01*
Y116461D01*
Y116461D01*
Y116457D01*
Y116450D01*
X-111977Y116442D01*
Y116432D01*
X-111976Y116420D01*
X-111975Y116407D01*
X-111974Y116394D01*
X-111970Y116366D01*
X-111968Y116352D01*
X-111965Y116338D01*
X-111962Y116325D01*
X-111958Y116314D01*
X-111953Y116303D01*
X-111948Y116294D01*
Y116294D01*
X-111946Y116292D01*
X-111945Y116290D01*
X-111942Y116288D01*
X-111936Y116281D01*
X-111928Y116273D01*
X-111917Y116266D01*
X-111904Y116259D01*
X-111898Y116257D01*
X-111890Y116255D01*
X-111882Y116253D01*
X-111874Y116253D01*
X-111870D01*
X-111867Y116253D01*
X-111859Y116255D01*
X-111850Y116257D01*
X-111839Y116262D01*
X-111827Y116268D01*
X-111821Y116272D01*
X-111816Y116277D01*
X-111811Y116283D01*
X-111805Y116290D01*
X-111805Y116290D01*
X-111804Y116292D01*
X-111803Y116295D01*
X-111801Y116299D01*
X-111798Y116304D01*
X-111795Y116311D01*
X-111793Y116319D01*
X-111789Y116329D01*
X-111787Y116340D01*
X-111783Y116352D01*
X-111781Y116366D01*
X-111779Y116382D01*
X-111776Y116400D01*
X-111775Y116419D01*
X-111774Y116440D01*
X-111773Y116462D01*
Y116463D01*
Y116463D01*
Y116467D01*
Y116474D01*
X-111774Y116483D01*
Y116493D01*
X-111775Y116504D01*
X-111776Y116517D01*
X-111777Y116531D01*
X-111781Y116559D01*
X-111783Y116573D01*
X-111786Y116586D01*
X-111789Y116599D01*
X-111793Y116611D01*
X-111797Y116621D01*
X-111803Y116630D01*
X-111803Y116631D01*
X-111804Y116632D01*
X-111806Y116634D01*
X-111808Y116636D01*
X-111814Y116643D01*
X-111823Y116650D01*
X-111833Y116658D01*
X-111846Y116664D01*
X-111852Y116667D01*
X-111860Y116669D01*
X-111867Y116670D01*
X-111875Y116671D01*
D02*
G37*
G36*
X-110889Y84629D02*
X-111045D01*
X-111050Y84628D01*
X-111061Y84628D01*
X-111072Y84627D01*
X-111085Y84625D01*
X-111096Y84623D01*
X-111106Y84620D01*
X-111108Y84619D01*
X-111111Y84618D01*
X-111116Y84616D01*
X-111122Y84612D01*
X-111128Y84608D01*
X-111134Y84603D01*
X-111141Y84596D01*
X-111146Y84589D01*
X-111147Y84588D01*
X-111148Y84585D01*
X-111151Y84581D01*
X-111154Y84575D01*
X-111156Y84568D01*
X-111158Y84560D01*
X-111160Y84552D01*
X-111160Y84543D01*
Y84542D01*
Y84542D01*
Y84540D01*
X-111160Y84537D01*
X-111159Y84530D01*
X-111157Y84522D01*
X-111154Y84512D01*
X-111149Y84502D01*
X-111142Y84492D01*
X-111134Y84483D01*
X-111132Y84482D01*
X-111128Y84479D01*
X-111122Y84476D01*
X-111113Y84471D01*
X-111108Y84469D01*
X-111102Y84466D01*
X-111095Y84464D01*
X-111087Y84463D01*
X-111079Y84461D01*
X-111071Y84461D01*
X-111061Y84459D01*
X-110889D01*
Y84629D01*
D02*
G37*
G36*
X-112002Y20550D02*
X-112006D01*
X-112009Y20550D01*
X-112013D01*
X-112017Y20549D01*
X-112027Y20546D01*
X-112039Y20543D01*
X-112051Y20538D01*
X-112062Y20530D01*
X-112068Y20526D01*
X-112073Y20520D01*
X-112074Y20520D01*
X-112075Y20519D01*
X-112076Y20517D01*
X-112078Y20514D01*
X-112080Y20512D01*
X-112083Y20508D01*
X-112088Y20499D01*
X-112093Y20487D01*
X-112097Y20472D01*
X-112101Y20455D01*
X-112102Y20445D01*
Y20435D01*
Y20435D01*
Y20433D01*
Y20430D01*
X-112101Y20427D01*
Y20422D01*
X-112101Y20417D01*
X-112099Y20404D01*
X-112095Y20391D01*
X-112090Y20376D01*
X-112083Y20362D01*
X-112079Y20355D01*
X-112073Y20349D01*
Y20349D01*
X-112072Y20348D01*
X-112068Y20344D01*
X-112062Y20339D01*
X-112054Y20333D01*
X-112044Y20327D01*
X-112032Y20322D01*
X-112018Y20319D01*
X-112011Y20318D01*
X-112003Y20318D01*
X-111999D01*
X-111996Y20318D01*
X-111993Y20319D01*
X-111989Y20320D01*
X-111979Y20322D01*
X-111968Y20326D01*
X-111955Y20332D01*
X-111949Y20336D01*
X-111943Y20341D01*
X-111937Y20346D01*
X-111931Y20352D01*
Y20353D01*
X-111930Y20353D01*
X-111928Y20355D01*
X-111926Y20358D01*
X-111924Y20361D01*
X-111921Y20365D01*
X-111918Y20371D01*
X-111916Y20376D01*
X-111910Y20389D01*
X-111905Y20404D01*
X-111902Y20421D01*
X-111901Y20431D01*
X-111900Y20441D01*
Y20441D01*
Y20443D01*
Y20445D01*
X-111901Y20449D01*
Y20453D01*
X-111902Y20458D01*
X-111904Y20469D01*
X-111908Y20482D01*
X-111912Y20495D01*
X-111920Y20509D01*
X-111924Y20514D01*
X-111929Y20520D01*
X-111930D01*
X-111930Y20522D01*
X-111934Y20525D01*
X-111940Y20530D01*
X-111949Y20535D01*
X-111960Y20541D01*
X-111972Y20546D01*
X-111986Y20549D01*
X-111994Y20550D01*
X-112002Y20550D01*
D02*
G37*
G36*
X-111016Y20494D02*
X-111172D01*
X-111177Y20493D01*
X-111188Y20493D01*
X-111199Y20492D01*
X-111212Y20490D01*
X-111223Y20488D01*
X-111233Y20485D01*
X-111235Y20484D01*
X-111238Y20483D01*
X-111243Y20481D01*
X-111249Y20477D01*
X-111255Y20473D01*
X-111261Y20468D01*
X-111268Y20461D01*
X-111273Y20454D01*
X-111274Y20453D01*
X-111275Y20450D01*
X-111278Y20446D01*
X-111281Y20440D01*
X-111283Y20433D01*
X-111285Y20425D01*
X-111287Y20417D01*
X-111287Y20408D01*
Y20407D01*
Y20407D01*
Y20405D01*
X-111287Y20402D01*
X-111286Y20395D01*
X-111284Y20387D01*
X-111281Y20377D01*
X-111276Y20367D01*
X-111269Y20357D01*
X-111261Y20348D01*
X-111259Y20347D01*
X-111255Y20344D01*
X-111249Y20341D01*
X-111240Y20336D01*
X-111235Y20334D01*
X-111229Y20331D01*
X-111222Y20329D01*
X-111214Y20328D01*
X-111206Y20326D01*
X-111198Y20326D01*
X-111188Y20324D01*
X-111016D01*
Y20494D01*
D02*
G37*
G36*
X-110862Y52625D02*
X-111018D01*
X-111023Y52624D01*
X-111034Y52624D01*
X-111045Y52623D01*
X-111058Y52621D01*
X-111069Y52619D01*
X-111079Y52616D01*
X-111081Y52615D01*
X-111084Y52614D01*
X-111089Y52612D01*
X-111095Y52608D01*
X-111101Y52604D01*
X-111107Y52599D01*
X-111114Y52592D01*
X-111119Y52585D01*
X-111120Y52584D01*
X-111121Y52581D01*
X-111124Y52577D01*
X-111127Y52571D01*
X-111129Y52564D01*
X-111131Y52556D01*
X-111133Y52548D01*
X-111133Y52539D01*
Y52538D01*
Y52538D01*
Y52536D01*
X-111133Y52533D01*
X-111132Y52526D01*
X-111130Y52518D01*
X-111127Y52508D01*
X-111122Y52498D01*
X-111115Y52488D01*
X-111107Y52479D01*
X-111105Y52478D01*
X-111101Y52475D01*
X-111095Y52472D01*
X-111086Y52467D01*
X-111081Y52465D01*
X-111075Y52462D01*
X-111068Y52460D01*
X-111060Y52459D01*
X-111052Y52457D01*
X-111044Y52457D01*
X-111034Y52455D01*
X-110862D01*
Y52625D01*
D02*
G37*
G36*
X-111848Y52867D02*
X-111852D01*
X-111855Y52866D01*
X-111859Y52866D01*
X-111863Y52865D01*
X-111873Y52862D01*
X-111885Y52857D01*
X-111891Y52854D01*
X-111897Y52850D01*
X-111903Y52845D01*
X-111909Y52839D01*
X-111915Y52833D01*
X-111921Y52826D01*
X-111921Y52825D01*
X-111922Y52824D01*
X-111923Y52821D01*
X-111925Y52817D01*
X-111927Y52813D01*
X-111930Y52806D01*
X-111933Y52799D01*
X-111936Y52789D01*
X-111939Y52779D01*
X-111941Y52767D01*
X-111944Y52753D01*
X-111946Y52737D01*
X-111948Y52720D01*
X-111949Y52701D01*
X-111951Y52681D01*
Y52658D01*
Y52657D01*
Y52657D01*
Y52653D01*
Y52646D01*
X-111950Y52638D01*
Y52628D01*
X-111949Y52616D01*
X-111948Y52603D01*
X-111947Y52590D01*
X-111943Y52562D01*
X-111941Y52548D01*
X-111938Y52534D01*
X-111935Y52521D01*
X-111931Y52510D01*
X-111926Y52499D01*
X-111921Y52490D01*
Y52490D01*
X-111919Y52488D01*
X-111918Y52486D01*
X-111915Y52484D01*
X-111909Y52477D01*
X-111901Y52469D01*
X-111890Y52462D01*
X-111877Y52455D01*
X-111871Y52453D01*
X-111863Y52451D01*
X-111855Y52449D01*
X-111847Y52449D01*
X-111843D01*
X-111840Y52449D01*
X-111832Y52451D01*
X-111823Y52453D01*
X-111812Y52458D01*
X-111800Y52464D01*
X-111794Y52468D01*
X-111789Y52473D01*
X-111784Y52479D01*
X-111778Y52486D01*
X-111778Y52486D01*
X-111777Y52488D01*
X-111776Y52491D01*
X-111774Y52495D01*
X-111771Y52500D01*
X-111768Y52507D01*
X-111766Y52515D01*
X-111762Y52525D01*
X-111760Y52536D01*
X-111756Y52548D01*
X-111754Y52562D01*
X-111752Y52578D01*
X-111749Y52596D01*
X-111748Y52615D01*
X-111747Y52636D01*
X-111746Y52658D01*
Y52659D01*
Y52659D01*
Y52663D01*
Y52670D01*
X-111747Y52679D01*
Y52689D01*
X-111748Y52700D01*
X-111749Y52713D01*
X-111750Y52727D01*
X-111754Y52755D01*
X-111756Y52769D01*
X-111759Y52782D01*
X-111762Y52795D01*
X-111766Y52807D01*
X-111770Y52817D01*
X-111776Y52826D01*
X-111776Y52827D01*
X-111777Y52828D01*
X-111779Y52830D01*
X-111781Y52833D01*
X-111787Y52839D01*
X-111796Y52846D01*
X-111806Y52854D01*
X-111819Y52860D01*
X-111825Y52863D01*
X-111833Y52865D01*
X-111840Y52866D01*
X-111848Y52867D01*
D02*
G37*
%LPD*%
D94*
X-126251Y111373D02*
X-95391D01*
X-126251D02*
Y122073D01*
X-95391D01*
Y111373D02*
Y122073D01*
X-126251Y79573D02*
X-95391D01*
X-126251D02*
Y90273D01*
X-95391D01*
Y79573D02*
Y90273D01*
X-126378Y15438D02*
X-95518D01*
X-126378D02*
Y26138D01*
X-95518D01*
Y15438D02*
Y26138D01*
X-11629Y30984D02*
Y42584D01*
X-20629Y30984D02*
X-11629D01*
X-20629D02*
Y42584D01*
X-11629D01*
X-20883Y85473D02*
Y97073D01*
X-11883D01*
Y85473D02*
Y97073D01*
X-20883Y85473D02*
X-11883D01*
X-126224Y47569D02*
X-95364D01*
X-126224D02*
Y58269D01*
X-95364D01*
Y47569D02*
Y58269D01*
D95*
X-7250Y68466D02*
Y68199D01*
Y68332D01*
X-6583D01*
X-6450Y68199D01*
Y68066D01*
X-6583Y67932D01*
X-6450Y68732D02*
Y68999D01*
Y68865D01*
X-7250D01*
X-7117Y68732D01*
Y69399D02*
X-7250Y69532D01*
Y69798D01*
X-7117Y69932D01*
X-6983D01*
X-6850Y69798D01*
Y69665D01*
Y69798D01*
X-6717Y69932D01*
X-6583D01*
X-6450Y69798D01*
Y69532D01*
X-6583Y69399D01*
X-7250Y58795D02*
Y58528D01*
Y58662D01*
X-6583D01*
X-6450Y58528D01*
Y58395D01*
X-6583Y58262D01*
X-6450Y59595D02*
Y59062D01*
X-6983Y59595D01*
X-7117D01*
X-7250Y59461D01*
Y59195D01*
X-7117Y59062D01*
X-7250Y35808D02*
Y35541D01*
Y35675D01*
X-6583D01*
X-6450Y35541D01*
Y35408D01*
X-6583Y35275D01*
X-6450Y36474D02*
X-7250D01*
X-6850Y36075D01*
Y36608D01*
X-7250Y91948D02*
Y91682D01*
Y91815D01*
X-6583D01*
X-6450Y91682D01*
Y91548D01*
X-6583Y91415D01*
X-6450Y92215D02*
Y92481D01*
Y92348D01*
X-7250D01*
X-7117Y92215D01*
X-58367Y123520D02*
X-58100D01*
X-58234D01*
Y124187D01*
X-58100Y124320D01*
X-57967D01*
X-57834Y124187D01*
X-59167Y123520D02*
X-58634D01*
Y123920D01*
X-58900Y123787D01*
X-59033D01*
X-59167Y123920D01*
Y124187D01*
X-59033Y124320D01*
X-58767D01*
X-58634Y124187D01*
X-194164Y117267D02*
Y117533D01*
Y117400D01*
X-194831D01*
X-194964Y117533D01*
Y117666D01*
X-194831Y117800D01*
X-194964Y117000D02*
Y116733D01*
Y116867D01*
X-194164D01*
X-194297Y117000D01*
Y116333D02*
X-194164Y116200D01*
Y115934D01*
X-194297Y115800D01*
X-194831D01*
X-194964Y115934D01*
Y116200D01*
X-194831Y116333D01*
X-194297D01*
X-194172Y85016D02*
Y85283D01*
Y85149D01*
X-194839D01*
X-194972Y85283D01*
Y85416D01*
X-194839Y85549D01*
X-194305Y84749D02*
X-194172Y84616D01*
Y84350D01*
X-194305Y84216D01*
X-194439D01*
X-194572Y84350D01*
Y84483D01*
Y84350D01*
X-194705Y84216D01*
X-194839D01*
X-194972Y84350D01*
Y84616D01*
X-194839Y84749D01*
X-194164Y52417D02*
Y52684D01*
Y52551D01*
X-194831D01*
X-194964Y52684D01*
Y52817D01*
X-194831Y52950D01*
Y52151D02*
X-194964Y52017D01*
Y51751D01*
X-194831Y51618D01*
X-194297D01*
X-194164Y51751D01*
Y52017D01*
X-194297Y52151D01*
X-194431D01*
X-194564Y52017D01*
Y51618D01*
X-194164Y21048D02*
Y21315D01*
Y21182D01*
X-194831D01*
X-194964Y21315D01*
Y21448D01*
X-194831Y21581D01*
X-194297Y20782D02*
X-194164Y20648D01*
Y20382D01*
X-194297Y20249D01*
X-194431D01*
X-194564Y20382D01*
X-194697Y20249D01*
X-194831D01*
X-194964Y20382D01*
Y20648D01*
X-194831Y20782D01*
X-194697D01*
X-194564Y20648D01*
X-194431Y20782D01*
X-194297D01*
X-194564Y20648D02*
Y20382D01*
D137*
X-9700Y73932D02*
X-2350D01*
X-11350D02*
X-10400D01*
X-11350Y63932D02*
Y73932D01*
X-2350Y63932D02*
Y73932D01*
X-4500Y63932D02*
X-2350D01*
X-11350D02*
X-5200D01*
X-5450Y63332D02*
X-4250D01*
X-4500Y63932D02*
X-4250Y63332D01*
X-5450D02*
X-5200Y63932D01*
X-10650Y74532D02*
X-10400Y73932D01*
X-10650Y74532D02*
X-9450D01*
X-9700Y73932D02*
X-9450Y74532D01*
X-9700Y63928D02*
X-2350D01*
X-11350D02*
X-10400D01*
X-11350Y53928D02*
Y63928D01*
X-2350Y53928D02*
Y63928D01*
X-4500Y53928D02*
X-2350D01*
X-11350D02*
X-5200D01*
X-5450Y53328D02*
X-4250D01*
X-4500Y53928D02*
X-4250Y53328D01*
X-5450D02*
X-5200Y53928D01*
X-10650Y64528D02*
X-10400Y63928D01*
X-10650Y64528D02*
X-9450D01*
X-9700Y63928D02*
X-9450Y64528D01*
X-9700Y40941D02*
X-9450Y41541D01*
X-10650D02*
X-9450D01*
X-10650D02*
X-10400Y40941D01*
X-5450Y30341D02*
X-5200Y30941D01*
X-4500D02*
X-4250Y30341D01*
X-5450D02*
X-4250D01*
X-11350Y30941D02*
X-5200D01*
X-4500D02*
X-2350D01*
Y40941D01*
X-11350Y30941D02*
Y40941D01*
X-10400D01*
X-9700D02*
X-2350D01*
X-9700Y96948D02*
X-9450Y97548D01*
X-10650D02*
X-9450D01*
X-10650D02*
X-10400Y96948D01*
X-5450Y86348D02*
X-5200Y86948D01*
X-4500D02*
X-4250Y86348D01*
X-5450D02*
X-4250D01*
X-11350Y86948D02*
X-5200D01*
X-4500D02*
X-2350D01*
Y96948D01*
X-11350Y86948D02*
Y96948D01*
X-10400D01*
X-9700D02*
X-2350D01*
X-66600Y121320D02*
X-66000Y121070D01*
X-66600Y120120D02*
Y121320D01*
Y120120D02*
X-66000Y120370D01*
Y119420D02*
Y120370D01*
Y121070D02*
Y128420D01*
Y119420D02*
X-51000D01*
X-66000Y128420D02*
X-51000D01*
Y126270D02*
Y128420D01*
Y119420D02*
Y125570D01*
X-50400Y125320D02*
Y126520D01*
X-51000Y126270D02*
X-50400Y126520D01*
X-51000Y125570D02*
X-50400Y125320D01*
X-191964Y111200D02*
X-191714Y111800D01*
X-191964Y111200D02*
X-190764D01*
X-191014Y111800D02*
X-190764Y111200D01*
X-196214Y121800D02*
X-195964Y122400D01*
X-197164D02*
X-196914Y121800D01*
X-197164Y122400D02*
X-195964D01*
X-196214Y121800D02*
X-190064D01*
X-199064D02*
X-196914D01*
X-199064Y111800D02*
Y121800D01*
X-190064Y111800D02*
Y121800D01*
X-191014Y111800D02*
X-190064D01*
X-199064D02*
X-191714D01*
X-191972Y79283D02*
X-191722Y79883D01*
X-191972Y79283D02*
X-190772D01*
X-191022Y79883D02*
X-190772Y79283D01*
X-196222Y89883D02*
X-195972Y90483D01*
X-197172D02*
X-196922Y89883D01*
X-197172Y90483D02*
X-195972D01*
X-196222Y89883D02*
X-190072D01*
X-199072D02*
X-196922D01*
X-199072Y79883D02*
Y89883D01*
X-190072Y79883D02*
Y89883D01*
X-191022Y79883D02*
X-190072D01*
X-199072D02*
X-191722D01*
X-191964Y46684D02*
X-191714Y47284D01*
X-191964Y46684D02*
X-190764D01*
X-191014Y47284D02*
X-190764Y46684D01*
X-196214Y57284D02*
X-195964Y57884D01*
X-197164D02*
X-196914Y57284D01*
X-197164Y57884D02*
X-195964D01*
X-196214Y57284D02*
X-190064D01*
X-199064D02*
X-196914D01*
X-199064Y47284D02*
Y57284D01*
X-190064Y47284D02*
Y57284D01*
X-191014Y47284D02*
X-190064D01*
X-199064D02*
X-191714D01*
X-191964Y15315D02*
X-191714Y15915D01*
X-191964Y15315D02*
X-190764D01*
X-191014Y15915D02*
X-190764Y15315D01*
X-196214Y25915D02*
X-195964Y26515D01*
X-197164D02*
X-196914Y25915D01*
X-197164Y26515D02*
X-195964D01*
X-196214Y25915D02*
X-190064D01*
X-199064D02*
X-196914D01*
X-199064Y15915D02*
Y25915D01*
X-190064Y15915D02*
Y25915D01*
X-191014Y15915D02*
X-190064D01*
X-199064D02*
X-191714D01*
%TF.MD5,3e2dc6dac08c15787c25cb8e0af04598*%
M02*
