%TF.GenerationSoftware,Altium Limited,Altium Designer,21.6.4 (81)*%
G04 Layer_Color=32768*
%FSLAX43Y43*%
%MOMM*%
%TF.SameCoordinates,95A2699C-722C-4572-8EE5-7BEA9F810E30*%
%TF.FilePolarity,Positive*%
%TF.FileFunction,Other,Top_3D_Body*%
%TF.Part,Single*%
G01*
G75*
%TA.AperFunction,NonConductor*%
%ADD94C,0.200*%
%ADD137C,0.100*%
D94*
X-122571Y111473D02*
X-99071D01*
X-122571D02*
Y121973D01*
X-99071D01*
Y111473D02*
Y121973D01*
X-122571Y79673D02*
X-99071D01*
X-122571D02*
Y90173D01*
X-99071D01*
Y79673D02*
Y90173D01*
X-122698Y15538D02*
X-99198D01*
X-122698D02*
Y26038D01*
X-99198D01*
Y15538D02*
Y26038D01*
X-11879Y32534D02*
Y41034D01*
X-20379Y32534D02*
X-11879D01*
X-20379D02*
Y41034D01*
X-11879D01*
X-20633Y87023D02*
Y95523D01*
X-12133D01*
Y87023D02*
Y95523D01*
X-20633Y87023D02*
X-12133D01*
X-122544Y47669D02*
X-99044D01*
X-122544D02*
Y58169D01*
X-99044D01*
Y47669D02*
Y58169D01*
D137*
X-34298Y75281D02*
G03*
X-34298Y75281I-500J0D01*
G01*
X-39298Y77331D02*
G03*
X-30298Y77331I4500J1490D01*
G01*
Y80831D02*
G03*
X-39298Y80831I-4500J-1490D01*
G01*
Y77331D02*
Y80831D01*
X-30298Y77331D02*
Y80831D01*
X-86106Y7961D02*
X-73406D01*
X-86106Y5421D02*
X-73406D01*
X-86106D02*
Y7961D01*
X-73406Y5421D02*
Y7961D01*
X-9700Y73932D02*
X-9450Y74532D01*
X-10650D02*
X-9450D01*
X-10650D02*
X-10400Y73932D01*
X-5450Y63332D02*
X-5200Y63932D01*
X-4500D02*
X-4250Y63332D01*
X-5450D02*
X-4250D01*
X-11350Y63932D02*
X-5200D01*
X-4500D02*
X-2350D01*
Y73932D01*
X-11350Y63932D02*
Y73932D01*
X-10400D01*
X-9700D02*
X-2350D01*
X-9700Y63928D02*
X-9450Y64528D01*
X-10650D02*
X-9450D01*
X-10650D02*
X-10400Y63928D01*
X-5450Y53328D02*
X-5200Y53928D01*
X-4500D02*
X-4250Y53328D01*
X-5450D02*
X-4250D01*
X-11350Y53928D02*
X-5200D01*
X-4500D02*
X-2350D01*
Y63928D01*
X-11350Y53928D02*
Y63928D01*
X-10400D01*
X-9700D02*
X-2350D01*
X-9700Y40941D02*
X-2350D01*
X-11350D02*
X-10400D01*
X-11350Y30941D02*
Y40941D01*
X-2350Y30941D02*
Y40941D01*
X-4500Y30941D02*
X-2350D01*
X-11350D02*
X-5200D01*
X-5450Y30341D02*
X-4250D01*
X-4500Y30941D02*
X-4250Y30341D01*
X-5450D02*
X-5200Y30941D01*
X-10650Y41541D02*
X-10400Y40941D01*
X-10650Y41541D02*
X-9450D01*
X-9700Y40941D02*
X-9450Y41541D01*
X-9700Y96948D02*
X-2350D01*
X-11350D02*
X-10400D01*
X-11350Y86948D02*
Y96948D01*
X-2350Y86948D02*
Y96948D01*
X-4500Y86948D02*
X-2350D01*
X-11350D02*
X-5200D01*
X-5450Y86348D02*
X-4250D01*
X-4500Y86948D02*
X-4250Y86348D01*
X-5450D02*
X-5200Y86948D01*
X-10650Y97548D02*
X-10400Y96948D01*
X-10650Y97548D02*
X-9450D01*
X-9700Y96948D02*
X-9450Y97548D01*
X-51000Y125570D02*
X-50400Y125320D01*
X-51000Y126270D02*
X-50400Y126520D01*
Y125320D02*
Y126520D01*
X-51000Y119420D02*
Y125570D01*
Y126270D02*
Y128420D01*
X-66000D02*
X-51000D01*
X-66000Y119420D02*
X-51000D01*
X-66000Y121070D02*
Y128420D01*
Y119420D02*
Y120370D01*
X-66600Y120120D02*
X-66000Y120370D01*
X-66600Y120120D02*
Y121320D01*
X-66000Y121070D01*
X-199064Y111800D02*
X-191714D01*
X-191014D02*
X-190064D01*
Y121800D01*
X-199064Y111800D02*
Y121800D01*
X-196914D01*
X-196214D02*
X-190064D01*
X-197164Y122400D02*
X-195964D01*
X-197164D02*
X-196914Y121800D01*
X-196214D02*
X-195964Y122400D01*
X-191014Y111800D02*
X-190764Y111200D01*
X-191964D02*
X-190764D01*
X-191964D02*
X-191714Y111800D01*
X-199072Y79883D02*
X-191722D01*
X-191022D02*
X-190072D01*
Y89883D01*
X-199072Y79883D02*
Y89883D01*
X-196922D01*
X-196222D02*
X-190072D01*
X-197172Y90483D02*
X-195972D01*
X-197172D02*
X-196922Y89883D01*
X-196222D02*
X-195972Y90483D01*
X-191022Y79883D02*
X-190772Y79283D01*
X-191972D02*
X-190772D01*
X-191972D02*
X-191722Y79883D01*
X-199064Y47284D02*
X-191714D01*
X-191014D02*
X-190064D01*
Y57284D01*
X-199064Y47284D02*
Y57284D01*
X-196914D01*
X-196214D02*
X-190064D01*
X-197164Y57884D02*
X-195964D01*
X-197164D02*
X-196914Y57284D01*
X-196214D02*
X-195964Y57884D01*
X-191014Y47284D02*
X-190764Y46684D01*
X-191964D02*
X-190764D01*
X-191964D02*
X-191714Y47284D01*
X-199064Y15915D02*
X-191714D01*
X-191014D02*
X-190064D01*
Y25915D01*
X-199064Y15915D02*
Y25915D01*
X-196914D01*
X-196214D02*
X-190064D01*
X-197164Y26515D02*
X-195964D01*
X-197164D02*
X-196914Y25915D01*
X-196214D02*
X-195964Y26515D01*
X-191014Y15915D02*
X-190764Y15315D01*
X-191964D02*
X-190764D01*
X-191964D02*
X-191714Y15915D01*
%TF.MD5,055584b8bff588140f86ea5cb7607804*%
M02*
