%TF.GenerationSoftware,Altium Limited,Altium Designer,21.6.4 (81)*%
G04 Layer_Color=32768*
%FSLAX43Y43*%
%MOMM*%
%TF.SameCoordinates,95A2699C-722C-4572-8EE5-7BEA9F810E30*%
%TF.FilePolarity,Positive*%
%TF.FileFunction,Other,Bottom_Courtyard*%
%TF.Part,Single*%
G01*
G75*
%TA.AperFunction,NonConductor*%
%ADD94C,0.200*%
D94*
X-108117Y30174D02*
X-106417D01*
X-108117D02*
Y32974D01*
X-106417D01*
Y30174D02*
Y32974D01*
X-118113Y117982D02*
X-115313D01*
Y119682D01*
X-118113D02*
X-115313D01*
X-118113Y117982D02*
Y119682D01*
Y22478D02*
X-115313D01*
Y24178D01*
X-118113D02*
X-115313D01*
X-118113Y22478D02*
Y24178D01*
X-88149Y61923D02*
X-85992Y59766D01*
X-84825Y60933D01*
X-86982Y63090D02*
X-84825Y60933D01*
X-88149Y61923D02*
X-86982Y63090D01*
X-105832Y62022D02*
Y64822D01*
X-107532D02*
X-105832D01*
X-107532Y62022D02*
Y64822D01*
Y62022D02*
X-105832D01*
X-106038Y78338D02*
Y81138D01*
X-107738D02*
X-106038D01*
X-107738Y78338D02*
Y81138D01*
Y78338D02*
X-106038D01*
X-105794Y93996D02*
Y96796D01*
X-107494D02*
X-105794D01*
X-107494Y93996D02*
Y96796D01*
Y93996D02*
X-105794D01*
X-105844Y110187D02*
Y112987D01*
X-107544D02*
X-105844D01*
X-107544Y110187D02*
Y112987D01*
Y110187D02*
X-105844D01*
X-105903Y125939D02*
Y128739D01*
X-107603D02*
X-105903D01*
X-107603Y125939D02*
Y128739D01*
Y125939D02*
X-105903D01*
X-33150Y103045D02*
X-30350D01*
X-33150Y101345D02*
Y103045D01*
Y101345D02*
X-30350D01*
Y103045D01*
X-33150Y100886D02*
X-30350D01*
X-33150Y99186D02*
Y100886D01*
Y99186D02*
X-30350D01*
Y100886D01*
X-33150Y24686D02*
X-30350D01*
X-33150Y22986D02*
Y24686D01*
Y22986D02*
X-30350D01*
Y24686D01*
X-33150Y22273D02*
X-30350D01*
X-33150Y20573D02*
Y22273D01*
Y20573D02*
X-30350D01*
Y22273D01*
X-105979Y14514D02*
Y17314D01*
X-107679D02*
X-105979D01*
X-107679Y14514D02*
Y17314D01*
Y14514D02*
X-105979D01*
X-106943Y46431D02*
Y49231D01*
X-108643D02*
X-106943D01*
X-108643Y46431D02*
Y49231D01*
Y46431D02*
X-106943D01*
X-64265Y114172D02*
X-61465D01*
Y115872D01*
X-64265D02*
X-61465D01*
X-64265Y114172D02*
Y115872D01*
X-117986Y54101D02*
X-115186D01*
Y55801D01*
X-117986D02*
X-115186D01*
X-117986Y54101D02*
Y55801D01*
X-118113Y86359D02*
X-115313D01*
Y88059D01*
X-118113D02*
X-115313D01*
X-118113Y86359D02*
Y88059D01*
X-160359Y8876D02*
X-154879D01*
X-160359Y5776D02*
Y8876D01*
Y5776D02*
X-154879D01*
Y8876D01*
X-160232Y20179D02*
X-154752D01*
X-160232Y17079D02*
Y20179D01*
Y17079D02*
X-154752D01*
Y20179D01*
X-160232Y24878D02*
X-154752D01*
X-160232Y21778D02*
Y24878D01*
Y21778D02*
X-154752D01*
Y24878D01*
X-160359Y40880D02*
X-154879D01*
X-160359Y37780D02*
Y40880D01*
Y37780D02*
X-154879D01*
Y40880D01*
X-160232Y52310D02*
X-154752D01*
X-160232Y49210D02*
Y52310D01*
Y49210D02*
X-154752D01*
Y52310D01*
X-160232Y56755D02*
X-154752D01*
X-160232Y53655D02*
Y56755D01*
Y53655D02*
X-154752D01*
Y56755D01*
X-160232Y68185D02*
X-154752D01*
X-160232Y65085D02*
Y68185D01*
Y65085D02*
X-154752D01*
Y68185D01*
X-160220Y72630D02*
X-154740D01*
X-160220Y69530D02*
Y72630D01*
Y69530D02*
X-154740D01*
Y72630D01*
X-160093Y84187D02*
X-154613D01*
X-160093Y81087D02*
Y84187D01*
Y81087D02*
X-154613D01*
Y84187D01*
X-160220Y88632D02*
X-154740D01*
X-160220Y85532D02*
Y88632D01*
Y85532D02*
X-154740D01*
Y88632D01*
X-160347Y100189D02*
X-154867D01*
X-160347Y97089D02*
Y100189D01*
Y97089D02*
X-154867D01*
Y100189D01*
X-160359Y104761D02*
X-154879D01*
X-160359Y101661D02*
Y104761D01*
Y101661D02*
X-154879D01*
Y104761D01*
X-160220Y116191D02*
X-154740D01*
X-160220Y113091D02*
Y116191D01*
Y113091D02*
X-154740D01*
Y116191D01*
X-160220Y120636D02*
X-154740D01*
X-160220Y117536D02*
Y120636D01*
Y117536D02*
X-154740D01*
Y120636D01*
X-160220Y131939D02*
X-154740D01*
X-160220Y128839D02*
Y131939D01*
Y128839D02*
X-154740D01*
Y131939D01*
X-160220Y36308D02*
X-154740D01*
X-160220Y33208D02*
Y36308D01*
Y33208D02*
X-154740D01*
Y36308D01*
X-124273Y39373D02*
Y41573D01*
X-129473Y39373D02*
X-124273D01*
X-129473D02*
Y41573D01*
X-124273D01*
X-124400Y48771D02*
Y50971D01*
X-129600Y48771D02*
X-124400D01*
X-129600D02*
Y50971D01*
X-124400D01*
X-124176Y112271D02*
Y114471D01*
X-129376Y112271D02*
X-124176D01*
X-129376D02*
Y114471D01*
X-124176D01*
X-107426Y117694D02*
X-104918D01*
X-107426D02*
Y122002D01*
X-104918D01*
Y117694D02*
Y122002D01*
X-107426Y38065D02*
X-104918D01*
X-107426D02*
Y42373D01*
X-104918D01*
Y38065D02*
Y42373D01*
X-107426Y21936D02*
X-104918D01*
X-107426D02*
Y26244D01*
X-104918D01*
Y21936D02*
Y26244D01*
X-107426Y6188D02*
X-104918D01*
X-107426D02*
Y10496D01*
X-104918D01*
Y6188D02*
Y10496D01*
X-108252Y17196D02*
Y20316D01*
X-101552D01*
Y17196D02*
Y20316D01*
X-108252Y17196D02*
X-101552D01*
X-108506Y33071D02*
Y36191D01*
X-101806D01*
Y33071D02*
Y36191D01*
X-108506Y33071D02*
X-101806D01*
X-108379Y49200D02*
Y52320D01*
X-101679D01*
Y49200D02*
Y52320D01*
X-108379Y49200D02*
X-101679D01*
X-108379Y64948D02*
Y68068D01*
X-101679D01*
Y64948D02*
Y68068D01*
X-108379Y64948D02*
X-101679D01*
X-108379Y81458D02*
Y84578D01*
X-101679D01*
Y81458D02*
Y84578D01*
X-108379Y81458D02*
X-101679D01*
X-108379Y97079D02*
Y100199D01*
X-101679D01*
Y97079D02*
Y100199D01*
X-108379Y97079D02*
X-101679D01*
X-108506Y113208D02*
Y116328D01*
X-101806D01*
Y113208D02*
Y116328D01*
X-108506Y113208D02*
X-101806D01*
X-108379Y128829D02*
Y131949D01*
X-101679D01*
Y128829D02*
Y131949D01*
X-108379Y128829D02*
X-101679D01*
X-113297Y130425D02*
X-111747D01*
Y127813D02*
Y130425D01*
X-113297Y127813D02*
X-111747D01*
X-113297D02*
Y130425D01*
X-113424Y114896D02*
X-111874D01*
Y112284D02*
Y114896D01*
X-113424Y112284D02*
X-111874D01*
X-113424D02*
Y114896D01*
X-113297Y98767D02*
X-111747D01*
Y96155D02*
Y98767D01*
X-113297Y96155D02*
X-111747D01*
X-113297D02*
Y98767D01*
Y83146D02*
X-111747D01*
Y80534D02*
Y83146D01*
X-113297Y80534D02*
X-111747D01*
X-113297D02*
Y83146D01*
Y66544D02*
X-111747D01*
Y63932D02*
Y66544D01*
X-113297Y63932D02*
X-111747D01*
X-113297D02*
Y66544D01*
Y50923D02*
X-111747D01*
Y48311D02*
Y50923D01*
X-113297Y48311D02*
X-111747D01*
X-113297D02*
Y50923D01*
Y18919D02*
X-111747D01*
Y16307D02*
Y18919D01*
X-113297Y16307D02*
X-111747D01*
X-113297D02*
Y18919D01*
X-118669Y14298D02*
Y15848D01*
X-121869Y14298D02*
X-118669D01*
X-121869D02*
Y15848D01*
X-118669D01*
X-119304Y29665D02*
Y31215D01*
X-122504Y29665D02*
X-119304D01*
X-122504D02*
Y31215D01*
X-119304D01*
X-118542Y45667D02*
Y47217D01*
X-121742Y45667D02*
X-118542D01*
X-121742D02*
Y47217D01*
X-118542D01*
X-118669Y61415D02*
Y62965D01*
X-121869Y61415D02*
X-118669D01*
X-121869D02*
Y62965D01*
X-118669D01*
X-119304Y77290D02*
Y78840D01*
X-122504Y77290D02*
X-119304D01*
X-122504D02*
Y78840D01*
X-119304D01*
X-119465Y93673D02*
Y95223D01*
X-122665Y93673D02*
X-119465D01*
X-122665D02*
Y95223D01*
X-119465D01*
X-119558Y110056D02*
Y111606D01*
X-122758Y110056D02*
X-119558D01*
X-122758D02*
Y111606D01*
X-119558D01*
X-124243Y128273D02*
Y130473D01*
X-129443Y128273D02*
X-124243D01*
X-129443D02*
Y130473D01*
X-124243D01*
X-126583Y125423D02*
Y126973D01*
X-129195Y125423D02*
X-126583D01*
X-129195D02*
Y126973D01*
X-126583D01*
X-126496Y109548D02*
Y111098D01*
X-129108Y109548D02*
X-126496D01*
X-129108D02*
Y111098D01*
X-126496D01*
X-124273Y103127D02*
Y105327D01*
X-129473Y103127D02*
X-124273D01*
X-129473D02*
Y105327D01*
X-124273D01*
X-124243Y96396D02*
Y98596D01*
X-129443Y96396D02*
X-124243D01*
X-129443D02*
Y98596D01*
X-124243D01*
X-124273Y87125D02*
Y89325D01*
X-129473Y87125D02*
X-124273D01*
X-129473D02*
Y89325D01*
X-124273D01*
X-126583Y93292D02*
Y94842D01*
X-129195Y93292D02*
X-126583D01*
X-129195D02*
Y94842D01*
X-126583D01*
X-124243Y71123D02*
Y73323D01*
X-129443Y71123D02*
X-124243D01*
X-129443D02*
Y73323D01*
X-124243D01*
Y80267D02*
Y82467D01*
X-129443Y80267D02*
X-124243D01*
X-129443D02*
Y82467D01*
X-124243D01*
X-126623Y77290D02*
Y78840D01*
X-129235Y77290D02*
X-126623D01*
X-129235D02*
Y78840D01*
X-126623D01*
X-124243Y55121D02*
Y57321D01*
X-129443Y55121D02*
X-124243D01*
X-129443D02*
Y57321D01*
X-124243D01*
Y64265D02*
Y66465D01*
X-129443Y64265D02*
X-124243D01*
X-129443D02*
Y66465D01*
X-124243D01*
X-126623Y61415D02*
Y62965D01*
X-129235Y61415D02*
X-126623D01*
X-129235D02*
Y62965D01*
X-126623D01*
X-124146Y22482D02*
Y24682D01*
X-129346Y22482D02*
X-124146D01*
X-129346D02*
Y24682D01*
X-124146D01*
X-124273Y16513D02*
Y18713D01*
X-129473Y16513D02*
X-124273D01*
X-129473D02*
Y18713D01*
X-124273D01*
X-126583Y13663D02*
Y15213D01*
X-129195Y13663D02*
X-126583D01*
X-129195D02*
Y15213D01*
X-126583D01*
X-89602Y60293D02*
X-87622Y58313D01*
X-86420Y59515D01*
X-88400Y61495D02*
X-86420Y59515D01*
X-89602Y60293D02*
X-88400Y61495D01*
X-67123Y62309D02*
X-65921Y61107D01*
X-67123Y62309D02*
X-65143Y64289D01*
X-63941Y63087D01*
X-65921Y61107D02*
X-63941Y63087D01*
X-70850Y29683D02*
X-68342D01*
X-70850D02*
Y33991D01*
X-68342D01*
Y29683D02*
Y33991D01*
X-53348Y24096D02*
X-50792D01*
X-53348D02*
Y28402D01*
X-50792D01*
Y24096D02*
Y28402D01*
X-88654Y23969D02*
X-86098D01*
X-88654D02*
Y28275D01*
X-86098D01*
Y23969D02*
Y28275D01*
X-70874Y24096D02*
X-68318D01*
X-70874D02*
Y28402D01*
X-68318D01*
Y24096D02*
Y28402D01*
X-44064Y14454D02*
Y16962D01*
X-39756D01*
Y14454D02*
Y16962D01*
X-44064Y14454D02*
X-39756D01*
X-9985Y40578D02*
Y44178D01*
X-16685Y40578D02*
X-9985D01*
X-16685D02*
Y44178D01*
X-9985D01*
X-20126Y45088D02*
Y47288D01*
X-14926D01*
Y45088D02*
Y47288D01*
X-20126Y45088D02*
X-14926D01*
X-86122Y29648D02*
Y33956D01*
X-88630D02*
X-86122D01*
X-88630Y29648D02*
Y33956D01*
Y29648D02*
X-86122D01*
X-50816Y29683D02*
Y33991D01*
X-53324D02*
X-50816D01*
X-53324Y29683D02*
Y33991D01*
Y29683D02*
X-50816D01*
X-36179Y127590D02*
X-33671D01*
Y123282D02*
Y127590D01*
X-36179Y123282D02*
X-33671D01*
X-36179D02*
Y127590D01*
X-33671Y7966D02*
Y12274D01*
X-36179D02*
X-33671D01*
X-36179Y7966D02*
Y12274D01*
Y7966D02*
X-33671D01*
X-104918Y101946D02*
Y106254D01*
X-107426D02*
X-104918D01*
X-107426Y101946D02*
Y106254D01*
Y101946D02*
X-104918D01*
Y85817D02*
Y90125D01*
X-107426D02*
X-104918D01*
X-107426Y85817D02*
Y90125D01*
Y85817D02*
X-104918D01*
Y70069D02*
Y74377D01*
X-107426D02*
X-104918D01*
X-107426Y70069D02*
Y74377D01*
Y70069D02*
X-104918D01*
Y53813D02*
Y58121D01*
X-107426D02*
X-104918D01*
X-107426Y53813D02*
Y58121D01*
Y53813D02*
X-104918D01*
X-113297Y32147D02*
Y34759D01*
Y32147D02*
X-111747D01*
Y34759D01*
X-113297D02*
X-111747D01*
X-122758Y126719D02*
X-119558D01*
X-122758Y125169D02*
Y126719D01*
Y125169D02*
X-119558D01*
Y126719D01*
X-129219Y34842D02*
X-124019D01*
X-129219Y32642D02*
Y34842D01*
Y32642D02*
X-124019D01*
Y34842D01*
X-128941Y30961D02*
X-126329D01*
X-128941Y29411D02*
Y30961D01*
Y29411D02*
X-126329D01*
Y30961D01*
X-129473Y9442D02*
X-124273D01*
X-129473Y7242D02*
Y9442D01*
Y7242D02*
X-124273D01*
Y9442D01*
X-129235Y46963D02*
X-126623D01*
X-129235Y45413D02*
Y46963D01*
Y45413D02*
X-126623D01*
Y46963D01*
X-129443Y121202D02*
X-124243D01*
X-129443Y119002D02*
Y121202D01*
Y119002D02*
X-124243D01*
Y121202D01*
%TF.MD5,6a63755c2279d806d7b5e54417b32c24*%
M02*
