%TF.GenerationSoftware,Altium Limited,Altium Designer,21.6.4 (81)*%
G04 Layer_Color=32768*
%FSLAX43Y43*%
%MOMM*%
%TF.SameCoordinates,95A2699C-722C-4572-8EE5-7BEA9F810E30*%
%TF.FilePolarity,Positive*%
%TF.FileFunction,Other,Mechanical_15*%
%TF.Part,Single*%
G01*
G75*
%TA.AperFunction,NonConductor*%
%ADD93C,0.152*%
%ADD94C,0.200*%
%ADD137C,0.100*%
%ADD138C,0.050*%
G36*
X-110020Y127366D02*
X-108365D01*
Y121982D01*
X-110020D01*
Y121664D01*
X-115024D01*
Y121982D01*
X-116679D01*
Y127366D01*
X-115024D01*
Y127684D01*
X-110020D01*
Y127366D01*
D02*
G37*
G36*
Y111618D02*
X-108365D01*
Y106234D01*
X-110020D01*
Y105916D01*
X-115024D01*
Y106234D01*
X-116679D01*
Y111618D01*
X-115024D01*
Y111936D01*
X-110020D01*
Y111618D01*
D02*
G37*
G36*
Y95489D02*
X-108365D01*
Y90105D01*
X-110020D01*
Y89787D01*
X-115024D01*
Y90105D01*
X-116679D01*
Y95489D01*
X-115024D01*
Y95807D01*
X-110020D01*
Y95489D01*
D02*
G37*
G36*
X-67241Y73018D02*
X-68127Y72132D01*
X-67710Y71715D01*
X-68127Y71298D01*
X-67241Y70412D01*
X-71849Y65804D01*
X-72735Y66690D01*
X-73152Y66273D01*
X-73569Y66690D01*
X-74455Y65804D01*
X-79063Y70412D01*
X-78177Y71298D01*
X-78594Y71715D01*
X-78177Y72132D01*
X-79063Y73018D01*
X-74455Y77626D01*
X-73569Y76740D01*
X-73152Y77157D01*
X-72735Y76740D01*
X-71849Y77626D01*
X-67241Y73018D01*
D02*
G37*
G36*
X-110020Y79741D02*
X-108365D01*
Y74357D01*
X-110020D01*
Y74039D01*
X-115024D01*
Y74357D01*
X-116679D01*
Y79741D01*
X-115024D01*
Y80059D01*
X-110020D01*
Y79741D01*
D02*
G37*
G36*
X-19024Y72714D02*
X-11797D01*
Y70149D01*
X-19024D01*
Y68523D01*
X-29031D01*
Y70149D01*
X-36258D01*
Y72714D01*
X-29031D01*
Y74340D01*
X-19024D01*
Y72714D01*
D02*
G37*
G36*
X-110020Y63485D02*
X-108365D01*
Y58101D01*
X-110020D01*
Y57783D01*
X-115024D01*
Y58101D01*
X-116679D01*
Y63485D01*
X-115024D01*
Y63803D01*
X-110020D01*
Y63485D01*
D02*
G37*
G36*
X-19152Y57885D02*
X-11925D01*
Y55319D01*
X-19152D01*
Y53694D01*
X-29159D01*
Y55319D01*
X-36386D01*
Y57885D01*
X-29159D01*
Y59510D01*
X-19152D01*
Y57885D01*
D02*
G37*
G36*
X-110020Y47737D02*
X-108365D01*
Y42353D01*
X-110020D01*
Y42035D01*
X-115024D01*
Y42353D01*
X-116679D01*
Y47737D01*
X-115024D01*
Y48055D01*
X-110020D01*
Y47737D01*
D02*
G37*
G36*
Y31608D02*
X-108365D01*
Y26224D01*
X-110020D01*
Y25906D01*
X-115024D01*
Y26224D01*
X-116679D01*
Y31608D01*
X-115024D01*
Y31926D01*
X-110020D01*
Y31608D01*
D02*
G37*
G36*
X-48692Y30656D02*
X-46088D01*
Y24382D01*
X-48692D01*
Y24268D01*
X-55194D01*
Y24382D01*
X-57798D01*
Y30656D01*
X-55194D01*
Y30770D01*
X-48692D01*
Y30656D01*
D02*
G37*
G36*
X-66345D02*
X-63741D01*
Y24382D01*
X-66345D01*
Y24268D01*
X-72847D01*
Y24382D01*
X-75451D01*
Y30656D01*
X-72847D01*
Y30770D01*
X-66345D01*
Y30656D01*
D02*
G37*
G36*
X-83998D02*
X-81394D01*
Y24382D01*
X-83998D01*
Y24268D01*
X-90500D01*
Y24382D01*
X-93104D01*
Y30656D01*
X-90500D01*
Y30770D01*
X-83998D01*
Y30656D01*
D02*
G37*
G36*
X-110020Y15860D02*
X-108365D01*
Y10476D01*
X-110020D01*
Y10158D01*
X-115024D01*
Y10476D01*
X-116679D01*
Y15860D01*
X-115024D01*
Y16178D01*
X-110020D01*
Y15860D01*
D02*
G37*
D93*
X-108365Y74357D02*
Y79741D01*
X-110020D02*
X-108365D01*
X-110020D02*
Y80059D01*
X-115024D02*
X-110020D01*
X-115024Y79741D02*
Y80059D01*
X-116679Y79741D02*
X-115024D01*
X-116679Y74357D02*
Y79741D01*
Y74357D02*
X-115024D01*
Y74039D02*
Y74357D01*
Y74039D02*
X-110020D01*
Y74357D01*
X-108365D01*
X-110020Y26224D02*
X-108365D01*
X-110020Y25906D02*
Y26224D01*
X-115024Y25906D02*
X-110020D01*
X-115024D02*
Y26224D01*
X-116679D02*
X-115024D01*
X-116679D02*
Y31608D01*
X-115024D01*
Y31926D01*
X-110020D01*
Y31608D02*
Y31926D01*
Y31608D02*
X-108365D01*
Y26224D02*
Y31608D01*
X-110020Y10476D02*
X-108365D01*
X-110020Y10158D02*
Y10476D01*
X-115024Y10158D02*
X-110020D01*
X-115024D02*
Y10476D01*
X-116679D02*
X-115024D01*
X-116679D02*
Y15860D01*
X-115024D01*
Y16178D01*
X-110020D01*
Y15860D02*
Y16178D01*
Y15860D02*
X-108365D01*
Y10476D02*
Y15860D01*
X-110020Y121982D02*
X-108365D01*
X-110020Y121664D02*
Y121982D01*
X-115024Y121664D02*
X-110020D01*
X-115024D02*
Y121982D01*
X-116679D02*
X-115024D01*
X-116679D02*
Y127366D01*
X-115024D01*
Y127684D01*
X-110020D01*
Y127366D02*
Y127684D01*
Y127366D02*
X-108365D01*
Y121982D02*
Y127366D01*
X-110020Y106234D02*
X-108365D01*
X-110020Y105916D02*
Y106234D01*
X-115024Y105916D02*
X-110020D01*
X-115024D02*
Y106234D01*
X-116679D02*
X-115024D01*
X-116679D02*
Y111618D01*
X-115024D01*
Y111936D01*
X-110020D01*
Y111618D02*
Y111936D01*
Y111618D02*
X-108365D01*
Y106234D02*
Y111618D01*
X-110020Y90105D02*
X-108365D01*
X-110020Y89787D02*
Y90105D01*
X-115024Y89787D02*
X-110020D01*
X-115024D02*
Y90105D01*
X-116679D02*
X-115024D01*
X-116679D02*
Y95489D01*
X-115024D01*
Y95807D01*
X-110020D01*
Y95489D02*
Y95807D01*
Y95489D02*
X-108365D01*
Y90105D02*
Y95489D01*
X-110020Y58101D02*
X-108365D01*
X-110020Y57783D02*
Y58101D01*
X-115024Y57783D02*
X-110020D01*
X-115024D02*
Y58101D01*
X-116679D02*
X-115024D01*
X-116679D02*
Y63485D01*
X-115024D01*
Y63803D01*
X-110020D01*
Y63485D02*
Y63803D01*
Y63485D02*
X-108365D01*
Y58101D02*
Y63485D01*
X-110020Y42353D02*
X-108365D01*
X-110020Y42035D02*
Y42353D01*
X-115024Y42035D02*
X-110020D01*
X-115024D02*
Y42353D01*
X-116679D02*
X-115024D01*
X-116679D02*
Y47737D01*
X-115024D01*
Y48055D01*
X-110020D01*
Y47737D02*
Y48055D01*
Y47737D02*
X-108365D01*
Y42353D02*
Y47737D01*
X-73569Y66690D02*
X-73152Y66273D01*
X-74455Y65804D02*
X-73569Y66690D01*
X-79063Y70412D02*
X-74455Y65804D01*
X-79063Y70412D02*
X-78177Y71298D01*
X-78594Y71715D02*
X-78177Y71298D01*
X-78594Y71715D02*
X-78177Y72132D01*
X-79063Y73018D02*
X-78177Y72132D01*
X-79063Y73018D02*
X-74455Y77626D01*
X-73569Y76740D01*
X-73152Y77157D01*
X-72735Y76740D01*
X-71849Y77626D01*
X-67241Y73018D01*
X-68127Y72132D02*
X-67241Y73018D01*
X-68127Y72132D02*
X-67710Y71715D01*
X-68127Y71298D02*
X-67710Y71715D01*
X-68127Y71298D02*
X-67241Y70412D01*
X-71849Y65804D02*
X-67241Y70412D01*
X-72735Y66690D02*
X-71849Y65804D01*
X-73152Y66273D02*
X-72735Y66690D01*
X-83998Y30656D02*
Y30770D01*
Y30656D02*
X-81394D01*
Y24382D02*
Y30656D01*
X-83998Y24382D02*
X-81394D01*
X-83998Y24268D02*
Y24382D01*
X-90500Y24268D02*
X-83998D01*
X-90500D02*
Y24382D01*
X-93104D02*
X-90500D01*
X-93104D02*
Y30656D01*
X-90500D01*
Y30770D01*
X-83998D01*
X-48692Y30656D02*
Y30770D01*
Y30656D02*
X-46088D01*
Y24382D02*
Y30656D01*
X-48692Y24382D02*
X-46088D01*
X-48692Y24268D02*
Y24382D01*
X-55194Y24268D02*
X-48692D01*
X-55194D02*
Y24382D01*
X-57798D02*
X-55194D01*
X-57798D02*
Y30656D01*
X-55194D01*
Y30770D01*
X-48692D01*
X-66345Y30656D02*
Y30770D01*
Y30656D02*
X-63741D01*
Y24382D02*
Y30656D01*
X-66345Y24382D02*
X-63741D01*
X-66345Y24268D02*
Y24382D01*
X-72847Y24268D02*
X-66345D01*
X-72847D02*
Y24382D01*
X-75451D02*
X-72847D01*
X-75451D02*
Y30656D01*
X-72847D01*
Y30770D01*
X-66345D01*
X-36258Y70149D02*
Y72714D01*
X-29031D01*
Y74340D01*
X-19024D01*
Y72714D02*
Y74340D01*
Y72714D02*
X-11797D01*
Y70149D02*
Y72714D01*
X-36258Y70149D02*
X-29031D01*
Y68523D02*
Y70149D01*
Y68523D02*
X-19024D01*
Y70149D01*
X-11797D01*
X-19152Y55319D02*
X-11925D01*
X-19152Y53694D02*
Y55319D01*
X-29159Y53694D02*
X-19152D01*
X-29159D02*
Y55319D01*
X-36386D02*
X-29159D01*
X-11925D02*
Y57885D01*
X-19152D02*
X-11925D01*
X-19152D02*
Y59510D01*
X-29159D02*
X-19152D01*
X-29159Y57885D02*
Y59510D01*
X-36386Y57885D02*
X-29159D01*
X-36386Y55319D02*
Y57885D01*
X-21425Y25614D02*
X-22225D01*
Y25081D01*
X-21425Y24281D02*
Y24814D01*
X-22225D01*
Y24281D01*
X-21825Y24814D02*
Y24548D01*
X-21425Y24015D02*
X-22225D01*
Y23615D01*
X-22092Y23481D01*
X-21559D01*
X-21425Y23615D01*
Y24015D01*
X-21559Y23215D02*
X-21425Y23081D01*
Y22815D01*
X-21559Y22682D01*
X-21692D01*
X-21825Y22815D01*
Y22948D01*
Y22815D01*
X-21958Y22682D01*
X-22092D01*
X-22225Y22815D01*
Y23081D01*
X-22092Y23215D01*
X-22695Y23074D02*
X-23495D01*
X-23228D01*
X-22695Y22541D01*
X-23095Y22941D01*
X-23495Y22541D01*
X-40983Y25614D02*
X-41783D01*
Y25081D01*
X-40983Y24281D02*
Y24814D01*
X-41783D01*
Y24281D01*
X-41383Y24814D02*
Y24548D01*
X-40983Y24015D02*
X-41783D01*
Y23615D01*
X-41650Y23481D01*
X-41117D01*
X-40983Y23615D01*
Y24015D01*
X-41783Y22815D02*
X-40983D01*
X-41383Y23215D01*
Y22682D01*
X-42253Y23074D02*
X-43053D01*
X-42786D01*
X-42253Y22541D01*
X-42653Y22941D01*
X-43053Y22541D01*
X-42583Y110064D02*
X-41783D01*
Y110597D01*
X-42583Y111397D02*
Y110864D01*
X-41783D01*
Y111397D01*
X-42183Y110864D02*
Y111130D01*
X-42583Y111663D02*
X-41783D01*
Y112063D01*
X-41916Y112197D01*
X-42449D01*
X-42583Y112063D01*
Y111663D01*
X-41783Y112996D02*
Y112463D01*
X-42316Y112996D01*
X-42449D01*
X-42583Y112863D01*
Y112597D01*
X-42449Y112463D01*
X-41313Y112604D02*
X-40513D01*
X-40780D01*
X-41313Y113137D01*
X-40913Y112737D01*
X-40513Y113137D01*
X-21755Y112609D02*
X-20955D01*
X-21222D01*
X-21755Y113142D01*
X-21355Y112742D01*
X-20955Y113142D01*
X-23025Y110069D02*
X-22225D01*
Y110602D01*
X-23025Y111402D02*
Y110869D01*
X-22225D01*
Y111402D01*
X-22625Y110869D02*
Y111135D01*
X-23025Y111668D02*
X-22225D01*
Y112068D01*
X-22358Y112202D01*
X-22891D01*
X-23025Y112068D01*
Y111668D01*
X-22225Y112468D02*
Y112735D01*
Y112602D01*
X-23025D01*
X-22891Y112468D01*
D94*
X-20867Y23455D02*
G03*
X-23605Y23475I-1355J2016D01*
G01*
X-40425Y23455D02*
G03*
X-43163Y23475I-1355J2016D01*
G01*
X-43141Y112223D02*
G03*
X-40403Y112203I1355J-2016D01*
G01*
X-23583Y112228D02*
G03*
X-20845Y112208I1355J-2016D01*
G01*
X-114559Y115419D02*
Y117927D01*
X-118867Y115419D02*
X-114559D01*
X-118867D02*
Y117927D01*
X-114559D01*
X-71898Y114646D02*
Y118954D01*
X-74406D02*
X-71898D01*
X-74406Y114646D02*
Y118954D01*
Y114646D02*
X-71898D01*
X-78343Y112995D02*
Y117303D01*
X-75835D01*
Y112995D02*
Y117303D01*
X-78343Y112995D02*
X-75835D01*
X-76314Y108750D02*
Y112150D01*
X-77864Y108750D02*
X-76314D01*
X-77864D02*
Y112150D01*
X-76314D01*
X-104124Y117694D02*
X-101616D01*
X-104124D02*
Y122002D01*
X-101616D01*
Y117694D02*
Y122002D01*
X-104124Y38065D02*
X-101616D01*
X-104124D02*
Y42373D01*
X-101616D01*
Y38065D02*
Y42373D01*
X-104124Y21936D02*
X-101616D01*
X-104124D02*
Y26244D01*
X-101616D01*
Y21936D02*
Y26244D01*
X-104124Y6188D02*
X-101616D01*
X-104124D02*
Y10496D01*
X-101616D01*
Y6188D02*
Y10496D01*
X-124328Y10644D02*
Y13152D01*
X-120020D01*
Y10644D02*
Y13152D01*
X-124328Y10644D02*
X-120020D01*
X-119931Y20242D02*
Y21842D01*
X-122639Y20242D02*
X-119931D01*
X-122639D02*
Y21842D01*
X-119931D01*
X-122804Y25757D02*
Y28265D01*
X-118496D01*
Y25757D02*
Y28265D01*
X-122804Y25757D02*
X-118496D01*
X-119931Y52119D02*
Y53719D01*
X-122639Y52119D02*
X-119931D01*
X-122639D02*
Y53719D01*
X-119931D01*
X-122804Y58015D02*
Y60523D01*
X-118496D01*
Y58015D02*
Y60523D01*
X-122804Y58015D02*
X-118496D01*
X-124328Y74398D02*
Y76906D01*
X-120020D01*
Y74398D02*
Y76906D01*
X-124328Y74398D02*
X-120020D01*
X-119931Y84123D02*
Y85723D01*
X-122639Y84123D02*
X-119931D01*
X-122639D02*
Y85723D01*
X-119931D01*
X-123185Y90146D02*
Y92654D01*
X-118877D01*
Y90146D02*
Y92654D01*
X-123185Y90146D02*
X-118877D01*
X-119804Y115873D02*
Y117473D01*
X-122512Y115873D02*
X-119804D01*
X-122512D02*
Y117473D01*
X-119804D01*
X-123185Y121515D02*
Y124023D01*
X-118877D01*
Y121515D02*
Y124023D01*
X-123185Y121515D02*
X-118877D01*
X-129789Y122023D02*
Y124531D01*
X-125481D01*
Y122023D02*
Y124531D01*
X-129789Y122023D02*
X-125481D01*
X-124455Y42521D02*
Y45029D01*
X-120147D01*
Y42521D02*
Y45029D01*
X-124455Y42521D02*
X-120147D01*
X-75295Y126838D02*
X-72787D01*
X-75295D02*
Y131146D01*
X-72787D01*
Y126838D02*
Y131146D01*
X-64754Y125314D02*
X-62246D01*
X-64754D02*
Y129622D01*
X-62246D01*
Y125314D02*
Y129622D01*
X-54721Y131146D02*
X-52213D01*
Y126838D02*
Y131146D01*
X-54721Y126838D02*
X-52213D01*
X-54721D02*
Y131146D01*
X-66926Y80098D02*
X-65152Y81872D01*
X-62106Y78826D01*
X-63880Y77052D02*
X-62106Y78826D01*
X-66926Y80098D02*
X-63880Y77052D01*
X-78016Y10699D02*
X-76416D01*
Y7991D02*
Y10699D01*
X-78016Y7991D02*
X-76416D01*
X-78016D02*
Y10699D01*
X-48382Y14454D02*
Y16962D01*
X-44074D01*
Y14454D02*
Y16962D01*
X-48382Y14454D02*
X-44074D01*
X-34031D02*
Y16962D01*
X-29723D01*
Y14454D02*
Y16962D01*
X-34031Y14454D02*
X-29723D01*
X-28062D02*
Y16962D01*
X-23754D01*
Y14454D02*
Y16962D01*
X-28062Y14454D02*
X-23754D01*
X-23744D02*
Y16962D01*
X-19436D01*
Y14454D02*
Y16962D01*
X-23744Y14454D02*
X-19436D01*
X-13711D02*
Y16962D01*
X-9403D01*
Y14454D02*
Y16962D01*
X-13711Y14454D02*
X-9403D01*
X-26421Y20296D02*
Y22804D01*
X-30729Y20296D02*
X-26421D01*
X-30729D02*
Y22804D01*
X-26421D01*
X-33025Y20042D02*
Y22550D01*
X-37333Y20042D02*
X-33025D01*
X-37333D02*
Y22550D01*
X-33025D01*
X-39227Y23206D02*
X-36719D01*
X-39227D02*
Y27514D01*
X-36719D01*
Y23206D02*
Y27514D01*
X-43037Y30445D02*
X-40529D01*
X-43037D02*
Y34753D01*
X-40529D01*
Y30445D02*
Y34753D01*
X-39100Y30445D02*
X-36592D01*
X-39100D02*
Y34753D01*
X-36592D01*
Y30445D02*
Y34753D01*
X-23479Y30445D02*
X-20971D01*
X-23479D02*
Y34753D01*
X-20971D01*
Y30445D02*
Y34753D01*
X-35514Y63168D02*
Y64768D01*
X-38222Y63168D02*
X-35514D01*
X-38222D02*
Y64768D01*
X-35514D01*
X-33266Y58538D02*
X-17046D01*
X-33266D02*
Y69398D01*
X-17046D01*
Y58538D02*
Y69398D01*
X-26294Y98401D02*
Y100909D01*
X-30602Y98401D02*
X-26294D01*
X-30602D02*
Y100909D01*
X-26294D01*
X-43037Y105203D02*
X-40529D01*
Y100895D02*
Y105203D01*
X-43037Y100895D02*
X-40529D01*
X-43037D02*
Y105203D01*
X-34909Y113239D02*
X-32401D01*
Y108931D02*
Y113239D01*
X-34909Y108931D02*
X-32401D01*
X-34909D02*
Y113239D01*
X-23352Y105203D02*
X-20844D01*
Y100895D02*
Y105203D01*
X-23352Y100895D02*
X-20844D01*
X-23352D02*
Y105203D01*
X-19415Y105238D02*
X-16907D01*
Y100930D02*
Y105238D01*
X-19415Y100930D02*
X-16907D01*
X-19415D02*
Y105238D01*
Y112350D02*
X-16907D01*
Y108042D02*
Y112350D01*
X-19415Y108042D02*
X-16907D01*
X-19415D02*
Y112350D01*
X-9403Y118594D02*
Y121102D01*
X-13711Y118594D02*
X-9403D01*
X-13711D02*
Y121102D01*
X-9403D01*
X-13721Y118594D02*
Y121102D01*
X-18029Y118594D02*
X-13721D01*
X-18029D02*
Y121102D01*
X-13721D01*
X-23779Y118594D02*
Y121102D01*
X-19471D01*
Y118594D02*
Y121102D01*
X-23779Y118594D02*
X-19471D01*
X-23754D02*
Y121102D01*
X-28062Y118594D02*
X-23754D01*
X-28062D02*
Y121102D01*
X-23754D01*
X-29758Y118594D02*
Y121102D01*
X-34066Y118594D02*
X-29758D01*
X-34066D02*
Y121102D01*
X-29758D01*
X-34041Y118594D02*
Y121102D01*
X-38349Y118594D02*
X-34041D01*
X-38349D02*
Y121102D01*
X-34041D01*
X-44099Y118594D02*
Y121102D01*
X-39791D01*
Y118594D02*
Y121102D01*
X-44099Y118594D02*
X-39791D01*
X-43947D02*
Y121102D01*
X-48255Y118594D02*
X-43947D01*
X-48255D02*
Y121102D01*
X-43947D01*
X-52425Y4095D02*
Y10395D01*
X-68225D02*
X-52425D01*
X-68225Y4095D02*
Y10395D01*
Y4095D02*
X-52425D01*
X-77991Y13754D02*
X-76441D01*
Y17154D01*
X-77991D02*
X-76441D01*
X-77991Y13754D02*
Y17154D01*
X-80531Y13754D02*
Y17154D01*
X-78981D01*
Y13754D02*
Y17154D01*
X-80531Y13754D02*
X-78981D01*
X-83071D02*
Y17154D01*
X-81521D01*
Y13754D02*
Y17154D01*
X-83071Y13754D02*
X-81521D01*
X-8726Y119178D02*
Y124338D01*
X-18706Y119178D02*
X-8726D01*
X-18706D02*
Y124338D01*
X-8726D01*
X-18759Y119173D02*
Y124333D01*
X-28739Y119173D02*
X-18759D01*
X-28739D02*
Y124333D01*
X-18759D01*
X-29046Y119178D02*
Y124338D01*
X-39026Y119178D02*
X-29046D01*
X-39026D02*
Y124338D01*
X-29046D01*
X-39079Y119178D02*
Y124338D01*
X-49059Y119178D02*
X-39079D01*
X-49059D02*
Y124338D01*
X-39079D01*
X-28739Y11218D02*
X-18759D01*
Y16378D01*
X-28739D02*
X-18759D01*
X-28739Y11218D02*
Y16378D01*
X-18706Y11218D02*
X-8726D01*
Y16378D01*
X-18706D02*
X-8726D01*
X-18706Y11218D02*
Y16378D01*
X-39026Y11218D02*
X-29046D01*
Y16378D01*
X-39026D02*
X-29046D01*
X-39026Y11218D02*
Y16378D01*
X-49059Y11218D02*
X-39079D01*
Y16378D01*
X-49059D02*
X-39079D01*
X-49059Y11218D02*
Y16378D01*
X-23604Y23455D02*
X-20867D01*
X-43162D02*
X-40425D01*
X-64542Y113727D02*
X-48742D01*
Y107427D02*
Y113727D01*
X-64542Y107427D02*
X-48742D01*
X-64542D02*
Y113727D01*
X-43141Y112223D02*
X-40404D01*
X-23583Y112228D02*
X-20846D01*
X-83211Y128540D02*
X-67411D01*
Y122240D02*
Y128540D01*
X-83211Y122240D02*
X-67411D01*
X-83211D02*
Y128540D01*
X-94885Y120777D02*
Y125085D01*
X-97393D02*
X-94885D01*
X-97393Y120777D02*
Y125085D01*
Y120777D02*
X-94885D01*
X-92345D02*
Y125085D01*
X-94853D02*
X-92345D01*
X-94853Y120777D02*
Y125085D01*
Y120777D02*
X-92345D01*
X-86503D02*
Y125085D01*
X-89011D02*
X-86503D01*
X-89011Y120777D02*
Y125085D01*
Y120777D02*
X-86503D01*
X-83963D02*
Y125085D01*
X-86471D02*
X-83963D01*
X-86471Y120777D02*
Y125085D01*
Y120777D02*
X-83963D01*
X-75327Y126838D02*
Y131146D01*
X-77835D02*
X-75327D01*
X-77835Y126838D02*
Y131146D01*
Y126838D02*
X-75327D01*
X-81010Y7518D02*
Y11826D01*
Y7518D02*
X-78502D01*
Y11826D01*
X-81010D02*
X-78502D01*
X-83550Y7518D02*
Y11826D01*
Y7518D02*
X-81042D01*
Y11826D01*
X-83550D02*
X-81042D01*
X-39100Y100873D02*
Y105181D01*
Y100873D02*
X-36592D01*
Y105181D01*
X-39100D02*
X-36592D01*
X-39100Y108169D02*
Y112477D01*
Y108169D02*
X-36592D01*
Y112477D01*
X-39100D02*
X-36592D01*
X-17178Y23223D02*
Y27532D01*
X-19687D02*
X-17178D01*
X-19687Y23223D02*
Y27532D01*
Y23223D02*
X-17178D01*
X-17161Y30445D02*
Y34753D01*
X-19669D02*
X-17161D01*
X-19669Y30445D02*
Y34753D01*
Y30445D02*
X-17161D01*
X-38349Y16962D02*
X-34041D01*
X-38349Y14454D02*
Y16962D01*
Y14454D02*
X-34041D01*
Y16962D01*
X-18029D02*
X-13721D01*
X-18029Y14454D02*
Y16962D01*
Y14454D02*
X-13721D01*
Y16962D01*
X-15859Y127590D02*
X-13351D01*
Y123282D02*
Y127590D01*
X-15859Y123282D02*
X-13351D01*
X-15859D02*
Y127590D01*
X-24114D02*
X-21606D01*
Y123282D02*
Y127590D01*
X-24114Y123282D02*
X-21606D01*
X-24114D02*
Y127590D01*
X-44434Y127752D02*
X-41926D01*
Y123444D02*
Y127752D01*
X-44434Y123444D02*
X-41926D01*
X-44434D02*
Y127752D01*
X-118867Y22296D02*
X-114559D01*
X-118867Y19788D02*
Y22296D01*
Y19788D02*
X-114559D01*
Y22296D01*
X-118927Y86177D02*
X-114619D01*
X-118927Y83669D02*
Y86177D01*
Y83669D02*
X-114619D01*
Y86177D01*
X-118740Y54173D02*
X-114432D01*
X-118740Y51665D02*
Y54173D01*
Y51665D02*
X-114432D01*
Y54173D01*
X-21966Y41124D02*
X-17658D01*
Y43632D01*
X-21966D02*
X-17658D01*
X-21966Y41124D02*
Y43632D01*
X-44109Y58724D02*
X-38949D01*
X-44109D02*
Y68704D01*
X-38949D01*
Y58724D02*
Y68704D01*
X-13351Y8093D02*
Y12401D01*
X-15859D02*
X-13351D01*
X-15859Y8093D02*
Y12401D01*
Y8093D02*
X-13351D01*
X-21606Y8058D02*
Y12366D01*
X-24114D02*
X-21606D01*
X-24114Y8058D02*
Y12366D01*
Y8058D02*
X-21606D01*
X-41926Y7966D02*
Y12274D01*
X-44434D02*
X-41926D01*
X-44434Y7966D02*
Y12274D01*
Y7966D02*
X-41926D01*
X-101616Y101946D02*
Y106254D01*
X-104124D02*
X-101616D01*
X-104124Y101946D02*
Y106254D01*
Y101946D02*
X-101616D01*
Y85817D02*
Y90125D01*
X-104124D02*
X-101616D01*
X-104124Y85817D02*
Y90125D01*
Y85817D02*
X-101616D01*
Y70069D02*
Y74377D01*
X-104124D02*
X-101616D01*
X-104124Y70069D02*
Y74377D01*
Y70069D02*
X-101616D01*
Y53813D02*
Y58121D01*
X-104124D02*
X-101616D01*
X-104124Y53813D02*
Y58121D01*
Y53813D02*
X-101616D01*
X-124709Y106275D02*
X-120401D01*
Y108783D01*
X-124709D02*
X-120401D01*
X-124709Y106275D02*
Y108783D01*
X-129789Y25884D02*
X-125481D01*
Y28392D01*
X-129789D02*
X-125481D01*
X-129789Y25884D02*
Y28392D01*
X-129951Y106275D02*
X-125643D01*
Y108783D01*
X-129951D02*
X-125643D01*
X-129951Y106275D02*
Y108783D01*
X-129916Y10644D02*
X-125608D01*
Y13152D01*
X-129916D02*
X-125608D01*
X-129916Y10644D02*
Y13152D01*
X-129824Y42394D02*
X-125516D01*
Y44902D01*
X-129824D02*
X-125516D01*
X-129824Y42394D02*
Y44902D01*
Y58142D02*
X-125516D01*
Y60650D01*
X-129824D02*
X-125516D01*
X-129824Y58142D02*
Y60650D01*
X-129916Y90146D02*
X-125608D01*
Y92654D01*
X-129916D02*
X-125608D01*
X-129916Y90146D02*
Y92654D01*
X-129824Y74271D02*
X-125516D01*
Y76779D01*
X-129824D02*
X-125516D01*
X-129824Y74271D02*
Y76779D01*
D137*
X-116713Y116173D02*
Y117173D01*
X-117213Y116673D02*
X-116213D01*
X-73152Y116300D02*
Y117300D01*
X-73652Y116800D02*
X-72652D01*
X-77089Y114649D02*
Y115649D01*
X-77589Y115149D02*
X-76589D01*
X-77089Y109950D02*
Y110950D01*
X-77589Y110450D02*
X-76589D01*
X-103370Y119848D02*
X-102370D01*
X-102870Y119348D02*
Y120348D01*
X-103370Y40219D02*
X-102370D01*
X-102870Y39719D02*
Y40719D01*
X-103370Y24090D02*
X-102370D01*
X-102870Y23590D02*
Y24590D01*
X-103370Y8342D02*
X-102370D01*
X-102870Y7842D02*
Y8842D01*
X-122174Y11398D02*
Y12398D01*
X-122674Y11898D02*
X-121674D01*
X-121285Y20542D02*
Y21542D01*
X-121785Y21042D02*
X-120785D01*
X-120650Y26511D02*
Y27511D01*
X-121150Y27011D02*
X-120150D01*
X-121285Y52419D02*
Y53419D01*
X-121785Y52919D02*
X-120785D01*
X-120650Y58769D02*
Y59769D01*
X-121150Y59269D02*
X-120150D01*
X-122174Y75152D02*
Y76152D01*
X-122674Y75652D02*
X-121674D01*
X-121285Y84423D02*
Y85423D01*
X-121785Y84923D02*
X-120785D01*
X-121031Y90900D02*
Y91900D01*
X-121531Y91400D02*
X-120531D01*
X-121158Y116173D02*
Y117173D01*
X-121658Y116673D02*
X-120658D01*
X-121031Y122269D02*
Y123269D01*
X-121531Y122769D02*
X-120531D01*
X-127635Y122777D02*
Y123777D01*
X-128135Y123277D02*
X-127135D01*
X-122301Y43275D02*
Y44275D01*
X-122801Y43775D02*
X-121801D01*
X-74541Y128992D02*
X-73541D01*
X-74041Y128492D02*
Y129492D01*
X-64000Y127468D02*
X-63000D01*
X-63500Y126968D02*
Y127968D01*
X-53967Y128992D02*
X-52967D01*
X-53467Y128492D02*
Y129492D01*
X-64870Y79108D02*
X-64162Y79816D01*
X-64870D02*
X-64162Y79108D01*
X-77716Y9345D02*
X-76716D01*
X-77216Y8845D02*
Y9845D01*
X-46228Y15208D02*
Y16208D01*
X-46728Y15708D02*
X-45728D01*
X-31877Y15208D02*
Y16208D01*
X-32377Y15708D02*
X-31377D01*
X-25908Y15208D02*
Y16208D01*
X-26408Y15708D02*
X-25408D01*
X-21590Y15208D02*
Y16208D01*
X-22090Y15708D02*
X-21090D01*
X-11557Y15208D02*
Y16208D01*
X-12057Y15708D02*
X-11057D01*
X-28575Y21050D02*
Y22050D01*
X-29075Y21550D02*
X-28075D01*
X-35179Y20796D02*
Y21796D01*
X-35679Y21296D02*
X-34679D01*
X-38473Y25360D02*
X-37473D01*
X-37973Y24860D02*
Y25860D01*
X-42283Y32599D02*
X-41283D01*
X-41783Y32099D02*
Y33099D01*
X-38346Y32599D02*
X-37346D01*
X-37846Y32099D02*
Y33099D01*
X-22725Y32599D02*
X-21725D01*
X-22225Y32099D02*
Y33099D01*
X-12573Y35528D02*
Y36528D01*
X-13073Y36028D02*
X-12073D01*
X-36868Y63468D02*
Y64468D01*
X-37368Y63968D02*
X-36368D01*
X-25656D02*
X-24656D01*
X-25156Y63468D02*
Y64468D01*
X-28448Y99155D02*
Y100155D01*
X-28948Y99655D02*
X-27948D01*
X-42283Y103049D02*
X-41283D01*
X-41783Y102549D02*
Y103549D01*
X-34155Y111085D02*
X-33155D01*
X-33655Y110585D02*
Y111585D01*
X-22598Y103049D02*
X-21598D01*
X-22098Y102549D02*
Y103549D01*
X-18661Y103084D02*
X-17661D01*
X-18161Y102584D02*
Y103584D01*
X-18661Y110196D02*
X-17661D01*
X-18161Y109696D02*
Y110696D01*
X-11557Y119348D02*
Y120348D01*
X-12057Y119848D02*
X-11057D01*
X-15875Y119348D02*
Y120348D01*
X-16375Y119848D02*
X-15375D01*
X-21625Y119348D02*
Y120348D01*
X-22125Y119848D02*
X-21125D01*
X-25908Y119348D02*
Y120348D01*
X-26408Y119848D02*
X-25408D01*
X-31912Y119348D02*
Y120348D01*
X-32412Y119848D02*
X-31412D01*
X-36195Y119348D02*
Y120348D01*
X-36695Y119848D02*
X-35695D01*
X-41945Y119348D02*
Y120348D01*
X-42445Y119848D02*
X-41445D01*
X-46101Y119348D02*
Y120348D01*
X-46601Y119848D02*
X-45601D01*
X-60325Y6745D02*
Y7745D01*
X-60825Y7245D02*
X-59825D01*
X-77716Y15454D02*
X-76716D01*
X-77216Y14954D02*
Y15954D01*
X-79756Y14954D02*
Y15954D01*
X-80256Y15454D02*
X-79256D01*
X-82296Y14954D02*
Y15954D01*
X-82796Y15454D02*
X-81796D01*
X-13716Y121258D02*
Y122258D01*
X-14216Y121758D02*
X-13216D01*
X-23749Y121253D02*
Y122253D01*
X-24249Y121753D02*
X-23249D01*
X-34036Y121258D02*
Y122258D01*
X-34536Y121758D02*
X-33536D01*
X-44069Y121258D02*
Y122258D01*
X-44569Y121758D02*
X-43569D01*
X-18100Y86882D02*
X-3300D01*
X-18100Y74582D02*
Y86882D01*
Y74582D02*
X-3300D01*
Y86882D01*
X-24249Y13798D02*
X-23249D01*
X-23749Y13298D02*
Y14298D01*
X-14216Y13798D02*
X-13216D01*
X-13716Y13298D02*
Y14298D01*
X-34536Y13798D02*
X-33536D01*
X-34036Y13298D02*
Y14298D01*
X-44569Y13798D02*
X-43569D01*
X-44069Y13298D02*
Y14298D01*
X-18100Y53735D02*
X-3300D01*
X-18100Y41435D02*
Y53735D01*
Y41435D02*
X-3300D01*
Y53735D01*
X-57142Y110577D02*
X-56142D01*
X-56642Y110077D02*
Y111077D01*
X-75811Y125390D02*
X-74811D01*
X-75311Y124890D02*
Y125890D01*
X-96139Y122431D02*
Y123431D01*
X-96639Y122931D02*
X-95639D01*
X-93599Y122431D02*
Y123431D01*
X-94099Y122931D02*
X-93099D01*
X-87757Y122431D02*
Y123431D01*
X-88257Y122931D02*
X-87257D01*
X-85217Y122431D02*
Y123431D01*
X-85717Y122931D02*
X-84717D01*
X-76581Y128492D02*
Y129492D01*
X-77081Y128992D02*
X-76081D01*
X-79756Y9172D02*
Y10172D01*
X-80256Y9672D02*
X-79256D01*
X-82296Y9172D02*
Y10172D01*
X-82796Y9672D02*
X-81796D01*
X-37846Y102527D02*
Y103527D01*
X-38346Y103027D02*
X-37346D01*
X-37846Y109823D02*
Y110823D01*
X-38346Y110323D02*
X-37346D01*
X-18432Y24877D02*
Y25877D01*
X-18932Y25377D02*
X-17932D01*
X-18415Y32099D02*
Y33099D01*
X-18915Y32599D02*
X-17915D01*
X-36695Y15708D02*
X-35695D01*
X-36195Y15208D02*
Y16208D01*
X-16375Y15708D02*
X-15375D01*
X-15875Y15208D02*
Y16208D01*
X-15105Y125436D02*
X-14105D01*
X-14605Y124936D02*
Y125936D01*
X-23360Y125436D02*
X-22360D01*
X-22860Y124936D02*
Y125936D01*
X-43680Y125598D02*
X-42680D01*
X-43180Y125098D02*
Y126098D01*
X-117213Y21042D02*
X-116213D01*
X-116713Y20542D02*
Y21542D01*
X-117273Y84923D02*
X-116273D01*
X-116773Y84423D02*
Y85423D01*
X-117086Y52919D02*
X-116086D01*
X-116586Y52419D02*
Y53419D01*
X-20312Y42378D02*
X-19312D01*
X-19812Y41878D02*
Y42878D01*
X-42029Y63714D02*
X-41029D01*
X-41529Y63214D02*
Y64214D01*
X-14605Y9747D02*
Y10747D01*
X-15105Y10247D02*
X-14105D01*
X-22860Y9712D02*
Y10712D01*
X-23360Y10212D02*
X-22360D01*
X-43180Y9620D02*
Y10620D01*
X-43680Y10120D02*
X-42680D01*
X-102870Y103600D02*
Y104600D01*
X-103370Y104100D02*
X-102370D01*
X-102870Y87471D02*
Y88471D01*
X-103370Y87971D02*
X-102370D01*
X-102870Y71723D02*
Y72723D01*
X-103370Y72223D02*
X-102370D01*
X-102870Y55467D02*
Y56467D01*
X-103370Y55967D02*
X-102370D01*
X-123055Y107529D02*
X-122055D01*
X-122555Y107029D02*
Y108029D01*
X-128135Y27138D02*
X-127135D01*
X-127635Y26638D02*
Y27638D01*
X-128297Y107529D02*
X-127297D01*
X-127797Y107029D02*
Y108029D01*
X-128262Y11898D02*
X-127262D01*
X-127762Y11398D02*
Y12398D01*
X-128170Y43648D02*
X-127170D01*
X-127670Y43148D02*
Y44148D01*
X-128170Y59396D02*
X-127170D01*
X-127670Y58896D02*
Y59896D01*
X-128262Y91400D02*
X-127262D01*
X-127762Y90900D02*
Y91900D01*
X-128170Y75525D02*
X-127170D01*
X-127670Y75025D02*
Y76025D01*
D138*
X-70273Y115955D02*
Y121455D01*
X-62823D01*
Y115955D02*
Y121455D01*
X-70273Y115955D02*
X-62823D01*
X-62910Y123270D02*
Y125570D01*
X-59010D01*
Y123270D02*
Y125570D01*
X-62910Y123270D02*
X-59010D01*
X-54114D02*
Y125570D01*
X-58014Y123270D02*
X-54114D01*
X-58014D02*
Y125570D01*
X-54114D01*
X-95300Y58634D02*
X-91694Y62240D01*
X-85294Y55840D01*
X-88900Y52234D02*
X-85294Y55840D01*
X-95300Y58634D02*
X-88900Y52234D01*
X-16473Y32578D02*
X-8673D01*
X-16473Y39478D02*
X-8673D01*
X-16473Y32578D02*
Y39478D01*
X-8673Y32578D02*
Y39478D01*
X-10425Y4070D02*
Y10420D01*
X-18785D02*
X-10425D01*
X-18785Y4070D02*
Y10420D01*
Y4070D02*
X-10425D01*
X-15105Y7245D02*
X-14105D01*
X-14605Y6745D02*
Y7745D01*
X-18680Y4070D02*
Y10420D01*
X-27040D02*
X-18680D01*
X-27040Y4070D02*
Y10420D01*
Y4070D02*
X-18680D01*
X-23360Y7245D02*
X-22360D01*
X-22860Y6745D02*
Y7745D01*
X-39000Y4070D02*
Y10420D01*
X-47360D02*
X-39000D01*
X-47360Y4070D02*
Y10420D01*
Y4070D02*
X-39000D01*
X-43680Y7245D02*
X-42680D01*
X-43180Y6745D02*
Y7745D01*
X-30745Y4070D02*
Y10420D01*
X-39105D02*
X-30745D01*
X-39105Y4070D02*
Y10420D01*
Y4070D02*
X-30745D01*
X-35425Y7245D02*
X-34425D01*
X-34925Y6745D02*
Y7745D01*
X-64804Y104325D02*
X-53814D01*
X-64804Y101335D02*
Y104325D01*
Y101335D02*
X-53814D01*
Y104325D01*
X-53374Y101335D02*
X-42384D01*
Y104325D01*
X-53374D02*
X-42384D01*
X-53374Y101335D02*
Y104325D01*
X-14605Y127938D02*
Y128938D01*
X-15105Y128438D02*
X-14105D01*
X-18785Y131613D02*
X-10425D01*
Y125263D02*
Y131613D01*
X-18785Y125263D02*
X-10425D01*
X-18785D02*
Y131613D01*
X-22860Y127938D02*
Y128938D01*
X-23360Y128438D02*
X-22360D01*
X-27040Y131613D02*
X-18680D01*
Y125263D02*
Y131613D01*
X-27040Y125263D02*
X-18680D01*
X-27040D02*
Y131613D01*
X-34925Y127984D02*
Y128984D01*
X-35425Y128484D02*
X-34425D01*
X-39105Y131659D02*
X-30745D01*
Y125309D02*
Y131659D01*
X-39105Y125309D02*
X-30745D01*
X-39105D02*
Y131659D01*
X-43180Y127984D02*
Y128984D01*
X-43680Y128484D02*
X-42680D01*
X-47360Y131659D02*
X-39000D01*
Y125309D02*
Y131659D01*
X-47360Y125309D02*
X-39000D01*
X-47360D02*
Y131659D01*
X-91937Y122261D02*
Y128611D01*
Y122261D02*
X-83577D01*
Y128611D01*
X-91937D02*
X-83577D01*
X-88257Y125436D02*
X-87257D01*
X-87757Y124936D02*
Y125936D01*
X-100319Y122215D02*
Y128565D01*
Y122215D02*
X-91959D01*
Y128565D01*
X-100319D02*
X-91959D01*
X-96639Y125390D02*
X-95639D01*
X-96139Y124890D02*
Y125890D01*
%TF.MD5,40be9d93b88481d0313a9ee8d2349363*%
M02*
