%TF.GenerationSoftware,Altium Limited,Altium Designer,21.6.4 (81)*%
G04 Layer_Color=255*
%FSLAX43Y43*%
%MOMM*%
%TF.SameCoordinates,95A2699C-722C-4572-8EE5-7BEA9F810E30*%
%TF.FilePolarity,Positive*%
%TF.FileFunction,Pads,Top*%
%TF.Part,Single*%
G01*
G75*
%TA.AperFunction,SMDPad,CuDef*%
%ADD10R,1.508X1.157*%
%ADD11R,1.200X1.100*%
%ADD12R,9.500X3.750*%
%ADD13R,2.108X1.397*%
%ADD14R,4.100X2.000*%
%ADD15R,2.000X4.000*%
%TA.AperFunction,ComponentPad*%
%ADD23R,1.550X1.550*%
%ADD24C,1.550*%
%ADD25C,2.286*%
%ADD26O,2.286X1.778*%
%ADD27C,4.572*%
%ADD28C,3.048*%
%ADD29O,1.524X2.032*%
%ADD30C,1.600*%
G04:AMPARAMS|DCode=31|XSize=1.6mm|YSize=1.6mm|CornerRadius=0.4mm|HoleSize=0mm|Usage=FLASHONLY|Rotation=0.000|XOffset=0mm|YOffset=0mm|HoleType=Round|Shape=RoundedRectangle|*
%AMROUNDEDRECTD31*
21,1,1.600,0.800,0,0,0.0*
21,1,0.800,1.600,0,0,0.0*
1,1,0.800,0.400,-0.400*
1,1,0.800,-0.400,-0.400*
1,1,0.800,-0.400,0.400*
1,1,0.800,0.400,0.400*
%
%ADD31ROUNDEDRECTD31*%
%ADD32R,2.286X2.286*%
%ADD33R,1.200X1.200*%
%ADD34C,1.200*%
G04:AMPARAMS|DCode=35|XSize=1.95mm|YSize=1.95mm|CornerRadius=0.488mm|HoleSize=0mm|Usage=FLASHONLY|Rotation=90.000|XOffset=0mm|YOffset=0mm|HoleType=Round|Shape=RoundedRectangle|*
%AMROUNDEDRECTD35*
21,1,1.950,0.975,0,0,90.0*
21,1,0.975,1.950,0,0,90.0*
1,1,0.975,0.488,0.488*
1,1,0.975,0.488,-0.488*
1,1,0.975,-0.488,-0.488*
1,1,0.975,-0.488,0.488*
%
%ADD35ROUNDEDRECTD35*%
%ADD36C,1.950*%
%ADD37R,2.057X2.057*%
%ADD38C,2.057*%
%ADD39C,1.500*%
%ADD40R,1.500X1.500*%
%ADD41C,1.524*%
G04:AMPARAMS|DCode=42|XSize=1.95mm|YSize=1.95mm|CornerRadius=0.488mm|HoleSize=0mm|Usage=FLASHONLY|Rotation=180.000|XOffset=0mm|YOffset=0mm|HoleType=Round|Shape=RoundedRectangle|*
%AMROUNDEDRECTD42*
21,1,1.950,0.975,0,0,180.0*
21,1,0.975,1.950,0,0,180.0*
1,1,0.975,-0.488,0.488*
1,1,0.975,0.488,0.488*
1,1,0.975,0.488,-0.488*
1,1,0.975,-0.488,-0.488*
%
%ADD42ROUNDEDRECTD42*%
%ADD43R,1.200X1.200*%
%TA.AperFunction,ViaPad*%
%ADD44C,5.000*%
D10*
X-77089Y114073D02*
D03*
Y116225D02*
D03*
D11*
Y111500D02*
D03*
Y109400D02*
D03*
X-77216Y16504D02*
D03*
Y14404D02*
D03*
X-79756D02*
D03*
Y16504D02*
D03*
X-82296Y14404D02*
D03*
Y16504D02*
D03*
D12*
X-34798Y75956D02*
D03*
Y82206D02*
D03*
D13*
X-82702Y25284D02*
D03*
Y29754D02*
D03*
X-91796D02*
D03*
Y25284D02*
D03*
X-47396D02*
D03*
Y29754D02*
D03*
X-56490D02*
D03*
Y25284D02*
D03*
X-65049D02*
D03*
Y29754D02*
D03*
X-74143D02*
D03*
Y25284D02*
D03*
D14*
X-6350Y80732D02*
D03*
X-15050D02*
D03*
X-6350Y47585D02*
D03*
X-15050D02*
D03*
D15*
X-16129Y40334D02*
D03*
Y33234D02*
D03*
X-16383Y87723D02*
D03*
Y94823D02*
D03*
D23*
X-96266Y116723D02*
D03*
Y84923D02*
D03*
X-96393Y20788D02*
D03*
X-53975Y6945D02*
D03*
X-62992Y110877D02*
D03*
X-63119Y102830D02*
D03*
X-44069D02*
D03*
X-81661Y125690D02*
D03*
X-96239Y52919D02*
D03*
D24*
X-125376Y116723D02*
D03*
Y84923D02*
D03*
X-125503Y20788D02*
D03*
X-66675Y6945D02*
D03*
X-64135D02*
D03*
X-61595D02*
D03*
X-59055D02*
D03*
X-56515D02*
D03*
X-60452Y110877D02*
D03*
X-57912D02*
D03*
X-55372D02*
D03*
X-52832D02*
D03*
X-50292Y110877D02*
D03*
X-55499Y102830D02*
D03*
X-58039D02*
D03*
X-60579D02*
D03*
X-51689D02*
D03*
X-49149D02*
D03*
X-46609D02*
D03*
X-79121Y125690D02*
D03*
X-76581D02*
D03*
X-74041D02*
D03*
X-71501D02*
D03*
X-68961D02*
D03*
X-125349Y52919D02*
D03*
D25*
X-124460Y15073D02*
D03*
X-118000Y108000D02*
D03*
X-118110Y43902D02*
D03*
X-102923Y91956D02*
D03*
X-114935Y8850D02*
D03*
X-100203Y109815D02*
D03*
X-102870Y108164D02*
D03*
X-43942Y117562D02*
D03*
X-38989Y117308D02*
D03*
X-33953Y117606D02*
D03*
X-23749Y117562D02*
D03*
X-18669Y117435D02*
D03*
X-13716Y117562D02*
D03*
X-49403Y6818D02*
D03*
X-28956D02*
D03*
X-37973Y29043D02*
D03*
X-34036Y17994D02*
D03*
X-39116D02*
D03*
X-44069D02*
D03*
X-28194D02*
D03*
X-23749D02*
D03*
X-13716D02*
D03*
X-18415Y29043D02*
D03*
X-36068Y61301D02*
D03*
X-36195Y66762D02*
D03*
X-18161Y106513D02*
D03*
X-37910Y106675D02*
D03*
X-49149Y128865D02*
D03*
X-28829Y128738D02*
D03*
X-124460Y123277D02*
D03*
X-120000Y130000D02*
D03*
X-117348Y128992D02*
D03*
X-102870Y124166D02*
D03*
X-124500Y110500D02*
D03*
X-115062Y104608D02*
D03*
X-120269Y102195D02*
D03*
X-120000Y98000D02*
D03*
X-117000Y97000D02*
D03*
X-124460Y94500D02*
D03*
X-124500Y91000D02*
D03*
X-102489Y75906D02*
D03*
X-100330Y78065D02*
D03*
X-124841Y78319D02*
D03*
X-118110Y75652D02*
D03*
X-114935Y72985D02*
D03*
X-120269Y70699D02*
D03*
Y66889D02*
D03*
X-116997Y65965D02*
D03*
X-124079Y62190D02*
D03*
Y59269D02*
D03*
Y46696D02*
D03*
X-114935Y40727D02*
D03*
X-120523Y38695D02*
D03*
X-120269Y34758D02*
D03*
X-117300Y33025D02*
D03*
X-124206Y30821D02*
D03*
X-124333Y26757D02*
D03*
X-100203Y45807D02*
D03*
X-102870Y44029D02*
D03*
Y28154D02*
D03*
Y12279D02*
D03*
X-100203Y14184D02*
D03*
X-120269Y7072D02*
D03*
X-118110Y11898D02*
D03*
X-124460Y126000D02*
D03*
X-161500Y21000D02*
D03*
Y84923D02*
D03*
X-102870Y59904D02*
D03*
X-161500Y53000D02*
D03*
Y116800D02*
D03*
D26*
X-155702Y42505D02*
D03*
Y45045D02*
D03*
Y47585D02*
D03*
Y31583D02*
D03*
Y29043D02*
D03*
Y26503D02*
D03*
Y15581D02*
D03*
Y13041D02*
D03*
Y10501D02*
D03*
Y63460D02*
D03*
Y60920D02*
D03*
Y58380D02*
D03*
Y79462D02*
D03*
Y76922D02*
D03*
Y74382D02*
D03*
X-155575Y95464D02*
D03*
Y92924D02*
D03*
Y90384D02*
D03*
X-155702Y111466D02*
D03*
Y108926D02*
D03*
Y106386D02*
D03*
X-165862Y10501D02*
D03*
Y13041D02*
D03*
Y15581D02*
D03*
Y26503D02*
D03*
Y29043D02*
D03*
Y31583D02*
D03*
Y42505D02*
D03*
Y45045D02*
D03*
Y47585D02*
D03*
Y58380D02*
D03*
Y60920D02*
D03*
Y63460D02*
D03*
Y74509D02*
D03*
Y77049D02*
D03*
Y79589D02*
D03*
Y90384D02*
D03*
Y92924D02*
D03*
Y95464D02*
D03*
Y106386D02*
D03*
Y108926D02*
D03*
Y111466D02*
D03*
X-155702Y127341D02*
D03*
Y124801D02*
D03*
Y122261D02*
D03*
X-165862D02*
D03*
Y124801D02*
D03*
Y127341D02*
D03*
D27*
X-135509Y45045D02*
D03*
Y29043D02*
D03*
Y13041D02*
D03*
Y60920D02*
D03*
Y76922D02*
D03*
X-135382Y92924D02*
D03*
X-135509Y108926D02*
D03*
X-186055Y13041D02*
D03*
Y29043D02*
D03*
Y45045D02*
D03*
Y60920D02*
D03*
Y77049D02*
D03*
Y92924D02*
D03*
Y108926D02*
D03*
X-135509Y124801D02*
D03*
X-186055D02*
D03*
D28*
X-29972Y90511D02*
D03*
X-73152Y80732D02*
D03*
Y60793D02*
D03*
D29*
X-32639Y95972D02*
D03*
X-30099D02*
D03*
X-27559D02*
D03*
D30*
X-79756Y6691D02*
D03*
X-82296D02*
D03*
X-77216D02*
D03*
X-74676D02*
D03*
X-22225Y24344D02*
D03*
Y26884D02*
D03*
X-41783Y24344D02*
D03*
Y26884D02*
D03*
Y111334D02*
D03*
Y108794D02*
D03*
X-22225Y108799D02*
D03*
Y111339D02*
D03*
D31*
X-84836Y6691D02*
D03*
D32*
X-91059Y25233D02*
D03*
Y29805D02*
D03*
X-83439D02*
D03*
Y25233D02*
D03*
X-55753D02*
D03*
Y29805D02*
D03*
X-48133D02*
D03*
Y25233D02*
D03*
X-73406D02*
D03*
Y29805D02*
D03*
X-65786D02*
D03*
Y25233D02*
D03*
D33*
X-16256Y121753D02*
D03*
X-26289Y121748D02*
D03*
X-36576Y121753D02*
D03*
X-46609D02*
D03*
X-21209Y13803D02*
D03*
X-11176D02*
D03*
X-31496D02*
D03*
X-41529D02*
D03*
D34*
X-13716Y121753D02*
D03*
X-11176D02*
D03*
X-23749Y121748D02*
D03*
X-21209D02*
D03*
X-34036Y121753D02*
D03*
X-31496D02*
D03*
X-44069D02*
D03*
X-41529D02*
D03*
X-26289Y13803D02*
D03*
X-23749D02*
D03*
X-16256D02*
D03*
X-13716D02*
D03*
X-36576D02*
D03*
X-34036D02*
D03*
X-46609D02*
D03*
X-44069D02*
D03*
X-41534Y63714D02*
D03*
Y61174D02*
D03*
D35*
X-6350Y66432D02*
D03*
Y56428D02*
D03*
Y33441D02*
D03*
Y89448D02*
D03*
X-195064Y119300D02*
D03*
X-195072Y87383D02*
D03*
X-195064Y54784D02*
D03*
Y23415D02*
D03*
D36*
X-6350Y71432D02*
D03*
Y61428D02*
D03*
Y38441D02*
D03*
Y94448D02*
D03*
X-63500Y124420D02*
D03*
X-58500D02*
D03*
X-195064Y114300D02*
D03*
X-195072Y82383D02*
D03*
X-195064Y49784D02*
D03*
Y18415D02*
D03*
D37*
X-34975Y71432D02*
D03*
X-35103Y56602D02*
D03*
D38*
X-13080Y71432D02*
D03*
X-13208Y56602D02*
D03*
D39*
X-12065Y6945D02*
D03*
X-14605D02*
D03*
X-20320D02*
D03*
X-22860D02*
D03*
X-40640D02*
D03*
X-43180D02*
D03*
X-32385D02*
D03*
X-34925D02*
D03*
X-14605Y128738D02*
D03*
X-17145D02*
D03*
X-22860D02*
D03*
X-25400D02*
D03*
X-34925Y128784D02*
D03*
X-37465D02*
D03*
X-43180D02*
D03*
X-45720D02*
D03*
X-90297Y125736D02*
D03*
X-87757D02*
D03*
X-98679Y125690D02*
D03*
X-96139D02*
D03*
D40*
X-17145Y6945D02*
D03*
X-25400D02*
D03*
X-45720D02*
D03*
X-37465D02*
D03*
X-12065Y128738D02*
D03*
X-20320D02*
D03*
X-32385Y128784D02*
D03*
X-40640D02*
D03*
X-85217Y125736D02*
D03*
X-93599Y125690D02*
D03*
D41*
X-14097Y65071D02*
D03*
Y62571D02*
D03*
D42*
X-53500Y124420D02*
D03*
D43*
X-41534Y66254D02*
D03*
D44*
X-5500Y129500D02*
D03*
X-194500D02*
D03*
X-5500Y5500D02*
D03*
X-194500D02*
D03*
%TF.MD5,05acb287aa202a0dac82ae050577d9c7*%
M02*
