%TF.GenerationSoftware,Altium Limited,Altium Designer,21.6.4 (81)*%
G04 Layer_Color=16711935*
%FSLAX43Y43*%
%MOMM*%
%TF.SameCoordinates,95A2699C-722C-4572-8EE5-7BEA9F810E30*%
%TF.FilePolarity,Positive*%
%TF.FileFunction,Other,Mechanical_5*%
%TF.Part,Single*%
G01*
G75*
G36*
X-117060Y9777D02*
X-107984D01*
Y16559D01*
X-117060D01*
Y9777D01*
D02*
G37*
G36*
Y25525D02*
X-107984D01*
Y32307D01*
X-117060D01*
Y25525D01*
D02*
G37*
G36*
Y41654D02*
X-107984D01*
Y48436D01*
X-117060D01*
Y41654D01*
D02*
G37*
G36*
X-93243Y31151D02*
X-81255D01*
Y23887D01*
X-93243D01*
Y31151D01*
D02*
G37*
G36*
X-75590D02*
X-63602D01*
Y23887D01*
X-75590D01*
Y31151D01*
D02*
G37*
G36*
X-57937D02*
X-45949D01*
Y23887D01*
X-57937D01*
Y31151D01*
D02*
G37*
G36*
X-107984Y121283D02*
X-117060D01*
Y128065D01*
X-107984D01*
Y121283D01*
D02*
G37*
G36*
Y105535D02*
X-117060D01*
Y112317D01*
X-107984D01*
Y105535D01*
D02*
G37*
G36*
Y89406D02*
X-117060D01*
Y96188D01*
X-107984D01*
Y89406D01*
D02*
G37*
G36*
Y73658D02*
X-117060D01*
Y80440D01*
X-107984D01*
Y73658D01*
D02*
G37*
G36*
X-11670Y68396D02*
X-36385D01*
Y74467D01*
X-11670D01*
Y68396D01*
D02*
G37*
G36*
X-107984Y57402D02*
X-117060D01*
Y64184D01*
X-107984D01*
Y57402D01*
D02*
G37*
G36*
X-11798Y53567D02*
X-36513D01*
Y59637D01*
X-11798D01*
Y53567D01*
D02*
G37*
%TF.MD5,63be9cf48aa4d126df46c54a33dd433e*%
M02*
