%TF.GenerationSoftware,Altium Limited,Altium Designer,21.6.4 (81)*%
G04 Layer_Color=16711935*
%FSLAX43Y43*%
%MOMM*%
%TF.SameCoordinates,95A2699C-722C-4572-8EE5-7BEA9F810E30*%
%TF.FilePolarity,Positive*%
%TF.FileFunction,Other,Mechanical_13*%
%TF.Part,Single*%
G01*
G75*
%TA.AperFunction,NonConductor*%
%ADD94C,0.200*%
%ADD97C,0.076*%
%ADD137C,0.100*%
%ADD139C,0.000*%
%ADD140C,0.025*%
D94*
X-24384Y27773D02*
X-20066D01*
X-24384Y23455D02*
Y27773D01*
Y23455D02*
X-20066D01*
Y27773D01*
X-43942D02*
X-39624D01*
X-43942Y23455D02*
Y27773D01*
Y23455D02*
X-39624D01*
Y27773D01*
X-43942Y107905D02*
X-39624D01*
Y112223D01*
X-43942D02*
X-39624D01*
X-43942Y107905D02*
Y112223D01*
X-24384Y107910D02*
Y112228D01*
X-20066D01*
Y107910D02*
Y112228D01*
X-24384Y107910D02*
X-20066D01*
D97*
X-110592Y78871D02*
X-111125Y78338D01*
X-110592D02*
X-111125Y78871D01*
X-110592Y78605D02*
X-111125D01*
X-110858Y78338D02*
Y78871D01*
X-110592Y30738D02*
X-111125Y30205D01*
X-110592D02*
X-111125Y30738D01*
X-110592Y30472D02*
X-111125D01*
X-110858Y30205D02*
Y30738D01*
X-110592Y14990D02*
X-111125Y14457D01*
X-110592D02*
X-111125Y14990D01*
X-110592Y14724D02*
X-111125D01*
X-110858Y14457D02*
Y14990D01*
X-110592Y126496D02*
X-111125Y125963D01*
X-110592D02*
X-111125Y126496D01*
X-110592Y126230D02*
X-111125D01*
X-110858Y125963D02*
Y126496D01*
X-110592Y110748D02*
X-111125Y110215D01*
X-110592D02*
X-111125Y110748D01*
X-110592Y110482D02*
X-111125D01*
X-110858Y110215D02*
Y110748D01*
X-110592Y94619D02*
X-111125Y94086D01*
X-110592D02*
X-111125Y94619D01*
X-110592Y94353D02*
X-111125D01*
X-110858Y94086D02*
Y94619D01*
X-110592Y62615D02*
X-111125Y62082D01*
X-110592D02*
X-111125Y62615D01*
X-110592Y62349D02*
X-111125D01*
X-110858Y62082D02*
Y62615D01*
X-110592Y46867D02*
X-111125Y46334D01*
X-110592D02*
X-111125Y46867D01*
X-110592Y46601D02*
X-111125D01*
X-110858Y46334D02*
Y46867D01*
X-84315Y25494D02*
X-84848Y26027D01*
X-84315D02*
X-84848Y25494D01*
X-84315Y25760D02*
X-84848D01*
X-84582Y26027D02*
Y25494D01*
X-49009D02*
X-49542Y26027D01*
X-49009D02*
X-49542Y25494D01*
X-49009Y25760D02*
X-49542D01*
X-49276Y26027D02*
Y25494D01*
X-66662D02*
X-67195Y26027D01*
X-66662D02*
X-67195Y25494D01*
X-66662Y25760D02*
X-67195D01*
X-66929Y26027D02*
Y25494D01*
D137*
X-68498Y117525D02*
X-67228Y116255D01*
X-68498D02*
Y121155D01*
X-64598D01*
Y116255D02*
Y121155D01*
X-68498Y116255D02*
X-64598D01*
X-61810Y124295D02*
X-61310Y123795D01*
X-61810D02*
Y125045D01*
X-60110D01*
Y123795D02*
Y125045D01*
X-61810Y123795D02*
X-60110D01*
X-55714Y125045D02*
X-55214Y124545D01*
Y123795D02*
Y125045D01*
X-56914Y123795D02*
X-55214D01*
X-56914D02*
Y125045D01*
X-55214D01*
X-93567Y57467D02*
Y59129D01*
X-94398Y58298D02*
X-91358Y61338D01*
X-86196Y56176D01*
X-89236Y53136D02*
X-86196Y56176D01*
X-94398Y58298D02*
X-89236Y53136D01*
X-14423Y32678D02*
X-10723D01*
X-14423Y39378D02*
X-10723D01*
X-14423Y32678D02*
Y39378D01*
X-10723Y32678D02*
Y39378D01*
X-15850Y83307D02*
X-14450Y85882D01*
X-15850Y78157D02*
Y83307D01*
Y78157D02*
X-14450Y75582D01*
X-5550D01*
Y85882D01*
X-14450D02*
X-5550D01*
X-10775Y4345D02*
Y10145D01*
X-18435Y4345D02*
X-10775D01*
X-18435D02*
Y10145D01*
X-10775D01*
X-19030Y4345D02*
Y10145D01*
X-26690Y4345D02*
X-19030D01*
X-26690D02*
Y10145D01*
X-19030D01*
X-39350Y4345D02*
Y10145D01*
X-47010Y4345D02*
X-39350D01*
X-47010D02*
Y10145D01*
X-39350D01*
X-31095Y4345D02*
Y10145D01*
X-38755Y4345D02*
X-31095D01*
X-38755D02*
Y10145D01*
X-31095D01*
X-15850Y50160D02*
X-14450Y52735D01*
X-15850Y45010D02*
Y50160D01*
Y45010D02*
X-14450Y42435D01*
X-5550D01*
Y52735D01*
X-14450D02*
X-5550D01*
X-64579Y104100D02*
X-54039Y104100D01*
X-64579Y101560D02*
Y104100D01*
Y101560D02*
X-54039Y101560D01*
Y104100D01*
X-53149Y101560D02*
X-42609Y101560D01*
Y104100D01*
X-53149Y104100D02*
X-42609Y104100D01*
X-53149Y101560D02*
Y104100D01*
X-18435Y125538D02*
X-10775D01*
Y131338D01*
X-18435D02*
X-10775D01*
X-18435Y125538D02*
Y131338D01*
X-26690Y125538D02*
X-19030D01*
Y131338D01*
X-26690D02*
X-19030D01*
X-26690Y125538D02*
Y131338D01*
X-38755Y125584D02*
X-31095D01*
Y131384D01*
X-38755D02*
X-31095D01*
X-38755Y125584D02*
Y131384D01*
X-47010Y125584D02*
X-39350D01*
Y131384D01*
X-47010D02*
X-39350D01*
X-47010Y125584D02*
Y131384D01*
X-91587Y122536D02*
Y128336D01*
X-83927D01*
Y122536D02*
Y128336D01*
X-91587Y122536D02*
X-83927D01*
X-99969Y122490D02*
Y128290D01*
X-92309D01*
Y122490D02*
Y128290D01*
X-99969Y122490D02*
X-92309D01*
D139*
X-112827Y79551D02*
G03*
X-112217Y79551I305J0D01*
G01*
X-112827Y31418D02*
G03*
X-112217Y31418I305J0D01*
G01*
X-112827Y15670D02*
G03*
X-112217Y15670I305J0D01*
G01*
X-112827Y127176D02*
G03*
X-112217Y127176I305J0D01*
G01*
X-112827Y111428D02*
G03*
X-112217Y111428I305J0D01*
G01*
X-112827Y95299D02*
G03*
X-112217Y95299I305J0D01*
G01*
X-112827Y63295D02*
G03*
X-112217Y63295I305J0D01*
G01*
X-112827Y47547D02*
G03*
X-112217Y47547I305J0D01*
G01*
X-68997Y71525D02*
G03*
X-68997Y71525I-76J0D01*
G01*
X-85496Y27519D02*
G03*
X-85496Y27519I-1753J0D01*
G01*
X-50190D02*
G03*
X-50190Y27519I-1753J0D01*
G01*
X-67843D02*
G03*
X-67843Y27519I-1753J0D01*
G01*
D140*
X-110528Y78700D02*
Y79208D01*
X-109423D01*
Y78700D02*
Y79208D01*
X-110528Y78700D02*
X-109423D01*
X-110528Y77430D02*
Y77938D01*
X-109423D01*
Y77430D02*
Y77938D01*
X-110528Y77430D02*
X-109423D01*
X-110528Y76160D02*
Y76668D01*
X-109423D01*
Y76160D02*
Y76668D01*
X-110528Y76160D02*
X-109423D01*
X-110528Y74890D02*
Y75398D01*
X-109423D01*
Y74890D02*
Y75398D01*
X-110528Y74890D02*
X-109423D01*
X-114516D02*
Y75398D01*
X-115621Y74890D02*
X-114516D01*
X-115621D02*
Y75398D01*
X-114516D01*
Y76160D02*
Y76668D01*
X-115621Y76160D02*
X-114516D01*
X-115621D02*
Y76668D01*
X-114516D01*
Y77430D02*
Y77938D01*
X-115621Y77430D02*
X-114516D01*
X-115621D02*
Y77938D01*
X-114516D01*
Y78700D02*
Y79208D01*
X-115621Y78700D02*
X-114516D01*
X-115621D02*
Y79208D01*
X-114516D01*
Y74547D02*
X-110528D01*
X-114516D02*
Y79551D01*
X-110528D01*
Y74547D02*
Y79551D01*
Y26414D02*
Y31418D01*
X-114516D02*
X-110528D01*
X-114516Y26414D02*
Y31418D01*
Y26414D02*
X-110528D01*
X-115621Y31075D02*
X-114516D01*
X-115621Y30567D02*
Y31075D01*
Y30567D02*
X-114516D01*
Y31075D01*
X-115621Y29805D02*
X-114516D01*
X-115621Y29297D02*
Y29805D01*
Y29297D02*
X-114516D01*
Y29805D01*
X-115621Y28535D02*
X-114516D01*
X-115621Y28027D02*
Y28535D01*
Y28027D02*
X-114516D01*
Y28535D01*
X-115621Y27265D02*
X-114516D01*
X-115621Y26757D02*
Y27265D01*
Y26757D02*
X-114516D01*
Y27265D01*
X-110528Y26757D02*
X-109423D01*
Y27265D01*
X-110528D02*
X-109423D01*
X-110528Y26757D02*
Y27265D01*
Y28027D02*
X-109423D01*
Y28535D01*
X-110528D02*
X-109423D01*
X-110528Y28027D02*
Y28535D01*
Y29297D02*
X-109423D01*
Y29805D01*
X-110528D02*
X-109423D01*
X-110528Y29297D02*
Y29805D01*
Y30567D02*
X-109423D01*
Y31075D01*
X-110528D02*
X-109423D01*
X-110528Y30567D02*
Y31075D01*
Y10666D02*
Y15670D01*
X-114516D02*
X-110528D01*
X-114516Y10666D02*
Y15670D01*
Y10666D02*
X-110528D01*
X-115621Y15327D02*
X-114516D01*
X-115621Y14819D02*
Y15327D01*
Y14819D02*
X-114516D01*
Y15327D01*
X-115621Y14057D02*
X-114516D01*
X-115621Y13549D02*
Y14057D01*
Y13549D02*
X-114516D01*
Y14057D01*
X-115621Y12787D02*
X-114516D01*
X-115621Y12279D02*
Y12787D01*
Y12279D02*
X-114516D01*
Y12787D01*
X-115621Y11517D02*
X-114516D01*
X-115621Y11009D02*
Y11517D01*
Y11009D02*
X-114516D01*
Y11517D01*
X-110528Y11009D02*
X-109423D01*
Y11517D01*
X-110528D02*
X-109423D01*
X-110528Y11009D02*
Y11517D01*
Y12279D02*
X-109423D01*
Y12787D01*
X-110528D02*
X-109423D01*
X-110528Y12279D02*
Y12787D01*
Y13549D02*
X-109423D01*
Y14057D01*
X-110528D02*
X-109423D01*
X-110528Y13549D02*
Y14057D01*
Y14819D02*
X-109423D01*
Y15327D01*
X-110528D02*
X-109423D01*
X-110528Y14819D02*
Y15327D01*
Y122172D02*
Y127176D01*
X-114516D02*
X-110528D01*
X-114516Y122172D02*
Y127176D01*
Y122172D02*
X-110528D01*
X-115621Y126833D02*
X-114516D01*
X-115621Y126325D02*
Y126833D01*
Y126325D02*
X-114516D01*
Y126833D01*
X-115621Y125563D02*
X-114516D01*
X-115621Y125055D02*
Y125563D01*
Y125055D02*
X-114516D01*
Y125563D01*
X-115621Y124293D02*
X-114516D01*
X-115621Y123785D02*
Y124293D01*
Y123785D02*
X-114516D01*
Y124293D01*
X-115621Y123023D02*
X-114516D01*
X-115621Y122515D02*
Y123023D01*
Y122515D02*
X-114516D01*
Y123023D01*
X-110528Y122515D02*
X-109423D01*
Y123023D01*
X-110528D02*
X-109423D01*
X-110528Y122515D02*
Y123023D01*
Y123785D02*
X-109423D01*
Y124293D01*
X-110528D02*
X-109423D01*
X-110528Y123785D02*
Y124293D01*
Y125055D02*
X-109423D01*
Y125563D01*
X-110528D02*
X-109423D01*
X-110528Y125055D02*
Y125563D01*
Y126325D02*
X-109423D01*
Y126833D01*
X-110528D02*
X-109423D01*
X-110528Y126325D02*
Y126833D01*
Y106424D02*
Y111428D01*
X-114516D02*
X-110528D01*
X-114516Y106424D02*
Y111428D01*
Y106424D02*
X-110528D01*
X-115621Y111085D02*
X-114516D01*
X-115621Y110577D02*
Y111085D01*
Y110577D02*
X-114516D01*
Y111085D01*
X-115621Y109815D02*
X-114516D01*
X-115621Y109307D02*
Y109815D01*
Y109307D02*
X-114516D01*
Y109815D01*
X-115621Y108545D02*
X-114516D01*
X-115621Y108037D02*
Y108545D01*
Y108037D02*
X-114516D01*
Y108545D01*
X-115621Y107275D02*
X-114516D01*
X-115621Y106767D02*
Y107275D01*
Y106767D02*
X-114516D01*
Y107275D01*
X-110528Y106767D02*
X-109423D01*
Y107275D01*
X-110528D02*
X-109423D01*
X-110528Y106767D02*
Y107275D01*
Y108037D02*
X-109423D01*
Y108545D01*
X-110528D02*
X-109423D01*
X-110528Y108037D02*
Y108545D01*
Y109307D02*
X-109423D01*
Y109815D01*
X-110528D02*
X-109423D01*
X-110528Y109307D02*
Y109815D01*
Y110577D02*
X-109423D01*
Y111085D01*
X-110528D02*
X-109423D01*
X-110528Y110577D02*
Y111085D01*
Y90295D02*
Y95299D01*
X-114516D02*
X-110528D01*
X-114516Y90295D02*
Y95299D01*
Y90295D02*
X-110528D01*
X-115621Y94956D02*
X-114516D01*
X-115621Y94448D02*
Y94956D01*
Y94448D02*
X-114516D01*
Y94956D01*
X-115621Y93686D02*
X-114516D01*
X-115621Y93178D02*
Y93686D01*
Y93178D02*
X-114516D01*
Y93686D01*
X-115621Y92416D02*
X-114516D01*
X-115621Y91908D02*
Y92416D01*
Y91908D02*
X-114516D01*
Y92416D01*
X-115621Y91146D02*
X-114516D01*
X-115621Y90638D02*
Y91146D01*
Y90638D02*
X-114516D01*
Y91146D01*
X-110528Y90638D02*
X-109423D01*
Y91146D01*
X-110528D02*
X-109423D01*
X-110528Y90638D02*
Y91146D01*
Y91908D02*
X-109423D01*
Y92416D01*
X-110528D02*
X-109423D01*
X-110528Y91908D02*
Y92416D01*
Y93178D02*
X-109423D01*
Y93686D01*
X-110528D02*
X-109423D01*
X-110528Y93178D02*
Y93686D01*
Y94448D02*
X-109423D01*
Y94956D01*
X-110528D02*
X-109423D01*
X-110528Y94448D02*
Y94956D01*
Y58291D02*
Y63295D01*
X-114516D02*
X-110528D01*
X-114516Y58291D02*
Y63295D01*
Y58291D02*
X-110528D01*
X-115621Y62952D02*
X-114516D01*
X-115621Y62444D02*
Y62952D01*
Y62444D02*
X-114516D01*
Y62952D01*
X-115621Y61682D02*
X-114516D01*
X-115621Y61174D02*
Y61682D01*
Y61174D02*
X-114516D01*
Y61682D01*
X-115621Y60412D02*
X-114516D01*
X-115621Y59904D02*
Y60412D01*
Y59904D02*
X-114516D01*
Y60412D01*
X-115621Y59142D02*
X-114516D01*
X-115621Y58634D02*
Y59142D01*
Y58634D02*
X-114516D01*
Y59142D01*
X-110528Y58634D02*
X-109423D01*
Y59142D01*
X-110528D02*
X-109423D01*
X-110528Y58634D02*
Y59142D01*
Y59904D02*
X-109423D01*
Y60412D01*
X-110528D02*
X-109423D01*
X-110528Y59904D02*
Y60412D01*
Y61174D02*
X-109423D01*
Y61682D01*
X-110528D02*
X-109423D01*
X-110528Y61174D02*
Y61682D01*
Y62444D02*
X-109423D01*
Y62952D01*
X-110528D02*
X-109423D01*
X-110528Y62444D02*
Y62952D01*
Y42543D02*
Y47547D01*
X-114516D02*
X-110528D01*
X-114516Y42543D02*
Y47547D01*
Y42543D02*
X-110528D01*
X-115621Y47204D02*
X-114516D01*
X-115621Y46696D02*
Y47204D01*
Y46696D02*
X-114516D01*
Y47204D01*
X-115621Y45934D02*
X-114516D01*
X-115621Y45426D02*
Y45934D01*
Y45426D02*
X-114516D01*
Y45934D01*
X-115621Y44664D02*
X-114516D01*
X-115621Y44156D02*
Y44664D01*
Y44156D02*
X-114516D01*
Y44664D01*
X-115621Y43394D02*
X-114516D01*
X-115621Y42886D02*
Y43394D01*
Y42886D02*
X-114516D01*
Y43394D01*
X-110528Y42886D02*
X-109423D01*
Y43394D01*
X-110528D02*
X-109423D01*
X-110528Y42886D02*
Y43394D01*
Y44156D02*
X-109423D01*
Y44664D01*
X-110528D02*
X-109423D01*
X-110528Y44156D02*
Y44664D01*
Y45426D02*
X-109423D01*
Y45934D01*
X-110528D02*
X-109423D01*
X-110528Y45426D02*
Y45934D01*
Y46696D02*
X-109423D01*
Y47204D01*
X-110528D02*
X-109423D01*
X-110528Y46696D02*
Y47204D01*
X-73152Y66632D02*
X-68069Y71715D01*
X-73152Y76798D02*
X-68069Y71715D01*
X-78235D02*
X-73152Y76798D01*
X-78235Y71715D02*
X-73152Y66632D01*
X-68967Y72613D02*
X-68967Y70817D01*
X-84252Y24916D02*
Y25627D01*
Y24916D02*
X-82245D01*
Y25627D01*
X-84252D02*
X-82245D01*
X-84252Y29411D02*
Y30122D01*
Y29411D02*
X-82245D01*
Y30122D01*
X-84252D02*
X-82245D01*
X-90246Y29411D02*
Y30122D01*
X-92253D02*
X-90246D01*
X-92253Y29411D02*
Y30122D01*
Y29411D02*
X-90246D01*
Y24916D02*
Y25627D01*
X-92253D02*
X-90246D01*
X-92253Y24916D02*
Y25627D01*
Y24916D02*
X-90246D01*
Y30516D02*
X-84252D01*
X-90246Y24522D02*
Y30516D01*
Y24522D02*
X-84252D01*
Y30516D01*
X-48946Y24916D02*
Y25627D01*
Y24916D02*
X-46939D01*
Y25627D01*
X-48946D02*
X-46939D01*
X-48946Y29411D02*
Y30122D01*
Y29411D02*
X-46939D01*
Y30122D01*
X-48946D02*
X-46939D01*
X-54940Y29411D02*
Y30122D01*
X-56947D02*
X-54940D01*
X-56947Y29411D02*
Y30122D01*
Y29411D02*
X-54940D01*
Y24916D02*
Y25627D01*
X-56947D02*
X-54940D01*
X-56947Y24916D02*
Y25627D01*
Y24916D02*
X-54940D01*
Y30516D02*
X-48946D01*
X-54940Y24522D02*
Y30516D01*
Y24522D02*
X-48946D01*
Y30516D01*
X-66599Y24916D02*
Y25627D01*
Y24916D02*
X-64592D01*
Y25627D01*
X-66599D02*
X-64592D01*
X-66599Y29411D02*
Y30122D01*
Y29411D02*
X-64592D01*
Y30122D01*
X-66599D02*
X-64592D01*
X-72593Y29411D02*
Y30122D01*
X-74600D02*
X-72593D01*
X-74600Y29411D02*
Y30122D01*
Y29411D02*
X-72593D01*
Y24916D02*
Y25627D01*
X-74600D02*
X-72593D01*
X-74600Y24916D02*
Y25627D01*
Y24916D02*
X-72593D01*
Y30516D02*
X-66599D01*
X-72593Y24522D02*
Y30516D01*
Y24522D02*
X-66599D01*
Y30516D01*
X-38810Y71432D02*
X-37540D01*
X-38556Y70797D02*
Y72067D01*
Y71432D02*
X-37794Y72067D01*
X-38556Y71432D02*
X-37794Y71940D01*
X-38556Y71432D02*
X-37794Y71813D01*
X-38556Y71432D02*
X-37794Y71686D01*
X-38556Y71432D02*
X-37794Y71559D01*
X-38556Y71432D02*
X-37794Y70797D01*
X-38556Y71432D02*
X-37794Y70924D01*
X-38556Y71432D02*
X-37794Y71051D01*
X-38556Y71432D02*
X-37794Y71178D01*
X-38556Y71432D02*
X-37794Y71305D01*
Y70797D02*
Y72067D01*
X-34975Y71432D02*
X-28777D01*
X-19278D02*
X-13080D01*
X-28777Y68777D02*
X-19278D01*
Y74086D01*
X-28777D02*
X-19278D01*
X-28777Y68777D02*
Y74086D01*
X-28905Y53948D02*
Y59256D01*
X-19406D01*
Y53948D02*
Y59256D01*
X-28905Y53948D02*
X-19406D01*
Y56602D02*
X-13208D01*
X-35103D02*
X-28905D01*
X-37922Y55967D02*
Y57237D01*
X-38684Y56602D02*
X-37922Y56475D01*
X-38684Y56602D02*
X-37922Y56348D01*
X-38684Y56602D02*
X-37922Y56221D01*
X-38684Y56602D02*
X-37922Y56094D01*
X-38684Y56602D02*
X-37922Y55967D01*
X-38684Y56602D02*
X-37922Y56729D01*
X-38684Y56602D02*
X-37922Y56856D01*
X-38684Y56602D02*
X-37922Y56983D01*
X-38684Y56602D02*
X-37922Y57110D01*
X-38684Y56602D02*
X-37922Y57237D01*
X-38684Y55967D02*
Y57237D01*
X-38938Y56602D02*
X-37668D01*
%TF.MD5,40cfde1ad3f193c3114bb3d783c950e8*%
M02*
