%TF.GenerationSoftware,Altium Limited,Altium Designer,21.6.4 (81)*%
G04 Layer_Physical_Order=1*
G04 Layer_Color=255*
%FSLAX43Y43*%
%MOMM*%
%TF.SameCoordinates,95A2699C-722C-4572-8EE5-7BEA9F810E30*%
%TF.FilePolarity,Positive*%
%TF.FileFunction,Copper,L1,Top,Signal*%
%TF.Part,Single*%
G01*
G75*
%TA.AperFunction,SMDPad,CuDef*%
%ADD10R,1.508X1.157*%
%ADD11R,1.200X1.100*%
%ADD12R,9.500X3.750*%
%ADD13R,2.108X1.397*%
%ADD14R,4.100X2.000*%
%ADD15R,2.000X4.000*%
%TA.AperFunction,Conductor*%
%ADD16C,0.600*%
%ADD17C,1.000*%
%ADD18C,0.750*%
%ADD19C,2.000*%
%ADD20C,0.800*%
%ADD21C,1.200*%
%ADD22R,19.812X10.160*%
%TA.AperFunction,ComponentPad*%
%ADD23R,1.550X1.550*%
%ADD24C,1.550*%
%ADD25C,2.286*%
%ADD26O,2.286X1.778*%
%ADD27C,4.572*%
%ADD28C,3.048*%
%ADD29O,1.524X2.032*%
%ADD30C,1.600*%
G04:AMPARAMS|DCode=31|XSize=1.6mm|YSize=1.6mm|CornerRadius=0.4mm|HoleSize=0mm|Usage=FLASHONLY|Rotation=0.000|XOffset=0mm|YOffset=0mm|HoleType=Round|Shape=RoundedRectangle|*
%AMROUNDEDRECTD31*
21,1,1.600,0.800,0,0,0.0*
21,1,0.800,1.600,0,0,0.0*
1,1,0.800,0.400,-0.400*
1,1,0.800,-0.400,-0.400*
1,1,0.800,-0.400,0.400*
1,1,0.800,0.400,0.400*
%
%ADD31ROUNDEDRECTD31*%
%ADD32R,2.286X2.286*%
%ADD33R,1.200X1.200*%
%ADD34C,1.200*%
G04:AMPARAMS|DCode=35|XSize=1.95mm|YSize=1.95mm|CornerRadius=0.488mm|HoleSize=0mm|Usage=FLASHONLY|Rotation=90.000|XOffset=0mm|YOffset=0mm|HoleType=Round|Shape=RoundedRectangle|*
%AMROUNDEDRECTD35*
21,1,1.950,0.975,0,0,90.0*
21,1,0.975,1.950,0,0,90.0*
1,1,0.975,0.488,0.488*
1,1,0.975,0.488,-0.488*
1,1,0.975,-0.488,-0.488*
1,1,0.975,-0.488,0.488*
%
%ADD35ROUNDEDRECTD35*%
%ADD36C,1.950*%
%ADD37R,2.057X2.057*%
%ADD38C,2.057*%
%ADD39C,1.500*%
%ADD40R,1.500X1.500*%
%ADD41C,1.524*%
G04:AMPARAMS|DCode=42|XSize=1.95mm|YSize=1.95mm|CornerRadius=0.488mm|HoleSize=0mm|Usage=FLASHONLY|Rotation=180.000|XOffset=0mm|YOffset=0mm|HoleType=Round|Shape=RoundedRectangle|*
%AMROUNDEDRECTD42*
21,1,1.950,0.975,0,0,180.0*
21,1,0.975,1.950,0,0,180.0*
1,1,0.975,-0.488,0.488*
1,1,0.975,0.488,0.488*
1,1,0.975,0.488,-0.488*
1,1,0.975,-0.488,-0.488*
%
%ADD42ROUNDEDRECTD42*%
%ADD43R,1.200X1.200*%
%TA.AperFunction,ViaPad*%
%ADD44C,5.000*%
%ADD45C,1.270*%
%ADD46C,0.800*%
%ADD47C,1.800*%
G36*
X-0Y95168D02*
X-127Y95143D01*
X-375Y95740D01*
X-375Y95740D01*
X-4931Y100296D01*
X-5826Y100667D01*
X-12737D01*
Y110704D01*
X-12949Y111217D01*
X-15404Y113671D01*
Y121133D01*
X-15431Y121198D01*
Y121561D01*
X-15404Y121626D01*
X-15451Y121740D01*
Y122086D01*
X-15486Y122121D01*
Y122523D01*
X-15888D01*
X-15923Y122558D01*
X-16035D01*
X-16420Y122942D01*
Y128162D01*
X-16225Y128357D01*
Y129119D01*
X-16420Y129314D01*
Y130389D01*
X-16632Y130902D01*
X-16885Y131155D01*
X-16885Y131180D01*
X-16864Y131282D01*
X-12082D01*
X-11071Y130271D01*
Y125723D01*
X-10700Y124827D01*
X-7597Y121724D01*
Y118314D01*
X-7226Y117419D01*
X-6330Y117048D01*
X-5435Y117419D01*
X-5064Y118314D01*
Y122249D01*
X-5064Y122249D01*
X-5435Y123144D01*
X-8538Y126247D01*
Y130795D01*
X-8909Y131691D01*
X-8909Y131691D01*
X-10662Y133443D01*
X-11557Y133814D01*
X-99695D01*
X-99695Y133814D01*
X-100590Y133443D01*
X-100590Y133443D01*
X-106305Y127728D01*
X-106676Y126833D01*
Y110821D01*
Y101433D01*
X-106305Y100538D01*
X-102397Y96630D01*
X-102394Y96628D01*
X-101215Y95449D01*
Y91290D01*
X-106051Y86453D01*
X-106422Y85558D01*
Y63347D01*
X-108895Y60874D01*
X-109266Y59979D01*
Y42555D01*
X-108895Y41660D01*
X-106916Y39680D01*
Y14980D01*
X-106930Y14946D01*
X-106559Y14051D01*
X-105664Y13680D01*
X-104769Y14051D01*
X-104755Y14065D01*
X-104384Y14960D01*
Y40205D01*
X-104755Y41100D01*
X-106734Y43080D01*
Y43873D01*
X-106616Y43921D01*
X-106408Y43713D01*
X-106321D01*
X-103506Y40897D01*
Y36706D01*
X-103567Y36645D01*
Y36173D01*
X-103233Y35839D01*
X-102761D01*
X-102427Y36173D01*
Y36645D01*
X-102488Y36706D01*
Y41108D01*
X-102637Y41468D01*
X-105602Y44432D01*
Y44519D01*
X-105663Y44580D01*
Y58591D01*
X-105602Y58652D01*
Y59124D01*
X-105936Y59458D01*
X-106408D01*
X-106616Y59250D01*
X-106734Y59298D01*
Y59454D01*
X-104261Y61927D01*
X-103890Y62823D01*
X-103890Y62823D01*
Y75270D01*
X-103763Y75323D01*
X-103033Y74593D01*
X-101945D01*
X-101176Y75362D01*
Y75397D01*
X-99369D01*
X-99009Y75546D01*
X-94489Y80067D01*
X-94362Y80014D01*
Y79383D01*
X-103230Y70515D01*
X-103379Y70155D01*
Y61217D01*
X-103414D01*
X-104183Y60448D01*
Y59360D01*
X-103414Y58591D01*
X-102326D01*
X-101557Y59360D01*
Y60448D01*
X-102326Y61217D01*
X-102361D01*
Y69944D01*
X-93600Y78706D01*
X-93473Y78653D01*
Y74361D01*
X-93467Y74348D01*
Y43991D01*
X-103230Y34229D01*
X-103379Y33869D01*
Y29467D01*
X-103414D01*
X-104183Y28698D01*
Y27610D01*
X-103414Y26841D01*
X-102326D01*
X-101557Y27610D01*
Y28698D01*
X-102326Y29467D01*
X-102361D01*
Y33658D01*
X-92711Y43309D01*
X-92584Y43256D01*
Y43097D01*
X-100944Y34737D01*
X-101093Y34377D01*
Y17824D01*
X-103230Y15687D01*
X-103379Y15327D01*
Y13592D01*
X-103414D01*
X-104183Y12823D01*
Y11735D01*
X-103414Y10966D01*
X-102326D01*
X-101557Y11735D01*
Y12823D01*
X-102326Y13592D01*
X-102361D01*
Y15116D01*
X-100224Y17253D01*
X-100075Y17613D01*
Y34166D01*
X-91715Y42526D01*
X-91566Y42886D01*
Y88014D01*
X-88639Y90941D01*
X-84011D01*
X-83896Y90827D01*
X-83949Y90700D01*
X-84295D01*
X-84628Y90367D01*
X-84755Y90369D01*
Y90386D01*
X-85089Y90720D01*
X-85561D01*
X-85873Y90408D01*
X-85880Y90411D01*
X-86214Y90745D01*
X-86686D01*
X-87020Y90411D01*
Y89939D01*
X-86759Y89678D01*
Y58100D01*
X-86610Y57740D01*
X-85285Y56415D01*
X-84925Y56266D01*
X-81962D01*
X-81901Y56205D01*
X-81800D01*
X-81752Y56088D01*
X-86063Y51777D01*
X-89730D01*
X-89791Y51838D01*
X-90263D01*
X-90318Y51861D01*
Y73936D01*
X-90235Y74019D01*
Y74491D01*
X-90569Y74825D01*
X-91041D01*
X-91375Y74491D01*
Y74019D01*
X-91336Y73980D01*
Y42440D01*
X-99674Y34102D01*
X-99823Y33742D01*
Y17232D01*
X-99674Y16872D01*
X-98299Y15497D01*
Y13621D01*
X-101291Y10629D01*
X-105199D01*
X-107253Y12682D01*
Y12769D01*
X-107314Y12830D01*
Y27984D01*
X-107253Y28045D01*
Y28517D01*
X-107587Y28851D01*
X-108059D01*
X-108393Y28517D01*
Y28045D01*
X-108332Y27984D01*
Y12830D01*
X-108393Y12769D01*
Y12297D01*
X-108059Y11963D01*
X-107972D01*
X-105876Y9867D01*
X-105929Y9740D01*
X-110845D01*
X-113142Y12037D01*
X-113502Y12186D01*
X-114591D01*
Y17105D01*
X-114803Y17618D01*
X-118740Y21555D01*
X-119253Y21767D01*
X-119766Y21555D01*
X-119978Y21042D01*
X-119766Y20529D01*
X-116041Y16805D01*
Y11977D01*
X-116674Y11345D01*
X-116797Y11401D01*
Y12442D01*
X-117566Y13211D01*
X-118654D01*
X-119242Y12623D01*
X-129716D01*
X-130229Y12411D01*
X-130815Y11825D01*
X-131027Y11312D01*
Y7450D01*
X-131188Y7289D01*
X-153188D01*
X-154795Y8896D01*
Y9625D01*
X-154637Y9690D01*
X-154302Y10501D01*
X-154637Y11312D01*
X-154799Y11378D01*
X-154807Y11396D01*
X-155413Y11648D01*
X-155388Y11775D01*
X-152330D01*
Y7961D01*
X-152276Y7831D01*
X-152146Y7777D01*
X-132334D01*
X-132204Y7831D01*
X-132150Y7961D01*
Y18121D01*
X-132204Y18251D01*
X-132334Y18305D01*
X-152146D01*
X-152276Y18251D01*
X-152330Y18121D01*
Y14307D01*
X-155702D01*
X-156597Y13936D01*
X-156605Y13918D01*
X-156767Y13852D01*
X-157102Y13041D01*
X-156767Y12230D01*
X-156605Y12164D01*
X-156597Y12146D01*
X-155991Y11894D01*
X-156016Y11767D01*
X-159495D01*
X-161665Y13936D01*
X-162560Y14307D01*
X-169234D01*
Y18121D01*
X-169288Y18251D01*
X-169418Y18305D01*
X-189230D01*
X-189360Y18251D01*
X-189455Y18232D01*
X-190534Y19311D01*
X-191429Y19682D01*
X-195064D01*
X-195357Y19560D01*
X-195538D01*
X-195666Y19432D01*
X-195959Y19311D01*
X-196081Y19018D01*
X-196209Y18890D01*
Y18708D01*
X-196330Y18415D01*
X-196209Y18122D01*
Y17941D01*
X-196081Y17813D01*
X-195959Y17520D01*
X-195666Y17398D01*
X-195538Y17270D01*
X-195357D01*
X-195064Y17149D01*
X-191954D01*
X-189414Y14609D01*
Y7961D01*
X-189360Y7831D01*
X-189230Y7777D01*
X-169418D01*
X-169288Y7831D01*
X-169234Y7961D01*
Y11775D01*
X-163085D01*
X-160915Y9606D01*
X-160915Y9606D01*
X-160020Y9235D01*
X-160020Y9235D01*
X-156245D01*
Y8596D01*
X-156033Y8083D01*
X-154102Y6152D01*
X-154154Y6025D01*
X-158266D01*
X-163159Y10918D01*
X-163576Y11091D01*
X-164706D01*
X-164797Y11312D01*
X-165608Y11647D01*
X-166116D01*
X-166927Y11312D01*
X-167262Y10501D01*
X-166927Y9690D01*
X-166116Y9355D01*
X-165608D01*
X-164797Y9690D01*
X-164706Y9911D01*
X-163820D01*
X-158927Y5018D01*
X-158927Y5018D01*
X-158510Y4845D01*
X-129584D01*
X-129167Y5018D01*
X-128361Y5824D01*
X-128361Y5824D01*
X-128188Y6241D01*
Y9791D01*
X-128053Y10118D01*
X-128265Y10630D01*
X-128268Y10633D01*
X-128780Y10845D01*
X-129293Y10633D01*
X-129450Y10255D01*
X-129577Y10280D01*
Y11012D01*
X-129416Y11173D01*
X-119242D01*
X-118654Y10585D01*
X-117613D01*
X-117557Y10462D01*
X-119679Y8339D01*
X-119725Y8385D01*
X-120813D01*
X-121582Y7616D01*
Y6528D01*
X-120813Y5759D01*
X-119725D01*
X-118956Y6528D01*
Y7011D01*
X-114803Y11164D01*
X-114802Y11168D01*
X-113713D01*
X-111416Y8871D01*
X-111056Y8722D01*
X-100244D01*
X-99884Y8871D01*
X-96414Y12341D01*
X-96265Y12701D01*
Y16089D01*
X-96414Y16449D01*
X-97789Y17824D01*
Y32466D01*
X-94609Y35646D01*
X-90520D01*
X-90160Y35795D01*
X-82825Y43130D01*
X-82676Y43490D01*
Y50971D01*
X-82615Y51032D01*
Y51504D01*
X-82949Y51838D01*
X-83421D01*
X-83755Y51504D01*
Y51032D01*
X-83694Y50971D01*
Y43701D01*
X-89926Y37468D01*
X-90057Y37517D01*
X-90062Y37576D01*
X-84540Y43097D01*
X-84391Y43457D01*
Y50209D01*
X-84330Y50270D01*
Y50742D01*
X-84664Y51076D01*
X-85136D01*
X-85470Y50742D01*
Y50270D01*
X-85409Y50209D01*
Y43668D01*
X-90827Y38249D01*
X-90914D01*
X-91248Y37915D01*
Y37443D01*
X-90914Y37109D01*
X-90465D01*
X-90392Y37003D01*
X-90731Y36664D01*
X-94820D01*
X-95180Y36515D01*
X-98658Y33037D01*
X-98681Y32981D01*
X-98805Y33006D01*
Y33531D01*
X-90467Y41869D01*
X-90318Y42229D01*
X-90318Y42229D01*
Y50675D01*
X-90263Y50698D01*
X-89791D01*
X-89730Y50759D01*
X-85852D01*
X-85492Y50908D01*
X-80465Y55935D01*
X-80335Y56249D01*
X-80236Y56330D01*
X-79764D01*
X-79703Y56391D01*
X-78586D01*
X-64213Y42018D01*
X-63853Y41869D01*
X-31961D01*
X-19703Y29612D01*
X-19728Y29587D01*
Y28499D01*
X-18959Y27730D01*
X-17871D01*
X-17102Y28499D01*
Y29587D01*
X-17871Y30356D01*
X-18959D01*
X-18984Y30331D01*
X-31390Y42738D01*
X-31750Y42887D01*
X-63642D01*
X-78015Y57260D01*
X-78375Y57409D01*
X-79703D01*
X-79764Y57470D01*
X-80236D01*
X-80316Y57503D01*
Y57814D01*
X-79180Y58951D01*
X-79192Y58980D01*
X-76742Y61430D01*
X-76737D01*
X-76527Y61517D01*
X-76367Y61677D01*
X-76280Y61887D01*
Y62113D01*
X-76367Y62323D01*
X-76527Y62483D01*
X-76737Y62570D01*
X-76963D01*
X-77173Y62483D01*
X-77333Y62323D01*
X-77420Y62113D01*
Y62108D01*
X-80640Y58888D01*
X-80681D01*
X-81185Y58385D01*
X-81334Y58025D01*
Y57384D01*
X-81429Y57345D01*
X-81901D01*
X-81962Y57284D01*
X-84714D01*
X-84893Y57463D01*
X-84845Y57580D01*
X-84564D01*
X-84230Y57914D01*
Y58386D01*
X-84564Y58720D01*
X-84651D01*
X-84816Y58886D01*
Y89811D01*
X-84749Y89878D01*
X-84629Y89894D01*
X-84538Y89803D01*
Y85318D01*
X-84570Y85286D01*
Y84814D01*
X-84236Y84480D01*
X-83764D01*
X-83465Y84778D01*
X-83167Y84480D01*
X-82695D01*
X-82361Y84814D01*
Y85286D01*
X-82422Y85347D01*
Y90581D01*
X-82571Y90941D01*
X-83440Y91810D01*
X-83680Y91909D01*
X-83710Y92059D01*
X-83480Y92289D01*
Y92761D01*
X-83808Y93089D01*
X-83800Y93216D01*
X-83436D01*
X-81027Y90807D01*
Y90537D01*
X-81154Y90485D01*
X-81389Y90720D01*
X-81861D01*
X-82195Y90386D01*
Y89914D01*
X-82152Y89871D01*
Y85365D01*
X-82231Y85286D01*
Y84814D01*
X-81897Y84480D01*
X-81425D01*
X-81179Y84726D01*
X-81090Y84812D01*
X-81000Y84726D01*
X-80754Y84480D01*
X-80282D01*
X-80036Y84726D01*
X-79947Y84812D01*
X-79857Y84726D01*
X-79611Y84480D01*
X-79139D01*
X-78805Y84814D01*
Y85286D01*
X-78841Y85322D01*
Y89828D01*
X-78755Y89914D01*
Y90386D01*
X-79089Y90720D01*
X-79561D01*
X-79882Y90399D01*
X-80009Y90417D01*
Y91018D01*
X-80158Y91378D01*
X-82865Y94085D01*
X-83225Y94234D01*
X-89675D01*
X-90035Y94085D01*
X-94213Y89907D01*
X-94362Y89547D01*
Y87825D01*
X-94479Y87776D01*
X-94609Y87906D01*
X-95081D01*
X-95415Y87572D01*
Y87100D01*
X-95254Y86939D01*
Y80741D01*
X-99580Y76415D01*
X-101176D01*
Y76450D01*
X-101945Y77219D01*
X-103033D01*
X-103763Y76489D01*
X-103890Y76542D01*
Y85033D01*
X-99054Y89870D01*
X-98683Y90765D01*
X-98683Y90765D01*
Y95974D01*
X-99054Y96869D01*
X-99054Y96869D01*
X-100605Y98420D01*
X-100608Y98422D01*
X-104144Y101958D01*
Y107415D01*
X-104026Y107463D01*
X-103414Y106851D01*
X-102326D01*
X-102301Y106876D01*
X-98441Y103015D01*
X-98081Y102866D01*
X-89586D01*
X-78487Y91767D01*
Y85347D01*
X-78548Y85286D01*
Y84814D01*
X-78214Y84480D01*
X-77742D01*
X-77408Y84814D01*
Y85286D01*
X-77469Y85347D01*
Y91978D01*
X-77618Y92338D01*
X-89015Y103735D01*
X-89375Y103884D01*
X-97870D01*
X-101582Y107595D01*
X-101557Y107620D01*
Y108708D01*
X-102326Y109477D01*
X-103414D01*
X-104026Y108865D01*
X-104144Y108913D01*
Y110821D01*
Y123417D01*
X-104026Y123465D01*
X-103414Y122853D01*
X-103379D01*
Y118495D01*
X-103230Y118135D01*
X-98614Y113519D01*
X-98254Y113370D01*
X-94150D01*
X-94089Y113309D01*
X-93617D01*
X-93283Y113643D01*
Y114115D01*
X-93617Y114449D01*
X-94089D01*
X-94150Y114388D01*
X-98043D01*
X-102361Y118706D01*
Y122853D01*
X-102326D01*
X-101557Y123622D01*
Y124710D01*
X-102326Y125479D01*
X-103414D01*
X-104026Y124867D01*
X-104144Y124915D01*
Y126308D01*
X-99170Y131282D01*
X-95792D01*
X-95771Y131180D01*
X-95771Y131155D01*
X-99192Y127734D01*
X-99404Y127221D01*
Y126266D01*
X-99599Y126071D01*
Y125309D01*
X-99060Y124770D01*
X-98298D01*
X-97759Y125309D01*
Y126071D01*
X-97954Y126266D01*
Y126921D01*
X-94957Y129918D01*
X-91022D01*
Y126312D01*
X-91217Y126117D01*
Y125355D01*
X-90678Y124816D01*
X-89916D01*
X-89377Y125355D01*
Y126117D01*
X-89572Y126312D01*
Y129918D01*
X-79846D01*
Y126301D01*
X-80066Y126081D01*
Y125299D01*
X-79512Y124745D01*
X-78730D01*
X-78176Y125299D01*
Y126081D01*
X-78396Y126301D01*
Y129918D01*
X-67527D01*
Y127214D01*
X-67315Y126701D01*
X-66802Y126489D01*
X-66289Y126701D01*
X-66077Y127214D01*
Y129918D01*
X-50119D01*
X-50070Y129800D01*
X-50462Y129409D01*
Y128321D01*
X-49693Y127552D01*
X-48605D01*
X-47836Y128321D01*
Y129409D01*
X-48228Y129800D01*
X-48179Y129918D01*
X-46445D01*
Y129360D01*
X-46640Y129165D01*
Y128403D01*
X-46101Y127864D01*
X-45339D01*
X-44800Y128403D01*
Y129165D01*
X-44995Y129360D01*
Y129918D01*
X-38190D01*
Y129360D01*
X-38385Y129165D01*
Y128403D01*
X-37846Y127864D01*
X-37084D01*
X-36545Y128403D01*
Y129165D01*
X-36740Y129360D01*
Y129918D01*
X-29686D01*
X-29633Y129791D01*
X-30142Y129282D01*
Y128194D01*
X-29373Y127425D01*
X-28285D01*
X-27516Y128194D01*
Y129282D01*
X-28025Y129791D01*
X-27972Y129918D01*
X-26125D01*
Y129314D01*
X-26320Y129119D01*
Y128357D01*
X-25781Y127818D01*
X-25019D01*
X-24480Y128357D01*
Y129119D01*
X-24675Y129314D01*
Y129918D01*
X-17870D01*
Y129314D01*
X-18065Y129119D01*
Y128357D01*
X-17870Y128162D01*
Y122642D01*
X-17658Y122129D01*
X-17061Y121532D01*
Y121420D01*
X-17026Y121385D01*
Y120983D01*
X-16854D01*
Y113371D01*
X-16642Y112858D01*
X-14187Y110404D01*
Y100667D01*
X-31242D01*
X-32137Y100296D01*
X-32137Y100296D01*
X-33534Y98899D01*
X-33905Y98004D01*
Y95972D01*
Y95514D01*
X-33534Y94618D01*
X-32639Y94247D01*
X-31744Y94618D01*
X-31373Y95514D01*
Y95972D01*
Y97479D01*
X-30717Y98135D01*
X-6351D01*
X-2536Y94320D01*
Y37255D01*
X-5037Y34754D01*
X-6017D01*
X-6131Y34707D01*
X-14959D01*
Y35404D01*
X-17299D01*
Y33674D01*
X-17395Y33441D01*
Y33234D01*
X-17299Y33001D01*
Y31064D01*
X-14959D01*
Y32175D01*
X-7075D01*
Y18929D01*
X-11432Y14573D01*
X-11946D01*
Y13033D01*
X-10406D01*
Y13547D01*
X-5837Y18116D01*
X-5731Y18373D01*
X-5625Y18629D01*
Y32222D01*
X-4512D01*
X-3617Y32593D01*
X-375Y35835D01*
X-127Y36432D01*
X-0Y36407D01*
Y-0D01*
X-200025D01*
Y135000D01*
X-0D01*
Y95168D01*
D02*
G37*
%LPC*%
G36*
X-34544Y129704D02*
X-35306D01*
X-35845Y129165D01*
Y128403D01*
X-35306Y127864D01*
X-34544D01*
X-34005Y128403D01*
Y129165D01*
X-34544Y129704D01*
D02*
G37*
G36*
X-42799D02*
X-43561D01*
X-44100Y129165D01*
Y128403D01*
X-43561Y127864D01*
X-42799D01*
X-42260Y128403D01*
Y129165D01*
X-42799Y129704D01*
D02*
G37*
G36*
X-14224Y129658D02*
X-14986D01*
X-15525Y129119D01*
Y128357D01*
X-14986Y127818D01*
X-14224D01*
X-13685Y128357D01*
Y129119D01*
X-14224Y129658D01*
D02*
G37*
G36*
X-22479D02*
X-23241D01*
X-23780Y129119D01*
Y128357D01*
X-23241Y127818D01*
X-22479D01*
X-21940Y128357D01*
Y129119D01*
X-22479Y129658D01*
D02*
G37*
G36*
X-126746Y133400D02*
X-154686D01*
X-155199Y133188D01*
X-162390Y125997D01*
X-162560Y126067D01*
X-169234D01*
Y129881D01*
X-169288Y130011D01*
X-169418Y130065D01*
X-189230D01*
X-189360Y130011D01*
X-189414Y129881D01*
Y123233D01*
X-192080Y120567D01*
X-195064D01*
X-195226Y120499D01*
X-195552D01*
X-196055Y120291D01*
X-196263Y119788D01*
Y119463D01*
X-196330Y119300D01*
X-196263Y119138D01*
Y118813D01*
X-196055Y118310D01*
X-195552Y118101D01*
X-195226D01*
X-195064Y118034D01*
X-191556D01*
X-190660Y118405D01*
X-189455Y119610D01*
X-189360Y119591D01*
X-189230Y119537D01*
X-169418D01*
X-169288Y119591D01*
X-169234Y119721D01*
Y123535D01*
X-163085D01*
X-160915Y121366D01*
X-160915Y121366D01*
X-160020Y120995D01*
X-160020Y120995D01*
X-155702D01*
X-154807Y121366D01*
X-154799Y121384D01*
X-154637Y121450D01*
X-154302Y122261D01*
X-154637Y123072D01*
X-154799Y123138D01*
X-154807Y123156D01*
X-155413Y123408D01*
X-155388Y123535D01*
X-152330D01*
Y119721D01*
X-152276Y119591D01*
X-152146Y119537D01*
X-132334D01*
X-132204Y119591D01*
X-132150Y119721D01*
Y129881D01*
X-132204Y130011D01*
X-132334Y130065D01*
X-152146D01*
X-152276Y130011D01*
X-152330Y129881D01*
Y126067D01*
X-155702D01*
X-156597Y125696D01*
X-156605Y125678D01*
X-156767Y125612D01*
X-157102Y124801D01*
X-156767Y123990D01*
X-156605Y123924D01*
X-156597Y123906D01*
X-155991Y123654D01*
X-156016Y123527D01*
X-159495D01*
X-161152Y125184D01*
X-154386Y131950D01*
X-153516D01*
X-153490Y131823D01*
X-153799Y131695D01*
X-153799Y131695D01*
X-156119Y129375D01*
X-156292Y128958D01*
Y128348D01*
X-156767Y128152D01*
X-157102Y127341D01*
X-156767Y126530D01*
X-155956Y126195D01*
X-155448D01*
X-154637Y126530D01*
X-154302Y127341D01*
X-154637Y128152D01*
X-155112Y128348D01*
Y128713D01*
X-153137Y130688D01*
X-132578D01*
X-129068Y127178D01*
X-129020Y127158D01*
X-128887Y127025D01*
X-128699D01*
X-128651Y127005D01*
X-128603Y127025D01*
X-128415D01*
X-128282Y127158D01*
X-128234Y127178D01*
X-128214Y127226D01*
X-128081Y127359D01*
Y127547D01*
X-128061Y127595D01*
X-128081Y127643D01*
Y127831D01*
X-128214Y127964D01*
X-128234Y128012D01*
X-131917Y131695D01*
X-132225Y131823D01*
X-132200Y131950D01*
X-127046D01*
X-118623Y123526D01*
X-118412Y123439D01*
X-118392Y123293D01*
X-118680Y123005D01*
Y122533D01*
X-118346Y122199D01*
X-117874D01*
X-117851Y122222D01*
X-117426D01*
X-117412Y122216D01*
X-116826D01*
X-116467Y122365D01*
X-116115Y122717D01*
X-115966Y123076D01*
Y124500D01*
X-115966Y124500D01*
X-116115Y124860D01*
X-119491Y128236D01*
Y128687D01*
X-119456D01*
X-118788Y129355D01*
X-118661Y129303D01*
Y128448D01*
X-117892Y127679D01*
X-116804D01*
X-116035Y128448D01*
Y129536D01*
X-116804Y130305D01*
X-117892D01*
X-118560Y129637D01*
X-118687Y129689D01*
Y130544D01*
X-119456Y131313D01*
X-120544D01*
X-121313Y130544D01*
Y129456D01*
X-120544Y128687D01*
X-120509D01*
Y128025D01*
X-120360Y127665D01*
X-116984Y124289D01*
Y123287D01*
X-117037Y123234D01*
X-117404D01*
X-117418Y123239D01*
X-117724D01*
X-117797Y123321D01*
X-117772Y123454D01*
X-117597Y123526D01*
X-117385Y124039D01*
X-117597Y124552D01*
X-126233Y133188D01*
X-126746Y133400D01*
D02*
G37*
G36*
X-4394Y132170D02*
X-6606D01*
X-8170Y130606D01*
Y128394D01*
X-6606Y126830D01*
X-4394D01*
X-2830Y128394D01*
Y130606D01*
X-4394Y132170D01*
D02*
G37*
G36*
X-193394D02*
X-195606D01*
X-197170Y130606D01*
Y128394D01*
X-195606Y126830D01*
X-193394D01*
X-191830Y128394D01*
Y130606D01*
X-193394Y132170D01*
D02*
G37*
G36*
X-165608Y128487D02*
X-166116D01*
X-166927Y128152D01*
X-167262Y127341D01*
X-166927Y126530D01*
X-166116Y126195D01*
X-165608D01*
X-164797Y126530D01*
X-164462Y127341D01*
X-164797Y128152D01*
X-165608Y128487D01*
D02*
G37*
G36*
X-87376Y126656D02*
X-88138D01*
X-88677Y126117D01*
Y125355D01*
X-88138Y124816D01*
X-87376D01*
X-86837Y125355D01*
Y126117D01*
X-87376Y126656D01*
D02*
G37*
G36*
X-95758Y126610D02*
X-96520D01*
X-97059Y126071D01*
Y125309D01*
X-96520Y124770D01*
X-95758D01*
X-95219Y125309D01*
Y126071D01*
X-95758Y126610D01*
D02*
G37*
G36*
X-71110Y126635D02*
X-71892D01*
X-72446Y126081D01*
Y125299D01*
X-71892Y124745D01*
X-71110D01*
X-70556Y125299D01*
Y126081D01*
X-71110Y126635D01*
D02*
G37*
G36*
X-73650D02*
X-74432D01*
X-74986Y126081D01*
Y125299D01*
X-74432Y124745D01*
X-73650D01*
X-73096Y125299D01*
Y126081D01*
X-73650Y126635D01*
D02*
G37*
G36*
X-76190D02*
X-76972D01*
X-77526Y126081D01*
Y125299D01*
X-76972Y124745D01*
X-76190D01*
X-75636Y125299D01*
Y126081D01*
X-76190Y126635D01*
D02*
G37*
G36*
X-63026Y125565D02*
X-63974D01*
X-64645Y124894D01*
Y123946D01*
X-63974Y123275D01*
X-63026D01*
X-62355Y123946D01*
Y124894D01*
X-63026Y125565D01*
D02*
G37*
G36*
X-53013Y125619D02*
X-53988D01*
X-54491Y125411D01*
X-54699Y124908D01*
Y123933D01*
X-54491Y123429D01*
X-53988Y123221D01*
X-53013D01*
X-52509Y123429D01*
X-52301Y123933D01*
Y124908D01*
X-52509Y125411D01*
X-53013Y125619D01*
D02*
G37*
G36*
X-123916Y127313D02*
X-125004D01*
X-125773Y126544D01*
Y125456D01*
X-125025Y124708D01*
X-125013Y124638D01*
X-125025Y124569D01*
X-125773Y123821D01*
Y122733D01*
X-125004Y121964D01*
X-123916D01*
X-123147Y122733D01*
Y123821D01*
X-123895Y124569D01*
X-123907Y124638D01*
X-123895Y124708D01*
X-123147Y125456D01*
Y126544D01*
X-123916Y127313D01*
D02*
G37*
G36*
X-36243Y122558D02*
X-36909D01*
X-36944Y122523D01*
X-37346D01*
Y122121D01*
X-37381Y122086D01*
Y121420D01*
X-37346Y121385D01*
Y120983D01*
X-36944D01*
X-36909Y120948D01*
X-36243D01*
X-36208Y120983D01*
X-35806D01*
Y121385D01*
X-35771Y121420D01*
Y122086D01*
X-35806Y122121D01*
Y122523D01*
X-36208D01*
X-36243Y122558D01*
D02*
G37*
G36*
X-46276D02*
X-46942D01*
X-46977Y122523D01*
X-47379D01*
Y122121D01*
X-47414Y122086D01*
Y121420D01*
X-47379Y121385D01*
Y120983D01*
X-46977D01*
X-46942Y120948D01*
X-46276D01*
X-46241Y120983D01*
X-45839D01*
Y121385D01*
X-45804Y121420D01*
Y122086D01*
X-45839Y122121D01*
Y122523D01*
X-46241D01*
X-46276Y122558D01*
D02*
G37*
G36*
X-25956Y122553D02*
X-26622D01*
X-26657Y122518D01*
X-27059D01*
Y122116D01*
X-27094Y122081D01*
Y121415D01*
X-27059Y121380D01*
Y120978D01*
X-26657D01*
X-26622Y120943D01*
X-25956D01*
X-25921Y120978D01*
X-25519D01*
Y121380D01*
X-25484Y121415D01*
Y122081D01*
X-25519Y122116D01*
Y122518D01*
X-25921D01*
X-25956Y122553D01*
D02*
G37*
G36*
X-165608Y123407D02*
X-166116D01*
X-166927Y123072D01*
X-167262Y122261D01*
X-166927Y121450D01*
X-166116Y121115D01*
X-165608D01*
X-164797Y121450D01*
X-164706Y121671D01*
X-163566D01*
X-160079Y118184D01*
X-160128Y118066D01*
X-160910D01*
X-160956Y118113D01*
X-162044D01*
X-162813Y117344D01*
Y116256D01*
X-162044Y115487D01*
X-160956D01*
X-160910Y115534D01*
X-153842D01*
X-153793Y115416D01*
X-155922Y113288D01*
X-156094Y112871D01*
Y112555D01*
X-156767Y112277D01*
X-157102Y111466D01*
X-156767Y110655D01*
X-155956Y110320D01*
X-155448D01*
X-154637Y110655D01*
X-154302Y111466D01*
X-154637Y112277D01*
X-154914Y112391D01*
Y112626D01*
X-152982Y114559D01*
X-132314D01*
X-129108Y111353D01*
X-129060Y111333D01*
X-128927Y111200D01*
X-128739D01*
X-128691Y111180D01*
X-128643Y111200D01*
X-128455D01*
X-128322Y111333D01*
X-128274Y111353D01*
X-128254Y111401D01*
X-128121Y111534D01*
Y111722D01*
X-128101Y111770D01*
X-128121Y111818D01*
Y112006D01*
X-128254Y112139D01*
X-128274Y112187D01*
X-131503Y115416D01*
X-131454Y115534D01*
X-125562D01*
X-125376Y115457D01*
X-124481Y115828D01*
X-124110Y116723D01*
X-124481Y117618D01*
X-124558Y117695D01*
X-125453Y118066D01*
X-131338D01*
X-131387Y118184D01*
X-128204Y121367D01*
X-128184Y121415D01*
X-128051Y121548D01*
Y121736D01*
X-128031Y121784D01*
X-128051Y121832D01*
Y122020D01*
X-128184Y122153D01*
X-128204Y122201D01*
X-128252Y122221D01*
X-128385Y122354D01*
X-128573D01*
X-128621Y122374D01*
X-128669Y122354D01*
X-128857D01*
X-128990Y122221D01*
X-129038Y122201D01*
X-132220Y119019D01*
X-159246D01*
X-162905Y122678D01*
X-163322Y122851D01*
X-164706D01*
X-164797Y123072D01*
X-165608Y123407D01*
D02*
G37*
G36*
X-33703Y122558D02*
X-34369D01*
X-34841Y122086D01*
Y121420D01*
X-34761Y121340D01*
Y118655D01*
X-35266Y118150D01*
Y117062D01*
X-34497Y116293D01*
X-33410D01*
X-32640Y117062D01*
Y118150D01*
X-33311Y118821D01*
Y121340D01*
X-33231Y121420D01*
Y122086D01*
X-33703Y122558D01*
D02*
G37*
G36*
X-13383D02*
X-14049D01*
X-14521Y122086D01*
Y121420D01*
X-14441Y121340D01*
Y118694D01*
X-15029Y118106D01*
Y117018D01*
X-14260Y116249D01*
X-13172D01*
X-12403Y117018D01*
Y118106D01*
X-12991Y118694D01*
Y121340D01*
X-12911Y121420D01*
Y122086D01*
X-13383Y122558D01*
D02*
G37*
G36*
X-23416Y122553D02*
X-24082D01*
X-24554Y122081D01*
Y121415D01*
X-24474Y121335D01*
Y118694D01*
X-25062Y118106D01*
Y117018D01*
X-24293Y116249D01*
X-23205D01*
X-22436Y117018D01*
Y118106D01*
X-23024Y118694D01*
Y121335D01*
X-22944Y121415D01*
Y122081D01*
X-23416Y122553D01*
D02*
G37*
G36*
X-43736Y122558D02*
X-44402D01*
X-44874Y122086D01*
Y121420D01*
X-44756Y121301D01*
Y118605D01*
X-45255Y118106D01*
Y117018D01*
X-44486Y116249D01*
X-43398D01*
X-42629Y117018D01*
Y118106D01*
X-43306Y118782D01*
Y121378D01*
X-43264Y121420D01*
Y122086D01*
X-43736Y122558D01*
D02*
G37*
G36*
X-74948Y118640D02*
X-75420D01*
X-75754Y118306D01*
Y118219D01*
X-77000Y116973D01*
X-78013D01*
Y115960D01*
X-79608Y114366D01*
X-79757Y114006D01*
Y107572D01*
X-79818Y107511D01*
Y107039D01*
X-79484Y106705D01*
X-79012D01*
X-78678Y107039D01*
Y107511D01*
X-78739Y107572D01*
Y113795D01*
X-78130Y114404D01*
X-78013Y114356D01*
Y113325D01*
X-77814D01*
Y112220D01*
X-77859D01*
Y110780D01*
X-77102D01*
X-77089Y110775D01*
X-77076Y110780D01*
X-76319D01*
Y112220D01*
X-76364D01*
Y113325D01*
X-76165D01*
Y114821D01*
X-77547D01*
X-77596Y114939D01*
X-77058Y115477D01*
X-76165D01*
Y116370D01*
X-75035Y117500D01*
X-74948D01*
X-74614Y117834D01*
Y118306D01*
X-74948Y118640D01*
D02*
G37*
G36*
X-165608Y112612D02*
X-166116D01*
X-166927Y112277D01*
X-167262Y111466D01*
X-166927Y110655D01*
X-166116Y110320D01*
X-165608D01*
X-164797Y110655D01*
X-164462Y111466D01*
X-164797Y112277D01*
X-165608Y112612D01*
D02*
G37*
G36*
X-52441Y111822D02*
X-53223D01*
X-53777Y111268D01*
Y110486D01*
X-53223Y109932D01*
X-52441D01*
X-51887Y110486D01*
Y111268D01*
X-52441Y111822D01*
D02*
G37*
G36*
X-54981D02*
X-55763D01*
X-56317Y111268D01*
Y110486D01*
X-55763Y109932D01*
X-54981D01*
X-54427Y110486D01*
Y111268D01*
X-54981Y111822D01*
D02*
G37*
G36*
X-57521D02*
X-58303D01*
X-58857Y111268D01*
Y110486D01*
X-58303Y109932D01*
X-57521D01*
X-56967Y110486D01*
Y111268D01*
X-57521Y111822D01*
D02*
G37*
G36*
X-60061D02*
X-60843D01*
X-61397Y111268D01*
Y110486D01*
X-60843Y109932D01*
X-60061D01*
X-59507Y110486D01*
Y111268D01*
X-60061Y111822D01*
D02*
G37*
G36*
X-123956Y111813D02*
X-125044D01*
X-125813Y111044D01*
Y109956D01*
X-125044Y109187D01*
X-123956D01*
X-123187Y109956D01*
Y111044D01*
X-123956Y111813D01*
D02*
G37*
G36*
X-99659Y111128D02*
X-100747D01*
X-101516Y110359D01*
Y109271D01*
X-100747Y108502D01*
X-99659D01*
X-98890Y109271D01*
Y110359D01*
X-99659Y111128D01*
D02*
G37*
G36*
X-21823Y109769D02*
X-22627D01*
X-23195Y109201D01*
Y108397D01*
X-22627Y107829D01*
X-21823D01*
X-21255Y108397D01*
Y109201D01*
X-21823Y109769D01*
D02*
G37*
G36*
X-41381Y109764D02*
X-42185D01*
X-42753Y109196D01*
Y108392D01*
X-42185Y107824D01*
X-41381D01*
X-40813Y108392D01*
Y109196D01*
X-41381Y109764D01*
D02*
G37*
G36*
X-107587Y124609D02*
X-108059D01*
X-108393Y124275D01*
Y123803D01*
X-108332Y123742D01*
Y108588D01*
X-108393Y108527D01*
Y108055D01*
X-108059Y107721D01*
X-107587D01*
X-107253Y108055D01*
Y108527D01*
X-107314Y108588D01*
Y123742D01*
X-107253Y123803D01*
Y124275D01*
X-107587Y124609D01*
D02*
G37*
G36*
X-38445Y118621D02*
X-39533D01*
X-40302Y117852D01*
Y116764D01*
X-39533Y115995D01*
X-39498D01*
Y113879D01*
X-39349Y113519D01*
X-34164Y108334D01*
Y105921D01*
X-34225Y105860D01*
Y105388D01*
X-33891Y105054D01*
X-33419D01*
X-33085Y105388D01*
Y105860D01*
X-33146Y105921D01*
Y108545D01*
X-33295Y108905D01*
X-38480Y114090D01*
Y115995D01*
X-38445D01*
X-37676Y116764D01*
Y117852D01*
X-38445Y118621D01*
D02*
G37*
G36*
X-119017Y117243D02*
X-119489D01*
X-119823Y116909D01*
Y116437D01*
X-119489Y116103D01*
X-119402D01*
X-116346Y113046D01*
Y106838D01*
X-119700Y103483D01*
X-119725Y103508D01*
X-120813D01*
X-121582Y102739D01*
Y101651D01*
X-120813Y100882D01*
X-119725D01*
X-118956Y101651D01*
Y102739D01*
X-118981Y102764D01*
X-115477Y106267D01*
X-115328Y106627D01*
Y113257D01*
X-115477Y113617D01*
X-118683Y116822D01*
Y116909D01*
X-119017Y117243D01*
D02*
G37*
G36*
X-114518Y105921D02*
X-115606D01*
X-116375Y105152D01*
Y104064D01*
X-115606Y103295D01*
X-114518D01*
X-113749Y104064D01*
Y105152D01*
X-114518Y105921D01*
D02*
G37*
G36*
X-18125Y118748D02*
X-19213D01*
X-19982Y117979D01*
Y116891D01*
X-19213Y116122D01*
X-19178D01*
Y111974D01*
X-19029Y111614D01*
X-16003Y108588D01*
Y105917D01*
X-19435Y102485D01*
X-19930D01*
X-19992Y102546D01*
X-20464D01*
X-20543Y102467D01*
X-29311D01*
X-29355Y102511D01*
X-29827D01*
X-30161Y102177D01*
Y101705D01*
X-29827Y101371D01*
X-29355D01*
X-29276Y101450D01*
X-20508D01*
X-20464Y101406D01*
X-19992D01*
X-19930Y101467D01*
X-19224D01*
X-18864Y101616D01*
X-15134Y105346D01*
X-14985Y105706D01*
Y108799D01*
X-15134Y109159D01*
X-18160Y112185D01*
Y116122D01*
X-18125D01*
X-17356Y116891D01*
Y117979D01*
X-18125Y118748D01*
D02*
G37*
G36*
X-48758Y103775D02*
X-49540D01*
X-50094Y103221D01*
Y102439D01*
X-49540Y101885D01*
X-48758D01*
X-48204Y102439D01*
Y103221D01*
X-48758Y103775D01*
D02*
G37*
G36*
X-57648D02*
X-58430D01*
X-58984Y103221D01*
Y102439D01*
X-58430Y101885D01*
X-57648D01*
X-57094Y102439D01*
Y103221D01*
X-57648Y103775D01*
D02*
G37*
G36*
X-191429Y115567D02*
X-195064D01*
X-195357Y115445D01*
X-195538D01*
X-195666Y115317D01*
X-195959Y115196D01*
X-196081Y114903D01*
X-196209Y114775D01*
Y114593D01*
X-196330Y114300D01*
X-196209Y114007D01*
Y113826D01*
X-196081Y113698D01*
X-195959Y113405D01*
X-195666Y113283D01*
X-195538Y113155D01*
X-195357D01*
X-195064Y113034D01*
X-191954D01*
X-189414Y110494D01*
Y103846D01*
X-189360Y103716D01*
X-189230Y103662D01*
X-169418D01*
X-169288Y103716D01*
X-169234Y103846D01*
Y107660D01*
X-163085D01*
X-160915Y105491D01*
X-160915Y105491D01*
X-160020Y105120D01*
X-160020Y105120D01*
X-156361D01*
Y104819D01*
X-156149Y104306D01*
X-153753Y101910D01*
X-153805Y101783D01*
X-157885D01*
X-162905Y106803D01*
X-163322Y106976D01*
X-164706D01*
X-164797Y107197D01*
X-165608Y107532D01*
X-166116D01*
X-166927Y107197D01*
X-167262Y106386D01*
X-166927Y105575D01*
X-166116Y105240D01*
X-165608D01*
X-164797Y105575D01*
X-164706Y105796D01*
X-163566D01*
X-158546Y100776D01*
X-158129Y100603D01*
X-156327D01*
X-156274Y100476D01*
X-162560Y94190D01*
X-162560Y94190D01*
X-169234D01*
Y98004D01*
X-169288Y98134D01*
X-169418Y98188D01*
X-189230D01*
X-189360Y98134D01*
X-189414Y98004D01*
Y91356D01*
X-192121Y88649D01*
X-195072D01*
X-195234Y88582D01*
X-195559D01*
X-196063Y88374D01*
X-196271Y87870D01*
Y87545D01*
X-196338Y87383D01*
X-196271Y87221D01*
Y86895D01*
X-196063Y86392D01*
X-195559Y86184D01*
X-195234D01*
X-195072Y86117D01*
X-191596D01*
X-190701Y86488D01*
X-189455Y87733D01*
X-189360Y87714D01*
X-189230Y87660D01*
X-169418D01*
X-169288Y87714D01*
X-169234Y87844D01*
Y91658D01*
X-163085D01*
X-160915Y89489D01*
X-160915Y89489D01*
X-160020Y89118D01*
X-160020Y89118D01*
X-155702D01*
X-155412Y89238D01*
X-155321D01*
X-154510Y89573D01*
X-154175Y90384D01*
X-154510Y91195D01*
X-155321Y91530D01*
X-155321Y91531D01*
X-155244Y91658D01*
X-152203D01*
Y87844D01*
X-152149Y87714D01*
X-152019Y87660D01*
X-132262D01*
X-132209Y87533D01*
X-132705Y87037D01*
X-159014D01*
X-162778Y90801D01*
X-163195Y90974D01*
X-164706D01*
X-164797Y91195D01*
X-165608Y91530D01*
X-166116D01*
X-166927Y91195D01*
X-167262Y90384D01*
X-166927Y89573D01*
X-166116Y89238D01*
X-165608D01*
X-164797Y89573D01*
X-164706Y89794D01*
X-163439D01*
X-159952Y86307D01*
X-160001Y86189D01*
X-160910D01*
X-160956Y86236D01*
X-162044D01*
X-162813Y85467D01*
Y84379D01*
X-162044Y83610D01*
X-160956D01*
X-160910Y83657D01*
X-154117D01*
X-154065Y83530D01*
X-156119Y81475D01*
X-156292Y81058D01*
Y80469D01*
X-156767Y80273D01*
X-157102Y79462D01*
X-156767Y78651D01*
X-155956Y78316D01*
X-155448D01*
X-154637Y78651D01*
X-154302Y79462D01*
X-154637Y80273D01*
X-155112Y80469D01*
Y80814D01*
X-153327Y82599D01*
X-132442D01*
X-129142Y79299D01*
X-129094Y79279D01*
X-128961Y79146D01*
X-128773D01*
X-128725Y79126D01*
X-128676Y79146D01*
X-128488D01*
X-128355Y79279D01*
X-128307Y79299D01*
X-128287Y79347D01*
X-128154Y79480D01*
Y79668D01*
X-128135Y79716D01*
X-128154Y79764D01*
Y79952D01*
X-128287Y80085D01*
X-128307Y80133D01*
X-131704Y83530D01*
X-131651Y83657D01*
X-125376D01*
X-124481Y84028D01*
X-124110Y84923D01*
X-124481Y85818D01*
X-125376Y86189D01*
X-131718D01*
X-131767Y86307D01*
X-128361Y89713D01*
X-128341Y89761D01*
X-128208Y89894D01*
Y90082D01*
X-128188Y90130D01*
X-128208Y90178D01*
Y90366D01*
X-128341Y90499D01*
X-128361Y90547D01*
X-128409Y90567D01*
X-128542Y90700D01*
X-128730D01*
X-128778Y90720D01*
X-128826Y90700D01*
X-129014D01*
X-129147Y90567D01*
X-129195Y90547D01*
X-131896Y87846D01*
X-132023Y87899D01*
Y98004D01*
X-132077Y98134D01*
X-132207Y98188D01*
X-152019D01*
X-152149Y98134D01*
X-152203Y98004D01*
Y94190D01*
X-155575D01*
X-156470Y93819D01*
X-156478Y93801D01*
X-156640Y93735D01*
X-156975Y92924D01*
X-156640Y92113D01*
X-156478Y92047D01*
X-156470Y92029D01*
X-155864Y91777D01*
X-155889Y91650D01*
X-159495D01*
X-161272Y93427D01*
X-155360Y99339D01*
X-153833D01*
X-153785Y99221D01*
X-155758Y97249D01*
X-155930Y96832D01*
Y96568D01*
X-156640Y96275D01*
X-156975Y95464D01*
X-156640Y94653D01*
X-155829Y94318D01*
X-155321D01*
X-154510Y94653D01*
X-154175Y95464D01*
X-154510Y96275D01*
X-154750Y96374D01*
Y96587D01*
X-152993Y98345D01*
X-132102D01*
X-129353Y95595D01*
X-129217Y95269D01*
X-128704Y95056D01*
X-128192Y95269D01*
X-128138Y95322D01*
X-127926Y95835D01*
X-128138Y96348D01*
X-128647Y96559D01*
X-131310Y99221D01*
X-131262Y99339D01*
X-126312D01*
X-118623Y91649D01*
X-118412Y91562D01*
X-118392Y91416D01*
X-118680Y91128D01*
Y90656D01*
X-118346Y90322D01*
X-117874D01*
X-117813Y90383D01*
X-116701D01*
X-116342Y90532D01*
X-115990Y90884D01*
X-115841Y91243D01*
Y92701D01*
X-115990Y93061D01*
X-119471Y96542D01*
Y96687D01*
X-119456D01*
X-118687Y97456D01*
Y98544D01*
X-119456Y99313D01*
X-120544D01*
X-121313Y98544D01*
Y97456D01*
X-120544Y96687D01*
X-120489D01*
Y96331D01*
X-120340Y95971D01*
X-116859Y92490D01*
Y91454D01*
X-116912Y91401D01*
X-117702D01*
X-117745Y91450D01*
X-117710Y91603D01*
X-117597Y91649D01*
X-117385Y92162D01*
X-117597Y92675D01*
X-125499Y100577D01*
X-126012Y100789D01*
X-130736D01*
X-130784Y100907D01*
X-128369Y103321D01*
X-128197Y103738D01*
Y105878D01*
X-128217Y105926D01*
Y106114D01*
X-128349Y106247D01*
X-128369Y106295D01*
X-128417Y106315D01*
X-128550Y106448D01*
X-128738D01*
X-128787Y106468D01*
X-128835Y106448D01*
X-129023D01*
X-129156Y106315D01*
X-129204Y106295D01*
X-129224Y106247D01*
X-129357Y106114D01*
Y105926D01*
X-129376Y105878D01*
Y103983D01*
X-131504Y101855D01*
X-131534Y101861D01*
X-131576Y101999D01*
X-129887Y103687D01*
X-129675Y104200D01*
Y106500D01*
X-128900Y107275D01*
X-119132D01*
X-118544Y106687D01*
X-117456D01*
X-116687Y107456D01*
Y108544D01*
X-117456Y109313D01*
X-118544D01*
X-119132Y108725D01*
X-129200D01*
X-129713Y108513D01*
X-130913Y107313D01*
X-131125Y106800D01*
Y104500D01*
X-132578Y103047D01*
X-152839D01*
X-154911Y105120D01*
Y105447D01*
X-154807Y105491D01*
X-154799Y105509D01*
X-154637Y105575D01*
X-154302Y106386D01*
X-154637Y107197D01*
X-154799Y107263D01*
X-154807Y107281D01*
X-155413Y107533D01*
X-155388Y107660D01*
X-152330D01*
Y103846D01*
X-152276Y103716D01*
X-152146Y103662D01*
X-132334D01*
X-132204Y103716D01*
X-132150Y103846D01*
Y114006D01*
X-132204Y114136D01*
X-132334Y114190D01*
X-152146D01*
X-152276Y114136D01*
X-152330Y114006D01*
Y110192D01*
X-155702D01*
X-156597Y109821D01*
X-156605Y109803D01*
X-156767Y109737D01*
X-157102Y108926D01*
X-156767Y108115D01*
X-156605Y108049D01*
X-156597Y108031D01*
X-155991Y107779D01*
X-156016Y107652D01*
X-159495D01*
X-161665Y109821D01*
X-162560Y110192D01*
X-169234D01*
Y114006D01*
X-169288Y114136D01*
X-169418Y114190D01*
X-189230D01*
X-189360Y114136D01*
X-189455Y114117D01*
X-190534Y115196D01*
X-191429Y115567D01*
D02*
G37*
G36*
X-80716Y126635D02*
X-82606D01*
Y124745D01*
X-82386D01*
Y123658D01*
X-82174Y123145D01*
X-80523Y121494D01*
X-80266Y121388D01*
X-80010Y121282D01*
X-71607D01*
X-63684Y113358D01*
Y111822D01*
X-63937D01*
Y109932D01*
X-63781D01*
Y103775D01*
X-64064D01*
Y101885D01*
X-63200D01*
X-61177Y99862D01*
X-60920Y99756D01*
X-60664Y99650D01*
X-46524D01*
X-46011Y99862D01*
X-43988Y101885D01*
X-43124D01*
Y103775D01*
X-45014D01*
Y102911D01*
X-45573Y102352D01*
X-45664Y102440D01*
Y103221D01*
X-46218Y103775D01*
X-47000D01*
X-47554Y103221D01*
Y102439D01*
X-47000Y101885D01*
X-46219D01*
X-46131Y101794D01*
X-46824Y101100D01*
X-60364D01*
X-61057Y101794D01*
X-60969Y101885D01*
X-60188D01*
X-59634Y102439D01*
Y103221D01*
X-60188Y103775D01*
X-60970D01*
X-61524Y103221D01*
Y102440D01*
X-61615Y102352D01*
X-62174Y102911D01*
Y103775D01*
X-62330D01*
Y109932D01*
X-62047D01*
Y111822D01*
X-62234D01*
Y113659D01*
X-62340Y113915D01*
X-62446Y114172D01*
X-70794Y122520D01*
X-71307Y122732D01*
X-79710D01*
X-80936Y123958D01*
Y124745D01*
X-80716D01*
Y126635D01*
D02*
G37*
G36*
X-116456Y98313D02*
X-117544D01*
X-118313Y97544D01*
Y96456D01*
X-117544Y95687D01*
X-116456D01*
X-115687Y96456D01*
Y97544D01*
X-116456Y98313D01*
D02*
G37*
G36*
X-165608Y96610D02*
X-166116D01*
X-166927Y96275D01*
X-167262Y95464D01*
X-166927Y94653D01*
X-166116Y94318D01*
X-165608D01*
X-164797Y94653D01*
X-164462Y95464D01*
X-164797Y96275D01*
X-165608Y96610D01*
D02*
G37*
G36*
X-102634Y95018D02*
X-103106D01*
X-103167Y94957D01*
X-105537D01*
X-105897Y94808D01*
X-107972Y92732D01*
X-108059D01*
X-108393Y92398D01*
Y91926D01*
X-108332Y91865D01*
Y76584D01*
X-108393Y76523D01*
Y76051D01*
X-108059Y75717D01*
X-107587D01*
X-107253Y76051D01*
Y76523D01*
X-107314Y76584D01*
Y91865D01*
X-107253Y91926D01*
Y92013D01*
X-105326Y93939D01*
X-103167D01*
X-103106Y93878D01*
X-102634D01*
X-102300Y94212D01*
Y94684D01*
X-102634Y95018D01*
D02*
G37*
G36*
X-123916Y95813D02*
X-125004D01*
X-125773Y95044D01*
Y93956D01*
X-125004Y93187D01*
X-123916D01*
X-123147Y93956D01*
Y95044D01*
X-123916Y95813D01*
D02*
G37*
G36*
X-27559Y97238D02*
X-28454Y96867D01*
X-28825Y95972D01*
X-28454Y95077D01*
X-28438Y95061D01*
X-27543Y94690D01*
X-27372D01*
X-26797Y94452D01*
X-25904D01*
Y83472D01*
X-29878D01*
Y84251D01*
X-39718D01*
Y82931D01*
X-40948D01*
X-41461Y82719D01*
X-42047Y82133D01*
X-42259Y81620D01*
Y67024D01*
X-42304D01*
Y65484D01*
X-40764D01*
Y67024D01*
X-40809D01*
Y81320D01*
X-40648Y81481D01*
X-39718D01*
Y80161D01*
X-29878D01*
Y80940D01*
X-17796D01*
X-17270Y80413D01*
Y79562D01*
X-16333D01*
X-16100Y79466D01*
X-15050D01*
X-14817Y79562D01*
X-12830D01*
Y81902D01*
X-14817D01*
X-15050Y81998D01*
X-15273D01*
X-16376Y83101D01*
X-17272Y83472D01*
X-23372D01*
Y94452D01*
X-17553D01*
Y92653D01*
X-15213D01*
Y94325D01*
X-8018D01*
X-7245Y93553D01*
X-6952Y93431D01*
X-6824Y93303D01*
X-6643D01*
X-6350Y93182D01*
X-6057Y93303D01*
X-5876D01*
X-5748Y93431D01*
X-5455Y93553D01*
X-5333Y93846D01*
X-5205Y93974D01*
Y94155D01*
X-5084Y94448D01*
X-5205Y94741D01*
Y94922D01*
X-5333Y95050D01*
X-5455Y95343D01*
X-6598Y96486D01*
X-7493Y96857D01*
X-15213D01*
Y96993D01*
X-17553D01*
Y96984D01*
X-26460D01*
X-27035Y97222D01*
X-27520D01*
X-27559Y97238D01*
D02*
G37*
G36*
X-102379Y93269D02*
X-103467D01*
X-104236Y92499D01*
Y91412D01*
X-103467Y90643D01*
X-102379D01*
X-101610Y91412D01*
Y92499D01*
X-102379Y93269D01*
D02*
G37*
G36*
X-123956Y92313D02*
X-125044D01*
X-125813Y91544D01*
Y90456D01*
X-125044Y89687D01*
X-123956D01*
X-123187Y90456D01*
Y91544D01*
X-123956Y92313D01*
D02*
G37*
G36*
X-68979Y89557D02*
X-69451D01*
X-69785Y89223D01*
Y88751D01*
X-69451Y88417D01*
X-69364D01*
X-68907Y87960D01*
X-68972Y87845D01*
X-71585D01*
X-71646Y87906D01*
X-72118D01*
X-72452Y87572D01*
Y87100D01*
X-72118Y86766D01*
X-71646D01*
X-71585Y86827D01*
X-69147D01*
X-67875Y85555D01*
X-67923Y85424D01*
X-67975Y85419D01*
X-69016Y86460D01*
X-69376Y86609D01*
X-73102D01*
X-75630Y89136D01*
Y89223D01*
X-75964Y89557D01*
X-76436D01*
X-76770Y89223D01*
Y88751D01*
X-76436Y88417D01*
X-76349D01*
X-73673Y85740D01*
X-73313Y85591D01*
X-69587D01*
X-68642Y84647D01*
Y84560D01*
X-68308Y84226D01*
X-67836D01*
X-67502Y84560D01*
Y84861D01*
X-67375Y84936D01*
X-67372Y84935D01*
Y84560D01*
X-67038Y84226D01*
X-66566D01*
X-66294Y84498D01*
X-66022Y84226D01*
X-65550D01*
X-65216Y84560D01*
Y85032D01*
X-65316Y85132D01*
Y85596D01*
X-65465Y85956D01*
X-68645Y89136D01*
Y89223D01*
X-68979Y89557D01*
D02*
G37*
G36*
X-94664Y120120D02*
X-95136D01*
X-95470Y119786D01*
Y119314D01*
X-95136Y118980D01*
X-95101D01*
X-59818Y83696D01*
Y83079D01*
X-59942Y83054D01*
X-59965Y83110D01*
X-85930Y109074D01*
Y109161D01*
X-86264Y109495D01*
X-86736D01*
X-87070Y109161D01*
Y108689D01*
X-86736Y108355D01*
X-86649D01*
X-60834Y82539D01*
Y62061D01*
X-61138Y61757D01*
X-61255Y61805D01*
Y62111D01*
X-61316Y62172D01*
Y82105D01*
X-61465Y82465D01*
X-63946Y84945D01*
Y85032D01*
X-64280Y85366D01*
X-64752D01*
X-65086Y85032D01*
Y84560D01*
X-64752Y84226D01*
X-64665D01*
X-63076Y82637D01*
X-63035D01*
X-62304Y81907D01*
Y80927D01*
X-62404Y80860D01*
X-62551Y80921D01*
X-62607D01*
X-62689Y81021D01*
X-62678Y81075D01*
X-62678Y81075D01*
Y81256D01*
X-62636Y81298D01*
X-62549Y81508D01*
Y81734D01*
X-62636Y81944D01*
X-62796Y82104D01*
X-63006Y82191D01*
X-63232D01*
X-63442Y82104D01*
X-63602Y81944D01*
X-63689Y81734D01*
Y81508D01*
X-63636Y81381D01*
Y81273D01*
X-66148Y78762D01*
X-66153D01*
X-66363Y78675D01*
X-66523Y78515D01*
X-66610Y78305D01*
Y78079D01*
X-66523Y77869D01*
X-66363Y77709D01*
X-66153Y77622D01*
X-65927D01*
X-65913Y77628D01*
X-65908Y77622D01*
X-65848D01*
Y77562D01*
X-65842Y77557D01*
X-65848Y77543D01*
Y77317D01*
X-65761Y77107D01*
X-65601Y76947D01*
X-65391Y76860D01*
X-65165D01*
X-64955Y76947D01*
X-64795Y77107D01*
X-64708Y77317D01*
Y77543D01*
X-64733Y77604D01*
X-62556Y79781D01*
X-62551D01*
X-62404Y79842D01*
X-62304Y79775D01*
Y62202D01*
X-62308Y62198D01*
X-62395Y61988D01*
Y61762D01*
X-62308Y61552D01*
X-62230Y61474D01*
Y61474D01*
X-62061Y61305D01*
X-61755D01*
X-61707Y61188D01*
X-62011Y60884D01*
X-62230D01*
Y60854D01*
X-64123D01*
X-64127Y60858D01*
X-64337Y60945D01*
X-64563D01*
X-64773Y60858D01*
X-64933Y60698D01*
X-65020Y60488D01*
Y60262D01*
X-64933Y60052D01*
X-64773Y59892D01*
X-64600Y59820D01*
X-64612Y59731D01*
X-64616Y59719D01*
X-64823Y59633D01*
X-64983Y59473D01*
X-65070Y59263D01*
Y59037D01*
X-65043Y58971D01*
X-65070Y58931D01*
Y58914D01*
X-64736Y58580D01*
X-64264D01*
X-64203Y58641D01*
X-61658D01*
X-61605Y58514D01*
X-61739Y58381D01*
X-66378D01*
X-66439Y58442D01*
X-66911D01*
X-67245Y58108D01*
Y57636D01*
X-66911Y57302D01*
X-66439D01*
X-66378Y57363D01*
X-61536D01*
X-61504Y57327D01*
X-61459Y57260D01*
X-62244Y56476D01*
X-66270D01*
X-66364Y56570D01*
X-66836D01*
X-67170Y56236D01*
Y55764D01*
X-66836Y55430D01*
X-66364D01*
X-66336Y55458D01*
X-62191D01*
X-62138Y55331D01*
X-62264Y55206D01*
X-66275D01*
X-66364Y55295D01*
X-66836D01*
X-67170Y54961D01*
Y54489D01*
X-66836Y54155D01*
X-66364D01*
X-66331Y54188D01*
X-62053D01*
X-61693Y54337D01*
X-55774Y60256D01*
X-55625Y60616D01*
Y79551D01*
X-29172Y106004D01*
X-19474D01*
Y105969D01*
X-18705Y105200D01*
X-17617D01*
X-16848Y105969D01*
Y107057D01*
X-17617Y107826D01*
X-18705D01*
X-19474Y107057D01*
Y107022D01*
X-29382D01*
X-29742Y106873D01*
X-56494Y80121D01*
X-56554Y79976D01*
X-56681Y80002D01*
Y81900D01*
X-37550Y101031D01*
X-37401Y101390D01*
Y105362D01*
X-37366D01*
X-36597Y106131D01*
Y107219D01*
X-37366Y107988D01*
X-38453D01*
X-39222Y107219D01*
Y106131D01*
X-38453Y105362D01*
X-38418D01*
Y101601D01*
X-57549Y82470D01*
X-57657Y82209D01*
X-57784Y82234D01*
Y84843D01*
X-57933Y85203D01*
X-70738Y98008D01*
Y118916D01*
X-70677Y118977D01*
Y119449D01*
X-71011Y119783D01*
X-71483D01*
X-71817Y119449D01*
Y118977D01*
X-71756Y118916D01*
Y97797D01*
X-71607Y97437D01*
X-58802Y84632D01*
Y84236D01*
X-58926Y84211D01*
X-58949Y84267D01*
X-94330Y119647D01*
Y119786D01*
X-94664Y120120D01*
D02*
G37*
G36*
X-165608Y80735D02*
X-166116D01*
X-166927Y80400D01*
X-167262Y79589D01*
X-166927Y78778D01*
X-166116Y78443D01*
X-165608D01*
X-164797Y78778D01*
X-164462Y79589D01*
X-164797Y80400D01*
X-165608Y80735D01*
D02*
G37*
G36*
X-124297Y79632D02*
X-125385D01*
X-126154Y78863D01*
Y77775D01*
X-125385Y77006D01*
X-124297D01*
X-123528Y77775D01*
Y78863D01*
X-124297Y79632D01*
D02*
G37*
G36*
X-99786Y79378D02*
X-100874D01*
X-101643Y78609D01*
Y77521D01*
X-100874Y76752D01*
X-99786D01*
X-99017Y77521D01*
Y78609D01*
X-99786Y79378D01*
D02*
G37*
G36*
X-119253Y85648D02*
X-119766Y85436D01*
X-119978Y84923D01*
X-119766Y84410D01*
X-116041Y80686D01*
Y75734D01*
X-116672Y75104D01*
X-116797Y75158D01*
Y76196D01*
X-117566Y76965D01*
X-118654D01*
X-119027Y76592D01*
X-128722D01*
X-129235Y76380D01*
X-130815Y74800D01*
X-131027Y74287D01*
Y72799D01*
X-132033Y71794D01*
X-132114Y71827D01*
X-132150Y71856D01*
Y82002D01*
X-132204Y82132D01*
X-132334Y82186D01*
X-152146D01*
X-152276Y82132D01*
X-152330Y82002D01*
Y78188D01*
X-155702D01*
X-156597Y77817D01*
X-156605Y77799D01*
X-156767Y77733D01*
X-157102Y76922D01*
X-156767Y76111D01*
X-156605Y76045D01*
X-156597Y76027D01*
X-156292Y75900D01*
X-156317Y75775D01*
X-159495D01*
X-161665Y77944D01*
X-162560Y78315D01*
X-169234D01*
Y82129D01*
X-169288Y82259D01*
X-169418Y82313D01*
X-189230D01*
X-189360Y82259D01*
X-189455Y82240D01*
X-190494Y83278D01*
X-191389Y83649D01*
X-195072D01*
X-195365Y83528D01*
X-195546D01*
X-195674Y83400D01*
X-195967Y83278D01*
X-196089Y82985D01*
X-196217Y82857D01*
Y82676D01*
X-196338Y82383D01*
X-196217Y82090D01*
Y81909D01*
X-196089Y81781D01*
X-195967Y81488D01*
X-195674Y81366D01*
X-195546Y81238D01*
X-195365D01*
X-195072Y81117D01*
X-191914D01*
X-189414Y78617D01*
Y71969D01*
X-189360Y71839D01*
X-189230Y71785D01*
X-169418D01*
X-169288Y71839D01*
X-169234Y71969D01*
Y75783D01*
X-163085D01*
X-160915Y73614D01*
X-160915Y73614D01*
X-160020Y73243D01*
X-160020Y73243D01*
X-156308D01*
Y72869D01*
X-156096Y72356D01*
X-153900Y70160D01*
X-153952Y70033D01*
X-158012D01*
X-162905Y74926D01*
X-163322Y75099D01*
X-164706D01*
X-164797Y75320D01*
X-165608Y75655D01*
X-166116D01*
X-166927Y75320D01*
X-167262Y74509D01*
X-166927Y73698D01*
X-166116Y73363D01*
X-165608D01*
X-164797Y73698D01*
X-164706Y73919D01*
X-163566D01*
X-158673Y69026D01*
X-158673Y69026D01*
X-158256Y68853D01*
X-156082D01*
X-156029Y68726D01*
X-162565Y62191D01*
X-162567Y62186D01*
X-169234D01*
Y66000D01*
X-169288Y66130D01*
X-169418Y66184D01*
X-189230D01*
X-189360Y66130D01*
X-189414Y66000D01*
Y59352D01*
X-192715Y56051D01*
X-195064D01*
X-195226Y55983D01*
X-195552D01*
X-196055Y55775D01*
X-196263Y55272D01*
Y54947D01*
X-196330Y54784D01*
X-196263Y54622D01*
Y54297D01*
X-196055Y53794D01*
X-195552Y53585D01*
X-195226D01*
X-195064Y53518D01*
X-192191D01*
X-191295Y53889D01*
X-189455Y55729D01*
X-189360Y55710D01*
X-189230Y55656D01*
X-169418D01*
X-169288Y55710D01*
X-169234Y55840D01*
Y59654D01*
X-163085D01*
X-162947Y59517D01*
X-160915Y57485D01*
X-160020Y57114D01*
X-160020Y57114D01*
X-155702D01*
X-154807Y57485D01*
X-154799Y57503D01*
X-154637Y57569D01*
X-154302Y58380D01*
X-154637Y59191D01*
X-154799Y59257D01*
X-154807Y59275D01*
X-155413Y59527D01*
X-155388Y59654D01*
X-152330D01*
Y55840D01*
X-152276Y55710D01*
X-152146Y55656D01*
X-132334D01*
X-132204Y55710D01*
X-132150Y55840D01*
Y66000D01*
X-132204Y66130D01*
X-132334Y66184D01*
X-152146D01*
X-152276Y66130D01*
X-152330Y66000D01*
Y62186D01*
X-155702D01*
X-156597Y61815D01*
X-156605Y61797D01*
X-156767Y61731D01*
X-157102Y60920D01*
X-156767Y60109D01*
X-156605Y60043D01*
X-156597Y60025D01*
X-155991Y59773D01*
X-156016Y59646D01*
X-159495D01*
X-161277Y61428D01*
X-155116Y67589D01*
X-154058D01*
X-154009Y67471D01*
X-156060Y65420D01*
X-156233Y65003D01*
Y64492D01*
X-156767Y64271D01*
X-157102Y63460D01*
X-156767Y62649D01*
X-155956Y62314D01*
X-155448D01*
X-154637Y62649D01*
X-154302Y63460D01*
X-154637Y64271D01*
X-155053Y64443D01*
Y64759D01*
X-153217Y66595D01*
X-132376D01*
X-129426Y63645D01*
X-129291Y63318D01*
X-129237Y63265D01*
X-128725Y63052D01*
X-128212Y63265D01*
X-127999Y63778D01*
X-128212Y64290D01*
X-128265Y64344D01*
X-128592Y64479D01*
X-131584Y67471D01*
X-131536Y67589D01*
X-126566D01*
X-118623Y59645D01*
X-118412Y59558D01*
X-118392Y59412D01*
X-118680Y59124D01*
Y58652D01*
X-118346Y58318D01*
X-117874D01*
X-117813Y58379D01*
X-117287D01*
X-116927Y58528D01*
X-114440Y61015D01*
X-114291Y61375D01*
Y67025D01*
X-114440Y67385D01*
X-115640Y68585D01*
X-116000Y68734D01*
X-118933D01*
X-119293Y68585D01*
X-119700Y68177D01*
X-119725Y68202D01*
X-120813D01*
X-121582Y67433D01*
Y66345D01*
X-120813Y65576D01*
X-119725D01*
X-118956Y66345D01*
Y67433D01*
X-118981Y67458D01*
X-118722Y67716D01*
X-116211D01*
X-115309Y66814D01*
Y61586D01*
X-117498Y59397D01*
X-117702D01*
X-117745Y59446D01*
X-117710Y59599D01*
X-117597Y59645D01*
X-117385Y60158D01*
X-117597Y60671D01*
X-125753Y68827D01*
X-126266Y69039D01*
X-130666D01*
X-130715Y69157D01*
X-128234Y71638D01*
X-128234Y71638D01*
X-128061Y72055D01*
X-128061Y72055D01*
Y74128D01*
X-128081Y74176D01*
Y74364D01*
X-128214Y74497D01*
X-128234Y74545D01*
X-128282Y74565D01*
X-128415Y74698D01*
X-128603D01*
X-128651Y74718D01*
X-128699Y74698D01*
X-128700D01*
X-128748Y74815D01*
X-128422Y75142D01*
X-119423D01*
Y75108D01*
X-118654Y74339D01*
X-117616D01*
X-117562Y74214D01*
X-119764Y72012D01*
X-120813D01*
X-121582Y71243D01*
Y70155D01*
X-120813Y69386D01*
X-119725D01*
X-118956Y70155D01*
Y70768D01*
X-116365Y73359D01*
X-116248Y73310D01*
Y72441D01*
X-115479Y71672D01*
X-114391D01*
X-113622Y72441D01*
Y73529D01*
X-114391Y74298D01*
X-115260D01*
X-115309Y74415D01*
X-114803Y74921D01*
X-114591Y75434D01*
Y80986D01*
X-114803Y81499D01*
X-118740Y85436D01*
X-119253Y85648D01*
D02*
G37*
G36*
X-87989Y90745D02*
X-88461D01*
X-88795Y90411D01*
Y89939D01*
X-88721Y89865D01*
Y75535D01*
X-88770Y75486D01*
Y75014D01*
X-88436Y74680D01*
X-87964D01*
X-87630Y75014D01*
Y75486D01*
X-87704Y75560D01*
Y89890D01*
X-87655Y89939D01*
Y90411D01*
X-87989Y90745D01*
D02*
G37*
G36*
X-35651Y68075D02*
X-36739D01*
X-37508Y67306D01*
Y66218D01*
X-36739Y65449D01*
X-35651D01*
X-34882Y66218D01*
Y67306D01*
X-35651Y68075D01*
D02*
G37*
G36*
X-116453Y67278D02*
X-117540D01*
X-118310Y66509D01*
Y65421D01*
X-117540Y64652D01*
X-116453D01*
X-115684Y65421D01*
Y66509D01*
X-116453Y67278D01*
D02*
G37*
G36*
X-41215Y64484D02*
X-41853D01*
X-42304Y64033D01*
Y63395D01*
X-41853Y62944D01*
X-41215D01*
X-40764Y63395D01*
Y64033D01*
X-41215Y64484D01*
D02*
G37*
G36*
X-29878Y78001D02*
X-39718D01*
Y73911D01*
X-36241D01*
Y71432D01*
X-36174Y71268D01*
Y70233D01*
X-35138D01*
X-34975Y70165D01*
X-33065D01*
X-32635Y69736D01*
Y62997D01*
X-33065Y62567D01*
X-35478D01*
X-35524Y62614D01*
X-36612D01*
X-37381Y61845D01*
Y60757D01*
X-36612Y59988D01*
X-35524D01*
X-35478Y60035D01*
X-32541D01*
X-31645Y60406D01*
X-30474Y61577D01*
X-30103Y62473D01*
Y70260D01*
X-30474Y71156D01*
X-31645Y72327D01*
X-32541Y72698D01*
X-33708D01*
Y73911D01*
X-29878D01*
Y75216D01*
X-29850Y75248D01*
X-29867Y75514D01*
X-29787Y75769D01*
X-29878Y75944D01*
Y78001D01*
D02*
G37*
G36*
X-165608Y64606D02*
X-166116D01*
X-166927Y64271D01*
X-167262Y63460D01*
X-166927Y62649D01*
X-166116Y62314D01*
X-165608D01*
X-164797Y62649D01*
X-164462Y63460D01*
X-164797Y64271D01*
X-165608Y64606D01*
D02*
G37*
G36*
X-64784Y70634D02*
X-65010D01*
X-65220Y70547D01*
X-65380Y70387D01*
X-65467Y70177D01*
Y69951D01*
X-65413Y69821D01*
Y69209D01*
X-72337Y62286D01*
X-72350Y62294D01*
X-72658Y62422D01*
X-72985Y62487D01*
X-73319D01*
X-73646Y62422D01*
X-73954Y62294D01*
X-74232Y62109D01*
X-74468Y61873D01*
X-74653Y61595D01*
X-74781Y61287D01*
X-74846Y60960D01*
Y60626D01*
X-74781Y60299D01*
X-74653Y59991D01*
X-74468Y59713D01*
X-74232Y59477D01*
X-73954Y59292D01*
X-73646Y59164D01*
X-73631Y59161D01*
Y58888D01*
X-73661D01*
Y54316D01*
X-73512Y53956D01*
X-64622Y45066D01*
X-64262Y44917D01*
X-23919D01*
X-23858Y44856D01*
X-23386D01*
X-23052Y45190D01*
Y45662D01*
X-23386Y45996D01*
X-23858D01*
X-23919Y45935D01*
X-64051D01*
X-72643Y54527D01*
Y58888D01*
X-72673D01*
Y59161D01*
X-72658Y59164D01*
X-72350Y59292D01*
X-72072Y59477D01*
X-71836Y59713D01*
X-71651Y59991D01*
X-71523Y60299D01*
X-71458Y60626D01*
Y60960D01*
X-71523Y61287D01*
X-71651Y61595D01*
X-71659Y61608D01*
X-64595Y68672D01*
X-64595Y68672D01*
X-64518Y68788D01*
X-64482Y68874D01*
X-64455Y69011D01*
X-64455Y69011D01*
Y69700D01*
X-64414Y69741D01*
X-64327Y69951D01*
Y70177D01*
X-64414Y70387D01*
X-64574Y70547D01*
X-64784Y70634D01*
D02*
G37*
G36*
X-123535Y63503D02*
X-124623D01*
X-125392Y62734D01*
Y61646D01*
X-124623Y60877D01*
X-123535D01*
X-122766Y61646D01*
Y62734D01*
X-123535Y63503D01*
D02*
G37*
G36*
X-41215Y61944D02*
X-41853D01*
X-42304Y61493D01*
Y60855D01*
X-41853Y60404D01*
X-41215D01*
X-40764Y60855D01*
Y61493D01*
X-41215Y61944D01*
D02*
G37*
G36*
X-123535Y60582D02*
X-124623D01*
X-125392Y59813D01*
Y58725D01*
X-124623Y57956D01*
X-123535D01*
X-122766Y58725D01*
Y59813D01*
X-123535Y60582D01*
D02*
G37*
G36*
X-6350Y67698D02*
X-12736D01*
X-13632Y67327D01*
X-14992Y65966D01*
X-15363Y65071D01*
X-14992Y64176D01*
X-14290Y63884D01*
Y63757D01*
X-14992Y63466D01*
X-15363Y62571D01*
Y57507D01*
X-14992Y56611D01*
X-14114Y55733D01*
X-14103Y55707D01*
X-13940Y55639D01*
X-13705Y55403D01*
X-13371D01*
X-13208Y55336D01*
X-13045Y55403D01*
X-12711D01*
X-12476Y55639D01*
X-12313Y55707D01*
X-12245Y55870D01*
X-12009Y56105D01*
Y56439D01*
X-11942Y56602D01*
Y56618D01*
X-11942Y56618D01*
X-12009Y56781D01*
Y57099D01*
X-12234Y57323D01*
X-12313Y57513D01*
X-12831Y58031D01*
Y60162D01*
X-6350D01*
X-6057Y60283D01*
X-5876D01*
X-5748Y60411D01*
X-5455Y60533D01*
X-5333Y60826D01*
X-5205Y60954D01*
Y61135D01*
X-5084Y61428D01*
X-5205Y61721D01*
Y61902D01*
X-5333Y62030D01*
X-5455Y62323D01*
X-5748Y62445D01*
X-5876Y62573D01*
X-6057D01*
X-6350Y62694D01*
X-12429D01*
X-13202Y63466D01*
X-13904Y63757D01*
Y63884D01*
X-13202Y64176D01*
X-12212Y65165D01*
X-6350D01*
X-6188Y65233D01*
X-5863D01*
X-5359Y65441D01*
X-5151Y65944D01*
Y66270D01*
X-5084Y66432D01*
X-5151Y66594D01*
Y66919D01*
X-5359Y67423D01*
X-5863Y67631D01*
X-6188D01*
X-6350Y67698D01*
D02*
G37*
G36*
X-165608Y59526D02*
X-166116D01*
X-166927Y59191D01*
X-167262Y58380D01*
X-166927Y57569D01*
X-166116Y57234D01*
X-165608D01*
X-164797Y57569D01*
X-164706Y57790D01*
X-163439D01*
X-160107Y54458D01*
X-159951Y54393D01*
X-159977Y54266D01*
X-160910D01*
X-160956Y54313D01*
X-162044D01*
X-162813Y53544D01*
Y52456D01*
X-162044Y51687D01*
X-160956D01*
X-160910Y51734D01*
X-154039D01*
X-154014Y51609D01*
X-154031Y51602D01*
X-154031Y51602D01*
X-156074Y49559D01*
X-156247Y49142D01*
Y48611D01*
X-156767Y48396D01*
X-157102Y47585D01*
X-156767Y46774D01*
X-155956Y46439D01*
X-155448D01*
X-154637Y46774D01*
X-154302Y47585D01*
X-154637Y48396D01*
X-155067Y48573D01*
Y48898D01*
X-153370Y50595D01*
X-132315D01*
X-129142Y47422D01*
X-129094Y47402D01*
X-128961Y47269D01*
X-128773D01*
X-128725Y47249D01*
X-128676Y47269D01*
X-128488D01*
X-128355Y47402D01*
X-128307Y47422D01*
X-128287Y47470D01*
X-128154Y47603D01*
Y47791D01*
X-128135Y47839D01*
X-128154Y47887D01*
Y48075D01*
X-128287Y48208D01*
X-128307Y48256D01*
X-131653Y51602D01*
X-131670Y51609D01*
X-131645Y51734D01*
X-125545D01*
X-125349Y51653D01*
X-124454Y52024D01*
X-124083Y52919D01*
X-124454Y53814D01*
X-124535Y53895D01*
X-125430Y54266D01*
X-131366D01*
X-131391Y54393D01*
X-131236Y54458D01*
X-128592Y57102D01*
X-128265Y57237D01*
X-128207Y57296D01*
X-127994Y57808D01*
X-128207Y58321D01*
X-128719Y58534D01*
X-129232Y58321D01*
X-129291Y58263D01*
X-129426Y57936D01*
X-131897Y55465D01*
X-159446D01*
X-162778Y58797D01*
X-163195Y58970D01*
X-164706D01*
X-164797Y59191D01*
X-165608Y59526D01*
D02*
G37*
G36*
Y48731D02*
X-166116D01*
X-166927Y48396D01*
X-167262Y47585D01*
X-166927Y46774D01*
X-166116Y46439D01*
X-165608D01*
X-164797Y46774D01*
X-164462Y47585D01*
X-164797Y48396D01*
X-165608Y48731D01*
D02*
G37*
G36*
X-25273Y57868D02*
X-35103D01*
X-35266Y57801D01*
X-36301D01*
Y56765D01*
X-36369Y56602D01*
X-36301Y56439D01*
Y55403D01*
X-35266D01*
X-35103Y55336D01*
X-25798D01*
X-17270Y46808D01*
Y46415D01*
X-16489D01*
X-16256Y46319D01*
X-15050D01*
X-14817Y46415D01*
X-12830D01*
Y48755D01*
X-14817D01*
X-15050Y48851D01*
X-15731D01*
X-24378Y57497D01*
X-25273Y57868D01*
D02*
G37*
G36*
X-123535Y48009D02*
X-124623D01*
X-125392Y47240D01*
Y46152D01*
X-124623Y45383D01*
X-123535D01*
X-122766Y46152D01*
Y47240D01*
X-123535Y48009D01*
D02*
G37*
G36*
X-99659Y47120D02*
X-100747D01*
X-101516Y46351D01*
Y45263D01*
X-100747Y44494D01*
X-99659D01*
X-98890Y45263D01*
Y46351D01*
X-99659Y47120D01*
D02*
G37*
G36*
X-23386Y44472D02*
X-23858D01*
X-23919Y44411D01*
X-62314D01*
X-62375Y44472D01*
X-62847D01*
X-63181Y44138D01*
Y43666D01*
X-62847Y43332D01*
X-62375D01*
X-62314Y43393D01*
X-23919D01*
X-23858Y43332D01*
X-23386D01*
X-23052Y43666D01*
Y44138D01*
X-23386Y44472D01*
D02*
G37*
G36*
X-119126Y53644D02*
X-119639Y53432D01*
X-119851Y52919D01*
X-119639Y52406D01*
X-115914Y48682D01*
Y44075D01*
X-116697Y43292D01*
X-116797Y43372D01*
Y44446D01*
X-117566Y45215D01*
X-118654D01*
X-119242Y44627D01*
X-129667D01*
X-130180Y44415D01*
X-130815Y43780D01*
X-131027Y43267D01*
Y40554D01*
X-132330Y39251D01*
X-153267D01*
X-154977Y40961D01*
Y41539D01*
X-154807Y41610D01*
X-154799Y41628D01*
X-154637Y41694D01*
X-154302Y42505D01*
X-154637Y43316D01*
X-154799Y43382D01*
X-154807Y43400D01*
X-155413Y43652D01*
X-155388Y43779D01*
X-152330D01*
Y39965D01*
X-152276Y39835D01*
X-152146Y39781D01*
X-132334D01*
X-132204Y39835D01*
X-132150Y39965D01*
Y50125D01*
X-132204Y50255D01*
X-132334Y50309D01*
X-152146D01*
X-152276Y50255D01*
X-152330Y50125D01*
Y46311D01*
X-155702D01*
X-156597Y45940D01*
X-156605Y45922D01*
X-156767Y45856D01*
X-157102Y45045D01*
X-156767Y44234D01*
X-156605Y44168D01*
X-156597Y44150D01*
X-155991Y43898D01*
X-156016Y43771D01*
X-159495D01*
X-161665Y45940D01*
X-162560Y46311D01*
X-169234D01*
Y50125D01*
X-169288Y50255D01*
X-169418Y50309D01*
X-189230D01*
X-189360Y50255D01*
X-189455Y50236D01*
X-189899Y50680D01*
X-190794Y51051D01*
X-195064D01*
X-195357Y50929D01*
X-195538D01*
X-195666Y50801D01*
X-195959Y50680D01*
X-196081Y50387D01*
X-196209Y50259D01*
Y50077D01*
X-196330Y49784D01*
X-196209Y49491D01*
Y49310D01*
X-196081Y49182D01*
X-195959Y48889D01*
X-195666Y48767D01*
X-195538Y48639D01*
X-195357D01*
X-195064Y48518D01*
X-191319D01*
X-189414Y46613D01*
Y39965D01*
X-189360Y39835D01*
X-189230Y39781D01*
X-169418D01*
X-169288Y39835D01*
X-169234Y39965D01*
Y43779D01*
X-163085D01*
X-160915Y41610D01*
X-160915Y41610D01*
X-160020Y41239D01*
X-160020Y41239D01*
X-156427D01*
Y40660D01*
X-156215Y40147D01*
X-154181Y38114D01*
X-154234Y37987D01*
X-158097D01*
X-163032Y42922D01*
X-163449Y43095D01*
X-164706D01*
X-164797Y43316D01*
X-165608Y43651D01*
X-166116D01*
X-166927Y43316D01*
X-167262Y42505D01*
X-166927Y41694D01*
X-166116Y41359D01*
X-165608D01*
X-164797Y41694D01*
X-164706Y41915D01*
X-163693D01*
X-158758Y36980D01*
X-158758Y36980D01*
X-158341Y36807D01*
X-158341Y36807D01*
X-156591D01*
X-156539Y36680D01*
X-162909Y30309D01*
X-169234D01*
Y34123D01*
X-169288Y34253D01*
X-169418Y34307D01*
X-189230D01*
X-189360Y34253D01*
X-189414Y34123D01*
Y27475D01*
X-192207Y24682D01*
X-195064D01*
X-195226Y24614D01*
X-195552D01*
X-196055Y24406D01*
X-196263Y23903D01*
Y23578D01*
X-196330Y23415D01*
X-196263Y23253D01*
Y22928D01*
X-196055Y22425D01*
X-195552Y22216D01*
X-195226D01*
X-195064Y22149D01*
X-191683D01*
X-190787Y22520D01*
X-189455Y23852D01*
X-189360Y23833D01*
X-189230Y23779D01*
X-169418D01*
X-169288Y23833D01*
X-169234Y23963D01*
Y27777D01*
X-163085D01*
X-160915Y25608D01*
X-160915Y25608D01*
X-160020Y25237D01*
X-160020Y25237D01*
X-155702D01*
X-154807Y25608D01*
X-154799Y25626D01*
X-154637Y25692D01*
X-154302Y26503D01*
X-154637Y27314D01*
X-154799Y27380D01*
X-154807Y27398D01*
X-155413Y27650D01*
X-155388Y27777D01*
X-152330D01*
Y23963D01*
X-152276Y23833D01*
X-152146Y23779D01*
X-132334D01*
X-132204Y23833D01*
X-132150Y23963D01*
Y34123D01*
X-132204Y34253D01*
X-132334Y34307D01*
X-152146D01*
X-152276Y34253D01*
X-152330Y34123D01*
Y30309D01*
X-155702D01*
X-156597Y29938D01*
X-156605Y29920D01*
X-156767Y29854D01*
X-157102Y29043D01*
X-156767Y28232D01*
X-156605Y28166D01*
X-156597Y28148D01*
X-155991Y27896D01*
X-156016Y27769D01*
X-159495D01*
X-161447Y29721D01*
X-155625Y35543D01*
X-154120D01*
X-154071Y35425D01*
X-155873Y33624D01*
X-156046Y33207D01*
Y32692D01*
X-156767Y32394D01*
X-157102Y31583D01*
X-156767Y30772D01*
X-155956Y30437D01*
X-155448D01*
X-154637Y30772D01*
X-154302Y31583D01*
X-154637Y32394D01*
X-154866Y32488D01*
Y32962D01*
X-153279Y34549D01*
X-131816D01*
X-128814Y31547D01*
X-128766Y31527D01*
X-128633Y31394D01*
X-128445D01*
X-128397Y31374D01*
X-128349Y31394D01*
X-128161D01*
X-128028Y31527D01*
X-127980Y31547D01*
X-127960Y31595D01*
X-127827Y31728D01*
Y31916D01*
X-127807Y31964D01*
X-127827Y32012D01*
Y32200D01*
X-127960Y32333D01*
X-127980Y32381D01*
X-131024Y35425D01*
X-130976Y35543D01*
X-126397D01*
X-118623Y27768D01*
X-118412Y27681D01*
X-118392Y27535D01*
X-118680Y27247D01*
Y26775D01*
X-118346Y26441D01*
X-117874D01*
X-117813Y26502D01*
X-117314D01*
X-116954Y26651D01*
X-114440Y29165D01*
X-114291Y29525D01*
Y33350D01*
X-114440Y33710D01*
X-115848Y35118D01*
X-116208Y35267D01*
X-118956D01*
Y35302D01*
X-119725Y36071D01*
X-120813D01*
X-121582Y35302D01*
Y34214D01*
X-120813Y33445D01*
X-119725D01*
X-118956Y34214D01*
Y34249D01*
X-118099D01*
X-118050Y34132D01*
X-118613Y33569D01*
Y32481D01*
X-117844Y31712D01*
X-116756D01*
X-115987Y32481D01*
Y33569D01*
X-116490Y34072D01*
X-116445Y34206D01*
X-116384Y34215D01*
X-115309Y33139D01*
Y29736D01*
X-117525Y27520D01*
X-117702D01*
X-117745Y27569D01*
X-117710Y27722D01*
X-117597Y27768D01*
X-117385Y28281D01*
X-117597Y28794D01*
X-125584Y36781D01*
X-126097Y36993D01*
X-130587D01*
X-130635Y37111D01*
X-128234Y39512D01*
X-128061Y39929D01*
Y42251D01*
X-128081Y42299D01*
Y42487D01*
X-128214Y42620D01*
X-128234Y42668D01*
X-128282Y42688D01*
X-128415Y42821D01*
X-128603D01*
X-128651Y42841D01*
X-128699Y42821D01*
X-128887D01*
X-129020Y42688D01*
X-129068Y42668D01*
X-129088Y42620D01*
X-129221Y42487D01*
Y42299D01*
X-129241Y42251D01*
Y40173D01*
X-129636Y39778D01*
X-129744Y39850D01*
X-129577Y40254D01*
Y42967D01*
X-129367Y43177D01*
X-119242D01*
X-118654Y42589D01*
X-117580D01*
X-117500Y42489D01*
X-119982Y40008D01*
X-121067D01*
X-121836Y39239D01*
Y38151D01*
X-121067Y37382D01*
X-119979D01*
X-119210Y38151D01*
Y38728D01*
X-114676Y43262D01*
X-114464Y43775D01*
Y48982D01*
X-114676Y49495D01*
X-118613Y53432D01*
X-119126Y53644D01*
D02*
G37*
G36*
X-94379Y73555D02*
X-94851D01*
X-95185Y73221D01*
Y73134D01*
X-99293Y69027D01*
X-99442Y68667D01*
Y60623D01*
X-103230Y56835D01*
X-103379Y56475D01*
Y45342D01*
X-103414D01*
X-104183Y44573D01*
Y43485D01*
X-103414Y42716D01*
X-102326D01*
X-101557Y43485D01*
Y44573D01*
X-102326Y45342D01*
X-102361D01*
Y56264D01*
X-98573Y60052D01*
X-98424Y60412D01*
Y68456D01*
X-94466Y72415D01*
X-94379D01*
X-94045Y72749D01*
Y73221D01*
X-94379Y73555D01*
D02*
G37*
G36*
X-114391Y42040D02*
X-115479D01*
X-116248Y41271D01*
Y40183D01*
X-115479Y39414D01*
X-114391D01*
X-113622Y40183D01*
Y41271D01*
X-114391Y42040D01*
D02*
G37*
G36*
X-86044Y44628D02*
X-86516D01*
X-86850Y44294D01*
Y44233D01*
X-92834Y38249D01*
X-92946D01*
X-93280Y37915D01*
Y37443D01*
X-92946Y37109D01*
X-92474D01*
X-92140Y37443D01*
Y37504D01*
X-86156Y43488D01*
X-86044D01*
X-85710Y43822D01*
Y44294D01*
X-86044Y44628D01*
D02*
G37*
G36*
X-165608Y32729D02*
X-166116D01*
X-166927Y32394D01*
X-167262Y31583D01*
X-166927Y30772D01*
X-166116Y30437D01*
X-165608D01*
X-164797Y30772D01*
X-164462Y31583D01*
X-164797Y32394D01*
X-165608Y32729D01*
D02*
G37*
G36*
X-123662Y32134D02*
X-124750D01*
X-125519Y31365D01*
Y30277D01*
X-124750Y29508D01*
X-123662D01*
X-122893Y30277D01*
Y31365D01*
X-123662Y32134D01*
D02*
G37*
G36*
X-46820Y31118D02*
X-49446D01*
Y28492D01*
X-46820D01*
Y28886D01*
X-46172D01*
Y30623D01*
X-46820D01*
Y31118D01*
D02*
G37*
G36*
X-54440D02*
X-57066D01*
Y30623D01*
X-57714D01*
Y30422D01*
X-58586D01*
X-59023Y30241D01*
X-59023Y30241D01*
X-59491Y29773D01*
X-59672Y29336D01*
X-59672Y29336D01*
Y7664D01*
X-60000Y7336D01*
Y6554D01*
X-59446Y6000D01*
X-58664D01*
X-58110Y6554D01*
Y7336D01*
X-58438Y7664D01*
Y29081D01*
X-58331Y29188D01*
X-57714D01*
Y28886D01*
X-57066D01*
Y28492D01*
X-54440D01*
Y31118D01*
D02*
G37*
G36*
X-72093D02*
X-74719D01*
Y30623D01*
X-75367D01*
Y28886D01*
X-74719D01*
Y28492D01*
X-72093D01*
Y31118D01*
D02*
G37*
G36*
X-89746D02*
X-92372D01*
Y30623D01*
X-93020D01*
Y28886D01*
X-92372D01*
Y28492D01*
X-89746D01*
Y31118D01*
D02*
G37*
G36*
X-77996Y54632D02*
X-78468D01*
X-78802Y54298D01*
Y53826D01*
X-78468Y53492D01*
X-78381D01*
X-65511Y40621D01*
X-65151Y40472D01*
X-50122D01*
X-39261Y29612D01*
X-39286Y29587D01*
Y28499D01*
X-38517Y27730D01*
X-37429D01*
X-36660Y28499D01*
Y29587D01*
X-37429Y30356D01*
X-38517D01*
X-38542Y30331D01*
X-49551Y41341D01*
X-49911Y41490D01*
X-64940D01*
X-77662Y54211D01*
Y54298D01*
X-77996Y54632D01*
D02*
G37*
G36*
X-21823Y27854D02*
X-22627D01*
X-23195Y27286D01*
Y26482D01*
X-22627Y25914D01*
X-21823D01*
X-21255Y26482D01*
Y27286D01*
X-21823Y27854D01*
D02*
G37*
G36*
X-41381D02*
X-42185D01*
X-42753Y27286D01*
Y26482D01*
X-42185Y25914D01*
X-41381D01*
X-40813Y26482D01*
Y27286D01*
X-41381Y27854D01*
D02*
G37*
G36*
X-123789Y28070D02*
X-124877D01*
X-125646Y27301D01*
Y26213D01*
X-124877Y25444D01*
X-123789D01*
X-123020Y26213D01*
Y27301D01*
X-123789Y28070D01*
D02*
G37*
G36*
X-24564Y34220D02*
X-25036D01*
X-25370Y33886D01*
Y33799D01*
X-29951Y29218D01*
X-30100Y28859D01*
Y23371D01*
X-30161Y23310D01*
Y22838D01*
X-29827Y22504D01*
X-29355D01*
X-29021Y22838D01*
Y23310D01*
X-29082Y23371D01*
Y28648D01*
X-24650Y33080D01*
X-24564D01*
X-24230Y33414D01*
Y33886D01*
X-24564Y34220D01*
D02*
G37*
G36*
X-165608Y27649D02*
X-166116D01*
X-166927Y27314D01*
X-167262Y26503D01*
X-166927Y25692D01*
X-166116Y25357D01*
X-165608D01*
X-164797Y25692D01*
X-164706Y25913D01*
X-163693D01*
X-160012Y22232D01*
X-160012Y22232D01*
X-159890Y22181D01*
X-159916Y22054D01*
X-160698D01*
X-160956Y22313D01*
X-162044D01*
X-162405Y21952D01*
X-162439Y21937D01*
X-162454Y21903D01*
X-162813Y21544D01*
Y20456D01*
X-162044Y19687D01*
X-161610D01*
X-161211Y19522D01*
X-153633D01*
X-153580Y19395D01*
X-155747Y17228D01*
X-155919Y16811D01*
Y16727D01*
X-155956D01*
X-156767Y16392D01*
X-157102Y15581D01*
X-156767Y14770D01*
X-155956Y14435D01*
X-155448D01*
X-154637Y14770D01*
X-154302Y15581D01*
X-154637Y16392D01*
X-154740Y16434D01*
Y16566D01*
X-152863Y18443D01*
X-131437D01*
X-129319Y16326D01*
Y16035D01*
X-129290Y15964D01*
Y15789D01*
X-129166Y15666D01*
X-129146Y15618D01*
X-129137Y15608D01*
X-129089Y15588D01*
X-128956Y15455D01*
X-128768D01*
X-128719Y15436D01*
X-128671Y15455D01*
X-128483D01*
X-128350Y15588D01*
X-128302Y15608D01*
X-128282Y15656D01*
X-128150Y15789D01*
Y15977D01*
X-128130Y16025D01*
X-128139Y16049D01*
Y16570D01*
X-128139Y16570D01*
X-128312Y16987D01*
X-128312Y16987D01*
X-130719Y19395D01*
X-130667Y19522D01*
X-125503D01*
X-124608Y19893D01*
X-124237Y20788D01*
X-124608Y21683D01*
X-125503Y22054D01*
X-131041D01*
X-131067Y22181D01*
X-130945Y22232D01*
X-128234Y24943D01*
X-128214Y24991D01*
X-128081Y25124D01*
Y25312D01*
X-128061Y25360D01*
X-128081Y25408D01*
Y25596D01*
X-128214Y25729D01*
X-128234Y25777D01*
X-128282Y25797D01*
X-128415Y25930D01*
X-128603D01*
X-128651Y25950D01*
X-128699Y25930D01*
X-128887D01*
X-129020Y25797D01*
X-129068Y25777D01*
X-131606Y23239D01*
X-159351D01*
X-163032Y26920D01*
X-163449Y27093D01*
X-164706D01*
X-164797Y27314D01*
X-165608Y27649D01*
D02*
G37*
G36*
X-27650Y19307D02*
X-28738D01*
X-29507Y18538D01*
Y17450D01*
X-28738Y16681D01*
X-27650D01*
X-26881Y17450D01*
Y18538D01*
X-27650Y19307D01*
D02*
G37*
G36*
X-38572D02*
X-39660D01*
X-40429Y18538D01*
Y17450D01*
X-39660Y16681D01*
X-38572D01*
X-37803Y17450D01*
Y18538D01*
X-38572Y19307D01*
D02*
G37*
G36*
X-165608Y16727D02*
X-166116D01*
X-166927Y16392D01*
X-167262Y15581D01*
X-166927Y14770D01*
X-166116Y14435D01*
X-165608D01*
X-164797Y14770D01*
X-164462Y15581D01*
X-164797Y16392D01*
X-165608Y16727D01*
D02*
G37*
G36*
X-123916Y16386D02*
X-125004D01*
X-125773Y15617D01*
Y14529D01*
X-125004Y13760D01*
X-123916D01*
X-123147Y14529D01*
Y15617D01*
X-123916Y16386D01*
D02*
G37*
G36*
X-13172Y19307D02*
X-14260D01*
X-15029Y18538D01*
Y17450D01*
X-14441Y16862D01*
Y14167D01*
X-14486Y14122D01*
Y13484D01*
X-14035Y13033D01*
X-13397D01*
X-12946Y13484D01*
Y14122D01*
X-12991Y14167D01*
Y16862D01*
X-12403Y17450D01*
Y18538D01*
X-13172Y19307D01*
D02*
G37*
G36*
X-20439Y14573D02*
X-21979D01*
Y13033D01*
X-20439D01*
Y14573D01*
D02*
G37*
G36*
X-23205Y19307D02*
X-24293D01*
X-25062Y18538D01*
Y17450D01*
X-24474Y16862D01*
Y14167D01*
X-24519Y14122D01*
Y13484D01*
X-24068Y13033D01*
X-23430D01*
X-22979Y13484D01*
Y14122D01*
X-23024Y14167D01*
Y16862D01*
X-22436Y17450D01*
Y18538D01*
X-23205Y19307D01*
D02*
G37*
G36*
X-30726Y14573D02*
X-32266D01*
Y13033D01*
X-30726D01*
Y14573D01*
D02*
G37*
G36*
X-33492Y19307D02*
X-34580D01*
X-35349Y18538D01*
Y17450D01*
X-34761Y16862D01*
Y14167D01*
X-34806Y14122D01*
Y13484D01*
X-34355Y13033D01*
X-33717D01*
X-33266Y13484D01*
Y14122D01*
X-33311Y14167D01*
Y16862D01*
X-32723Y17450D01*
Y18538D01*
X-33492Y19307D01*
D02*
G37*
G36*
X-40759Y14573D02*
X-42299D01*
Y13033D01*
X-40759D01*
Y14573D01*
D02*
G37*
G36*
X-43525Y19307D02*
X-44613D01*
X-45382Y18538D01*
Y17450D01*
X-44794Y16862D01*
Y14167D01*
X-44839Y14122D01*
Y13484D01*
X-44388Y13033D01*
X-43750D01*
X-43299Y13484D01*
Y14122D01*
X-43344Y14167D01*
Y16862D01*
X-42756Y17450D01*
Y18538D01*
X-43525Y19307D01*
D02*
G37*
G36*
X-99659Y15497D02*
X-100747D01*
X-101516Y14728D01*
Y13640D01*
X-100747Y12871D01*
X-99659D01*
X-98890Y13640D01*
Y14728D01*
X-99659Y15497D01*
D02*
G37*
G36*
X-77216Y15129D02*
X-77229Y15124D01*
X-77986D01*
Y13684D01*
X-77941D01*
Y12406D01*
X-77729Y11893D01*
X-77216Y11681D01*
X-76703Y11893D01*
X-76491Y12406D01*
Y13684D01*
X-76446D01*
Y15124D01*
X-77203D01*
X-77216Y15129D01*
D02*
G37*
G36*
X-79756D02*
X-79769Y15124D01*
X-80526D01*
Y13684D01*
X-80481D01*
Y12406D01*
X-80269Y11893D01*
X-79756Y11681D01*
X-79243Y11893D01*
X-79031Y12406D01*
Y13684D01*
X-78986D01*
Y15124D01*
X-79743D01*
X-79756Y15129D01*
D02*
G37*
G36*
X-82296D02*
X-82309Y15124D01*
X-83066D01*
Y13684D01*
X-83021D01*
Y12406D01*
X-82809Y11893D01*
X-82296Y11681D01*
X-81783Y11893D01*
X-81571Y12406D01*
Y13684D01*
X-81526D01*
Y15124D01*
X-82283D01*
X-82296Y15129D01*
D02*
G37*
G36*
X-114391Y10163D02*
X-115479D01*
X-116248Y9394D01*
Y8306D01*
X-115479Y7537D01*
X-114391D01*
X-113622Y8306D01*
Y9394D01*
X-114391Y10163D01*
D02*
G37*
G36*
X-14224Y7865D02*
X-14986D01*
X-15525Y7326D01*
Y6564D01*
X-14986Y6025D01*
X-14224D01*
X-13685Y6564D01*
Y7326D01*
X-14224Y7865D01*
D02*
G37*
G36*
X-22479D02*
X-23241D01*
X-23780Y7326D01*
Y6564D01*
X-23241Y6025D01*
X-22479D01*
X-21940Y6564D01*
Y7326D01*
X-22479Y7865D01*
D02*
G37*
G36*
X-34544D02*
X-35306D01*
X-35845Y7326D01*
Y6564D01*
X-35306Y6025D01*
X-34544D01*
X-34005Y6564D01*
Y7326D01*
X-34544Y7865D01*
D02*
G37*
G36*
X-42799D02*
X-43561D01*
X-44100Y7326D01*
Y6564D01*
X-43561Y6025D01*
X-42799D01*
X-42260Y6564D01*
Y7326D01*
X-42799Y7865D01*
D02*
G37*
G36*
X-52935Y33721D02*
X-87705D01*
X-88294Y33477D01*
X-88538Y32888D01*
X-88294Y32299D01*
X-87705Y32054D01*
X-53280D01*
X-53030Y31805D01*
Y24054D01*
X-54564Y22520D01*
X-54808Y21931D01*
Y7890D01*
X-54920D01*
Y6000D01*
X-53030D01*
Y7890D01*
X-53142D01*
Y21586D01*
X-51608Y23120D01*
X-51364Y23709D01*
Y32150D01*
X-51608Y32739D01*
X-52345Y33477D01*
X-52935Y33721D01*
D02*
G37*
G36*
X-64473Y31118D02*
X-67099D01*
Y28492D01*
X-64473D01*
Y28886D01*
X-63825D01*
Y29188D01*
X-62319D01*
X-62212Y29081D01*
Y7664D01*
X-62540Y7336D01*
Y6554D01*
X-61986Y6000D01*
X-61204D01*
X-60650Y6554D01*
Y7336D01*
X-60978Y7664D01*
Y29336D01*
X-61159Y29773D01*
X-61159Y29773D01*
X-61627Y30241D01*
X-62064Y30422D01*
X-62064Y30422D01*
X-63825D01*
Y30623D01*
X-64473D01*
Y31118D01*
D02*
G37*
G36*
X-82126D02*
X-84752D01*
Y28492D01*
X-82126D01*
Y28886D01*
X-81478D01*
Y29188D01*
X-81282D01*
X-79089Y26995D01*
X-79089Y26995D01*
X-78652Y26814D01*
X-78652Y26814D01*
X-72312D01*
X-64752Y19254D01*
Y7664D01*
X-65080Y7336D01*
Y6554D01*
X-64526Y6000D01*
X-63744D01*
X-63190Y6554D01*
Y7336D01*
X-63518Y7664D01*
Y19510D01*
X-63518Y19510D01*
X-63699Y19946D01*
X-63699Y19946D01*
X-71620Y27868D01*
X-72056Y28048D01*
X-72056Y28048D01*
X-78397D01*
X-80590Y30241D01*
X-81026Y30422D01*
X-81026Y30422D01*
X-81478D01*
Y30623D01*
X-82126D01*
Y31118D01*
D02*
G37*
G36*
X-76814Y7661D02*
X-77618D01*
X-78186Y7093D01*
Y6289D01*
X-77618Y5721D01*
X-76814D01*
X-76246Y6289D01*
Y7093D01*
X-76814Y7661D01*
D02*
G37*
G36*
X-75075Y14373D02*
X-75547D01*
X-75881Y14039D01*
Y13567D01*
X-75820Y13506D01*
Y10585D01*
X-76919Y9486D01*
X-79405D01*
X-79764Y9337D01*
X-80116Y8985D01*
X-80265Y8626D01*
Y7554D01*
X-80726Y7093D01*
Y6289D01*
X-80158Y5721D01*
X-79354D01*
X-78786Y6289D01*
Y7093D01*
X-79247Y7554D01*
Y8415D01*
X-79194Y8468D01*
X-76708D01*
X-76348Y8617D01*
X-74951Y10014D01*
X-74802Y10374D01*
Y13506D01*
X-74741Y13567D01*
Y14039D01*
X-75075Y14373D01*
D02*
G37*
G36*
X-81894Y7661D02*
X-82698D01*
X-83266Y7093D01*
Y6289D01*
X-82698Y5721D01*
X-81894D01*
X-81326Y6289D01*
Y7093D01*
X-81894Y7661D01*
D02*
G37*
G36*
X-28412Y8131D02*
X-29500D01*
X-30269Y7362D01*
Y6274D01*
X-29500Y5505D01*
X-28412D01*
X-27643Y6274D01*
Y7362D01*
X-28412Y8131D01*
D02*
G37*
G36*
X-48859D02*
X-49947D01*
X-50716Y7362D01*
Y6274D01*
X-50128Y5686D01*
Y4876D01*
X-55790D01*
Y6334D01*
X-55570Y6554D01*
Y7336D01*
X-56124Y7890D01*
X-56906D01*
X-57460Y7336D01*
Y6554D01*
X-57240Y6334D01*
Y4876D01*
X-73790D01*
X-73951Y5037D01*
Y6044D01*
X-73706Y6289D01*
Y7093D01*
X-74274Y7661D01*
X-75078D01*
X-75646Y7093D01*
Y6289D01*
X-75401Y6044D01*
Y4737D01*
X-75189Y4224D01*
X-74603Y3638D01*
X-74090Y3426D01*
X-12700D01*
X-12187Y3638D01*
X-11601Y4224D01*
X-11389Y4737D01*
Y6320D01*
X-11145Y6564D01*
Y7326D01*
X-11684Y7865D01*
X-12446D01*
X-12985Y7326D01*
Y6564D01*
X-12839Y6418D01*
Y5037D01*
X-13000Y4876D01*
X-19595D01*
Y6369D01*
X-19400Y6564D01*
Y7326D01*
X-19939Y7865D01*
X-20701D01*
X-21240Y7326D01*
Y6564D01*
X-21045Y6369D01*
Y4876D01*
X-31660D01*
Y6369D01*
X-31465Y6564D01*
Y7326D01*
X-32004Y7865D01*
X-32766D01*
X-33305Y7326D01*
Y6564D01*
X-33110Y6369D01*
Y4876D01*
X-39915D01*
Y6369D01*
X-39720Y6564D01*
Y7326D01*
X-40259Y7865D01*
X-41021D01*
X-41560Y7326D01*
Y6564D01*
X-41365Y6369D01*
Y4876D01*
X-48678D01*
Y5686D01*
X-48090Y6274D01*
Y7362D01*
X-48859Y8131D01*
D02*
G37*
G36*
X-4394Y8170D02*
X-6606D01*
X-8170Y6606D01*
Y4394D01*
X-6606Y2830D01*
X-4394D01*
X-2830Y4394D01*
Y6606D01*
X-4394Y8170D01*
D02*
G37*
G36*
X-193394D02*
X-195606D01*
X-197170Y6606D01*
Y4394D01*
X-195606Y2830D01*
X-193394D01*
X-191830Y4394D01*
Y6606D01*
X-193394Y8170D01*
D02*
G37*
%LPD*%
G36*
X-152330Y71842D02*
X-152276Y71712D01*
X-152146Y71658D01*
X-132348D01*
X-132319Y71622D01*
X-132286Y71541D01*
X-132529Y71297D01*
X-152986D01*
X-154858Y73169D01*
Y73480D01*
X-154637Y73571D01*
X-154302Y74382D01*
X-154637Y75193D01*
X-154736Y75233D01*
X-154807Y75404D01*
X-155112Y75531D01*
X-155087Y75656D01*
X-152330D01*
Y71842D01*
D02*
G37*
D10*
X-77089Y114073D02*
D03*
Y116225D02*
D03*
D11*
Y111500D02*
D03*
Y109400D02*
D03*
X-77216Y16504D02*
D03*
Y14404D02*
D03*
X-79756D02*
D03*
Y16504D02*
D03*
X-82296Y14404D02*
D03*
Y16504D02*
D03*
D12*
X-34798Y75956D02*
D03*
Y82206D02*
D03*
D13*
X-82702Y25284D02*
D03*
Y29754D02*
D03*
X-91796D02*
D03*
Y25284D02*
D03*
X-47396D02*
D03*
Y29754D02*
D03*
X-56490D02*
D03*
Y25284D02*
D03*
X-65049D02*
D03*
Y29754D02*
D03*
X-74143D02*
D03*
Y25284D02*
D03*
D14*
X-6350Y80732D02*
D03*
X-15050D02*
D03*
X-6350Y47585D02*
D03*
X-15050D02*
D03*
D15*
X-16129Y40334D02*
D03*
Y33234D02*
D03*
X-16383Y87723D02*
D03*
Y94823D02*
D03*
D16*
X-86306Y44058D02*
X-86280D01*
X-92684Y37679D02*
X-86306Y44058D01*
X-92710Y37679D02*
X-92684D01*
X-107823Y12533D02*
Y28281D01*
X-56134Y79761D02*
X-29382Y106513D01*
X-56134Y60616D02*
Y79761D01*
X-29382Y106513D02*
X-18161D01*
X-102870Y33869D02*
X-92959Y43780D01*
X-102870Y28154D02*
Y33869D01*
Y56475D02*
X-98933Y60412D01*
X-102870Y44029D02*
Y56475D01*
X-120000Y128025D02*
X-116475Y124500D01*
X-120000Y128025D02*
Y130000D01*
X-119253Y116673D02*
X-115837Y113257D01*
Y106627D02*
Y113257D01*
X-120269Y102195D02*
X-115837Y106627D01*
X-119980Y96331D02*
Y97980D01*
Y96331D02*
X-116350Y92701D01*
Y91243D02*
Y92701D01*
X-120000Y98000D02*
X-119980Y97980D01*
X-120269Y98385D02*
X-119778Y97894D01*
X-99369Y75906D02*
X-94745Y80530D01*
X-102489Y75906D02*
X-99369D01*
X-49911Y40981D02*
X-37973Y29043D01*
X-107823Y76287D02*
Y92162D01*
X-102870Y118495D02*
Y124166D01*
X-107823Y108291D02*
Y124039D01*
X-115316Y11677D02*
X-113502D01*
X-111056Y9231D01*
X-100244D01*
X-120269Y34758D02*
X-116208D01*
X-114800Y33350D01*
X-117314Y27011D02*
X-114800Y29525D01*
Y33350D01*
X-118110Y27011D02*
X-117314D01*
X-118110Y90892D02*
X-116701D01*
X-116350Y91243D01*
X-118110Y122769D02*
X-118072Y122731D01*
X-116826Y122725D02*
X-116475Y123076D01*
Y124500D01*
X-118072Y122731D02*
X-117418D01*
X-117412Y122725D01*
X-116826D01*
X-102870Y118495D02*
X-98254Y113879D01*
X-93853D01*
X-38989D02*
X-33655Y108545D01*
X-38989Y113879D02*
Y117308D01*
X-79248Y114006D02*
X-75184Y118070D01*
X-89375Y103375D02*
X-77978Y91978D01*
X-102870Y108164D02*
X-98081Y103375D01*
X-89375D01*
X-102870Y15327D02*
X-100584Y17613D01*
X-102870Y12279D02*
Y15327D01*
X-57189Y82111D02*
X-37910Y101390D01*
Y106675D01*
X-20228Y101976D02*
X-19224D01*
X-15494Y105706D02*
Y108799D01*
X-19224Y101976D02*
X-15494Y105706D01*
X-18669Y111974D02*
Y117435D01*
Y111974D02*
X-15494Y108799D01*
X-107823Y12533D02*
X-105410Y10120D01*
X-101080D01*
X-96774Y12701D02*
Y16089D01*
X-100244Y9231D02*
X-96774Y12701D01*
X-101080Y10120D02*
X-97790Y13410D01*
Y15708D01*
X-77978Y85050D02*
Y91978D01*
X-85325Y58675D02*
X-84800Y58150D01*
X-85325Y58675D02*
Y90096D01*
X-86250Y58100D02*
Y89921D01*
X-84925Y56775D02*
X-81665D01*
X-86250Y58100D02*
X-84925Y56775D01*
X-86450Y90121D02*
X-86250Y89921D01*
X-86450Y90121D02*
Y90175D01*
X-63853Y42378D02*
X-31750D01*
X-80000Y56900D02*
X-78375D01*
X-63853Y42378D01*
X-80825Y58025D02*
X-76850Y62000D01*
X-80825Y56295D02*
Y58025D01*
X-85852Y51268D02*
X-80825Y56295D01*
X-84059Y90130D02*
X-84030Y90101D01*
Y85079D02*
X-84000Y85050D01*
X-84030Y85079D02*
Y90101D01*
X-31750Y42378D02*
X-18415Y29043D01*
X-89675Y93725D02*
X-83225D01*
X-80518Y85050D02*
Y91018D01*
X-83225Y93725D02*
X-80518Y91018D01*
X-93853Y89547D02*
X-89675Y93725D01*
X-93853Y79172D02*
Y89547D01*
X-92964Y74361D02*
Y88886D01*
X-89325Y92525D01*
X-84050D01*
X-79375Y85050D02*
X-79350Y85075D01*
Y90125D01*
X-79325Y90150D01*
X-81643Y85068D02*
Y90132D01*
X-81661Y85050D02*
X-81643Y85068D01*
Y90132D02*
X-81625Y90150D01*
X-57189Y60811D02*
Y82111D01*
X-66572Y54697D02*
X-62053D01*
X-66600Y54725D02*
X-66572Y54697D01*
X-66567Y55967D02*
X-62033D01*
X-66600Y56000D02*
X-66567Y55967D01*
X-61528Y57872D02*
X-58293Y61107D01*
X-66675Y57872D02*
X-61528D01*
X-64450Y60375D02*
X-61800D01*
X-60325Y61850D01*
Y82750D01*
X-64500Y59150D02*
X-61575D01*
X-59309Y61416D01*
X-62033Y55967D02*
X-57189Y60811D01*
X-62053Y54697D02*
X-56134Y60616D01*
X-58293Y61107D02*
Y84843D01*
X-59309Y61416D02*
Y83907D01*
X-61825Y61875D02*
Y82105D01*
X-64516Y84796D02*
X-61825Y82105D01*
X-65240Y77775D02*
X-62702Y80313D01*
X-65240Y77468D02*
Y77775D01*
X-65278Y77430D02*
X-65240Y77468D01*
X-64934Y69011D02*
Y70027D01*
X-73152Y60793D02*
X-64934Y69011D01*
X-73152Y54316D02*
Y60793D01*
X-88225Y90121D02*
X-88213Y90108D01*
Y75262D02*
Y90108D01*
Y75262D02*
X-88200Y75250D01*
X-92075Y88225D02*
X-88850Y91450D01*
X-92075Y42886D02*
Y88225D01*
X-88850Y91450D02*
X-83800D01*
X-86500Y108925D02*
X-60325Y82750D01*
X-73313Y86100D02*
X-69376D01*
X-76200Y88987D02*
X-73313Y86100D01*
X-69376D02*
X-68072Y84796D01*
X-66840Y84834D02*
X-66802Y84796D01*
X-68936Y87336D02*
X-66840Y85240D01*
Y84834D02*
Y85240D01*
X-71882Y87336D02*
X-68936D01*
X-65824Y84834D02*
Y85596D01*
X-69177Y88949D02*
X-65824Y85596D01*
Y84834D02*
X-65786Y84796D01*
X-94900Y119498D02*
Y119550D01*
Y119498D02*
X-59309Y83907D01*
X-71247Y97797D02*
Y119213D01*
Y97797D02*
X-58293Y84843D01*
X-90678Y37679D02*
X-84900Y43457D01*
Y50506D01*
X-94820Y36155D02*
X-90520D01*
X-98298Y17613D02*
Y32677D01*
X-94820Y36155D01*
X-90520D02*
X-83185Y43490D01*
Y51268D01*
X-90027D02*
X-85852D01*
X-83800Y91450D02*
X-82931Y90581D01*
Y85050D02*
Y90581D01*
X-94745Y80530D02*
Y87182D01*
X-102870Y70155D02*
X-93853Y79172D01*
X-98933Y60412D02*
Y68667D01*
X-94615Y72985D01*
X-102870Y59904D02*
Y70155D01*
X-106172Y44283D02*
Y58888D01*
X-65151Y40981D02*
X-49911D01*
X-78232Y54062D02*
X-65151Y40981D01*
X-114800Y61375D02*
Y67025D01*
X-116000Y68225D02*
X-114800Y67025D01*
X-117287Y58888D02*
X-114800Y61375D01*
X-120269Y66889D02*
X-118933Y68225D01*
X-116000D01*
X-118110Y58888D02*
X-117287D01*
X-102997Y36409D02*
Y41108D01*
X-105537Y94448D02*
X-102870D01*
X-107823Y92162D02*
X-105537Y94448D01*
X-106172Y44283D02*
X-102997Y41108D01*
X-79248Y107275D02*
Y114006D01*
X-90827Y74233D02*
X-90805Y74255D01*
X-99314Y33742D02*
X-90827Y42229D01*
Y74233D01*
X-62611Y43902D02*
X-23622D01*
X-99314Y17232D02*
Y33742D01*
X-100584Y34377D02*
X-92075Y42886D01*
X-100584Y17613D02*
Y34377D01*
X-92959Y43780D02*
Y74356D01*
X-29591Y28859D02*
X-24800Y33650D01*
X-29591Y23074D02*
Y28859D01*
X-98298Y17613D02*
X-96774Y16089D01*
X-99314Y17232D02*
X-97790Y15708D01*
X-92964Y74361D02*
X-92959Y74356D01*
X-94845Y87282D02*
Y87336D01*
Y87282D02*
X-94745Y87182D01*
X-64262Y45426D02*
X-23622D01*
X-73152Y54316D02*
X-64262Y45426D01*
X-33655Y105624D02*
Y108545D01*
X-66040Y78192D02*
X-63157Y81075D01*
Y81583D01*
X-63119Y81621D01*
X-79405Y8977D02*
X-76708D01*
X-79756Y6691D02*
Y8626D01*
X-79405Y8977D01*
X-76708D02*
X-75311Y10374D01*
Y13803D01*
X-20245Y101958D02*
X-20228Y101976D01*
X-29591Y101941D02*
X-29574Y101958D01*
X-20245D01*
D17*
X-28829Y130643D02*
X-25273D01*
X-45602D02*
X-28829D01*
Y128738D02*
Y130643D01*
X-153488Y6564D02*
X-130888D01*
X-155520Y8596D02*
X-153488Y6564D01*
X-155520Y8596D02*
Y10319D01*
X-155702Y10501D02*
X-155520Y10319D01*
X-155583Y72869D02*
Y74263D01*
X-153286Y70572D02*
X-132229D01*
X-155702Y74382D02*
X-155583Y74263D01*
Y72869D02*
X-153286Y70572D01*
X-155702Y40660D02*
X-153568Y38526D01*
X-132030D01*
X-155702Y40660D02*
Y42505D01*
X-162560Y29633D02*
X-155925Y36268D01*
X-126097D01*
X-162560Y29043D02*
Y29633D01*
X-162052Y60412D02*
Y61678D01*
X-155416Y68314D02*
X-126266D01*
X-162052Y61678D02*
X-155416Y68314D01*
X-155661Y100064D02*
X-126012D01*
X-162560Y93165D02*
X-155661Y100064D01*
X-162560Y92924D02*
Y93165D01*
X-153139Y102322D02*
X-132278D01*
X-155636Y104819D02*
X-153139Y102322D01*
X-155702Y106386D02*
X-155636Y106320D01*
Y104819D02*
Y106320D01*
X-130302Y74287D02*
X-128722Y75867D01*
X-118325D01*
X-130302Y72499D02*
Y74287D01*
X-132229Y70572D02*
X-130302Y72499D01*
Y40254D02*
Y43267D01*
X-132030Y38526D02*
X-130302Y40254D01*
X-34036Y13803D02*
Y17994D01*
X-130302Y11312D02*
X-129716Y11898D01*
X-130302Y7150D02*
Y11312D01*
X-129716Y11898D02*
X-118110D01*
X-49149Y128865D02*
Y130643D01*
X-45720D01*
X-66802D02*
X-49149D01*
X-44031Y117651D02*
Y121715D01*
X-44069Y121753D02*
X-44031Y121715D01*
Y117651D02*
X-43942Y117562D01*
X-118325Y75867D02*
X-118110Y75652D01*
X-129200Y108000D02*
X-118000D01*
X-130400Y106800D02*
X-129200Y108000D01*
X-119921Y7072D02*
X-115316Y11677D01*
Y17105D01*
X-120269Y7072D02*
X-119921D01*
X-162560Y124801D02*
X-154686Y132675D01*
X-126746D01*
X-120261Y70945D02*
X-119805D01*
X-115316Y75434D01*
X-58500Y124420D02*
X-58318Y124602D01*
Y125584D02*
X-57655Y126247D01*
X-58318Y124602D02*
Y125584D01*
X-57655Y126247D02*
X-50292D01*
X-40640Y126833D02*
Y128784D01*
X-41226Y126247D02*
X-40640Y126833D01*
X-50292Y110877D02*
Y126247D01*
X-41226D01*
X-130302Y43267D02*
X-129667Y43902D01*
X-118110D01*
X-120269Y38695D02*
X-115189Y43775D01*
X-120523Y38695D02*
X-120269D01*
X-126097Y36268D02*
X-118110Y28281D01*
X-126012Y100064D02*
X-118110Y92162D01*
X-130400Y104200D02*
Y106800D01*
X-132278Y102322D02*
X-130400Y104200D01*
X-79121Y130643D02*
X-66802D01*
X-79121Y125690D02*
Y130643D01*
X-90297D02*
X-79121D01*
X-66802Y127214D02*
Y130643D01*
X-90297Y125736D02*
Y130643D01*
X-17145Y122642D02*
X-16129Y121626D01*
X-83439Y25233D02*
X-73406D01*
X-93564D02*
X-91059D01*
X-71307Y122007D02*
X-62959Y113659D01*
Y111152D02*
Y113659D01*
X-80010Y122007D02*
X-71307D01*
X-34036Y117689D02*
Y121753D01*
Y117689D02*
X-33953Y117606D01*
X-126746Y132675D02*
X-118110Y124039D01*
X-89850Y33450D02*
X-87350Y35950D01*
X-91675Y33450D02*
X-89850D01*
X-94150Y30975D02*
X-91675Y33450D01*
X-94150Y25819D02*
Y30975D01*
X-63119Y102830D02*
X-60664Y100375D01*
X-46524D02*
X-44069Y102830D01*
X-60664Y100375D02*
X-46524D01*
X-11176Y13803D02*
X-6350Y18629D01*
Y33441D01*
X-94150Y25819D02*
X-93564Y25233D01*
X-36576Y13803D02*
Y19137D01*
X-41783Y24344D02*
X-36576Y19137D01*
X-96266Y120307D02*
X-93599Y122974D01*
X-96266Y116723D02*
Y120307D01*
X-98679Y125690D02*
Y127221D01*
X-95257Y130643D01*
X-90297D01*
X-115316Y75434D02*
Y80986D01*
X-77089Y111500D02*
Y114073D01*
X-115189Y43775D02*
Y48982D01*
X-74090Y4151D02*
X-56515D01*
X-32385D02*
X-12700D01*
X-40640Y4271D02*
Y6818D01*
X-49403Y4151D02*
X-32385D01*
X-12114Y4737D02*
Y6896D01*
X-12700Y4151D02*
X-12114Y4737D01*
X-20320Y4237D02*
Y6945D01*
X-81661Y123658D02*
X-80010Y122007D01*
X-17145Y128738D02*
Y130389D01*
Y122642D02*
Y128738D01*
X-16156Y121160D02*
Y121653D01*
Y121160D02*
X-16129Y121133D01*
Y113371D02*
Y121133D01*
Y113371D02*
X-13462Y110704D01*
Y99401D02*
Y110704D01*
X-11167Y121689D02*
X-11113D01*
X-40948Y82206D02*
X-34798D01*
X-41534Y66254D02*
Y81620D01*
X-40948Y82206D01*
X-62992Y110877D02*
Y111119D01*
X-62959Y111152D01*
X-53340Y102830D02*
Y107324D01*
Y102830D02*
X-51689D01*
X-55499D02*
X-53340D01*
X-52754Y107910D02*
X-51181D01*
X-53340Y107324D02*
X-52754Y107910D01*
X-50292Y108799D02*
Y110877D01*
X-51181Y107910D02*
X-50292Y108799D01*
X-63056Y102894D02*
Y110813D01*
X-62992Y110877D01*
X-63119Y102830D02*
X-63056Y102894D01*
X-81661Y123658D02*
Y125690D01*
X-93599Y122974D02*
Y125690D01*
X-25273Y130643D02*
X-17399D01*
X-25400Y128738D02*
Y130516D01*
X-25273Y130643D01*
X-74676Y4737D02*
Y6691D01*
Y4737D02*
X-74090Y4151D01*
X-56515D02*
X-49403D01*
X-77216Y12406D02*
Y14404D01*
X-82296Y12406D02*
Y14404D01*
X-79756Y12406D02*
Y14404D01*
X-17399Y130643D02*
X-17145Y130389D01*
X-56515Y4151D02*
Y6945D01*
X-49403Y4151D02*
Y6818D01*
X-16256Y13803D02*
Y18375D01*
X-22225Y24344D02*
X-16256Y18375D01*
X-23749Y117562D02*
Y121748D01*
X-13716Y117562D02*
Y121753D01*
Y13803D02*
Y17994D01*
X-23749Y13803D02*
Y17994D01*
X-44069Y13803D02*
Y17994D01*
X-45720Y130643D02*
X-45720Y130643D01*
X-45720Y128784D02*
Y130643D01*
X-12114Y6896D02*
X-12065Y6945D01*
X-32385Y4151D02*
Y6818D01*
X-37465Y128784D02*
Y130516D01*
X-119253Y84923D02*
X-115316Y80986D01*
X-119126Y52919D02*
X-115189Y48982D01*
X-119253Y21042D02*
X-115316Y17105D01*
X-126266Y68314D02*
X-118110Y60158D01*
X-130888Y6564D02*
X-130302Y7150D01*
X-128778Y63831D02*
X-128725Y63778D01*
X-128778Y57750D02*
X-128719Y57808D01*
X-128780Y10120D02*
X-128778Y10118D01*
X-128704Y95782D02*
X-128651Y95835D01*
D18*
X-155340Y96832D02*
X-153237Y98935D01*
X-131858D01*
X-155575Y95464D02*
X-155340Y95699D01*
Y96832D01*
X-155702Y79462D02*
Y81058D01*
X-153571Y83189D01*
X-132197D01*
X-153461Y67185D02*
X-132132D01*
X-155702Y63460D02*
X-155643Y63519D01*
Y65003D01*
X-153461Y67185D01*
X-155657Y47630D02*
Y49142D01*
X-153614Y51185D01*
X-132070D01*
X-155702Y47585D02*
X-155657Y47630D01*
X-153524Y35139D02*
X-131572D01*
X-155456Y31829D02*
Y33207D01*
X-153524Y35139D01*
X-155702Y31583D02*
X-155456Y31829D01*
X-155702Y127341D02*
Y128958D01*
X-153382Y131278D01*
X-132334D01*
X-159258Y86447D02*
X-132461D01*
X-128778Y90130D01*
X-132197Y83189D02*
X-128725Y79716D01*
X-158256Y69443D02*
X-131263D01*
X-128651Y72055D02*
Y74128D01*
X-131263Y69443D02*
X-128651Y72055D01*
X-132132Y67185D02*
X-128725Y63778D01*
X-131653Y54875D02*
X-128778Y57750D01*
X-159690Y54875D02*
X-131653D01*
X-132070Y51185D02*
X-128725Y47839D01*
X-128651Y39929D02*
Y42251D01*
X-131183Y37397D02*
X-128651Y39929D01*
X-158341Y37397D02*
X-131183D01*
X-131572Y35139D02*
X-128397Y31964D01*
X-131362Y22649D02*
X-128651Y25360D01*
X-159595Y22649D02*
X-131362D01*
X-153107Y19033D02*
X-131192D01*
X-128729Y16035D02*
X-128719Y16025D01*
X-128729Y16035D02*
Y16570D01*
X-131192Y19033D02*
X-128729Y16570D01*
X-155702Y15581D02*
X-155330Y15953D01*
Y16811D01*
X-153107Y19033D01*
X-159490Y118429D02*
X-131976D01*
X-163322Y122261D02*
X-159490Y118429D01*
X-131976D02*
X-128621Y121784D01*
X-163195Y58380D02*
X-159690Y54875D01*
X-131332Y101193D02*
X-128787Y103738D01*
Y105878D01*
X-155504Y111664D02*
Y112871D01*
X-153226Y115149D02*
X-132070D01*
X-155702Y111466D02*
X-155504Y111664D01*
Y112871D02*
X-153226Y115149D01*
X-132334Y131278D02*
X-128651Y127595D01*
X-132070Y115149D02*
X-128691Y111770D01*
X-131858Y98935D02*
X-128704Y95782D01*
X-158129Y101193D02*
X-131332D01*
X-129584Y5435D02*
X-128778Y6241D01*
X-163576Y10501D02*
X-158510Y5435D01*
X-129584D01*
X-128778Y6241D02*
Y10118D01*
X-163449Y26503D02*
X-159595Y22649D01*
X-163449Y42505D02*
X-158341Y37397D01*
X-163322Y74509D02*
X-158256Y69443D01*
X-163195Y90384D02*
X-159258Y86447D01*
X-163322Y106386D02*
X-158129Y101193D01*
X-165862Y10501D02*
X-163576D01*
X-165862Y58380D02*
X-163195D01*
X-165862Y26503D02*
X-163449D01*
X-165862Y42505D02*
X-163449D01*
X-165862Y74509D02*
X-163322D01*
X-165862Y90384D02*
X-163195D01*
X-165862Y106386D02*
X-163322D01*
X-165862Y122261D02*
X-163322D01*
D19*
X-161500Y21000D02*
X-161423D01*
X-161211Y20788D01*
X-125503D01*
X-161500Y53000D02*
X-125430D01*
X-125349Y52919D01*
X-161500Y116800D02*
X-125453D01*
X-125376Y116723D01*
X-161500Y84923D02*
X-125376D01*
X-110025Y23075D02*
X-109925Y23175D01*
Y39175D01*
X-111275Y54950D02*
X-111225Y54900D01*
X-111275Y54950D02*
Y71250D01*
X-110025Y86937D02*
Y103025D01*
Y86937D02*
X-110008Y86920D01*
X-9804Y125723D02*
Y130795D01*
X-11557Y132548D02*
X-9804Y130795D01*
Y125723D02*
X-6330Y122249D01*
Y118314D02*
Y122249D01*
X-105410Y101433D02*
Y110821D01*
Y126833D01*
X-16383Y95591D02*
X-7493D01*
X-24638Y95718D02*
X-16383D01*
X-16100Y80732D02*
Y81034D01*
X-105156Y62823D02*
Y85558D01*
X-105650Y14960D02*
Y40205D01*
X-108000Y42555D02*
Y59979D01*
X-105156Y62823D01*
X-161544Y116800D02*
X-161500D01*
X-27543Y95956D02*
X-27035D01*
X-26797Y95718D02*
X-24638D01*
X-27559Y95972D02*
X-27543Y95956D01*
X-27035D02*
X-26797Y95718D01*
X-105410Y101433D02*
X-101502Y97525D01*
X-16129Y33441D02*
X-6350D01*
X-16383Y87723D02*
Y88723D01*
X-15658Y89448D02*
X-6350D01*
X-16383Y88723D02*
X-15658Y89448D01*
X-6350Y80732D02*
Y89448D01*
X-4512Y33488D02*
X-1270Y36730D01*
X-6017Y33488D02*
X-4512D01*
X-1270Y36730D02*
Y94845D01*
X-5826Y99401D02*
X-1270Y94845D01*
X-13462Y99401D02*
X-5826D01*
X-14654Y71421D02*
X-13091D01*
X-17750Y55500D02*
Y68325D01*
X-13091Y71421D02*
X-13080Y71432D01*
X-17750Y68325D02*
X-14654Y71421D01*
X-13080Y71432D02*
X-6350D01*
X-14915Y52665D02*
X-7522D01*
X-17750Y55500D02*
X-14915Y52665D01*
X-110025Y103025D02*
X-110008Y103008D01*
X-111275Y71250D02*
X-111250Y71225D01*
X-109982Y39118D02*
X-109925Y39175D01*
X-101502Y97525D02*
X-101500D01*
X-99949Y95974D01*
Y90765D02*
Y95974D01*
X-108000Y42555D02*
X-105650Y40205D01*
X-105664Y14946D02*
X-105650Y14960D01*
X-105156Y85558D02*
X-99949Y90765D01*
X-105410Y126833D02*
X-99695Y132548D01*
X-16383Y95591D02*
Y95718D01*
Y94823D02*
Y95591D01*
X-99695Y132548D02*
X-11557D01*
X-160020Y74509D02*
X-155702D01*
X-160020Y10501D02*
X-155702D01*
X-162052Y60412D02*
X-160020Y58380D01*
X-162560Y60920D02*
X-162052Y60412D01*
X-32639Y95972D02*
Y98004D01*
Y95514D02*
Y95972D01*
X-25273Y56602D02*
X-16256Y47585D01*
X-15050D01*
X-35103Y56602D02*
X-25273D01*
X-31242Y99401D02*
X-13462D01*
X-24638Y82206D02*
Y95718D01*
X-34798Y82206D02*
X-24638D01*
X-17272D01*
X-7493Y95591D02*
X-6350Y94448D01*
X-31890Y75583D02*
X-31048Y75657D01*
X-34975Y75081D02*
X-31890Y75583D01*
X-31923Y75956D02*
X-31048Y75657D01*
X-34798Y75956D02*
X-31923D01*
X-34975Y71432D02*
Y75081D01*
X-17272Y82206D02*
X-16100Y81034D01*
Y80732D02*
X-15050D01*
X-34975Y71432D02*
X-32541D01*
Y61301D02*
X-31369Y62473D01*
X-36068Y61301D02*
X-32541D01*
X-31369Y62473D02*
Y70260D01*
X-32541Y71432D02*
X-31369Y70260D01*
X-32639Y98004D02*
X-31242Y99401D01*
X-16129Y40334D02*
X-8243D01*
X-6350Y38441D01*
X-16129Y33234D02*
Y33441D01*
X-6350Y38441D02*
Y47585D01*
X-6064Y33441D02*
X-6017Y33488D01*
X-6350Y33441D02*
X-6064D01*
X-6350Y71432D02*
Y80732D01*
X-161544Y21042D02*
X-161522Y21020D01*
X-160020Y106386D02*
X-155702D01*
X-160020Y42505D02*
X-155702D01*
X-162560Y124801D02*
X-160020Y122261D01*
X-162560Y108926D02*
X-160020Y106386D01*
X-165862Y108926D02*
X-162560D01*
X-186055D02*
X-165862D01*
X-6350Y53837D02*
Y56428D01*
Y47585D02*
Y53837D01*
X-7522Y52665D02*
X-6350Y53837D01*
X-191429Y18415D02*
X-186055Y13041D01*
X-195064Y18415D02*
X-191429D01*
X-195064Y23415D02*
X-191683D01*
X-186055Y29043D01*
X-190794Y49784D02*
X-186055Y45045D01*
X-195064Y49784D02*
X-190794D01*
X-195064Y54784D02*
X-192191D01*
X-186055Y60920D01*
X-186055D02*
X-165862D01*
X-195072Y82383D02*
X-191389D01*
X-186055Y77049D01*
X-191596Y87383D02*
X-186055Y92924D01*
X-195072Y87383D02*
X-191596D01*
X-195064Y114300D02*
X-191429D01*
X-186055Y108926D01*
X-191556Y119300D02*
X-186055Y124801D01*
X-195064Y119300D02*
X-191556D01*
X-155575Y92924D02*
X-135382D01*
X-165862Y13041D02*
X-162560D01*
X-160020Y10501D01*
X-165862Y124801D02*
X-162560D01*
X-160020Y122261D02*
X-155702D01*
X-165862Y92924D02*
X-162560D01*
X-160020Y90384D01*
X-155702D01*
X-165862Y77049D02*
X-162560D01*
X-160020Y74509D01*
X-165862Y60920D02*
X-162560D01*
X-160020Y58380D02*
X-155702D01*
X-165862Y45045D02*
X-162560D01*
X-160020Y42505D01*
Y26503D02*
X-155702D01*
X-162560Y29043D02*
X-160020Y26503D01*
X-165862Y29043D02*
X-162560D01*
X-186055Y13041D02*
X-165862D01*
X-186055Y29043D02*
X-165862D01*
X-186055Y45045D02*
X-165862D01*
X-186055Y77049D02*
X-165862D01*
X-186055Y92924D02*
X-165862D01*
X-186055Y124801D02*
X-165862D01*
X-155702Y13041D02*
X-135509D01*
X-155702Y29043D02*
X-135509D01*
X-155702Y45045D02*
X-135509D01*
X-155702Y60920D02*
X-135509D01*
X-155702Y76922D02*
X-135509D01*
X-155702Y108926D02*
X-135509D01*
X-155702Y124801D02*
X-135509D01*
X-14097Y57507D02*
Y62571D01*
X-12954Y61428D02*
X-6350D01*
X-14097Y62571D02*
X-12954Y61428D01*
X-14097Y57507D02*
X-13208Y56618D01*
Y56602D02*
Y56618D01*
X-12736Y66432D02*
X-6350D01*
X-14097Y65071D02*
X-12736Y66432D01*
D20*
X-64135Y6945D02*
Y19510D01*
X-72056Y27431D02*
X-64135Y19510D01*
X-78652Y27431D02*
X-72056D01*
X-83439Y29805D02*
X-81026D01*
X-78652Y27431D01*
X-83439Y29805D02*
Y29805D01*
X-22225Y111339D02*
X-21209Y112355D01*
Y121748D01*
X-65786Y29805D02*
X-62064D01*
X-58586D02*
X-55753D01*
X-61595Y6945D02*
Y29336D01*
X-62064Y29805D02*
X-61595Y29336D01*
X-59055D02*
X-58586Y29805D01*
X-59055Y6945D02*
Y29336D01*
X-41529Y112154D02*
Y121753D01*
X-41783Y111334D02*
X-41630Y111487D01*
Y112053D02*
X-41529Y112154D01*
X-41630Y111487D02*
Y112053D01*
D21*
X-87705Y32888D02*
X-54067D01*
X-66675Y6945D02*
Y10600D01*
X-72579Y16504D02*
X-66675Y10600D01*
X-77216Y16504D02*
X-72579D01*
X-79756D02*
X-77216D01*
X-54067Y32888D02*
X-52935D01*
X-52197Y32150D01*
X-84836Y6691D02*
X-84802Y6725D01*
X-82296Y16504D02*
X-79756D01*
X-52197Y23709D02*
Y32150D01*
X-53975Y21931D02*
X-52197Y23709D01*
X-53975Y6945D02*
Y21931D01*
D22*
X-142240Y45045D02*
D03*
Y29043D02*
D03*
Y13041D02*
D03*
Y60920D02*
D03*
Y76922D02*
D03*
X-142113Y92924D02*
D03*
X-142240Y108926D02*
D03*
X-179324Y13041D02*
D03*
Y29043D02*
D03*
Y45045D02*
D03*
Y60920D02*
D03*
Y77049D02*
D03*
Y92924D02*
D03*
Y108926D02*
D03*
X-142240Y124801D02*
D03*
X-179324D02*
D03*
D23*
X-96266Y116723D02*
D03*
Y84923D02*
D03*
X-96393Y20788D02*
D03*
X-53975Y6945D02*
D03*
X-62992Y110877D02*
D03*
X-63119Y102830D02*
D03*
X-44069D02*
D03*
X-81661Y125690D02*
D03*
X-96239Y52919D02*
D03*
D24*
X-125376Y116723D02*
D03*
Y84923D02*
D03*
X-125503Y20788D02*
D03*
X-66675Y6945D02*
D03*
X-64135D02*
D03*
X-61595D02*
D03*
X-59055D02*
D03*
X-56515D02*
D03*
X-60452Y110877D02*
D03*
X-57912D02*
D03*
X-55372D02*
D03*
X-52832D02*
D03*
X-50292Y110877D02*
D03*
X-55499Y102830D02*
D03*
X-58039D02*
D03*
X-60579D02*
D03*
X-51689D02*
D03*
X-49149D02*
D03*
X-46609D02*
D03*
X-79121Y125690D02*
D03*
X-76581D02*
D03*
X-74041D02*
D03*
X-71501D02*
D03*
X-68961D02*
D03*
X-125349Y52919D02*
D03*
D25*
X-124460Y15073D02*
D03*
X-118000Y108000D02*
D03*
X-118110Y43902D02*
D03*
X-102923Y91956D02*
D03*
X-114935Y8850D02*
D03*
X-100203Y109815D02*
D03*
X-102870Y108164D02*
D03*
X-43942Y117562D02*
D03*
X-38989Y117308D02*
D03*
X-33953Y117606D02*
D03*
X-23749Y117562D02*
D03*
X-18669Y117435D02*
D03*
X-13716Y117562D02*
D03*
X-49403Y6818D02*
D03*
X-28956D02*
D03*
X-37973Y29043D02*
D03*
X-34036Y17994D02*
D03*
X-39116D02*
D03*
X-44069D02*
D03*
X-28194D02*
D03*
X-23749D02*
D03*
X-13716D02*
D03*
X-18415Y29043D02*
D03*
X-36068Y61301D02*
D03*
X-36195Y66762D02*
D03*
X-18161Y106513D02*
D03*
X-37910Y106675D02*
D03*
X-49149Y128865D02*
D03*
X-28829Y128738D02*
D03*
X-124460Y123277D02*
D03*
X-120000Y130000D02*
D03*
X-117348Y128992D02*
D03*
X-102870Y124166D02*
D03*
X-124500Y110500D02*
D03*
X-115062Y104608D02*
D03*
X-120269Y102195D02*
D03*
X-120000Y98000D02*
D03*
X-117000Y97000D02*
D03*
X-124460Y94500D02*
D03*
X-124500Y91000D02*
D03*
X-102489Y75906D02*
D03*
X-100330Y78065D02*
D03*
X-124841Y78319D02*
D03*
X-118110Y75652D02*
D03*
X-114935Y72985D02*
D03*
X-120269Y70699D02*
D03*
Y66889D02*
D03*
X-116997Y65965D02*
D03*
X-124079Y62190D02*
D03*
Y59269D02*
D03*
Y46696D02*
D03*
X-114935Y40727D02*
D03*
X-120523Y38695D02*
D03*
X-120269Y34758D02*
D03*
X-117300Y33025D02*
D03*
X-124206Y30821D02*
D03*
X-124333Y26757D02*
D03*
X-100203Y45807D02*
D03*
X-102870Y44029D02*
D03*
Y28154D02*
D03*
Y12279D02*
D03*
X-100203Y14184D02*
D03*
X-120269Y7072D02*
D03*
X-118110Y11898D02*
D03*
X-124460Y126000D02*
D03*
X-161500Y21000D02*
D03*
Y84923D02*
D03*
X-102870Y59904D02*
D03*
X-161500Y53000D02*
D03*
Y116800D02*
D03*
D26*
X-155702Y42505D02*
D03*
Y45045D02*
D03*
Y47585D02*
D03*
Y31583D02*
D03*
Y29043D02*
D03*
Y26503D02*
D03*
Y15581D02*
D03*
Y13041D02*
D03*
Y10501D02*
D03*
Y63460D02*
D03*
Y60920D02*
D03*
Y58380D02*
D03*
Y79462D02*
D03*
Y76922D02*
D03*
Y74382D02*
D03*
X-155575Y95464D02*
D03*
Y92924D02*
D03*
Y90384D02*
D03*
X-155702Y111466D02*
D03*
Y108926D02*
D03*
Y106386D02*
D03*
X-165862Y10501D02*
D03*
Y13041D02*
D03*
Y15581D02*
D03*
Y26503D02*
D03*
Y29043D02*
D03*
Y31583D02*
D03*
Y42505D02*
D03*
Y45045D02*
D03*
Y47585D02*
D03*
Y58380D02*
D03*
Y60920D02*
D03*
Y63460D02*
D03*
Y74509D02*
D03*
Y77049D02*
D03*
Y79589D02*
D03*
Y90384D02*
D03*
Y92924D02*
D03*
Y95464D02*
D03*
Y106386D02*
D03*
Y108926D02*
D03*
Y111466D02*
D03*
X-155702Y127341D02*
D03*
Y124801D02*
D03*
Y122261D02*
D03*
X-165862D02*
D03*
Y124801D02*
D03*
Y127341D02*
D03*
D27*
X-135509Y45045D02*
D03*
Y29043D02*
D03*
Y13041D02*
D03*
Y60920D02*
D03*
Y76922D02*
D03*
X-135382Y92924D02*
D03*
X-135509Y108926D02*
D03*
X-186055Y13041D02*
D03*
Y29043D02*
D03*
Y45045D02*
D03*
Y60920D02*
D03*
Y77049D02*
D03*
Y92924D02*
D03*
Y108926D02*
D03*
X-135509Y124801D02*
D03*
X-186055D02*
D03*
D28*
X-29972Y90511D02*
D03*
X-73152Y80732D02*
D03*
Y60793D02*
D03*
D29*
X-32639Y95972D02*
D03*
X-30099D02*
D03*
X-27559D02*
D03*
D30*
X-79756Y6691D02*
D03*
X-82296D02*
D03*
X-77216D02*
D03*
X-74676D02*
D03*
X-22225Y24344D02*
D03*
Y26884D02*
D03*
X-41783Y24344D02*
D03*
Y26884D02*
D03*
Y111334D02*
D03*
Y108794D02*
D03*
X-22225Y108799D02*
D03*
Y111339D02*
D03*
D31*
X-84836Y6691D02*
D03*
D32*
X-91059Y25233D02*
D03*
Y29805D02*
D03*
X-83439D02*
D03*
Y25233D02*
D03*
X-55753D02*
D03*
Y29805D02*
D03*
X-48133D02*
D03*
Y25233D02*
D03*
X-73406D02*
D03*
Y29805D02*
D03*
X-65786D02*
D03*
Y25233D02*
D03*
D33*
X-16256Y121753D02*
D03*
X-26289Y121748D02*
D03*
X-36576Y121753D02*
D03*
X-46609D02*
D03*
X-21209Y13803D02*
D03*
X-11176D02*
D03*
X-31496D02*
D03*
X-41529D02*
D03*
D34*
X-13716Y121753D02*
D03*
X-11176D02*
D03*
X-23749Y121748D02*
D03*
X-21209D02*
D03*
X-34036Y121753D02*
D03*
X-31496D02*
D03*
X-44069D02*
D03*
X-41529D02*
D03*
X-26289Y13803D02*
D03*
X-23749D02*
D03*
X-16256D02*
D03*
X-13716D02*
D03*
X-36576D02*
D03*
X-34036D02*
D03*
X-46609D02*
D03*
X-44069D02*
D03*
X-41534Y63714D02*
D03*
Y61174D02*
D03*
D35*
X-6350Y66432D02*
D03*
Y56428D02*
D03*
Y33441D02*
D03*
Y89448D02*
D03*
X-195064Y119300D02*
D03*
X-195072Y87383D02*
D03*
X-195064Y54784D02*
D03*
Y23415D02*
D03*
D36*
X-6350Y71432D02*
D03*
Y61428D02*
D03*
Y38441D02*
D03*
Y94448D02*
D03*
X-63500Y124420D02*
D03*
X-58500D02*
D03*
X-195064Y114300D02*
D03*
X-195072Y82383D02*
D03*
X-195064Y49784D02*
D03*
Y18415D02*
D03*
D37*
X-34975Y71432D02*
D03*
X-35103Y56602D02*
D03*
D38*
X-13080Y71432D02*
D03*
X-13208Y56602D02*
D03*
D39*
X-12065Y6945D02*
D03*
X-14605D02*
D03*
X-20320D02*
D03*
X-22860D02*
D03*
X-40640D02*
D03*
X-43180D02*
D03*
X-32385D02*
D03*
X-34925D02*
D03*
X-14605Y128738D02*
D03*
X-17145D02*
D03*
X-22860D02*
D03*
X-25400D02*
D03*
X-34925Y128784D02*
D03*
X-37465D02*
D03*
X-43180D02*
D03*
X-45720D02*
D03*
X-90297Y125736D02*
D03*
X-87757D02*
D03*
X-98679Y125690D02*
D03*
X-96139D02*
D03*
D40*
X-17145Y6945D02*
D03*
X-25400D02*
D03*
X-45720D02*
D03*
X-37465D02*
D03*
X-12065Y128738D02*
D03*
X-20320D02*
D03*
X-32385Y128784D02*
D03*
X-40640D02*
D03*
X-85217Y125736D02*
D03*
X-93599Y125690D02*
D03*
D41*
X-14097Y65071D02*
D03*
Y62571D02*
D03*
D42*
X-53500Y124420D02*
D03*
D43*
X-41534Y66254D02*
D03*
D44*
X-5500Y129500D02*
D03*
X-194500D02*
D03*
X-5500Y5500D02*
D03*
X-194500D02*
D03*
D45*
X-125376Y116723D02*
D03*
Y84923D02*
D03*
X-110178Y112644D02*
D03*
X-6330Y118314D02*
D03*
X-36195Y66762D02*
D03*
X-36068Y61301D02*
D03*
X-44069Y17994D02*
D03*
X-39116D02*
D03*
X-34082Y18040D02*
D03*
X-23749Y17994D02*
D03*
X-28194D02*
D03*
X-49149Y128865D02*
D03*
X-28829Y128738D02*
D03*
X-13716Y121753D02*
D03*
X-11176D02*
D03*
X-16256D02*
D03*
X-21209Y121775D02*
D03*
X-23749Y121748D02*
D03*
X-26289D02*
D03*
X-31496D02*
D03*
X-34036Y121753D02*
D03*
X-36576D02*
D03*
X-41529Y121807D02*
D03*
X-46609Y121753D02*
D03*
X-37910Y106675D02*
D03*
X-22225Y111339D02*
D03*
Y108799D02*
D03*
X-18161Y106513D02*
D03*
X-13716Y117562D02*
D03*
X-18669Y117435D02*
D03*
X-23749Y117562D02*
D03*
X-33934Y117587D02*
D03*
X-38989Y117308D02*
D03*
X-44069Y121753D02*
D03*
X-43942Y117562D02*
D03*
X-161500Y21000D02*
D03*
Y53000D02*
D03*
Y84923D02*
D03*
Y116800D02*
D03*
X-102870Y124166D02*
D03*
X-100203Y109815D02*
D03*
X-102870Y108164D02*
D03*
X-102923Y91956D02*
D03*
X-124079Y46696D02*
D03*
X-118110Y43902D02*
D03*
X-120434Y38695D02*
D03*
X-102870Y28154D02*
D03*
X-120269Y34758D02*
D03*
X-117300Y33025D02*
D03*
X-124206Y30821D02*
D03*
X-124333Y26757D02*
D03*
X-100203Y14184D02*
D03*
X-102870Y12279D02*
D03*
X-124460Y15073D02*
D03*
X-118110Y11898D02*
D03*
X-114935Y8850D02*
D03*
X-120269Y7072D02*
D03*
X-64135Y6945D02*
D03*
X-66675D02*
D03*
X-61595D02*
D03*
X-59055D02*
D03*
X-56515D02*
D03*
X-53975D02*
D03*
X-49403Y6818D02*
D03*
X-45720Y6945D02*
D03*
X-43180D02*
D03*
X-40640D02*
D03*
X-37465D02*
D03*
X-34925D02*
D03*
X-32385D02*
D03*
X-28956Y6818D02*
D03*
X-25400Y6945D02*
D03*
X-22860D02*
D03*
X-20320D02*
D03*
X-17145D02*
D03*
X-14605D02*
D03*
X-12065D02*
D03*
X-13716Y17994D02*
D03*
X-18415Y29043D02*
D03*
X-22225Y26884D02*
D03*
Y24344D02*
D03*
X-37973Y29043D02*
D03*
X-41783Y26884D02*
D03*
Y24344D02*
D03*
X-48133Y25233D02*
D03*
Y29805D02*
D03*
X-55753Y25233D02*
D03*
Y29805D02*
D03*
X-65786Y25233D02*
D03*
Y29805D02*
D03*
X-73406D02*
D03*
Y25233D02*
D03*
X-83439D02*
D03*
X-91059D02*
D03*
Y29805D02*
D03*
X-83439D02*
D03*
X-114935Y40727D02*
D03*
X-102870Y44029D02*
D03*
X-100203Y45807D02*
D03*
X-102870Y59967D02*
D03*
X-100330Y78065D02*
D03*
X-102489Y75906D02*
D03*
X-125349Y52919D02*
D03*
X-124079Y62190D02*
D03*
Y59269D02*
D03*
X-114935Y72985D02*
D03*
X-117025Y65937D02*
D03*
X-120269Y66889D02*
D03*
Y70699D02*
D03*
X-118110Y75652D02*
D03*
X-124841Y78319D02*
D03*
X-120000Y130000D02*
D03*
X-117348Y128992D02*
D03*
X-124460Y126000D02*
D03*
Y123277D02*
D03*
X-124500Y110500D02*
D03*
X-118000Y108000D02*
D03*
X-115062Y104608D02*
D03*
X-117000Y97000D02*
D03*
X-120269Y102195D02*
D03*
X-120000Y98000D02*
D03*
X-124460Y94500D02*
D03*
X-124500Y91000D02*
D03*
X-117348Y128992D02*
D03*
X-124460Y126000D02*
D03*
X-120000Y130000D02*
D03*
D46*
X-86280Y44058D02*
D03*
X-105111Y110821D02*
D03*
X-105369Y126566D02*
D03*
X-105149Y78929D02*
D03*
X-104822Y62589D02*
D03*
X-105289Y30819D02*
D03*
X-107823Y92162D02*
D03*
Y124039D02*
D03*
X-118110Y28281D02*
D03*
Y92162D02*
D03*
X-128787Y105878D02*
D03*
X-118110Y124039D02*
D03*
X-87350Y35950D02*
D03*
X-80000Y56900D02*
D03*
X-81665Y56775D02*
D03*
X-84800Y58150D02*
D03*
X-84000Y85050D02*
D03*
X-84050Y92525D02*
D03*
X-79325Y90150D02*
D03*
X-81625D02*
D03*
X-66600Y54725D02*
D03*
Y56000D02*
D03*
X-64500Y59150D02*
D03*
X-64450Y60375D02*
D03*
X-61825Y61875D02*
D03*
X-62664Y80351D02*
D03*
X-88200Y75250D02*
D03*
X-94900Y119550D02*
D03*
X-86500Y108925D02*
D03*
X-87705Y32888D02*
D03*
X-84900Y50506D02*
D03*
X-83185Y51268D02*
D03*
X-88225Y90175D02*
D03*
X-86450D02*
D03*
X-85325Y90150D02*
D03*
X-76850Y62000D02*
D03*
X-78232Y54062D02*
D03*
X-101500Y97525D02*
D03*
X-107793Y47081D02*
D03*
X-102997Y36409D02*
D03*
X-102870Y94448D02*
D03*
X-105664Y14946D02*
D03*
X-106172Y58888D02*
D03*
Y44283D02*
D03*
X-71882Y87336D02*
D03*
X-69215Y88987D02*
D03*
X-76200D02*
D03*
X-79248Y107275D02*
D03*
X-90805Y74255D02*
D03*
X-90027Y51268D02*
D03*
X-62611Y43902D02*
D03*
X-92710Y37679D02*
D03*
X-94615Y72985D02*
D03*
X-84059Y90130D02*
D03*
X-94845Y87336D02*
D03*
X-82931Y85050D02*
D03*
X-79375D02*
D03*
X-81661D02*
D03*
X-80518D02*
D03*
X-77978D02*
D03*
X-90678Y37679D02*
D03*
X-65278Y77430D02*
D03*
X-66040Y78192D02*
D03*
X-64516Y84796D02*
D03*
X-68072D02*
D03*
X-66802D02*
D03*
X-33655Y105624D02*
D03*
X-63119Y81621D02*
D03*
X-65786Y84796D02*
D03*
X-93853Y113879D02*
D03*
X-75184Y118070D02*
D03*
X-66675Y57872D02*
D03*
X-71247Y119213D02*
D03*
X-75311Y13803D02*
D03*
X-23622Y43902D02*
D03*
Y45426D02*
D03*
X-54067Y32888D02*
D03*
X-71085D02*
D03*
X-64897Y70064D02*
D03*
X-74930Y70572D02*
D03*
X-72644Y71588D02*
D03*
X-71628Y72604D02*
D03*
X-73533Y73239D02*
D03*
X-66802Y127214D02*
D03*
X-77216Y12406D02*
D03*
X-82296D02*
D03*
X-79756D02*
D03*
X-29591Y101941D02*
D03*
X-20228Y101976D02*
D03*
X-29591Y23074D02*
D03*
X-24800Y33650D02*
D03*
X-119253Y21042D02*
D03*
X-119126Y52919D02*
D03*
X-119253Y84923D02*
D03*
Y116673D02*
D03*
X-107823Y108291D02*
D03*
Y76287D02*
D03*
Y12533D02*
D03*
Y28281D02*
D03*
X-118110Y27011D02*
D03*
Y58888D02*
D03*
Y90892D02*
D03*
Y122769D02*
D03*
Y60158D02*
D03*
X-128397Y31964D02*
D03*
X-128651Y25360D02*
D03*
Y42251D02*
D03*
X-128780Y10120D02*
D03*
X-128719Y16025D02*
D03*
X-128651Y127595D02*
D03*
X-128621Y121784D02*
D03*
X-128691Y111770D02*
D03*
X-128704Y95782D02*
D03*
X-128778Y90130D02*
D03*
X-128725Y79716D02*
D03*
X-128651Y74128D02*
D03*
X-128725Y63778D02*
D03*
X-128719Y57808D02*
D03*
X-128725Y47839D02*
D03*
D47*
X-110025Y103025D02*
D03*
X-111275Y71250D02*
D03*
X-110025Y23075D02*
D03*
X-110008Y86920D02*
D03*
X-109925Y39175D02*
D03*
X-111225Y54900D02*
D03*
%TF.MD5,913082a9306a0409317730c49e4b552e*%
M02*
