%TF.GenerationSoftware,Altium Limited,Altium Designer,21.6.4 (81)*%
G04 Layer_Color=16711935*
%FSLAX43Y43*%
%MOMM*%
%TF.SameCoordinates,95A2699C-722C-4572-8EE5-7BEA9F810E30*%
%TF.FilePolarity,Positive*%
%TF.FileFunction,Other,Top_Courtyard*%
%TF.Part,Single*%
G01*
G75*
%TA.AperFunction,NonConductor*%
%ADD94C,0.200*%
%ADD138C,0.050*%
D94*
X-126251Y111373D02*
X-95391D01*
X-126251D02*
Y122073D01*
X-95391D01*
Y111373D02*
Y122073D01*
X-126251Y79573D02*
X-95391D01*
X-126251D02*
Y90273D01*
X-95391D01*
Y79573D02*
Y90273D01*
X-126378Y15438D02*
X-95518D01*
X-126378D02*
Y26138D01*
X-95518D01*
Y15438D02*
Y26138D01*
X-11629Y30984D02*
Y42584D01*
X-20629Y30984D02*
X-11629D01*
X-20629D02*
Y42584D01*
X-11629D01*
X-20883Y85473D02*
Y97073D01*
X-11883D01*
Y85473D02*
Y97073D01*
X-20883Y85473D02*
X-11883D01*
X-126224Y47569D02*
X-95364D01*
X-126224D02*
Y58269D01*
X-95364D01*
Y47569D02*
Y58269D01*
D138*
X-35298Y79081D02*
X-34298D01*
X-34798Y78581D02*
Y79581D01*
X-39748Y73881D02*
Y84281D01*
X-29848D01*
Y73881D02*
Y84281D01*
X-39748Y73881D02*
X-29848D01*
X-80256Y6691D02*
X-79256D01*
X-79756Y6191D02*
Y7191D01*
X-86456Y8236D02*
X-73056D01*
Y5146D02*
Y8236D01*
X-86456Y5146D02*
X-73056D01*
X-86456D02*
Y8236D01*
X-7350Y68932D02*
X-6350D01*
X-6850Y68432D02*
Y69432D01*
X-11550Y63132D02*
X-2150D01*
Y74732D01*
X-11550D02*
X-2150D01*
X-11550Y63132D02*
Y74732D01*
X-7350Y58928D02*
X-6350D01*
X-6850Y58428D02*
Y59428D01*
X-11550Y53128D02*
X-2150D01*
Y64728D01*
X-11550D02*
X-2150D01*
X-11550Y53128D02*
Y64728D01*
Y30141D02*
Y41741D01*
X-2150D01*
Y30141D02*
Y41741D01*
X-11550Y30141D02*
X-2150D01*
X-6850Y35441D02*
Y36441D01*
X-7350Y35941D02*
X-6350D01*
X-11550Y86148D02*
Y97748D01*
X-2150D01*
Y86148D02*
Y97748D01*
X-11550Y86148D02*
X-2150D01*
X-6850Y91448D02*
Y92448D01*
X-7350Y91948D02*
X-6350D01*
X-50200Y119220D02*
Y128620D01*
X-66800D02*
X-50200D01*
X-66800Y119220D02*
Y128620D01*
Y119220D02*
X-50200D01*
X-59000Y123920D02*
X-58000D01*
X-58500Y123420D02*
Y124420D01*
X-189864Y111000D02*
Y122600D01*
X-199264Y111000D02*
X-189864D01*
X-199264D02*
Y122600D01*
X-189864D01*
X-194564Y116300D02*
Y117300D01*
X-195064Y116800D02*
X-194064D01*
X-189872Y79083D02*
Y90683D01*
X-199272Y79083D02*
X-189872D01*
X-199272D02*
Y90683D01*
X-189872D01*
X-194572Y84383D02*
Y85383D01*
X-195072Y84883D02*
X-194072D01*
X-189864Y46484D02*
Y58084D01*
X-199264Y46484D02*
X-189864D01*
X-199264D02*
Y58084D01*
X-189864D01*
X-194564Y51784D02*
Y52784D01*
X-195064Y52284D02*
X-194064D01*
X-189864Y15115D02*
Y26715D01*
X-199264Y15115D02*
X-189864D01*
X-199264D02*
Y26715D01*
X-189864D01*
X-194564Y20415D02*
Y21415D01*
X-195064Y20915D02*
X-194064D01*
%TF.MD5,ed7d28d4a3593c4be63e1b45d7b0a5dc*%
M02*
