%TF.GenerationSoftware,Altium Limited,Altium Designer,21.6.4 (81)*%
G04 Layer_Color=32896*
%FSLAX43Y43*%
%MOMM*%
%TF.SameCoordinates,95A2699C-722C-4572-8EE5-7BEA9F810E30*%
%TF.FilePolarity,Positive*%
%TF.FileFunction,Legend,Bot*%
%TF.Part,Single*%
G01*
G75*
%TA.AperFunction,NonConductor*%
%ADD92C,0.250*%
%ADD93C,0.152*%
%ADD94C,0.200*%
%ADD95C,0.150*%
%ADD96C,0.254*%
%ADD97C,0.076*%
G36*
X-77424Y68773D02*
X-77155Y68504D01*
X-77334Y68324D01*
X-77604Y68594D01*
X-77424Y68773D01*
D02*
G37*
G36*
X-70648Y67005D02*
X-70468Y66826D01*
X-70738Y66556D01*
X-70917Y66736D01*
X-70648Y67005D01*
D02*
G37*
G36*
X-76801Y75280D02*
X-76981Y75459D01*
X-77250Y75190D01*
X-77070Y75010D01*
X-76801Y75280D01*
D02*
G37*
G36*
X-70564Y76340D02*
X-70294Y76071D01*
X-70115Y76251D01*
X-70384Y76520D01*
X-70564Y76340D01*
D02*
G37*
D92*
X-87776Y62842D02*
G03*
X-87776Y62842I-125J0D01*
G01*
X-154294Y7326D02*
G03*
X-154294Y7326I-125J0D01*
G01*
X-154167Y18629D02*
G03*
X-154167Y18629I-125J0D01*
G01*
Y23328D02*
G03*
X-154167Y23328I-125J0D01*
G01*
X-154294Y39330D02*
G03*
X-154294Y39330I-125J0D01*
G01*
X-154167Y50760D02*
G03*
X-154167Y50760I-125J0D01*
G01*
Y55205D02*
G03*
X-154167Y55205I-125J0D01*
G01*
Y66635D02*
G03*
X-154167Y66635I-125J0D01*
G01*
X-154155Y71080D02*
G03*
X-154155Y71080I-125J0D01*
G01*
X-154028Y82637D02*
G03*
X-154028Y82637I-125J0D01*
G01*
X-154155Y87082D02*
G03*
X-154155Y87082I-125J0D01*
G01*
X-154282Y98639D02*
G03*
X-154282Y98639I-125J0D01*
G01*
X-154294Y103211D02*
G03*
X-154294Y103211I-125J0D01*
G01*
X-154155Y114641D02*
G03*
X-154155Y114641I-125J0D01*
G01*
Y119086D02*
G03*
X-154155Y119086I-125J0D01*
G01*
Y130389D02*
G03*
X-154155Y130389I-125J0D01*
G01*
Y34758D02*
G03*
X-154155Y34758I-125J0D01*
G01*
X-123548Y40473D02*
G03*
X-123548Y40473I-125J0D01*
G01*
X-123675Y49871D02*
G03*
X-123675Y49871I-125J0D01*
G01*
X-123451Y113371D02*
G03*
X-123451Y113371I-125J0D01*
G01*
X-108577Y18756D02*
G03*
X-108577Y18756I-125J0D01*
G01*
X-108831Y34631D02*
G03*
X-108831Y34631I-125J0D01*
G01*
X-108704Y50760D02*
G03*
X-108704Y50760I-125J0D01*
G01*
Y66508D02*
G03*
X-108704Y66508I-125J0D01*
G01*
Y83018D02*
G03*
X-108704Y83018I-125J0D01*
G01*
Y98639D02*
G03*
X-108704Y98639I-125J0D01*
G01*
X-108831Y114768D02*
G03*
X-108831Y114768I-125J0D01*
G01*
X-108704Y130389D02*
G03*
X-108704Y130389I-125J0D01*
G01*
X-123518Y129373D02*
G03*
X-123518Y129373I-125J0D01*
G01*
X-123548Y104227D02*
G03*
X-123548Y104227I-125J0D01*
G01*
X-123518Y97496D02*
G03*
X-123518Y97496I-125J0D01*
G01*
X-123548Y88225D02*
G03*
X-123548Y88225I-125J0D01*
G01*
X-123518Y72223D02*
G03*
X-123518Y72223I-125J0D01*
G01*
Y81367D02*
G03*
X-123518Y81367I-125J0D01*
G01*
Y56221D02*
G03*
X-123518Y56221I-125J0D01*
G01*
Y65365D02*
G03*
X-123518Y65365I-125J0D01*
G01*
X-123421Y23582D02*
G03*
X-123421Y23582I-125J0D01*
G01*
X-123548Y17613D02*
G03*
X-123548Y17613I-125J0D01*
G01*
X-9373Y39328D02*
G03*
X-9373Y39328I-125J0D01*
G01*
X-20601Y46188D02*
G03*
X-20601Y46188I-125J0D01*
G01*
X-33631Y60564D02*
G03*
X-33631Y60564I-125J0D01*
G01*
X-123294Y33742D02*
G03*
X-123294Y33742I-125J0D01*
G01*
X-123548Y8342D02*
G03*
X-123548Y8342I-125J0D01*
G01*
X-123518Y120102D02*
G03*
X-123518Y120102I-125J0D01*
G01*
D93*
X-67348Y69876D02*
G03*
X-67348Y69876I-76J0D01*
G01*
X-114643Y74420D02*
X-110401D01*
X-114643Y79678D02*
X-110401D01*
X-114643Y31545D02*
X-110401D01*
X-114643Y26287D02*
X-110401D01*
X-114643Y15797D02*
X-110401D01*
X-114643Y10539D02*
X-110401D01*
X-114643Y127303D02*
X-110401D01*
X-114643Y122045D02*
X-110401D01*
X-114643Y111555D02*
X-110401D01*
X-114643Y106297D02*
X-110401D01*
X-114643Y95426D02*
X-110401D01*
X-114643Y90168D02*
X-110401D01*
X-114643Y63422D02*
X-110401D01*
X-114643Y58164D02*
X-110401D01*
X-114643Y47674D02*
X-110401D01*
X-114643Y42416D02*
X-110401D01*
X-73496Y76634D02*
X-73152Y76977D01*
X-78414Y71715D02*
X-78071Y71371D01*
X-73152Y66453D02*
X-72808Y66796D01*
X-68233Y71371D02*
X-67890Y71715D01*
X-73152Y76977D02*
X-72808Y76634D01*
X-78414Y71715D02*
X-78071Y72059D01*
X-73496Y66796D02*
X-73152Y66453D01*
X-68233Y72059D02*
X-67890Y71715D01*
D94*
X-70023Y116125D02*
X-68498D01*
X-68148Y116255D02*
Y121155D01*
X-64948D01*
Y116255D02*
Y121155D01*
X-68148Y116255D02*
X-64948D01*
X-108342Y30474D02*
Y32674D01*
X-106192Y30474D02*
Y32674D01*
X-117813Y117757D02*
X-115613D01*
X-117813Y119907D02*
X-115613D01*
X-117813Y22253D02*
X-115613D01*
X-117813Y24403D02*
X-115613D01*
X-87265Y61251D02*
X-86664Y60650D01*
X-86310Y62206D02*
X-85709Y61605D01*
X-105607Y62322D02*
Y64522D01*
X-107757Y62322D02*
Y64522D01*
X-105813Y78638D02*
Y80838D01*
X-107963Y78638D02*
Y80838D01*
X-105569Y94296D02*
Y96496D01*
X-107719Y94296D02*
Y96496D01*
X-105619Y110487D02*
Y112687D01*
X-107769Y110487D02*
Y112687D01*
X-105678Y126239D02*
Y128439D01*
X-107828Y126239D02*
Y128439D01*
X-32850Y103270D02*
X-30650D01*
X-32850Y101120D02*
X-30650D01*
X-32850Y101111D02*
X-30650D01*
X-32850Y98961D02*
X-30650D01*
X-32850Y24911D02*
X-30650D01*
X-32850Y22761D02*
X-30650D01*
X-32850Y22498D02*
X-30650D01*
X-32850Y20348D02*
X-30650D01*
X-105754Y14814D02*
Y17014D01*
X-107904Y14814D02*
Y17014D01*
X-106718Y46731D02*
Y48931D01*
X-108868Y46731D02*
Y48931D01*
X-116836Y116048D02*
X-116590D01*
X-116836Y117298D02*
X-116590D01*
X-72527Y116727D02*
Y116873D01*
X-73777Y116727D02*
Y116873D01*
X-63965Y113947D02*
X-61765D01*
X-63965Y116097D02*
X-61765D01*
X-117686Y53876D02*
X-115486D01*
X-117686Y56026D02*
X-115486D01*
X-117813Y86134D02*
X-115613D01*
X-117813Y88284D02*
X-115613D01*
X-159994Y8776D02*
X-155244D01*
X-159994Y5876D02*
Y6111D01*
Y8541D02*
Y8776D01*
Y5876D02*
X-155244D01*
Y6111D01*
Y8541D02*
Y8776D01*
X-159867Y20079D02*
X-155117D01*
X-159867Y17179D02*
Y17414D01*
Y19844D02*
Y20079D01*
Y17179D02*
X-155117D01*
Y17414D01*
Y19844D02*
Y20079D01*
X-159867Y24778D02*
X-155117D01*
X-159867Y21878D02*
Y22113D01*
Y24543D02*
Y24778D01*
Y21878D02*
X-155117D01*
Y22113D01*
Y24543D02*
Y24778D01*
X-159994Y40780D02*
X-155244D01*
X-159994Y37880D02*
Y38115D01*
Y40545D02*
Y40780D01*
Y37880D02*
X-155244D01*
Y38115D01*
Y40545D02*
Y40780D01*
X-159867Y52210D02*
X-155117D01*
X-159867Y49310D02*
Y49545D01*
Y51975D02*
Y52210D01*
Y49310D02*
X-155117D01*
Y49545D01*
Y51975D02*
Y52210D01*
X-159867Y56655D02*
X-155117D01*
X-159867Y53755D02*
Y53990D01*
Y56420D02*
Y56655D01*
Y53755D02*
X-155117D01*
Y53990D01*
Y56420D02*
Y56655D01*
X-159867Y68085D02*
X-155117D01*
X-159867Y65185D02*
Y65420D01*
Y67850D02*
Y68085D01*
Y65185D02*
X-155117D01*
Y65420D01*
Y67850D02*
Y68085D01*
X-159855Y72530D02*
X-155105D01*
X-159855Y69630D02*
Y69865D01*
Y72295D02*
Y72530D01*
Y69630D02*
X-155105D01*
Y69865D01*
Y72295D02*
Y72530D01*
X-159728Y84087D02*
X-154978D01*
X-159728Y81187D02*
Y81422D01*
Y83852D02*
Y84087D01*
Y81187D02*
X-154978D01*
Y81422D01*
Y83852D02*
Y84087D01*
X-159855Y88532D02*
X-155105D01*
X-159855Y85632D02*
Y85867D01*
Y88297D02*
Y88532D01*
Y85632D02*
X-155105D01*
Y85867D01*
Y88297D02*
Y88532D01*
X-159982Y100089D02*
X-155232D01*
X-159982Y97189D02*
Y97424D01*
Y99854D02*
Y100089D01*
Y97189D02*
X-155232D01*
Y97424D01*
Y99854D02*
Y100089D01*
X-159994Y104661D02*
X-155244D01*
X-159994Y101761D02*
Y101996D01*
Y104426D02*
Y104661D01*
Y101761D02*
X-155244D01*
Y101996D01*
Y104426D02*
Y104661D01*
X-159855Y116091D02*
X-155105D01*
X-159855Y113191D02*
Y113426D01*
Y115856D02*
Y116091D01*
Y113191D02*
X-155105D01*
Y113426D01*
Y115856D02*
Y116091D01*
X-159855Y120536D02*
X-155105D01*
X-159855Y117636D02*
Y117871D01*
Y120301D02*
Y120536D01*
Y117636D02*
X-155105D01*
Y117871D01*
Y120301D02*
Y120536D01*
X-159855Y131839D02*
X-155105D01*
X-159855Y128939D02*
Y129174D01*
Y131604D02*
Y131839D01*
Y128939D02*
X-155105D01*
Y129174D01*
Y131604D02*
Y131839D01*
X-159855Y36208D02*
X-155105D01*
X-159855Y33308D02*
Y33543D01*
Y35973D02*
Y36208D01*
Y33308D02*
X-155105D01*
Y33543D01*
Y35973D02*
Y36208D01*
X-127748Y39673D02*
X-125998D01*
X-127748Y41273D02*
X-125998D01*
X-127875Y49071D02*
X-126125D01*
X-127875Y50671D02*
X-126125D01*
X-127651Y112571D02*
X-125901D01*
X-127651Y114171D02*
X-125901D01*
X-106797Y119775D02*
Y119921D01*
X-105547Y119775D02*
Y119921D01*
X-103495Y119775D02*
Y119921D01*
X-102245Y119775D02*
Y119921D01*
X-106797Y40146D02*
Y40292D01*
X-105547Y40146D02*
Y40292D01*
X-103495Y40146D02*
Y40292D01*
X-102245Y40146D02*
Y40292D01*
X-106797Y24017D02*
Y24163D01*
X-105547Y24017D02*
Y24163D01*
X-103495Y24017D02*
Y24163D01*
X-102245Y24017D02*
Y24163D01*
X-106797Y8269D02*
Y8415D01*
X-105547Y8269D02*
Y8415D01*
X-103495Y8269D02*
Y8415D01*
X-102245Y8269D02*
Y8415D01*
X-107202Y17296D02*
Y17531D01*
Y19981D02*
Y20216D01*
X-102602D01*
Y17296D02*
Y17531D01*
Y19981D02*
Y20216D01*
X-107202Y17296D02*
X-102602D01*
X-107456Y33171D02*
Y33406D01*
Y35856D02*
Y36091D01*
X-102856D01*
Y33171D02*
Y33406D01*
Y35856D02*
Y36091D01*
X-107456Y33171D02*
X-102856D01*
X-107329Y49300D02*
Y49535D01*
Y51985D02*
Y52220D01*
X-102729D01*
Y49300D02*
Y49535D01*
Y51985D02*
Y52220D01*
X-107329Y49300D02*
X-102729D01*
X-107329Y65048D02*
Y65283D01*
Y67733D02*
Y67968D01*
X-102729D01*
Y65048D02*
Y65283D01*
Y67733D02*
Y67968D01*
X-107329Y65048D02*
X-102729D01*
X-107329Y81558D02*
Y81793D01*
Y84243D02*
Y84478D01*
X-102729D01*
Y81558D02*
Y81793D01*
Y84243D02*
Y84478D01*
X-107329Y81558D02*
X-102729D01*
X-107329Y97179D02*
Y97414D01*
Y99864D02*
Y100099D01*
X-102729D01*
Y97179D02*
Y97414D01*
Y99864D02*
Y100099D01*
X-107329Y97179D02*
X-102729D01*
X-107456Y113308D02*
Y113543D01*
Y115993D02*
Y116228D01*
X-102856D01*
Y113308D02*
Y113543D01*
Y115993D02*
Y116228D01*
X-107456Y113308D02*
X-102856D01*
X-107329Y128929D02*
Y129164D01*
Y131614D02*
Y131849D01*
X-102729D01*
Y128929D02*
Y129164D01*
Y131614D02*
Y131849D01*
X-107329Y128929D02*
X-102729D01*
X-113597Y127913D02*
Y130325D01*
X-111447Y127913D02*
Y130325D01*
X-113724Y112384D02*
Y114796D01*
X-111574Y112384D02*
Y114796D01*
X-113597Y96255D02*
Y98667D01*
X-111447Y96255D02*
Y98667D01*
X-113597Y80634D02*
Y83046D01*
X-111447Y80634D02*
Y83046D01*
X-113597Y64032D02*
Y66444D01*
X-111447Y64032D02*
Y66444D01*
X-113597Y48411D02*
Y50823D01*
X-111447Y48411D02*
Y50823D01*
X-113597Y16407D02*
Y18819D01*
X-111447Y16407D02*
Y18819D01*
X-122247Y12523D02*
X-122101D01*
X-122247Y11273D02*
X-122101D01*
X-120494Y14398D02*
X-120044D01*
X-120494Y15748D02*
X-120044D01*
X-121408Y20417D02*
X-121162D01*
X-121408Y21667D02*
X-121162D01*
X-120723Y27636D02*
X-120577D01*
X-120723Y26386D02*
X-120577D01*
X-121129Y29765D02*
X-120679D01*
X-121129Y31115D02*
X-120679D01*
X-120367Y45767D02*
X-119917D01*
X-120367Y47117D02*
X-119917D01*
X-121408Y52294D02*
X-121162D01*
X-121408Y53544D02*
X-121162D01*
X-120723Y59894D02*
X-120577D01*
X-120723Y58644D02*
X-120577D01*
X-120494Y61515D02*
X-120044D01*
X-120494Y62865D02*
X-120044D01*
X-122247Y76277D02*
X-122101D01*
X-122247Y75027D02*
X-122101D01*
X-121129Y77390D02*
X-120679D01*
X-121129Y78740D02*
X-120679D01*
X-121408Y84298D02*
X-121162D01*
X-121408Y85548D02*
X-121162D01*
X-121104Y92025D02*
X-120958D01*
X-121104Y90775D02*
X-120958D01*
X-121290Y93773D02*
X-120840D01*
X-121290Y95123D02*
X-120840D01*
X-121383Y110156D02*
X-120933D01*
X-121383Y111506D02*
X-120933D01*
X-121281Y116048D02*
X-121035D01*
X-121281Y117298D02*
X-121035D01*
X-121104Y123394D02*
X-120958D01*
X-121104Y122144D02*
X-120958D01*
X-127718Y128573D02*
X-125968D01*
X-127718Y130173D02*
X-125968D01*
X-129095Y127273D02*
X-126683D01*
X-129095Y125123D02*
X-126683D01*
X-127708Y123902D02*
X-127562D01*
X-127708Y122652D02*
X-127562D01*
X-129008Y111398D02*
X-126596D01*
X-129008Y109248D02*
X-126596D01*
X-127748Y103427D02*
X-125998D01*
X-127748Y105027D02*
X-125998D01*
X-127718Y96696D02*
X-125968D01*
X-127718Y98296D02*
X-125968D01*
X-127748Y87425D02*
X-125998D01*
X-127748Y89025D02*
X-125998D01*
X-129095Y95142D02*
X-126683D01*
X-129095Y92992D02*
X-126683D01*
X-127718Y71423D02*
X-125968D01*
X-127718Y73023D02*
X-125968D01*
X-127718Y80567D02*
X-125968D01*
X-127718Y82167D02*
X-125968D01*
X-129135Y79140D02*
X-126723D01*
X-129135Y76990D02*
X-126723D01*
X-127718Y55421D02*
X-125968D01*
X-127718Y57021D02*
X-125968D01*
X-127718Y64565D02*
X-125968D01*
X-127718Y66165D02*
X-125968D01*
X-129135Y63265D02*
X-126723D01*
X-129135Y61115D02*
X-126723D01*
X-122374Y44400D02*
X-122228D01*
X-122374Y43150D02*
X-122228D01*
X-127621Y22782D02*
X-125871D01*
X-127621Y24382D02*
X-125871D01*
X-127748Y16813D02*
X-125998D01*
X-127748Y18413D02*
X-125998D01*
X-129095Y15513D02*
X-126683D01*
X-129095Y13363D02*
X-126683D01*
X-74666Y128919D02*
Y129065D01*
X-73416Y128919D02*
Y129065D01*
X-64125Y127395D02*
Y127541D01*
X-62875Y127395D02*
Y127541D01*
X-52842Y128919D02*
Y129065D01*
X-54092Y128919D02*
Y129065D01*
X-61810Y125045D02*
X-60110D01*
X-62660Y123795D02*
X-60110D01*
X-56914D02*
X-55214D01*
X-56914Y125045D02*
X-54364D01*
X-64125Y79955D02*
X-64023Y79853D01*
X-65009Y79071D02*
X-64907Y78969D01*
X-91358Y61338D02*
X-86196Y56176D01*
X-94840Y58740D02*
X-89236Y53136D01*
X-89549Y59922D02*
X-87993Y58366D01*
X-88029Y61442D02*
X-86473Y59886D01*
X-67070Y62680D02*
X-65514Y64236D01*
X-65550Y61160D02*
X-63994Y62716D01*
X-70221Y31764D02*
Y31910D01*
X-68971Y31764D02*
Y31910D01*
X-50892Y24596D02*
Y27902D01*
X-53248Y24596D02*
Y27902D01*
X-86198Y24469D02*
Y27775D01*
X-88554Y24469D02*
Y27775D01*
X-68418Y24596D02*
Y27902D01*
X-70774Y24596D02*
Y27902D01*
X-76591Y9222D02*
Y9467D01*
X-77841Y9222D02*
Y9467D01*
X-46301Y16333D02*
X-46155D01*
X-46301Y15083D02*
X-46155D01*
X-41983Y16333D02*
X-41837D01*
X-41983Y15083D02*
X-41837D01*
X-31950Y16333D02*
X-31804D01*
X-31950Y15083D02*
X-31804D01*
X-25981Y16333D02*
X-25835D01*
X-25981Y15083D02*
X-25835D01*
X-21663Y16333D02*
X-21517D01*
X-21663Y15083D02*
X-21517D01*
X-11630Y16333D02*
X-11484D01*
X-11630Y15083D02*
X-11484D01*
X-28648Y20925D02*
X-28502D01*
X-28648Y22175D02*
X-28502D01*
X-35252Y20671D02*
X-35106D01*
X-35252Y21921D02*
X-35106D01*
X-38598Y25287D02*
Y25433D01*
X-37348Y25287D02*
Y25433D01*
X-42408Y32526D02*
Y32672D01*
X-41158Y32526D02*
Y32672D01*
X-38471Y32526D02*
Y32672D01*
X-37221Y32526D02*
Y32672D01*
X-22850Y32526D02*
Y32672D01*
X-21600Y32526D02*
Y32672D01*
X-14623Y32678D02*
X-10523D01*
X-14623Y39378D02*
X-10523D01*
X-14623Y32678D02*
Y39378D01*
X-10523Y32678D02*
Y39378D01*
X-17560Y42378D02*
X-16960D01*
X-17260Y42078D02*
Y42678D01*
X-14210Y40678D02*
X-12460D01*
X-14210Y44078D02*
X-12460D01*
X-18401Y46988D02*
X-16651D01*
X-18401Y45388D02*
X-16651D01*
X-36941Y63343D02*
X-36796D01*
X-36941Y64593D02*
X-36796D01*
X-28597Y58850D02*
X-25901D01*
X-28597D02*
Y69086D01*
X-25901D01*
X-28521Y99030D02*
X-28375D01*
X-28521Y100280D02*
X-28375D01*
X-41158Y102977D02*
Y103122D01*
X-42408Y102977D02*
Y103122D01*
X-33030Y111012D02*
Y111158D01*
X-34280Y111012D02*
Y111158D01*
X-21473Y102977D02*
Y103122D01*
X-22723Y102977D02*
Y103122D01*
X-17536Y103011D02*
Y103157D01*
X-18786Y103011D02*
Y103157D01*
X-17536Y110073D02*
Y110319D01*
X-18786Y110073D02*
Y110319D01*
X-11630Y119223D02*
X-11484D01*
X-11630Y120473D02*
X-11484D01*
X-15948Y119223D02*
X-15802D01*
X-15948Y120473D02*
X-15802D01*
X-21697D02*
X-21552D01*
X-21697Y119223D02*
X-21552D01*
X-25981D02*
X-25835D01*
X-25981Y120473D02*
X-25835D01*
X-31984Y119223D02*
X-31839D01*
X-31984Y120473D02*
X-31839D01*
X-36268Y119223D02*
X-36122D01*
X-36268Y120473D02*
X-36122D01*
X-42017D02*
X-41872D01*
X-42017Y119223D02*
X-41872D01*
X-46174D02*
X-46028D01*
X-46174Y120473D02*
X-46028D01*
X-95514Y122858D02*
Y123003D01*
X-96764Y122858D02*
Y123003D01*
X-92974Y122858D02*
Y123003D01*
X-94224Y122858D02*
Y123003D01*
X-87132Y122858D02*
Y123003D01*
X-88382Y122858D02*
Y123003D01*
X-84592Y122858D02*
Y123003D01*
X-85842Y122858D02*
Y123003D01*
X-75956Y128919D02*
Y129065D01*
X-77206Y128919D02*
Y129065D01*
X-80381Y9549D02*
Y9794D01*
X-79131Y9549D02*
Y9794D01*
X-82921Y9549D02*
Y9794D01*
X-81671Y9549D02*
Y9794D01*
X-86751Y31730D02*
Y31875D01*
X-88001Y31730D02*
Y31875D01*
X-51445Y31764D02*
Y31910D01*
X-52695Y31764D02*
Y31910D01*
X-38471Y102954D02*
Y103099D01*
X-37221Y102954D02*
Y103099D01*
X-38471Y110250D02*
Y110396D01*
X-37221Y110250D02*
Y110396D01*
X-17807Y25305D02*
Y25450D01*
X-19057Y25305D02*
Y25450D01*
X-17790Y32526D02*
Y32672D01*
X-19040Y32526D02*
Y32672D01*
X-36268Y16333D02*
X-36122D01*
X-36268Y15083D02*
X-36122D01*
X-15948Y16333D02*
X-15802D01*
X-15948Y15083D02*
X-15802D01*
X-13980Y125363D02*
Y125509D01*
X-15230Y125363D02*
Y125509D01*
X-22235Y125363D02*
Y125509D01*
X-23485Y125363D02*
Y125509D01*
X-42555Y125525D02*
Y125670D01*
X-43805Y125525D02*
Y125670D01*
X-34300Y125363D02*
Y125509D01*
X-35550Y125363D02*
Y125509D01*
X-116836Y21667D02*
X-116590D01*
X-116836Y20417D02*
X-116590D01*
X-116895Y85548D02*
X-116650D01*
X-116895Y84298D02*
X-116650D01*
X-116709Y53544D02*
X-116463D01*
X-116709Y52294D02*
X-116463D01*
X-19885Y41753D02*
X-19739D01*
X-19885Y43003D02*
X-19739D01*
X-13980Y10174D02*
Y10320D01*
X-15230Y10174D02*
Y10320D01*
X-22235Y10140D02*
Y10285D01*
X-23485Y10140D02*
Y10285D01*
X-42555Y10047D02*
Y10193D01*
X-43805Y10047D02*
Y10193D01*
X-34300Y10047D02*
Y10193D01*
X-35550Y10047D02*
Y10193D01*
X-102245Y104027D02*
Y104173D01*
X-103495Y104027D02*
Y104173D01*
X-105547Y104027D02*
Y104173D01*
X-106797Y104027D02*
Y104173D01*
X-102245Y87898D02*
Y88044D01*
X-103495Y87898D02*
Y88044D01*
X-105547Y87898D02*
Y88044D01*
X-106797Y87898D02*
Y88044D01*
X-102245Y72150D02*
Y72296D01*
X-103495Y72150D02*
Y72296D01*
X-105547Y72150D02*
Y72296D01*
X-106797Y72150D02*
Y72296D01*
X-102245Y55894D02*
Y56040D01*
X-103495Y55894D02*
Y56040D01*
X-105547Y55894D02*
Y56040D01*
X-106797Y55894D02*
Y56040D01*
X-111447Y32247D02*
Y34659D01*
X-113597Y32247D02*
Y34659D01*
X-122628Y106904D02*
X-122482D01*
X-122628Y108154D02*
X-122482D01*
X-121383Y126619D02*
X-120933D01*
X-121383Y125269D02*
X-120933D01*
X-127494Y34542D02*
X-125744D01*
X-127494Y32942D02*
X-125744D01*
X-128841Y29111D02*
X-126429D01*
X-128841Y31261D02*
X-126429D01*
X-127708Y26513D02*
X-127562D01*
X-127708Y27763D02*
X-127562D01*
X-127748Y9142D02*
X-125998D01*
X-127748Y7542D02*
X-125998D01*
X-127869Y106904D02*
X-127724D01*
X-127869Y108154D02*
X-127724D01*
X-127835Y11273D02*
X-127689D01*
X-127835Y12523D02*
X-127689D01*
X-129135Y45113D02*
X-126723D01*
X-129135Y47263D02*
X-126723D01*
X-127742Y43023D02*
X-127597D01*
X-127742Y44273D02*
X-127597D01*
X-127742Y58771D02*
X-127597D01*
X-127742Y60021D02*
X-127597D01*
X-127835Y90775D02*
X-127689D01*
X-127835Y92025D02*
X-127689D01*
X-127742Y74900D02*
X-127597D01*
X-127742Y76150D02*
X-127597D01*
X-127718Y120902D02*
X-125968D01*
X-127718Y119302D02*
X-125968D01*
D95*
X-30706Y105775D02*
Y108775D01*
X-31456D02*
X-26456D01*
X-31456Y105775D02*
X-26456D01*
X-31456D02*
Y108775D01*
X-26456Y105775D02*
Y108775D01*
Y27416D02*
Y30416D01*
X-31456Y27416D02*
Y30416D01*
Y27416D02*
X-26456D01*
X-31456Y30416D02*
X-26456D01*
X-30706Y27416D02*
Y30416D01*
D96*
X-15367Y61301D02*
X-12827D01*
Y66381D01*
X-15367D02*
X-12827D01*
X-15367Y61301D02*
Y66381D01*
X-125432Y131705D02*
Y130906D01*
X-125832D01*
X-125966Y131039D01*
Y131572D01*
X-125832Y131705D01*
X-125432D01*
X-126232Y130906D02*
X-126499D01*
X-126365D01*
Y131705D01*
X-126232Y131572D01*
X-127432Y131705D02*
X-126899D01*
Y131305D01*
X-127165Y131439D01*
X-127299D01*
X-127432Y131305D01*
Y131039D01*
X-127299Y130906D01*
X-127032D01*
X-126899Y131039D01*
X-78823Y128505D02*
X-78023D01*
Y128905D01*
X-78157Y129038D01*
X-78423D01*
X-78557Y128905D01*
Y128505D01*
Y128771D02*
X-78823Y129038D01*
Y129704D02*
X-78023D01*
X-78423Y129305D01*
Y129838D01*
X-72700Y128389D02*
X-71900D01*
Y128789D01*
X-72033Y128923D01*
X-72300D01*
X-72433Y128789D01*
Y128389D01*
Y128656D02*
X-72700Y128923D01*
X-72033Y129189D02*
X-71900Y129322D01*
Y129589D01*
X-72033Y129722D01*
X-72167D01*
X-72300Y129589D01*
Y129456D01*
Y129589D01*
X-72433Y129722D01*
X-72567D01*
X-72700Y129589D01*
Y129322D01*
X-72567Y129189D01*
X-101660Y120461D02*
X-100860D01*
Y120860D01*
X-100994Y120994D01*
X-101260D01*
X-101393Y120860D01*
Y120461D01*
Y120727D02*
X-101660Y120994D01*
Y121660D02*
X-100860D01*
X-101260Y121260D01*
Y121793D01*
X-101527Y122060D02*
X-101660Y122193D01*
Y122460D01*
X-101527Y122593D01*
X-100994D01*
X-100860Y122460D01*
Y122193D01*
X-100994Y122060D01*
X-101127D01*
X-101260Y122193D01*
Y122593D01*
X-101664Y104930D02*
X-100864D01*
Y105330D01*
X-100997Y105463D01*
X-101264D01*
X-101397Y105330D01*
Y104930D01*
Y105197D02*
X-101664Y105463D01*
X-100997Y105730D02*
X-100864Y105863D01*
Y106130D01*
X-100997Y106263D01*
X-101131D01*
X-101264Y106130D01*
X-101397Y106263D01*
X-101531D01*
X-101664Y106130D01*
Y105863D01*
X-101531Y105730D01*
X-101397D01*
X-101264Y105863D01*
X-101131Y105730D01*
X-100997D01*
X-101264Y105863D02*
Y106130D01*
X-101664Y106530D02*
Y106796D01*
Y106663D01*
X-100864D01*
X-100997Y106530D01*
X-108290Y104453D02*
X-107490D01*
Y104853D01*
X-107623Y104986D01*
X-107890D01*
X-108023Y104853D01*
Y104453D01*
Y104720D02*
X-108290Y104986D01*
X-107623Y105253D02*
X-107490Y105386D01*
Y105653D01*
X-107623Y105786D01*
X-107756D01*
X-107890Y105653D01*
X-108023Y105786D01*
X-108156D01*
X-108290Y105653D01*
Y105386D01*
X-108156Y105253D01*
X-108023D01*
X-107890Y105386D01*
X-107756Y105253D01*
X-107623D01*
X-107890Y105386D02*
Y105653D01*
X-108290Y106586D02*
Y106053D01*
X-107756Y106586D01*
X-107623D01*
X-107490Y106452D01*
Y106186D01*
X-107623Y106053D01*
X-65882Y115803D02*
Y115136D01*
X-66015Y115003D01*
X-66281D01*
X-66415Y115136D01*
Y115803D01*
X-66681Y115670D02*
X-66815Y115803D01*
X-67081D01*
X-67214Y115670D01*
Y115536D01*
X-67081Y115403D01*
X-66948D01*
X-67081D01*
X-67214Y115270D01*
Y115136D01*
X-67081Y115003D01*
X-66815D01*
X-66681Y115136D01*
X-104950Y30891D02*
X-104817Y30758D01*
Y30491D01*
X-104950Y30358D01*
X-105484D01*
X-105617Y30491D01*
Y30758D01*
X-105484Y30891D01*
X-104950Y31158D02*
X-104817Y31291D01*
Y31558D01*
X-104950Y31691D01*
X-105084D01*
X-105217Y31558D01*
Y31424D01*
Y31558D01*
X-105350Y31691D01*
X-105484D01*
X-105617Y31558D01*
Y31291D01*
X-105484Y31158D01*
X-105617Y31958D02*
Y32224D01*
Y32091D01*
X-104817D01*
X-104950Y31958D01*
X-84063Y62179D02*
X-84629Y61613D01*
X-84911Y61896D01*
X-84911Y62084D01*
X-84534Y62461D01*
X-84346D01*
X-84063Y62179D01*
X-85477Y62461D02*
X-84911Y63027D01*
X-84911Y62461D01*
X-85288Y62839D01*
Y63215D02*
X-85288Y63404D01*
X-85477Y63593D01*
X-85665D01*
X-85760Y63498D01*
Y63310D01*
X-85948Y63310D01*
X-86043Y63215D01*
X-86043Y63027D01*
X-85854Y62839D01*
X-85665D01*
X-85571Y62933D01*
Y63121D01*
X-85383Y63121D01*
X-85288Y63215D01*
X-85571Y63121D02*
X-85760Y63310D01*
X-104102Y110511D02*
X-103969Y110378D01*
Y110111D01*
X-104102Y109978D01*
X-104635D01*
X-104769Y110111D01*
Y110378D01*
X-104635Y110511D01*
X-104102Y110778D02*
X-103969Y110911D01*
Y111178D01*
X-104102Y111311D01*
X-104235D01*
X-104369Y111178D01*
Y111044D01*
Y111178D01*
X-104502Y111311D01*
X-104635D01*
X-104769Y111178D01*
Y110911D01*
X-104635Y110778D01*
X-103969Y112111D02*
X-104102Y111844D01*
X-104369Y111578D01*
X-104635D01*
X-104769Y111711D01*
Y111977D01*
X-104635Y112111D01*
X-104502D01*
X-104369Y111977D01*
Y111578D01*
X-105427Y46735D02*
X-105294Y46602D01*
Y46336D01*
X-105427Y46202D01*
X-105960D01*
X-106093Y46336D01*
Y46602D01*
X-105960Y46735D01*
X-105427Y47002D02*
X-105294Y47135D01*
Y47402D01*
X-105427Y47535D01*
X-105560D01*
X-105693Y47402D01*
Y47269D01*
Y47402D01*
X-105827Y47535D01*
X-105960D01*
X-106093Y47402D01*
Y47135D01*
X-105960Y47002D01*
X-105294Y48335D02*
Y47802D01*
X-105693D01*
X-105560Y48068D01*
Y48202D01*
X-105693Y48335D01*
X-105960D01*
X-106093Y48202D01*
Y47935D01*
X-105960Y47802D01*
X-104261Y126390D02*
X-104128Y126257D01*
Y125990D01*
X-104261Y125857D01*
X-104795D01*
X-104928Y125990D01*
Y126257D01*
X-104795Y126390D01*
X-104261Y126657D02*
X-104128Y126790D01*
Y127057D01*
X-104261Y127190D01*
X-104395D01*
X-104528Y127057D01*
Y126923D01*
Y127057D01*
X-104661Y127190D01*
X-104795D01*
X-104928Y127057D01*
Y126790D01*
X-104795Y126657D01*
X-104928Y127856D02*
X-104128D01*
X-104528Y127457D01*
Y127990D01*
X-104316Y62604D02*
X-104182Y62471D01*
Y62204D01*
X-104316Y62071D01*
X-104849D01*
X-104982Y62204D01*
Y62471D01*
X-104849Y62604D01*
X-104316Y62871D02*
X-104182Y63004D01*
Y63270D01*
X-104316Y63404D01*
X-104449D01*
X-104582Y63270D01*
Y63137D01*
Y63270D01*
X-104715Y63404D01*
X-104849D01*
X-104982Y63270D01*
Y63004D01*
X-104849Y62871D01*
X-104316Y63670D02*
X-104182Y63804D01*
Y64070D01*
X-104316Y64203D01*
X-104449D01*
X-104582Y64070D01*
Y63937D01*
Y64070D01*
X-104715Y64203D01*
X-104849D01*
X-104982Y64070D01*
Y63804D01*
X-104849Y63670D01*
X-104546Y78964D02*
X-104413Y78830D01*
Y78564D01*
X-104546Y78430D01*
X-105079D01*
X-105213Y78564D01*
Y78830D01*
X-105079Y78964D01*
X-104546Y79230D02*
X-104413Y79364D01*
Y79630D01*
X-104546Y79763D01*
X-104679D01*
X-104813Y79630D01*
Y79497D01*
Y79630D01*
X-104946Y79763D01*
X-105079D01*
X-105213Y79630D01*
Y79364D01*
X-105079Y79230D01*
X-105213Y80563D02*
Y80030D01*
X-104679Y80563D01*
X-104546D01*
X-104413Y80430D01*
Y80163D01*
X-104546Y80030D01*
X-104252Y94549D02*
X-104119Y94416D01*
Y94149D01*
X-104252Y94016D01*
X-104785D01*
X-104918Y94149D01*
Y94416D01*
X-104785Y94549D01*
X-104252Y94815D02*
X-104119Y94949D01*
Y95215D01*
X-104252Y95349D01*
X-104385D01*
X-104519Y95215D01*
Y95082D01*
Y95215D01*
X-104652Y95349D01*
X-104785D01*
X-104918Y95215D01*
Y94949D01*
X-104785Y94815D01*
X-104252Y95615D02*
X-104119Y95748D01*
Y96015D01*
X-104252Y96148D01*
X-104785D01*
X-104918Y96015D01*
Y95748D01*
X-104785Y95615D01*
X-104252D01*
X-104362Y14721D02*
X-104229Y14587D01*
Y14321D01*
X-104362Y14188D01*
X-104895D01*
X-105029Y14321D01*
Y14587D01*
X-104895Y14721D01*
X-105029Y15521D02*
Y14987D01*
X-104496Y15521D01*
X-104362D01*
X-104229Y15387D01*
Y15121D01*
X-104362Y14987D01*
X-104895Y15787D02*
X-105029Y15920D01*
Y16187D01*
X-104895Y16320D01*
X-104362D01*
X-104229Y16187D01*
Y15920D01*
X-104362Y15787D01*
X-104496D01*
X-104629Y15920D01*
Y16320D01*
X-62154Y117619D02*
X-62020Y117752D01*
X-61754D01*
X-61620Y117619D01*
Y117086D01*
X-61754Y116952D01*
X-62020D01*
X-62154Y117086D01*
X-62953Y116952D02*
X-62420D01*
X-62953Y117486D01*
Y117619D01*
X-62820Y117752D01*
X-62553D01*
X-62420Y117619D01*
X-63220D02*
X-63353Y117752D01*
X-63620D01*
X-63753Y117619D01*
Y117486D01*
X-63620Y117352D01*
X-63753Y117219D01*
Y117086D01*
X-63620Y116952D01*
X-63353D01*
X-63220Y117086D01*
Y117219D01*
X-63353Y117352D01*
X-63220Y117486D01*
Y117619D01*
X-63353Y117352D02*
X-63620D01*
X-31117Y19667D02*
X-30984Y19800D01*
X-30717D01*
X-30584Y19667D01*
Y19133D01*
X-30717Y19000D01*
X-30984D01*
X-31117Y19133D01*
X-31917Y19000D02*
X-31383D01*
X-31917Y19533D01*
Y19667D01*
X-31783Y19800D01*
X-31517D01*
X-31383Y19667D01*
X-32183Y19800D02*
X-32716D01*
Y19667D01*
X-32183Y19133D01*
Y19000D01*
X-33808Y23292D02*
X-33675Y23159D01*
Y22892D01*
X-33808Y22759D01*
X-34342D01*
X-34475Y22892D01*
Y23159D01*
X-34342Y23292D01*
X-34475Y24092D02*
Y23558D01*
X-33942Y24092D01*
X-33808D01*
X-33675Y23958D01*
Y23692D01*
X-33808Y23558D01*
X-33675Y24891D02*
X-33808Y24625D01*
X-34075Y24358D01*
X-34342D01*
X-34475Y24491D01*
Y24758D01*
X-34342Y24891D01*
X-34208D01*
X-34075Y24758D01*
Y24358D01*
X-33808Y101617D02*
X-33675Y101484D01*
Y101217D01*
X-33808Y101084D01*
X-34342D01*
X-34475Y101217D01*
Y101484D01*
X-34342Y101617D01*
X-34475Y102417D02*
Y101883D01*
X-33942Y102417D01*
X-33808D01*
X-33675Y102283D01*
Y102017D01*
X-33808Y101883D01*
X-33675Y103216D02*
Y102683D01*
X-34075D01*
X-33942Y102950D01*
Y103083D01*
X-34075Y103216D01*
X-34342D01*
X-34475Y103083D01*
Y102816D01*
X-34342Y102683D01*
X-31267Y98217D02*
X-31134Y98350D01*
X-30867D01*
X-30734Y98217D01*
Y97683D01*
X-30867Y97550D01*
X-31134D01*
X-31267Y97683D01*
X-32067Y97550D02*
X-31533D01*
X-32067Y98083D01*
Y98217D01*
X-31933Y98350D01*
X-31667D01*
X-31533Y98217D01*
X-32733Y97550D02*
Y98350D01*
X-32333Y97950D01*
X-32866D01*
X-115875Y57548D02*
X-115741Y57681D01*
X-115475D01*
X-115341Y57548D01*
Y57015D01*
X-115475Y56881D01*
X-115741D01*
X-115875Y57015D01*
X-116674Y56881D02*
X-116141D01*
X-116674Y57415D01*
Y57548D01*
X-116541Y57681D01*
X-116274D01*
X-116141Y57548D01*
X-116941D02*
X-117074Y57681D01*
X-117341D01*
X-117474Y57548D01*
Y57415D01*
X-117341Y57281D01*
X-117207D01*
X-117341D01*
X-117474Y57148D01*
Y57015D01*
X-117341Y56881D01*
X-117074D01*
X-116941Y57015D01*
X-116167Y121167D02*
X-116034Y121300D01*
X-115767D01*
X-115634Y121167D01*
Y120633D01*
X-115767Y120500D01*
X-116034D01*
X-116167Y120633D01*
X-116967Y120500D02*
X-116433D01*
X-116967Y121033D01*
Y121167D01*
X-116833Y121300D01*
X-116567D01*
X-116433Y121167D01*
X-117766Y120500D02*
X-117233D01*
X-117766Y121033D01*
Y121167D01*
X-117633Y121300D01*
X-117366D01*
X-117233Y121167D01*
X-116002Y89806D02*
X-115868Y89939D01*
X-115602D01*
X-115468Y89806D01*
Y89273D01*
X-115602Y89139D01*
X-115868D01*
X-116002Y89273D01*
X-116801Y89139D02*
X-116268D01*
X-116801Y89673D01*
Y89806D01*
X-116668Y89939D01*
X-116401D01*
X-116268Y89806D01*
X-117068Y89139D02*
X-117334D01*
X-117201D01*
Y89939D01*
X-117068Y89806D01*
X-116267Y25692D02*
X-116134Y25825D01*
X-115867D01*
X-115734Y25692D01*
Y25158D01*
X-115867Y25025D01*
X-116134D01*
X-116267Y25158D01*
X-117067Y25025D02*
X-116533D01*
X-117067Y25558D01*
Y25692D01*
X-116933Y25825D01*
X-116667D01*
X-116533Y25692D01*
X-117333D02*
X-117466Y25825D01*
X-117733D01*
X-117866Y25692D01*
Y25158D01*
X-117733Y25025D01*
X-117466D01*
X-117333Y25158D01*
Y25692D01*
X-161367Y103611D02*
Y102811D01*
X-161767D01*
X-161900Y102944D01*
Y103478D01*
X-161767Y103611D01*
X-161367D01*
X-162566Y102811D02*
Y103611D01*
X-162166Y103211D01*
X-162700D01*
X-163499Y103611D02*
X-163233Y103478D01*
X-162966Y103211D01*
Y102944D01*
X-163099Y102811D01*
X-163366D01*
X-163499Y102944D01*
Y103078D01*
X-163366Y103211D01*
X-162966D01*
X-161367Y114914D02*
Y114114D01*
X-161767D01*
X-161900Y114247D01*
Y114781D01*
X-161767Y114914D01*
X-161367D01*
X-162566Y114114D02*
Y114914D01*
X-162166Y114514D01*
X-162700D01*
X-163499Y114914D02*
X-162966D01*
Y114514D01*
X-163233Y114647D01*
X-163366D01*
X-163499Y114514D01*
Y114247D01*
X-163366Y114114D01*
X-163099D01*
X-162966Y114247D01*
X-161240Y119613D02*
Y118813D01*
X-161640D01*
X-161773Y118946D01*
Y119480D01*
X-161640Y119613D01*
X-161240D01*
X-162439Y118813D02*
Y119613D01*
X-162039Y119213D01*
X-162573D01*
X-163239Y118813D02*
Y119613D01*
X-162839Y119213D01*
X-163372D01*
X-161367Y130789D02*
Y129989D01*
X-161767D01*
X-161900Y130122D01*
Y130656D01*
X-161767Y130789D01*
X-161367D01*
X-162566Y129989D02*
Y130789D01*
X-162166Y130389D01*
X-162700D01*
X-162966Y130656D02*
X-163099Y130789D01*
X-163366D01*
X-163499Y130656D01*
Y130522D01*
X-163366Y130389D01*
X-163233D01*
X-163366D01*
X-163499Y130256D01*
Y130122D01*
X-163366Y129989D01*
X-163099D01*
X-162966Y130122D01*
X-161240Y71353D02*
Y70553D01*
X-161640D01*
X-161773Y70686D01*
Y71220D01*
X-161640Y71353D01*
X-161240D01*
X-162439Y70553D02*
Y71353D01*
X-162039Y70953D01*
X-162573D01*
X-163372Y70553D02*
X-162839D01*
X-163372Y71086D01*
Y71220D01*
X-163239Y71353D01*
X-162972D01*
X-162839Y71220D01*
X-161246Y83037D02*
Y82237D01*
X-161646D01*
X-161779Y82370D01*
Y82904D01*
X-161646Y83037D01*
X-161246D01*
X-162446Y82237D02*
Y83037D01*
X-162046Y82637D01*
X-162579D01*
X-162845Y82237D02*
X-163112D01*
X-162979D01*
Y83037D01*
X-162845Y82904D01*
X-161494Y87736D02*
Y86936D01*
X-161894D01*
X-162027Y87069D01*
Y87603D01*
X-161894Y87736D01*
X-161494D01*
X-162693Y86936D02*
Y87736D01*
X-162293Y87336D01*
X-162827D01*
X-163093Y87603D02*
X-163226Y87736D01*
X-163493D01*
X-163626Y87603D01*
Y87069D01*
X-163493Y86936D01*
X-163226D01*
X-163093Y87069D01*
Y87603D01*
X-161494Y98912D02*
Y98112D01*
X-161894D01*
X-162027Y98245D01*
Y98779D01*
X-161894Y98912D01*
X-161494D01*
X-162293Y98779D02*
X-162427Y98912D01*
X-162693D01*
X-162827Y98779D01*
Y98645D01*
X-162693Y98512D01*
X-162560D01*
X-162693D01*
X-162827Y98379D01*
Y98245D01*
X-162693Y98112D01*
X-162427D01*
X-162293Y98245D01*
X-163093D02*
X-163226Y98112D01*
X-163493D01*
X-163626Y98245D01*
Y98779D01*
X-163493Y98912D01*
X-163226D01*
X-163093Y98779D01*
Y98645D01*
X-163226Y98512D01*
X-163626D01*
X-161367Y39857D02*
Y39057D01*
X-161767D01*
X-161900Y39190D01*
Y39724D01*
X-161767Y39857D01*
X-161367D01*
X-162166Y39724D02*
X-162300Y39857D01*
X-162566D01*
X-162700Y39724D01*
Y39590D01*
X-162566Y39457D01*
X-162433D01*
X-162566D01*
X-162700Y39324D01*
Y39190D01*
X-162566Y39057D01*
X-162300D01*
X-162166Y39190D01*
X-162966Y39724D02*
X-163099Y39857D01*
X-163366D01*
X-163499Y39724D01*
Y39590D01*
X-163366Y39457D01*
X-163499Y39324D01*
Y39190D01*
X-163366Y39057D01*
X-163099D01*
X-162966Y39190D01*
Y39324D01*
X-163099Y39457D01*
X-162966Y39590D01*
Y39724D01*
X-163099Y39457D02*
X-163366D01*
X-161240Y51160D02*
Y50360D01*
X-161640D01*
X-161773Y50493D01*
Y51027D01*
X-161640Y51160D01*
X-161240D01*
X-162039Y51027D02*
X-162173Y51160D01*
X-162439D01*
X-162573Y51027D01*
Y50893D01*
X-162439Y50760D01*
X-162306D01*
X-162439D01*
X-162573Y50627D01*
Y50493D01*
X-162439Y50360D01*
X-162173D01*
X-162039Y50493D01*
X-162839Y51160D02*
X-163372D01*
Y51027D01*
X-162839Y50493D01*
Y50360D01*
X-161367Y55605D02*
Y54805D01*
X-161767D01*
X-161900Y54938D01*
Y55472D01*
X-161767Y55605D01*
X-161367D01*
X-162166Y55472D02*
X-162300Y55605D01*
X-162566D01*
X-162700Y55472D01*
Y55338D01*
X-162566Y55205D01*
X-162433D01*
X-162566D01*
X-162700Y55072D01*
Y54938D01*
X-162566Y54805D01*
X-162300D01*
X-162166Y54938D01*
X-163499Y55605D02*
X-163233Y55472D01*
X-162966Y55205D01*
Y54938D01*
X-163099Y54805D01*
X-163366D01*
X-163499Y54938D01*
Y55072D01*
X-163366Y55205D01*
X-162966D01*
X-161367Y67162D02*
Y66362D01*
X-161767D01*
X-161900Y66495D01*
Y67029D01*
X-161767Y67162D01*
X-161367D01*
X-162166Y67029D02*
X-162300Y67162D01*
X-162566D01*
X-162700Y67029D01*
Y66895D01*
X-162566Y66762D01*
X-162433D01*
X-162566D01*
X-162700Y66629D01*
Y66495D01*
X-162566Y66362D01*
X-162300D01*
X-162166Y66495D01*
X-163499Y67162D02*
X-162966D01*
Y66762D01*
X-163233Y66895D01*
X-163366D01*
X-163499Y66762D01*
Y66495D01*
X-163366Y66362D01*
X-163099D01*
X-162966Y66495D01*
X-161494Y7726D02*
Y6926D01*
X-161894D01*
X-162027Y7059D01*
Y7593D01*
X-161894Y7726D01*
X-161494D01*
X-162293Y7593D02*
X-162427Y7726D01*
X-162693D01*
X-162827Y7593D01*
Y7459D01*
X-162693Y7326D01*
X-162560D01*
X-162693D01*
X-162827Y7193D01*
Y7059D01*
X-162693Y6926D01*
X-162427D01*
X-162293Y7059D01*
X-163493Y6926D02*
Y7726D01*
X-163093Y7326D01*
X-163626D01*
X-161240Y19029D02*
Y18229D01*
X-161640D01*
X-161773Y18362D01*
Y18896D01*
X-161640Y19029D01*
X-161240D01*
X-162039Y18896D02*
X-162173Y19029D01*
X-162439D01*
X-162573Y18896D01*
Y18762D01*
X-162439Y18629D01*
X-162306D01*
X-162439D01*
X-162573Y18496D01*
Y18362D01*
X-162439Y18229D01*
X-162173D01*
X-162039Y18362D01*
X-162839Y18896D02*
X-162972Y19029D01*
X-163239D01*
X-163372Y18896D01*
Y18762D01*
X-163239Y18629D01*
X-163106D01*
X-163239D01*
X-163372Y18496D01*
Y18362D01*
X-163239Y18229D01*
X-162972D01*
X-162839Y18362D01*
X-161367Y23855D02*
Y23055D01*
X-161767D01*
X-161900Y23188D01*
Y23722D01*
X-161767Y23855D01*
X-161367D01*
X-162166Y23722D02*
X-162300Y23855D01*
X-162566D01*
X-162700Y23722D01*
Y23588D01*
X-162566Y23455D01*
X-162433D01*
X-162566D01*
X-162700Y23322D01*
Y23188D01*
X-162566Y23055D01*
X-162300D01*
X-162166Y23188D01*
X-163499Y23055D02*
X-162966D01*
X-163499Y23588D01*
Y23722D01*
X-163366Y23855D01*
X-163099D01*
X-162966Y23722D01*
X-161240Y35158D02*
Y34358D01*
X-161640D01*
X-161773Y34491D01*
Y35025D01*
X-161640Y35158D01*
X-161240D01*
X-162573Y34358D02*
X-162039D01*
X-162573Y34891D01*
Y35025D01*
X-162439Y35158D01*
X-162173D01*
X-162039Y35025D01*
X-162839D02*
X-162972Y35158D01*
X-163239D01*
X-163372Y35025D01*
Y34891D01*
X-163239Y34758D01*
X-163372Y34625D01*
Y34491D01*
X-163239Y34358D01*
X-162972D01*
X-162839Y34491D01*
Y34625D01*
X-162972Y34758D01*
X-162839Y34891D01*
Y35025D01*
X-162972Y34758D02*
X-163239D01*
X-16759Y48625D02*
Y47825D01*
X-17159D01*
X-17292Y47958D01*
Y48492D01*
X-17159Y48625D01*
X-16759D01*
X-18092Y47825D02*
X-17558D01*
X-18092Y48358D01*
Y48492D01*
X-17958Y48625D01*
X-17692D01*
X-17558Y48492D01*
X-18358Y48625D02*
X-18891D01*
Y48492D01*
X-18358Y47958D01*
Y47825D01*
X-60421Y126725D02*
X-60954D01*
Y126592D01*
X-60421Y126058D01*
Y125925D01*
X-60954D01*
X-61753D02*
X-61220D01*
X-61753Y126458D01*
Y126592D01*
X-61620Y126725D01*
X-61354D01*
X-61220Y126592D01*
X-55220Y126471D02*
X-55753D01*
Y126338D01*
X-55220Y125804D01*
Y125671D01*
X-55753D01*
X-56020D02*
X-56286D01*
X-56153D01*
Y126471D01*
X-56020Y126338D01*
X-111268Y105897D02*
Y105230D01*
X-111402Y105097D01*
X-111668D01*
X-111801Y105230D01*
Y105897D01*
X-112068Y105097D02*
X-112335D01*
X-112201D01*
Y105897D01*
X-112068Y105764D01*
X-113268Y105097D02*
X-112735D01*
X-113268Y105630D01*
Y105764D01*
X-113134Y105897D01*
X-112868D01*
X-112735Y105764D01*
X-111275Y41889D02*
Y41222D01*
X-111408Y41089D01*
X-111674D01*
X-111808Y41222D01*
Y41889D01*
X-112074Y41089D02*
X-112341D01*
X-112208D01*
Y41889D01*
X-112074Y41756D01*
X-112741Y41089D02*
X-113007D01*
X-112874D01*
Y41889D01*
X-112741Y41756D01*
X-111141Y121518D02*
Y120851D01*
X-111275Y120718D01*
X-111541D01*
X-111674Y120851D01*
Y121518D01*
X-111941Y120718D02*
X-112208D01*
X-112074D01*
Y121518D01*
X-111941Y121385D01*
X-112608D02*
X-112741Y121518D01*
X-113007D01*
X-113141Y121385D01*
Y120851D01*
X-113007Y120718D01*
X-112741D01*
X-112608Y120851D01*
Y121385D01*
X-111729Y57637D02*
Y56970D01*
X-111862Y56837D01*
X-112128D01*
X-112262Y56970D01*
Y57637D01*
X-112528Y56970D02*
X-112662Y56837D01*
X-112928D01*
X-113061Y56970D01*
Y57504D01*
X-112928Y57637D01*
X-112662D01*
X-112528Y57504D01*
Y57370D01*
X-112662Y57237D01*
X-113061D01*
X-111729Y9885D02*
Y9218D01*
X-111862Y9085D01*
X-112128D01*
X-112262Y9218D01*
Y9885D01*
X-112528Y9752D02*
X-112662Y9885D01*
X-112928D01*
X-113061Y9752D01*
Y9618D01*
X-112928Y9485D01*
X-113061Y9352D01*
Y9218D01*
X-112928Y9085D01*
X-112662D01*
X-112528Y9218D01*
Y9352D01*
X-112662Y9485D01*
X-112528Y9618D01*
Y9752D01*
X-112662Y9485D02*
X-112928D01*
X-111729Y73893D02*
Y73226D01*
X-111862Y73093D01*
X-112128D01*
X-112262Y73226D01*
Y73893D01*
X-112528D02*
X-113061D01*
Y73760D01*
X-112528Y73226D01*
Y73093D01*
X-111729Y89768D02*
Y89101D01*
X-111862Y88968D01*
X-112128D01*
X-112262Y89101D01*
Y89768D01*
X-113061D02*
X-112795Y89635D01*
X-112528Y89368D01*
Y89101D01*
X-112662Y88968D01*
X-112928D01*
X-113061Y89101D01*
Y89235D01*
X-112928Y89368D01*
X-112528D01*
X-111722Y25754D02*
Y25620D01*
X-111589D01*
X-111856D01*
X-111722D01*
Y25220D01*
X-111856Y25087D01*
X-112789Y25887D02*
Y25087D01*
X-112389D01*
X-112255Y25220D01*
Y25487D01*
X-112389Y25620D01*
X-112789D01*
X-113055D02*
Y25087D01*
Y25354D01*
X-113188Y25487D01*
X-113322Y25620D01*
X-113455D01*
X-72613Y78465D02*
Y77798D01*
X-72746Y77665D01*
X-73012D01*
X-73146Y77798D01*
Y78465D01*
X-73812Y77665D02*
Y78465D01*
X-73412Y78065D01*
X-73945D01*
X-26004Y70591D02*
Y69924D01*
X-26137Y69791D01*
X-26403D01*
X-26537Y69924D01*
Y70591D01*
X-27336Y69791D02*
X-26803D01*
X-27336Y70324D01*
Y70458D01*
X-27203Y70591D01*
X-26937D01*
X-26803Y70458D01*
X-11151Y32364D02*
Y31697D01*
X-11284Y31564D01*
X-11551D01*
X-11684Y31697D01*
Y32364D01*
X-11951Y31564D02*
X-12217D01*
X-12084D01*
Y32364D01*
X-11951Y32231D01*
X-68472Y32028D02*
X-67672D01*
Y32428D01*
X-67805Y32561D01*
X-68072D01*
X-68205Y32428D01*
Y32028D01*
Y32295D02*
X-68472Y32561D01*
Y32828D02*
Y33094D01*
Y32961D01*
X-67672D01*
X-67805Y32828D01*
X-68472Y33494D02*
Y33761D01*
Y33628D01*
X-67672D01*
X-67805Y33494D01*
Y34161D02*
X-67672Y34294D01*
Y34561D01*
X-67805Y34694D01*
X-67939D01*
X-68072Y34561D01*
X-68205Y34694D01*
X-68339D01*
X-68472Y34561D01*
Y34294D01*
X-68339Y34161D01*
X-68205D01*
X-68072Y34294D01*
X-67939Y34161D01*
X-67805D01*
X-68072Y34294D02*
Y34561D01*
X-50692Y32028D02*
X-49892D01*
Y32428D01*
X-50025Y32561D01*
X-50292D01*
X-50425Y32428D01*
Y32028D01*
Y32295D02*
X-50692Y32561D01*
Y32828D02*
Y33094D01*
Y32961D01*
X-49892D01*
X-50025Y32828D01*
X-50692Y33494D02*
Y33761D01*
Y33628D01*
X-49892D01*
X-50025Y33494D01*
X-49892Y34161D02*
Y34694D01*
X-50025D01*
X-50559Y34161D01*
X-50692D01*
X-86125Y32282D02*
X-85325D01*
Y32682D01*
X-85458Y32815D01*
X-85725D01*
X-85858Y32682D01*
Y32282D01*
Y32549D02*
X-86125Y32815D01*
Y33082D02*
Y33348D01*
Y33215D01*
X-85325D01*
X-85458Y33082D01*
X-86125Y33748D02*
Y34015D01*
Y33882D01*
X-85325D01*
X-85458Y33748D01*
X-85325Y34948D02*
X-85458Y34681D01*
X-85725Y34415D01*
X-85992D01*
X-86125Y34548D01*
Y34815D01*
X-85992Y34948D01*
X-85858D01*
X-85725Y34815D01*
Y34415D01*
X-81680Y11962D02*
X-80880D01*
Y12362D01*
X-81013Y12495D01*
X-81280D01*
X-81413Y12362D01*
Y11962D01*
Y12229D02*
X-81680Y12495D01*
Y12762D02*
Y13028D01*
Y12895D01*
X-80880D01*
X-81013Y12762D01*
X-81680Y13428D02*
Y13695D01*
Y13562D01*
X-80880D01*
X-81013Y13428D01*
X-80880Y14628D02*
Y14095D01*
X-81280D01*
X-81147Y14361D01*
Y14495D01*
X-81280Y14628D01*
X-81547D01*
X-81680Y14495D01*
Y14228D01*
X-81547Y14095D01*
X-79013Y11835D02*
X-78213D01*
Y12235D01*
X-78346Y12368D01*
X-78613D01*
X-78746Y12235D01*
Y11835D01*
Y12102D02*
X-79013Y12368D01*
Y12635D02*
Y12901D01*
Y12768D01*
X-78213D01*
X-78346Y12635D01*
X-79013Y13301D02*
Y13568D01*
Y13435D01*
X-78213D01*
X-78346Y13301D01*
X-79013Y14368D02*
X-78213D01*
X-78613Y13968D01*
Y14501D01*
X-76473Y11708D02*
X-75673D01*
Y12108D01*
X-75806Y12241D01*
X-76073D01*
X-76206Y12108D01*
Y11708D01*
Y11975D02*
X-76473Y12241D01*
Y12508D02*
Y12774D01*
Y12641D01*
X-75673D01*
X-75806Y12508D01*
X-76473Y13174D02*
Y13441D01*
Y13308D01*
X-75673D01*
X-75806Y13174D01*
Y13841D02*
X-75673Y13974D01*
Y14241D01*
X-75806Y14374D01*
X-75940D01*
X-76073Y14241D01*
Y14107D01*
Y14241D01*
X-76206Y14374D01*
X-76340D01*
X-76473Y14241D01*
Y13974D01*
X-76340Y13841D01*
X-115367Y114500D02*
Y115300D01*
X-115767D01*
X-115900Y115167D01*
Y114900D01*
X-115767Y114767D01*
X-115367D01*
X-115634D02*
X-115900Y114500D01*
X-116167D02*
X-116433D01*
X-116300D01*
Y115300D01*
X-116167Y115167D01*
X-116833Y114500D02*
X-117100D01*
X-116967D01*
Y115300D01*
X-116833Y115167D01*
X-118033Y114500D02*
X-117500D01*
X-118033Y115033D01*
Y115167D01*
X-117900Y115300D01*
X-117633D01*
X-117500Y115167D01*
X-115375Y50500D02*
Y51300D01*
X-115775D01*
X-115909Y51167D01*
Y50900D01*
X-115775Y50767D01*
X-115375D01*
X-115642D02*
X-115909Y50500D01*
X-116175D02*
X-116442D01*
X-116308D01*
Y51300D01*
X-116175Y51167D01*
X-116842Y50500D02*
X-117108D01*
X-116975D01*
Y51300D01*
X-116842Y51167D01*
X-117508Y50500D02*
X-117775D01*
X-117641D01*
Y51300D01*
X-117508Y51167D01*
X-120333Y117924D02*
Y118724D01*
X-120733D01*
X-120866Y118591D01*
Y118324D01*
X-120733Y118191D01*
X-120333D01*
X-120600D02*
X-120866Y117924D01*
X-121133D02*
X-121399D01*
X-121266D01*
Y118724D01*
X-121133Y118591D01*
X-121799Y117924D02*
X-122066D01*
X-121933D01*
Y118724D01*
X-121799Y118591D01*
X-122466D02*
X-122599Y118724D01*
X-122866D01*
X-122999Y118591D01*
Y118057D01*
X-122866Y117924D01*
X-122599D01*
X-122466Y118057D01*
Y118591D01*
X-120139Y54297D02*
Y55097D01*
X-120539D01*
X-120673Y54964D01*
Y54697D01*
X-120539Y54564D01*
X-120139D01*
X-120406D02*
X-120673Y54297D01*
X-120939D02*
X-121206D01*
X-121072D01*
Y55097D01*
X-120939Y54964D01*
X-121606D02*
X-121739Y55097D01*
X-122006D01*
X-122139Y54964D01*
Y54430D01*
X-122006Y54297D01*
X-121739D01*
X-121606Y54430D01*
Y54964D01*
X-122405D02*
X-122539Y55097D01*
X-122805D01*
X-122939Y54964D01*
Y54830D01*
X-122805Y54697D01*
X-122939Y54564D01*
Y54430D01*
X-122805Y54297D01*
X-122539D01*
X-122405Y54430D01*
Y54564D01*
X-122539Y54697D01*
X-122405Y54830D01*
Y54964D01*
X-122539Y54697D02*
X-122805D01*
X-130045Y107256D02*
Y108056D01*
X-130445D01*
X-130579Y107923D01*
Y107656D01*
X-130445Y107523D01*
X-130045D01*
X-130312D02*
X-130579Y107256D01*
X-130845D02*
X-131112D01*
X-130978D01*
Y108056D01*
X-130845Y107923D01*
X-131512D02*
X-131645Y108056D01*
X-131912D01*
X-132045Y107923D01*
Y107389D01*
X-131912Y107256D01*
X-131645D01*
X-131512Y107389D01*
Y107923D01*
X-132845Y108056D02*
X-132578Y107923D01*
X-132311Y107656D01*
Y107389D01*
X-132445Y107256D01*
X-132711D01*
X-132845Y107389D01*
Y107523D01*
X-132711Y107656D01*
X-132311D01*
X-130045Y43248D02*
Y44048D01*
X-130445D01*
X-130579Y43915D01*
Y43648D01*
X-130445Y43515D01*
X-130045D01*
X-130312D02*
X-130579Y43248D01*
X-130845D02*
X-131112D01*
X-130978D01*
Y44048D01*
X-130845Y43915D01*
X-131512D02*
X-131645Y44048D01*
X-131912D01*
X-132045Y43915D01*
Y43381D01*
X-131912Y43248D01*
X-131645D01*
X-131512Y43381D01*
Y43915D01*
X-132845Y44048D02*
X-132311D01*
Y43648D01*
X-132578Y43781D01*
X-132711D01*
X-132845Y43648D01*
Y43381D01*
X-132711Y43248D01*
X-132445D01*
X-132311Y43381D01*
X-120774Y105478D02*
Y106278D01*
X-121174D01*
X-121308Y106145D01*
Y105878D01*
X-121174Y105745D01*
X-120774D01*
X-121041D02*
X-121308Y105478D01*
X-121574D02*
X-121841D01*
X-121707D01*
Y106278D01*
X-121574Y106145D01*
X-122241D02*
X-122374Y106278D01*
X-122641D01*
X-122774Y106145D01*
Y105611D01*
X-122641Y105478D01*
X-122374D01*
X-122241Y105611D01*
Y106145D01*
X-123440Y105478D02*
Y106278D01*
X-123040Y105878D01*
X-123574D01*
X-121028Y41851D02*
Y42651D01*
X-121428D01*
X-121562Y42518D01*
Y42251D01*
X-121428Y42118D01*
X-121028D01*
X-121295D02*
X-121562Y41851D01*
X-121828D02*
X-122095D01*
X-121961D01*
Y42651D01*
X-121828Y42518D01*
X-122495D02*
X-122628Y42651D01*
X-122895D01*
X-123028Y42518D01*
Y41984D01*
X-122895Y41851D01*
X-122628D01*
X-122495Y41984D01*
Y42518D01*
X-123294D02*
X-123428Y42651D01*
X-123694D01*
X-123828Y42518D01*
Y42384D01*
X-123694Y42251D01*
X-123561D01*
X-123694D01*
X-123828Y42118D01*
Y41984D01*
X-123694Y41851D01*
X-123428D01*
X-123294Y41984D01*
X-35176Y16831D02*
Y17631D01*
X-35576D01*
X-35710Y17497D01*
Y17231D01*
X-35576Y17097D01*
X-35176D01*
X-35443D02*
X-35710Y16831D01*
X-35976D02*
X-36243D01*
X-36109D01*
Y17631D01*
X-35976Y17497D01*
X-36643D02*
X-36776Y17631D01*
X-37043D01*
X-37176Y17497D01*
Y16964D01*
X-37043Y16831D01*
X-36776D01*
X-36643Y16964D01*
Y17497D01*
X-37976Y16831D02*
X-37442D01*
X-37976Y17364D01*
Y17497D01*
X-37842Y17631D01*
X-37576D01*
X-37442Y17497D01*
X-16006Y16959D02*
Y17759D01*
X-16406D01*
X-16539Y17626D01*
Y17359D01*
X-16406Y17226D01*
X-16006D01*
X-16272D02*
X-16539Y16959D01*
X-16805D02*
X-17072D01*
X-16939D01*
Y17759D01*
X-16805Y17626D01*
X-17472D02*
X-17605Y17759D01*
X-17872D01*
X-18005Y17626D01*
Y17092D01*
X-17872Y16959D01*
X-17605D01*
X-17472Y17092D01*
Y17626D01*
X-18272Y16959D02*
X-18538D01*
X-18405D01*
Y17759D01*
X-18272Y17626D01*
X-29842Y16832D02*
Y17632D01*
X-30242D01*
X-30376Y17499D01*
Y17232D01*
X-30242Y17099D01*
X-29842D01*
X-30109D02*
X-30376Y16832D01*
X-30642D02*
X-30909D01*
X-30775D01*
Y17632D01*
X-30642Y17499D01*
X-31309D02*
X-31442Y17632D01*
X-31709D01*
X-31842Y17499D01*
Y16965D01*
X-31709Y16832D01*
X-31442D01*
X-31309Y16965D01*
Y17499D01*
X-32108D02*
X-32242Y17632D01*
X-32508D01*
X-32642Y17499D01*
Y16965D01*
X-32508Y16832D01*
X-32242D01*
X-32108Y16965D01*
Y17499D01*
X-9221Y16832D02*
Y17632D01*
X-9621D01*
X-9754Y17499D01*
Y17232D01*
X-9621Y17099D01*
X-9221D01*
X-9487D02*
X-9754Y16832D01*
X-10020Y16965D02*
X-10154Y16832D01*
X-10420D01*
X-10554Y16965D01*
Y17499D01*
X-10420Y17632D01*
X-10154D01*
X-10020Y17499D01*
Y17365D01*
X-10154Y17232D01*
X-10554D01*
X-10820Y16965D02*
X-10953Y16832D01*
X-11220D01*
X-11353Y16965D01*
Y17499D01*
X-11220Y17632D01*
X-10953D01*
X-10820Y17499D01*
Y17365D01*
X-10953Y17232D01*
X-11353D01*
X-33801Y9054D02*
X-33001D01*
Y9454D01*
X-33134Y9587D01*
X-33401D01*
X-33534Y9454D01*
Y9054D01*
Y9320D02*
X-33801Y9587D01*
X-33668Y9853D02*
X-33801Y9987D01*
Y10253D01*
X-33668Y10387D01*
X-33134D01*
X-33001Y10253D01*
Y9987D01*
X-33134Y9853D01*
X-33268D01*
X-33401Y9987D01*
Y10387D01*
X-33134Y10653D02*
X-33001Y10786D01*
Y11053D01*
X-33134Y11186D01*
X-33268D01*
X-33401Y11053D01*
X-33534Y11186D01*
X-33668D01*
X-33801Y11053D01*
Y10786D01*
X-33668Y10653D01*
X-33534D01*
X-33401Y10786D01*
X-33268Y10653D01*
X-33134D01*
X-33401Y10786D02*
Y11053D01*
X-13481Y9054D02*
X-12681D01*
Y9454D01*
X-12814Y9587D01*
X-13081D01*
X-13214Y9454D01*
Y9054D01*
Y9320D02*
X-13481Y9587D01*
X-13348Y9853D02*
X-13481Y9987D01*
Y10253D01*
X-13348Y10387D01*
X-12814D01*
X-12681Y10253D01*
Y9987D01*
X-12814Y9853D01*
X-12948D01*
X-13081Y9987D01*
Y10387D01*
X-12681Y10653D02*
Y11186D01*
X-12814D01*
X-13348Y10653D01*
X-13481D01*
X-36725Y24209D02*
X-35925D01*
Y24609D01*
X-36058Y24742D01*
X-36325D01*
X-36458Y24609D01*
Y24209D01*
Y24475D02*
X-36725Y24742D01*
X-36592Y25008D02*
X-36725Y25142D01*
Y25408D01*
X-36592Y25542D01*
X-36058D01*
X-35925Y25408D01*
Y25142D01*
X-36058Y25008D01*
X-36192D01*
X-36325Y25142D01*
Y25542D01*
X-35925Y26341D02*
X-36058Y26075D01*
X-36325Y25808D01*
X-36592D01*
X-36725Y25941D01*
Y26208D01*
X-36592Y26341D01*
X-36458D01*
X-36325Y26208D01*
Y25808D01*
X-17164Y24294D02*
X-16364D01*
Y24694D01*
X-16497Y24827D01*
X-16764D01*
X-16897Y24694D01*
Y24294D01*
Y24560D02*
X-17164Y24827D01*
X-17031Y25093D02*
X-17164Y25227D01*
Y25493D01*
X-17031Y25627D01*
X-16497D01*
X-16364Y25493D01*
Y25227D01*
X-16497Y25093D01*
X-16631D01*
X-16764Y25227D01*
Y25627D01*
X-16364Y26426D02*
Y25893D01*
X-16764D01*
X-16631Y26160D01*
Y26293D01*
X-16764Y26426D01*
X-17031D01*
X-17164Y26293D01*
Y26026D01*
X-17031Y25893D01*
X-45543Y16832D02*
Y17632D01*
X-45943D01*
X-46076Y17499D01*
Y17232D01*
X-45943Y17099D01*
X-45543D01*
X-45809D02*
X-46076Y16832D01*
X-46342Y16965D02*
X-46476Y16832D01*
X-46742D01*
X-46876Y16965D01*
Y17499D01*
X-46742Y17632D01*
X-46476D01*
X-46342Y17499D01*
Y17365D01*
X-46476Y17232D01*
X-46876D01*
X-47542Y16832D02*
Y17632D01*
X-47142Y17232D01*
X-47675D01*
X-24925Y16641D02*
Y17441D01*
X-25325D01*
X-25458Y17307D01*
Y17041D01*
X-25325Y16908D01*
X-24925D01*
X-25191D02*
X-25458Y16641D01*
X-25725Y16774D02*
X-25858Y16641D01*
X-26125D01*
X-26258Y16774D01*
Y17307D01*
X-26125Y17441D01*
X-25858D01*
X-25725Y17307D01*
Y17174D01*
X-25858Y17041D01*
X-26258D01*
X-26524Y17307D02*
X-26658Y17441D01*
X-26924D01*
X-27058Y17307D01*
Y17174D01*
X-26924Y17041D01*
X-26791D01*
X-26924D01*
X-27058Y16908D01*
Y16774D01*
X-26924Y16641D01*
X-26658D01*
X-26524Y16774D01*
X-39770Y31533D02*
X-38970D01*
Y31933D01*
X-39103Y32066D01*
X-39370D01*
X-39503Y31933D01*
Y31533D01*
Y31799D02*
X-39770Y32066D01*
X-39637Y32332D02*
X-39770Y32466D01*
Y32732D01*
X-39637Y32866D01*
X-39103D01*
X-38970Y32732D01*
Y32466D01*
X-39103Y32332D01*
X-39237D01*
X-39370Y32466D01*
Y32866D01*
X-39770Y33665D02*
Y33132D01*
X-39237Y33665D01*
X-39103D01*
X-38970Y33532D01*
Y33265D01*
X-39103Y33132D01*
X-20339Y31793D02*
X-19539D01*
Y32193D01*
X-19672Y32326D01*
X-19939D01*
X-20072Y32193D01*
Y31793D01*
Y32060D02*
X-20339Y32326D01*
X-20206Y32593D02*
X-20339Y32726D01*
Y32993D01*
X-20206Y33126D01*
X-19672D01*
X-19539Y32993D01*
Y32726D01*
X-19672Y32593D01*
X-19806D01*
X-19939Y32726D01*
Y33126D01*
X-20339Y33392D02*
Y33659D01*
Y33526D01*
X-19539D01*
X-19672Y33392D01*
X-43834Y31660D02*
X-43034D01*
Y32060D01*
X-43167Y32193D01*
X-43434D01*
X-43567Y32060D01*
Y31660D01*
Y31926D02*
X-43834Y32193D01*
X-43701Y32459D02*
X-43834Y32593D01*
Y32859D01*
X-43701Y32993D01*
X-43167D01*
X-43034Y32859D01*
Y32593D01*
X-43167Y32459D01*
X-43301D01*
X-43434Y32593D01*
Y32993D01*
X-43167Y33259D02*
X-43034Y33392D01*
Y33659D01*
X-43167Y33792D01*
X-43701D01*
X-43834Y33659D01*
Y33392D01*
X-43701Y33259D01*
X-43167D01*
X-24149Y31660D02*
X-23349D01*
Y32060D01*
X-23482Y32193D01*
X-23749D01*
X-23882Y32060D01*
Y31660D01*
Y31926D02*
X-24149Y32193D01*
X-23482Y32459D02*
X-23349Y32593D01*
Y32859D01*
X-23482Y32993D01*
X-23616D01*
X-23749Y32859D01*
X-23882Y32993D01*
X-24016D01*
X-24149Y32859D01*
Y32593D01*
X-24016Y32459D01*
X-23882D01*
X-23749Y32593D01*
X-23616Y32459D01*
X-23482D01*
X-23749Y32593D02*
Y32859D01*
X-24016Y33259D02*
X-24149Y33392D01*
Y33659D01*
X-24016Y33792D01*
X-23482D01*
X-23349Y33659D01*
Y33392D01*
X-23482Y33259D01*
X-23616D01*
X-23749Y33392D01*
Y33792D01*
X-40590Y16832D02*
Y17632D01*
X-40990D01*
X-41123Y17499D01*
Y17232D01*
X-40990Y17099D01*
X-40590D01*
X-40856D02*
X-41123Y16832D01*
X-41389Y17499D02*
X-41523Y17632D01*
X-41789D01*
X-41923Y17499D01*
Y17365D01*
X-41789Y17232D01*
X-41923Y17099D01*
Y16965D01*
X-41789Y16832D01*
X-41523D01*
X-41389Y16965D01*
Y17099D01*
X-41523Y17232D01*
X-41389Y17365D01*
Y17499D01*
X-41523Y17232D02*
X-41789D01*
X-42189Y17499D02*
X-42322Y17632D01*
X-42589D01*
X-42722Y17499D01*
Y17365D01*
X-42589Y17232D01*
X-42722Y17099D01*
Y16965D01*
X-42589Y16832D01*
X-42322D01*
X-42189Y16965D01*
Y17099D01*
X-42322Y17232D01*
X-42189Y17365D01*
Y17499D01*
X-42322Y17232D02*
X-42589D01*
X-19889Y16959D02*
Y17759D01*
X-20289D01*
X-20422Y17626D01*
Y17359D01*
X-20289Y17226D01*
X-19889D01*
X-20155D02*
X-20422Y16959D01*
X-20688Y17626D02*
X-20822Y17759D01*
X-21088D01*
X-21222Y17626D01*
Y17492D01*
X-21088Y17359D01*
X-21222Y17226D01*
Y17092D01*
X-21088Y16959D01*
X-20822D01*
X-20688Y17092D01*
Y17226D01*
X-20822Y17359D01*
X-20688Y17492D01*
Y17626D01*
X-20822Y17359D02*
X-21088D01*
X-21488Y17759D02*
X-22021D01*
Y17626D01*
X-21488Y17092D01*
Y16959D01*
X-42056Y9054D02*
X-41256D01*
Y9454D01*
X-41389Y9587D01*
X-41656D01*
X-41789Y9454D01*
Y9054D01*
Y9320D02*
X-42056Y9587D01*
X-41389Y9853D02*
X-41256Y9987D01*
Y10253D01*
X-41389Y10387D01*
X-41523D01*
X-41656Y10253D01*
X-41789Y10387D01*
X-41923D01*
X-42056Y10253D01*
Y9987D01*
X-41923Y9853D01*
X-41789D01*
X-41656Y9987D01*
X-41523Y9853D01*
X-41389D01*
X-41656Y9987D02*
Y10253D01*
X-41256Y11186D02*
X-41389Y10920D01*
X-41656Y10653D01*
X-41923D01*
X-42056Y10786D01*
Y11053D01*
X-41923Y11186D01*
X-41789D01*
X-41656Y11053D01*
Y10653D01*
X-21736Y9181D02*
X-20936D01*
Y9581D01*
X-21069Y9714D01*
X-21336D01*
X-21469Y9581D01*
Y9181D01*
Y9447D02*
X-21736Y9714D01*
X-21069Y9980D02*
X-20936Y10114D01*
Y10380D01*
X-21069Y10514D01*
X-21203D01*
X-21336Y10380D01*
X-21469Y10514D01*
X-21603D01*
X-21736Y10380D01*
Y10114D01*
X-21603Y9980D01*
X-21469D01*
X-21336Y10114D01*
X-21203Y9980D01*
X-21069D01*
X-21336Y10114D02*
Y10380D01*
X-20936Y11313D02*
Y10780D01*
X-21336D01*
X-21203Y11047D01*
Y11180D01*
X-21336Y11313D01*
X-21603D01*
X-21736Y11180D01*
Y10913D01*
X-21603Y10780D01*
X-34462Y19409D02*
Y20209D01*
X-34862D01*
X-34995Y20076D01*
Y19809D01*
X-34862Y19676D01*
X-34462D01*
X-34728D02*
X-34995Y19409D01*
X-35262Y20076D02*
X-35395Y20209D01*
X-35661D01*
X-35795Y20076D01*
Y19942D01*
X-35661Y19809D01*
X-35795Y19676D01*
Y19542D01*
X-35661Y19409D01*
X-35395D01*
X-35262Y19542D01*
Y19676D01*
X-35395Y19809D01*
X-35262Y19942D01*
Y20076D01*
X-35395Y19809D02*
X-35661D01*
X-36461Y19409D02*
Y20209D01*
X-36061Y19809D01*
X-36594D01*
X-27534Y22725D02*
Y23525D01*
X-27934D01*
X-28067Y23392D01*
Y23125D01*
X-27934Y22992D01*
X-27534D01*
X-27800D02*
X-28067Y22725D01*
X-28333Y23392D02*
X-28467Y23525D01*
X-28733D01*
X-28867Y23392D01*
Y23258D01*
X-28733Y23125D01*
X-28867Y22992D01*
Y22858D01*
X-28733Y22725D01*
X-28467D01*
X-28333Y22858D01*
Y22992D01*
X-28467Y23125D01*
X-28333Y23258D01*
Y23392D01*
X-28467Y23125D02*
X-28733D01*
X-29133Y23392D02*
X-29266Y23525D01*
X-29533D01*
X-29666Y23392D01*
Y23258D01*
X-29533Y23125D01*
X-29400D01*
X-29533D01*
X-29666Y22992D01*
Y22858D01*
X-29533Y22725D01*
X-29266D01*
X-29133Y22858D01*
X-108148Y40535D02*
X-107348D01*
Y40935D01*
X-107482Y41068D01*
X-107748D01*
X-107881Y40935D01*
Y40535D01*
Y40801D02*
X-108148Y41068D01*
X-107482Y41335D02*
X-107348Y41468D01*
Y41734D01*
X-107482Y41868D01*
X-107615D01*
X-107748Y41734D01*
X-107881Y41868D01*
X-108015D01*
X-108148Y41734D01*
Y41468D01*
X-108015Y41335D01*
X-107881D01*
X-107748Y41468D01*
X-107615Y41335D01*
X-107482D01*
X-107748Y41468D02*
Y41734D01*
X-107482Y42134D02*
X-107348Y42268D01*
Y42534D01*
X-107482Y42667D01*
X-108015D01*
X-108148Y42534D01*
Y42268D01*
X-108015Y42134D01*
X-107482D01*
X-104950Y40613D02*
X-104150D01*
Y41013D01*
X-104283Y41146D01*
X-104550D01*
X-104683Y41013D01*
Y40613D01*
Y40880D02*
X-104950Y41146D01*
X-104150Y41413D02*
Y41946D01*
X-104283D01*
X-104816Y41413D01*
X-104950D01*
X-104816Y42212D02*
X-104950Y42346D01*
Y42612D01*
X-104816Y42746D01*
X-104283D01*
X-104150Y42612D01*
Y42346D01*
X-104283Y42212D01*
X-104417D01*
X-104550Y42346D01*
Y42746D01*
X-120092Y111955D02*
Y112755D01*
X-120492D01*
X-120625Y112622D01*
Y112355D01*
X-120492Y112222D01*
X-120092D01*
X-120358D02*
X-120625Y111955D01*
X-120891Y112755D02*
X-121425D01*
Y112622D01*
X-120891Y112088D01*
Y111955D01*
X-121691Y112622D02*
X-121824Y112755D01*
X-122091D01*
X-122224Y112622D01*
Y112488D01*
X-122091Y112355D01*
X-122224Y112222D01*
Y112088D01*
X-122091Y111955D01*
X-121824D01*
X-121691Y112088D01*
Y112222D01*
X-121824Y112355D01*
X-121691Y112488D01*
Y112622D01*
X-121824Y112355D02*
X-122091D01*
X-40413Y117892D02*
Y118692D01*
X-40813D01*
X-40946Y118559D01*
Y118292D01*
X-40813Y118159D01*
X-40413D01*
X-40679D02*
X-40946Y117892D01*
X-41213Y118692D02*
X-41746D01*
Y118559D01*
X-41213Y118025D01*
Y117892D01*
X-42012Y118692D02*
X-42545D01*
Y118559D01*
X-42012Y118025D01*
Y117892D01*
X-20359Y117861D02*
Y118661D01*
X-20759D01*
X-20892Y118527D01*
Y118261D01*
X-20759Y118128D01*
X-20359D01*
X-20625D02*
X-20892Y117861D01*
X-21159Y118661D02*
X-21692D01*
Y118527D01*
X-21159Y117994D01*
Y117861D01*
X-22491Y118661D02*
X-22225Y118527D01*
X-21958Y118261D01*
Y117994D01*
X-22092Y117861D01*
X-22358D01*
X-22491Y117994D01*
Y118128D01*
X-22358Y118261D01*
X-21958D01*
X-118949Y47693D02*
Y48493D01*
X-119349D01*
X-119482Y48360D01*
Y48093D01*
X-119349Y47960D01*
X-118949D01*
X-119215D02*
X-119482Y47693D01*
X-119748Y48493D02*
X-120282D01*
Y48360D01*
X-119748Y47826D01*
Y47693D01*
X-121081Y48493D02*
X-120548D01*
Y48093D01*
X-120815Y48226D01*
X-120948D01*
X-121081Y48093D01*
Y47826D01*
X-120948Y47693D01*
X-120681D01*
X-120548Y47826D01*
X-45924Y117797D02*
Y118597D01*
X-46324D01*
X-46457Y118464D01*
Y118197D01*
X-46324Y118064D01*
X-45924D01*
X-46190D02*
X-46457Y117797D01*
X-46723Y118597D02*
X-47257D01*
Y118464D01*
X-46723Y117930D01*
Y117797D01*
X-47923D02*
Y118597D01*
X-47523Y118197D01*
X-48056D01*
X-45358Y124751D02*
X-44558D01*
Y125151D01*
X-44691Y125284D01*
X-44958D01*
X-45091Y125151D01*
Y124751D01*
Y125017D02*
X-45358Y125284D01*
X-44558Y125550D02*
Y126084D01*
X-44691D01*
X-45225Y125550D01*
X-45358D01*
X-44691Y126350D02*
X-44558Y126483D01*
Y126750D01*
X-44691Y126883D01*
X-44825D01*
X-44958Y126750D01*
Y126617D01*
Y126750D01*
X-45091Y126883D01*
X-45225D01*
X-45358Y126750D01*
Y126483D01*
X-45225Y126350D01*
X-25362Y117880D02*
Y118679D01*
X-25762D01*
X-25895Y118546D01*
Y118280D01*
X-25762Y118146D01*
X-25362D01*
X-25629D02*
X-25895Y117880D01*
X-26162Y118679D02*
X-26695D01*
Y118546D01*
X-26162Y118013D01*
Y117880D01*
X-27495D02*
X-26962D01*
X-27495Y118413D01*
Y118546D01*
X-27362Y118679D01*
X-27095D01*
X-26962Y118546D01*
X-24911Y124884D02*
X-24111D01*
Y125284D01*
X-24244Y125417D01*
X-24511D01*
X-24644Y125284D01*
Y124884D01*
Y125151D02*
X-24911Y125417D01*
X-24111Y125684D02*
Y126217D01*
X-24244D01*
X-24778Y125684D01*
X-24911D01*
Y126483D02*
Y126750D01*
Y126617D01*
X-24111D01*
X-24244Y126483D01*
X-39897Y109257D02*
X-39097D01*
Y109657D01*
X-39230Y109790D01*
X-39497D01*
X-39630Y109657D01*
Y109257D01*
Y109523D02*
X-39897Y109790D01*
X-39097Y110056D02*
Y110590D01*
X-39230D01*
X-39764Y110056D01*
X-39897D01*
X-39230Y110856D02*
X-39097Y110989D01*
Y111256D01*
X-39230Y111389D01*
X-39764D01*
X-39897Y111256D01*
Y110989D01*
X-39764Y110856D01*
X-39230D01*
X-16783Y109130D02*
X-15983D01*
Y109530D01*
X-16116Y109663D01*
X-16383D01*
X-16516Y109530D01*
Y109130D01*
Y109396D02*
X-16783Y109663D01*
X-15983Y110463D02*
X-16116Y110196D01*
X-16383Y109929D01*
X-16650D01*
X-16783Y110063D01*
Y110329D01*
X-16650Y110463D01*
X-16516D01*
X-16383Y110329D01*
Y109929D01*
X-16650Y110729D02*
X-16783Y110862D01*
Y111129D01*
X-16650Y111262D01*
X-16116D01*
X-15983Y111129D01*
Y110862D01*
X-16116Y110729D01*
X-16250D01*
X-16383Y110862D01*
Y111262D01*
X-129998Y110050D02*
Y110850D01*
X-130398D01*
X-130531Y110717D01*
Y110450D01*
X-130398Y110317D01*
X-129998D01*
X-130264D02*
X-130531Y110050D01*
X-131331Y110850D02*
X-131064Y110717D01*
X-130797Y110450D01*
Y110183D01*
X-130931Y110050D01*
X-131197D01*
X-131331Y110183D01*
Y110317D01*
X-131197Y110450D01*
X-130797D01*
X-131597Y110717D02*
X-131730Y110850D01*
X-131997D01*
X-132130Y110717D01*
Y110583D01*
X-131997Y110450D01*
X-132130Y110317D01*
Y110183D01*
X-131997Y110050D01*
X-131730D01*
X-131597Y110183D01*
Y110317D01*
X-131730Y110450D01*
X-131597Y110583D01*
Y110717D01*
X-131730Y110450D02*
X-131997D01*
X-29922Y117670D02*
Y118470D01*
X-30322D01*
X-30455Y118337D01*
Y118070D01*
X-30322Y117937D01*
X-29922D01*
X-30188D02*
X-30455Y117670D01*
X-31255Y118470D02*
X-30988Y118337D01*
X-30721Y118070D01*
Y117803D01*
X-30855Y117670D01*
X-31121D01*
X-31255Y117803D01*
Y117937D01*
X-31121Y118070D01*
X-30721D01*
X-31521Y118470D02*
X-32054D01*
Y118337D01*
X-31521Y117803D01*
Y117670D01*
X-9856Y117797D02*
Y118597D01*
X-10256D01*
X-10389Y118464D01*
Y118197D01*
X-10256Y118064D01*
X-9856D01*
X-10122D02*
X-10389Y117797D01*
X-11189Y118597D02*
X-10922Y118464D01*
X-10655Y118197D01*
Y117930D01*
X-10789Y117797D01*
X-11055D01*
X-11189Y117930D01*
Y118064D01*
X-11055Y118197D01*
X-10655D01*
X-11988Y118597D02*
X-11722Y118464D01*
X-11455Y118197D01*
Y117930D01*
X-11588Y117797D01*
X-11855D01*
X-11988Y117930D01*
Y118064D01*
X-11855Y118197D01*
X-11455D01*
X-129871Y45788D02*
Y46588D01*
X-130271D01*
X-130404Y46455D01*
Y46188D01*
X-130271Y46055D01*
X-129871D01*
X-130137D02*
X-130404Y45788D01*
X-131204Y46588D02*
X-130937Y46455D01*
X-130670Y46188D01*
Y45921D01*
X-130804Y45788D01*
X-131070D01*
X-131204Y45921D01*
Y46055D01*
X-131070Y46188D01*
X-130670D01*
X-132003Y46588D02*
X-131470D01*
Y46188D01*
X-131737Y46321D01*
X-131870D01*
X-132003Y46188D01*
Y45921D01*
X-131870Y45788D01*
X-131603D01*
X-131470Y45921D01*
X-36595Y102018D02*
X-35795D01*
Y102418D01*
X-35928Y102551D01*
X-36195D01*
X-36328Y102418D01*
Y102018D01*
Y102284D02*
X-36595Y102551D01*
X-35795Y103351D02*
X-35928Y103084D01*
X-36195Y102817D01*
X-36462D01*
X-36595Y102951D01*
Y103217D01*
X-36462Y103351D01*
X-36328D01*
X-36195Y103217D01*
Y102817D01*
X-36595Y104017D02*
X-35795D01*
X-36195Y103617D01*
Y104150D01*
X-40659Y102018D02*
X-39859D01*
Y102418D01*
X-39992Y102551D01*
X-40259D01*
X-40392Y102418D01*
Y102018D01*
Y102284D02*
X-40659Y102551D01*
X-39859Y103351D02*
X-39992Y103084D01*
X-40259Y102817D01*
X-40526D01*
X-40659Y102951D01*
Y103217D01*
X-40526Y103351D01*
X-40392D01*
X-40259Y103217D01*
Y102817D01*
X-39992Y103617D02*
X-39859Y103750D01*
Y104017D01*
X-39992Y104150D01*
X-40126D01*
X-40259Y104017D01*
Y103884D01*
Y104017D01*
X-40392Y104150D01*
X-40526D01*
X-40659Y104017D01*
Y103750D01*
X-40526Y103617D01*
X-16783Y102018D02*
X-15983D01*
Y102418D01*
X-16116Y102551D01*
X-16383D01*
X-16516Y102418D01*
Y102018D01*
Y102284D02*
X-16783Y102551D01*
X-15983Y103351D02*
X-16116Y103084D01*
X-16383Y102817D01*
X-16650D01*
X-16783Y102951D01*
Y103217D01*
X-16650Y103351D01*
X-16516D01*
X-16383Y103217D01*
Y102817D01*
X-16783Y104150D02*
Y103617D01*
X-16250Y104150D01*
X-16116D01*
X-15983Y104017D01*
Y103750D01*
X-16116Y103617D01*
X-24149Y102278D02*
X-23349D01*
Y102678D01*
X-23482Y102811D01*
X-23749D01*
X-23882Y102678D01*
Y102278D01*
Y102545D02*
X-24149Y102811D01*
X-23349Y103611D02*
X-23482Y103344D01*
X-23749Y103078D01*
X-24016D01*
X-24149Y103211D01*
Y103478D01*
X-24016Y103611D01*
X-23882D01*
X-23749Y103478D01*
Y103078D01*
X-24149Y103877D02*
Y104144D01*
Y104011D01*
X-23349D01*
X-23482Y103877D01*
X-129998Y122750D02*
Y123550D01*
X-130398D01*
X-130531Y123417D01*
Y123150D01*
X-130398Y123017D01*
X-129998D01*
X-130264D02*
X-130531Y122750D01*
X-131331Y123550D02*
X-131064Y123417D01*
X-130797Y123150D01*
Y122883D01*
X-130931Y122750D01*
X-131197D01*
X-131331Y122883D01*
Y123017D01*
X-131197Y123150D01*
X-130797D01*
X-131597Y123417D02*
X-131730Y123550D01*
X-131997D01*
X-132130Y123417D01*
Y122883D01*
X-131997Y122750D01*
X-131730D01*
X-131597Y122883D01*
Y123417D01*
X-129998Y58996D02*
Y59796D01*
X-130398D01*
X-130531Y59663D01*
Y59396D01*
X-130398Y59263D01*
X-129998D01*
X-130264D02*
X-130531Y58996D01*
X-131331Y59796D02*
X-130797D01*
Y59396D01*
X-131064Y59529D01*
X-131197D01*
X-131331Y59396D01*
Y59129D01*
X-131197Y58996D01*
X-130931D01*
X-130797Y59129D01*
X-131597D02*
X-131730Y58996D01*
X-131997D01*
X-132130Y59129D01*
Y59663D01*
X-131997Y59796D01*
X-131730D01*
X-131597Y59663D01*
Y59529D01*
X-131730Y59396D01*
X-132130D01*
X-35471Y118001D02*
Y118800D01*
X-35871D01*
X-36004Y118667D01*
Y118400D01*
X-35871Y118267D01*
X-35471D01*
X-35737D02*
X-36004Y118001D01*
X-36804Y118800D02*
X-36271D01*
Y118400D01*
X-36537Y118534D01*
X-36671D01*
X-36804Y118400D01*
Y118134D01*
X-36671Y118001D01*
X-36404D01*
X-36271Y118134D01*
X-37070Y118667D02*
X-37204Y118800D01*
X-37470D01*
X-37604Y118667D01*
Y118534D01*
X-37470Y118400D01*
X-37604Y118267D01*
Y118134D01*
X-37470Y118001D01*
X-37204D01*
X-37070Y118134D01*
Y118267D01*
X-37204Y118400D01*
X-37070Y118534D01*
Y118667D01*
X-37204Y118400D02*
X-37470D01*
X-36976Y124624D02*
X-36176D01*
Y125024D01*
X-36309Y125157D01*
X-36576D01*
X-36709Y125024D01*
Y124624D01*
Y124890D02*
X-36976Y125157D01*
X-36176Y125957D02*
Y125423D01*
X-36576D01*
X-36443Y125690D01*
Y125823D01*
X-36576Y125957D01*
X-36843D01*
X-36976Y125823D01*
Y125557D01*
X-36843Y125423D01*
X-36176Y126223D02*
Y126756D01*
X-36309D01*
X-36843Y126223D01*
X-36976D01*
X-15190Y117925D02*
Y118725D01*
X-15590D01*
X-15723Y118592D01*
Y118325D01*
X-15590Y118192D01*
X-15190D01*
X-15456D02*
X-15723Y117925D01*
X-16523Y118725D02*
X-15989D01*
Y118325D01*
X-16256Y118459D01*
X-16389D01*
X-16523Y118325D01*
Y118059D01*
X-16389Y117925D01*
X-16123D01*
X-15989Y118059D01*
X-17322Y118725D02*
X-17056Y118592D01*
X-16789Y118325D01*
Y118059D01*
X-16922Y117925D01*
X-17189D01*
X-17322Y118059D01*
Y118192D01*
X-17189Y118325D01*
X-16789D01*
X-16783Y124497D02*
X-15983D01*
Y124897D01*
X-16116Y125030D01*
X-16383D01*
X-16516Y124897D01*
Y124497D01*
Y124763D02*
X-16783Y125030D01*
X-15983Y125830D02*
Y125296D01*
X-16383D01*
X-16250Y125563D01*
Y125696D01*
X-16383Y125830D01*
X-16650D01*
X-16783Y125696D01*
Y125430D01*
X-16650Y125296D01*
X-15983Y126629D02*
Y126096D01*
X-16383D01*
X-16250Y126363D01*
Y126496D01*
X-16383Y126629D01*
X-16650D01*
X-16783Y126496D01*
Y126229D01*
X-16650Y126096D01*
X-35579Y110019D02*
X-34779D01*
Y110419D01*
X-34912Y110552D01*
X-35179D01*
X-35312Y110419D01*
Y110019D01*
Y110285D02*
X-35579Y110552D01*
X-34779Y111352D02*
Y110818D01*
X-35179D01*
X-35046Y111085D01*
Y111218D01*
X-35179Y111352D01*
X-35446D01*
X-35579Y111218D01*
Y110952D01*
X-35446Y110818D01*
X-35579Y112018D02*
X-34779D01*
X-35179Y111618D01*
Y112151D01*
X-26112Y100779D02*
Y101579D01*
X-26512D01*
X-26645Y101446D01*
Y101179D01*
X-26512Y101046D01*
X-26112D01*
X-26378D02*
X-26645Y100779D01*
X-27445Y101579D02*
X-26911D01*
Y101179D01*
X-27178Y101312D01*
X-27311D01*
X-27445Y101179D01*
Y100912D01*
X-27311Y100779D01*
X-27045D01*
X-26911Y100912D01*
X-27711Y101446D02*
X-27844Y101579D01*
X-28111D01*
X-28244Y101446D01*
Y101312D01*
X-28111Y101179D01*
X-27978D01*
X-28111D01*
X-28244Y101046D01*
Y100912D01*
X-28111Y100779D01*
X-27844D01*
X-27711Y100912D01*
X-119965Y120845D02*
Y121645D01*
X-120365D01*
X-120498Y121512D01*
Y121245D01*
X-120365Y121112D01*
X-119965D01*
X-120231D02*
X-120498Y120845D01*
X-121298Y121645D02*
X-120764D01*
Y121245D01*
X-121031Y121378D01*
X-121164D01*
X-121298Y121245D01*
Y120978D01*
X-121164Y120845D01*
X-120898D01*
X-120764Y120978D01*
X-122097Y120845D02*
X-121564D01*
X-122097Y121378D01*
Y121512D01*
X-121964Y121645D01*
X-121697D01*
X-121564Y121512D01*
X-119717Y57345D02*
Y58145D01*
X-120117D01*
X-120250Y58012D01*
Y57745D01*
X-120117Y57612D01*
X-119717D01*
X-119984D02*
X-120250Y57345D01*
X-121050Y58145D02*
X-120517D01*
Y57745D01*
X-120783Y57878D01*
X-120917D01*
X-121050Y57745D01*
Y57478D01*
X-120917Y57345D01*
X-120650D01*
X-120517Y57478D01*
X-121316Y57345D02*
X-121583D01*
X-121450D01*
Y58145D01*
X-121316Y58012D01*
X-108457Y119801D02*
X-107658D01*
Y120201D01*
X-107791Y120334D01*
X-108058D01*
X-108191Y120201D01*
Y119801D01*
Y120068D02*
X-108457Y120334D01*
X-107658Y121134D02*
Y120601D01*
X-108058D01*
X-107924Y120868D01*
Y121001D01*
X-108058Y121134D01*
X-108324D01*
X-108457Y121001D01*
Y120734D01*
X-108324Y120601D01*
X-107791Y121401D02*
X-107658Y121534D01*
Y121801D01*
X-107791Y121934D01*
X-108324D01*
X-108457Y121801D01*
Y121534D01*
X-108324Y121401D01*
X-107791D01*
X-129871Y11371D02*
Y12171D01*
X-130271D01*
X-130404Y12038D01*
Y11771D01*
X-130271Y11638D01*
X-129871D01*
X-130137D02*
X-130404Y11371D01*
X-131070D02*
Y12171D01*
X-130670Y11771D01*
X-131204D01*
X-131470Y12038D02*
X-131603Y12171D01*
X-131870D01*
X-132003Y12038D01*
Y11904D01*
X-131870Y11771D01*
X-132003Y11638D01*
Y11504D01*
X-131870Y11371D01*
X-131603D01*
X-131470Y11504D01*
Y11638D01*
X-131603Y11771D01*
X-131470Y11904D01*
Y12038D01*
X-131603Y11771D02*
X-131870D01*
X-108221Y56246D02*
X-107421D01*
Y56646D01*
X-107555Y56779D01*
X-107821D01*
X-107954Y56646D01*
Y56246D01*
Y56512D02*
X-108221Y56779D01*
Y57445D02*
X-107421D01*
X-107821Y57046D01*
Y57579D01*
X-107421Y57845D02*
Y58378D01*
X-107555D01*
X-108088Y57845D01*
X-108221D01*
X-101679Y56148D02*
X-100879D01*
Y56548D01*
X-101013Y56681D01*
X-101279D01*
X-101412Y56548D01*
Y56148D01*
Y56414D02*
X-101679Y56681D01*
Y57347D02*
X-100879D01*
X-101279Y56948D01*
Y57481D01*
X-100879Y58280D02*
X-101013Y58014D01*
X-101279Y57747D01*
X-101546D01*
X-101679Y57881D01*
Y58147D01*
X-101546Y58280D01*
X-101412D01*
X-101279Y58147D01*
Y57747D01*
X-120854Y9847D02*
Y10647D01*
X-121254D01*
X-121387Y10514D01*
Y10247D01*
X-121254Y10114D01*
X-120854D01*
X-121120D02*
X-121387Y9847D01*
X-122053D02*
Y10647D01*
X-121653Y10247D01*
X-122187D01*
X-122986Y10647D02*
X-122453D01*
Y10247D01*
X-122720Y10380D01*
X-122853D01*
X-122986Y10247D01*
Y9980D01*
X-122853Y9847D01*
X-122586D01*
X-122453Y9980D01*
X-120092Y127195D02*
Y127995D01*
X-120492D01*
X-120625Y127862D01*
Y127595D01*
X-120492Y127462D01*
X-120092D01*
X-120358D02*
X-120625Y127195D01*
X-121291D02*
Y127995D01*
X-120891Y127595D01*
X-121425D01*
X-122091Y127195D02*
Y127995D01*
X-121691Y127595D01*
X-122224D01*
X-119203Y63441D02*
Y64241D01*
X-119603D01*
X-119736Y64108D01*
Y63841D01*
X-119603Y63708D01*
X-119203D01*
X-119469D02*
X-119736Y63441D01*
X-120402D02*
Y64241D01*
X-120002Y63841D01*
X-120536D01*
X-120802Y64108D02*
X-120935Y64241D01*
X-121202D01*
X-121335Y64108D01*
Y63974D01*
X-121202Y63841D01*
X-121069D01*
X-121202D01*
X-121335Y63708D01*
Y63574D01*
X-121202Y63441D01*
X-120935D01*
X-120802Y63574D01*
X-129871Y125798D02*
Y126598D01*
X-130271D01*
X-130404Y126465D01*
Y126198D01*
X-130271Y126065D01*
X-129871D01*
X-130137D02*
X-130404Y125798D01*
X-131070D02*
Y126598D01*
X-130670Y126198D01*
X-131204D01*
X-132003Y125798D02*
X-131470D01*
X-132003Y126331D01*
Y126465D01*
X-131870Y126598D01*
X-131603D01*
X-131470Y126465D01*
X-129877Y61917D02*
Y62717D01*
X-130277D01*
X-130410Y62584D01*
Y62317D01*
X-130277Y62184D01*
X-129877D01*
X-130144D02*
X-130410Y61917D01*
X-131077D02*
Y62717D01*
X-130677Y62317D01*
X-131210D01*
X-131476Y61917D02*
X-131743D01*
X-131610D01*
Y62717D01*
X-131476Y62584D01*
X-108223Y7403D02*
X-107423D01*
Y7803D01*
X-107556Y7936D01*
X-107823D01*
X-107956Y7803D01*
Y7403D01*
Y7669D02*
X-108223Y7936D01*
Y8602D02*
X-107423D01*
X-107823Y8202D01*
Y8736D01*
X-107556Y9002D02*
X-107423Y9135D01*
Y9402D01*
X-107556Y9535D01*
X-108090D01*
X-108223Y9402D01*
Y9135D01*
X-108090Y9002D01*
X-107556D01*
X-83839Y121957D02*
X-83039D01*
Y122357D01*
X-83172Y122490D01*
X-83439D01*
X-83572Y122357D01*
Y121957D01*
Y122223D02*
X-83839Y122490D01*
X-83172Y122756D02*
X-83039Y122890D01*
Y123156D01*
X-83172Y123290D01*
X-83306D01*
X-83439Y123156D01*
Y123023D01*
Y123156D01*
X-83572Y123290D01*
X-83706D01*
X-83839Y123156D01*
Y122890D01*
X-83706Y122756D01*
Y123556D02*
X-83839Y123689D01*
Y123956D01*
X-83706Y124089D01*
X-83172D01*
X-83039Y123956D01*
Y123689D01*
X-83172Y123556D01*
X-83306D01*
X-83439Y123689D01*
Y124089D01*
X-89681Y122084D02*
X-88881D01*
Y122484D01*
X-89014Y122617D01*
X-89281D01*
X-89414Y122484D01*
Y122084D01*
Y122350D02*
X-89681Y122617D01*
X-89014Y122883D02*
X-88881Y123017D01*
Y123283D01*
X-89014Y123417D01*
X-89148D01*
X-89281Y123283D01*
Y123150D01*
Y123283D01*
X-89414Y123417D01*
X-89548D01*
X-89681Y123283D01*
Y123017D01*
X-89548Y122883D01*
X-89014Y123683D02*
X-88881Y123816D01*
Y124083D01*
X-89014Y124216D01*
X-89148D01*
X-89281Y124083D01*
X-89414Y124216D01*
X-89548D01*
X-89681Y124083D01*
Y123816D01*
X-89548Y123683D01*
X-89414D01*
X-89281Y123816D01*
X-89148Y123683D01*
X-89014D01*
X-89281Y123816D02*
Y124083D01*
X-101492Y7530D02*
X-100692D01*
Y7930D01*
X-100825Y8063D01*
X-101092D01*
X-101225Y7930D01*
Y7530D01*
Y7796D02*
X-101492Y8063D01*
X-100825Y8329D02*
X-100692Y8463D01*
Y8729D01*
X-100825Y8863D01*
X-100959D01*
X-101092Y8729D01*
Y8596D01*
Y8729D01*
X-101225Y8863D01*
X-101359D01*
X-101492Y8729D01*
Y8463D01*
X-101359Y8329D01*
X-100692Y9129D02*
Y9662D01*
X-100825D01*
X-101359Y9129D01*
X-101492D01*
X-115709Y82525D02*
Y83325D01*
X-116109D01*
X-116242Y83192D01*
Y82925D01*
X-116109Y82792D01*
X-115709D01*
X-115975D02*
X-116242Y82525D01*
X-116508Y83192D02*
X-116642Y83325D01*
X-116908D01*
X-117042Y83192D01*
Y83058D01*
X-116908Y82925D01*
X-116775D01*
X-116908D01*
X-117042Y82792D01*
Y82658D01*
X-116908Y82525D01*
X-116642D01*
X-116508Y82658D01*
X-117841Y83325D02*
X-117575Y83192D01*
X-117308Y82925D01*
Y82658D01*
X-117441Y82525D01*
X-117708D01*
X-117841Y82658D01*
Y82792D01*
X-117708Y82925D01*
X-117308D01*
X-115534Y18525D02*
Y19325D01*
X-115934D01*
X-116067Y19192D01*
Y18925D01*
X-115934Y18792D01*
X-115534D01*
X-115800D02*
X-116067Y18525D01*
X-116333Y19192D02*
X-116467Y19325D01*
X-116733D01*
X-116867Y19192D01*
Y19058D01*
X-116733Y18925D01*
X-116600D01*
X-116733D01*
X-116867Y18792D01*
Y18658D01*
X-116733Y18525D01*
X-116467D01*
X-116333Y18658D01*
X-117666Y19325D02*
X-117133D01*
Y18925D01*
X-117400Y19058D01*
X-117533D01*
X-117666Y18925D01*
Y18658D01*
X-117533Y18525D01*
X-117266D01*
X-117133Y18658D01*
X-119330Y16197D02*
Y16997D01*
X-119730D01*
X-119863Y16864D01*
Y16597D01*
X-119730Y16464D01*
X-119330D01*
X-119596D02*
X-119863Y16197D01*
X-120129Y16864D02*
X-120263Y16997D01*
X-120529D01*
X-120663Y16864D01*
Y16730D01*
X-120529Y16597D01*
X-120396D01*
X-120529D01*
X-120663Y16464D01*
Y16330D01*
X-120529Y16197D01*
X-120263D01*
X-120129Y16330D01*
X-121329Y16197D02*
Y16997D01*
X-120929Y16597D01*
X-121462D01*
X-120092Y86047D02*
Y86847D01*
X-120492D01*
X-120625Y86714D01*
Y86447D01*
X-120492Y86314D01*
X-120092D01*
X-120358D02*
X-120625Y86047D01*
X-120891Y86714D02*
X-121025Y86847D01*
X-121291D01*
X-121425Y86714D01*
Y86580D01*
X-121291Y86447D01*
X-121158D01*
X-121291D01*
X-121425Y86314D01*
Y86180D01*
X-121291Y86047D01*
X-121025D01*
X-120891Y86180D01*
X-121691Y86714D02*
X-121824Y86847D01*
X-122091D01*
X-122224Y86714D01*
Y86580D01*
X-122091Y86447D01*
X-121958D01*
X-122091D01*
X-122224Y86314D01*
Y86180D01*
X-122091Y86047D01*
X-121824D01*
X-121691Y86180D01*
X-130131Y13911D02*
Y14711D01*
X-130531D01*
X-130664Y14578D01*
Y14311D01*
X-130531Y14178D01*
X-130131D01*
X-130398D02*
X-130664Y13911D01*
X-130931Y14578D02*
X-131064Y14711D01*
X-131331D01*
X-131464Y14578D01*
Y14444D01*
X-131331Y14311D01*
X-131197D01*
X-131331D01*
X-131464Y14178D01*
Y14044D01*
X-131331Y13911D01*
X-131064D01*
X-130931Y14044D01*
X-131730Y13911D02*
X-131997D01*
X-131864D01*
Y14711D01*
X-131730Y14578D01*
X-120346Y22039D02*
Y22839D01*
X-120746D01*
X-120879Y22706D01*
Y22439D01*
X-120746Y22306D01*
X-120346D01*
X-120612D02*
X-120879Y22039D01*
X-121145Y22706D02*
X-121279Y22839D01*
X-121545D01*
X-121679Y22706D01*
Y22572D01*
X-121545Y22439D01*
X-121412D01*
X-121545D01*
X-121679Y22306D01*
Y22172D01*
X-121545Y22039D01*
X-121279D01*
X-121145Y22172D01*
X-121945Y22706D02*
X-122078Y22839D01*
X-122345D01*
X-122478Y22706D01*
Y22172D01*
X-122345Y22039D01*
X-122078D01*
X-121945Y22172D01*
Y22706D01*
X-129998Y26865D02*
Y27665D01*
X-130398D01*
X-130531Y27532D01*
Y27265D01*
X-130398Y27132D01*
X-129998D01*
X-130264D02*
X-130531Y26865D01*
X-131331D02*
X-130797D01*
X-131331Y27398D01*
Y27532D01*
X-131197Y27665D01*
X-130931D01*
X-130797Y27532D01*
X-131597D02*
X-131730Y27665D01*
X-131997D01*
X-132130Y27532D01*
Y27398D01*
X-131997Y27265D01*
X-132130Y27132D01*
Y26998D01*
X-131997Y26865D01*
X-131730D01*
X-131597Y26998D01*
Y27132D01*
X-131730Y27265D01*
X-131597Y27398D01*
Y27532D01*
X-131730Y27265D02*
X-131997D01*
X-130125Y75252D02*
Y76052D01*
X-130525D01*
X-130658Y75919D01*
Y75652D01*
X-130525Y75519D01*
X-130125D01*
X-130391D02*
X-130658Y75252D01*
X-131458D02*
X-130924D01*
X-131458Y75785D01*
Y75919D01*
X-131324Y76052D01*
X-131058D01*
X-130924Y75919D01*
X-131724Y76052D02*
X-132257D01*
Y75919D01*
X-131724Y75385D01*
Y75252D01*
X-121034Y73675D02*
Y74475D01*
X-121434D01*
X-121567Y74342D01*
Y74075D01*
X-121434Y73942D01*
X-121034D01*
X-121300D02*
X-121567Y73675D01*
X-122367D02*
X-121833D01*
X-122367Y74208D01*
Y74342D01*
X-122233Y74475D01*
X-121967D01*
X-121833Y74342D01*
X-123166Y74475D02*
X-122900Y74342D01*
X-122633Y74075D01*
Y73808D01*
X-122766Y73675D01*
X-123033D01*
X-123166Y73808D01*
Y73942D01*
X-123033Y74075D01*
X-122633D01*
X-119457Y25087D02*
Y25887D01*
X-119857D01*
X-119990Y25754D01*
Y25487D01*
X-119857Y25354D01*
X-119457D01*
X-119723D02*
X-119990Y25087D01*
X-120790D02*
X-120256D01*
X-120790Y25620D01*
Y25754D01*
X-120656Y25887D01*
X-120390D01*
X-120256Y25754D01*
X-121589Y25887D02*
X-121056D01*
Y25487D01*
X-121323Y25620D01*
X-121456D01*
X-121589Y25487D01*
Y25220D01*
X-121456Y25087D01*
X-121189D01*
X-121056Y25220D01*
X-108243Y72463D02*
X-107443D01*
Y72863D01*
X-107576Y72996D01*
X-107843D01*
X-107976Y72863D01*
Y72463D01*
Y72729D02*
X-108243Y72996D01*
Y73796D02*
Y73263D01*
X-107710Y73796D01*
X-107576D01*
X-107443Y73662D01*
Y73396D01*
X-107576Y73263D01*
X-108243Y74462D02*
X-107443D01*
X-107843Y74062D01*
Y74596D01*
X-104922Y72806D02*
X-104123D01*
Y73206D01*
X-104256Y73339D01*
X-104522D01*
X-104656Y73206D01*
Y72806D01*
Y73073D02*
X-104922Y73339D01*
Y74139D02*
Y73606D01*
X-104389Y74139D01*
X-104256D01*
X-104123Y74006D01*
Y73739D01*
X-104256Y73606D01*
Y74406D02*
X-104123Y74539D01*
Y74806D01*
X-104256Y74939D01*
X-104389D01*
X-104522Y74806D01*
Y74672D01*
Y74806D01*
X-104656Y74939D01*
X-104789D01*
X-104922Y74806D01*
Y74539D01*
X-104789Y74406D01*
X-92348Y122084D02*
X-91548D01*
Y122484D01*
X-91681Y122617D01*
X-91948D01*
X-92081Y122484D01*
Y122084D01*
Y122350D02*
X-92348Y122617D01*
Y123417D02*
Y122883D01*
X-91815Y123417D01*
X-91681D01*
X-91548Y123283D01*
Y123017D01*
X-91681Y122883D01*
X-92348Y124216D02*
Y123683D01*
X-91815Y124216D01*
X-91681D01*
X-91548Y124083D01*
Y123816D01*
X-91681Y123683D01*
X-120017Y79225D02*
Y80025D01*
X-120417D01*
X-120550Y79892D01*
Y79625D01*
X-120417Y79492D01*
X-120017D01*
X-120284D02*
X-120550Y79225D01*
X-121350D02*
X-120817D01*
X-121350Y79758D01*
Y79892D01*
X-121217Y80025D01*
X-120950D01*
X-120817Y79892D01*
X-121616Y79225D02*
X-121883D01*
X-121750D01*
Y80025D01*
X-121616Y79892D01*
X-98190Y122084D02*
X-97390D01*
Y122484D01*
X-97523Y122617D01*
X-97790D01*
X-97923Y122484D01*
Y122084D01*
Y122350D02*
X-98190Y122617D01*
Y123417D02*
Y122883D01*
X-97657Y123417D01*
X-97523D01*
X-97390Y123283D01*
Y123017D01*
X-97523Y122883D01*
Y123683D02*
X-97390Y123816D01*
Y124083D01*
X-97523Y124216D01*
X-98057D01*
X-98190Y124083D01*
Y123816D01*
X-98057Y123683D01*
X-97523D01*
X-130191Y77665D02*
Y78465D01*
X-130591D01*
X-130724Y78332D01*
Y78065D01*
X-130591Y77932D01*
X-130191D01*
X-130458D02*
X-130724Y77665D01*
X-130991D02*
X-131258D01*
X-131124D01*
Y78465D01*
X-130991Y78332D01*
X-131658Y77798D02*
X-131791Y77665D01*
X-132057D01*
X-132191Y77798D01*
Y78332D01*
X-132057Y78465D01*
X-131791D01*
X-131658Y78332D01*
Y78198D01*
X-131791Y78065D01*
X-132191D01*
X-107978Y24443D02*
X-107178D01*
Y24843D01*
X-107311Y24976D01*
X-107578D01*
X-107711Y24843D01*
Y24443D01*
Y24710D02*
X-107978Y24976D01*
Y25243D02*
Y25509D01*
Y25376D01*
X-107178D01*
X-107311Y25243D01*
Y25909D02*
X-107178Y26042D01*
Y26309D01*
X-107311Y26442D01*
X-107445D01*
X-107578Y26309D01*
X-107711Y26442D01*
X-107845D01*
X-107978Y26309D01*
Y26042D01*
X-107845Y25909D01*
X-107711D01*
X-107578Y26042D01*
X-107445Y25909D01*
X-107311D01*
X-107578Y26042D02*
Y26309D01*
X-101783Y24469D02*
X-100983D01*
Y24869D01*
X-101116Y25002D01*
X-101383D01*
X-101516Y24869D01*
Y24469D01*
Y24736D02*
X-101783Y25002D01*
Y25269D02*
Y25535D01*
Y25402D01*
X-100983D01*
X-101116Y25269D01*
X-100983Y25935D02*
Y26468D01*
X-101116D01*
X-101650Y25935D01*
X-101783D01*
X-130318Y91127D02*
Y91927D01*
X-130718D01*
X-130851Y91794D01*
Y91527D01*
X-130718Y91394D01*
X-130318D01*
X-130585D02*
X-130851Y91127D01*
X-131118D02*
X-131385D01*
X-131251D01*
Y91927D01*
X-131118Y91794D01*
X-132318Y91927D02*
X-132051Y91794D01*
X-131785Y91527D01*
Y91260D01*
X-131918Y91127D01*
X-132184D01*
X-132318Y91260D01*
Y91394D01*
X-132184Y91527D01*
X-131785D01*
X-119904Y89476D02*
Y90276D01*
X-120304D01*
X-120437Y90143D01*
Y89876D01*
X-120304Y89743D01*
X-119904D01*
X-120171D02*
X-120437Y89476D01*
X-120704D02*
X-120971D01*
X-120837D01*
Y90276D01*
X-120704Y90143D01*
X-121904Y90276D02*
X-121371D01*
Y89876D01*
X-121637Y90009D01*
X-121770D01*
X-121904Y89876D01*
Y89609D01*
X-121770Y89476D01*
X-121504D01*
X-121371Y89609D01*
X-119650Y31691D02*
Y32491D01*
X-120050D01*
X-120183Y32358D01*
Y32091D01*
X-120050Y31958D01*
X-119650D01*
X-119917D02*
X-120183Y31691D01*
X-120450D02*
X-120717D01*
X-120583D01*
Y32491D01*
X-120450Y32358D01*
X-121516Y31691D02*
Y32491D01*
X-121117Y32091D01*
X-121650D01*
X-108214Y88198D02*
X-107414D01*
Y88598D01*
X-107547Y88731D01*
X-107814D01*
X-107947Y88598D01*
Y88198D01*
Y88465D02*
X-108214Y88731D01*
Y88998D02*
Y89265D01*
Y89131D01*
X-107414D01*
X-107547Y88998D01*
Y89664D02*
X-107414Y89798D01*
Y90064D01*
X-107547Y90198D01*
X-107680D01*
X-107814Y90064D01*
Y89931D01*
Y90064D01*
X-107947Y90198D01*
X-108080D01*
X-108214Y90064D01*
Y89798D01*
X-108080Y89664D01*
X-101599Y88322D02*
X-100799D01*
Y88722D01*
X-100933Y88855D01*
X-101199D01*
X-101333Y88722D01*
Y88322D01*
Y88589D02*
X-101599Y88855D01*
Y89122D02*
Y89388D01*
Y89255D01*
X-100799D01*
X-100933Y89122D01*
X-101599Y90321D02*
Y89788D01*
X-101066Y90321D01*
X-100933D01*
X-100799Y90188D01*
Y89922D01*
X-100933Y89788D01*
X-129817Y29786D02*
Y30586D01*
X-130216D01*
X-130350Y30453D01*
Y30186D01*
X-130216Y30053D01*
X-129817D01*
X-130083D02*
X-130350Y29786D01*
X-130616D02*
X-130883D01*
X-130750D01*
Y30586D01*
X-130616Y30453D01*
X-131283Y29786D02*
X-131549D01*
X-131416D01*
Y30586D01*
X-131283Y30453D01*
X-18812Y40327D02*
Y41127D01*
X-19212D01*
X-19345Y40994D01*
Y40727D01*
X-19212Y40594D01*
X-18812D01*
X-19079D02*
X-19345Y40327D01*
X-19612D02*
X-19879D01*
X-19745D01*
Y41127D01*
X-19612Y40994D01*
X-20279D02*
X-20412Y41127D01*
X-20678D01*
X-20812Y40994D01*
Y40460D01*
X-20678Y40327D01*
X-20412D01*
X-20279Y40460D01*
Y40994D01*
X-75750Y115909D02*
X-74950D01*
Y116308D01*
X-75083Y116442D01*
X-75350D01*
X-75483Y116308D01*
Y115909D01*
Y116175D02*
X-75750Y116442D01*
X-75617Y116708D02*
X-75750Y116842D01*
Y117108D01*
X-75617Y117241D01*
X-75083D01*
X-74950Y117108D01*
Y116842D01*
X-75083Y116708D01*
X-75217D01*
X-75350Y116842D01*
Y117241D01*
X-52216Y128072D02*
X-51416D01*
Y128471D01*
X-51549Y128605D01*
X-51816D01*
X-51949Y128471D01*
Y128072D01*
Y128338D02*
X-52216Y128605D01*
X-51549Y128871D02*
X-51416Y129005D01*
Y129271D01*
X-51549Y129404D01*
X-51683D01*
X-51816Y129271D01*
X-51949Y129404D01*
X-52083D01*
X-52216Y129271D01*
Y129005D01*
X-52083Y128871D01*
X-51949D01*
X-51816Y129005D01*
X-51683Y128871D01*
X-51549D01*
X-51816Y129005D02*
Y129271D01*
X-120365Y95572D02*
Y96372D01*
X-120764D01*
X-120898Y96239D01*
Y95972D01*
X-120764Y95839D01*
X-120365D01*
X-120631D02*
X-120898Y95572D01*
X-121164Y96372D02*
X-121697D01*
Y96239D01*
X-121164Y95705D01*
Y95572D01*
X-130017Y93667D02*
Y94467D01*
X-130416D01*
X-130550Y94334D01*
Y94067D01*
X-130416Y93934D01*
X-130017D01*
X-130283D02*
X-130550Y93667D01*
X-131349Y94467D02*
X-131083Y94334D01*
X-130816Y94067D01*
Y93800D01*
X-130950Y93667D01*
X-131216D01*
X-131349Y93800D01*
Y93934D01*
X-131216Y94067D01*
X-130816D01*
X-65551Y127183D02*
X-64751D01*
Y127582D01*
X-64884Y127716D01*
X-65151D01*
X-65284Y127582D01*
Y127183D01*
Y127449D02*
X-65551Y127716D01*
X-64751Y128515D02*
Y127982D01*
X-65151D01*
X-65018Y128249D01*
Y128382D01*
X-65151Y128515D01*
X-65418D01*
X-65551Y128382D01*
Y128116D01*
X-65418Y127982D01*
X-66390Y80967D02*
Y81767D01*
X-66789D01*
X-66923Y81634D01*
Y81367D01*
X-66789Y81234D01*
X-66390D01*
X-66656D02*
X-66923Y80967D01*
X-67722D02*
X-67189D01*
X-67722Y81500D01*
Y81634D01*
X-67589Y81767D01*
X-67323D01*
X-67189Y81634D01*
X-37948Y64965D02*
Y65765D01*
X-38348D01*
X-38481Y65632D01*
Y65365D01*
X-38348Y65232D01*
X-37948D01*
X-38214D02*
X-38481Y64965D01*
X-38748D02*
X-39014D01*
X-38881D01*
Y65765D01*
X-38748Y65632D01*
X-129871Y104627D02*
Y103827D01*
X-130271D01*
X-130404Y103960D01*
Y104494D01*
X-130271Y104627D01*
X-129871D01*
X-131204Y103827D02*
X-130670D01*
X-131204Y104360D01*
Y104494D01*
X-131070Y104627D01*
X-130804D01*
X-130670Y104494D01*
X-132003Y104627D02*
X-131737Y104494D01*
X-131470Y104227D01*
Y103960D01*
X-131603Y103827D01*
X-131870D01*
X-132003Y103960D01*
Y104094D01*
X-131870Y104227D01*
X-131470D01*
X-130125Y40873D02*
Y40073D01*
X-130525D01*
X-130658Y40206D01*
Y40740D01*
X-130525Y40873D01*
X-130125D01*
X-131458Y40073D02*
X-130924D01*
X-131458Y40606D01*
Y40740D01*
X-131324Y40873D01*
X-131058D01*
X-130924Y40740D01*
X-132257Y40873D02*
X-131724D01*
Y40473D01*
X-131991Y40606D01*
X-132124D01*
X-132257Y40473D01*
Y40206D01*
X-132124Y40073D01*
X-131857D01*
X-131724Y40206D01*
X-130155Y113898D02*
Y113098D01*
X-130555D01*
X-130688Y113231D01*
Y113765D01*
X-130555Y113898D01*
X-130155D01*
X-131488Y113098D02*
X-130954D01*
X-131488Y113631D01*
Y113765D01*
X-131354Y113898D01*
X-131088D01*
X-130954Y113765D01*
X-132154Y113098D02*
Y113898D01*
X-131754Y113498D01*
X-132287D01*
X-32150Y27834D02*
X-32950D01*
Y28234D01*
X-32817Y28367D01*
X-32283D01*
X-32150Y28234D01*
Y27834D01*
X-32950Y29167D02*
Y28633D01*
X-32417Y29167D01*
X-32283D01*
X-32150Y29033D01*
Y28767D01*
X-32283Y28633D01*
Y29433D02*
X-32150Y29566D01*
Y29833D01*
X-32283Y29966D01*
X-32417D01*
X-32550Y29833D01*
Y29700D01*
Y29833D01*
X-32683Y29966D01*
X-32817D01*
X-32950Y29833D01*
Y29566D01*
X-32817Y29433D01*
X-32125Y106184D02*
X-32925D01*
Y106584D01*
X-32792Y106717D01*
X-32258D01*
X-32125Y106584D01*
Y106184D01*
X-32925Y107517D02*
Y106983D01*
X-32392Y107517D01*
X-32258D01*
X-32125Y107383D01*
Y107117D01*
X-32258Y106983D01*
X-32925Y108316D02*
Y107783D01*
X-32392Y108316D01*
X-32258D01*
X-32125Y108183D01*
Y107916D01*
X-32258Y107783D01*
X-130258Y50271D02*
Y49471D01*
X-130658D01*
X-130791Y49604D01*
Y50138D01*
X-130658Y50271D01*
X-130258D01*
X-131591Y49471D02*
X-131058D01*
X-131591Y50004D01*
Y50138D01*
X-131458Y50271D01*
X-131191D01*
X-131058Y50138D01*
X-131857Y49471D02*
X-132124D01*
X-131991D01*
Y50271D01*
X-131857Y50138D01*
X-103836Y117581D02*
Y116781D01*
X-104236D01*
X-104369Y116914D01*
Y117448D01*
X-104236Y117581D01*
X-103836D01*
X-105169Y116781D02*
X-104635D01*
X-105169Y117314D01*
Y117448D01*
X-105035Y117581D01*
X-104769D01*
X-104635Y117448D01*
X-105435D02*
X-105568Y117581D01*
X-105835D01*
X-105968Y117448D01*
Y116914D01*
X-105835Y116781D01*
X-105568D01*
X-105435Y116914D01*
Y117448D01*
X-103902Y53446D02*
Y52646D01*
X-104302D01*
X-104435Y52779D01*
Y53313D01*
X-104302Y53446D01*
X-103902D01*
X-104702Y52646D02*
X-104969D01*
X-104835D01*
Y53446D01*
X-104702Y53313D01*
X-105369Y52779D02*
X-105502Y52646D01*
X-105768D01*
X-105902Y52779D01*
Y53313D01*
X-105768Y53446D01*
X-105502D01*
X-105369Y53313D01*
Y53179D01*
X-105502Y53046D01*
X-105902D01*
X-130064Y120375D02*
Y119575D01*
X-130464D01*
X-130597Y119708D01*
Y120242D01*
X-130464Y120375D01*
X-130064D01*
X-130864Y119575D02*
X-131131D01*
X-130997D01*
Y120375D01*
X-130864Y120242D01*
X-131531D02*
X-131664Y120375D01*
X-131930D01*
X-132064Y120242D01*
Y120108D01*
X-131930Y119975D01*
X-132064Y119842D01*
Y119708D01*
X-131930Y119575D01*
X-131664D01*
X-131531Y119708D01*
Y119842D01*
X-131664Y119975D01*
X-131531Y120108D01*
Y120242D01*
X-131664Y119975D02*
X-131930D01*
X-130064Y56748D02*
Y55948D01*
X-130464D01*
X-130597Y56081D01*
Y56615D01*
X-130464Y56748D01*
X-130064D01*
X-130864Y55948D02*
X-131131D01*
X-130997D01*
Y56748D01*
X-130864Y56615D01*
X-131531Y56748D02*
X-132064D01*
Y56615D01*
X-131531Y56081D01*
Y55948D01*
X-130064Y8742D02*
Y7942D01*
X-130464D01*
X-130597Y8075D01*
Y8609D01*
X-130464Y8742D01*
X-130064D01*
X-130864Y7942D02*
X-131131D01*
X-130997D01*
Y8742D01*
X-130864Y8609D01*
X-132064Y8742D02*
X-131797Y8609D01*
X-131531Y8342D01*
Y8075D01*
X-131664Y7942D01*
X-131930D01*
X-132064Y8075D01*
Y8209D01*
X-131930Y8342D01*
X-131531D01*
X-130064Y65892D02*
Y65092D01*
X-130464D01*
X-130597Y65225D01*
Y65759D01*
X-130464Y65892D01*
X-130064D01*
X-130864Y65092D02*
X-131131D01*
X-130997D01*
Y65892D01*
X-130864Y65759D01*
X-131930Y65092D02*
Y65892D01*
X-131531Y65492D01*
X-132064D01*
X-130191Y17886D02*
Y17086D01*
X-130591D01*
X-130724Y17219D01*
Y17753D01*
X-130591Y17886D01*
X-130191D01*
X-130991Y17086D02*
X-131258D01*
X-131124D01*
Y17886D01*
X-130991Y17753D01*
X-131658D02*
X-131791Y17886D01*
X-132057D01*
X-132191Y17753D01*
Y17619D01*
X-132057Y17486D01*
X-131924D01*
X-132057D01*
X-132191Y17353D01*
Y17219D01*
X-132057Y17086D01*
X-131791D01*
X-131658Y17219D01*
X-99067Y130876D02*
Y130076D01*
X-99467D01*
X-99600Y130209D01*
Y130742D01*
X-99467Y130876D01*
X-99067D01*
X-99867Y130076D02*
X-100133D01*
X-100000D01*
Y130876D01*
X-99867Y130742D01*
X-101067Y130076D02*
X-100533D01*
X-101067Y130609D01*
Y130742D01*
X-100933Y130876D01*
X-100667D01*
X-100533Y130742D01*
X-103909Y69194D02*
Y68394D01*
X-104308D01*
X-104442Y68527D01*
Y69061D01*
X-104308Y69194D01*
X-103909D01*
X-104708Y68394D02*
X-104975D01*
X-104842D01*
Y69194D01*
X-104708Y69061D01*
X-105375Y68394D02*
X-105641D01*
X-105508D01*
Y69194D01*
X-105375Y69061D01*
X-103648Y21569D02*
Y20769D01*
X-104048D01*
X-104181Y20902D01*
Y21436D01*
X-104048Y21569D01*
X-103648D01*
X-104448Y20769D02*
X-104715D01*
X-104581D01*
Y21569D01*
X-104448Y21436D01*
X-105115D02*
X-105248Y21569D01*
X-105514D01*
X-105648Y21436D01*
Y20902D01*
X-105514Y20769D01*
X-105248D01*
X-105115Y20902D01*
Y21436D01*
X-130144Y72750D02*
Y71950D01*
X-130543D01*
X-130677Y72083D01*
Y72617D01*
X-130543Y72750D01*
X-130144D01*
X-130943Y72083D02*
X-131077Y71950D01*
X-131343D01*
X-131476Y72083D01*
Y72617D01*
X-131343Y72750D01*
X-131077D01*
X-130943Y72617D01*
Y72483D01*
X-131077Y72350D01*
X-131476D01*
X-129890Y81767D02*
Y80967D01*
X-130289D01*
X-130423Y81100D01*
Y81634D01*
X-130289Y81767D01*
X-129890D01*
X-130689Y81634D02*
X-130823Y81767D01*
X-131089D01*
X-131222Y81634D01*
Y81500D01*
X-131089Y81367D01*
X-131222Y81234D01*
Y81100D01*
X-131089Y80967D01*
X-130823D01*
X-130689Y81100D01*
Y81234D01*
X-130823Y81367D01*
X-130689Y81500D01*
Y81634D01*
X-130823Y81367D02*
X-131089D01*
X-129890Y23982D02*
Y23182D01*
X-130289D01*
X-130423Y23315D01*
Y23849D01*
X-130289Y23982D01*
X-129890D01*
X-130689D02*
X-131222D01*
Y23849D01*
X-130689Y23315D01*
Y23182D01*
X-104109Y85831D02*
Y85031D01*
X-104508D01*
X-104642Y85164D01*
Y85698D01*
X-104508Y85831D01*
X-104109D01*
X-105441D02*
X-105175Y85698D01*
X-104908Y85431D01*
Y85164D01*
X-105042Y85031D01*
X-105308D01*
X-105441Y85164D01*
Y85298D01*
X-105308Y85431D01*
X-104908D01*
X-130271Y88625D02*
Y87825D01*
X-130670D01*
X-130804Y87958D01*
Y88492D01*
X-130670Y88625D01*
X-130271D01*
X-131603D02*
X-131070D01*
Y88225D01*
X-131337Y88358D01*
X-131470D01*
X-131603Y88225D01*
Y87958D01*
X-131470Y87825D01*
X-131204D01*
X-131070Y87958D01*
X-129890Y34015D02*
Y33215D01*
X-130289D01*
X-130423Y33348D01*
Y33882D01*
X-130289Y34015D01*
X-129890D01*
X-131089Y33215D02*
Y34015D01*
X-130689Y33615D01*
X-131222D01*
X-130144Y97896D02*
Y97096D01*
X-130543D01*
X-130677Y97229D01*
Y97763D01*
X-130543Y97896D01*
X-130144D01*
X-130943Y97763D02*
X-131077Y97896D01*
X-131343D01*
X-131476Y97763D01*
Y97629D01*
X-131343Y97496D01*
X-131210D01*
X-131343D01*
X-131476Y97363D01*
Y97229D01*
X-131343Y97096D01*
X-131077D01*
X-130943Y97229D01*
X-104236Y101325D02*
Y100525D01*
X-104635D01*
X-104769Y100658D01*
Y101192D01*
X-104635Y101325D01*
X-104236D01*
X-105568Y100525D02*
X-105035D01*
X-105568Y101058D01*
Y101192D01*
X-105435Y101325D01*
X-105169D01*
X-105035Y101192D01*
X-104369Y37444D02*
Y36644D01*
X-104769D01*
X-104902Y36777D01*
Y37311D01*
X-104769Y37444D01*
X-104369D01*
X-105169Y36644D02*
X-105435D01*
X-105302D01*
Y37444D01*
X-105169Y37311D01*
X-69002Y23849D02*
X-68869Y23982D01*
X-68603D01*
X-68469Y23849D01*
Y23315D01*
X-68603Y23182D01*
X-68869D01*
X-69002Y23315D01*
X-69269Y23182D02*
X-69536D01*
X-69402D01*
Y23982D01*
X-69269Y23849D01*
X-69936Y23315D02*
X-70069Y23182D01*
X-70335D01*
X-70469Y23315D01*
Y23849D01*
X-70335Y23982D01*
X-70069D01*
X-69936Y23849D01*
Y23715D01*
X-70069Y23582D01*
X-70469D01*
X-51603Y23976D02*
X-51470Y24109D01*
X-51204D01*
X-51070Y23976D01*
Y23442D01*
X-51204Y23309D01*
X-51470D01*
X-51603Y23442D01*
X-51870Y23309D02*
X-52137D01*
X-52003D01*
Y24109D01*
X-51870Y23976D01*
X-52537D02*
X-52670Y24109D01*
X-52936D01*
X-53070Y23976D01*
Y23842D01*
X-52936Y23709D01*
X-53070Y23576D01*
Y23442D01*
X-52936Y23309D01*
X-52670D01*
X-52537Y23442D01*
Y23576D01*
X-52670Y23709D01*
X-52537Y23842D01*
Y23976D01*
X-52670Y23709D02*
X-52936D01*
X-87036Y23595D02*
X-86903Y23728D01*
X-86637D01*
X-86503Y23595D01*
Y23061D01*
X-86637Y22928D01*
X-86903D01*
X-87036Y23061D01*
X-87303Y22928D02*
X-87570D01*
X-87436D01*
Y23728D01*
X-87303Y23595D01*
X-87970Y23728D02*
X-88503D01*
Y23595D01*
X-87970Y23061D01*
Y22928D01*
X-110183Y113733D02*
X-110050Y113600D01*
Y113334D01*
X-110183Y113200D01*
X-110717D01*
X-110850Y113334D01*
Y113600D01*
X-110717Y113733D01*
X-110850Y114000D02*
Y114267D01*
Y114133D01*
X-110050D01*
X-110183Y114000D01*
X-110050Y115200D02*
X-110183Y114933D01*
X-110450Y114667D01*
X-110717D01*
X-110850Y114800D01*
Y115066D01*
X-110717Y115200D01*
X-110583D01*
X-110450Y115066D01*
Y114667D01*
X-110008Y49858D02*
X-109875Y49725D01*
Y49459D01*
X-110008Y49325D01*
X-110542D01*
X-110675Y49459D01*
Y49725D01*
X-110542Y49858D01*
X-110675Y50125D02*
Y50392D01*
Y50258D01*
X-109875D01*
X-110008Y50125D01*
X-109875Y51325D02*
Y50792D01*
X-110275D01*
X-110142Y51058D01*
Y51191D01*
X-110275Y51325D01*
X-110542D01*
X-110675Y51191D01*
Y50925D01*
X-110542Y50792D01*
X-110083Y129358D02*
X-109950Y129225D01*
Y128959D01*
X-110083Y128825D01*
X-110617D01*
X-110750Y128959D01*
Y129225D01*
X-110617Y129358D01*
X-110750Y129625D02*
Y129892D01*
Y129758D01*
X-109950D01*
X-110083Y129625D01*
X-110750Y130691D02*
X-109950D01*
X-110350Y130292D01*
Y130825D01*
X-110158Y65883D02*
X-110025Y65750D01*
Y65484D01*
X-110158Y65350D01*
X-110692D01*
X-110825Y65484D01*
Y65750D01*
X-110692Y65883D01*
X-110825Y66150D02*
Y66417D01*
Y66283D01*
X-110025D01*
X-110158Y66150D01*
Y66817D02*
X-110025Y66950D01*
Y67216D01*
X-110158Y67350D01*
X-110292D01*
X-110425Y67216D01*
Y67083D01*
Y67216D01*
X-110558Y67350D01*
X-110692D01*
X-110825Y67216D01*
Y66950D01*
X-110692Y66817D01*
X-110158Y17933D02*
X-110025Y17800D01*
Y17534D01*
X-110158Y17400D01*
X-110692D01*
X-110825Y17534D01*
Y17800D01*
X-110692Y17933D01*
X-110825Y18200D02*
Y18467D01*
Y18333D01*
X-110025D01*
X-110158Y18200D01*
X-110825Y19400D02*
Y18867D01*
X-110292Y19400D01*
X-110158D01*
X-110025Y19266D01*
Y19000D01*
X-110158Y18867D01*
X-110258Y81892D02*
X-110125Y81758D01*
Y81492D01*
X-110258Y81359D01*
X-110792D01*
X-110925Y81492D01*
Y81758D01*
X-110792Y81892D01*
X-110925Y82158D02*
Y82425D01*
Y82292D01*
X-110125D01*
X-110258Y82158D01*
X-110925Y82825D02*
Y83091D01*
Y82958D01*
X-110125D01*
X-110258Y82825D01*
X-67351Y64616D02*
X-67218Y64749D01*
X-66952D01*
X-66818Y64616D01*
Y64082D01*
X-66952Y63949D01*
X-67218D01*
X-67351Y64082D01*
X-67618Y63949D02*
X-67885D01*
X-67751D01*
Y64749D01*
X-67618Y64616D01*
X-68285D02*
X-68418Y64749D01*
X-68684D01*
X-68818Y64616D01*
Y64082D01*
X-68684Y63949D01*
X-68418D01*
X-68285Y64082D01*
Y64616D01*
X-110258Y33492D02*
X-110125Y33358D01*
Y33092D01*
X-110258Y32959D01*
X-110792D01*
X-110925Y33092D01*
Y33358D01*
X-110792Y33492D01*
Y33758D02*
X-110925Y33892D01*
Y34158D01*
X-110792Y34291D01*
X-110258D01*
X-110125Y34158D01*
Y33892D01*
X-110258Y33758D01*
X-110392D01*
X-110525Y33892D01*
Y34291D01*
X-89529Y62203D02*
X-89395Y62336D01*
X-89129D01*
X-88996Y62203D01*
Y61669D01*
X-89129Y61536D01*
X-89395D01*
X-89529Y61669D01*
X-89795Y62203D02*
X-89929Y62336D01*
X-90195D01*
X-90328Y62203D01*
Y62069D01*
X-90195Y61936D01*
X-90328Y61803D01*
Y61669D01*
X-90195Y61536D01*
X-89929D01*
X-89795Y61669D01*
Y61803D01*
X-89929Y61936D01*
X-89795Y62069D01*
Y62203D01*
X-89929Y61936D02*
X-90195D01*
X-110283Y97667D02*
X-110150Y97533D01*
Y97267D01*
X-110283Y97134D01*
X-110817D01*
X-110950Y97267D01*
Y97533D01*
X-110817Y97667D01*
X-110150Y97933D02*
Y98466D01*
X-110283D01*
X-110817Y97933D01*
X-110950D01*
X-94355Y61441D02*
X-94221Y61574D01*
X-93955D01*
X-93822Y61441D01*
Y60907D01*
X-93955Y60774D01*
X-94221D01*
X-94355Y60907D01*
X-95154Y61574D02*
X-94888Y61441D01*
X-94621Y61174D01*
Y60907D01*
X-94755Y60774D01*
X-95021D01*
X-95154Y60907D01*
Y61041D01*
X-95021Y61174D01*
X-94621D01*
X-13475Y45417D02*
X-13342Y45550D01*
X-13075D01*
X-12942Y45417D01*
Y44883D01*
X-13075Y44750D01*
X-13342D01*
X-13475Y44883D01*
X-13742Y44750D02*
X-14008D01*
X-13875D01*
Y45550D01*
X-13742Y45417D01*
D97*
X-109437Y80051D02*
X-109970Y79518D01*
X-109437D02*
X-109970Y80051D01*
X-109437Y79785D02*
X-109970D01*
X-109703Y79518D02*
Y80051D01*
X-109437Y31918D02*
X-109970Y31385D01*
X-109437D02*
X-109970Y31918D01*
X-109437Y31652D02*
X-109970D01*
X-109703Y31385D02*
Y31918D01*
X-109437Y16170D02*
X-109970Y15637D01*
X-109437D02*
X-109970Y16170D01*
X-109437Y15904D02*
X-109970D01*
X-109703Y15637D02*
Y16170D01*
X-109437Y127676D02*
X-109970Y127143D01*
X-109437D02*
X-109970Y127676D01*
X-109437Y127410D02*
X-109970D01*
X-109703Y127143D02*
Y127676D01*
X-109437Y111928D02*
X-109970Y111395D01*
X-109437D02*
X-109970Y111928D01*
X-109437Y111662D02*
X-109970D01*
X-109703Y111395D02*
Y111928D01*
X-109437Y95799D02*
X-109970Y95266D01*
X-109437D02*
X-109970Y95799D01*
X-109437Y95533D02*
X-109970D01*
X-109703Y95266D02*
Y95799D01*
X-109437Y63795D02*
X-109970Y63262D01*
X-109437D02*
X-109970Y63795D01*
X-109437Y63529D02*
X-109970D01*
X-109703Y63262D02*
Y63795D01*
X-109437Y48047D02*
X-109970Y47514D01*
X-109437D02*
X-109970Y48047D01*
X-109437Y47781D02*
X-109970D01*
X-109703Y47514D02*
Y48047D01*
%TF.MD5,6a7c426bfa7aa1b27a5661974d90a44f*%
M02*
