%TF.GenerationSoftware,Altium Limited,Altium Designer,21.6.4 (81)*%
G04 Layer_Color=16711935*
%FSLAX43Y43*%
%MOMM*%
%TF.SameCoordinates,51A45B19-5AA5-45A3-BC04-4EA5AD39BA57*%
%TF.FilePolarity,Positive*%
%TF.FileFunction,Other,Mechanical_13*%
%TF.Part,Single*%
G01*
G75*
%TA.AperFunction,NonConductor*%
%ADD40C,0.200*%
%ADD47C,0.100*%
D40*
X92841Y47159D02*
X97159D01*
Y42841D02*
Y47159D01*
X92841Y42841D02*
X97159D01*
X92841D02*
Y47159D01*
X177159Y42841D02*
Y47159D01*
X172841Y42841D02*
X177159D01*
X172841D02*
Y47159D01*
X177159D01*
X162159Y42841D02*
Y47159D01*
X157841Y42841D02*
X162159D01*
X157841D02*
Y47159D01*
X162159D01*
X147159Y42841D02*
Y47159D01*
X142841Y42841D02*
X147159D01*
X142841D02*
Y47159D01*
X147159D01*
X132159Y42841D02*
Y47159D01*
X127841Y42841D02*
X132159D01*
X127841D02*
Y47159D01*
X132159D01*
X177159Y57841D02*
Y62159D01*
X172841Y57841D02*
X177159D01*
X172841D02*
Y62159D01*
X177159D01*
X162159Y57841D02*
Y62159D01*
X157841Y57841D02*
X162159D01*
X157841D02*
Y62159D01*
X162159D01*
X147159Y57841D02*
Y62159D01*
X142841Y57841D02*
X147159D01*
X142841D02*
Y62159D01*
X147159D01*
X132159Y57841D02*
Y62159D01*
X127841Y57841D02*
X132159D01*
X127841D02*
Y62159D01*
X132159D01*
X177159Y72841D02*
Y77159D01*
X172841Y72841D02*
X177159D01*
X172841D02*
Y77159D01*
X177159D01*
X162159Y72841D02*
Y77159D01*
X157841Y72841D02*
X162159D01*
X157841D02*
Y77159D01*
X162159D01*
X147159Y72841D02*
Y77159D01*
X142841Y72841D02*
X147159D01*
X142841D02*
Y77159D01*
X147159D01*
X132159Y72841D02*
Y77159D01*
X127841Y72841D02*
X132159D01*
X127841D02*
Y77159D01*
X132159D01*
X177159Y87841D02*
Y92159D01*
X172841Y87841D02*
X177159D01*
X172841D02*
Y92159D01*
X177159D01*
X162159Y87841D02*
Y92159D01*
X157841Y87841D02*
X162159D01*
X157841D02*
Y92159D01*
X162159D01*
X147159Y87841D02*
Y92159D01*
X142841Y87841D02*
X147159D01*
X142841D02*
Y92159D01*
X147159D01*
X132159Y87841D02*
Y92159D01*
X127841Y87841D02*
X132159D01*
X127841D02*
Y92159D01*
X132159D01*
X92841Y62159D02*
X97159D01*
Y57841D02*
Y62159D01*
X92841Y57841D02*
X97159D01*
X92841D02*
Y62159D01*
Y77159D02*
X97159D01*
Y72841D02*
Y77159D01*
X92841Y72841D02*
X97159D01*
X92841D02*
Y77159D01*
D47*
X198250Y52700D02*
Y81500D01*
X185750D02*
X198250D01*
X185750Y52700D02*
Y81500D01*
Y52700D02*
X198250D01*
X100700Y43331D02*
Y46331D01*
X99300Y43331D02*
Y46331D01*
X100700D01*
X99300Y43331D02*
X100700D01*
X99300Y58444D02*
X100700D01*
X99300Y61444D02*
X100700D01*
X99300Y58444D02*
Y61444D01*
X100700Y58444D02*
Y61444D01*
X87142Y123673D02*
Y129473D01*
X76942D02*
X87142D01*
X76942Y123673D02*
Y129473D01*
Y123673D02*
X87142D01*
X48534Y127100D02*
Y132900D01*
X38334Y127100D02*
X48534D01*
X38334D02*
Y132900D01*
X48534D01*
X100700Y73557D02*
Y76557D01*
X99300Y73557D02*
Y76557D01*
X100700D01*
X99300Y73557D02*
X100700D01*
%TF.MD5,a37e7ea8b21298189de72a5f2df1bf41*%
M02*
