%TF.GenerationSoftware,Altium Limited,Altium Designer,21.6.4 (81)*%
G04 Layer_Color=32768*
%FSLAX43Y43*%
%MOMM*%
%TF.SameCoordinates,51A45B19-5AA5-45A3-BC04-4EA5AD39BA57*%
%TF.FilePolarity,Positive*%
%TF.FileFunction,Other,Mechanical_15*%
%TF.Part,Single*%
G01*
G75*
%TA.AperFunction,NonConductor*%
%ADD40C,0.200*%
%ADD45C,0.152*%
%ADD46C,0.050*%
%ADD47C,0.100*%
D40*
X97159Y46358D02*
G03*
X97139Y43620I-2016J-1355D01*
G01*
X176358Y42841D02*
G03*
X173620Y42861I-1355J2016D01*
G01*
X161358Y42841D02*
G03*
X158620Y42861I-1355J2016D01*
G01*
X146358Y42841D02*
G03*
X143620Y42861I-1355J2016D01*
G01*
X131358Y42841D02*
G03*
X128620Y42861I-1355J2016D01*
G01*
X176358Y57841D02*
G03*
X173620Y57861I-1355J2016D01*
G01*
X161358Y57841D02*
G03*
X158620Y57861I-1355J2016D01*
G01*
X146358Y57841D02*
G03*
X143620Y57861I-1355J2016D01*
G01*
X131358Y57841D02*
G03*
X128620Y57861I-1355J2016D01*
G01*
X176358Y72841D02*
G03*
X173620Y72861I-1355J2016D01*
G01*
X161358Y72841D02*
G03*
X158620Y72861I-1355J2016D01*
G01*
X146358Y72841D02*
G03*
X143620Y72861I-1355J2016D01*
G01*
X131358Y72841D02*
G03*
X128620Y72861I-1355J2016D01*
G01*
X176358Y87841D02*
G03*
X173620Y87861I-1355J2016D01*
G01*
X161358Y87841D02*
G03*
X158620Y87861I-1355J2016D01*
G01*
X146358Y87841D02*
G03*
X143620Y87861I-1355J2016D01*
G01*
X131358Y87841D02*
G03*
X128620Y87861I-1355J2016D01*
G01*
X97159Y61358D02*
G03*
X97139Y58620I-2016J-1355D01*
G01*
X97159Y76358D02*
G03*
X97139Y73620I-2016J-1355D01*
G01*
X156469Y101362D02*
X160777D01*
Y103870D01*
X156469D02*
X160777D01*
X156469Y101362D02*
Y103870D01*
X151019Y101097D02*
Y105405D01*
Y101097D02*
X153527D01*
Y105405D01*
X151019D02*
X153527D01*
X97159Y43621D02*
Y46358D01*
X173621Y42841D02*
X176358D01*
X158621D02*
X161358D01*
X143621D02*
X146358D01*
X128621D02*
X131358D01*
X173621Y57841D02*
X176358D01*
X158621D02*
X161358D01*
X143621D02*
X146358D01*
X128621D02*
X131358D01*
X173621Y72841D02*
X176358D01*
X158621D02*
X161358D01*
X143621D02*
X146358D01*
X128621D02*
X131358D01*
X173621Y87841D02*
X176358D01*
X158621D02*
X161358D01*
X143621D02*
X146358D01*
X128621D02*
X131358D01*
X97159Y58621D02*
Y61358D01*
Y73621D02*
Y76358D01*
D45*
X97540Y44492D02*
Y43730D01*
Y43984D01*
X98048Y44492D01*
X97667Y44111D01*
X98048Y43730D01*
X95000Y45762D02*
Y45000D01*
X95508D01*
X96270Y45762D02*
X95762D01*
Y45000D01*
X96270D01*
X95762Y45381D02*
X96016D01*
X96524Y45762D02*
Y45000D01*
X96904D01*
X97031Y45127D01*
Y45635D01*
X96904Y45762D01*
X96524D01*
X97285Y45000D02*
X97539D01*
X97412D01*
Y45762D01*
X97285Y45635D01*
X97920Y45127D02*
X98047Y45000D01*
X98301D01*
X98428Y45127D01*
Y45635D01*
X98301Y45762D01*
X98047D01*
X97920Y45635D01*
Y45508D01*
X98047Y45381D01*
X98428D01*
X174492Y42460D02*
X173730D01*
X173984D01*
X174492Y41952D01*
X174111Y42333D01*
X173730Y41952D01*
X175762Y45000D02*
X175000D01*
Y44492D01*
X175762Y43730D02*
Y44238D01*
X175000D01*
Y43730D01*
X175381Y44238D02*
Y43984D01*
X175762Y43476D02*
X175000D01*
Y43096D01*
X175127Y42969D01*
X175635D01*
X175762Y43096D01*
Y43476D01*
X175000Y42715D02*
Y42461D01*
Y42588D01*
X175762D01*
X175635Y42715D01*
Y42080D02*
X175762Y41953D01*
Y41699D01*
X175635Y41572D01*
X175508D01*
X175381Y41699D01*
X175254Y41572D01*
X175127D01*
X175000Y41699D01*
Y41953D01*
X175127Y42080D01*
X175254D01*
X175381Y41953D01*
X175508Y42080D01*
X175635D01*
X175381Y41953D02*
Y41699D01*
X159492Y42460D02*
X158730D01*
X158984D01*
X159492Y41952D01*
X159111Y42333D01*
X158730Y41952D01*
X160762Y45000D02*
X160000D01*
Y44492D01*
X160762Y43730D02*
Y44238D01*
X160000D01*
Y43730D01*
X160381Y44238D02*
Y43984D01*
X160762Y43476D02*
X160000D01*
Y43096D01*
X160127Y42969D01*
X160635D01*
X160762Y43096D01*
Y43476D01*
X160000Y42715D02*
Y42461D01*
Y42588D01*
X160762D01*
X160635Y42715D01*
X160762Y42080D02*
Y41572D01*
X160635D01*
X160127Y42080D01*
X160000D01*
X144492Y42460D02*
X143730D01*
X143984D01*
X144492Y41952D01*
X144111Y42333D01*
X143730Y41952D01*
X145762Y45000D02*
X145000D01*
Y44492D01*
X145762Y43730D02*
Y44238D01*
X145000D01*
Y43730D01*
X145381Y44238D02*
Y43984D01*
X145762Y43476D02*
X145000D01*
Y43096D01*
X145127Y42969D01*
X145635D01*
X145762Y43096D01*
Y43476D01*
X145000Y42715D02*
Y42461D01*
Y42588D01*
X145762D01*
X145635Y42715D01*
X145762Y41572D02*
X145635Y41826D01*
X145381Y42080D01*
X145127D01*
X145000Y41953D01*
Y41699D01*
X145127Y41572D01*
X145254D01*
X145381Y41699D01*
Y42080D01*
X129492Y42460D02*
X128730D01*
X128984D01*
X129492Y41952D01*
X129111Y42333D01*
X128730Y41952D01*
X130762Y45000D02*
X130000D01*
Y44492D01*
X130762Y43730D02*
Y44238D01*
X130000D01*
Y43730D01*
X130381Y44238D02*
Y43984D01*
X130762Y43476D02*
X130000D01*
Y43096D01*
X130127Y42969D01*
X130635D01*
X130762Y43096D01*
Y43476D01*
X130000Y42715D02*
Y42461D01*
Y42588D01*
X130762D01*
X130635Y42715D01*
X130762Y41572D02*
Y42080D01*
X130381D01*
X130508Y41826D01*
Y41699D01*
X130381Y41572D01*
X130127D01*
X130000Y41699D01*
Y41953D01*
X130127Y42080D01*
X174492Y57460D02*
X173730D01*
X173984D01*
X174492Y56952D01*
X174111Y57333D01*
X173730Y56952D01*
X175762Y60000D02*
X175000D01*
Y59492D01*
X175762Y58730D02*
Y59238D01*
X175000D01*
Y58730D01*
X175381Y59238D02*
Y58984D01*
X175762Y58476D02*
X175000D01*
Y58096D01*
X175127Y57969D01*
X175635D01*
X175762Y58096D01*
Y58476D01*
X175000Y57715D02*
Y57461D01*
Y57588D01*
X175762D01*
X175635Y57715D01*
X175000Y56699D02*
X175762D01*
X175381Y57080D01*
Y56572D01*
X159492Y57460D02*
X158730D01*
X158984D01*
X159492Y56952D01*
X159111Y57333D01*
X158730Y56952D01*
X160762Y60000D02*
X160000D01*
Y59492D01*
X160762Y58730D02*
Y59238D01*
X160000D01*
Y58730D01*
X160381Y59238D02*
Y58984D01*
X160762Y58476D02*
X160000D01*
Y58096D01*
X160127Y57969D01*
X160635D01*
X160762Y58096D01*
Y58476D01*
X160000Y57715D02*
Y57461D01*
Y57588D01*
X160762D01*
X160635Y57715D01*
Y57080D02*
X160762Y56953D01*
Y56699D01*
X160635Y56572D01*
X160508D01*
X160381Y56699D01*
Y56826D01*
Y56699D01*
X160254Y56572D01*
X160127D01*
X160000Y56699D01*
Y56953D01*
X160127Y57080D01*
X144492Y57460D02*
X143730D01*
X143984D01*
X144492Y56952D01*
X144111Y57333D01*
X143730Y56952D01*
X145762Y60000D02*
X145000D01*
Y59492D01*
X145762Y58730D02*
Y59238D01*
X145000D01*
Y58730D01*
X145381Y59238D02*
Y58984D01*
X145762Y58476D02*
X145000D01*
Y58096D01*
X145127Y57969D01*
X145635D01*
X145762Y58096D01*
Y58476D01*
X145000Y57715D02*
Y57461D01*
Y57588D01*
X145762D01*
X145635Y57715D01*
X145000Y56572D02*
Y57080D01*
X145508Y56572D01*
X145635D01*
X145762Y56699D01*
Y56953D01*
X145635Y57080D01*
X129492Y57460D02*
X128730D01*
X128984D01*
X129492Y56952D01*
X129111Y57333D01*
X128730Y56952D01*
X130762Y60000D02*
X130000D01*
Y59492D01*
X130762Y58730D02*
Y59238D01*
X130000D01*
Y58730D01*
X130381Y59238D02*
Y58984D01*
X130762Y58476D02*
X130000D01*
Y58096D01*
X130127Y57969D01*
X130635D01*
X130762Y58096D01*
Y58476D01*
X130000Y57715D02*
Y57461D01*
Y57588D01*
X130762D01*
X130635Y57715D01*
X130000Y57080D02*
Y56826D01*
Y56953D01*
X130762D01*
X130635Y57080D01*
X174730Y72460D02*
X173730D01*
X174063D01*
X174730Y71794D01*
X174230Y72293D01*
X173730Y71794D01*
X176000Y75000D02*
X175000D01*
Y74334D01*
X176000Y73334D02*
Y74000D01*
X175000D01*
Y73334D01*
X175500Y74000D02*
Y73667D01*
X176000Y73001D02*
X175000D01*
Y72501D01*
X175167Y72334D01*
X175833D01*
X176000Y72501D01*
Y73001D01*
X175000Y72001D02*
Y71668D01*
Y71834D01*
X176000D01*
X175833Y72001D01*
Y71168D02*
X176000Y71001D01*
Y70668D01*
X175833Y70501D01*
X175167D01*
X175000Y70668D01*
Y71001D01*
X175167Y71168D01*
X175833D01*
X159730Y72460D02*
X158730D01*
X159063D01*
X159730Y71794D01*
X159230Y72293D01*
X158730Y71794D01*
X161000Y75000D02*
X160000D01*
Y74334D01*
X161000Y73334D02*
Y74000D01*
X160000D01*
Y73334D01*
X160500Y74000D02*
Y73667D01*
X161000Y73001D02*
X160000D01*
Y72501D01*
X160167Y72334D01*
X160833D01*
X161000Y72501D01*
Y73001D01*
X160167Y72001D02*
X160000Y71834D01*
Y71501D01*
X160167Y71335D01*
X160833D01*
X161000Y71501D01*
Y71834D01*
X160833Y72001D01*
X160666D01*
X160500Y71834D01*
Y71335D01*
X144730Y72460D02*
X143730D01*
X144063D01*
X144730Y71794D01*
X144230Y72293D01*
X143730Y71794D01*
X146000Y75000D02*
X145000D01*
Y74334D01*
X146000Y73334D02*
Y74000D01*
X145000D01*
Y73334D01*
X145500Y74000D02*
Y73667D01*
X146000Y73001D02*
X145000D01*
Y72501D01*
X145167Y72334D01*
X145833D01*
X146000Y72501D01*
Y73001D01*
X145833Y72001D02*
X146000Y71834D01*
Y71501D01*
X145833Y71335D01*
X145666D01*
X145500Y71501D01*
X145333Y71335D01*
X145167D01*
X145000Y71501D01*
Y71834D01*
X145167Y72001D01*
X145333D01*
X145500Y71834D01*
X145666Y72001D01*
X145833D01*
X145500Y71834D02*
Y71501D01*
X129730Y72460D02*
X128730D01*
X129063D01*
X129730Y71794D01*
X129230Y72293D01*
X128730Y71794D01*
X131000Y75000D02*
X130000D01*
Y74334D01*
X131000Y73334D02*
Y74000D01*
X130000D01*
Y73334D01*
X130500Y74000D02*
Y73667D01*
X131000Y73001D02*
X130000D01*
Y72501D01*
X130167Y72334D01*
X130833D01*
X131000Y72501D01*
Y73001D01*
Y72001D02*
Y71335D01*
X130833D01*
X130167Y72001D01*
X130000D01*
X174730Y87460D02*
X173730D01*
X174063D01*
X174730Y86794D01*
X174230Y87293D01*
X173730Y86794D01*
X176000Y90000D02*
X175000D01*
Y89334D01*
X176000Y88334D02*
Y89000D01*
X175000D01*
Y88334D01*
X175500Y89000D02*
Y88667D01*
X176000Y88001D02*
X175000D01*
Y87501D01*
X175167Y87334D01*
X175833D01*
X176000Y87501D01*
Y88001D01*
Y86335D02*
X175833Y86668D01*
X175500Y87001D01*
X175167D01*
X175000Y86834D01*
Y86501D01*
X175167Y86335D01*
X175333D01*
X175500Y86501D01*
Y87001D01*
X159730Y87460D02*
X158730D01*
X159063D01*
X159730Y86794D01*
X159230Y87293D01*
X158730Y86794D01*
X161000Y90000D02*
X160000D01*
Y89334D01*
X161000Y88334D02*
Y89000D01*
X160000D01*
Y88334D01*
X160500Y89000D02*
Y88667D01*
X161000Y88001D02*
X160000D01*
Y87501D01*
X160167Y87334D01*
X160833D01*
X161000Y87501D01*
Y88001D01*
Y86335D02*
Y87001D01*
X160500D01*
X160666Y86668D01*
Y86501D01*
X160500Y86335D01*
X160167D01*
X160000Y86501D01*
Y86834D01*
X160167Y87001D01*
X144730Y87460D02*
X143730D01*
X144063D01*
X144730Y86794D01*
X144230Y87293D01*
X143730Y86794D01*
X146000Y90000D02*
X145000D01*
Y89334D01*
X146000Y88334D02*
Y89000D01*
X145000D01*
Y88334D01*
X145500Y89000D02*
Y88667D01*
X146000Y88001D02*
X145000D01*
Y87501D01*
X145167Y87334D01*
X145833D01*
X146000Y87501D01*
Y88001D01*
X145000Y86501D02*
X146000D01*
X145500Y87001D01*
Y86335D01*
X129730Y87460D02*
X128730D01*
X129063D01*
X129730Y86794D01*
X129230Y87293D01*
X128730Y86794D01*
X131000Y90000D02*
X130000D01*
Y89334D01*
X131000Y88334D02*
Y89000D01*
X130000D01*
Y88334D01*
X130500Y89000D02*
Y88667D01*
X131000Y88001D02*
X130000D01*
Y87501D01*
X130167Y87334D01*
X130833D01*
X131000Y87501D01*
Y88001D01*
X130833Y87001D02*
X131000Y86834D01*
Y86501D01*
X130833Y86335D01*
X130666D01*
X130500Y86501D01*
Y86668D01*
Y86501D01*
X130333Y86335D01*
X130167D01*
X130000Y86501D01*
Y86834D01*
X130167Y87001D01*
X97540Y59730D02*
Y58730D01*
Y59063D01*
X98206Y59730D01*
X97707Y59230D01*
X98206Y58730D01*
X95000Y61000D02*
Y60000D01*
X95666D01*
X96666Y61000D02*
X96000D01*
Y60000D01*
X96666D01*
X96000Y60500D02*
X96333D01*
X96999Y61000D02*
Y60000D01*
X97499D01*
X97666Y60167D01*
Y60833D01*
X97499Y61000D01*
X96999D01*
X97999Y60000D02*
X98332D01*
X98166D01*
Y61000D01*
X97999Y60833D01*
X97540Y74730D02*
Y73730D01*
Y74063D01*
X98206Y74730D01*
X97707Y74230D01*
X98206Y73730D01*
X95000Y76000D02*
Y75000D01*
X95666D01*
X96666Y76000D02*
X96000D01*
Y75000D01*
X96666D01*
X96000Y75500D02*
X96333D01*
X96999Y76000D02*
Y75000D01*
X97499D01*
X97666Y75167D01*
Y75833D01*
X97499Y76000D01*
X96999D01*
X98665Y75000D02*
X97999D01*
X98665Y75666D01*
Y75833D01*
X98499Y76000D01*
X98166D01*
X97999Y75833D01*
D46*
X198350Y52600D02*
Y81600D01*
X185650Y52600D02*
Y81600D01*
X198350D01*
X185650Y52600D02*
X198350D01*
X102375Y42831D02*
Y46831D01*
X97625Y42831D02*
Y46831D01*
X102375D01*
X97625Y42831D02*
X102375D01*
X97625Y57944D02*
X102375D01*
X97625Y61944D02*
X102375D01*
X97625Y57944D02*
Y61944D01*
X102375Y57944D02*
Y61944D01*
X82042Y126073D02*
Y127073D01*
X81542Y126573D02*
X82542D01*
X87492Y123398D02*
Y129748D01*
X76592Y123398D02*
X87492D01*
X76592D02*
Y129748D01*
X87492D01*
X43434Y129500D02*
Y130500D01*
X42934Y130000D02*
X43934D01*
X48884Y126825D02*
Y133175D01*
X37984D02*
X48884D01*
X37984Y126825D02*
Y133175D01*
Y126825D02*
X48884D01*
X102375Y73057D02*
Y77057D01*
X97625Y73057D02*
Y77057D01*
X102375D01*
X97625Y73057D02*
X102375D01*
D47*
X192000Y67000D02*
Y68000D01*
X191500Y67500D02*
X192500D01*
X99500Y44831D02*
X100500D01*
X100000Y44331D02*
Y45331D01*
Y59444D02*
Y60444D01*
X99500Y59944D02*
X100500D01*
X158123Y102616D02*
X159123D01*
X158623Y102116D02*
Y103116D01*
X152273Y102751D02*
Y103751D01*
X151773Y103251D02*
X152773D01*
X99500Y75057D02*
X100500D01*
X100000Y74557D02*
Y75557D01*
%TF.MD5,9ef4007f00ae1444e74c69ad33438709*%
M02*
