%TF.GenerationSoftware,Altium Limited,Altium Designer,21.6.4 (81)*%
G04 Layer_Color=8388736*
%FSLAX43Y43*%
%MOMM*%
%TF.SameCoordinates,51A45B19-5AA5-45A3-BC04-4EA5AD39BA57*%
%TF.FilePolarity,Negative*%
%TF.FileFunction,Soldermask,Top*%
%TF.Part,Single*%
G01*
G75*
%TA.AperFunction,ComponentPad*%
G04:AMPARAMS|DCode=13|XSize=1.95mm|YSize=1.95mm|CornerRadius=0.488mm|HoleSize=0mm|Usage=FLASHONLY|Rotation=0.000|XOffset=0mm|YOffset=0mm|HoleType=Round|Shape=RoundedRectangle|*
%AMROUNDEDRECTD13*
21,1,1.950,0.975,0,0,0.0*
21,1,0.975,1.950,0,0,0.0*
1,1,0.975,0.488,-0.488*
1,1,0.975,-0.488,-0.488*
1,1,0.975,-0.488,0.488*
1,1,0.975,0.488,0.488*
%
%ADD13ROUNDEDRECTD13*%
%ADD14C,1.950*%
%ADD15C,1.500*%
G04:AMPARAMS|DCode=16|XSize=1.5mm|YSize=1.5mm|CornerRadius=0.375mm|HoleSize=0mm|Usage=FLASHONLY|Rotation=0.000|XOffset=0mm|YOffset=0mm|HoleType=Round|Shape=RoundedRectangle|*
%AMROUNDEDRECTD16*
21,1,1.500,0.750,0,0,0.0*
21,1,0.750,1.500,0,0,0.0*
1,1,0.750,0.375,-0.375*
1,1,0.750,-0.375,-0.375*
1,1,0.750,-0.375,0.375*
1,1,0.750,0.375,0.375*
%
%ADD16ROUNDEDRECTD16*%
G04:AMPARAMS|DCode=17|XSize=1.95mm|YSize=1.95mm|CornerRadius=0.488mm|HoleSize=0mm|Usage=FLASHONLY|Rotation=270.000|XOffset=0mm|YOffset=0mm|HoleType=Round|Shape=RoundedRectangle|*
%AMROUNDEDRECTD17*
21,1,1.950,0.975,0,0,270.0*
21,1,0.975,1.950,0,0,270.0*
1,1,0.975,-0.488,-0.488*
1,1,0.975,-0.488,0.488*
1,1,0.975,0.488,0.488*
1,1,0.975,0.488,-0.488*
%
%ADD17ROUNDEDRECTD17*%
%ADD18C,1.800*%
%ADD19R,1.800X1.800*%
%ADD21O,5.080X8.890*%
%ADD22C,1.524*%
%ADD23C,1.600*%
%ADD24R,1.500X1.500*%
%ADD25C,5.842*%
%ADD26C,5.588*%
%ADD27O,1.778X2.540*%
%TA.AperFunction,ViaPad*%
%ADD28C,1.270*%
%ADD29C,0.700*%
%TA.AperFunction,ComponentPad*%
%ADD43C,2.489*%
D13*
X159552Y130500D02*
D03*
D14*
X164552D02*
D03*
X195500Y29925D02*
D03*
Y99314D02*
D03*
Y40894D02*
D03*
Y88392D02*
D03*
D15*
X108204Y4826D02*
D03*
X110744D02*
D03*
X113284D02*
D03*
X145288Y129700D02*
D03*
X147828D02*
D03*
X150368D02*
D03*
X80772Y126873D02*
D03*
X83312D02*
D03*
X85852D02*
D03*
X42164Y129700D02*
D03*
X44704D02*
D03*
X47244D02*
D03*
X139319Y4700D02*
D03*
X136779D02*
D03*
X134239D02*
D03*
X125349D02*
D03*
X122809D02*
D03*
X120269D02*
D03*
X154432Y5080D02*
D03*
X151892D02*
D03*
X106750Y62250D02*
D03*
Y57750D02*
D03*
X113250Y62250D02*
D03*
Y57750D02*
D03*
X106750Y92250D02*
D03*
Y87750D02*
D03*
X113250Y92250D02*
D03*
Y87750D02*
D03*
Y72750D02*
D03*
Y77250D02*
D03*
X106750Y72750D02*
D03*
Y77250D02*
D03*
X113250Y42750D02*
D03*
Y47250D02*
D03*
X106750Y42750D02*
D03*
Y47250D02*
D03*
D16*
X115824Y4826D02*
D03*
X152908Y129700D02*
D03*
X141859Y4700D02*
D03*
X127889D02*
D03*
X149352Y5080D02*
D03*
D17*
X195500Y34925D02*
D03*
Y104314D02*
D03*
Y45894D02*
D03*
Y93392D02*
D03*
D18*
X195750Y55000D02*
D03*
Y70000D02*
D03*
Y75000D02*
D03*
Y80000D02*
D03*
X188250D02*
D03*
Y75000D02*
D03*
Y70000D02*
D03*
D19*
Y55000D02*
D03*
D21*
X183388Y112014D02*
D03*
X183261Y102108D02*
D03*
D22*
X161798Y108839D02*
D03*
Y106934D02*
D03*
Y105029D02*
D03*
X21463Y36322D02*
D03*
D23*
X93730Y45000D02*
D03*
X96270D02*
D03*
X175000Y46270D02*
D03*
Y43730D02*
D03*
X160000Y46270D02*
D03*
Y43730D02*
D03*
X145000Y46270D02*
D03*
Y43730D02*
D03*
X130000Y46270D02*
D03*
Y43730D02*
D03*
X175000Y61270D02*
D03*
Y58730D02*
D03*
X160000Y61270D02*
D03*
Y58730D02*
D03*
X145000Y61270D02*
D03*
Y58730D02*
D03*
X130000Y61270D02*
D03*
Y58730D02*
D03*
X175000Y76270D02*
D03*
Y73730D02*
D03*
X160000Y76270D02*
D03*
Y73730D02*
D03*
X145000Y76270D02*
D03*
Y73730D02*
D03*
X130000Y76270D02*
D03*
Y73730D02*
D03*
X175000Y91270D02*
D03*
Y88730D02*
D03*
X160000Y91270D02*
D03*
Y88730D02*
D03*
X145000Y91270D02*
D03*
Y88730D02*
D03*
X130000Y91270D02*
D03*
Y88730D02*
D03*
X93730Y60000D02*
D03*
X96270D02*
D03*
X93730Y75000D02*
D03*
X96270D02*
D03*
D24*
X78232Y126873D02*
D03*
X39624Y129700D02*
D03*
D25*
X14986Y21082D02*
D03*
D26*
Y113919D02*
D03*
X70104Y114173D02*
D03*
X70485Y20955D02*
D03*
D27*
X18923Y26289D02*
D03*
X21463D02*
D03*
X24003D02*
D03*
X26543D02*
D03*
D28*
X110871Y37846D02*
D03*
X133985Y66421D02*
D03*
X123698Y64516D02*
D03*
X125476Y79756D02*
D03*
X119253Y90805D02*
D03*
D29*
X25400Y28956D02*
D03*
X22733Y28829D02*
D03*
D43*
X110744Y12700D02*
D03*
X159766Y96901D02*
D03*
%TF.MD5,3b8867ec615a71842b0a611cc71010ab*%
M02*
