%TF.GenerationSoftware,Altium Limited,Altium Designer,21.6.4 (81)*%
G04 Layer_Color=16711935*
%FSLAX43Y43*%
%MOMM*%
%TF.SameCoordinates,51A45B19-5AA5-45A3-BC04-4EA5AD39BA57*%
%TF.FilePolarity,Positive*%
%TF.FileFunction,Other,Bottom_3D_Body*%
%TF.Part,Single*%
G01*
G75*
%TA.AperFunction,NonConductor*%
%ADD40C,0.200*%
%ADD47C,0.100*%
D40*
X103300Y73916D02*
X104700D01*
X103300D02*
Y76116D01*
X104700D01*
Y73916D02*
Y76116D01*
X88900Y45700D02*
X91100D01*
X88900Y44300D02*
Y45700D01*
Y44300D02*
X91100D01*
Y45700D01*
X104700Y43604D02*
Y45804D01*
X103300D02*
X104700D01*
X103300Y43604D02*
Y45804D01*
Y43604D02*
X104700D01*
X100900Y48706D02*
X103100D01*
X100900Y47306D02*
Y48706D01*
Y47306D02*
X103100D01*
Y48706D01*
X91100Y59371D02*
Y60771D01*
X88900Y59371D02*
X91100D01*
X88900D02*
Y60771D01*
X91100D01*
X103100Y62673D02*
Y64073D01*
X100900Y62673D02*
X103100D01*
X100900D02*
Y64073D01*
X103100D01*
X103300Y58930D02*
X104700D01*
X103300D02*
Y61130D01*
X104700D01*
Y58930D02*
Y61130D01*
X166940Y71100D02*
X168340D01*
Y68900D02*
Y71100D01*
X166940Y68900D02*
X168340D01*
X166940D02*
Y71100D01*
X136841D02*
X138241D01*
Y68900D02*
Y71100D01*
X136841Y68900D02*
X138241D01*
X136841D02*
Y71100D01*
X138114Y63900D02*
Y66100D01*
X136714D02*
X138114D01*
X136714Y63900D02*
Y66100D01*
Y63900D02*
X138114D01*
X168340D02*
Y66100D01*
X166940D02*
X168340D01*
X166940Y63900D02*
Y66100D01*
Y63900D02*
X168340D01*
X154342Y102151D02*
Y104351D01*
Y102151D02*
X155792D01*
Y104351D01*
X154342D02*
X155792D01*
X157898Y106977D02*
Y109177D01*
Y106977D02*
X159348D01*
Y109177D01*
X157898D02*
X159348D01*
X155386Y13124D02*
Y15324D01*
X153986D02*
X155386D01*
X153986Y13124D02*
Y15324D01*
Y13124D02*
X155386D01*
Y9695D02*
Y11895D01*
X153986D02*
X155386D01*
X153986Y9695D02*
Y11895D01*
Y9695D02*
X155386D01*
X88900Y75757D02*
X91100D01*
X88900Y74357D02*
Y75757D01*
Y74357D02*
X91100D01*
Y75757D01*
X116469Y44000D02*
Y46000D01*
Y44000D02*
X117719D01*
Y46000D01*
X116469D02*
X117719D01*
X117211Y89000D02*
Y91000D01*
X115961D02*
X117211D01*
X115961Y89000D02*
Y91000D01*
Y89000D02*
X117211D01*
X115961Y74000D02*
Y76000D01*
Y74000D02*
X117211D01*
Y76000D01*
X115961D02*
X117211D01*
X115707Y59000D02*
Y61000D01*
Y59000D02*
X116957D01*
Y61000D01*
X115707D02*
X116957D01*
X100900Y79313D02*
X103100D01*
X100900Y77913D02*
Y79313D01*
Y77913D02*
X103100D01*
Y79313D01*
D47*
X167052Y127150D02*
X167652Y127400D01*
Y126200D02*
Y127400D01*
X167052Y126450D02*
X167652Y126200D01*
X156452Y131400D02*
X157052Y131650D01*
X156452Y132600D02*
X157052Y132350D01*
X156452Y131400D02*
Y132600D01*
X157052Y125500D02*
Y131650D01*
Y132350D02*
Y134500D01*
X167052D01*
X157052Y125500D02*
X167052D01*
Y126450D01*
Y127150D02*
Y134500D01*
X192150Y27425D02*
X199500D01*
X190500D02*
X191450D01*
X190500D02*
Y37425D01*
X199500Y27425D02*
Y37425D01*
X197350D02*
X199500D01*
X190500D02*
X196650D01*
X196400Y38025D02*
X197600D01*
X197350Y37425D02*
X197600Y38025D01*
X196400D02*
X196650Y37425D01*
X191200Y26825D02*
X191450Y27425D01*
X191200Y26825D02*
X192400D01*
X192150Y27425D02*
X192400Y26825D01*
X192150Y96814D02*
X199500D01*
X190500D02*
X191450D01*
X190500D02*
Y106814D01*
X199500Y96814D02*
Y106814D01*
X197350D02*
X199500D01*
X190500D02*
X196650D01*
X196400Y107414D02*
X197600D01*
X197350Y106814D02*
X197600Y107414D01*
X196400D02*
X196650Y106814D01*
X191200Y96214D02*
X191450Y96814D01*
X191200Y96214D02*
X192400D01*
X192150Y96814D02*
X192400Y96214D01*
X192150Y38394D02*
X199500D01*
X190500D02*
X191450D01*
X190500D02*
Y48394D01*
X199500Y38394D02*
Y48394D01*
X197350D02*
X199500D01*
X190500D02*
X196650D01*
X196400Y48994D02*
X197600D01*
X197350Y48394D02*
X197600Y48994D01*
X196400D02*
X196650Y48394D01*
X191200Y37794D02*
X191450Y38394D01*
X191200Y37794D02*
X192400D01*
X192150Y38394D02*
X192400Y37794D01*
X192150Y85892D02*
X199500D01*
X190500D02*
X191450D01*
X190500D02*
Y95892D01*
X199500Y85892D02*
Y95892D01*
X197350D02*
X199500D01*
X190500D02*
X196650D01*
X196400Y96492D02*
X197600D01*
X197350Y95892D02*
X197600Y96492D01*
X196400D02*
X196650Y95892D01*
X191200Y85292D02*
X191450Y85892D01*
X191200Y85292D02*
X192400D01*
X192150Y85892D02*
X192400Y85292D01*
%TF.MD5,1985881d0d17c482cee12f24b2175858*%
M02*
