%TF.GenerationSoftware,Altium Limited,Altium Designer,21.6.4 (81)*%
G04 Layer_Color=32768*
%FSLAX43Y43*%
%MOMM*%
%TF.SameCoordinates,51A45B19-5AA5-45A3-BC04-4EA5AD39BA57*%
%TF.FilePolarity,Positive*%
%TF.FileFunction,Other,Bottom_Assembly*%
%TF.Part,Single*%
G01*
G75*
%TA.AperFunction,NonConductor*%
%ADD40C,0.200*%
G36*
X104244Y76051D02*
X104260Y76050D01*
X104276Y76047D01*
X104289Y76043D01*
X104302Y76039D01*
X104315Y76034D01*
X104326Y76028D01*
X104337Y76024D01*
X104346Y76018D01*
X104354Y76013D01*
X104361Y76008D01*
X104367Y76003D01*
X104372Y76000D01*
X104374Y75997D01*
X104376Y75995D01*
X104377Y75994D01*
X104387Y75983D01*
X104397Y75972D01*
X104404Y75960D01*
X104410Y75948D01*
X104417Y75936D01*
X104422Y75924D01*
X104428Y75902D01*
X104431Y75892D01*
X104433Y75882D01*
X104434Y75874D01*
X104435Y75867D01*
X104435Y75861D01*
Y75841D01*
X104434Y75830D01*
X104429Y75807D01*
X104423Y75787D01*
X104415Y75769D01*
X104408Y75754D01*
X104404Y75747D01*
X104401Y75742D01*
X104398Y75737D01*
X104397Y75734D01*
X104396Y75733D01*
X104395Y75732D01*
X104568Y75766D01*
Y76022D01*
X104643D01*
Y75704D01*
X104313Y75642D01*
X104303Y75716D01*
X104313Y75722D01*
X104322Y75731D01*
X104330Y75738D01*
X104337Y75745D01*
X104341Y75753D01*
X104346Y75758D01*
X104348Y75762D01*
X104349Y75763D01*
X104354Y75775D01*
X104359Y75787D01*
X104361Y75798D01*
X104364Y75809D01*
X104365Y75818D01*
X104366Y75826D01*
Y75843D01*
X104364Y75855D01*
X104360Y75874D01*
X104353Y75891D01*
X104347Y75905D01*
X104339Y75916D01*
X104333Y75925D01*
X104328Y75929D01*
X104327Y75931D01*
X104326D01*
X104311Y75944D01*
X104294Y75953D01*
X104276Y75960D01*
X104259Y75965D01*
X104244Y75967D01*
X104238Y75968D01*
X104232D01*
X104227Y75969D01*
X104224D01*
X104222D01*
X104221D01*
X104208D01*
X104196Y75967D01*
X104173Y75963D01*
X104153Y75956D01*
X104138Y75950D01*
X104125Y75942D01*
X104115Y75936D01*
X104112Y75933D01*
X104109Y75931D01*
X104108Y75930D01*
X104107Y75929D01*
X104100Y75922D01*
X104093Y75915D01*
X104082Y75898D01*
X104075Y75882D01*
X104070Y75867D01*
X104067Y75854D01*
X104066Y75843D01*
X104065Y75839D01*
Y75833D01*
X104066Y75816D01*
X104069Y75800D01*
X104074Y75786D01*
X104079Y75775D01*
X104085Y75765D01*
X104090Y75757D01*
X104093Y75754D01*
X104094Y75752D01*
X104107Y75741D01*
X104121Y75732D01*
X104137Y75724D01*
X104151Y75719D01*
X104165Y75715D01*
X104175Y75712D01*
X104179Y75711D01*
X104182Y75710D01*
X104184D01*
X104185D01*
X104178Y75628D01*
X104164Y75630D01*
X104150Y75633D01*
X104124Y75641D01*
X104102Y75651D01*
X104092Y75657D01*
X104083Y75662D01*
X104075Y75667D01*
X104067Y75672D01*
X104062Y75677D01*
X104057Y75682D01*
X104054Y75685D01*
X104050Y75687D01*
X104049Y75689D01*
X104048Y75690D01*
X104040Y75701D01*
X104032Y75712D01*
X104026Y75724D01*
X104020Y75736D01*
X104012Y75759D01*
X104006Y75782D01*
X104004Y75793D01*
X104003Y75803D01*
X104002Y75811D01*
X104001Y75818D01*
X104000Y75825D01*
Y75833D01*
X104001Y75853D01*
X104004Y75871D01*
X104007Y75889D01*
X104012Y75904D01*
X104018Y75919D01*
X104025Y75933D01*
X104031Y75946D01*
X104039Y75957D01*
X104046Y75967D01*
X104053Y75977D01*
X104060Y75984D01*
X104066Y75990D01*
X104070Y75995D01*
X104074Y75999D01*
X104077Y76001D01*
X104078Y76002D01*
X104090Y76011D01*
X104103Y76018D01*
X104115Y76026D01*
X104128Y76031D01*
X104153Y76040D01*
X104177Y76046D01*
X104187Y76048D01*
X104197Y76050D01*
X104205Y76051D01*
X104213Y76051D01*
X104219Y76052D01*
X104224D01*
X104227D01*
X104227D01*
X104244Y76051D01*
D02*
G37*
G36*
X104185Y75468D02*
X104203Y75455D01*
X104220Y75443D01*
X104234Y75431D01*
X104247Y75421D01*
X104256Y75412D01*
X104263Y75404D01*
X104268Y75400D01*
X104270Y75398D01*
X104276Y75390D01*
X104282Y75382D01*
X104292Y75365D01*
X104296Y75358D01*
X104300Y75353D01*
X104301Y75349D01*
X104302Y75347D01*
X104305Y75364D01*
X104308Y75379D01*
X104312Y75393D01*
X104316Y75407D01*
X104321Y75419D01*
X104326Y75430D01*
X104331Y75440D01*
X104336Y75450D01*
X104341Y75457D01*
X104346Y75464D01*
X104349Y75470D01*
X104353Y75475D01*
X104356Y75478D01*
X104359Y75481D01*
X104360Y75482D01*
X104361Y75483D01*
X104370Y75490D01*
X104379Y75498D01*
X104398Y75509D01*
X104418Y75516D01*
X104436Y75522D01*
X104452Y75525D01*
X104459Y75526D01*
X104465D01*
X104470Y75527D01*
X104473D01*
X104475D01*
X104476D01*
X104496Y75526D01*
X104513Y75524D01*
X104530Y75519D01*
X104544Y75514D01*
X104556Y75509D01*
X104565Y75505D01*
X104570Y75501D01*
X104571Y75500D01*
X104572D01*
X104587Y75489D01*
X104600Y75478D01*
X104611Y75466D01*
X104619Y75455D01*
X104626Y75445D01*
X104630Y75437D01*
X104632Y75431D01*
X104633Y75430D01*
Y75429D01*
X104636Y75421D01*
X104639Y75411D01*
X104643Y75390D01*
X104646Y75368D01*
X104649Y75348D01*
X104650Y75328D01*
Y75320D01*
X104651Y75313D01*
Y75016D01*
X104011D01*
Y75101D01*
X104295D01*
Y75210D01*
X104294Y75220D01*
Y75228D01*
X104293Y75234D01*
X104292Y75239D01*
Y75243D01*
X104291Y75244D01*
Y75245D01*
X104287Y75260D01*
X104284Y75267D01*
X104281Y75272D01*
X104278Y75278D01*
X104276Y75281D01*
X104276Y75283D01*
X104275Y75284D01*
X104269Y75291D01*
X104263Y75299D01*
X104249Y75313D01*
X104242Y75319D01*
X104237Y75324D01*
X104233Y75327D01*
X104232Y75328D01*
X104219Y75337D01*
X104205Y75347D01*
X104190Y75357D01*
X104177Y75367D01*
X104164Y75376D01*
X104153Y75382D01*
X104150Y75385D01*
X104147Y75387D01*
X104145Y75389D01*
X104144D01*
X104011Y75473D01*
Y75578D01*
X104185Y75468D01*
D02*
G37*
G36*
X89152Y45638D02*
X89162Y45623D01*
X89174Y45608D01*
X89185Y45595D01*
X89197Y45584D01*
X89205Y45575D01*
X89209Y45572D01*
X89211Y45570D01*
X89212Y45569D01*
X89213Y45568D01*
X89233Y45552D01*
X89252Y45537D01*
X89271Y45524D01*
X89289Y45514D01*
X89305Y45505D01*
X89311Y45501D01*
X89317Y45498D01*
X89321Y45496D01*
X89325Y45495D01*
X89327Y45493D01*
X89328D01*
Y45417D01*
X89314Y45423D01*
X89300Y45429D01*
X89286Y45435D01*
X89273Y45442D01*
X89262Y45447D01*
X89253Y45452D01*
X89247Y45456D01*
X89246Y45457D01*
X89246D01*
X89229Y45467D01*
X89214Y45477D01*
X89201Y45486D01*
X89191Y45495D01*
X89182Y45501D01*
X89176Y45507D01*
X89172Y45510D01*
X89171Y45511D01*
Y45011D01*
X89092D01*
Y45654D01*
X89143D01*
X89152Y45638D01*
D02*
G37*
G36*
X88877Y45313D02*
X88803Y45303D01*
X88796Y45313D01*
X88788Y45322D01*
X88781Y45330D01*
X88773Y45337D01*
X88766Y45341D01*
X88760Y45346D01*
X88756Y45348D01*
X88756Y45349D01*
X88744Y45354D01*
X88732Y45359D01*
X88720Y45361D01*
X88709Y45364D01*
X88700Y45365D01*
X88693Y45366D01*
X88675D01*
X88664Y45364D01*
X88645Y45360D01*
X88628Y45353D01*
X88613Y45347D01*
X88602Y45339D01*
X88594Y45333D01*
X88589Y45328D01*
X88587Y45327D01*
Y45326D01*
X88574Y45311D01*
X88565Y45294D01*
X88559Y45276D01*
X88554Y45259D01*
X88551Y45244D01*
X88550Y45238D01*
Y45232D01*
X88549Y45227D01*
Y45224D01*
Y45222D01*
Y45221D01*
Y45208D01*
X88551Y45196D01*
X88556Y45173D01*
X88562Y45153D01*
X88569Y45138D01*
X88576Y45125D01*
X88583Y45115D01*
X88585Y45112D01*
X88587Y45109D01*
X88588Y45108D01*
X88589Y45107D01*
X88597Y45100D01*
X88604Y45093D01*
X88621Y45082D01*
X88636Y45075D01*
X88652Y45070D01*
X88665Y45067D01*
X88676Y45066D01*
X88680Y45065D01*
X88685D01*
X88703Y45066D01*
X88719Y45069D01*
X88732Y45074D01*
X88744Y45079D01*
X88754Y45085D01*
X88761Y45090D01*
X88765Y45093D01*
X88767Y45094D01*
X88778Y45107D01*
X88787Y45121D01*
X88794Y45137D01*
X88800Y45151D01*
X88804Y45165D01*
X88806Y45175D01*
X88807Y45179D01*
X88808Y45182D01*
Y45184D01*
Y45185D01*
X88891Y45178D01*
X88889Y45164D01*
X88886Y45150D01*
X88878Y45124D01*
X88867Y45102D01*
X88862Y45092D01*
X88856Y45083D01*
X88852Y45075D01*
X88846Y45067D01*
X88842Y45062D01*
X88837Y45057D01*
X88833Y45054D01*
X88831Y45050D01*
X88830Y45049D01*
X88829Y45048D01*
X88817Y45040D01*
X88806Y45032D01*
X88794Y45026D01*
X88782Y45020D01*
X88759Y45012D01*
X88736Y45006D01*
X88726Y45004D01*
X88716Y45003D01*
X88707Y45002D01*
X88700Y45001D01*
X88694Y45000D01*
X88685D01*
X88666Y45001D01*
X88647Y45004D01*
X88630Y45007D01*
X88614Y45012D01*
X88599Y45018D01*
X88585Y45025D01*
X88572Y45031D01*
X88561Y45039D01*
X88551Y45046D01*
X88542Y45053D01*
X88535Y45060D01*
X88528Y45066D01*
X88523Y45070D01*
X88520Y45074D01*
X88518Y45077D01*
X88517Y45078D01*
X88508Y45090D01*
X88500Y45103D01*
X88493Y45115D01*
X88487Y45128D01*
X88478Y45153D01*
X88473Y45177D01*
X88471Y45187D01*
X88469Y45197D01*
X88468Y45205D01*
X88467Y45213D01*
X88466Y45219D01*
Y45224D01*
Y45227D01*
Y45227D01*
X88467Y45244D01*
X88469Y45260D01*
X88472Y45276D01*
X88475Y45289D01*
X88480Y45302D01*
X88485Y45315D01*
X88490Y45326D01*
X88495Y45337D01*
X88500Y45346D01*
X88506Y45354D01*
X88511Y45361D01*
X88515Y45367D01*
X88519Y45372D01*
X88522Y45374D01*
X88523Y45376D01*
X88524Y45377D01*
X88536Y45387D01*
X88547Y45397D01*
X88559Y45404D01*
X88571Y45410D01*
X88583Y45417D01*
X88595Y45422D01*
X88617Y45428D01*
X88627Y45431D01*
X88636Y45433D01*
X88645Y45434D01*
X88652Y45435D01*
X88658Y45435D01*
X88678D01*
X88689Y45434D01*
X88711Y45429D01*
X88732Y45423D01*
X88750Y45415D01*
X88765Y45408D01*
X88771Y45404D01*
X88777Y45401D01*
X88781Y45398D01*
X88784Y45397D01*
X88786Y45396D01*
X88787Y45395D01*
X88753Y45568D01*
X88497D01*
Y45643D01*
X88815D01*
X88877Y45313D01*
D02*
G37*
G36*
X90000Y45011D02*
X89915D01*
Y45295D01*
X89806D01*
X89796Y45294D01*
X89788D01*
X89782Y45293D01*
X89777Y45292D01*
X89773D01*
X89772Y45291D01*
X89771D01*
X89756Y45287D01*
X89749Y45284D01*
X89744Y45281D01*
X89738Y45278D01*
X89735Y45276D01*
X89733Y45276D01*
X89732Y45275D01*
X89724Y45269D01*
X89717Y45263D01*
X89703Y45249D01*
X89697Y45242D01*
X89692Y45237D01*
X89689Y45233D01*
X89688Y45232D01*
X89679Y45219D01*
X89669Y45205D01*
X89659Y45190D01*
X89649Y45177D01*
X89640Y45164D01*
X89634Y45153D01*
X89631Y45150D01*
X89629Y45147D01*
X89627Y45145D01*
Y45144D01*
X89543Y45011D01*
X89438D01*
X89548Y45185D01*
X89561Y45203D01*
X89573Y45220D01*
X89585Y45234D01*
X89595Y45247D01*
X89604Y45256D01*
X89612Y45263D01*
X89616Y45268D01*
X89618Y45270D01*
X89626Y45276D01*
X89634Y45282D01*
X89651Y45292D01*
X89658Y45296D01*
X89663Y45300D01*
X89667Y45301D01*
X89669Y45302D01*
X89652Y45305D01*
X89637Y45308D01*
X89623Y45312D01*
X89609Y45316D01*
X89597Y45321D01*
X89586Y45326D01*
X89576Y45331D01*
X89566Y45336D01*
X89559Y45341D01*
X89552Y45346D01*
X89546Y45349D01*
X89541Y45353D01*
X89538Y45356D01*
X89535Y45359D01*
X89534Y45360D01*
X89533Y45361D01*
X89526Y45370D01*
X89518Y45379D01*
X89507Y45398D01*
X89500Y45418D01*
X89494Y45436D01*
X89491Y45452D01*
X89490Y45459D01*
Y45465D01*
X89489Y45470D01*
Y45473D01*
Y45475D01*
Y45476D01*
X89490Y45496D01*
X89492Y45513D01*
X89497Y45530D01*
X89502Y45544D01*
X89507Y45556D01*
X89511Y45565D01*
X89515Y45570D01*
X89516Y45571D01*
Y45572D01*
X89527Y45587D01*
X89538Y45600D01*
X89550Y45611D01*
X89561Y45619D01*
X89571Y45626D01*
X89579Y45630D01*
X89585Y45632D01*
X89586Y45633D01*
X89587D01*
X89595Y45636D01*
X89605Y45639D01*
X89626Y45643D01*
X89648Y45646D01*
X89668Y45649D01*
X89688Y45650D01*
X89696D01*
X89703Y45651D01*
X90000D01*
Y45011D01*
D02*
G37*
G36*
X104631Y45819D02*
X104556D01*
Y46132D01*
X104529Y46110D01*
X104500Y46089D01*
X104472Y46070D01*
X104446Y46053D01*
X104434Y46046D01*
X104423Y46039D01*
X104412Y46033D01*
X104404Y46028D01*
X104397Y46024D01*
X104392Y46021D01*
X104388Y46020D01*
X104387Y46019D01*
X104350Y46000D01*
X104313Y45984D01*
X104278Y45970D01*
X104263Y45964D01*
X104247Y45959D01*
X104233Y45953D01*
X104220Y45949D01*
X104209Y45946D01*
X104200Y45943D01*
X104191Y45940D01*
X104186Y45938D01*
X104182Y45937D01*
X104181D01*
X104143Y45928D01*
X104125Y45924D01*
X104108Y45922D01*
X104092Y45919D01*
X104077Y45916D01*
X104064Y45914D01*
X104051Y45912D01*
X104040Y45911D01*
X104030Y45911D01*
X104020Y45910D01*
X104013D01*
X104007Y45909D01*
X104004D01*
X104001D01*
X104000D01*
Y45989D01*
X104035Y45992D01*
X104067Y45997D01*
X104097Y46001D01*
X104111Y46004D01*
X104124Y46007D01*
X104135Y46009D01*
X104145Y46011D01*
X104154Y46013D01*
X104162Y46015D01*
X104167Y46017D01*
X104172Y46018D01*
X104175Y46019D01*
X104176D01*
X104218Y46033D01*
X104258Y46047D01*
X104277Y46055D01*
X104296Y46062D01*
X104312Y46070D01*
X104329Y46078D01*
X104344Y46084D01*
X104357Y46091D01*
X104368Y46096D01*
X104378Y46101D01*
X104386Y46106D01*
X104392Y46108D01*
X104396Y46110D01*
X104397Y46111D01*
X104416Y46122D01*
X104435Y46133D01*
X104453Y46144D01*
X104470Y46156D01*
X104484Y46166D01*
X104499Y46176D01*
X104512Y46186D01*
X104523Y46194D01*
X104534Y46203D01*
X104544Y46210D01*
X104551Y46217D01*
X104558Y46223D01*
X104563Y46227D01*
X104567Y46230D01*
X104569Y46232D01*
X104570Y46233D01*
X104631D01*
Y45819D01*
D02*
G37*
G36*
X104643Y45561D02*
X104627Y45552D01*
X104612Y45542D01*
X104597Y45530D01*
X104584Y45519D01*
X104573Y45507D01*
X104564Y45499D01*
X104561Y45495D01*
X104558Y45493D01*
X104558Y45492D01*
X104557Y45491D01*
X104541Y45471D01*
X104526Y45452D01*
X104513Y45433D01*
X104503Y45415D01*
X104494Y45399D01*
X104490Y45393D01*
X104487Y45387D01*
X104484Y45383D01*
X104484Y45379D01*
X104482Y45377D01*
Y45376D01*
X104406D01*
X104411Y45390D01*
X104418Y45404D01*
X104424Y45418D01*
X104431Y45431D01*
X104436Y45442D01*
X104441Y45451D01*
X104445Y45457D01*
X104446Y45458D01*
Y45458D01*
X104456Y45475D01*
X104466Y45490D01*
X104475Y45503D01*
X104484Y45513D01*
X104490Y45522D01*
X104496Y45528D01*
X104499Y45532D01*
X104500Y45533D01*
X104000D01*
Y45612D01*
X104643D01*
Y45561D01*
D02*
G37*
G36*
X104174Y45156D02*
X104192Y45143D01*
X104209Y45131D01*
X104223Y45119D01*
X104236Y45109D01*
X104245Y45100D01*
X104252Y45092D01*
X104257Y45088D01*
X104259Y45086D01*
X104264Y45078D01*
X104271Y45070D01*
X104281Y45053D01*
X104285Y45046D01*
X104288Y45041D01*
X104290Y45037D01*
X104291Y45035D01*
X104294Y45052D01*
X104297Y45067D01*
X104301Y45081D01*
X104305Y45095D01*
X104310Y45107D01*
X104315Y45118D01*
X104320Y45128D01*
X104325Y45138D01*
X104330Y45145D01*
X104335Y45152D01*
X104338Y45158D01*
X104342Y45163D01*
X104345Y45166D01*
X104348Y45169D01*
X104349Y45170D01*
X104349Y45171D01*
X104359Y45178D01*
X104368Y45186D01*
X104387Y45197D01*
X104407Y45204D01*
X104425Y45210D01*
X104441Y45213D01*
X104447Y45214D01*
X104454D01*
X104459Y45215D01*
X104462D01*
X104464D01*
X104465D01*
X104484Y45214D01*
X104502Y45212D01*
X104519Y45207D01*
X104533Y45202D01*
X104545Y45197D01*
X104554Y45193D01*
X104559Y45189D01*
X104560Y45188D01*
X104561D01*
X104576Y45177D01*
X104589Y45166D01*
X104600Y45154D01*
X104608Y45143D01*
X104615Y45133D01*
X104619Y45125D01*
X104621Y45119D01*
X104622Y45118D01*
Y45117D01*
X104625Y45109D01*
X104628Y45099D01*
X104632Y45078D01*
X104635Y45056D01*
X104638Y45036D01*
X104639Y45016D01*
Y45008D01*
X104640Y45001D01*
Y44704D01*
X104000D01*
Y44789D01*
X104284D01*
Y44898D01*
X104283Y44908D01*
Y44916D01*
X104282Y44922D01*
X104281Y44927D01*
Y44931D01*
X104280Y44932D01*
Y44933D01*
X104276Y44948D01*
X104273Y44955D01*
X104270Y44960D01*
X104267Y44966D01*
X104265Y44969D01*
X104264Y44971D01*
X104263Y44972D01*
X104258Y44979D01*
X104251Y44987D01*
X104238Y45001D01*
X104231Y45007D01*
X104226Y45012D01*
X104222Y45015D01*
X104221Y45016D01*
X104208Y45025D01*
X104194Y45035D01*
X104179Y45045D01*
X104165Y45055D01*
X104153Y45064D01*
X104142Y45070D01*
X104139Y45073D01*
X104136Y45075D01*
X104134Y45077D01*
X104133D01*
X104000Y45161D01*
Y45266D01*
X104174Y45156D01*
D02*
G37*
G36*
X101152Y48644D02*
X101162Y48629D01*
X101174Y48614D01*
X101185Y48601D01*
X101197Y48590D01*
X101205Y48581D01*
X101209Y48578D01*
X101211Y48576D01*
X101212Y48575D01*
X101213Y48574D01*
X101233Y48558D01*
X101252Y48543D01*
X101271Y48530D01*
X101289Y48520D01*
X101305Y48511D01*
X101311Y48507D01*
X101317Y48504D01*
X101321Y48502D01*
X101325Y48501D01*
X101327Y48499D01*
X101328D01*
Y48423D01*
X101314Y48429D01*
X101300Y48435D01*
X101286Y48441D01*
X101273Y48448D01*
X101262Y48453D01*
X101253Y48458D01*
X101247Y48462D01*
X101246Y48463D01*
X101246D01*
X101229Y48473D01*
X101214Y48483D01*
X101201Y48492D01*
X101191Y48501D01*
X101182Y48507D01*
X101176Y48513D01*
X101172Y48516D01*
X101171Y48517D01*
Y48017D01*
X101092D01*
Y48660D01*
X101143D01*
X101152Y48644D01*
D02*
G37*
G36*
X100683Y48659D02*
X100700Y48657D01*
X100717Y48653D01*
X100732Y48649D01*
X100746Y48642D01*
X100760Y48637D01*
X100772Y48629D01*
X100783Y48623D01*
X100793Y48616D01*
X100802Y48609D01*
X100809Y48603D01*
X100815Y48598D01*
X100819Y48592D01*
X100823Y48588D01*
X100825Y48587D01*
X100826Y48586D01*
X100838Y48569D01*
X100848Y48550D01*
X100857Y48529D01*
X100866Y48508D01*
X100872Y48486D01*
X100878Y48464D01*
X100882Y48441D01*
X100886Y48419D01*
X100889Y48398D01*
X100891Y48379D01*
X100892Y48361D01*
X100893Y48346D01*
Y48333D01*
X100894Y48324D01*
Y48320D01*
Y48318D01*
Y48317D01*
Y48316D01*
X100893Y48286D01*
X100891Y48258D01*
X100889Y48232D01*
X100884Y48208D01*
X100879Y48187D01*
X100875Y48168D01*
X100869Y48150D01*
X100863Y48134D01*
X100857Y48122D01*
X100852Y48110D01*
X100847Y48100D01*
X100842Y48092D01*
X100838Y48085D01*
X100835Y48082D01*
X100833Y48079D01*
X100832Y48078D01*
X100820Y48065D01*
X100807Y48054D01*
X100794Y48045D01*
X100781Y48036D01*
X100768Y48029D01*
X100755Y48024D01*
X100742Y48019D01*
X100729Y48015D01*
X100718Y48012D01*
X100707Y48010D01*
X100697Y48008D01*
X100689Y48007D01*
X100682D01*
X100677Y48006D01*
X100672D01*
X100651Y48007D01*
X100632Y48011D01*
X100614Y48014D01*
X100598Y48020D01*
X100586Y48024D01*
X100577Y48029D01*
X100573Y48030D01*
X100571Y48032D01*
X100570Y48033D01*
X100569D01*
X100553Y48044D01*
X100538Y48057D01*
X100526Y48070D01*
X100516Y48083D01*
X100508Y48095D01*
X100502Y48104D01*
X100500Y48108D01*
X100499Y48110D01*
X100498Y48111D01*
Y48112D01*
X100488Y48132D01*
X100482Y48152D01*
X100477Y48171D01*
X100474Y48188D01*
X100472Y48203D01*
Y48208D01*
X100471Y48214D01*
Y48219D01*
Y48221D01*
Y48223D01*
Y48224D01*
X100472Y48241D01*
X100474Y48257D01*
X100476Y48272D01*
X100479Y48286D01*
X100484Y48299D01*
X100488Y48312D01*
X100493Y48323D01*
X100499Y48333D01*
X100504Y48343D01*
X100509Y48351D01*
X100513Y48357D01*
X100518Y48364D01*
X100521Y48368D01*
X100523Y48371D01*
X100525Y48373D01*
X100526Y48374D01*
X100536Y48384D01*
X100548Y48393D01*
X100560Y48401D01*
X100571Y48407D01*
X100582Y48414D01*
X100593Y48418D01*
X100614Y48425D01*
X100623Y48428D01*
X100633Y48429D01*
X100640Y48430D01*
X100647Y48431D01*
X100653Y48432D01*
X100660D01*
X100677Y48431D01*
X100693Y48429D01*
X100707Y48426D01*
X100720Y48422D01*
X100732Y48417D01*
X100740Y48415D01*
X100745Y48412D01*
X100746Y48411D01*
X100747D01*
X100762Y48402D01*
X100775Y48392D01*
X100787Y48381D01*
X100796Y48370D01*
X100805Y48361D01*
X100811Y48354D01*
X100815Y48348D01*
X100816Y48347D01*
Y48364D01*
X100815Y48380D01*
X100814Y48395D01*
X100812Y48410D01*
X100811Y48423D01*
X100809Y48435D01*
X100807Y48446D01*
X100805Y48456D01*
X100803Y48465D01*
X100801Y48473D01*
X100799Y48479D01*
X100798Y48485D01*
X100796Y48489D01*
X100795Y48491D01*
X100794Y48493D01*
Y48494D01*
X100785Y48513D01*
X100776Y48529D01*
X100766Y48542D01*
X100756Y48553D01*
X100748Y48563D01*
X100742Y48569D01*
X100737Y48573D01*
X100735Y48574D01*
X100724Y48581D01*
X100713Y48586D01*
X100702Y48589D01*
X100691Y48592D01*
X100683Y48594D01*
X100675Y48595D01*
X100669D01*
X100652Y48593D01*
X100636Y48589D01*
X100623Y48584D01*
X100611Y48578D01*
X100602Y48572D01*
X100596Y48566D01*
X100592Y48563D01*
X100590Y48561D01*
X100584Y48552D01*
X100577Y48542D01*
X100572Y48531D01*
X100568Y48520D01*
X100564Y48510D01*
X100561Y48502D01*
X100560Y48496D01*
X100560Y48495D01*
Y48494D01*
X100481Y48501D01*
X100487Y48527D01*
X100495Y48550D01*
X100504Y48570D01*
X100514Y48587D01*
X100524Y48600D01*
X100528Y48605D01*
X100533Y48610D01*
X100536Y48612D01*
X100538Y48615D01*
X100539Y48616D01*
X100540Y48617D01*
X100549Y48625D01*
X100560Y48631D01*
X100580Y48642D01*
X100600Y48649D01*
X100620Y48654D01*
X100637Y48658D01*
X100645Y48659D01*
X100651D01*
X100657Y48660D01*
X100664D01*
X100683Y48659D01*
D02*
G37*
G36*
X102000Y48017D02*
X101915D01*
Y48301D01*
X101806D01*
X101796Y48300D01*
X101788D01*
X101782Y48299D01*
X101777Y48298D01*
X101773D01*
X101772Y48297D01*
X101771D01*
X101756Y48293D01*
X101749Y48290D01*
X101744Y48287D01*
X101738Y48284D01*
X101735Y48282D01*
X101733Y48282D01*
X101732Y48281D01*
X101724Y48275D01*
X101717Y48269D01*
X101703Y48255D01*
X101697Y48248D01*
X101692Y48243D01*
X101689Y48239D01*
X101688Y48238D01*
X101679Y48225D01*
X101669Y48211D01*
X101659Y48196D01*
X101649Y48183D01*
X101640Y48170D01*
X101634Y48159D01*
X101631Y48156D01*
X101629Y48153D01*
X101627Y48151D01*
Y48150D01*
X101543Y48017D01*
X101438D01*
X101548Y48191D01*
X101561Y48209D01*
X101573Y48226D01*
X101585Y48240D01*
X101595Y48253D01*
X101604Y48262D01*
X101612Y48269D01*
X101616Y48274D01*
X101618Y48276D01*
X101626Y48282D01*
X101634Y48288D01*
X101651Y48298D01*
X101658Y48302D01*
X101663Y48306D01*
X101667Y48307D01*
X101669Y48308D01*
X101652Y48311D01*
X101637Y48314D01*
X101623Y48318D01*
X101609Y48322D01*
X101597Y48327D01*
X101586Y48332D01*
X101576Y48337D01*
X101566Y48342D01*
X101559Y48347D01*
X101552Y48352D01*
X101546Y48355D01*
X101541Y48359D01*
X101538Y48362D01*
X101535Y48365D01*
X101534Y48366D01*
X101533Y48367D01*
X101526Y48376D01*
X101518Y48385D01*
X101507Y48404D01*
X101500Y48424D01*
X101494Y48442D01*
X101491Y48458D01*
X101490Y48465D01*
Y48471D01*
X101489Y48476D01*
Y48479D01*
Y48481D01*
Y48482D01*
X101490Y48502D01*
X101492Y48519D01*
X101497Y48536D01*
X101502Y48550D01*
X101507Y48562D01*
X101511Y48571D01*
X101515Y48576D01*
X101516Y48577D01*
Y48578D01*
X101527Y48593D01*
X101538Y48606D01*
X101550Y48617D01*
X101561Y48625D01*
X101571Y48632D01*
X101579Y48636D01*
X101585Y48638D01*
X101586Y48639D01*
X101587D01*
X101595Y48642D01*
X101605Y48645D01*
X101626Y48649D01*
X101648Y48652D01*
X101668Y48655D01*
X101688Y48656D01*
X101696D01*
X101703Y48657D01*
X102000D01*
Y48017D01*
D02*
G37*
G36*
X89180Y60724D02*
X89197Y60722D01*
X89214Y60718D01*
X89230Y60714D01*
X89244Y60707D01*
X89258Y60702D01*
X89270Y60694D01*
X89281Y60688D01*
X89290Y60681D01*
X89299Y60674D01*
X89307Y60668D01*
X89312Y60663D01*
X89317Y60657D01*
X89320Y60653D01*
X89322Y60652D01*
X89323Y60651D01*
X89335Y60634D01*
X89345Y60615D01*
X89355Y60594D01*
X89363Y60573D01*
X89369Y60551D01*
X89375Y60529D01*
X89380Y60506D01*
X89383Y60484D01*
X89386Y60463D01*
X89388Y60444D01*
X89390Y60426D01*
X89391Y60411D01*
Y60398D01*
X89392Y60389D01*
Y60385D01*
Y60383D01*
Y60382D01*
Y60381D01*
X89391Y60351D01*
X89389Y60323D01*
X89386Y60298D01*
X89381Y60273D01*
X89377Y60252D01*
X89372Y60233D01*
X89367Y60215D01*
X89360Y60200D01*
X89355Y60187D01*
X89349Y60175D01*
X89344Y60165D01*
X89339Y60157D01*
X89335Y60151D01*
X89332Y60147D01*
X89331Y60144D01*
X89330Y60143D01*
X89318Y60130D01*
X89305Y60119D01*
X89292Y60110D01*
X89279Y60102D01*
X89265Y60094D01*
X89252Y60089D01*
X89239Y60084D01*
X89226Y60080D01*
X89215Y60077D01*
X89204Y60075D01*
X89195Y60073D01*
X89186Y60072D01*
X89179D01*
X89174Y60071D01*
X89170D01*
X89148Y60072D01*
X89129Y60076D01*
X89112Y60079D01*
X89096Y60085D01*
X89084Y60089D01*
X89075Y60094D01*
X89071Y60095D01*
X89068Y60097D01*
X89067Y60098D01*
X89066D01*
X89050Y60109D01*
X89036Y60122D01*
X89024Y60135D01*
X89014Y60148D01*
X89005Y60160D01*
X89000Y60169D01*
X88998Y60173D01*
X88996Y60175D01*
X88995Y60176D01*
Y60177D01*
X88986Y60197D01*
X88979Y60217D01*
X88975Y60236D01*
X88972Y60253D01*
X88969Y60268D01*
Y60273D01*
X88968Y60279D01*
Y60284D01*
Y60286D01*
Y60288D01*
Y60289D01*
X88969Y60306D01*
X88971Y60322D01*
X88974Y60337D01*
X88977Y60351D01*
X88981Y60364D01*
X88986Y60377D01*
X88990Y60388D01*
X88996Y60398D01*
X89001Y60408D01*
X89006Y60416D01*
X89011Y60422D01*
X89015Y60429D01*
X89018Y60433D01*
X89021Y60436D01*
X89023Y60438D01*
X89024Y60439D01*
X89034Y60449D01*
X89045Y60458D01*
X89057Y60466D01*
X89068Y60472D01*
X89079Y60479D01*
X89090Y60483D01*
X89112Y60490D01*
X89121Y60493D01*
X89130Y60494D01*
X89137Y60495D01*
X89145Y60496D01*
X89150Y60497D01*
X89158D01*
X89174Y60496D01*
X89190Y60494D01*
X89205Y60491D01*
X89218Y60487D01*
X89229Y60482D01*
X89237Y60480D01*
X89243Y60477D01*
X89244Y60476D01*
X89245D01*
X89259Y60467D01*
X89272Y60457D01*
X89284Y60446D01*
X89294Y60435D01*
X89302Y60426D01*
X89308Y60419D01*
X89312Y60413D01*
X89313Y60412D01*
Y60429D01*
X89312Y60445D01*
X89311Y60460D01*
X89309Y60475D01*
X89308Y60488D01*
X89307Y60500D01*
X89305Y60511D01*
X89302Y60521D01*
X89300Y60530D01*
X89298Y60538D01*
X89296Y60544D01*
X89296Y60550D01*
X89294Y60554D01*
X89293Y60556D01*
X89292Y60558D01*
Y60559D01*
X89283Y60578D01*
X89273Y60594D01*
X89263Y60607D01*
X89254Y60618D01*
X89246Y60628D01*
X89239Y60634D01*
X89234Y60638D01*
X89233Y60639D01*
X89222Y60646D01*
X89210Y60651D01*
X89199Y60654D01*
X89188Y60657D01*
X89180Y60659D01*
X89173Y60660D01*
X89166D01*
X89149Y60658D01*
X89134Y60654D01*
X89121Y60649D01*
X89109Y60643D01*
X89099Y60637D01*
X89093Y60631D01*
X89089Y60628D01*
X89087Y60626D01*
X89081Y60617D01*
X89075Y60607D01*
X89069Y60596D01*
X89065Y60585D01*
X89062Y60575D01*
X89059Y60567D01*
X89058Y60561D01*
X89057Y60560D01*
Y60559D01*
X88978Y60566D01*
X88984Y60592D01*
X88992Y60615D01*
X89001Y60635D01*
X89012Y60652D01*
X89022Y60665D01*
X89026Y60670D01*
X89030Y60675D01*
X89033Y60678D01*
X89036Y60680D01*
X89037Y60681D01*
X89038Y60682D01*
X89047Y60690D01*
X89057Y60696D01*
X89077Y60707D01*
X89098Y60714D01*
X89117Y60719D01*
X89135Y60723D01*
X89142Y60724D01*
X89148D01*
X89154Y60725D01*
X89161D01*
X89180Y60724D01*
D02*
G37*
G36*
X90000Y60082D02*
X89915D01*
Y60366D01*
X89806D01*
X89796Y60365D01*
X89788D01*
X89782Y60364D01*
X89777Y60363D01*
X89773D01*
X89772Y60362D01*
X89771D01*
X89756Y60358D01*
X89749Y60355D01*
X89744Y60352D01*
X89738Y60349D01*
X89735Y60347D01*
X89733Y60347D01*
X89732Y60346D01*
X89724Y60340D01*
X89717Y60334D01*
X89703Y60320D01*
X89697Y60313D01*
X89692Y60308D01*
X89689Y60304D01*
X89688Y60303D01*
X89679Y60290D01*
X89669Y60276D01*
X89659Y60261D01*
X89649Y60248D01*
X89640Y60235D01*
X89634Y60224D01*
X89631Y60221D01*
X89629Y60218D01*
X89627Y60216D01*
Y60215D01*
X89543Y60082D01*
X89438D01*
X89548Y60256D01*
X89561Y60274D01*
X89573Y60291D01*
X89585Y60305D01*
X89595Y60318D01*
X89604Y60327D01*
X89612Y60334D01*
X89616Y60339D01*
X89618Y60341D01*
X89626Y60347D01*
X89634Y60353D01*
X89651Y60363D01*
X89658Y60367D01*
X89663Y60371D01*
X89667Y60372D01*
X89669Y60373D01*
X89652Y60376D01*
X89637Y60379D01*
X89623Y60383D01*
X89609Y60387D01*
X89597Y60392D01*
X89586Y60397D01*
X89576Y60402D01*
X89566Y60407D01*
X89559Y60412D01*
X89552Y60417D01*
X89546Y60420D01*
X89541Y60424D01*
X89538Y60427D01*
X89535Y60430D01*
X89534Y60431D01*
X89533Y60432D01*
X89526Y60441D01*
X89518Y60450D01*
X89507Y60469D01*
X89500Y60489D01*
X89494Y60507D01*
X89491Y60523D01*
X89490Y60530D01*
Y60536D01*
X89489Y60541D01*
Y60544D01*
Y60546D01*
Y60547D01*
X89490Y60567D01*
X89492Y60584D01*
X89497Y60601D01*
X89502Y60615D01*
X89507Y60627D01*
X89511Y60636D01*
X89515Y60641D01*
X89516Y60642D01*
Y60643D01*
X89527Y60658D01*
X89538Y60671D01*
X89550Y60682D01*
X89561Y60690D01*
X89571Y60697D01*
X89579Y60701D01*
X89585Y60703D01*
X89586Y60704D01*
X89587D01*
X89595Y60707D01*
X89605Y60710D01*
X89626Y60714D01*
X89648Y60717D01*
X89668Y60720D01*
X89688Y60721D01*
X89696D01*
X89703Y60722D01*
X90000D01*
Y60082D01*
D02*
G37*
G36*
X101152Y64000D02*
X101162Y63985D01*
X101174Y63970D01*
X101185Y63957D01*
X101197Y63946D01*
X101205Y63937D01*
X101209Y63934D01*
X101211Y63931D01*
X101212Y63931D01*
X101213Y63930D01*
X101233Y63914D01*
X101252Y63899D01*
X101271Y63886D01*
X101289Y63876D01*
X101305Y63867D01*
X101311Y63863D01*
X101317Y63860D01*
X101321Y63857D01*
X101325Y63857D01*
X101327Y63855D01*
X101328D01*
Y63779D01*
X101314Y63784D01*
X101300Y63791D01*
X101286Y63797D01*
X101273Y63804D01*
X101262Y63809D01*
X101253Y63814D01*
X101247Y63818D01*
X101246Y63819D01*
X101246D01*
X101229Y63829D01*
X101214Y63839D01*
X101201Y63848D01*
X101191Y63857D01*
X101182Y63863D01*
X101176Y63869D01*
X101172Y63872D01*
X101171Y63873D01*
Y63373D01*
X101092D01*
Y64016D01*
X101143D01*
X101152Y64000D01*
D02*
G37*
G36*
X102000Y63373D02*
X101915D01*
Y63657D01*
X101806D01*
X101796Y63656D01*
X101788D01*
X101782Y63655D01*
X101777Y63654D01*
X101773D01*
X101772Y63653D01*
X101771D01*
X101756Y63649D01*
X101749Y63646D01*
X101744Y63643D01*
X101738Y63640D01*
X101735Y63638D01*
X101733Y63637D01*
X101732Y63636D01*
X101724Y63631D01*
X101717Y63624D01*
X101703Y63611D01*
X101697Y63604D01*
X101692Y63599D01*
X101689Y63595D01*
X101688Y63594D01*
X101679Y63581D01*
X101669Y63567D01*
X101659Y63552D01*
X101649Y63538D01*
X101640Y63526D01*
X101634Y63515D01*
X101631Y63512D01*
X101629Y63509D01*
X101627Y63507D01*
Y63506D01*
X101543Y63373D01*
X101438D01*
X101548Y63547D01*
X101561Y63565D01*
X101573Y63582D01*
X101585Y63596D01*
X101595Y63609D01*
X101604Y63618D01*
X101612Y63625D01*
X101616Y63630D01*
X101618Y63632D01*
X101626Y63637D01*
X101634Y63644D01*
X101651Y63654D01*
X101658Y63658D01*
X101663Y63661D01*
X101667Y63663D01*
X101669Y63664D01*
X101652Y63667D01*
X101637Y63670D01*
X101623Y63674D01*
X101609Y63678D01*
X101597Y63683D01*
X101586Y63688D01*
X101576Y63693D01*
X101566Y63698D01*
X101559Y63703D01*
X101552Y63708D01*
X101546Y63711D01*
X101541Y63715D01*
X101538Y63718D01*
X101535Y63721D01*
X101534Y63722D01*
X101533Y63722D01*
X101526Y63732D01*
X101518Y63741D01*
X101507Y63760D01*
X101500Y63780D01*
X101494Y63798D01*
X101491Y63814D01*
X101490Y63820D01*
Y63827D01*
X101489Y63832D01*
Y63835D01*
Y63837D01*
Y63838D01*
X101490Y63857D01*
X101492Y63875D01*
X101497Y63892D01*
X101502Y63906D01*
X101507Y63918D01*
X101511Y63927D01*
X101515Y63932D01*
X101516Y63933D01*
Y63934D01*
X101527Y63949D01*
X101538Y63962D01*
X101550Y63973D01*
X101561Y63981D01*
X101571Y63988D01*
X101579Y63992D01*
X101585Y63994D01*
X101586Y63995D01*
X101587D01*
X101595Y63998D01*
X101605Y64001D01*
X101626Y64005D01*
X101648Y64008D01*
X101668Y64011D01*
X101688Y64012D01*
X101696D01*
X101703Y64013D01*
X102000D01*
Y63373D01*
D02*
G37*
G36*
X104076Y60740D02*
X104092Y60751D01*
X104098Y60757D01*
X104104Y60761D01*
X104110Y60766D01*
X104114Y60770D01*
X104116Y60772D01*
X104117Y60773D01*
X104122Y60778D01*
X104127Y60784D01*
X104139Y60796D01*
X104153Y60811D01*
X104166Y60827D01*
X104178Y60842D01*
X104184Y60848D01*
X104190Y60854D01*
X104193Y60858D01*
X104196Y60862D01*
X104198Y60864D01*
X104199Y60865D01*
X104212Y60880D01*
X104224Y60894D01*
X104236Y60907D01*
X104246Y60919D01*
X104256Y60931D01*
X104265Y60940D01*
X104274Y60949D01*
X104281Y60956D01*
X104288Y60964D01*
X104294Y60969D01*
X104299Y60974D01*
X104303Y60979D01*
X104309Y60983D01*
X104311Y60985D01*
X104326Y60998D01*
X104340Y61009D01*
X104354Y61018D01*
X104365Y61026D01*
X104375Y61031D01*
X104383Y61035D01*
X104387Y61037D01*
X104389Y61038D01*
X104403Y61043D01*
X104417Y61047D01*
X104430Y61051D01*
X104441Y61053D01*
X104451Y61053D01*
X104459Y61054D01*
X104463D01*
X104465D01*
X104479Y61053D01*
X104492Y61052D01*
X104505Y61050D01*
X104516Y61046D01*
X104538Y61037D01*
X104556Y61028D01*
X104564Y61022D01*
X104570Y61017D01*
X104577Y61013D01*
X104582Y61008D01*
X104585Y61004D01*
X104589Y61003D01*
X104590Y61001D01*
X104591Y61000D01*
X104600Y60990D01*
X104608Y60979D01*
X104615Y60967D01*
X104620Y60955D01*
X104630Y60931D01*
X104636Y60906D01*
X104638Y60896D01*
X104640Y60886D01*
X104641Y60877D01*
X104642Y60869D01*
X104643Y60863D01*
Y60854D01*
X104642Y60837D01*
X104641Y60821D01*
X104638Y60807D01*
X104635Y60793D01*
X104631Y60780D01*
X104628Y60768D01*
X104623Y60757D01*
X104619Y60747D01*
X104614Y60737D01*
X104609Y60730D01*
X104606Y60723D01*
X104602Y60718D01*
X104599Y60713D01*
X104596Y60710D01*
X104595Y60709D01*
X104594Y60708D01*
X104585Y60698D01*
X104575Y60690D01*
X104564Y60682D01*
X104553Y60675D01*
X104531Y60664D01*
X104508Y60657D01*
X104498Y60654D01*
X104488Y60651D01*
X104480Y60649D01*
X104472Y60648D01*
X104466Y60647D01*
X104461D01*
X104459Y60646D01*
X104458D01*
X104449Y60726D01*
X104471Y60728D01*
X104489Y60732D01*
X104506Y60737D01*
X104519Y60744D01*
X104530Y60749D01*
X104537Y60755D01*
X104542Y60759D01*
X104544Y60760D01*
X104555Y60774D01*
X104563Y60789D01*
X104570Y60805D01*
X104573Y60819D01*
X104576Y60832D01*
X104577Y60843D01*
X104578Y60846D01*
Y60852D01*
X104577Y60871D01*
X104573Y60889D01*
X104568Y60904D01*
X104562Y60917D01*
X104556Y60927D01*
X104551Y60933D01*
X104547Y60938D01*
X104545Y60940D01*
X104533Y60951D01*
X104520Y60959D01*
X104507Y60966D01*
X104494Y60969D01*
X104484Y60972D01*
X104474Y60973D01*
X104469Y60974D01*
X104468D01*
X104467D01*
X104450Y60972D01*
X104433Y60968D01*
X104417Y60962D01*
X104402Y60955D01*
X104390Y60948D01*
X104380Y60942D01*
X104376Y60940D01*
X104374Y60938D01*
X104373Y60936D01*
X104372D01*
X104361Y60929D01*
X104351Y60919D01*
X104340Y60909D01*
X104329Y60898D01*
X104307Y60875D01*
X104285Y60852D01*
X104275Y60840D01*
X104265Y60830D01*
X104257Y60820D01*
X104250Y60811D01*
X104244Y60805D01*
X104239Y60799D01*
X104237Y60796D01*
X104236Y60795D01*
X104216Y60771D01*
X104198Y60750D01*
X104181Y60733D01*
X104167Y60719D01*
X104155Y60707D01*
X104147Y60698D01*
X104141Y60694D01*
X104141Y60692D01*
X104140D01*
X104124Y60679D01*
X104109Y60669D01*
X104094Y60660D01*
X104081Y60652D01*
X104070Y60647D01*
X104062Y60643D01*
X104056Y60641D01*
X104055Y60640D01*
X104055D01*
X104044Y60636D01*
X104035Y60635D01*
X104026Y60633D01*
X104018Y60632D01*
X104010Y60631D01*
X104005D01*
X104001D01*
X104000D01*
Y61055D01*
X104076D01*
Y60740D01*
D02*
G37*
G36*
X104174Y60482D02*
X104192Y60469D01*
X104209Y60457D01*
X104223Y60445D01*
X104236Y60435D01*
X104245Y60426D01*
X104252Y60418D01*
X104257Y60414D01*
X104259Y60412D01*
X104264Y60404D01*
X104271Y60396D01*
X104281Y60379D01*
X104285Y60372D01*
X104288Y60367D01*
X104290Y60363D01*
X104291Y60361D01*
X104294Y60378D01*
X104297Y60393D01*
X104301Y60407D01*
X104305Y60421D01*
X104310Y60433D01*
X104315Y60444D01*
X104320Y60454D01*
X104325Y60464D01*
X104330Y60471D01*
X104335Y60478D01*
X104338Y60484D01*
X104342Y60489D01*
X104345Y60492D01*
X104348Y60495D01*
X104349Y60496D01*
X104349Y60497D01*
X104359Y60504D01*
X104368Y60512D01*
X104387Y60523D01*
X104407Y60530D01*
X104425Y60536D01*
X104441Y60539D01*
X104447Y60540D01*
X104454D01*
X104459Y60541D01*
X104462D01*
X104464D01*
X104465D01*
X104484Y60540D01*
X104502Y60538D01*
X104519Y60533D01*
X104533Y60528D01*
X104545Y60523D01*
X104554Y60519D01*
X104559Y60515D01*
X104560Y60514D01*
X104561D01*
X104576Y60503D01*
X104589Y60492D01*
X104600Y60480D01*
X104608Y60469D01*
X104615Y60459D01*
X104619Y60451D01*
X104621Y60445D01*
X104622Y60444D01*
Y60443D01*
X104625Y60435D01*
X104628Y60425D01*
X104632Y60404D01*
X104635Y60382D01*
X104638Y60362D01*
X104639Y60342D01*
Y60334D01*
X104640Y60327D01*
Y60030D01*
X104000D01*
Y60115D01*
X104284D01*
Y60224D01*
X104283Y60234D01*
Y60242D01*
X104282Y60248D01*
X104281Y60253D01*
Y60257D01*
X104280Y60258D01*
Y60259D01*
X104276Y60274D01*
X104273Y60281D01*
X104270Y60286D01*
X104267Y60292D01*
X104265Y60295D01*
X104264Y60297D01*
X104263Y60298D01*
X104258Y60306D01*
X104251Y60313D01*
X104238Y60327D01*
X104231Y60333D01*
X104226Y60338D01*
X104222Y60341D01*
X104221Y60342D01*
X104208Y60351D01*
X104194Y60361D01*
X104179Y60371D01*
X104165Y60381D01*
X104153Y60390D01*
X104142Y60396D01*
X104139Y60399D01*
X104136Y60401D01*
X104134Y60403D01*
X104133D01*
X104000Y60487D01*
Y60592D01*
X104174Y60482D01*
D02*
G37*
G36*
X167629Y69915D02*
X167345D01*
Y69806D01*
X167346Y69796D01*
Y69788D01*
X167347Y69782D01*
X167348Y69777D01*
Y69773D01*
X167349Y69772D01*
Y69771D01*
X167353Y69756D01*
X167356Y69749D01*
X167359Y69744D01*
X167362Y69738D01*
X167364Y69735D01*
X167364Y69733D01*
X167365Y69732D01*
X167371Y69724D01*
X167377Y69717D01*
X167391Y69703D01*
X167398Y69697D01*
X167403Y69692D01*
X167407Y69689D01*
X167408Y69688D01*
X167421Y69679D01*
X167435Y69669D01*
X167450Y69659D01*
X167463Y69649D01*
X167476Y69640D01*
X167487Y69634D01*
X167490Y69631D01*
X167493Y69629D01*
X167495Y69627D01*
X167496D01*
X167629Y69543D01*
Y69438D01*
X167455Y69548D01*
X167437Y69561D01*
X167420Y69573D01*
X167406Y69585D01*
X167393Y69595D01*
X167384Y69604D01*
X167377Y69612D01*
X167372Y69616D01*
X167370Y69618D01*
X167364Y69626D01*
X167358Y69634D01*
X167348Y69651D01*
X167344Y69658D01*
X167340Y69663D01*
X167339Y69667D01*
X167338Y69669D01*
X167335Y69652D01*
X167332Y69637D01*
X167328Y69623D01*
X167324Y69609D01*
X167319Y69597D01*
X167314Y69586D01*
X167309Y69576D01*
X167304Y69566D01*
X167299Y69559D01*
X167294Y69552D01*
X167291Y69546D01*
X167287Y69541D01*
X167284Y69538D01*
X167281Y69535D01*
X167280Y69534D01*
X167279Y69533D01*
X167270Y69526D01*
X167261Y69518D01*
X167242Y69507D01*
X167222Y69500D01*
X167204Y69494D01*
X167188Y69491D01*
X167181Y69490D01*
X167175D01*
X167170Y69489D01*
X167167D01*
X167165D01*
X167164D01*
X167144Y69490D01*
X167127Y69492D01*
X167110Y69497D01*
X167096Y69502D01*
X167084Y69507D01*
X167075Y69511D01*
X167070Y69515D01*
X167069Y69516D01*
X167068D01*
X167053Y69527D01*
X167040Y69538D01*
X167029Y69550D01*
X167021Y69561D01*
X167014Y69571D01*
X167010Y69579D01*
X167008Y69585D01*
X167007Y69586D01*
Y69587D01*
X167004Y69595D01*
X167001Y69605D01*
X166997Y69626D01*
X166994Y69648D01*
X166991Y69668D01*
X166990Y69688D01*
Y69696D01*
X166989Y69703D01*
Y70000D01*
X167629D01*
Y69915D01*
D02*
G37*
G36*
X167220Y69387D02*
X167236Y69385D01*
X167252Y69383D01*
X167266Y69380D01*
X167279Y69375D01*
X167292Y69370D01*
X167303Y69366D01*
X167314Y69360D01*
X167323Y69356D01*
X167331Y69351D01*
X167338Y69346D01*
X167344Y69342D01*
X167349Y69338D01*
X167352Y69336D01*
X167353Y69334D01*
X167354Y69333D01*
X167364Y69323D01*
X167373Y69312D01*
X167381Y69301D01*
X167388Y69289D01*
X167393Y69278D01*
X167398Y69267D01*
X167404Y69246D01*
X167407Y69236D01*
X167409Y69227D01*
X167410Y69220D01*
X167411Y69212D01*
X167412Y69207D01*
Y69199D01*
X167411Y69182D01*
X167408Y69165D01*
X167404Y69150D01*
X167400Y69136D01*
X167396Y69126D01*
X167392Y69118D01*
X167389Y69112D01*
X167389Y69111D01*
X167379Y69096D01*
X167369Y69083D01*
X167359Y69072D01*
X167350Y69063D01*
X167340Y69056D01*
X167334Y69050D01*
X167329Y69047D01*
X167328Y69046D01*
X167335D01*
X167340D01*
X167342D01*
X167343D01*
X167362Y69047D01*
X167379Y69048D01*
X167395Y69050D01*
X167410Y69051D01*
X167422Y69054D01*
X167431Y69056D01*
X167435Y69057D01*
X167438D01*
X167438Y69058D01*
X167439D01*
X167456Y69063D01*
X167471Y69067D01*
X167484Y69072D01*
X167495Y69076D01*
X167503Y69080D01*
X167510Y69084D01*
X167514Y69086D01*
X167515Y69087D01*
X167525Y69094D01*
X167534Y69101D01*
X167541Y69109D01*
X167548Y69116D01*
X167553Y69122D01*
X167557Y69127D01*
X167559Y69131D01*
X167560Y69132D01*
X167565Y69142D01*
X167569Y69153D01*
X167572Y69163D01*
X167573Y69173D01*
X167574Y69182D01*
X167575Y69188D01*
Y69195D01*
X167574Y69210D01*
X167572Y69223D01*
X167568Y69235D01*
X167563Y69246D01*
X167560Y69253D01*
X167556Y69259D01*
X167553Y69263D01*
X167552Y69264D01*
X167542Y69273D01*
X167530Y69281D01*
X167517Y69287D01*
X167504Y69292D01*
X167493Y69296D01*
X167483Y69298D01*
X167479Y69299D01*
X167477D01*
X167475Y69300D01*
X167475D01*
X167481Y69376D01*
X167508Y69370D01*
X167531Y69363D01*
X167551Y69354D01*
X167568Y69344D01*
X167581Y69335D01*
X167586Y69331D01*
X167591Y69327D01*
X167594Y69324D01*
X167597Y69321D01*
X167597Y69320D01*
X167598Y69320D01*
X167606Y69310D01*
X167612Y69300D01*
X167622Y69280D01*
X167630Y69259D01*
X167634Y69240D01*
X167638Y69222D01*
X167639Y69215D01*
Y69209D01*
X167640Y69204D01*
Y69197D01*
X167638Y69171D01*
X167634Y69148D01*
X167628Y69126D01*
X167621Y69109D01*
X167618Y69101D01*
X167614Y69094D01*
X167610Y69088D01*
X167608Y69083D01*
X167606Y69079D01*
X167604Y69076D01*
X167602Y69075D01*
Y69074D01*
X167586Y69055D01*
X167569Y69038D01*
X167550Y69026D01*
X167533Y69014D01*
X167517Y69005D01*
X167510Y69001D01*
X167504Y68999D01*
X167499Y68997D01*
X167495Y68995D01*
X167493Y68994D01*
X167492D01*
X167478Y68989D01*
X167462Y68985D01*
X167431Y68978D01*
X167398Y68974D01*
X167366Y68971D01*
X167352Y68969D01*
X167339Y68968D01*
X167327D01*
X167316Y68967D01*
X167308D01*
X167302D01*
X167297D01*
X167296D01*
X167275D01*
X167254Y68968D01*
X167236Y68970D01*
X167218Y68972D01*
X167203Y68974D01*
X167188Y68976D01*
X167174Y68978D01*
X167162Y68981D01*
X167152Y68984D01*
X167143Y68986D01*
X167134Y68989D01*
X167128Y68990D01*
X167123Y68992D01*
X167119Y68994D01*
X167118Y68995D01*
X167117D01*
X167095Y69006D01*
X167075Y69018D01*
X167058Y69032D01*
X167045Y69044D01*
X167034Y69056D01*
X167027Y69065D01*
X167024Y69069D01*
X167022Y69072D01*
X167021Y69073D01*
Y69074D01*
X167009Y69093D01*
X167001Y69112D01*
X166995Y69132D01*
X166991Y69149D01*
X166988Y69165D01*
X166987Y69172D01*
Y69176D01*
X166986Y69181D01*
Y69187D01*
X166987Y69203D01*
X166989Y69218D01*
X166992Y69233D01*
X166996Y69246D01*
X167006Y69271D01*
X167010Y69282D01*
X167016Y69291D01*
X167022Y69300D01*
X167027Y69308D01*
X167033Y69315D01*
X167037Y69320D01*
X167041Y69325D01*
X167044Y69328D01*
X167046Y69330D01*
X167046Y69331D01*
X167058Y69341D01*
X167070Y69349D01*
X167083Y69357D01*
X167095Y69364D01*
X167109Y69369D01*
X167122Y69374D01*
X167146Y69381D01*
X167158Y69383D01*
X167168Y69385D01*
X167179Y69386D01*
X167187Y69387D01*
X167193Y69388D01*
X167198D01*
X167202D01*
X167203D01*
X167220Y69387D01*
D02*
G37*
G36*
X137541Y69915D02*
X137257D01*
Y69806D01*
X137258Y69796D01*
Y69788D01*
X137259Y69782D01*
X137260Y69777D01*
Y69773D01*
X137261Y69772D01*
Y69771D01*
X137265Y69756D01*
X137268Y69749D01*
X137271Y69744D01*
X137274Y69738D01*
X137276Y69735D01*
X137277Y69733D01*
X137278Y69732D01*
X137283Y69724D01*
X137290Y69717D01*
X137303Y69703D01*
X137310Y69697D01*
X137315Y69692D01*
X137319Y69689D01*
X137320Y69688D01*
X137333Y69679D01*
X137347Y69669D01*
X137362Y69659D01*
X137376Y69649D01*
X137388Y69640D01*
X137399Y69634D01*
X137402Y69631D01*
X137405Y69629D01*
X137407Y69627D01*
X137408D01*
X137541Y69543D01*
Y69438D01*
X137367Y69548D01*
X137349Y69561D01*
X137332Y69573D01*
X137318Y69585D01*
X137305Y69595D01*
X137296Y69604D01*
X137289Y69612D01*
X137284Y69616D01*
X137282Y69618D01*
X137277Y69626D01*
X137270Y69634D01*
X137260Y69651D01*
X137256Y69658D01*
X137253Y69663D01*
X137251Y69667D01*
X137250Y69669D01*
X137247Y69652D01*
X137244Y69637D01*
X137240Y69623D01*
X137236Y69609D01*
X137231Y69597D01*
X137226Y69586D01*
X137221Y69576D01*
X137216Y69566D01*
X137211Y69559D01*
X137206Y69552D01*
X137203Y69546D01*
X137199Y69541D01*
X137196Y69538D01*
X137193Y69535D01*
X137192Y69534D01*
X137192Y69533D01*
X137182Y69526D01*
X137173Y69518D01*
X137154Y69507D01*
X137134Y69500D01*
X137116Y69494D01*
X137100Y69491D01*
X137094Y69490D01*
X137087D01*
X137082Y69489D01*
X137079D01*
X137077D01*
X137076D01*
X137057Y69490D01*
X137039Y69492D01*
X137022Y69497D01*
X137008Y69502D01*
X136996Y69507D01*
X136987Y69511D01*
X136982Y69515D01*
X136981Y69516D01*
X136980D01*
X136965Y69527D01*
X136952Y69538D01*
X136941Y69550D01*
X136933Y69561D01*
X136926Y69571D01*
X136922Y69579D01*
X136920Y69585D01*
X136919Y69586D01*
Y69587D01*
X136916Y69595D01*
X136913Y69605D01*
X136909Y69626D01*
X136906Y69648D01*
X136903Y69668D01*
X136902Y69688D01*
Y69696D01*
X136901Y69703D01*
Y70000D01*
X137541D01*
Y69915D01*
D02*
G37*
G36*
X137130Y69314D02*
X137123Y69300D01*
X137117Y69286D01*
X137110Y69273D01*
X137105Y69262D01*
X137100Y69253D01*
X137096Y69247D01*
X137095Y69246D01*
Y69246D01*
X137085Y69229D01*
X137075Y69214D01*
X137066Y69201D01*
X137057Y69191D01*
X137051Y69182D01*
X137045Y69176D01*
X137042Y69172D01*
X137041Y69171D01*
X137541D01*
Y69092D01*
X136898D01*
Y69143D01*
X136914Y69152D01*
X136929Y69162D01*
X136944Y69174D01*
X136957Y69185D01*
X136968Y69197D01*
X136977Y69205D01*
X136980Y69209D01*
X136983Y69211D01*
X136984Y69212D01*
X136984Y69213D01*
X137000Y69233D01*
X137015Y69252D01*
X137028Y69271D01*
X137038Y69289D01*
X137047Y69305D01*
X137051Y69311D01*
X137054Y69317D01*
X137057Y69321D01*
X137057Y69325D01*
X137059Y69327D01*
Y69328D01*
X137135D01*
X137130Y69314D01*
D02*
G37*
G36*
X137541Y68477D02*
X137465D01*
Y68793D01*
X137449Y68781D01*
X137443Y68776D01*
X137437Y68771D01*
X137431Y68767D01*
X137427Y68763D01*
X137425Y68760D01*
X137424Y68759D01*
X137419Y68755D01*
X137414Y68749D01*
X137402Y68736D01*
X137388Y68721D01*
X137375Y68706D01*
X137363Y68691D01*
X137357Y68684D01*
X137351Y68679D01*
X137348Y68674D01*
X137345Y68670D01*
X137343Y68669D01*
X137342Y68668D01*
X137329Y68653D01*
X137317Y68638D01*
X137305Y68625D01*
X137295Y68613D01*
X137285Y68602D01*
X137276Y68593D01*
X137267Y68584D01*
X137260Y68576D01*
X137253Y68569D01*
X137247Y68563D01*
X137242Y68559D01*
X137238Y68554D01*
X137232Y68549D01*
X137230Y68548D01*
X137215Y68535D01*
X137201Y68523D01*
X137187Y68514D01*
X137176Y68507D01*
X137166Y68501D01*
X137158Y68498D01*
X137154Y68496D01*
X137152Y68495D01*
X137138Y68489D01*
X137124Y68486D01*
X137111Y68482D01*
X137100Y68480D01*
X137090Y68479D01*
X137082Y68478D01*
X137078D01*
X137076D01*
X137062Y68479D01*
X137049Y68481D01*
X137036Y68483D01*
X137025Y68487D01*
X137003Y68496D01*
X136985Y68505D01*
X136977Y68511D01*
X136971Y68515D01*
X136964Y68520D01*
X136959Y68524D01*
X136956Y68528D01*
X136952Y68530D01*
X136951Y68532D01*
X136950Y68533D01*
X136941Y68543D01*
X136933Y68554D01*
X136926Y68566D01*
X136921Y68578D01*
X136911Y68602D01*
X136905Y68626D01*
X136903Y68636D01*
X136901Y68646D01*
X136900Y68656D01*
X136899Y68663D01*
X136898Y68670D01*
Y68679D01*
X136899Y68695D01*
X136900Y68711D01*
X136903Y68726D01*
X136906Y68740D01*
X136910Y68753D01*
X136913Y68765D01*
X136918Y68776D01*
X136922Y68786D01*
X136927Y68795D01*
X136932Y68803D01*
X136935Y68809D01*
X136939Y68815D01*
X136942Y68819D01*
X136945Y68822D01*
X136946Y68824D01*
X136947Y68825D01*
X136956Y68834D01*
X136966Y68842D01*
X136977Y68851D01*
X136988Y68857D01*
X137010Y68868D01*
X137033Y68876D01*
X137043Y68879D01*
X137053Y68881D01*
X137061Y68883D01*
X137069Y68885D01*
X137075Y68886D01*
X137080D01*
X137082Y68887D01*
X137083D01*
X137092Y68806D01*
X137070Y68805D01*
X137052Y68801D01*
X137035Y68795D01*
X137022Y68789D01*
X137011Y68783D01*
X137004Y68778D01*
X136999Y68774D01*
X136997Y68772D01*
X136986Y68758D01*
X136978Y68744D01*
X136971Y68728D01*
X136968Y68714D01*
X136965Y68701D01*
X136964Y68690D01*
X136963Y68686D01*
Y68681D01*
X136964Y68661D01*
X136968Y68644D01*
X136973Y68629D01*
X136979Y68616D01*
X136985Y68606D01*
X136990Y68599D01*
X136994Y68595D01*
X136996Y68593D01*
X137008Y68582D01*
X137021Y68573D01*
X137034Y68567D01*
X137047Y68563D01*
X137057Y68560D01*
X137067Y68560D01*
X137072Y68559D01*
X137073D01*
X137074D01*
X137091Y68560D01*
X137108Y68564D01*
X137124Y68571D01*
X137139Y68577D01*
X137151Y68585D01*
X137161Y68591D01*
X137165Y68593D01*
X137167Y68595D01*
X137168Y68597D01*
X137169D01*
X137180Y68604D01*
X137190Y68613D01*
X137201Y68623D01*
X137212Y68634D01*
X137234Y68658D01*
X137256Y68681D01*
X137266Y68693D01*
X137276Y68703D01*
X137284Y68713D01*
X137291Y68721D01*
X137297Y68728D01*
X137302Y68733D01*
X137304Y68737D01*
X137305Y68738D01*
X137325Y68761D01*
X137343Y68782D01*
X137360Y68800D01*
X137374Y68814D01*
X137386Y68826D01*
X137394Y68834D01*
X137400Y68839D01*
X137400Y68841D01*
X137401D01*
X137417Y68854D01*
X137432Y68864D01*
X137447Y68873D01*
X137460Y68880D01*
X137471Y68886D01*
X137479Y68890D01*
X137485Y68891D01*
X137486Y68892D01*
X137486D01*
X137497Y68896D01*
X137506Y68898D01*
X137515Y68900D01*
X137523Y68901D01*
X137531Y68902D01*
X137536D01*
X137540D01*
X137541D01*
Y68477D01*
D02*
G37*
G36*
X137775Y66526D02*
X137789D01*
X137804Y66526D01*
X137817Y66524D01*
X137830Y66523D01*
X137841Y66522D01*
X137851Y66520D01*
X137861Y66519D01*
X137869Y66517D01*
X137875Y66516D01*
X137881Y66515D01*
X137886Y66514D01*
X137888Y66513D01*
X137890Y66513D01*
X137891D01*
X137911Y66507D01*
X137930Y66501D01*
X137946Y66493D01*
X137959Y66488D01*
X137971Y66481D01*
X137980Y66477D01*
X137984Y66474D01*
X137986Y66473D01*
X138000Y66463D01*
X138012Y66452D01*
X138022Y66441D01*
X138032Y66431D01*
X138038Y66422D01*
X138043Y66415D01*
X138045Y66410D01*
X138046Y66409D01*
Y66408D01*
X138054Y66393D01*
X138058Y66378D01*
X138062Y66363D01*
X138065Y66349D01*
X138067Y66337D01*
X138068Y66327D01*
Y66318D01*
X138066Y66293D01*
X138062Y66270D01*
X138056Y66251D01*
X138049Y66234D01*
X138042Y66220D01*
X138039Y66215D01*
X138035Y66210D01*
X138033Y66207D01*
X138032Y66204D01*
X138030Y66203D01*
Y66202D01*
X138015Y66185D01*
X137997Y66171D01*
X137980Y66159D01*
X137963Y66150D01*
X137947Y66143D01*
X137941Y66139D01*
X137935Y66137D01*
X137930Y66135D01*
X137926Y66133D01*
X137924Y66133D01*
X137923D01*
X137910Y66129D01*
X137896Y66125D01*
X137865Y66120D01*
X137835Y66115D01*
X137806Y66112D01*
X137792Y66111D01*
X137780Y66110D01*
X137769D01*
X137759Y66109D01*
X137751D01*
X137745D01*
X137741D01*
X137740D01*
X137708Y66110D01*
X137677Y66112D01*
X137650Y66115D01*
X137624Y66120D01*
X137600Y66124D01*
X137579Y66130D01*
X137559Y66135D01*
X137542Y66141D01*
X137528Y66146D01*
X137515Y66153D01*
X137504Y66158D01*
X137495Y66162D01*
X137488Y66167D01*
X137483Y66170D01*
X137481Y66171D01*
X137480Y66172D01*
X137469Y66183D01*
X137458Y66194D01*
X137449Y66206D01*
X137442Y66218D01*
X137435Y66230D01*
X137430Y66242D01*
X137426Y66254D01*
X137422Y66265D01*
X137420Y66276D01*
X137418Y66286D01*
X137416Y66295D01*
X137415Y66303D01*
X137414Y66309D01*
Y66318D01*
X137416Y66343D01*
X137420Y66366D01*
X137426Y66386D01*
X137432Y66403D01*
X137439Y66416D01*
X137443Y66421D01*
X137445Y66426D01*
X137447Y66429D01*
X137449Y66432D01*
X137451Y66433D01*
Y66434D01*
X137467Y66451D01*
X137483Y66464D01*
X137502Y66477D01*
X137518Y66486D01*
X137534Y66493D01*
X137541Y66497D01*
X137547Y66499D01*
X137552Y66501D01*
X137555Y66502D01*
X137557Y66503D01*
X137558D01*
X137572Y66508D01*
X137586Y66512D01*
X137616Y66517D01*
X137646Y66522D01*
X137676Y66525D01*
X137689Y66526D01*
X137701Y66526D01*
X137712D01*
X137722Y66527D01*
X137729D01*
X137736D01*
X137739D01*
X137740D01*
X137758D01*
X137775Y66526D01*
D02*
G37*
G36*
X138068Y65857D02*
X138052Y65848D01*
X138037Y65838D01*
X138022Y65826D01*
X138009Y65815D01*
X137998Y65803D01*
X137989Y65795D01*
X137986Y65791D01*
X137984Y65789D01*
X137983Y65788D01*
X137982Y65787D01*
X137966Y65767D01*
X137951Y65748D01*
X137938Y65729D01*
X137928Y65711D01*
X137919Y65695D01*
X137915Y65689D01*
X137912Y65683D01*
X137910Y65679D01*
X137909Y65675D01*
X137907Y65673D01*
Y65672D01*
X137831D01*
X137837Y65686D01*
X137843Y65700D01*
X137849Y65714D01*
X137856Y65727D01*
X137861Y65738D01*
X137866Y65747D01*
X137870Y65753D01*
X137871Y65754D01*
Y65754D01*
X137881Y65771D01*
X137891Y65786D01*
X137900Y65799D01*
X137909Y65809D01*
X137915Y65818D01*
X137921Y65824D01*
X137924Y65828D01*
X137925Y65829D01*
X137425D01*
Y65908D01*
X138068D01*
Y65857D01*
D02*
G37*
G36*
X137599Y65452D02*
X137617Y65439D01*
X137634Y65427D01*
X137648Y65415D01*
X137661Y65405D01*
X137670Y65396D01*
X137677Y65388D01*
X137682Y65384D01*
X137684Y65382D01*
X137690Y65374D01*
X137696Y65366D01*
X137706Y65349D01*
X137710Y65342D01*
X137714Y65337D01*
X137715Y65333D01*
X137716Y65331D01*
X137719Y65348D01*
X137722Y65363D01*
X137726Y65377D01*
X137730Y65391D01*
X137735Y65403D01*
X137740Y65414D01*
X137745Y65424D01*
X137750Y65434D01*
X137755Y65441D01*
X137760Y65448D01*
X137763Y65454D01*
X137767Y65459D01*
X137770Y65462D01*
X137773Y65465D01*
X137774Y65466D01*
X137775Y65467D01*
X137784Y65474D01*
X137793Y65482D01*
X137812Y65493D01*
X137832Y65500D01*
X137850Y65506D01*
X137866Y65509D01*
X137873Y65510D01*
X137879D01*
X137884Y65511D01*
X137887D01*
X137889D01*
X137890D01*
X137910Y65510D01*
X137927Y65508D01*
X137944Y65503D01*
X137958Y65498D01*
X137970Y65493D01*
X137979Y65489D01*
X137984Y65485D01*
X137985Y65484D01*
X137986D01*
X138001Y65473D01*
X138014Y65462D01*
X138025Y65450D01*
X138033Y65439D01*
X138040Y65429D01*
X138044Y65421D01*
X138046Y65415D01*
X138047Y65414D01*
Y65413D01*
X138050Y65405D01*
X138053Y65395D01*
X138057Y65374D01*
X138060Y65352D01*
X138063Y65332D01*
X138064Y65312D01*
Y65304D01*
X138065Y65297D01*
Y65000D01*
X137425D01*
Y65085D01*
X137709D01*
Y65194D01*
X137708Y65204D01*
Y65212D01*
X137707Y65218D01*
X137706Y65223D01*
Y65227D01*
X137705Y65228D01*
Y65229D01*
X137701Y65244D01*
X137698Y65251D01*
X137695Y65256D01*
X137692Y65262D01*
X137690Y65265D01*
X137690Y65267D01*
X137689Y65268D01*
X137683Y65275D01*
X137677Y65283D01*
X137663Y65297D01*
X137656Y65303D01*
X137651Y65308D01*
X137647Y65311D01*
X137646Y65312D01*
X137633Y65321D01*
X137619Y65331D01*
X137604Y65341D01*
X137591Y65351D01*
X137578Y65360D01*
X137567Y65366D01*
X137564Y65369D01*
X137561Y65371D01*
X137559Y65373D01*
X137558D01*
X137425Y65457D01*
Y65562D01*
X137599Y65452D01*
D02*
G37*
G36*
X168283Y66354D02*
X168267Y66345D01*
X168252Y66335D01*
X168237Y66323D01*
X168224Y66312D01*
X168213Y66301D01*
X168204Y66293D01*
X168201Y66289D01*
X168198Y66286D01*
X168197Y66285D01*
X168197Y66284D01*
X168181Y66265D01*
X168166Y66245D01*
X168153Y66227D01*
X168143Y66208D01*
X168134Y66193D01*
X168130Y66186D01*
X168127Y66181D01*
X168124Y66176D01*
X168124Y66172D01*
X168122Y66170D01*
Y66170D01*
X168046D01*
X168051Y66183D01*
X168058Y66197D01*
X168064Y66211D01*
X168071Y66224D01*
X168076Y66235D01*
X168081Y66244D01*
X168085Y66250D01*
X168086Y66251D01*
Y66252D01*
X168096Y66268D01*
X168106Y66283D01*
X168115Y66296D01*
X168124Y66306D01*
X168130Y66316D01*
X168136Y66321D01*
X168139Y66326D01*
X168140Y66327D01*
X167640D01*
Y66405D01*
X168283D01*
Y66354D01*
D02*
G37*
G36*
Y65857D02*
X168267Y65848D01*
X168252Y65838D01*
X168237Y65826D01*
X168224Y65815D01*
X168213Y65803D01*
X168204Y65795D01*
X168201Y65791D01*
X168198Y65789D01*
X168197Y65788D01*
X168197Y65787D01*
X168181Y65767D01*
X168166Y65748D01*
X168153Y65729D01*
X168143Y65711D01*
X168134Y65695D01*
X168130Y65689D01*
X168127Y65683D01*
X168124Y65679D01*
X168124Y65675D01*
X168122Y65673D01*
Y65672D01*
X168046D01*
X168051Y65686D01*
X168058Y65700D01*
X168064Y65714D01*
X168071Y65727D01*
X168076Y65738D01*
X168081Y65747D01*
X168085Y65753D01*
X168086Y65754D01*
Y65754D01*
X168096Y65771D01*
X168106Y65786D01*
X168115Y65799D01*
X168124Y65809D01*
X168130Y65818D01*
X168136Y65824D01*
X168139Y65828D01*
X168140Y65829D01*
X167640D01*
Y65908D01*
X168283D01*
Y65857D01*
D02*
G37*
G36*
X167814Y65452D02*
X167832Y65439D01*
X167849Y65427D01*
X167863Y65415D01*
X167876Y65405D01*
X167885Y65396D01*
X167892Y65388D01*
X167897Y65384D01*
X167899Y65382D01*
X167904Y65374D01*
X167911Y65366D01*
X167921Y65349D01*
X167925Y65342D01*
X167928Y65337D01*
X167930Y65333D01*
X167931Y65331D01*
X167934Y65348D01*
X167937Y65363D01*
X167941Y65377D01*
X167945Y65391D01*
X167950Y65403D01*
X167955Y65414D01*
X167960Y65424D01*
X167965Y65434D01*
X167970Y65441D01*
X167975Y65448D01*
X167978Y65454D01*
X167982Y65459D01*
X167985Y65462D01*
X167988Y65465D01*
X167989Y65466D01*
X167989Y65467D01*
X167999Y65474D01*
X168008Y65482D01*
X168027Y65493D01*
X168047Y65500D01*
X168065Y65506D01*
X168081Y65509D01*
X168087Y65510D01*
X168094D01*
X168099Y65511D01*
X168102D01*
X168104D01*
X168105D01*
X168124Y65510D01*
X168142Y65508D01*
X168159Y65503D01*
X168173Y65498D01*
X168185Y65493D01*
X168194Y65489D01*
X168199Y65485D01*
X168200Y65484D01*
X168201D01*
X168216Y65473D01*
X168229Y65462D01*
X168240Y65450D01*
X168248Y65439D01*
X168255Y65429D01*
X168259Y65421D01*
X168261Y65415D01*
X168262Y65414D01*
Y65413D01*
X168265Y65405D01*
X168268Y65395D01*
X168272Y65374D01*
X168275Y65352D01*
X168278Y65332D01*
X168279Y65312D01*
Y65304D01*
X168280Y65297D01*
Y65000D01*
X167640D01*
Y65085D01*
X167924D01*
Y65194D01*
X167923Y65204D01*
Y65212D01*
X167922Y65218D01*
X167921Y65223D01*
Y65227D01*
X167920Y65228D01*
Y65229D01*
X167916Y65244D01*
X167913Y65251D01*
X167910Y65256D01*
X167907Y65262D01*
X167905Y65265D01*
X167904Y65267D01*
X167903Y65268D01*
X167898Y65275D01*
X167891Y65283D01*
X167878Y65297D01*
X167871Y65303D01*
X167866Y65308D01*
X167862Y65311D01*
X167861Y65312D01*
X167848Y65321D01*
X167834Y65331D01*
X167819Y65341D01*
X167805Y65351D01*
X167793Y65360D01*
X167782Y65366D01*
X167779Y65369D01*
X167776Y65371D01*
X167774Y65373D01*
X167773D01*
X167640Y65457D01*
Y65562D01*
X167814Y65452D01*
D02*
G37*
G36*
X159075Y102431D02*
X159062Y102413D01*
X159050Y102396D01*
X159038Y102382D01*
X159028Y102369D01*
X159019Y102360D01*
X159011Y102353D01*
X159007Y102348D01*
X159005Y102346D01*
X158997Y102340D01*
X158989Y102334D01*
X158972Y102324D01*
X158965Y102320D01*
X158960Y102316D01*
X158956Y102315D01*
X158954Y102314D01*
X158971Y102311D01*
X158986Y102308D01*
X159000Y102304D01*
X159014Y102300D01*
X159026Y102295D01*
X159037Y102290D01*
X159047Y102285D01*
X159057Y102280D01*
X159064Y102275D01*
X159071Y102270D01*
X159077Y102267D01*
X159082Y102263D01*
X159085Y102260D01*
X159088Y102257D01*
X159089Y102256D01*
X159090Y102255D01*
X159097Y102246D01*
X159105Y102237D01*
X159116Y102218D01*
X159123Y102198D01*
X159129Y102180D01*
X159132Y102164D01*
X159133Y102157D01*
Y102151D01*
X159134Y102146D01*
Y102143D01*
Y102141D01*
Y102140D01*
X159133Y102120D01*
X159131Y102103D01*
X159126Y102086D01*
X159121Y102072D01*
X159116Y102060D01*
X159112Y102051D01*
X159108Y102046D01*
X159107Y102045D01*
Y102044D01*
X159096Y102029D01*
X159085Y102016D01*
X159073Y102005D01*
X159062Y101997D01*
X159052Y101990D01*
X159044Y101986D01*
X159038Y101984D01*
X159037Y101983D01*
X159036D01*
X159028Y101980D01*
X159018Y101977D01*
X158997Y101973D01*
X158975Y101970D01*
X158955Y101967D01*
X158935Y101966D01*
X158927D01*
X158920Y101965D01*
X158623D01*
Y102605D01*
X158708D01*
Y102321D01*
X158817D01*
X158827Y102322D01*
X158835D01*
X158841Y102323D01*
X158846Y102324D01*
X158849D01*
X158851Y102325D01*
X158852D01*
X158867Y102329D01*
X158874Y102332D01*
X158879Y102335D01*
X158885Y102338D01*
X158888Y102340D01*
X158890Y102340D01*
X158891Y102341D01*
X158898Y102347D01*
X158906Y102353D01*
X158920Y102367D01*
X158926Y102374D01*
X158931Y102379D01*
X158934Y102383D01*
X158935Y102384D01*
X158944Y102397D01*
X158954Y102411D01*
X158964Y102426D01*
X158974Y102439D01*
X158983Y102452D01*
X158989Y102463D01*
X158992Y102466D01*
X158994Y102469D01*
X158996Y102471D01*
Y102472D01*
X159080Y102605D01*
X159185D01*
X159075Y102431D01*
D02*
G37*
G36*
X159953Y102615D02*
X159969Y102613D01*
X159985Y102610D01*
X160000Y102607D01*
X160014Y102602D01*
X160026Y102598D01*
X160038Y102592D01*
X160048Y102586D01*
X160058Y102582D01*
X160066Y102576D01*
X160074Y102572D01*
X160079Y102567D01*
X160084Y102563D01*
X160087Y102561D01*
X160089Y102559D01*
X160090Y102558D01*
X160101Y102547D01*
X160111Y102535D01*
X160119Y102523D01*
X160126Y102511D01*
X160132Y102500D01*
X160137Y102487D01*
X160145Y102465D01*
X160147Y102455D01*
X160148Y102446D01*
X160150Y102438D01*
X160151Y102430D01*
X160152Y102425D01*
Y102420D01*
Y102417D01*
Y102416D01*
X160151Y102394D01*
X160148Y102374D01*
X160142Y102356D01*
X160136Y102341D01*
X160131Y102329D01*
X160125Y102320D01*
X160122Y102315D01*
X160121Y102313D01*
X160108Y102299D01*
X160094Y102287D01*
X160079Y102278D01*
X160064Y102270D01*
X160051Y102265D01*
X160041Y102261D01*
X160038Y102260D01*
X160035Y102259D01*
X160033Y102258D01*
X160032D01*
X160048Y102250D01*
X160061Y102242D01*
X160072Y102232D01*
X160081Y102224D01*
X160088Y102217D01*
X160094Y102210D01*
X160097Y102206D01*
X160098Y102205D01*
X160105Y102192D01*
X160111Y102179D01*
X160115Y102166D01*
X160118Y102154D01*
X160120Y102144D01*
X160121Y102136D01*
Y102131D01*
Y102129D01*
X160120Y102113D01*
X160117Y102097D01*
X160113Y102083D01*
X160109Y102071D01*
X160104Y102061D01*
X160100Y102053D01*
X160098Y102048D01*
X160097Y102046D01*
X160087Y102033D01*
X160076Y102021D01*
X160065Y102010D01*
X160054Y102001D01*
X160045Y101995D01*
X160037Y101989D01*
X160031Y101986D01*
X160030Y101985D01*
X160029D01*
X160013Y101978D01*
X159996Y101973D01*
X159979Y101968D01*
X159965Y101965D01*
X159952Y101963D01*
X159942Y101962D01*
X159919D01*
X159906Y101964D01*
X159881Y101969D01*
X159860Y101976D01*
X159842Y101984D01*
X159833Y101988D01*
X159827Y101992D01*
X159820Y101996D01*
X159816Y101999D01*
X159812Y102002D01*
X159809Y102004D01*
X159807Y102005D01*
X159806Y102006D01*
X159789Y102023D01*
X159775Y102043D01*
X159764Y102063D01*
X159755Y102083D01*
X159749Y102101D01*
X159746Y102108D01*
X159744Y102115D01*
X159744Y102120D01*
X159743Y102124D01*
X159742Y102127D01*
Y102128D01*
X159820Y102142D01*
X159824Y102121D01*
X159830Y102104D01*
X159836Y102089D01*
X159842Y102077D01*
X159849Y102068D01*
X159854Y102061D01*
X159858Y102057D01*
X159859Y102056D01*
X159871Y102046D01*
X159884Y102039D01*
X159896Y102034D01*
X159908Y102031D01*
X159919Y102029D01*
X159928Y102027D01*
X159935D01*
X159952Y102028D01*
X159966Y102032D01*
X159979Y102036D01*
X159990Y102041D01*
X159999Y102046D01*
X160005Y102051D01*
X160010Y102055D01*
X160011Y102056D01*
X160021Y102067D01*
X160028Y102079D01*
X160033Y102091D01*
X160037Y102102D01*
X160038Y102112D01*
X160040Y102120D01*
Y102125D01*
Y102126D01*
Y102127D01*
Y102137D01*
X160038Y102146D01*
X160034Y102162D01*
X160027Y102176D01*
X160020Y102188D01*
X160013Y102196D01*
X160006Y102203D01*
X160001Y102206D01*
X160001Y102207D01*
X160000D01*
X159984Y102216D01*
X159969Y102222D01*
X159953Y102227D01*
X159940Y102230D01*
X159928Y102231D01*
X159917Y102233D01*
X159905D01*
X159902Y102232D01*
X159897D01*
X159888Y102302D01*
X159900Y102299D01*
X159911Y102297D01*
X159920Y102295D01*
X159928Y102294D01*
X159935Y102293D01*
X159943D01*
X159963Y102295D01*
X159980Y102299D01*
X159996Y102304D01*
X160009Y102311D01*
X160019Y102317D01*
X160026Y102323D01*
X160031Y102327D01*
X160033Y102328D01*
X160045Y102342D01*
X160054Y102357D01*
X160061Y102372D01*
X160064Y102387D01*
X160067Y102399D01*
X160068Y102409D01*
X160069Y102413D01*
Y102415D01*
Y102417D01*
Y102418D01*
X160067Y102438D01*
X160063Y102457D01*
X160057Y102473D01*
X160050Y102487D01*
X160042Y102498D01*
X160037Y102506D01*
X160032Y102512D01*
X160030Y102513D01*
X160015Y102526D01*
X160000Y102536D01*
X159984Y102542D01*
X159969Y102547D01*
X159956Y102549D01*
X159946Y102550D01*
X159942Y102551D01*
X159937D01*
X159920Y102550D01*
X159904Y102547D01*
X159891Y102542D01*
X159879Y102536D01*
X159870Y102532D01*
X159863Y102527D01*
X159859Y102524D01*
X159857Y102523D01*
X159846Y102510D01*
X159837Y102495D01*
X159829Y102479D01*
X159822Y102463D01*
X159818Y102449D01*
X159816Y102442D01*
X159815Y102437D01*
X159814Y102432D01*
X159813Y102428D01*
X159812Y102426D01*
Y102426D01*
X159733Y102436D01*
X159735Y102451D01*
X159738Y102464D01*
X159746Y102490D01*
X159756Y102512D01*
X159762Y102522D01*
X159768Y102531D01*
X159773Y102539D01*
X159779Y102546D01*
X159783Y102552D01*
X159788Y102557D01*
X159791Y102561D01*
X159793Y102563D01*
X159795Y102565D01*
X159796Y102566D01*
X159807Y102574D01*
X159818Y102583D01*
X159830Y102589D01*
X159842Y102595D01*
X159865Y102604D01*
X159887Y102610D01*
X159897Y102611D01*
X159906Y102613D01*
X159915Y102614D01*
X159922Y102615D01*
X159928Y102616D01*
X159936D01*
X159953Y102615D01*
D02*
G37*
G36*
X159531Y101962D02*
X159480D01*
X159471Y101978D01*
X159461Y101993D01*
X159449Y102008D01*
X159438Y102021D01*
X159426Y102032D01*
X159418Y102041D01*
X159414Y102044D01*
X159412Y102046D01*
X159411Y102047D01*
X159410Y102048D01*
X159390Y102064D01*
X159371Y102079D01*
X159352Y102092D01*
X159334Y102102D01*
X159318Y102111D01*
X159312Y102115D01*
X159306Y102118D01*
X159302Y102120D01*
X159298Y102121D01*
X159296Y102123D01*
X159295D01*
Y102199D01*
X159309Y102193D01*
X159323Y102187D01*
X159337Y102181D01*
X159350Y102174D01*
X159361Y102169D01*
X159370Y102164D01*
X159376Y102160D01*
X159376Y102159D01*
X159377D01*
X159394Y102149D01*
X159409Y102139D01*
X159422Y102130D01*
X159432Y102121D01*
X159441Y102115D01*
X159447Y102109D01*
X159451Y102106D01*
X159452Y102105D01*
Y102605D01*
X159531D01*
Y101962D01*
D02*
G37*
G36*
X152273Y103166D02*
X151989D01*
Y103057D01*
X151990Y103047D01*
Y103039D01*
X151991Y103033D01*
X151992Y103028D01*
Y103024D01*
X151993Y103023D01*
Y103022D01*
X151997Y103007D01*
X152000Y103000D01*
X152003Y102995D01*
X152006Y102989D01*
X152008Y102986D01*
X152009Y102984D01*
X152010Y102983D01*
X152015Y102975D01*
X152022Y102968D01*
X152035Y102954D01*
X152042Y102948D01*
X152047Y102943D01*
X152051Y102940D01*
X152052Y102939D01*
X152065Y102930D01*
X152079Y102920D01*
X152094Y102910D01*
X152108Y102900D01*
X152120Y102891D01*
X152131Y102885D01*
X152134Y102882D01*
X152137Y102880D01*
X152139Y102878D01*
X152140D01*
X152273Y102794D01*
Y102689D01*
X152099Y102799D01*
X152081Y102812D01*
X152064Y102824D01*
X152050Y102836D01*
X152037Y102846D01*
X152028Y102855D01*
X152021Y102863D01*
X152016Y102867D01*
X152014Y102869D01*
X152009Y102877D01*
X152002Y102885D01*
X151992Y102902D01*
X151988Y102909D01*
X151985Y102914D01*
X151983Y102918D01*
X151982Y102920D01*
X151979Y102903D01*
X151976Y102888D01*
X151972Y102874D01*
X151968Y102860D01*
X151963Y102848D01*
X151958Y102837D01*
X151953Y102827D01*
X151948Y102817D01*
X151943Y102810D01*
X151938Y102803D01*
X151935Y102797D01*
X151931Y102792D01*
X151928Y102789D01*
X151925Y102786D01*
X151924Y102785D01*
X151924Y102784D01*
X151914Y102777D01*
X151905Y102769D01*
X151886Y102758D01*
X151866Y102751D01*
X151848Y102745D01*
X151832Y102742D01*
X151826Y102741D01*
X151819D01*
X151814Y102740D01*
X151811D01*
X151809D01*
X151808D01*
X151789Y102741D01*
X151771Y102743D01*
X151754Y102748D01*
X151740Y102753D01*
X151728Y102758D01*
X151719Y102762D01*
X151714Y102766D01*
X151713Y102767D01*
X151712D01*
X151697Y102778D01*
X151684Y102789D01*
X151673Y102801D01*
X151665Y102812D01*
X151658Y102822D01*
X151654Y102830D01*
X151652Y102836D01*
X151651Y102837D01*
Y102838D01*
X151648Y102846D01*
X151645Y102856D01*
X151641Y102877D01*
X151638Y102899D01*
X151635Y102919D01*
X151634Y102939D01*
Y102947D01*
X151633Y102954D01*
Y103251D01*
X152273D01*
Y103166D01*
D02*
G37*
G36*
X151862Y102565D02*
X151855Y102551D01*
X151849Y102537D01*
X151842Y102524D01*
X151837Y102513D01*
X151832Y102504D01*
X151828Y102498D01*
X151827Y102497D01*
Y102497D01*
X151817Y102480D01*
X151807Y102465D01*
X151798Y102452D01*
X151789Y102442D01*
X151783Y102433D01*
X151777Y102427D01*
X151774Y102423D01*
X151773Y102422D01*
X152273D01*
Y102343D01*
X151630D01*
Y102394D01*
X151646Y102403D01*
X151661Y102413D01*
X151676Y102425D01*
X151689Y102436D01*
X151700Y102448D01*
X151709Y102456D01*
X151712Y102460D01*
X151715Y102462D01*
X151715Y102463D01*
X151716Y102464D01*
X151732Y102484D01*
X151747Y102503D01*
X151760Y102522D01*
X151770Y102540D01*
X151779Y102556D01*
X151783Y102562D01*
X151786Y102568D01*
X151789Y102572D01*
X151789Y102576D01*
X151791Y102578D01*
Y102579D01*
X151867D01*
X151862Y102565D01*
D02*
G37*
G36*
X152120Y101890D02*
X152273D01*
Y101811D01*
X152120D01*
Y101725D01*
X152047D01*
Y101811D01*
X151633D01*
Y101875D01*
X152047Y102168D01*
X152120D01*
Y101890D01*
D02*
G37*
G36*
X154765Y103249D02*
X154797Y103245D01*
X154826Y103241D01*
X154840Y103237D01*
X154852Y103234D01*
X154863Y103232D01*
X154873Y103228D01*
X154882Y103225D01*
X154889Y103223D01*
X154895Y103220D01*
X154900Y103220D01*
X154902Y103218D01*
X154903D01*
X154931Y103204D01*
X154956Y103188D01*
X154977Y103172D01*
X154986Y103163D01*
X154994Y103156D01*
X155001Y103148D01*
X155008Y103141D01*
X155013Y103135D01*
X155017Y103129D01*
X155021Y103125D01*
X155024Y103122D01*
X155024Y103120D01*
X155025Y103119D01*
X155033Y103106D01*
X155039Y103093D01*
X155049Y103065D01*
X155057Y103037D01*
X155061Y103011D01*
X155063Y102998D01*
X155065Y102987D01*
X155066Y102976D01*
Y102968D01*
X155067Y102961D01*
Y102951D01*
X155066Y102932D01*
X155064Y102914D01*
X155062Y102898D01*
X155059Y102882D01*
X155054Y102867D01*
X155049Y102853D01*
X155045Y102841D01*
X155039Y102828D01*
X155035Y102818D01*
X155030Y102808D01*
X155025Y102801D01*
X155021Y102793D01*
X155017Y102789D01*
X155015Y102784D01*
X155013Y102782D01*
X155012Y102781D01*
X155001Y102768D01*
X154990Y102757D01*
X154977Y102747D01*
X154964Y102737D01*
X154938Y102720D01*
X154913Y102707D01*
X154901Y102702D01*
X154889Y102697D01*
X154879Y102693D01*
X154871Y102691D01*
X154864Y102688D01*
X154858Y102686D01*
X154854Y102685D01*
X154853D01*
X154832Y102770D01*
X154847Y102774D01*
X154861Y102779D01*
X154874Y102783D01*
X154886Y102788D01*
X154897Y102793D01*
X154906Y102799D01*
X154915Y102805D01*
X154924Y102811D01*
X154931Y102816D01*
X154937Y102821D01*
X154942Y102826D01*
X154947Y102829D01*
X154950Y102833D01*
X154952Y102836D01*
X154953Y102837D01*
X154954Y102838D01*
X154962Y102847D01*
X154967Y102857D01*
X154977Y102877D01*
X154985Y102897D01*
X154989Y102916D01*
X154993Y102933D01*
X154994Y102939D01*
Y102946D01*
X154995Y102951D01*
Y102958D01*
X154994Y102979D01*
X154990Y103000D01*
X154986Y103018D01*
X154980Y103035D01*
X154975Y103048D01*
X154972Y103053D01*
X154970Y103058D01*
X154968Y103061D01*
X154966Y103064D01*
X154965Y103066D01*
Y103067D01*
X154952Y103085D01*
X154938Y103099D01*
X154923Y103112D01*
X154908Y103122D01*
X154895Y103131D01*
X154884Y103136D01*
X154879Y103138D01*
X154877Y103140D01*
X154875Y103141D01*
X154874D01*
X154850Y103148D01*
X154826Y103154D01*
X154802Y103159D01*
X154779Y103161D01*
X154769Y103162D01*
X154760Y103163D01*
X154752D01*
X154745Y103164D01*
X154740D01*
X154735D01*
X154732D01*
X154731D01*
X154707Y103163D01*
X154685Y103161D01*
X154665Y103158D01*
X154646Y103154D01*
X154631Y103151D01*
X154624Y103149D01*
X154619Y103147D01*
X154614Y103147D01*
X154611Y103146D01*
X154609Y103145D01*
X154608D01*
X154587Y103135D01*
X154568Y103125D01*
X154552Y103114D01*
X154538Y103102D01*
X154527Y103092D01*
X154520Y103084D01*
X154515Y103077D01*
X154513Y103076D01*
Y103075D01*
X154501Y103056D01*
X154492Y103035D01*
X154485Y103014D01*
X154482Y102995D01*
X154479Y102977D01*
X154478Y102970D01*
Y102963D01*
X154477Y102959D01*
Y102951D01*
X154478Y102928D01*
X154482Y102907D01*
X154487Y102890D01*
X154493Y102874D01*
X154499Y102862D01*
X154504Y102853D01*
X154508Y102847D01*
X154510Y102845D01*
X154523Y102830D01*
X154539Y102816D01*
X154556Y102805D01*
X154572Y102796D01*
X154587Y102789D01*
X154595Y102786D01*
X154600Y102784D01*
X154605Y102782D01*
X154608Y102780D01*
X154610Y102779D01*
X154611D01*
X154592Y102696D01*
X154575Y102702D01*
X154560Y102707D01*
X154546Y102715D01*
X154533Y102721D01*
X154521Y102729D01*
X154510Y102737D01*
X154498Y102744D01*
X154489Y102752D01*
X154482Y102759D01*
X154474Y102766D01*
X154468Y102772D01*
X154463Y102777D01*
X154459Y102781D01*
X154456Y102785D01*
X154455Y102787D01*
X154454Y102788D01*
X154446Y102801D01*
X154437Y102814D01*
X154431Y102827D01*
X154425Y102841D01*
X154417Y102868D01*
X154411Y102893D01*
X154409Y102905D01*
X154408Y102915D01*
X154407Y102926D01*
X154406Y102934D01*
X154405Y102940D01*
Y102950D01*
X154407Y102980D01*
X154411Y103010D01*
X154417Y103036D01*
X154421Y103048D01*
X154424Y103059D01*
X154428Y103069D01*
X154432Y103078D01*
X154435Y103086D01*
X154437Y103093D01*
X154440Y103098D01*
X154442Y103101D01*
X154443Y103104D01*
X154444Y103105D01*
X154460Y103130D01*
X154478Y103151D01*
X154497Y103170D01*
X154515Y103185D01*
X154532Y103197D01*
X154539Y103202D01*
X154546Y103206D01*
X154550Y103209D01*
X154554Y103211D01*
X154557Y103212D01*
X154558Y103213D01*
X154586Y103226D01*
X154616Y103235D01*
X154645Y103242D01*
X154672Y103246D01*
X154684Y103248D01*
X154696Y103249D01*
X154706Y103250D01*
X154715D01*
X154721Y103251D01*
X154727D01*
X154730D01*
X154731D01*
X154765Y103249D01*
D02*
G37*
G36*
X154787Y102616D02*
X154815Y102614D01*
X154840Y102611D01*
X154865Y102607D01*
X154886Y102602D01*
X154905Y102597D01*
X154923Y102592D01*
X154938Y102585D01*
X154951Y102580D01*
X154963Y102574D01*
X154973Y102570D01*
X154981Y102564D01*
X154988Y102560D01*
X154991Y102558D01*
X154994Y102556D01*
X154995Y102555D01*
X155008Y102543D01*
X155019Y102530D01*
X155028Y102517D01*
X155036Y102504D01*
X155044Y102490D01*
X155049Y102477D01*
X155054Y102464D01*
X155058Y102451D01*
X155061Y102440D01*
X155063Y102429D01*
X155065Y102420D01*
X155066Y102412D01*
Y102404D01*
X155067Y102399D01*
Y102395D01*
X155066Y102374D01*
X155062Y102354D01*
X155059Y102337D01*
X155053Y102321D01*
X155049Y102309D01*
X155044Y102300D01*
X155043Y102296D01*
X155041Y102293D01*
X155040Y102292D01*
Y102291D01*
X155029Y102276D01*
X155016Y102261D01*
X155003Y102249D01*
X154990Y102239D01*
X154978Y102230D01*
X154969Y102225D01*
X154965Y102223D01*
X154963Y102221D01*
X154962Y102220D01*
X154961D01*
X154941Y102211D01*
X154921Y102204D01*
X154902Y102200D01*
X154885Y102197D01*
X154870Y102194D01*
X154865D01*
X154859Y102193D01*
X154854D01*
X154852D01*
X154850D01*
X154849D01*
X154832Y102194D01*
X154816Y102196D01*
X154801Y102199D01*
X154787Y102202D01*
X154774Y102206D01*
X154761Y102211D01*
X154750Y102216D01*
X154740Y102221D01*
X154730Y102227D01*
X154722Y102231D01*
X154716Y102236D01*
X154709Y102240D01*
X154705Y102243D01*
X154702Y102246D01*
X154700Y102248D01*
X154699Y102249D01*
X154689Y102259D01*
X154680Y102270D01*
X154672Y102282D01*
X154666Y102293D01*
X154659Y102304D01*
X154655Y102315D01*
X154648Y102337D01*
X154645Y102346D01*
X154644Y102355D01*
X154643Y102363D01*
X154642Y102370D01*
X154641Y102375D01*
Y102383D01*
X154642Y102399D01*
X154644Y102415D01*
X154647Y102430D01*
X154651Y102443D01*
X154656Y102454D01*
X154658Y102462D01*
X154661Y102468D01*
X154662Y102469D01*
Y102470D01*
X154671Y102485D01*
X154681Y102497D01*
X154692Y102510D01*
X154703Y102519D01*
X154712Y102527D01*
X154719Y102534D01*
X154725Y102537D01*
X154726Y102538D01*
X154709D01*
X154693Y102537D01*
X154678Y102536D01*
X154663Y102534D01*
X154650Y102534D01*
X154638Y102532D01*
X154627Y102530D01*
X154617Y102527D01*
X154607Y102525D01*
X154600Y102523D01*
X154594Y102522D01*
X154588Y102521D01*
X154584Y102519D01*
X154582Y102518D01*
X154580Y102517D01*
X154579D01*
X154560Y102508D01*
X154544Y102498D01*
X154531Y102488D01*
X154520Y102479D01*
X154510Y102471D01*
X154504Y102464D01*
X154500Y102460D01*
X154499Y102458D01*
X154492Y102447D01*
X154487Y102436D01*
X154484Y102424D01*
X154481Y102413D01*
X154479Y102405D01*
X154478Y102398D01*
Y102391D01*
X154480Y102375D01*
X154484Y102359D01*
X154489Y102346D01*
X154495Y102334D01*
X154501Y102325D01*
X154507Y102318D01*
X154510Y102314D01*
X154512Y102313D01*
X154521Y102306D01*
X154531Y102300D01*
X154542Y102294D01*
X154553Y102290D01*
X154563Y102287D01*
X154571Y102284D01*
X154577Y102283D01*
X154578Y102282D01*
X154579D01*
X154572Y102203D01*
X154546Y102209D01*
X154523Y102217D01*
X154503Y102227D01*
X154486Y102237D01*
X154473Y102247D01*
X154468Y102251D01*
X154463Y102255D01*
X154460Y102258D01*
X154458Y102261D01*
X154457Y102262D01*
X154456Y102263D01*
X154448Y102272D01*
X154442Y102282D01*
X154431Y102302D01*
X154424Y102323D01*
X154419Y102342D01*
X154415Y102360D01*
X154414Y102367D01*
Y102374D01*
X154413Y102379D01*
Y102387D01*
X154414Y102405D01*
X154416Y102423D01*
X154420Y102439D01*
X154424Y102455D01*
X154431Y102469D01*
X154436Y102483D01*
X154444Y102495D01*
X154450Y102506D01*
X154457Y102515D01*
X154464Y102524D01*
X154470Y102532D01*
X154475Y102537D01*
X154481Y102542D01*
X154485Y102546D01*
X154486Y102547D01*
X154487Y102548D01*
X154504Y102560D01*
X154523Y102571D01*
X154544Y102580D01*
X154565Y102588D01*
X154587Y102595D01*
X154609Y102600D01*
X154632Y102605D01*
X154654Y102608D01*
X154675Y102611D01*
X154694Y102613D01*
X154712Y102615D01*
X154727Y102616D01*
X154740D01*
X154749Y102617D01*
X154753D01*
X154755D01*
X154756D01*
X154757D01*
X154787Y102616D01*
D02*
G37*
G36*
X158321Y108075D02*
X158353Y108071D01*
X158382Y108067D01*
X158396Y108063D01*
X158408Y108060D01*
X158419Y108058D01*
X158429Y108054D01*
X158438Y108051D01*
X158445Y108049D01*
X158451Y108047D01*
X158456Y108046D01*
X158458Y108044D01*
X158459D01*
X158487Y108030D01*
X158512Y108014D01*
X158533Y107997D01*
X158542Y107989D01*
X158550Y107982D01*
X158557Y107974D01*
X158564Y107967D01*
X158569Y107961D01*
X158573Y107955D01*
X158577Y107951D01*
X158580Y107948D01*
X158580Y107946D01*
X158581Y107945D01*
X158589Y107932D01*
X158595Y107919D01*
X158605Y107891D01*
X158613Y107863D01*
X158617Y107837D01*
X158619Y107824D01*
X158621Y107813D01*
X158622Y107802D01*
Y107794D01*
X158623Y107787D01*
Y107777D01*
X158622Y107758D01*
X158620Y107740D01*
X158618Y107724D01*
X158615Y107708D01*
X158610Y107693D01*
X158605Y107679D01*
X158601Y107667D01*
X158595Y107654D01*
X158591Y107644D01*
X158586Y107634D01*
X158581Y107627D01*
X158577Y107619D01*
X158573Y107615D01*
X158571Y107610D01*
X158569Y107608D01*
X158568Y107607D01*
X158557Y107594D01*
X158546Y107583D01*
X158533Y107573D01*
X158520Y107563D01*
X158494Y107546D01*
X158469Y107533D01*
X158457Y107528D01*
X158445Y107523D01*
X158435Y107520D01*
X158427Y107517D01*
X158420Y107514D01*
X158414Y107512D01*
X158410Y107511D01*
X158409D01*
X158388Y107596D01*
X158403Y107600D01*
X158417Y107605D01*
X158430Y107609D01*
X158442Y107614D01*
X158453Y107619D01*
X158462Y107625D01*
X158471Y107631D01*
X158480Y107637D01*
X158487Y107642D01*
X158493Y107647D01*
X158498Y107652D01*
X158503Y107655D01*
X158506Y107659D01*
X158508Y107662D01*
X158509Y107663D01*
X158510Y107664D01*
X158518Y107673D01*
X158523Y107683D01*
X158533Y107703D01*
X158541Y107723D01*
X158545Y107742D01*
X158549Y107759D01*
X158550Y107765D01*
Y107772D01*
X158551Y107777D01*
Y107784D01*
X158550Y107805D01*
X158546Y107826D01*
X158542Y107844D01*
X158536Y107861D01*
X158531Y107874D01*
X158528Y107879D01*
X158526Y107884D01*
X158524Y107887D01*
X158522Y107890D01*
X158521Y107892D01*
Y107893D01*
X158508Y107911D01*
X158494Y107925D01*
X158479Y107938D01*
X158464Y107949D01*
X158451Y107957D01*
X158440Y107962D01*
X158435Y107964D01*
X158433Y107966D01*
X158431Y107967D01*
X158430D01*
X158406Y107974D01*
X158382Y107980D01*
X158358Y107985D01*
X158335Y107987D01*
X158325Y107988D01*
X158316Y107989D01*
X158308D01*
X158301Y107990D01*
X158296D01*
X158291D01*
X158288D01*
X158287D01*
X158263Y107989D01*
X158241Y107987D01*
X158221Y107984D01*
X158202Y107980D01*
X158187Y107977D01*
X158180Y107975D01*
X158175Y107973D01*
X158170Y107973D01*
X158167Y107972D01*
X158165Y107971D01*
X158164D01*
X158143Y107961D01*
X158124Y107951D01*
X158108Y107940D01*
X158094Y107928D01*
X158083Y107918D01*
X158076Y107910D01*
X158071Y107903D01*
X158069Y107902D01*
Y107901D01*
X158057Y107882D01*
X158048Y107861D01*
X158041Y107840D01*
X158038Y107821D01*
X158035Y107803D01*
X158034Y107796D01*
Y107789D01*
X158033Y107785D01*
Y107777D01*
X158034Y107754D01*
X158038Y107733D01*
X158043Y107716D01*
X158049Y107700D01*
X158055Y107688D01*
X158060Y107679D01*
X158064Y107673D01*
X158066Y107671D01*
X158079Y107656D01*
X158095Y107642D01*
X158112Y107631D01*
X158128Y107622D01*
X158143Y107615D01*
X158151Y107612D01*
X158156Y107610D01*
X158161Y107608D01*
X158164Y107606D01*
X158166Y107605D01*
X158167D01*
X158148Y107522D01*
X158131Y107528D01*
X158116Y107533D01*
X158102Y107541D01*
X158089Y107547D01*
X158077Y107555D01*
X158066Y107563D01*
X158054Y107570D01*
X158045Y107578D01*
X158038Y107585D01*
X158030Y107592D01*
X158024Y107598D01*
X158019Y107603D01*
X158015Y107607D01*
X158012Y107611D01*
X158011Y107613D01*
X158010Y107614D01*
X158002Y107627D01*
X157993Y107640D01*
X157987Y107653D01*
X157981Y107667D01*
X157973Y107694D01*
X157967Y107719D01*
X157965Y107731D01*
X157964Y107741D01*
X157963Y107752D01*
X157962Y107760D01*
X157961Y107766D01*
Y107776D01*
X157963Y107806D01*
X157967Y107836D01*
X157973Y107862D01*
X157977Y107874D01*
X157980Y107885D01*
X157984Y107895D01*
X157988Y107904D01*
X157991Y107912D01*
X157993Y107919D01*
X157996Y107924D01*
X157998Y107927D01*
X157999Y107930D01*
X158000Y107931D01*
X158016Y107956D01*
X158034Y107977D01*
X158053Y107996D01*
X158071Y108011D01*
X158088Y108023D01*
X158095Y108028D01*
X158102Y108032D01*
X158106Y108035D01*
X158110Y108037D01*
X158113Y108038D01*
X158114Y108039D01*
X158142Y108052D01*
X158172Y108061D01*
X158201Y108068D01*
X158228Y108072D01*
X158240Y108074D01*
X158252Y108075D01*
X158262Y108076D01*
X158271D01*
X158277Y108077D01*
X158283D01*
X158286D01*
X158287D01*
X158321Y108075D01*
D02*
G37*
G36*
X158459Y107437D02*
X158473Y107434D01*
X158499Y107426D01*
X158521Y107416D01*
X158531Y107410D01*
X158540Y107405D01*
X158548Y107400D01*
X158556Y107395D01*
X158561Y107390D01*
X158566Y107385D01*
X158569Y107382D01*
X158573Y107380D01*
X158574Y107378D01*
X158575Y107377D01*
X158583Y107366D01*
X158591Y107355D01*
X158597Y107343D01*
X158603Y107331D01*
X158611Y107308D01*
X158617Y107285D01*
X158619Y107274D01*
X158620Y107264D01*
X158621Y107256D01*
X158622Y107249D01*
X158623Y107242D01*
Y107234D01*
X158622Y107214D01*
X158619Y107196D01*
X158616Y107178D01*
X158611Y107163D01*
X158605Y107148D01*
X158598Y107134D01*
X158592Y107121D01*
X158584Y107110D01*
X158577Y107100D01*
X158570Y107091D01*
X158563Y107083D01*
X158557Y107077D01*
X158553Y107072D01*
X158549Y107068D01*
X158546Y107066D01*
X158545Y107066D01*
X158533Y107056D01*
X158520Y107049D01*
X158508Y107042D01*
X158495Y107036D01*
X158470Y107027D01*
X158446Y107021D01*
X158436Y107019D01*
X158426Y107017D01*
X158418Y107017D01*
X158410Y107016D01*
X158404Y107015D01*
X158399D01*
X158396D01*
X158396D01*
X158379Y107016D01*
X158363Y107017D01*
X158347Y107020D01*
X158334Y107024D01*
X158321Y107029D01*
X158308Y107033D01*
X158297Y107039D01*
X158286Y107043D01*
X158277Y107049D01*
X158269Y107054D01*
X158262Y107059D01*
X158256Y107064D01*
X158251Y107067D01*
X158249Y107070D01*
X158247Y107072D01*
X158246Y107073D01*
X158236Y107084D01*
X158226Y107095D01*
X158219Y107107D01*
X158212Y107119D01*
X158206Y107131D01*
X158201Y107143D01*
X158195Y107165D01*
X158192Y107176D01*
X158190Y107185D01*
X158189Y107193D01*
X158188Y107201D01*
X158188Y107206D01*
Y107226D01*
X158189Y107238D01*
X158194Y107260D01*
X158200Y107280D01*
X158208Y107299D01*
X158215Y107313D01*
X158219Y107320D01*
X158222Y107325D01*
X158225Y107330D01*
X158226Y107333D01*
X158227Y107335D01*
X158228Y107336D01*
X158055Y107301D01*
Y107045D01*
X157980D01*
Y107363D01*
X158310Y107425D01*
X158320Y107351D01*
X158310Y107345D01*
X158301Y107336D01*
X158293Y107329D01*
X158286Y107322D01*
X158282Y107314D01*
X158277Y107309D01*
X158275Y107305D01*
X158274Y107304D01*
X158269Y107292D01*
X158264Y107280D01*
X158262Y107269D01*
X158259Y107258D01*
X158258Y107249D01*
X158257Y107241D01*
Y107224D01*
X158259Y107213D01*
X158263Y107193D01*
X158270Y107176D01*
X158276Y107162D01*
X158284Y107151D01*
X158290Y107142D01*
X158295Y107138D01*
X158296Y107136D01*
X158297D01*
X158312Y107123D01*
X158329Y107114D01*
X158347Y107107D01*
X158364Y107103D01*
X158379Y107100D01*
X158385Y107099D01*
X158391D01*
X158396Y107098D01*
X158399D01*
X158401D01*
X158402D01*
X158415D01*
X158427Y107100D01*
X158450Y107104D01*
X158470Y107111D01*
X158485Y107117D01*
X158498Y107125D01*
X158508Y107131D01*
X158511Y107134D01*
X158514Y107136D01*
X158515Y107137D01*
X158516Y107138D01*
X158523Y107145D01*
X158530Y107152D01*
X158541Y107169D01*
X158548Y107185D01*
X158553Y107201D01*
X158556Y107213D01*
X158557Y107225D01*
X158558Y107228D01*
Y107234D01*
X158557Y107251D01*
X158554Y107267D01*
X158549Y107281D01*
X158544Y107292D01*
X158538Y107302D01*
X158533Y107310D01*
X158530Y107313D01*
X158529Y107315D01*
X158516Y107326D01*
X158502Y107336D01*
X158486Y107343D01*
X158472Y107348D01*
X158458Y107352D01*
X158448Y107355D01*
X158444Y107356D01*
X158441Y107357D01*
X158439D01*
X158438D01*
X158445Y107439D01*
X158459Y107437D01*
D02*
G37*
G36*
X155317Y14842D02*
X155242D01*
Y15155D01*
X155215Y15133D01*
X155186Y15112D01*
X155158Y15093D01*
X155132Y15075D01*
X155120Y15068D01*
X155109Y15062D01*
X155098Y15055D01*
X155090Y15051D01*
X155083Y15047D01*
X155078Y15044D01*
X155074Y15042D01*
X155073Y15041D01*
X155036Y15023D01*
X154999Y15006D01*
X154964Y14992D01*
X154949Y14987D01*
X154933Y14981D01*
X154919Y14976D01*
X154906Y14972D01*
X154895Y14968D01*
X154886Y14965D01*
X154877Y14963D01*
X154872Y14961D01*
X154868Y14960D01*
X154867D01*
X154829Y14951D01*
X154811Y14947D01*
X154794Y14944D01*
X154778Y14941D01*
X154763Y14939D01*
X154750Y14937D01*
X154737Y14935D01*
X154726Y14934D01*
X154716Y14933D01*
X154706Y14932D01*
X154699D01*
X154693Y14931D01*
X154690D01*
X154687D01*
X154686D01*
Y15012D01*
X154721Y15014D01*
X154753Y15019D01*
X154783Y15024D01*
X154797Y15026D01*
X154810Y15029D01*
X154821Y15031D01*
X154831Y15034D01*
X154840Y15036D01*
X154848Y15038D01*
X154853Y15039D01*
X154858Y15040D01*
X154861Y15041D01*
X154862D01*
X154904Y15055D01*
X154944Y15070D01*
X154963Y15077D01*
X154982Y15085D01*
X154998Y15093D01*
X155015Y15100D01*
X155030Y15107D01*
X155043Y15113D01*
X155054Y15119D01*
X155064Y15124D01*
X155072Y15128D01*
X155078Y15131D01*
X155082Y15133D01*
X155083Y15134D01*
X155102Y15145D01*
X155121Y15156D01*
X155139Y15167D01*
X155156Y15178D01*
X155170Y15188D01*
X155185Y15198D01*
X155198Y15209D01*
X155209Y15217D01*
X155220Y15225D01*
X155230Y15233D01*
X155237Y15240D01*
X155243Y15246D01*
X155249Y15249D01*
X155253Y15253D01*
X155255Y15255D01*
X155256Y15256D01*
X155317D01*
Y14842D01*
D02*
G37*
G36*
X154860Y14676D02*
X154878Y14663D01*
X154895Y14651D01*
X154909Y14639D01*
X154922Y14629D01*
X154931Y14620D01*
X154938Y14612D01*
X154943Y14608D01*
X154945Y14606D01*
X154950Y14598D01*
X154957Y14590D01*
X154967Y14573D01*
X154971Y14566D01*
X154974Y14561D01*
X154976Y14557D01*
X154977Y14555D01*
X154980Y14572D01*
X154983Y14587D01*
X154987Y14601D01*
X154991Y14615D01*
X154996Y14627D01*
X155001Y14638D01*
X155006Y14648D01*
X155011Y14658D01*
X155016Y14665D01*
X155021Y14672D01*
X155024Y14678D01*
X155028Y14683D01*
X155031Y14686D01*
X155034Y14689D01*
X155035Y14690D01*
X155035Y14691D01*
X155045Y14698D01*
X155054Y14706D01*
X155073Y14717D01*
X155093Y14724D01*
X155111Y14730D01*
X155127Y14733D01*
X155133Y14734D01*
X155140D01*
X155145Y14735D01*
X155148D01*
X155150D01*
X155151D01*
X155170Y14734D01*
X155188Y14732D01*
X155205Y14727D01*
X155219Y14722D01*
X155231Y14717D01*
X155240Y14713D01*
X155245Y14709D01*
X155246Y14708D01*
X155247D01*
X155262Y14697D01*
X155275Y14686D01*
X155286Y14674D01*
X155294Y14663D01*
X155301Y14653D01*
X155305Y14645D01*
X155307Y14639D01*
X155308Y14638D01*
Y14637D01*
X155311Y14629D01*
X155314Y14619D01*
X155318Y14598D01*
X155321Y14576D01*
X155324Y14556D01*
X155325Y14536D01*
Y14528D01*
X155326Y14521D01*
Y14224D01*
X154686D01*
Y14309D01*
X154970D01*
Y14418D01*
X154969Y14428D01*
Y14436D01*
X154968Y14442D01*
X154967Y14447D01*
Y14450D01*
X154966Y14452D01*
Y14453D01*
X154962Y14468D01*
X154959Y14475D01*
X154956Y14480D01*
X154953Y14486D01*
X154951Y14489D01*
X154950Y14491D01*
X154949Y14492D01*
X154944Y14500D01*
X154937Y14507D01*
X154924Y14521D01*
X154917Y14527D01*
X154912Y14532D01*
X154908Y14535D01*
X154907Y14536D01*
X154894Y14545D01*
X154880Y14555D01*
X154865Y14565D01*
X154851Y14575D01*
X154839Y14584D01*
X154828Y14590D01*
X154825Y14593D01*
X154822Y14595D01*
X154820Y14597D01*
X154819D01*
X154686Y14681D01*
Y14786D01*
X154860Y14676D01*
D02*
G37*
G36*
X154900Y11827D02*
X154920Y11823D01*
X154937Y11818D01*
X154952Y11812D01*
X154964Y11806D01*
X154974Y11801D01*
X154979Y11797D01*
X154980Y11796D01*
X154981D01*
X154996Y11783D01*
X155009Y11769D01*
X155019Y11755D01*
X155028Y11741D01*
X155035Y11728D01*
X155039Y11717D01*
X155041Y11713D01*
X155042Y11710D01*
X155043Y11708D01*
Y11708D01*
X155050Y11724D01*
X155059Y11738D01*
X155067Y11750D01*
X155075Y11760D01*
X155083Y11768D01*
X155088Y11773D01*
X155092Y11777D01*
X155094Y11778D01*
X155107Y11786D01*
X155120Y11792D01*
X155133Y11796D01*
X155145Y11799D01*
X155156Y11801D01*
X155164Y11802D01*
X155170D01*
X155170D01*
X155171D01*
X155184Y11801D01*
X155196Y11800D01*
X155219Y11794D01*
X155240Y11785D01*
X155257Y11776D01*
X155271Y11767D01*
X155277Y11762D01*
X155282Y11758D01*
X155286Y11755D01*
X155289Y11752D01*
X155290Y11751D01*
X155291Y11750D01*
X155299Y11740D01*
X155307Y11730D01*
X155314Y11719D01*
X155319Y11708D01*
X155328Y11685D01*
X155333Y11663D01*
X155336Y11654D01*
X155337Y11645D01*
X155338Y11636D01*
X155339Y11629D01*
X155340Y11623D01*
Y11615D01*
X155339Y11600D01*
X155338Y11585D01*
X155332Y11560D01*
X155329Y11548D01*
X155325Y11536D01*
X155320Y11526D01*
X155316Y11517D01*
X155311Y11510D01*
X155306Y11502D01*
X155303Y11496D01*
X155299Y11491D01*
X155296Y11487D01*
X155293Y11485D01*
X155292Y11483D01*
X155292Y11482D01*
X155282Y11474D01*
X155273Y11465D01*
X155263Y11459D01*
X155253Y11453D01*
X155233Y11444D01*
X155215Y11438D01*
X155199Y11435D01*
X155192Y11434D01*
X155186Y11433D01*
X155181Y11432D01*
X155177D01*
X155175D01*
X155174D01*
X155158Y11433D01*
X155142Y11436D01*
X155128Y11439D01*
X155116Y11444D01*
X155107Y11448D01*
X155099Y11451D01*
X155096Y11454D01*
X155094Y11455D01*
X155083Y11465D01*
X155072Y11476D01*
X155063Y11488D01*
X155056Y11500D01*
X155050Y11512D01*
X155047Y11520D01*
X155045Y11524D01*
X155044Y11526D01*
X155043Y11527D01*
Y11528D01*
X155036Y11507D01*
X155028Y11489D01*
X155018Y11474D01*
X155009Y11461D01*
X154999Y11450D01*
X154992Y11443D01*
X154987Y11439D01*
X154986Y11438D01*
X154986D01*
X154969Y11427D01*
X154951Y11419D01*
X154935Y11414D01*
X154918Y11410D01*
X154903Y11408D01*
X154897Y11407D01*
X154891D01*
X154888Y11406D01*
X154884D01*
X154882D01*
X154881D01*
X154866Y11407D01*
X154851Y11409D01*
X154838Y11412D01*
X154824Y11415D01*
X154801Y11425D01*
X154790Y11429D01*
X154780Y11435D01*
X154771Y11440D01*
X154764Y11445D01*
X154757Y11450D01*
X154752Y11454D01*
X154747Y11458D01*
X154744Y11461D01*
X154742Y11463D01*
X154741Y11463D01*
X154731Y11475D01*
X154723Y11487D01*
X154716Y11500D01*
X154709Y11512D01*
X154704Y11524D01*
X154700Y11537D01*
X154693Y11562D01*
X154691Y11573D01*
X154689Y11584D01*
X154688Y11593D01*
X154687Y11601D01*
X154686Y11608D01*
Y11617D01*
X154687Y11634D01*
X154689Y11650D01*
X154692Y11666D01*
X154694Y11681D01*
X154699Y11694D01*
X154704Y11707D01*
X154708Y11719D01*
X154714Y11729D01*
X154719Y11738D01*
X154724Y11746D01*
X154729Y11753D01*
X154733Y11759D01*
X154736Y11764D01*
X154739Y11767D01*
X154741Y11769D01*
X154741Y11769D01*
X154753Y11780D01*
X154764Y11789D01*
X154775Y11796D01*
X154787Y11803D01*
X154798Y11809D01*
X154810Y11814D01*
X154831Y11820D01*
X154841Y11823D01*
X154851Y11825D01*
X154859Y11826D01*
X154865Y11827D01*
X154871Y11828D01*
X154876D01*
X154878D01*
X154879D01*
X154900Y11827D01*
D02*
G37*
G36*
X154871Y11247D02*
X154889Y11234D01*
X154906Y11222D01*
X154920Y11210D01*
X154933Y11200D01*
X154942Y11191D01*
X154949Y11183D01*
X154954Y11179D01*
X154956Y11177D01*
X154962Y11169D01*
X154968Y11161D01*
X154978Y11144D01*
X154982Y11137D01*
X154986Y11132D01*
X154987Y11128D01*
X154988Y11126D01*
X154991Y11143D01*
X154994Y11158D01*
X154998Y11172D01*
X155002Y11186D01*
X155007Y11198D01*
X155012Y11209D01*
X155017Y11219D01*
X155022Y11229D01*
X155027Y11236D01*
X155032Y11243D01*
X155035Y11249D01*
X155039Y11254D01*
X155042Y11257D01*
X155045Y11260D01*
X155046Y11261D01*
X155047Y11262D01*
X155056Y11269D01*
X155065Y11277D01*
X155084Y11288D01*
X155104Y11295D01*
X155122Y11301D01*
X155138Y11304D01*
X155145Y11305D01*
X155151D01*
X155156Y11306D01*
X155159D01*
X155161D01*
X155162D01*
X155182Y11305D01*
X155199Y11303D01*
X155216Y11298D01*
X155230Y11293D01*
X155242Y11288D01*
X155251Y11284D01*
X155256Y11280D01*
X155257Y11279D01*
X155258D01*
X155273Y11268D01*
X155286Y11257D01*
X155297Y11245D01*
X155305Y11234D01*
X155312Y11224D01*
X155316Y11216D01*
X155318Y11210D01*
X155319Y11209D01*
Y11208D01*
X155322Y11200D01*
X155325Y11190D01*
X155329Y11169D01*
X155332Y11147D01*
X155335Y11127D01*
X155336Y11107D01*
Y11099D01*
X155337Y11092D01*
Y10795D01*
X154697D01*
Y10880D01*
X154981D01*
Y10989D01*
X154980Y10999D01*
Y11007D01*
X154979Y11013D01*
X154978Y11018D01*
Y11021D01*
X154977Y11023D01*
Y11024D01*
X154973Y11039D01*
X154970Y11046D01*
X154967Y11051D01*
X154964Y11057D01*
X154962Y11060D01*
X154962Y11062D01*
X154961Y11063D01*
X154955Y11071D01*
X154949Y11078D01*
X154935Y11092D01*
X154928Y11098D01*
X154923Y11103D01*
X154919Y11106D01*
X154918Y11107D01*
X154905Y11116D01*
X154891Y11126D01*
X154876Y11136D01*
X154863Y11146D01*
X154850Y11155D01*
X154839Y11161D01*
X154836Y11164D01*
X154833Y11166D01*
X154831Y11168D01*
X154830D01*
X154697Y11252D01*
Y11357D01*
X154871Y11247D01*
D02*
G37*
G36*
X89214Y75709D02*
X89239Y75704D01*
X89260Y75697D01*
X89279Y75689D01*
X89287Y75685D01*
X89294Y75681D01*
X89300Y75677D01*
X89305Y75674D01*
X89308Y75671D01*
X89311Y75669D01*
X89313Y75668D01*
X89314Y75667D01*
X89332Y75650D01*
X89345Y75630D01*
X89357Y75610D01*
X89366Y75590D01*
X89371Y75572D01*
X89374Y75565D01*
X89376Y75558D01*
X89377Y75553D01*
X89378Y75549D01*
X89379Y75546D01*
Y75545D01*
X89300Y75531D01*
X89296Y75552D01*
X89291Y75569D01*
X89284Y75584D01*
X89278Y75596D01*
X89271Y75605D01*
X89266Y75612D01*
X89262Y75616D01*
X89261Y75617D01*
X89249Y75627D01*
X89236Y75634D01*
X89224Y75639D01*
X89212Y75642D01*
X89201Y75644D01*
X89193Y75646D01*
X89185D01*
X89169Y75645D01*
X89154Y75641D01*
X89141Y75637D01*
X89130Y75632D01*
X89122Y75627D01*
X89115Y75622D01*
X89111Y75618D01*
X89110Y75617D01*
X89099Y75606D01*
X89092Y75594D01*
X89087Y75582D01*
X89084Y75571D01*
X89082Y75561D01*
X89080Y75553D01*
Y75548D01*
Y75547D01*
Y75546D01*
Y75536D01*
X89082Y75527D01*
X89087Y75511D01*
X89093Y75497D01*
X89100Y75485D01*
X89108Y75477D01*
X89114Y75470D01*
X89119Y75467D01*
X89120Y75466D01*
X89121D01*
X89136Y75457D01*
X89151Y75451D01*
X89167Y75446D01*
X89181Y75443D01*
X89193Y75442D01*
X89203Y75440D01*
X89215D01*
X89219Y75441D01*
X89223D01*
X89233Y75371D01*
X89221Y75374D01*
X89210Y75376D01*
X89200Y75378D01*
X89192Y75379D01*
X89185Y75380D01*
X89177D01*
X89158Y75378D01*
X89140Y75374D01*
X89124Y75369D01*
X89112Y75362D01*
X89101Y75356D01*
X89094Y75350D01*
X89089Y75346D01*
X89087Y75345D01*
X89075Y75331D01*
X89066Y75316D01*
X89060Y75301D01*
X89056Y75286D01*
X89053Y75274D01*
X89052Y75264D01*
X89051Y75260D01*
Y75258D01*
Y75256D01*
Y75255D01*
X89053Y75234D01*
X89058Y75216D01*
X89063Y75200D01*
X89071Y75186D01*
X89078Y75175D01*
X89084Y75167D01*
X89088Y75161D01*
X89090Y75160D01*
X89105Y75147D01*
X89121Y75137D01*
X89136Y75131D01*
X89151Y75126D01*
X89164Y75124D01*
X89174Y75123D01*
X89178Y75122D01*
X89184D01*
X89200Y75123D01*
X89216Y75126D01*
X89230Y75131D01*
X89241Y75136D01*
X89250Y75141D01*
X89258Y75146D01*
X89261Y75149D01*
X89263Y75150D01*
X89274Y75163D01*
X89283Y75178D01*
X89292Y75194D01*
X89298Y75210D01*
X89303Y75224D01*
X89305Y75231D01*
X89306Y75236D01*
X89307Y75241D01*
X89308Y75245D01*
X89308Y75247D01*
Y75247D01*
X89387Y75237D01*
X89385Y75222D01*
X89382Y75209D01*
X89374Y75183D01*
X89364Y75161D01*
X89358Y75151D01*
X89353Y75142D01*
X89347Y75134D01*
X89342Y75127D01*
X89337Y75121D01*
X89332Y75116D01*
X89330Y75112D01*
X89327Y75110D01*
X89325Y75108D01*
X89324Y75107D01*
X89313Y75099D01*
X89302Y75090D01*
X89291Y75084D01*
X89279Y75078D01*
X89256Y75069D01*
X89234Y75063D01*
X89223Y75062D01*
X89214Y75060D01*
X89206Y75059D01*
X89198Y75058D01*
X89193Y75057D01*
X89185D01*
X89167Y75058D01*
X89151Y75060D01*
X89136Y75063D01*
X89121Y75066D01*
X89107Y75071D01*
X89095Y75075D01*
X89083Y75081D01*
X89073Y75087D01*
X89063Y75091D01*
X89054Y75097D01*
X89047Y75101D01*
X89041Y75106D01*
X89037Y75110D01*
X89033Y75112D01*
X89031Y75114D01*
X89030Y75115D01*
X89019Y75126D01*
X89010Y75138D01*
X89001Y75150D01*
X88994Y75162D01*
X88989Y75173D01*
X88983Y75186D01*
X88976Y75208D01*
X88974Y75218D01*
X88972Y75227D01*
X88970Y75235D01*
X88969Y75243D01*
X88968Y75248D01*
Y75253D01*
Y75256D01*
Y75257D01*
X88969Y75279D01*
X88973Y75299D01*
X88978Y75317D01*
X88984Y75332D01*
X88989Y75344D01*
X88995Y75353D01*
X88999Y75358D01*
X89000Y75360D01*
X89013Y75374D01*
X89026Y75386D01*
X89041Y75395D01*
X89056Y75403D01*
X89069Y75408D01*
X89079Y75412D01*
X89083Y75413D01*
X89086Y75414D01*
X89087Y75415D01*
X89088D01*
X89073Y75423D01*
X89060Y75431D01*
X89049Y75441D01*
X89039Y75449D01*
X89032Y75456D01*
X89026Y75463D01*
X89024Y75467D01*
X89023Y75468D01*
X89015Y75481D01*
X89010Y75494D01*
X89005Y75507D01*
X89002Y75519D01*
X89001Y75529D01*
X89000Y75537D01*
Y75542D01*
Y75544D01*
X89001Y75560D01*
X89003Y75576D01*
X89007Y75590D01*
X89012Y75602D01*
X89016Y75612D01*
X89020Y75620D01*
X89023Y75625D01*
X89024Y75627D01*
X89033Y75640D01*
X89044Y75652D01*
X89055Y75663D01*
X89066Y75672D01*
X89075Y75678D01*
X89084Y75684D01*
X89089Y75687D01*
X89090Y75688D01*
X89091D01*
X89108Y75695D01*
X89124Y75700D01*
X89141Y75705D01*
X89156Y75708D01*
X89168Y75710D01*
X89178Y75711D01*
X89201D01*
X89214Y75709D01*
D02*
G37*
G36*
X90000Y75068D02*
X89915D01*
Y75352D01*
X89806D01*
X89796Y75351D01*
X89788D01*
X89782Y75350D01*
X89777Y75349D01*
X89773D01*
X89772Y75348D01*
X89771D01*
X89756Y75344D01*
X89749Y75341D01*
X89744Y75338D01*
X89738Y75335D01*
X89735Y75333D01*
X89733Y75333D01*
X89732Y75332D01*
X89724Y75326D01*
X89717Y75320D01*
X89703Y75306D01*
X89697Y75299D01*
X89692Y75294D01*
X89689Y75290D01*
X89688Y75289D01*
X89679Y75276D01*
X89669Y75262D01*
X89659Y75247D01*
X89649Y75234D01*
X89640Y75221D01*
X89634Y75210D01*
X89631Y75207D01*
X89629Y75204D01*
X89627Y75202D01*
Y75201D01*
X89543Y75068D01*
X89438D01*
X89548Y75242D01*
X89561Y75260D01*
X89573Y75277D01*
X89585Y75291D01*
X89595Y75304D01*
X89604Y75313D01*
X89612Y75320D01*
X89616Y75325D01*
X89618Y75327D01*
X89626Y75333D01*
X89634Y75339D01*
X89651Y75349D01*
X89658Y75353D01*
X89663Y75357D01*
X89667Y75358D01*
X89669Y75359D01*
X89652Y75362D01*
X89637Y75365D01*
X89623Y75369D01*
X89609Y75373D01*
X89597Y75378D01*
X89586Y75383D01*
X89576Y75388D01*
X89566Y75393D01*
X89559Y75398D01*
X89552Y75403D01*
X89546Y75406D01*
X89541Y75410D01*
X89538Y75413D01*
X89535Y75416D01*
X89534Y75417D01*
X89533Y75418D01*
X89526Y75427D01*
X89518Y75436D01*
X89507Y75455D01*
X89500Y75475D01*
X89494Y75493D01*
X89491Y75509D01*
X89490Y75516D01*
Y75522D01*
X89489Y75527D01*
Y75530D01*
Y75532D01*
Y75533D01*
X89490Y75553D01*
X89492Y75570D01*
X89497Y75587D01*
X89502Y75601D01*
X89507Y75613D01*
X89511Y75622D01*
X89515Y75627D01*
X89516Y75628D01*
Y75629D01*
X89527Y75644D01*
X89538Y75657D01*
X89550Y75668D01*
X89561Y75676D01*
X89571Y75683D01*
X89579Y75687D01*
X89585Y75689D01*
X89586Y75690D01*
X89587D01*
X89595Y75693D01*
X89605Y75696D01*
X89626Y75700D01*
X89648Y75703D01*
X89668Y75706D01*
X89688Y75707D01*
X89696D01*
X89703Y75708D01*
X90000D01*
Y75068D01*
D02*
G37*
G36*
X116792Y44998D02*
X116824Y44994D01*
X116853Y44990D01*
X116867Y44986D01*
X116879Y44983D01*
X116890Y44981D01*
X116900Y44977D01*
X116909Y44974D01*
X116916Y44972D01*
X116922Y44970D01*
X116927Y44969D01*
X116929Y44967D01*
X116930D01*
X116958Y44953D01*
X116983Y44937D01*
X117004Y44921D01*
X117013Y44912D01*
X117021Y44905D01*
X117028Y44897D01*
X117035Y44890D01*
X117040Y44884D01*
X117044Y44878D01*
X117048Y44874D01*
X117051Y44871D01*
X117051Y44869D01*
X117052Y44868D01*
X117060Y44855D01*
X117066Y44842D01*
X117076Y44814D01*
X117084Y44786D01*
X117088Y44760D01*
X117090Y44747D01*
X117092Y44736D01*
X117093Y44725D01*
Y44717D01*
X117094Y44710D01*
Y44700D01*
X117093Y44681D01*
X117091Y44663D01*
X117089Y44647D01*
X117086Y44631D01*
X117081Y44616D01*
X117076Y44602D01*
X117072Y44590D01*
X117066Y44577D01*
X117062Y44567D01*
X117057Y44557D01*
X117052Y44550D01*
X117048Y44542D01*
X117044Y44538D01*
X117042Y44533D01*
X117040Y44531D01*
X117039Y44530D01*
X117028Y44517D01*
X117017Y44506D01*
X117004Y44496D01*
X116991Y44486D01*
X116965Y44469D01*
X116940Y44456D01*
X116928Y44451D01*
X116916Y44446D01*
X116906Y44443D01*
X116898Y44440D01*
X116891Y44437D01*
X116885Y44435D01*
X116881Y44434D01*
X116880D01*
X116859Y44519D01*
X116874Y44523D01*
X116888Y44528D01*
X116901Y44532D01*
X116913Y44537D01*
X116924Y44542D01*
X116933Y44548D01*
X116942Y44554D01*
X116951Y44560D01*
X116958Y44565D01*
X116964Y44570D01*
X116969Y44575D01*
X116974Y44578D01*
X116977Y44582D01*
X116979Y44585D01*
X116980Y44586D01*
X116981Y44587D01*
X116989Y44596D01*
X116994Y44606D01*
X117004Y44626D01*
X117012Y44646D01*
X117016Y44665D01*
X117020Y44682D01*
X117021Y44688D01*
Y44695D01*
X117022Y44700D01*
Y44707D01*
X117021Y44728D01*
X117017Y44749D01*
X117013Y44767D01*
X117007Y44784D01*
X117002Y44797D01*
X116999Y44802D01*
X116997Y44807D01*
X116995Y44810D01*
X116993Y44813D01*
X116992Y44815D01*
Y44816D01*
X116979Y44834D01*
X116965Y44848D01*
X116950Y44861D01*
X116935Y44871D01*
X116922Y44880D01*
X116911Y44885D01*
X116906Y44887D01*
X116904Y44889D01*
X116902Y44890D01*
X116901D01*
X116877Y44897D01*
X116853Y44903D01*
X116829Y44908D01*
X116806Y44910D01*
X116796Y44911D01*
X116787Y44912D01*
X116779D01*
X116772Y44913D01*
X116767D01*
X116762D01*
X116759D01*
X116758D01*
X116734Y44912D01*
X116712Y44910D01*
X116692Y44907D01*
X116673Y44903D01*
X116658Y44900D01*
X116651Y44898D01*
X116646Y44896D01*
X116641Y44896D01*
X116638Y44895D01*
X116636Y44894D01*
X116635D01*
X116614Y44884D01*
X116595Y44874D01*
X116579Y44863D01*
X116565Y44851D01*
X116554Y44841D01*
X116547Y44833D01*
X116542Y44826D01*
X116540Y44825D01*
Y44824D01*
X116528Y44805D01*
X116519Y44784D01*
X116512Y44763D01*
X116509Y44744D01*
X116506Y44726D01*
X116505Y44719D01*
Y44712D01*
X116504Y44708D01*
Y44700D01*
X116505Y44677D01*
X116509Y44656D01*
X116514Y44639D01*
X116520Y44623D01*
X116526Y44611D01*
X116531Y44602D01*
X116535Y44596D01*
X116536Y44594D01*
X116550Y44579D01*
X116566Y44565D01*
X116583Y44554D01*
X116599Y44545D01*
X116614Y44538D01*
X116622Y44535D01*
X116627Y44533D01*
X116632Y44531D01*
X116635Y44529D01*
X116637Y44528D01*
X116638D01*
X116619Y44445D01*
X116602Y44451D01*
X116587Y44456D01*
X116573Y44464D01*
X116560Y44470D01*
X116548Y44478D01*
X116536Y44486D01*
X116525Y44493D01*
X116516Y44501D01*
X116509Y44508D01*
X116501Y44515D01*
X116495Y44521D01*
X116490Y44526D01*
X116486Y44530D01*
X116483Y44534D01*
X116482Y44536D01*
X116481Y44537D01*
X116473Y44550D01*
X116464Y44563D01*
X116458Y44576D01*
X116452Y44590D01*
X116444Y44617D01*
X116438Y44642D01*
X116436Y44654D01*
X116435Y44664D01*
X116434Y44675D01*
X116433Y44683D01*
X116432Y44689D01*
Y44699D01*
X116434Y44729D01*
X116438Y44759D01*
X116444Y44785D01*
X116448Y44797D01*
X116451Y44808D01*
X116455Y44818D01*
X116459Y44827D01*
X116462Y44835D01*
X116464Y44842D01*
X116467Y44847D01*
X116469Y44850D01*
X116470Y44853D01*
X116471Y44854D01*
X116487Y44879D01*
X116505Y44900D01*
X116524Y44919D01*
X116542Y44934D01*
X116559Y44946D01*
X116566Y44951D01*
X116573Y44955D01*
X116577Y44958D01*
X116581Y44960D01*
X116584Y44961D01*
X116585Y44962D01*
X116613Y44975D01*
X116643Y44984D01*
X116672Y44991D01*
X116699Y44995D01*
X116711Y44997D01*
X116723Y44998D01*
X116733Y44999D01*
X116742D01*
X116748Y45000D01*
X116754D01*
X116757D01*
X116758D01*
X116792Y44998D01*
D02*
G37*
G36*
X116929Y44359D02*
X116942Y44357D01*
X116968Y44348D01*
X116990Y44338D01*
X117000Y44332D01*
X117009Y44327D01*
X117017Y44321D01*
X117024Y44316D01*
X117030Y44311D01*
X117035Y44307D01*
X117039Y44304D01*
X117041Y44301D01*
X117043Y44299D01*
X117044Y44298D01*
X117052Y44287D01*
X117061Y44276D01*
X117067Y44265D01*
X117073Y44253D01*
X117082Y44230D01*
X117088Y44208D01*
X117089Y44197D01*
X117091Y44188D01*
X117092Y44180D01*
X117093Y44173D01*
X117094Y44167D01*
Y44159D01*
X117093Y44141D01*
X117091Y44125D01*
X117088Y44110D01*
X117085Y44095D01*
X117080Y44081D01*
X117076Y44069D01*
X117070Y44057D01*
X117064Y44047D01*
X117060Y44037D01*
X117054Y44028D01*
X117050Y44021D01*
X117045Y44015D01*
X117041Y44011D01*
X117039Y44007D01*
X117037Y44005D01*
X117036Y44004D01*
X117025Y43993D01*
X117013Y43984D01*
X117001Y43976D01*
X116989Y43968D01*
X116978Y43963D01*
X116965Y43957D01*
X116943Y43950D01*
X116933Y43948D01*
X116924Y43946D01*
X116916Y43944D01*
X116908Y43943D01*
X116903Y43942D01*
X116898D01*
X116895D01*
X116894D01*
X116872Y43943D01*
X116852Y43947D01*
X116834Y43952D01*
X116819Y43958D01*
X116807Y43964D01*
X116798Y43969D01*
X116793Y43973D01*
X116791Y43974D01*
X116777Y43987D01*
X116765Y44001D01*
X116756Y44015D01*
X116748Y44030D01*
X116743Y44043D01*
X116739Y44053D01*
X116738Y44057D01*
X116737Y44060D01*
X116736Y44062D01*
Y44063D01*
X116728Y44047D01*
X116720Y44034D01*
X116710Y44023D01*
X116702Y44014D01*
X116695Y44006D01*
X116688Y44001D01*
X116684Y43998D01*
X116683Y43997D01*
X116670Y43989D01*
X116657Y43984D01*
X116644Y43979D01*
X116632Y43977D01*
X116622Y43975D01*
X116614Y43974D01*
X116609D01*
X116607D01*
X116591Y43975D01*
X116575Y43977D01*
X116561Y43981D01*
X116549Y43986D01*
X116539Y43990D01*
X116531Y43994D01*
X116526Y43997D01*
X116524Y43998D01*
X116511Y44007D01*
X116499Y44018D01*
X116488Y44029D01*
X116479Y44040D01*
X116473Y44050D01*
X116467Y44058D01*
X116464Y44063D01*
X116463Y44064D01*
Y44065D01*
X116456Y44082D01*
X116451Y44099D01*
X116446Y44115D01*
X116443Y44130D01*
X116441Y44142D01*
X116440Y44152D01*
Y44175D01*
X116442Y44188D01*
X116447Y44213D01*
X116454Y44234D01*
X116462Y44253D01*
X116466Y44261D01*
X116470Y44268D01*
X116474Y44274D01*
X116477Y44279D01*
X116480Y44283D01*
X116482Y44285D01*
X116483Y44287D01*
X116484Y44288D01*
X116501Y44306D01*
X116521Y44320D01*
X116541Y44331D01*
X116561Y44340D01*
X116579Y44345D01*
X116586Y44348D01*
X116593Y44350D01*
X116598Y44351D01*
X116602Y44352D01*
X116605Y44353D01*
X116606D01*
X116620Y44274D01*
X116599Y44271D01*
X116582Y44265D01*
X116567Y44259D01*
X116555Y44252D01*
X116546Y44246D01*
X116539Y44240D01*
X116535Y44236D01*
X116534Y44235D01*
X116524Y44223D01*
X116517Y44210D01*
X116512Y44198D01*
X116509Y44186D01*
X116507Y44175D01*
X116505Y44167D01*
Y44160D01*
X116506Y44143D01*
X116510Y44128D01*
X116514Y44115D01*
X116519Y44104D01*
X116524Y44096D01*
X116529Y44089D01*
X116533Y44085D01*
X116534Y44084D01*
X116545Y44074D01*
X116557Y44066D01*
X116569Y44062D01*
X116580Y44058D01*
X116590Y44056D01*
X116598Y44054D01*
X116603D01*
X116604D01*
X116605D01*
X116615D01*
X116624Y44056D01*
X116640Y44061D01*
X116654Y44067D01*
X116666Y44075D01*
X116674Y44082D01*
X116681Y44088D01*
X116684Y44093D01*
X116685Y44094D01*
Y44095D01*
X116694Y44111D01*
X116700Y44125D01*
X116705Y44141D01*
X116708Y44155D01*
X116709Y44167D01*
X116711Y44177D01*
Y44189D01*
X116710Y44193D01*
Y44197D01*
X116780Y44207D01*
X116777Y44195D01*
X116775Y44184D01*
X116773Y44174D01*
X116772Y44166D01*
X116771Y44160D01*
Y44151D01*
X116773Y44132D01*
X116777Y44114D01*
X116782Y44099D01*
X116789Y44086D01*
X116795Y44075D01*
X116801Y44068D01*
X116805Y44063D01*
X116806Y44062D01*
X116820Y44050D01*
X116835Y44040D01*
X116850Y44034D01*
X116865Y44030D01*
X116877Y44027D01*
X116887Y44026D01*
X116891Y44026D01*
X116893D01*
X116895D01*
X116896D01*
X116916Y44027D01*
X116935Y44032D01*
X116951Y44038D01*
X116965Y44045D01*
X116976Y44052D01*
X116984Y44058D01*
X116990Y44063D01*
X116991Y44064D01*
X117004Y44079D01*
X117014Y44095D01*
X117020Y44111D01*
X117025Y44125D01*
X117027Y44138D01*
X117028Y44148D01*
X117029Y44152D01*
Y44158D01*
X117028Y44174D01*
X117025Y44190D01*
X117020Y44204D01*
X117015Y44215D01*
X117010Y44224D01*
X117005Y44232D01*
X117002Y44235D01*
X117001Y44237D01*
X116988Y44248D01*
X116973Y44258D01*
X116957Y44266D01*
X116941Y44272D01*
X116927Y44277D01*
X116920Y44279D01*
X116915Y44280D01*
X116910Y44281D01*
X116906Y44282D01*
X116904Y44283D01*
X116904D01*
X116914Y44361D01*
X116929Y44359D01*
D02*
G37*
G36*
X116823Y90968D02*
X117237D01*
Y90904D01*
X116823Y90611D01*
X116751D01*
Y90889D01*
X116597D01*
Y90968D01*
X116751D01*
Y91055D01*
X116823D01*
Y90968D01*
D02*
G37*
G36*
X116821Y90481D02*
X116806Y90477D01*
X116792Y90472D01*
X116779Y90468D01*
X116767Y90463D01*
X116756Y90458D01*
X116747Y90452D01*
X116738Y90446D01*
X116729Y90440D01*
X116722Y90435D01*
X116716Y90430D01*
X116711Y90425D01*
X116706Y90422D01*
X116703Y90418D01*
X116701Y90415D01*
X116700Y90414D01*
X116699Y90413D01*
X116691Y90404D01*
X116686Y90394D01*
X116676Y90374D01*
X116668Y90354D01*
X116664Y90335D01*
X116660Y90318D01*
X116659Y90312D01*
Y90305D01*
X116658Y90300D01*
Y90293D01*
X116659Y90272D01*
X116663Y90251D01*
X116667Y90233D01*
X116673Y90216D01*
X116678Y90203D01*
X116681Y90198D01*
X116683Y90193D01*
X116685Y90190D01*
X116687Y90187D01*
X116688Y90185D01*
Y90184D01*
X116701Y90166D01*
X116715Y90152D01*
X116730Y90139D01*
X116745Y90129D01*
X116758Y90120D01*
X116769Y90115D01*
X116774Y90113D01*
X116776Y90111D01*
X116778Y90110D01*
X116779D01*
X116803Y90103D01*
X116827Y90097D01*
X116851Y90092D01*
X116874Y90090D01*
X116884Y90089D01*
X116893Y90088D01*
X116901D01*
X116908Y90087D01*
X116913D01*
X116918D01*
X116921D01*
X116922D01*
X116946Y90088D01*
X116968Y90090D01*
X116988Y90093D01*
X117007Y90097D01*
X117022Y90100D01*
X117029Y90102D01*
X117034Y90104D01*
X117039Y90104D01*
X117042Y90105D01*
X117044Y90106D01*
X117045D01*
X117066Y90116D01*
X117085Y90126D01*
X117101Y90137D01*
X117115Y90149D01*
X117126Y90159D01*
X117133Y90167D01*
X117138Y90174D01*
X117140Y90175D01*
Y90176D01*
X117152Y90195D01*
X117161Y90216D01*
X117168Y90237D01*
X117171Y90256D01*
X117174Y90274D01*
X117175Y90281D01*
Y90288D01*
X117176Y90292D01*
Y90300D01*
X117175Y90323D01*
X117171Y90344D01*
X117166Y90361D01*
X117160Y90377D01*
X117154Y90389D01*
X117149Y90398D01*
X117145Y90404D01*
X117144Y90406D01*
X117130Y90421D01*
X117114Y90435D01*
X117097Y90446D01*
X117081Y90455D01*
X117066Y90462D01*
X117058Y90465D01*
X117053Y90467D01*
X117048Y90469D01*
X117045Y90471D01*
X117043Y90472D01*
X117042D01*
X117061Y90555D01*
X117078Y90549D01*
X117093Y90544D01*
X117107Y90536D01*
X117120Y90530D01*
X117132Y90522D01*
X117144Y90514D01*
X117155Y90507D01*
X117164Y90499D01*
X117171Y90492D01*
X117179Y90485D01*
X117185Y90479D01*
X117190Y90474D01*
X117194Y90470D01*
X117197Y90466D01*
X117198Y90464D01*
X117199Y90463D01*
X117207Y90450D01*
X117216Y90437D01*
X117222Y90424D01*
X117228Y90410D01*
X117236Y90383D01*
X117242Y90358D01*
X117244Y90346D01*
X117245Y90336D01*
X117246Y90325D01*
X117247Y90317D01*
X117248Y90311D01*
Y90301D01*
X117246Y90271D01*
X117242Y90241D01*
X117236Y90215D01*
X117232Y90203D01*
X117229Y90192D01*
X117225Y90182D01*
X117221Y90173D01*
X117218Y90165D01*
X117216Y90158D01*
X117213Y90153D01*
X117211Y90150D01*
X117210Y90147D01*
X117209Y90146D01*
X117193Y90121D01*
X117175Y90100D01*
X117156Y90081D01*
X117138Y90066D01*
X117121Y90054D01*
X117114Y90049D01*
X117107Y90045D01*
X117103Y90042D01*
X117099Y90040D01*
X117096Y90039D01*
X117095Y90038D01*
X117067Y90025D01*
X117037Y90016D01*
X117008Y90009D01*
X116981Y90005D01*
X116969Y90003D01*
X116957Y90002D01*
X116947Y90001D01*
X116938D01*
X116932Y90000D01*
X116926D01*
X116923D01*
X116922D01*
X116888Y90002D01*
X116856Y90006D01*
X116827Y90010D01*
X116813Y90014D01*
X116801Y90017D01*
X116790Y90019D01*
X116780Y90023D01*
X116771Y90026D01*
X116764Y90028D01*
X116758Y90031D01*
X116753Y90031D01*
X116751Y90033D01*
X116750D01*
X116722Y90047D01*
X116697Y90063D01*
X116676Y90079D01*
X116667Y90088D01*
X116659Y90095D01*
X116652Y90103D01*
X116645Y90110D01*
X116640Y90116D01*
X116636Y90122D01*
X116632Y90126D01*
X116629Y90129D01*
X116629Y90131D01*
X116628Y90132D01*
X116620Y90145D01*
X116614Y90158D01*
X116604Y90186D01*
X116596Y90214D01*
X116592Y90240D01*
X116590Y90253D01*
X116588Y90264D01*
X116587Y90275D01*
Y90283D01*
X116586Y90290D01*
Y90300D01*
X116587Y90319D01*
X116589Y90337D01*
X116591Y90353D01*
X116594Y90369D01*
X116599Y90384D01*
X116604Y90398D01*
X116608Y90410D01*
X116614Y90423D01*
X116618Y90433D01*
X116623Y90443D01*
X116628Y90450D01*
X116632Y90458D01*
X116636Y90462D01*
X116638Y90467D01*
X116640Y90469D01*
X116641Y90470D01*
X116652Y90483D01*
X116663Y90494D01*
X116676Y90504D01*
X116689Y90514D01*
X116715Y90531D01*
X116740Y90544D01*
X116752Y90549D01*
X116764Y90554D01*
X116774Y90557D01*
X116782Y90560D01*
X116789Y90563D01*
X116795Y90565D01*
X116799Y90566D01*
X116800D01*
X116821Y90481D01*
D02*
G37*
G36*
X116284Y74998D02*
X116316Y74994D01*
X116345Y74990D01*
X116359Y74986D01*
X116371Y74983D01*
X116382Y74981D01*
X116392Y74977D01*
X116401Y74974D01*
X116408Y74972D01*
X116414Y74969D01*
X116419Y74969D01*
X116421Y74967D01*
X116422D01*
X116450Y74953D01*
X116475Y74937D01*
X116496Y74921D01*
X116505Y74912D01*
X116513Y74905D01*
X116520Y74897D01*
X116527Y74890D01*
X116532Y74884D01*
X116536Y74878D01*
X116540Y74874D01*
X116543Y74871D01*
X116543Y74869D01*
X116544Y74868D01*
X116552Y74855D01*
X116558Y74842D01*
X116568Y74814D01*
X116576Y74786D01*
X116580Y74760D01*
X116582Y74747D01*
X116584Y74736D01*
X116585Y74725D01*
Y74717D01*
X116586Y74710D01*
Y74700D01*
X116585Y74681D01*
X116583Y74663D01*
X116581Y74647D01*
X116578Y74631D01*
X116573Y74616D01*
X116568Y74602D01*
X116564Y74590D01*
X116558Y74577D01*
X116554Y74567D01*
X116549Y74557D01*
X116544Y74550D01*
X116540Y74542D01*
X116536Y74538D01*
X116534Y74533D01*
X116532Y74531D01*
X116531Y74530D01*
X116520Y74517D01*
X116509Y74506D01*
X116496Y74496D01*
X116483Y74486D01*
X116457Y74469D01*
X116432Y74456D01*
X116420Y74451D01*
X116408Y74446D01*
X116398Y74442D01*
X116390Y74440D01*
X116383Y74437D01*
X116377Y74435D01*
X116373Y74434D01*
X116372D01*
X116351Y74519D01*
X116366Y74523D01*
X116380Y74528D01*
X116393Y74532D01*
X116405Y74537D01*
X116416Y74542D01*
X116425Y74548D01*
X116434Y74554D01*
X116443Y74560D01*
X116450Y74565D01*
X116456Y74570D01*
X116461Y74575D01*
X116466Y74578D01*
X116469Y74582D01*
X116471Y74585D01*
X116472Y74586D01*
X116473Y74587D01*
X116481Y74596D01*
X116486Y74606D01*
X116496Y74626D01*
X116504Y74646D01*
X116508Y74665D01*
X116512Y74682D01*
X116513Y74688D01*
Y74695D01*
X116514Y74700D01*
Y74707D01*
X116513Y74728D01*
X116509Y74749D01*
X116505Y74767D01*
X116499Y74784D01*
X116494Y74797D01*
X116491Y74802D01*
X116489Y74807D01*
X116487Y74810D01*
X116485Y74813D01*
X116484Y74815D01*
Y74816D01*
X116471Y74834D01*
X116457Y74848D01*
X116442Y74861D01*
X116427Y74871D01*
X116414Y74880D01*
X116403Y74885D01*
X116398Y74887D01*
X116396Y74889D01*
X116394Y74890D01*
X116393D01*
X116369Y74897D01*
X116345Y74903D01*
X116321Y74908D01*
X116298Y74910D01*
X116288Y74911D01*
X116279Y74912D01*
X116271D01*
X116264Y74913D01*
X116259D01*
X116254D01*
X116251D01*
X116250D01*
X116226Y74912D01*
X116204Y74910D01*
X116184Y74907D01*
X116165Y74903D01*
X116150Y74900D01*
X116143Y74898D01*
X116138Y74896D01*
X116133Y74896D01*
X116130Y74895D01*
X116128Y74894D01*
X116127D01*
X116106Y74884D01*
X116087Y74874D01*
X116071Y74863D01*
X116057Y74851D01*
X116046Y74841D01*
X116039Y74833D01*
X116034Y74826D01*
X116032Y74825D01*
Y74824D01*
X116020Y74805D01*
X116011Y74784D01*
X116004Y74763D01*
X116001Y74744D01*
X115998Y74726D01*
X115997Y74719D01*
Y74712D01*
X115996Y74708D01*
Y74700D01*
X115997Y74677D01*
X116001Y74656D01*
X116006Y74639D01*
X116012Y74623D01*
X116018Y74611D01*
X116023Y74602D01*
X116027Y74596D01*
X116029Y74594D01*
X116042Y74579D01*
X116058Y74565D01*
X116075Y74554D01*
X116091Y74545D01*
X116106Y74538D01*
X116114Y74535D01*
X116119Y74533D01*
X116124Y74531D01*
X116127Y74529D01*
X116129Y74528D01*
X116130D01*
X116111Y74445D01*
X116094Y74451D01*
X116079Y74456D01*
X116065Y74464D01*
X116052Y74470D01*
X116040Y74478D01*
X116029Y74486D01*
X116017Y74493D01*
X116008Y74501D01*
X116001Y74508D01*
X115993Y74515D01*
X115987Y74521D01*
X115982Y74526D01*
X115978Y74530D01*
X115975Y74534D01*
X115974Y74536D01*
X115973Y74537D01*
X115965Y74550D01*
X115956Y74563D01*
X115950Y74576D01*
X115944Y74590D01*
X115936Y74617D01*
X115930Y74642D01*
X115928Y74654D01*
X115927Y74664D01*
X115926Y74675D01*
X115925Y74683D01*
X115924Y74689D01*
Y74699D01*
X115926Y74729D01*
X115930Y74759D01*
X115936Y74785D01*
X115940Y74797D01*
X115943Y74808D01*
X115947Y74818D01*
X115951Y74827D01*
X115954Y74835D01*
X115956Y74842D01*
X115959Y74847D01*
X115961Y74850D01*
X115962Y74853D01*
X115963Y74854D01*
X115979Y74879D01*
X115997Y74900D01*
X116016Y74919D01*
X116034Y74934D01*
X116051Y74946D01*
X116058Y74951D01*
X116065Y74955D01*
X116069Y74958D01*
X116073Y74960D01*
X116076Y74961D01*
X116077Y74962D01*
X116105Y74975D01*
X116135Y74984D01*
X116164Y74991D01*
X116191Y74995D01*
X116203Y74997D01*
X116215Y74998D01*
X116225Y74999D01*
X116234D01*
X116240Y75000D01*
X116246D01*
X116249D01*
X116250D01*
X116284Y74998D01*
D02*
G37*
G36*
X116163Y74288D02*
X116157Y74274D01*
X116151Y74260D01*
X116144Y74247D01*
X116139Y74236D01*
X116134Y74227D01*
X116130Y74222D01*
X116129Y74221D01*
Y74220D01*
X116119Y74203D01*
X116109Y74188D01*
X116100Y74175D01*
X116091Y74165D01*
X116085Y74156D01*
X116079Y74150D01*
X116076Y74146D01*
X116075Y74145D01*
X116575D01*
Y74066D01*
X115932D01*
Y74117D01*
X115948Y74126D01*
X115963Y74136D01*
X115978Y74148D01*
X115991Y74160D01*
X116002Y74171D01*
X116011Y74179D01*
X116014Y74183D01*
X116016Y74185D01*
X116017Y74186D01*
X116018Y74187D01*
X116034Y74207D01*
X116049Y74226D01*
X116062Y74245D01*
X116072Y74263D01*
X116081Y74279D01*
X116085Y74285D01*
X116088Y74291D01*
X116090Y74296D01*
X116091Y74299D01*
X116093Y74301D01*
Y74302D01*
X116169D01*
X116163Y74288D01*
D02*
G37*
G36*
X116030Y59998D02*
X116062Y59994D01*
X116091Y59990D01*
X116105Y59986D01*
X116117Y59983D01*
X116128Y59981D01*
X116138Y59977D01*
X116147Y59974D01*
X116154Y59972D01*
X116160Y59970D01*
X116165Y59969D01*
X116167Y59967D01*
X116168D01*
X116196Y59953D01*
X116221Y59937D01*
X116242Y59921D01*
X116251Y59912D01*
X116259Y59905D01*
X116266Y59897D01*
X116273Y59890D01*
X116278Y59884D01*
X116282Y59878D01*
X116286Y59874D01*
X116289Y59871D01*
X116289Y59869D01*
X116290Y59868D01*
X116298Y59855D01*
X116304Y59842D01*
X116314Y59814D01*
X116322Y59786D01*
X116326Y59760D01*
X116328Y59747D01*
X116330Y59736D01*
X116331Y59725D01*
Y59717D01*
X116332Y59710D01*
Y59700D01*
X116331Y59681D01*
X116329Y59663D01*
X116327Y59647D01*
X116324Y59631D01*
X116319Y59616D01*
X116314Y59602D01*
X116310Y59590D01*
X116304Y59577D01*
X116300Y59567D01*
X116295Y59557D01*
X116290Y59550D01*
X116286Y59542D01*
X116282Y59538D01*
X116280Y59533D01*
X116278Y59531D01*
X116277Y59530D01*
X116266Y59517D01*
X116255Y59506D01*
X116242Y59496D01*
X116229Y59486D01*
X116203Y59469D01*
X116178Y59456D01*
X116166Y59451D01*
X116154Y59446D01*
X116144Y59443D01*
X116136Y59440D01*
X116129Y59437D01*
X116123Y59435D01*
X116119Y59434D01*
X116118D01*
X116097Y59519D01*
X116112Y59523D01*
X116126Y59528D01*
X116139Y59532D01*
X116151Y59537D01*
X116162Y59542D01*
X116171Y59548D01*
X116180Y59554D01*
X116189Y59560D01*
X116196Y59565D01*
X116202Y59570D01*
X116207Y59575D01*
X116212Y59578D01*
X116215Y59582D01*
X116217Y59585D01*
X116218Y59586D01*
X116219Y59587D01*
X116227Y59596D01*
X116232Y59606D01*
X116242Y59626D01*
X116250Y59646D01*
X116254Y59665D01*
X116258Y59682D01*
X116259Y59688D01*
Y59695D01*
X116260Y59700D01*
Y59707D01*
X116259Y59728D01*
X116255Y59749D01*
X116251Y59767D01*
X116245Y59784D01*
X116240Y59797D01*
X116237Y59802D01*
X116235Y59807D01*
X116233Y59810D01*
X116231Y59813D01*
X116230Y59815D01*
Y59816D01*
X116217Y59834D01*
X116203Y59848D01*
X116188Y59861D01*
X116173Y59871D01*
X116160Y59880D01*
X116149Y59885D01*
X116144Y59887D01*
X116142Y59889D01*
X116140Y59890D01*
X116139D01*
X116115Y59897D01*
X116091Y59903D01*
X116067Y59908D01*
X116044Y59910D01*
X116034Y59911D01*
X116025Y59912D01*
X116017D01*
X116010Y59913D01*
X116005D01*
X116000D01*
X115997D01*
X115996D01*
X115972Y59912D01*
X115950Y59910D01*
X115930Y59907D01*
X115911Y59903D01*
X115896Y59900D01*
X115889Y59898D01*
X115884Y59896D01*
X115879Y59896D01*
X115876Y59895D01*
X115874Y59894D01*
X115873D01*
X115852Y59884D01*
X115833Y59874D01*
X115817Y59863D01*
X115803Y59851D01*
X115792Y59841D01*
X115785Y59833D01*
X115780Y59826D01*
X115778Y59825D01*
Y59824D01*
X115766Y59805D01*
X115757Y59784D01*
X115750Y59763D01*
X115747Y59744D01*
X115744Y59726D01*
X115743Y59719D01*
Y59712D01*
X115742Y59708D01*
Y59700D01*
X115743Y59677D01*
X115747Y59656D01*
X115752Y59639D01*
X115758Y59623D01*
X115764Y59611D01*
X115769Y59602D01*
X115773Y59596D01*
X115774Y59594D01*
X115788Y59579D01*
X115804Y59565D01*
X115821Y59554D01*
X115837Y59545D01*
X115852Y59538D01*
X115860Y59535D01*
X115865Y59533D01*
X115870Y59531D01*
X115873Y59529D01*
X115875Y59528D01*
X115876D01*
X115857Y59445D01*
X115840Y59451D01*
X115825Y59456D01*
X115811Y59464D01*
X115798Y59470D01*
X115786Y59478D01*
X115774Y59486D01*
X115763Y59493D01*
X115754Y59501D01*
X115747Y59508D01*
X115739Y59515D01*
X115733Y59521D01*
X115728Y59526D01*
X115724Y59530D01*
X115721Y59534D01*
X115720Y59536D01*
X115719Y59537D01*
X115711Y59550D01*
X115702Y59563D01*
X115696Y59576D01*
X115690Y59590D01*
X115682Y59617D01*
X115676Y59642D01*
X115674Y59654D01*
X115673Y59664D01*
X115672Y59675D01*
X115671Y59683D01*
X115670Y59689D01*
Y59699D01*
X115672Y59729D01*
X115676Y59759D01*
X115682Y59785D01*
X115686Y59797D01*
X115689Y59808D01*
X115693Y59818D01*
X115697Y59827D01*
X115700Y59835D01*
X115702Y59842D01*
X115705Y59847D01*
X115707Y59850D01*
X115708Y59853D01*
X115709Y59854D01*
X115725Y59879D01*
X115743Y59900D01*
X115762Y59919D01*
X115780Y59934D01*
X115797Y59946D01*
X115804Y59951D01*
X115811Y59955D01*
X115815Y59958D01*
X115819Y59960D01*
X115822Y59961D01*
X115823Y59962D01*
X115851Y59975D01*
X115881Y59984D01*
X115910Y59991D01*
X115937Y59995D01*
X115949Y59997D01*
X115961Y59998D01*
X115971Y59999D01*
X115980D01*
X115986Y60000D01*
X115992D01*
X115995D01*
X115996D01*
X116030Y59998D01*
D02*
G37*
G36*
X116321Y58949D02*
X116245D01*
Y59264D01*
X116229Y59253D01*
X116223Y59247D01*
X116216Y59243D01*
X116211Y59238D01*
X116207Y59234D01*
X116204Y59232D01*
X116203Y59231D01*
X116199Y59226D01*
X116194Y59221D01*
X116182Y59208D01*
X116168Y59193D01*
X116154Y59177D01*
X116142Y59162D01*
X116137Y59156D01*
X116131Y59150D01*
X116128Y59146D01*
X116125Y59142D01*
X116123Y59140D01*
X116122Y59139D01*
X116109Y59124D01*
X116097Y59110D01*
X116085Y59097D01*
X116075Y59085D01*
X116065Y59074D01*
X116056Y59064D01*
X116047Y59055D01*
X116040Y59048D01*
X116032Y59040D01*
X116027Y59035D01*
X116022Y59030D01*
X116018Y59026D01*
X116012Y59021D01*
X116010Y59019D01*
X115995Y59006D01*
X115981Y58995D01*
X115967Y58986D01*
X115956Y58978D01*
X115946Y58973D01*
X115938Y58969D01*
X115934Y58967D01*
X115932Y58966D01*
X115918Y58961D01*
X115904Y58957D01*
X115891Y58953D01*
X115880Y58952D01*
X115870Y58951D01*
X115862Y58950D01*
X115858D01*
X115856D01*
X115842Y58951D01*
X115829Y58952D01*
X115816Y58954D01*
X115805Y58958D01*
X115783Y58967D01*
X115765Y58977D01*
X115757Y58982D01*
X115750Y58987D01*
X115744Y58991D01*
X115739Y58996D01*
X115736Y59000D01*
X115732Y59001D01*
X115731Y59003D01*
X115730Y59004D01*
X115721Y59014D01*
X115713Y59026D01*
X115706Y59038D01*
X115701Y59050D01*
X115691Y59074D01*
X115685Y59098D01*
X115683Y59108D01*
X115681Y59118D01*
X115680Y59127D01*
X115679Y59135D01*
X115678Y59141D01*
Y59150D01*
X115679Y59167D01*
X115680Y59183D01*
X115683Y59197D01*
X115686Y59211D01*
X115689Y59224D01*
X115693Y59236D01*
X115698Y59247D01*
X115702Y59258D01*
X115707Y59267D01*
X115712Y59274D01*
X115715Y59281D01*
X115719Y59286D01*
X115722Y59291D01*
X115725Y59294D01*
X115726Y59295D01*
X115726Y59296D01*
X115736Y59306D01*
X115746Y59314D01*
X115757Y59322D01*
X115768Y59329D01*
X115790Y59340D01*
X115812Y59347D01*
X115823Y59350D01*
X115833Y59353D01*
X115841Y59355D01*
X115848Y59357D01*
X115855Y59357D01*
X115860D01*
X115862Y59358D01*
X115863D01*
X115872Y59278D01*
X115850Y59276D01*
X115832Y59272D01*
X115815Y59267D01*
X115802Y59260D01*
X115791Y59255D01*
X115784Y59249D01*
X115779Y59246D01*
X115777Y59244D01*
X115766Y59230D01*
X115758Y59215D01*
X115751Y59199D01*
X115748Y59185D01*
X115745Y59173D01*
X115744Y59161D01*
X115743Y59158D01*
Y59152D01*
X115744Y59133D01*
X115748Y59115D01*
X115753Y59100D01*
X115759Y59087D01*
X115765Y59077D01*
X115770Y59071D01*
X115774Y59066D01*
X115775Y59064D01*
X115788Y59053D01*
X115801Y59045D01*
X115814Y59038D01*
X115827Y59035D01*
X115837Y59032D01*
X115847Y59031D01*
X115852Y59030D01*
X115853D01*
X115854D01*
X115871Y59032D01*
X115888Y59036D01*
X115904Y59042D01*
X115919Y59049D01*
X115931Y59056D01*
X115941Y59063D01*
X115945Y59064D01*
X115947Y59066D01*
X115948Y59068D01*
X115949D01*
X115959Y59075D01*
X115970Y59085D01*
X115981Y59095D01*
X115992Y59106D01*
X116014Y59129D01*
X116036Y59152D01*
X116046Y59164D01*
X116056Y59174D01*
X116064Y59185D01*
X116071Y59193D01*
X116077Y59199D01*
X116081Y59205D01*
X116084Y59209D01*
X116085Y59210D01*
X116105Y59233D01*
X116123Y59254D01*
X116140Y59271D01*
X116154Y59285D01*
X116166Y59297D01*
X116174Y59306D01*
X116179Y59310D01*
X116180Y59312D01*
X116181D01*
X116197Y59325D01*
X116212Y59335D01*
X116227Y59345D01*
X116240Y59352D01*
X116251Y59357D01*
X116259Y59361D01*
X116265Y59363D01*
X116265Y59364D01*
X116266D01*
X116277Y59368D01*
X116286Y59369D01*
X116295Y59371D01*
X116303Y59372D01*
X116311Y59373D01*
X116316D01*
X116320D01*
X116321D01*
Y58949D01*
D02*
G37*
G36*
X102000Y78613D02*
X101915D01*
Y78897D01*
X101806D01*
X101796Y78896D01*
X101788D01*
X101782Y78895D01*
X101777Y78894D01*
X101773D01*
X101772Y78893D01*
X101771D01*
X101756Y78889D01*
X101749Y78886D01*
X101744Y78883D01*
X101738Y78880D01*
X101735Y78878D01*
X101733Y78877D01*
X101732Y78876D01*
X101724Y78871D01*
X101717Y78864D01*
X101703Y78851D01*
X101697Y78844D01*
X101692Y78839D01*
X101689Y78835D01*
X101688Y78834D01*
X101679Y78821D01*
X101669Y78807D01*
X101659Y78792D01*
X101649Y78778D01*
X101640Y78766D01*
X101634Y78755D01*
X101631Y78752D01*
X101629Y78749D01*
X101627Y78747D01*
Y78746D01*
X101543Y78613D01*
X101438D01*
X101548Y78787D01*
X101561Y78805D01*
X101573Y78822D01*
X101585Y78836D01*
X101595Y78849D01*
X101604Y78858D01*
X101612Y78865D01*
X101616Y78870D01*
X101618Y78872D01*
X101626Y78877D01*
X101634Y78884D01*
X101651Y78894D01*
X101658Y78898D01*
X101663Y78901D01*
X101667Y78903D01*
X101669Y78904D01*
X101652Y78907D01*
X101637Y78910D01*
X101623Y78914D01*
X101609Y78918D01*
X101597Y78923D01*
X101586Y78928D01*
X101576Y78933D01*
X101566Y78938D01*
X101559Y78943D01*
X101552Y78948D01*
X101546Y78951D01*
X101541Y78955D01*
X101538Y78958D01*
X101535Y78961D01*
X101534Y78962D01*
X101533Y78962D01*
X101526Y78972D01*
X101518Y78981D01*
X101507Y79000D01*
X101500Y79020D01*
X101494Y79038D01*
X101491Y79054D01*
X101490Y79060D01*
Y79067D01*
X101489Y79072D01*
Y79075D01*
Y79077D01*
Y79078D01*
X101490Y79097D01*
X101492Y79115D01*
X101497Y79132D01*
X101502Y79146D01*
X101507Y79158D01*
X101511Y79167D01*
X101515Y79172D01*
X101516Y79173D01*
Y79174D01*
X101527Y79189D01*
X101538Y79202D01*
X101550Y79213D01*
X101561Y79221D01*
X101571Y79228D01*
X101579Y79232D01*
X101585Y79234D01*
X101586Y79235D01*
X101587D01*
X101595Y79238D01*
X101605Y79241D01*
X101626Y79245D01*
X101648Y79248D01*
X101668Y79251D01*
X101688Y79252D01*
X101696D01*
X101703Y79253D01*
X102000D01*
Y78613D01*
D02*
G37*
G36*
X101415Y78839D02*
Y78766D01*
X101136D01*
Y78613D01*
X101058D01*
Y78766D01*
X100971D01*
Y78839D01*
X101058D01*
Y79253D01*
X101122D01*
X101415Y78839D01*
D02*
G37*
%LPC*%
G36*
X104477Y75440D02*
X104476D01*
X104475D01*
X104464Y75439D01*
X104453Y75438D01*
X104444Y75435D01*
X104435Y75432D01*
X104428Y75428D01*
X104423Y75426D01*
X104419Y75424D01*
X104418Y75423D01*
X104409Y75416D01*
X104400Y75408D01*
X104394Y75400D01*
X104388Y75391D01*
X104385Y75384D01*
X104382Y75378D01*
X104380Y75375D01*
X104379Y75373D01*
X104375Y75360D01*
X104373Y75345D01*
X104371Y75330D01*
X104370Y75316D01*
X104369Y75303D01*
X104368Y75291D01*
Y75101D01*
X104580D01*
Y75303D01*
X104579Y75328D01*
X104575Y75349D01*
X104570Y75367D01*
X104565Y75381D01*
X104559Y75393D01*
X104555Y75401D01*
X104551Y75405D01*
X104550Y75407D01*
X104538Y75418D01*
X104526Y75426D01*
X104513Y75432D01*
X104502Y75437D01*
X104491Y75439D01*
X104483Y75439D01*
X104477Y75440D01*
D02*
G37*
G36*
X89915Y45580D02*
X89713D01*
X89688Y45579D01*
X89667Y45575D01*
X89649Y45570D01*
X89635Y45565D01*
X89623Y45559D01*
X89615Y45555D01*
X89611Y45551D01*
X89609Y45550D01*
X89598Y45538D01*
X89590Y45526D01*
X89584Y45513D01*
X89579Y45502D01*
X89577Y45491D01*
X89577Y45483D01*
X89576Y45477D01*
Y45476D01*
Y45475D01*
X89577Y45464D01*
X89578Y45453D01*
X89581Y45444D01*
X89584Y45435D01*
X89588Y45428D01*
X89590Y45423D01*
X89592Y45419D01*
X89593Y45418D01*
X89600Y45409D01*
X89608Y45400D01*
X89616Y45394D01*
X89625Y45388D01*
X89632Y45385D01*
X89638Y45382D01*
X89641Y45380D01*
X89643Y45379D01*
X89656Y45375D01*
X89671Y45373D01*
X89686Y45371D01*
X89700Y45370D01*
X89713Y45369D01*
X89724Y45368D01*
X89915D01*
Y45580D01*
D02*
G37*
G36*
X104466Y45128D02*
X104465D01*
X104464D01*
X104453Y45127D01*
X104442Y45126D01*
X104433Y45123D01*
X104424Y45120D01*
X104417Y45116D01*
X104411Y45114D01*
X104408Y45112D01*
X104407Y45111D01*
X104398Y45104D01*
X104389Y45096D01*
X104383Y45088D01*
X104377Y45079D01*
X104374Y45072D01*
X104371Y45066D01*
X104369Y45063D01*
X104368Y45061D01*
X104364Y45048D01*
X104361Y45033D01*
X104360Y45018D01*
X104359Y45004D01*
X104358Y44991D01*
X104357Y44979D01*
Y44789D01*
X104569D01*
Y44991D01*
X104568Y45016D01*
X104564Y45037D01*
X104559Y45055D01*
X104554Y45069D01*
X104548Y45081D01*
X104544Y45089D01*
X104540Y45093D01*
X104539Y45095D01*
X104527Y45106D01*
X104515Y45114D01*
X104502Y45120D01*
X104491Y45125D01*
X104480Y45127D01*
X104472Y45127D01*
X104466Y45128D01*
D02*
G37*
G36*
X100682Y48363D02*
X100676D01*
X100657Y48361D01*
X100639Y48356D01*
X100624Y48351D01*
X100611Y48343D01*
X100601Y48336D01*
X100594Y48331D01*
X100589Y48326D01*
X100587Y48324D01*
X100575Y48308D01*
X100566Y48292D01*
X100560Y48274D01*
X100556Y48257D01*
X100553Y48243D01*
X100552Y48236D01*
Y48231D01*
X100551Y48226D01*
Y48222D01*
Y48220D01*
Y48220D01*
X100553Y48195D01*
X100557Y48173D01*
X100562Y48155D01*
X100569Y48139D01*
X100576Y48127D01*
X100582Y48118D01*
X100585Y48112D01*
X100587Y48111D01*
Y48110D01*
X100594Y48103D01*
X100601Y48098D01*
X100616Y48087D01*
X100631Y48081D01*
X100644Y48075D01*
X100656Y48073D01*
X100665Y48072D01*
X100669Y48071D01*
X100673D01*
X100686Y48072D01*
X100698Y48073D01*
X100709Y48077D01*
X100719Y48081D01*
X100727Y48084D01*
X100733Y48087D01*
X100737Y48089D01*
X100739Y48090D01*
X100750Y48098D01*
X100759Y48107D01*
X100768Y48117D01*
X100774Y48125D01*
X100780Y48134D01*
X100783Y48140D01*
X100786Y48145D01*
X100787Y48147D01*
X100793Y48160D01*
X100796Y48174D01*
X100800Y48187D01*
X100802Y48199D01*
X100803Y48209D01*
X100804Y48218D01*
Y48222D01*
Y48224D01*
X100802Y48246D01*
X100798Y48266D01*
X100792Y48283D01*
X100785Y48297D01*
X100779Y48309D01*
X100772Y48318D01*
X100769Y48322D01*
X100767Y48324D01*
X100752Y48337D01*
X100737Y48346D01*
X100721Y48354D01*
X100707Y48358D01*
X100695Y48361D01*
X100685Y48362D01*
X100682Y48363D01*
D02*
G37*
G36*
X101915Y48586D02*
X101713D01*
X101688Y48585D01*
X101667Y48581D01*
X101649Y48576D01*
X101635Y48571D01*
X101623Y48565D01*
X101615Y48561D01*
X101611Y48557D01*
X101609Y48556D01*
X101598Y48544D01*
X101590Y48532D01*
X101584Y48519D01*
X101579Y48508D01*
X101577Y48497D01*
X101577Y48489D01*
X101576Y48483D01*
Y48482D01*
Y48481D01*
X101577Y48470D01*
X101578Y48459D01*
X101581Y48450D01*
X101584Y48441D01*
X101588Y48434D01*
X101590Y48429D01*
X101592Y48425D01*
X101593Y48424D01*
X101600Y48415D01*
X101608Y48406D01*
X101616Y48400D01*
X101625Y48394D01*
X101632Y48391D01*
X101638Y48388D01*
X101641Y48386D01*
X101643Y48385D01*
X101656Y48381D01*
X101671Y48379D01*
X101686Y48377D01*
X101700Y48376D01*
X101713Y48375D01*
X101724Y48374D01*
X101915D01*
Y48586D01*
D02*
G37*
G36*
X89179Y60428D02*
X89173D01*
X89154Y60426D01*
X89136Y60421D01*
X89122Y60416D01*
X89109Y60408D01*
X89099Y60401D01*
X89091Y60396D01*
X89087Y60391D01*
X89085Y60389D01*
X89073Y60373D01*
X89063Y60357D01*
X89057Y60339D01*
X89053Y60322D01*
X89050Y60308D01*
X89050Y60301D01*
Y60296D01*
X89049Y60291D01*
Y60287D01*
Y60285D01*
Y60285D01*
X89050Y60260D01*
X89054Y60238D01*
X89060Y60220D01*
X89066Y60204D01*
X89074Y60192D01*
X89079Y60183D01*
X89083Y60177D01*
X89085Y60176D01*
Y60175D01*
X89091Y60168D01*
X89099Y60163D01*
X89113Y60152D01*
X89128Y60146D01*
X89141Y60140D01*
X89153Y60138D01*
X89162Y60137D01*
X89166Y60136D01*
X89171D01*
X89184Y60137D01*
X89196Y60138D01*
X89207Y60142D01*
X89216Y60146D01*
X89224Y60149D01*
X89231Y60152D01*
X89234Y60154D01*
X89236Y60155D01*
X89247Y60163D01*
X89257Y60172D01*
X89265Y60182D01*
X89271Y60190D01*
X89277Y60199D01*
X89281Y60205D01*
X89283Y60210D01*
X89284Y60212D01*
X89290Y60225D01*
X89294Y60239D01*
X89297Y60252D01*
X89299Y60264D01*
X89300Y60274D01*
X89301Y60283D01*
Y60287D01*
Y60289D01*
X89299Y60311D01*
X89296Y60331D01*
X89289Y60348D01*
X89283Y60362D01*
X89276Y60374D01*
X89270Y60383D01*
X89266Y60387D01*
X89264Y60389D01*
X89249Y60402D01*
X89234Y60411D01*
X89219Y60419D01*
X89205Y60423D01*
X89192Y60426D01*
X89183Y60427D01*
X89179Y60428D01*
D02*
G37*
G36*
X89915Y60651D02*
X89713D01*
X89688Y60650D01*
X89667Y60646D01*
X89649Y60641D01*
X89635Y60636D01*
X89623Y60630D01*
X89615Y60626D01*
X89611Y60622D01*
X89609Y60621D01*
X89598Y60609D01*
X89590Y60597D01*
X89584Y60584D01*
X89579Y60573D01*
X89577Y60562D01*
X89577Y60554D01*
X89576Y60548D01*
Y60547D01*
Y60546D01*
X89577Y60535D01*
X89578Y60524D01*
X89581Y60515D01*
X89584Y60506D01*
X89588Y60499D01*
X89590Y60494D01*
X89592Y60490D01*
X89593Y60489D01*
X89600Y60480D01*
X89608Y60471D01*
X89616Y60465D01*
X89625Y60459D01*
X89632Y60456D01*
X89638Y60453D01*
X89641Y60451D01*
X89643Y60450D01*
X89656Y60446D01*
X89671Y60444D01*
X89686Y60442D01*
X89700Y60441D01*
X89713Y60440D01*
X89724Y60439D01*
X89915D01*
Y60651D01*
D02*
G37*
G36*
X101915Y63942D02*
X101713D01*
X101688Y63941D01*
X101667Y63937D01*
X101649Y63932D01*
X101635Y63927D01*
X101623Y63921D01*
X101615Y63917D01*
X101611Y63913D01*
X101609Y63912D01*
X101598Y63900D01*
X101590Y63888D01*
X101584Y63875D01*
X101579Y63864D01*
X101577Y63853D01*
X101577Y63845D01*
X101576Y63839D01*
Y63838D01*
Y63837D01*
X101577Y63826D01*
X101578Y63815D01*
X101581Y63806D01*
X101584Y63797D01*
X101588Y63790D01*
X101590Y63784D01*
X101592Y63781D01*
X101593Y63780D01*
X101600Y63771D01*
X101608Y63762D01*
X101616Y63756D01*
X101625Y63750D01*
X101632Y63747D01*
X101638Y63744D01*
X101641Y63742D01*
X101643Y63741D01*
X101656Y63737D01*
X101671Y63734D01*
X101686Y63733D01*
X101700Y63732D01*
X101713Y63731D01*
X101724Y63730D01*
X101915D01*
Y63942D01*
D02*
G37*
G36*
X104466Y60454D02*
X104465D01*
X104464D01*
X104453Y60453D01*
X104442Y60452D01*
X104433Y60449D01*
X104424Y60446D01*
X104417Y60442D01*
X104411Y60440D01*
X104408Y60438D01*
X104407Y60437D01*
X104398Y60430D01*
X104389Y60422D01*
X104383Y60414D01*
X104377Y60405D01*
X104374Y60398D01*
X104371Y60392D01*
X104369Y60389D01*
X104368Y60387D01*
X104364Y60374D01*
X104361Y60359D01*
X104360Y60344D01*
X104359Y60330D01*
X104358Y60317D01*
X104357Y60306D01*
Y60115D01*
X104569D01*
Y60317D01*
X104568Y60342D01*
X104564Y60363D01*
X104559Y60381D01*
X104554Y60395D01*
X104548Y60407D01*
X104544Y60415D01*
X104540Y60419D01*
X104539Y60421D01*
X104527Y60432D01*
X104515Y60440D01*
X104502Y60446D01*
X104491Y60451D01*
X104480Y60453D01*
X104472Y60453D01*
X104466Y60454D01*
D02*
G37*
G36*
X167272Y69915D02*
X167060D01*
Y69713D01*
X167061Y69688D01*
X167065Y69667D01*
X167070Y69649D01*
X167075Y69635D01*
X167081Y69623D01*
X167085Y69615D01*
X167089Y69611D01*
X167090Y69609D01*
X167102Y69598D01*
X167114Y69590D01*
X167127Y69584D01*
X167138Y69579D01*
X167149Y69577D01*
X167157Y69577D01*
X167163Y69576D01*
X167164D01*
X167165D01*
X167176Y69577D01*
X167187Y69578D01*
X167196Y69581D01*
X167205Y69584D01*
X167212Y69588D01*
X167217Y69590D01*
X167221Y69592D01*
X167222Y69593D01*
X167231Y69600D01*
X167240Y69608D01*
X167246Y69616D01*
X167252Y69625D01*
X167255Y69632D01*
X167258Y69638D01*
X167260Y69641D01*
X167261Y69643D01*
X167265Y69656D01*
X167267Y69671D01*
X167269Y69686D01*
X167270Y69700D01*
X167271Y69713D01*
X167272Y69724D01*
Y69915D01*
D02*
G37*
G36*
X167211Y69308D02*
X167208D01*
X167206D01*
X167205D01*
X167181Y69306D01*
X167159Y69302D01*
X167140Y69296D01*
X167124Y69288D01*
X167111Y69282D01*
X167102Y69275D01*
X167099Y69273D01*
X167096Y69271D01*
X167095Y69270D01*
X167095D01*
X167087Y69262D01*
X167080Y69255D01*
X167070Y69239D01*
X167061Y69223D01*
X167057Y69209D01*
X167053Y69197D01*
X167052Y69186D01*
X167051Y69183D01*
Y69168D01*
X167053Y69159D01*
X167058Y69142D01*
X167064Y69127D01*
X167070Y69114D01*
X167078Y69104D01*
X167084Y69097D01*
X167089Y69092D01*
X167090Y69090D01*
X167091D01*
X167107Y69078D01*
X167124Y69069D01*
X167143Y69063D01*
X167160Y69059D01*
X167175Y69056D01*
X167181Y69055D01*
X167188D01*
X167193Y69054D01*
X167196D01*
X167198D01*
X167199D01*
X167223Y69056D01*
X167244Y69060D01*
X167262Y69065D01*
X167277Y69072D01*
X167289Y69079D01*
X167297Y69085D01*
X167303Y69088D01*
X167304Y69090D01*
X167317Y69104D01*
X167327Y69119D01*
X167333Y69134D01*
X167338Y69148D01*
X167340Y69161D01*
X167341Y69171D01*
X167342Y69174D01*
Y69180D01*
X167340Y69199D01*
X167337Y69217D01*
X167330Y69233D01*
X167323Y69246D01*
X167316Y69257D01*
X167310Y69265D01*
X167306Y69270D01*
X167304Y69271D01*
X167290Y69283D01*
X167273Y69293D01*
X167256Y69298D01*
X167241Y69303D01*
X167227Y69306D01*
X167221Y69307D01*
X167216D01*
X167211Y69308D01*
D02*
G37*
G36*
X137184Y69915D02*
X136972D01*
Y69713D01*
X136973Y69688D01*
X136977Y69667D01*
X136982Y69649D01*
X136987Y69635D01*
X136993Y69623D01*
X136997Y69615D01*
X137001Y69611D01*
X137002Y69609D01*
X137014Y69598D01*
X137026Y69590D01*
X137039Y69584D01*
X137050Y69579D01*
X137061Y69577D01*
X137069Y69577D01*
X137075Y69576D01*
X137076D01*
X137077D01*
X137088Y69577D01*
X137099Y69578D01*
X137108Y69581D01*
X137117Y69584D01*
X137124Y69588D01*
X137130Y69590D01*
X137133Y69592D01*
X137134Y69593D01*
X137143Y69600D01*
X137152Y69608D01*
X137158Y69616D01*
X137164Y69625D01*
X137167Y69632D01*
X137170Y69638D01*
X137172Y69641D01*
X137173Y69643D01*
X137177Y69656D01*
X137180Y69671D01*
X137181Y69686D01*
X137182Y69700D01*
X137183Y69713D01*
X137184Y69724D01*
Y69915D01*
D02*
G37*
G36*
X137755Y66447D02*
X137747D01*
X137742D01*
X137741D01*
X137740D01*
X137712D01*
X137686Y66445D01*
X137663Y66443D01*
X137641Y66441D01*
X137622Y66439D01*
X137604Y66435D01*
X137590Y66431D01*
X137576Y66428D01*
X137565Y66425D01*
X137555Y66421D01*
X137547Y66418D01*
X137541Y66415D01*
X137536Y66413D01*
X137533Y66411D01*
X137531Y66409D01*
X137530D01*
X137521Y66402D01*
X137514Y66394D01*
X137506Y66387D01*
X137501Y66379D01*
X137492Y66364D01*
X137485Y66350D01*
X137481Y66337D01*
X137480Y66328D01*
X137479Y66324D01*
Y66318D01*
X137480Y66308D01*
X137481Y66299D01*
X137487Y66281D01*
X137495Y66266D01*
X137505Y66252D01*
X137514Y66242D01*
X137522Y66233D01*
X137529Y66229D01*
X137530Y66227D01*
X137530D01*
X137542Y66220D01*
X137555Y66215D01*
X137569Y66209D01*
X137585Y66206D01*
X137602Y66202D01*
X137619Y66199D01*
X137655Y66195D01*
X137672Y66193D01*
X137688Y66192D01*
X137702Y66191D01*
X137714D01*
X137726Y66190D01*
X137734D01*
X137739D01*
X137740D01*
X137769Y66191D01*
X137795Y66192D01*
X137819Y66194D01*
X137841Y66196D01*
X137861Y66199D01*
X137878Y66203D01*
X137894Y66207D01*
X137908Y66210D01*
X137920Y66214D01*
X137930Y66217D01*
X137938Y66220D01*
X137946Y66223D01*
X137950Y66226D01*
X137954Y66228D01*
X137956Y66230D01*
X137957D01*
X137965Y66236D01*
X137972Y66243D01*
X137978Y66250D01*
X137984Y66257D01*
X137992Y66272D01*
X137997Y66286D01*
X138000Y66298D01*
X138002Y66308D01*
X138003Y66312D01*
Y66317D01*
X138002Y66328D01*
X138001Y66338D01*
X137998Y66347D01*
X137995Y66355D01*
X137986Y66371D01*
X137977Y66385D01*
X137967Y66395D01*
X137959Y66403D01*
X137955Y66406D01*
X137952Y66408D01*
X137951Y66410D01*
X137950D01*
X137939Y66416D01*
X137926Y66422D01*
X137911Y66427D01*
X137896Y66431D01*
X137879Y66435D01*
X137861Y66438D01*
X137826Y66442D01*
X137809Y66444D01*
X137793Y66445D01*
X137778Y66446D01*
X137766D01*
X137755Y66447D01*
D02*
G37*
G36*
X137891Y65424D02*
X137890D01*
X137889D01*
X137878Y65423D01*
X137867Y65422D01*
X137858Y65419D01*
X137849Y65416D01*
X137842Y65412D01*
X137837Y65410D01*
X137833Y65408D01*
X137832Y65407D01*
X137823Y65400D01*
X137814Y65392D01*
X137808Y65384D01*
X137802Y65375D01*
X137799Y65368D01*
X137796Y65362D01*
X137794Y65359D01*
X137793Y65357D01*
X137789Y65344D01*
X137787Y65329D01*
X137785Y65314D01*
X137784Y65300D01*
X137783Y65287D01*
X137782Y65275D01*
Y65085D01*
X137994D01*
Y65287D01*
X137993Y65312D01*
X137989Y65333D01*
X137984Y65351D01*
X137979Y65365D01*
X137973Y65377D01*
X137969Y65385D01*
X137965Y65389D01*
X137964Y65391D01*
X137952Y65402D01*
X137940Y65410D01*
X137927Y65416D01*
X137916Y65421D01*
X137905Y65423D01*
X137897Y65423D01*
X137891Y65424D01*
D02*
G37*
G36*
X168106D02*
X168105D01*
X168104D01*
X168093Y65423D01*
X168082Y65422D01*
X168073Y65419D01*
X168064Y65416D01*
X168057Y65412D01*
X168051Y65410D01*
X168048Y65408D01*
X168047Y65407D01*
X168038Y65400D01*
X168029Y65392D01*
X168023Y65384D01*
X168017Y65375D01*
X168014Y65368D01*
X168011Y65362D01*
X168009Y65359D01*
X168008Y65357D01*
X168004Y65344D01*
X168001Y65329D01*
X168000Y65314D01*
X167999Y65300D01*
X167998Y65287D01*
X167997Y65275D01*
Y65085D01*
X168209D01*
Y65287D01*
X168208Y65312D01*
X168204Y65333D01*
X168199Y65351D01*
X168194Y65365D01*
X168188Y65377D01*
X168184Y65385D01*
X168180Y65389D01*
X168179Y65391D01*
X168167Y65402D01*
X168155Y65410D01*
X168142Y65416D01*
X168131Y65421D01*
X168120Y65423D01*
X168112Y65423D01*
X168106Y65424D01*
D02*
G37*
G36*
X158898Y102248D02*
X158708D01*
Y102036D01*
X158910D01*
X158935Y102037D01*
X158956Y102041D01*
X158974Y102046D01*
X158988Y102051D01*
X159000Y102057D01*
X159008Y102061D01*
X159012Y102065D01*
X159014Y102066D01*
X159025Y102078D01*
X159033Y102090D01*
X159039Y102103D01*
X159044Y102114D01*
X159046Y102125D01*
X159046Y102133D01*
X159047Y102139D01*
Y102140D01*
Y102141D01*
X159046Y102152D01*
X159045Y102163D01*
X159042Y102172D01*
X159039Y102181D01*
X159035Y102188D01*
X159033Y102193D01*
X159031Y102197D01*
X159030Y102198D01*
X159023Y102207D01*
X159015Y102216D01*
X159007Y102222D01*
X158998Y102228D01*
X158991Y102231D01*
X158985Y102234D01*
X158982Y102236D01*
X158980Y102237D01*
X158967Y102241D01*
X158952Y102243D01*
X158937Y102245D01*
X158923Y102246D01*
X158910Y102247D01*
X158898Y102248D01*
D02*
G37*
G36*
X151916Y103166D02*
X151704D01*
Y102964D01*
X151705Y102939D01*
X151709Y102918D01*
X151714Y102900D01*
X151719Y102886D01*
X151725Y102874D01*
X151729Y102866D01*
X151733Y102862D01*
X151734Y102860D01*
X151746Y102849D01*
X151758Y102841D01*
X151771Y102835D01*
X151782Y102830D01*
X151793Y102828D01*
X151801Y102828D01*
X151807Y102827D01*
X151808D01*
X151809D01*
X151820Y102828D01*
X151831Y102829D01*
X151840Y102832D01*
X151849Y102835D01*
X151856Y102839D01*
X151862Y102841D01*
X151865Y102843D01*
X151866Y102844D01*
X151875Y102851D01*
X151884Y102859D01*
X151890Y102867D01*
X151896Y102876D01*
X151899Y102883D01*
X151902Y102889D01*
X151904Y102892D01*
X151905Y102894D01*
X151909Y102907D01*
X151911Y102922D01*
X151913Y102937D01*
X151914Y102951D01*
X151915Y102964D01*
X151916Y102975D01*
Y103166D01*
D02*
G37*
G36*
X152047Y102092D02*
X151761Y101890D01*
X152047D01*
Y102092D01*
D02*
G37*
G36*
X154855Y102526D02*
X154851D01*
X154849D01*
X154827Y102524D01*
X154807Y102521D01*
X154790Y102514D01*
X154776Y102508D01*
X154764Y102501D01*
X154755Y102495D01*
X154751Y102491D01*
X154749Y102489D01*
X154736Y102474D01*
X154727Y102460D01*
X154719Y102444D01*
X154715Y102430D01*
X154712Y102417D01*
X154711Y102408D01*
X154710Y102404D01*
Y102399D01*
X154712Y102379D01*
X154717Y102362D01*
X154722Y102347D01*
X154730Y102334D01*
X154737Y102324D01*
X154742Y102316D01*
X154747Y102312D01*
X154749Y102310D01*
X154765Y102298D01*
X154781Y102289D01*
X154799Y102282D01*
X154816Y102278D01*
X154830Y102276D01*
X154837Y102275D01*
X154842D01*
X154847Y102274D01*
X154851D01*
X154853D01*
X154853D01*
X154878Y102276D01*
X154900Y102279D01*
X154918Y102285D01*
X154934Y102291D01*
X154946Y102299D01*
X154955Y102304D01*
X154961Y102308D01*
X154962Y102310D01*
X154963D01*
X154970Y102316D01*
X154975Y102324D01*
X154986Y102338D01*
X154992Y102353D01*
X154998Y102366D01*
X155000Y102378D01*
X155001Y102387D01*
X155002Y102391D01*
Y102396D01*
X155001Y102409D01*
X155000Y102421D01*
X154996Y102432D01*
X154992Y102441D01*
X154989Y102449D01*
X154986Y102456D01*
X154984Y102460D01*
X154983Y102461D01*
X154975Y102473D01*
X154966Y102482D01*
X154956Y102490D01*
X154948Y102497D01*
X154939Y102502D01*
X154933Y102506D01*
X154928Y102509D01*
X154926Y102510D01*
X154913Y102515D01*
X154899Y102519D01*
X154886Y102522D01*
X154874Y102524D01*
X154864Y102525D01*
X154855Y102526D01*
D02*
G37*
G36*
X155152Y14648D02*
X155151D01*
X155150D01*
X155139Y14647D01*
X155128Y14646D01*
X155119Y14643D01*
X155110Y14640D01*
X155103Y14636D01*
X155097Y14634D01*
X155094Y14632D01*
X155093Y14631D01*
X155084Y14624D01*
X155075Y14616D01*
X155069Y14608D01*
X155063Y14599D01*
X155060Y14592D01*
X155057Y14586D01*
X155055Y14583D01*
X155054Y14581D01*
X155050Y14568D01*
X155047Y14553D01*
X155046Y14538D01*
X155045Y14524D01*
X155044Y14511D01*
X155043Y14500D01*
Y14309D01*
X155255D01*
Y14511D01*
X155254Y14536D01*
X155250Y14557D01*
X155245Y14575D01*
X155240Y14589D01*
X155234Y14601D01*
X155230Y14609D01*
X155226Y14613D01*
X155225Y14615D01*
X155213Y14626D01*
X155201Y14634D01*
X155188Y14640D01*
X155177Y14645D01*
X155166Y14647D01*
X155158Y14647D01*
X155152Y14648D01*
D02*
G37*
G36*
X155180Y11721D02*
X155174D01*
X155173D01*
X155172D01*
X155158Y11720D01*
X155144Y11717D01*
X155132Y11712D01*
X155121Y11707D01*
X155113Y11701D01*
X155108Y11696D01*
X155103Y11693D01*
X155102Y11692D01*
X155093Y11681D01*
X155085Y11668D01*
X155081Y11656D01*
X155077Y11644D01*
X155075Y11633D01*
X155074Y11624D01*
X155073Y11619D01*
Y11617D01*
X155074Y11600D01*
X155078Y11585D01*
X155083Y11573D01*
X155088Y11561D01*
X155093Y11553D01*
X155097Y11547D01*
X155101Y11542D01*
X155102Y11541D01*
X155113Y11532D01*
X155126Y11524D01*
X155138Y11520D01*
X155150Y11516D01*
X155160Y11514D01*
X155169Y11513D01*
X155174Y11512D01*
X155175D01*
X155176D01*
X155191Y11513D01*
X155204Y11517D01*
X155216Y11522D01*
X155226Y11527D01*
X155234Y11532D01*
X155241Y11536D01*
X155244Y11540D01*
X155245Y11541D01*
X155256Y11553D01*
X155263Y11565D01*
X155268Y11578D01*
X155271Y11590D01*
X155273Y11601D01*
X155275Y11610D01*
Y11617D01*
X155274Y11633D01*
X155270Y11647D01*
X155266Y11659D01*
X155260Y11671D01*
X155255Y11679D01*
X155250Y11685D01*
X155246Y11690D01*
X155245Y11691D01*
X155233Y11701D01*
X155221Y11708D01*
X155209Y11714D01*
X155198Y11718D01*
X155188Y11720D01*
X155180Y11721D01*
D02*
G37*
G36*
X154884Y11747D02*
X154881D01*
X154879D01*
X154878D01*
X154859Y11745D01*
X154840Y11742D01*
X154825Y11735D01*
X154812Y11729D01*
X154802Y11722D01*
X154793Y11716D01*
X154789Y11712D01*
X154787Y11710D01*
X154775Y11696D01*
X154766Y11681D01*
X154760Y11665D01*
X154755Y11650D01*
X154753Y11637D01*
X154752Y11626D01*
X154751Y11622D01*
Y11617D01*
X154752Y11604D01*
X154753Y11591D01*
X154756Y11579D01*
X154759Y11569D01*
X154762Y11561D01*
X154765Y11554D01*
X154766Y11550D01*
X154767Y11549D01*
X154775Y11537D01*
X154782Y11528D01*
X154790Y11520D01*
X154799Y11513D01*
X154805Y11508D01*
X154811Y11504D01*
X154815Y11502D01*
X154816Y11501D01*
X154828Y11497D01*
X154839Y11493D01*
X154851Y11490D01*
X154861Y11488D01*
X154869Y11487D01*
X154876Y11487D01*
X154879D01*
X154881D01*
X154900Y11488D01*
X154918Y11492D01*
X154934Y11498D01*
X154948Y11505D01*
X154958Y11512D01*
X154966Y11517D01*
X154971Y11521D01*
X154973Y11523D01*
X154985Y11536D01*
X154994Y11552D01*
X155000Y11567D01*
X155005Y11582D01*
X155008Y11595D01*
X155009Y11605D01*
X155010Y11609D01*
Y11614D01*
X155008Y11634D01*
X155004Y11653D01*
X154998Y11670D01*
X154991Y11683D01*
X154984Y11695D01*
X154977Y11703D01*
X154974Y11708D01*
X154972Y11709D01*
X154957Y11722D01*
X154941Y11732D01*
X154925Y11738D01*
X154912Y11743D01*
X154898Y11745D01*
X154888Y11746D01*
X154884Y11747D01*
D02*
G37*
G36*
X155163Y11219D02*
X155162D01*
X155161D01*
X155150Y11218D01*
X155139Y11217D01*
X155130Y11214D01*
X155121Y11211D01*
X155114Y11207D01*
X155109Y11205D01*
X155105Y11203D01*
X155104Y11202D01*
X155095Y11195D01*
X155086Y11187D01*
X155080Y11179D01*
X155074Y11170D01*
X155071Y11163D01*
X155068Y11157D01*
X155066Y11154D01*
X155065Y11152D01*
X155061Y11139D01*
X155059Y11124D01*
X155057Y11109D01*
X155056Y11095D01*
X155055Y11082D01*
X155054Y11071D01*
Y10880D01*
X155266D01*
Y11082D01*
X155265Y11107D01*
X155261Y11128D01*
X155256Y11146D01*
X155251Y11160D01*
X155245Y11172D01*
X155241Y11180D01*
X155237Y11184D01*
X155236Y11186D01*
X155224Y11197D01*
X155212Y11205D01*
X155199Y11211D01*
X155188Y11216D01*
X155177Y11218D01*
X155169Y11218D01*
X155163Y11219D01*
D02*
G37*
G36*
X89915Y75637D02*
X89713D01*
X89688Y75636D01*
X89667Y75632D01*
X89649Y75627D01*
X89635Y75622D01*
X89623Y75616D01*
X89615Y75612D01*
X89611Y75608D01*
X89609Y75607D01*
X89598Y75595D01*
X89590Y75583D01*
X89584Y75570D01*
X89579Y75559D01*
X89577Y75548D01*
X89577Y75540D01*
X89576Y75534D01*
Y75533D01*
Y75532D01*
X89577Y75521D01*
X89578Y75510D01*
X89581Y75501D01*
X89584Y75492D01*
X89588Y75485D01*
X89590Y75480D01*
X89592Y75476D01*
X89593Y75475D01*
X89600Y75466D01*
X89608Y75457D01*
X89616Y75451D01*
X89625Y75445D01*
X89632Y75442D01*
X89638Y75439D01*
X89641Y75437D01*
X89643Y75436D01*
X89656Y75432D01*
X89671Y75430D01*
X89686Y75428D01*
X89700Y75427D01*
X89713Y75426D01*
X89724Y75425D01*
X89915D01*
Y75637D01*
D02*
G37*
G36*
X117109Y90889D02*
X116823D01*
Y90688D01*
X117109Y90889D01*
D02*
G37*
G36*
X101915Y79182D02*
X101713D01*
X101688Y79181D01*
X101667Y79177D01*
X101649Y79172D01*
X101635Y79167D01*
X101623Y79161D01*
X101615Y79157D01*
X101611Y79153D01*
X101609Y79152D01*
X101598Y79140D01*
X101590Y79128D01*
X101584Y79115D01*
X101579Y79104D01*
X101577Y79093D01*
X101577Y79085D01*
X101576Y79079D01*
Y79078D01*
Y79077D01*
X101577Y79066D01*
X101578Y79055D01*
X101581Y79046D01*
X101584Y79037D01*
X101588Y79030D01*
X101590Y79024D01*
X101592Y79021D01*
X101593Y79020D01*
X101600Y79011D01*
X101608Y79002D01*
X101616Y78996D01*
X101625Y78990D01*
X101632Y78987D01*
X101638Y78984D01*
X101641Y78982D01*
X101643Y78981D01*
X101656Y78977D01*
X101671Y78974D01*
X101686Y78973D01*
X101700Y78972D01*
X101713Y78971D01*
X101724Y78970D01*
X101915D01*
Y79182D01*
D02*
G37*
G36*
X101136Y79125D02*
Y78839D01*
X101338D01*
X101136Y79125D01*
D02*
G37*
%LPD*%
D40*
X103175Y73466D02*
X104825D01*
X103175D02*
Y76566D01*
X104825D01*
Y73466D02*
Y76566D01*
X88450Y45825D02*
X91550D01*
X88450Y44175D02*
Y45825D01*
Y44175D02*
X91550D01*
Y45825D01*
X104825Y43154D02*
Y46254D01*
X103175D02*
X104825D01*
X103175Y43154D02*
Y46254D01*
Y43154D02*
X104825D01*
X100450Y48831D02*
X103550D01*
X100450Y47181D02*
Y48831D01*
Y47181D02*
X103550D01*
Y48831D01*
X91550Y59246D02*
Y60896D01*
X88450Y59246D02*
X91550D01*
X88450D02*
Y60896D01*
X91550D01*
X103550Y62548D02*
Y64198D01*
X100450Y62548D02*
X103550D01*
X100450D02*
Y64198D01*
X103550D01*
X103175Y58480D02*
X104825D01*
X103175D02*
Y61580D01*
X104825D01*
Y58480D02*
Y61580D01*
X166815Y71550D02*
X168465D01*
Y68450D02*
Y71550D01*
X166815Y68450D02*
X168465D01*
X166815D02*
Y71550D01*
X136716D02*
X138366D01*
Y68450D02*
Y71550D01*
X136716Y68450D02*
X138366D01*
X136716D02*
Y71550D01*
X138239Y63450D02*
Y66550D01*
X136589D02*
X138239D01*
X136589Y63450D02*
Y66550D01*
Y63450D02*
X138239D01*
X168465D02*
Y66550D01*
X166815D02*
X168465D01*
X166815Y63450D02*
Y66550D01*
Y63450D02*
X168465D01*
X156469Y101362D02*
X160777D01*
Y103870D01*
X156469D02*
X160777D01*
X156469Y101362D02*
Y103870D01*
X151019Y101097D02*
Y105405D01*
Y101097D02*
X153527D01*
Y105405D01*
X151019D02*
X153527D01*
X154217Y101851D02*
Y104651D01*
Y101851D02*
X155917D01*
Y104651D01*
X154217D02*
X155917D01*
X157773Y106677D02*
Y109477D01*
Y106677D02*
X159473D01*
Y109477D01*
X157773D02*
X159473D01*
X155511Y12674D02*
Y15774D01*
X153861D02*
X155511D01*
X153861Y12674D02*
Y15774D01*
Y12674D02*
X155511D01*
Y9245D02*
Y12345D01*
X153861D02*
X155511D01*
X153861Y9245D02*
Y12345D01*
Y9245D02*
X155511D01*
X88450Y75882D02*
X91550D01*
X88450Y74232D02*
Y75882D01*
Y74232D02*
X91550D01*
Y75882D01*
X115816Y42847D02*
Y47153D01*
Y42847D02*
X118372D01*
Y47153D01*
X115816D02*
X118372D01*
X117864Y87847D02*
Y92153D01*
X115308D02*
X117864D01*
X115308Y87847D02*
Y92153D01*
Y87847D02*
X117864D01*
X115308Y72847D02*
Y77153D01*
Y72847D02*
X117864D01*
Y77153D01*
X115308D02*
X117864D01*
X115054Y57847D02*
Y62153D01*
Y57847D02*
X117610D01*
Y62153D01*
X115054D02*
X117610D01*
X100450Y79438D02*
X103550D01*
X100450Y77788D02*
Y79438D01*
Y77788D02*
X103550D01*
Y79438D01*
%TF.MD5,1937f66a2a736a071d029d9f8eebd7ef*%
M02*
