%TF.GenerationSoftware,Altium Limited,Altium Designer,21.6.4 (81)*%
G04 Layer_Color=16711935*
%FSLAX43Y43*%
%MOMM*%
%TF.SameCoordinates,51A45B19-5AA5-45A3-BC04-4EA5AD39BA57*%
%TF.FilePolarity,Positive*%
%TF.FileFunction,Other,Bottom_Courtyard*%
%TF.Part,Single*%
G01*
G75*
%TA.AperFunction,NonConductor*%
%ADD40C,0.200*%
%ADD46C,0.050*%
D40*
X103175Y73466D02*
X104825D01*
X103175D02*
Y76566D01*
X104825D01*
Y73466D02*
Y76566D01*
X88450Y45825D02*
X91550D01*
X88450Y44175D02*
Y45825D01*
Y44175D02*
X91550D01*
Y45825D01*
X104825Y43154D02*
Y46254D01*
X103175D02*
X104825D01*
X103175Y43154D02*
Y46254D01*
Y43154D02*
X104825D01*
X100450Y48831D02*
X103550D01*
X100450Y47181D02*
Y48831D01*
Y47181D02*
X103550D01*
Y48831D01*
X91550Y59246D02*
Y60896D01*
X88450Y59246D02*
X91550D01*
X88450D02*
Y60896D01*
X91550D01*
X103550Y62548D02*
Y64198D01*
X100450Y62548D02*
X103550D01*
X100450D02*
Y64198D01*
X103550D01*
X103175Y58480D02*
X104825D01*
X103175D02*
Y61580D01*
X104825D01*
Y58480D02*
Y61580D01*
X166815Y71550D02*
X168465D01*
Y68450D02*
Y71550D01*
X166815Y68450D02*
X168465D01*
X166815D02*
Y71550D01*
X136716D02*
X138366D01*
Y68450D02*
Y71550D01*
X136716Y68450D02*
X138366D01*
X136716D02*
Y71550D01*
X138239Y63450D02*
Y66550D01*
X136589D02*
X138239D01*
X136589Y63450D02*
Y66550D01*
Y63450D02*
X138239D01*
X168465D02*
Y66550D01*
X166815D02*
X168465D01*
X166815Y63450D02*
Y66550D01*
Y63450D02*
X168465D01*
X154217Y101851D02*
Y104651D01*
Y101851D02*
X155917D01*
Y104651D01*
X154217D02*
X155917D01*
X157773Y106677D02*
Y109477D01*
Y106677D02*
X159473D01*
Y109477D01*
X157773D02*
X159473D01*
X155511Y12674D02*
Y15774D01*
X153861D02*
X155511D01*
X153861Y12674D02*
Y15774D01*
Y12674D02*
X155511D01*
Y9245D02*
Y12345D01*
X153861D02*
X155511D01*
X153861Y9245D02*
Y12345D01*
Y9245D02*
X155511D01*
X88450Y75882D02*
X91550D01*
X88450Y74232D02*
Y75882D01*
Y74232D02*
X91550D01*
Y75882D01*
X115816Y42847D02*
Y47153D01*
Y42847D02*
X118372D01*
Y47153D01*
X115816D02*
X118372D01*
X117864Y87847D02*
Y92153D01*
X115308D02*
X117864D01*
X115308Y87847D02*
Y92153D01*
Y87847D02*
X117864D01*
X115308Y72847D02*
Y77153D01*
Y72847D02*
X117864D01*
Y77153D01*
X115308D02*
X117864D01*
X115054Y57847D02*
Y62153D01*
Y57847D02*
X117610D01*
Y62153D01*
X115054D02*
X117610D01*
X100450Y79438D02*
X103550D01*
X100450Y77788D02*
Y79438D01*
Y77788D02*
X103550D01*
Y79438D01*
D46*
X162052Y129500D02*
Y130500D01*
X161552Y130000D02*
X162552D01*
X156252Y125300D02*
Y134700D01*
X167852D01*
Y125300D02*
Y134700D01*
X156252Y125300D02*
X167852D01*
X106564Y1951D02*
X117464D01*
Y8301D01*
X106564D02*
X117464D01*
X106564Y1951D02*
Y8301D01*
X111514Y5126D02*
X112514D01*
X112014Y4626D02*
Y5626D01*
X190300Y26625D02*
Y38225D01*
Y26625D02*
X199700D01*
Y38225D01*
X190300D02*
X199700D01*
X195000Y31925D02*
Y32925D01*
X194500Y32425D02*
X195500D01*
X190300Y96014D02*
Y107614D01*
Y96014D02*
X199700D01*
Y107614D01*
X190300D02*
X199700D01*
X195000Y101314D02*
Y102314D01*
X194500Y101814D02*
X195500D01*
X190300Y37594D02*
Y49194D01*
Y37594D02*
X199700D01*
Y49194D01*
X190300D02*
X199700D01*
X195000Y42894D02*
Y43894D01*
X194500Y43394D02*
X195500D01*
X190300Y85092D02*
Y96692D01*
Y85092D02*
X199700D01*
Y96692D01*
X190300D02*
X199700D01*
X195000Y90392D02*
Y91392D01*
X194500Y90892D02*
X195500D01*
X143648Y126825D02*
X154548D01*
Y133175D01*
X143648D02*
X154548D01*
X143648Y126825D02*
Y133175D01*
X148598Y130000D02*
X149598D01*
X149098Y129500D02*
Y130500D01*
X138049Y4500D02*
Y5500D01*
X137549Y5000D02*
X138549D01*
X132599Y1825D02*
Y8175D01*
X143499D01*
Y1825D02*
Y8175D01*
X132599Y1825D02*
X143499D01*
X124079Y4500D02*
Y5500D01*
X123579Y5000D02*
X124579D01*
X118629Y1825D02*
Y8175D01*
X129529D01*
Y1825D02*
Y8175D01*
X118629Y1825D02*
X129529D01*
X156072Y1605D02*
Y7955D01*
X147712Y1605D02*
X156072D01*
X147712D02*
Y7955D01*
X156072D01*
X151392Y4780D02*
X152392D01*
X151892Y4280D02*
Y5280D01*
%TF.MD5,2788e5950f362ef3f76648e3c92f18ed*%
M02*
