%TF.GenerationSoftware,Altium Limited,Altium Designer,21.6.4 (81)*%
G04 Layer_Color=32768*
%FSLAX43Y43*%
%MOMM*%
%TF.SameCoordinates,51A45B19-5AA5-45A3-BC04-4EA5AD39BA57*%
%TF.FilePolarity,Positive*%
%TF.FileFunction,Other,Bottom_Designator*%
%TF.Part,Single*%
G01*
G75*
%TA.AperFunction,NonConductor*%
%ADD49C,0.150*%
D49*
X161885Y129500D02*
X161552D01*
X161719D01*
Y130333D01*
X161552Y130500D01*
X161386D01*
X161219Y130333D01*
X162219Y129667D02*
X162385Y129500D01*
X162718D01*
X162885Y129667D01*
Y129833D01*
X162718Y130000D01*
X162552D01*
X162718D01*
X162885Y130167D01*
Y130333D01*
X162718Y130500D01*
X162385D01*
X162219Y130333D01*
X110764Y5876D02*
Y4376D01*
X111514D01*
X111764Y4626D01*
Y5126D01*
X111514Y5376D01*
X110764D01*
X112264Y4376D02*
X113264D01*
Y4626D01*
X112264Y5626D01*
Y5876D01*
X194500Y32591D02*
Y32925D01*
Y32758D01*
X195333D01*
X195500Y32925D01*
Y33091D01*
X195333Y33258D01*
X194500Y31592D02*
Y32258D01*
X195000D01*
X194833Y31925D01*
Y31758D01*
X195000Y31592D01*
X195333D01*
X195500Y31758D01*
Y32092D01*
X195333Y32258D01*
X194500Y101981D02*
Y102314D01*
Y102147D01*
X195333D01*
X195500Y102314D01*
Y102481D01*
X195333Y102647D01*
X195500Y101148D02*
X194500D01*
X195000Y101648D01*
Y100981D01*
X194500Y43561D02*
Y43894D01*
Y43727D01*
X195333D01*
X195500Y43894D01*
Y44061D01*
X195333Y44227D01*
X195500Y42561D02*
Y43228D01*
X194833Y42561D01*
X194667D01*
X194500Y42728D01*
Y43061D01*
X194667Y43228D01*
X194500Y90892D02*
Y91225D01*
Y91058D01*
X195333D01*
X195500Y91225D01*
Y91392D01*
X195333Y91558D01*
X195500Y90559D02*
Y90225D01*
Y90392D01*
X194500D01*
X194667Y90559D01*
X148432Y130500D02*
Y129500D01*
X148931D01*
X149098Y129667D01*
Y130000D01*
X148931Y130167D01*
X148432D01*
X149431Y130500D02*
X149764D01*
X149598D01*
Y129500D01*
X149431Y129667D01*
X137216Y5500D02*
Y4500D01*
X137716D01*
X137882Y4667D01*
Y5000D01*
X137716Y5167D01*
X137216D01*
X138216Y4667D02*
X138382Y4500D01*
X138715D01*
X138882Y4667D01*
Y4833D01*
X138715Y5000D01*
X138549D01*
X138715D01*
X138882Y5167D01*
Y5333D01*
X138715Y5500D01*
X138382D01*
X138216Y5333D01*
X123246Y5500D02*
Y4500D01*
X123746D01*
X123912Y4667D01*
Y5000D01*
X123746Y5167D01*
X123246D01*
X124912Y5500D02*
X124246D01*
X124912Y4833D01*
Y4667D01*
X124745Y4500D01*
X124412D01*
X124246Y4667D01*
X152725Y4280D02*
Y5280D01*
X152225D01*
X152059Y5113D01*
Y4780D01*
X152225Y4613D01*
X152725D01*
X151226Y4280D02*
Y5280D01*
X151725Y4780D01*
X151059D01*
%TF.MD5,ee86a332e741dd0486213ebaedc8d9e9*%
M02*
