%TF.GenerationSoftware,Altium Limited,Altium Designer,21.6.4 (81)*%
G04 Layer_Color=8388736*
%FSLAX43Y43*%
%MOMM*%
%TF.SameCoordinates,51A45B19-5AA5-45A3-BC04-4EA5AD39BA57*%
%TF.FilePolarity,Positive*%
%TF.FileFunction,Other,Top_Designator*%
%TF.Part,Single*%
G01*
G75*
%TA.AperFunction,NonConductor*%
%ADD49C,0.150*%
D49*
X109334Y60333D02*
X109167Y60500D01*
X108834D01*
X108667Y60333D01*
Y60167D01*
X108834Y60000D01*
X109167D01*
X109334Y59833D01*
Y59667D01*
X109167Y59500D01*
X108834D01*
X108667Y59667D01*
X109667Y60500D02*
Y59500D01*
X110000Y59833D01*
X110333Y59500D01*
Y60500D01*
X111333Y59500D02*
X110666D01*
X111333Y60167D01*
Y60333D01*
X111166Y60500D01*
X110833D01*
X110666Y60333D01*
Y89667D02*
X110833Y89500D01*
X111166D01*
X111333Y89667D01*
Y89833D01*
X111166Y90000D01*
X110833D01*
X110666Y90167D01*
Y90333D01*
X110833Y90500D01*
X111166D01*
X111333Y90333D01*
X110333Y89500D02*
Y90500D01*
X110000Y90167D01*
X109667Y90500D01*
Y89500D01*
X108834Y90500D02*
Y89500D01*
X109334Y90000D01*
X108667D01*
X113165Y84802D02*
X112999Y84969D01*
X112665D01*
X112499Y84802D01*
Y84636D01*
X112665Y84469D01*
X112999D01*
X113165Y84302D01*
Y84136D01*
X112999Y83969D01*
X112665D01*
X112499Y84136D01*
X113498Y84969D02*
Y83969D01*
X113832Y84302D01*
X114165Y83969D01*
Y84969D01*
X114498Y83969D02*
X114831D01*
X114665D01*
Y84969D01*
X114498Y84802D01*
X109334Y45333D02*
X109167Y45500D01*
X108834D01*
X108667Y45333D01*
Y45167D01*
X108834Y45000D01*
X109167D01*
X109334Y44833D01*
Y44667D01*
X109167Y44500D01*
X108834D01*
X108667Y44667D01*
X109667Y45500D02*
Y44500D01*
X110000Y44833D01*
X110333Y44500D01*
Y45500D01*
X110666Y45333D02*
X110833Y45500D01*
X111166D01*
X111333Y45333D01*
Y45167D01*
X111166Y45000D01*
X111000D01*
X111166D01*
X111333Y44833D01*
Y44667D01*
X111166Y44500D01*
X110833D01*
X110666Y44667D01*
%TF.MD5,30544e60d31cb3bf4cc7dcb94b9e855b*%
M02*
