M48
;Layer_Color=9474304
;FILE_FORMAT=4:3
METRIC,LZ
;TYPE=PLATED
T1F00S00C0.500
T2F00S00C0.762
T3F00S00C1.000
T4F00S00C1.016
T5F00S00C1.300
T7F00S00C2.794
T8F00S00C2.921
;TYPE=NON_PLATED
T9F00S00C0.762
T10F00S00C5.000
%
T01
X0110871Y0037846
X0123698Y0064516
X0133985Y0066421
X00254Y0028956
X0022733Y0028829
X0125476Y0079756
X0119253Y0090805
T02
X0161798Y0105029
Y0106934
Y0108839
T03
X0108204Y0004826
X0110744
X0113284
X0115824
X0120269Y00047
X0122809
X0125349
X0127889
X0134239
X0136779
X0139319
X0141859
X0149352Y000508
X0151892
X0154432
X016Y004373
Y004627
Y005873
Y006127
X0175
Y005873
Y004627
Y004373
X0145
Y004627
Y005873
Y006127
X013
Y005873
Y004627
Y004373
X011325Y004275
Y004725
X010675
Y004275
Y005775
Y006225
X011325
Y005775
X009627Y006
X009373
Y0045
X009627
Y0075
X009373
X010675Y007275
Y007725
X011325
Y007275
Y008775
Y009225
X010675
Y008775
X013Y008873
Y009127
Y007627
Y007373
X0145
Y007627
Y008873
Y009127
X016
Y008873
Y007627
Y007373
X0175
Y007627
Y008873
Y009127
X0152908Y01297
X0150368
X0147828
X0145288
X0085852Y0126873
X0083312
X0080772
X0078232
X0047244Y01297
X0044704
X0042164
X0039624
T04
X0018923Y0026289
X0021463
X0024003
X0026543
T05
X01955Y0029925
Y0034925
Y0040894
Y0045894
X019575Y0055
X018825
Y007
Y0075
Y008
X019575
Y0075
Y007
X01955Y0088392
Y0093392
Y0099314
Y0104314
X0164552Y01305
X0159552
T07
X0070485Y0020955
X0070104Y0114173
X0014986Y0113919
T08
X0014986Y0021082
T09
X0110744Y00127
X0159766Y0096901
T10
X0021463Y0036322
M30
