%TF.GenerationSoftware,Altium Limited,Altium Designer,21.6.4 (81)*%
G04 Layer_Physical_Order=1*
G04 Layer_Color=255*
%FSLAX43Y43*%
%MOMM*%
%TF.SameCoordinates,51A45B19-5AA5-45A3-BC04-4EA5AD39BA57*%
%TF.FilePolarity,Positive*%
%TF.FileFunction,Copper,L1,Top,Signal*%
%TF.Part,Single*%
G01*
G75*
%TA.AperFunction,Conductor*%
%ADD10C,3.000*%
%ADD11C,1.000*%
%ADD12R,8.763X11.557*%
%TA.AperFunction,ComponentPad*%
G04:AMPARAMS|DCode=13|XSize=1.95mm|YSize=1.95mm|CornerRadius=0.488mm|HoleSize=0mm|Usage=FLASHONLY|Rotation=0.000|XOffset=0mm|YOffset=0mm|HoleType=Round|Shape=RoundedRectangle|*
%AMROUNDEDRECTD13*
21,1,1.950,0.975,0,0,0.0*
21,1,0.975,1.950,0,0,0.0*
1,1,0.975,0.488,-0.488*
1,1,0.975,-0.488,-0.488*
1,1,0.975,-0.488,0.488*
1,1,0.975,0.488,0.488*
%
%ADD13ROUNDEDRECTD13*%
%ADD14C,1.950*%
%ADD15C,1.500*%
G04:AMPARAMS|DCode=16|XSize=1.5mm|YSize=1.5mm|CornerRadius=0.375mm|HoleSize=0mm|Usage=FLASHONLY|Rotation=0.000|XOffset=0mm|YOffset=0mm|HoleType=Round|Shape=RoundedRectangle|*
%AMROUNDEDRECTD16*
21,1,1.500,0.750,0,0,0.0*
21,1,0.750,1.500,0,0,0.0*
1,1,0.750,0.375,-0.375*
1,1,0.750,-0.375,-0.375*
1,1,0.750,-0.375,0.375*
1,1,0.750,0.375,0.375*
%
%ADD16ROUNDEDRECTD16*%
G04:AMPARAMS|DCode=17|XSize=1.95mm|YSize=1.95mm|CornerRadius=0.488mm|HoleSize=0mm|Usage=FLASHONLY|Rotation=270.000|XOffset=0mm|YOffset=0mm|HoleType=Round|Shape=RoundedRectangle|*
%AMROUNDEDRECTD17*
21,1,1.950,0.975,0,0,270.0*
21,1,0.975,1.950,0,0,270.0*
1,1,0.975,-0.488,-0.488*
1,1,0.975,-0.488,0.488*
1,1,0.975,0.488,0.488*
1,1,0.975,0.488,-0.488*
%
%ADD17ROUNDEDRECTD17*%
%ADD18C,1.800*%
%ADD19R,1.800X1.800*%
%ADD20C,2.286*%
%ADD21O,5.080X8.890*%
%ADD22C,1.524*%
%ADD23C,1.600*%
%ADD24R,1.500X1.500*%
%ADD25C,5.842*%
%ADD26C,5.588*%
%ADD27O,1.778X2.540*%
%TA.AperFunction,ViaPad*%
%ADD28C,1.270*%
%ADD29C,0.700*%
G36*
X199898Y0D02*
X0D01*
Y135001D01*
X199898D01*
Y0D01*
D02*
G37*
%LPC*%
G36*
X160039Y131735D02*
X159679D01*
Y130627D01*
X160787D01*
Y130988D01*
X160762Y131181D01*
X160687Y131361D01*
X160568Y131516D01*
X160413Y131635D01*
X160233Y131710D01*
X160039Y131735D01*
D02*
G37*
G36*
X159425D02*
X159064D01*
X158871Y131710D01*
X158690Y131635D01*
X158535Y131516D01*
X158417Y131361D01*
X158342Y131181D01*
X158316Y130988D01*
Y130627D01*
X159425D01*
Y131735D01*
D02*
G37*
G36*
X47376Y130704D02*
X47371D01*
Y129827D01*
X48248D01*
Y129832D01*
X48180Y130088D01*
X48047Y130316D01*
X47860Y130503D01*
X47632Y130636D01*
X47376Y130704D01*
D02*
G37*
G36*
X47117D02*
X47112D01*
X46856Y130636D01*
X46628Y130503D01*
X46441Y130316D01*
X46308Y130088D01*
X46240Y129832D01*
Y129827D01*
X47117D01*
Y130704D01*
D02*
G37*
G36*
X145420D02*
X145415D01*
Y129827D01*
X146292D01*
Y129832D01*
X146224Y130088D01*
X146091Y130316D01*
X145904Y130503D01*
X145676Y130636D01*
X145420Y130704D01*
D02*
G37*
G36*
X145161D02*
X145156D01*
X144900Y130636D01*
X144672Y130503D01*
X144485Y130316D01*
X144352Y130088D01*
X144284Y129832D01*
Y129827D01*
X145161D01*
Y130704D01*
D02*
G37*
G36*
X164714Y131729D02*
X164390D01*
X164077Y131645D01*
X163797Y131483D01*
X163568Y131255D01*
X163407Y130974D01*
X163323Y130662D01*
Y130338D01*
X163407Y130026D01*
X163568Y129745D01*
X163797Y129517D01*
X164077Y129355D01*
X164390Y129271D01*
X164714D01*
X165026Y129355D01*
X165306Y129517D01*
X165535Y129745D01*
X165697Y130026D01*
X165781Y130338D01*
Y130662D01*
X165697Y130974D01*
X165535Y131255D01*
X165306Y131483D01*
X165026Y131645D01*
X164714Y131729D01*
D02*
G37*
G36*
X160787Y130373D02*
X159679D01*
Y129265D01*
X160039D01*
X160233Y129290D01*
X160413Y129365D01*
X160568Y129484D01*
X160687Y129639D01*
X160762Y129819D01*
X160787Y130013D01*
Y130373D01*
D02*
G37*
G36*
X159425D02*
X158316D01*
Y130013D01*
X158342Y129819D01*
X158417Y129639D01*
X158535Y129484D01*
X158690Y129365D01*
X158871Y129290D01*
X159064Y129265D01*
X159425D01*
Y130373D01*
D02*
G37*
G36*
X150500Y130704D02*
X150236D01*
X149980Y130636D01*
X149752Y130503D01*
X149565Y130316D01*
X149432Y130088D01*
X149364Y129832D01*
Y129568D01*
X149432Y129312D01*
X149565Y129084D01*
X149752Y128897D01*
X149980Y128764D01*
X150236Y128696D01*
X150500D01*
X150756Y128764D01*
X150984Y128897D01*
X151171Y129084D01*
X151304Y129312D01*
X151372Y129568D01*
Y129832D01*
X151304Y130088D01*
X151171Y130316D01*
X150984Y130503D01*
X150756Y130636D01*
X150500Y130704D01*
D02*
G37*
G36*
X147960D02*
X147696D01*
X147440Y130636D01*
X147212Y130503D01*
X147025Y130316D01*
X146892Y130088D01*
X146824Y129832D01*
Y129568D01*
X146892Y129312D01*
X147025Y129084D01*
X147212Y128897D01*
X147440Y128764D01*
X147696Y128696D01*
X147960D01*
X148216Y128764D01*
X148444Y128897D01*
X148631Y129084D01*
X148764Y129312D01*
X148832Y129568D01*
Y129832D01*
X148764Y130088D01*
X148631Y130316D01*
X148444Y130503D01*
X148216Y130636D01*
X147960Y130704D01*
D02*
G37*
G36*
X146292Y129573D02*
X145415D01*
Y128696D01*
X145420D01*
X145676Y128764D01*
X145904Y128897D01*
X146091Y129084D01*
X146224Y129312D01*
X146292Y129568D01*
Y129573D01*
D02*
G37*
G36*
X145161D02*
X144284D01*
Y129568D01*
X144352Y129312D01*
X144485Y129084D01*
X144672Y128897D01*
X144900Y128764D01*
X145156Y128696D01*
X145161D01*
Y129573D01*
D02*
G37*
G36*
X48248Y129573D02*
X47371D01*
Y128696D01*
X47376D01*
X47632Y128764D01*
X47860Y128897D01*
X48047Y129084D01*
X48180Y129312D01*
X48248Y129568D01*
Y129573D01*
D02*
G37*
G36*
X47117D02*
X46240D01*
Y129568D01*
X46308Y129312D01*
X46441Y129084D01*
X46628Y128897D01*
X46856Y128764D01*
X47112Y128696D01*
X47117D01*
Y129573D01*
D02*
G37*
G36*
X44836Y130704D02*
X44572D01*
X44316Y130636D01*
X44088Y130503D01*
X43901Y130316D01*
X43768Y130088D01*
X43700Y129832D01*
Y129568D01*
X43768Y129312D01*
X43901Y129084D01*
X44088Y128897D01*
X44316Y128764D01*
X44572Y128696D01*
X44836D01*
X45092Y128764D01*
X45320Y128897D01*
X45507Y129084D01*
X45640Y129312D01*
X45708Y129568D01*
Y129832D01*
X45640Y130088D01*
X45507Y130316D01*
X45320Y130503D01*
X45092Y130636D01*
X44836Y130704D01*
D02*
G37*
G36*
X42296D02*
X42032D01*
X41776Y130636D01*
X41548Y130503D01*
X41361Y130316D01*
X41228Y130088D01*
X41160Y129832D01*
Y129568D01*
X41228Y129312D01*
X41361Y129084D01*
X41548Y128897D01*
X41776Y128764D01*
X42032Y128696D01*
X42296D01*
X42552Y128764D01*
X42780Y128897D01*
X42967Y129084D01*
X43100Y129312D01*
X43168Y129568D01*
Y129832D01*
X43100Y130088D01*
X42967Y130316D01*
X42780Y130503D01*
X42552Y130636D01*
X42296Y130704D01*
D02*
G37*
G36*
X40628D02*
X38620D01*
Y128696D01*
X40628D01*
Y130704D01*
D02*
G37*
G36*
X153283Y130716D02*
X152533D01*
X152288Y130667D01*
X152080Y130528D01*
X151941Y130320D01*
X151892Y130075D01*
Y129325D01*
X151941Y129080D01*
X152080Y128872D01*
X152288Y128732D01*
X152533Y128684D01*
X153283D01*
X153528Y128732D01*
X153736Y128872D01*
X153876Y129080D01*
X153924Y129325D01*
Y130075D01*
X153876Y130320D01*
X153736Y130528D01*
X153528Y130667D01*
X153283Y130716D01*
D02*
G37*
G36*
X194673Y131259D02*
X194377D01*
X194352Y131254D01*
X194327D01*
X194037Y131196D01*
X194013Y131187D01*
X193988Y131182D01*
X193715Y131069D01*
X193694Y131054D01*
X193671Y131045D01*
X193425Y130880D01*
X193407Y130862D01*
X193386Y130848D01*
X193177Y130639D01*
X193163Y130618D01*
X193145Y130600D01*
X192980Y130354D01*
X192971Y130331D01*
X192956Y130310D01*
X192843Y130037D01*
X192838Y130012D01*
X192829Y129988D01*
X192771Y129698D01*
Y129673D01*
X192766Y129648D01*
Y129352D01*
X192771Y129327D01*
Y129302D01*
X192829Y129012D01*
X192838Y128988D01*
X192843Y128963D01*
X192956Y128690D01*
X192971Y128669D01*
X192980Y128646D01*
X193145Y128400D01*
X193163Y128382D01*
X193177Y128361D01*
X193386Y128152D01*
X193407Y128138D01*
X193425Y128120D01*
X193671Y127955D01*
X193694Y127946D01*
X193715Y127931D01*
X193988Y127818D01*
X194013Y127813D01*
X194037Y127804D01*
X194327Y127746D01*
X194352D01*
X194377Y127741D01*
X194673D01*
X194698Y127746D01*
X194723D01*
X195013Y127804D01*
X195037Y127813D01*
X195062Y127818D01*
X195335Y127931D01*
X195356Y127946D01*
X195379Y127955D01*
X195625Y128120D01*
X195643Y128138D01*
X195664Y128152D01*
X195873Y128361D01*
X195887Y128382D01*
X195905Y128400D01*
X196070Y128646D01*
X196079Y128669D01*
X196094Y128690D01*
X196207Y128963D01*
X196212Y128988D01*
X196221Y129012D01*
X196279Y129302D01*
Y129327D01*
X196284Y129352D01*
Y129648D01*
X196279Y129673D01*
Y129698D01*
X196221Y129988D01*
X196212Y130012D01*
X196207Y130037D01*
X196094Y130310D01*
X196079Y130331D01*
X196070Y130354D01*
X195905Y130600D01*
X195887Y130618D01*
X195873Y130639D01*
X195664Y130848D01*
X195643Y130862D01*
X195625Y130880D01*
X195379Y131045D01*
X195356Y131054D01*
X195335Y131069D01*
X195062Y131182D01*
X195037Y131187D01*
X195013Y131196D01*
X194723Y131254D01*
X194698D01*
X194673Y131259D01*
D02*
G37*
G36*
X100148D02*
X99852D01*
X99827Y131254D01*
X99802D01*
X99512Y131196D01*
X99488Y131187D01*
X99463Y131182D01*
X99190Y131069D01*
X99169Y131054D01*
X99146Y131045D01*
X98900Y130880D01*
X98882Y130862D01*
X98861Y130848D01*
X98652Y130639D01*
X98638Y130618D01*
X98620Y130600D01*
X98455Y130354D01*
X98446Y130331D01*
X98431Y130310D01*
X98318Y130037D01*
X98313Y130012D01*
X98304Y129988D01*
X98246Y129698D01*
Y129673D01*
X98241Y129648D01*
Y129352D01*
X98246Y129327D01*
Y129302D01*
X98304Y129012D01*
X98313Y128988D01*
X98318Y128963D01*
X98431Y128690D01*
X98446Y128669D01*
X98455Y128646D01*
X98620Y128400D01*
X98638Y128382D01*
X98652Y128361D01*
X98861Y128152D01*
X98882Y128138D01*
X98900Y128120D01*
X99146Y127955D01*
X99169Y127946D01*
X99190Y127931D01*
X99463Y127818D01*
X99488Y127813D01*
X99512Y127804D01*
X99802Y127746D01*
X99827D01*
X99852Y127741D01*
X100148D01*
X100173Y127746D01*
X100198D01*
X100488Y127804D01*
X100512Y127813D01*
X100537Y127818D01*
X100810Y127931D01*
X100831Y127946D01*
X100854Y127955D01*
X101100Y128120D01*
X101118Y128138D01*
X101139Y128152D01*
X101348Y128361D01*
X101362Y128382D01*
X101380Y128400D01*
X101545Y128646D01*
X101554Y128669D01*
X101569Y128690D01*
X101682Y128963D01*
X101687Y128988D01*
X101696Y129012D01*
X101754Y129302D01*
Y129327D01*
X101759Y129352D01*
Y129648D01*
X101754Y129673D01*
Y129698D01*
X101696Y129988D01*
X101687Y130012D01*
X101682Y130037D01*
X101569Y130310D01*
X101554Y130331D01*
X101545Y130354D01*
X101380Y130600D01*
X101362Y130618D01*
X101348Y130639D01*
X101139Y130848D01*
X101118Y130862D01*
X101100Y130880D01*
X100854Y131045D01*
X100831Y131054D01*
X100810Y131069D01*
X100537Y131182D01*
X100512Y131187D01*
X100488Y131196D01*
X100198Y131254D01*
X100173D01*
X100148Y131259D01*
D02*
G37*
G36*
X5673D02*
X5377D01*
X5352Y131254D01*
X5327D01*
X5037Y131196D01*
X5013Y131187D01*
X4988Y131182D01*
X4715Y131069D01*
X4694Y131054D01*
X4671Y131045D01*
X4425Y130880D01*
X4407Y130862D01*
X4386Y130848D01*
X4177Y130639D01*
X4163Y130618D01*
X4145Y130600D01*
X3980Y130354D01*
X3971Y130331D01*
X3956Y130310D01*
X3843Y130037D01*
X3838Y130012D01*
X3829Y129988D01*
X3771Y129698D01*
Y129673D01*
X3766Y129648D01*
Y129352D01*
X3771Y129327D01*
Y129302D01*
X3829Y129012D01*
X3838Y128988D01*
X3843Y128963D01*
X3956Y128690D01*
X3971Y128669D01*
X3980Y128646D01*
X4145Y128400D01*
X4163Y128382D01*
X4177Y128361D01*
X4386Y128152D01*
X4407Y128138D01*
X4425Y128120D01*
X4671Y127955D01*
X4694Y127946D01*
X4715Y127931D01*
X4988Y127818D01*
X5013Y127813D01*
X5037Y127804D01*
X5327Y127746D01*
X5352D01*
X5377Y127741D01*
X5673D01*
X5698Y127746D01*
X5723D01*
X6013Y127804D01*
X6037Y127813D01*
X6062Y127818D01*
X6335Y127931D01*
X6356Y127946D01*
X6379Y127955D01*
X6625Y128120D01*
X6643Y128138D01*
X6664Y128152D01*
X6873Y128361D01*
X6887Y128382D01*
X6905Y128400D01*
X7070Y128646D01*
X7079Y128669D01*
X7094Y128690D01*
X7207Y128963D01*
X7212Y128988D01*
X7221Y129012D01*
X7279Y129302D01*
Y129327D01*
X7284Y129352D01*
Y129648D01*
X7279Y129673D01*
Y129698D01*
X7221Y129988D01*
X7212Y130012D01*
X7207Y130037D01*
X7094Y130310D01*
X7079Y130331D01*
X7070Y130354D01*
X6905Y130600D01*
X6887Y130618D01*
X6873Y130639D01*
X6664Y130848D01*
X6643Y130862D01*
X6625Y130880D01*
X6379Y131045D01*
X6356Y131054D01*
X6335Y131069D01*
X6062Y131182D01*
X6037Y131187D01*
X6013Y131196D01*
X5723Y131254D01*
X5698D01*
X5673Y131259D01*
D02*
G37*
G36*
X85984Y127877D02*
X85979D01*
Y127000D01*
X86856D01*
Y127005D01*
X86788Y127261D01*
X86655Y127489D01*
X86468Y127676D01*
X86240Y127809D01*
X85984Y127877D01*
D02*
G37*
G36*
X85725D02*
X85720D01*
X85464Y127809D01*
X85236Y127676D01*
X85049Y127489D01*
X84916Y127261D01*
X84848Y127005D01*
Y127000D01*
X85725D01*
Y127877D01*
D02*
G37*
G36*
X86856Y126746D02*
X85979D01*
Y125869D01*
X85984D01*
X86240Y125937D01*
X86468Y126070D01*
X86655Y126257D01*
X86788Y126485D01*
X86856Y126741D01*
Y126746D01*
D02*
G37*
G36*
X85725D02*
X84848D01*
Y126741D01*
X84916Y126485D01*
X85049Y126257D01*
X85236Y126070D01*
X85464Y125937D01*
X85720Y125869D01*
X85725D01*
Y126746D01*
D02*
G37*
G36*
X83444Y127877D02*
X83180D01*
X82924Y127809D01*
X82696Y127676D01*
X82509Y127489D01*
X82376Y127261D01*
X82308Y127005D01*
Y126741D01*
X82376Y126485D01*
X82509Y126257D01*
X82696Y126070D01*
X82924Y125937D01*
X83180Y125869D01*
X83444D01*
X83700Y125937D01*
X83928Y126070D01*
X84115Y126257D01*
X84248Y126485D01*
X84316Y126741D01*
Y127005D01*
X84248Y127261D01*
X84115Y127489D01*
X83928Y127676D01*
X83700Y127809D01*
X83444Y127877D01*
D02*
G37*
G36*
X80904D02*
X80640D01*
X80384Y127809D01*
X80156Y127676D01*
X79969Y127489D01*
X79836Y127261D01*
X79768Y127005D01*
Y126741D01*
X79836Y126485D01*
X79969Y126257D01*
X80156Y126070D01*
X80384Y125937D01*
X80640Y125869D01*
X80904D01*
X81160Y125937D01*
X81388Y126070D01*
X81575Y126257D01*
X81708Y126485D01*
X81776Y126741D01*
Y127005D01*
X81708Y127261D01*
X81575Y127489D01*
X81388Y127676D01*
X81160Y127809D01*
X80904Y127877D01*
D02*
G37*
G36*
X79236D02*
X77228D01*
Y125869D01*
X79236D01*
Y127877D01*
D02*
G37*
G36*
X110304Y123296D02*
X109696D01*
X109683Y123294D01*
X109670Y123295D01*
X109064Y123235D01*
X109052Y123231D01*
X109039D01*
X108442Y123113D01*
X108430Y123108D01*
X108417Y123106D01*
X107835Y122930D01*
X107823Y122924D01*
X107811Y122921D01*
X107248Y122688D01*
X107237Y122681D01*
X107225Y122677D01*
X106688Y122390D01*
X106678Y122382D01*
X106666Y122377D01*
X106160Y122039D01*
X106151Y122030D01*
X106140Y122024D01*
X105669Y121637D01*
X105661Y121628D01*
X105650Y121620D01*
X105220Y121190D01*
X105213Y121179D01*
X105203Y121171D01*
X104816Y120700D01*
X104810Y120689D01*
X104801Y120680D01*
X104463Y120174D01*
X104458Y120162D01*
X104450Y120152D01*
X104163Y119615D01*
X104159Y119603D01*
X104152Y119592D01*
X103919Y119029D01*
X103916Y119017D01*
X103910Y119005D01*
X103734Y118423D01*
X103732Y118410D01*
X103727Y118398D01*
X103609Y117801D01*
Y117788D01*
X103605Y117776D01*
X103545Y117170D01*
X103547Y117157D01*
X103544Y117144D01*
Y116536D01*
X103547Y116523D01*
X103545Y116510D01*
X103605Y115904D01*
X103609Y115892D01*
Y115879D01*
X103727Y115282D01*
X103732Y115270D01*
X103734Y115257D01*
X103910Y114675D01*
X103916Y114663D01*
X103919Y114651D01*
X104152Y114088D01*
X104159Y114077D01*
X104163Y114065D01*
X104450Y113528D01*
X104458Y113518D01*
X104463Y113506D01*
X104801Y113000D01*
X104810Y112991D01*
X104816Y112980D01*
X105203Y112509D01*
X105213Y112501D01*
X105220Y112490D01*
X105650Y112060D01*
X105661Y112052D01*
X105669Y112043D01*
X106140Y111656D01*
X106151Y111650D01*
X106160Y111641D01*
X106666Y111303D01*
X106678Y111298D01*
X106688Y111290D01*
X107225Y111003D01*
X107237Y110999D01*
X107248Y110992D01*
X107811Y110759D01*
X107823Y110756D01*
X107835Y110750D01*
X108417Y110574D01*
X108430Y110572D01*
X108442Y110567D01*
X109039Y110449D01*
X109052D01*
X109064Y110445D01*
X109670Y110385D01*
X109683Y110386D01*
X109696Y110384D01*
X110304D01*
X110317Y110386D01*
X110330Y110385D01*
X110936Y110445D01*
X110948Y110449D01*
X110961D01*
X111558Y110567D01*
X111570Y110572D01*
X111583Y110574D01*
X112165Y110750D01*
X112177Y110756D01*
X112189Y110759D01*
X112752Y110992D01*
X112763Y110999D01*
X112775Y111003D01*
X113312Y111290D01*
X113322Y111298D01*
X113334Y111303D01*
X113840Y111641D01*
X113849Y111650D01*
X113860Y111656D01*
X114331Y112043D01*
X114339Y112052D01*
X114350Y112060D01*
X114780Y112490D01*
X114787Y112501D01*
X114797Y112509D01*
X115184Y112980D01*
X115190Y112991D01*
X115199Y113000D01*
X115537Y113506D01*
X115542Y113518D01*
X115550Y113528D01*
X115837Y114065D01*
X115841Y114077D01*
X115848Y114088D01*
X116081Y114651D01*
X116084Y114663D01*
X116090Y114675D01*
X116266Y115257D01*
X116268Y115270D01*
X116273Y115282D01*
X116391Y115879D01*
Y115892D01*
X116395Y115904D01*
X116455Y116510D01*
X116453Y116523D01*
X116456Y116536D01*
Y117144D01*
X116453Y117157D01*
X116455Y117170D01*
X116395Y117776D01*
X116391Y117788D01*
Y117801D01*
X116273Y118398D01*
X116268Y118410D01*
X116266Y118423D01*
X116090Y119005D01*
X116084Y119017D01*
X116081Y119029D01*
X115848Y119592D01*
X115841Y119603D01*
X115837Y119615D01*
X115550Y120152D01*
X115542Y120162D01*
X115537Y120174D01*
X115199Y120680D01*
X115190Y120689D01*
X115184Y120700D01*
X114797Y121171D01*
X114787Y121179D01*
X114780Y121190D01*
X114350Y121620D01*
X114339Y121628D01*
X114331Y121637D01*
X113860Y122024D01*
X113849Y122030D01*
X113840Y122039D01*
X113334Y122377D01*
X113322Y122382D01*
X113312Y122390D01*
X112775Y122677D01*
X112763Y122681D01*
X112752Y122688D01*
X112189Y122921D01*
X112177Y122924D01*
X112165Y122930D01*
X111583Y123106D01*
X111570Y123108D01*
X111558Y123113D01*
X110961Y123231D01*
X110948D01*
X110936Y123235D01*
X110330Y123295D01*
X110317Y123294D01*
X110304Y123296D01*
D02*
G37*
G36*
X70344Y117221D02*
X70231D01*
Y114300D01*
X73152D01*
Y114413D01*
X73077Y114887D01*
X72929Y115343D01*
X72711Y115771D01*
X72429Y116159D01*
X72090Y116498D01*
X71701Y116780D01*
X71274Y116998D01*
X70818Y117146D01*
X70344Y117221D01*
D02*
G37*
G36*
X69977D02*
X69864D01*
X69390Y117146D01*
X68934Y116998D01*
X68507Y116780D01*
X68118Y116498D01*
X67779Y116159D01*
X67497Y115771D01*
X67279Y115343D01*
X67131Y114887D01*
X67056Y114413D01*
Y114300D01*
X69977D01*
Y117221D01*
D02*
G37*
G36*
X15226Y116967D02*
X15113D01*
Y114046D01*
X18034D01*
Y114159D01*
X17959Y114633D01*
X17811Y115089D01*
X17593Y115517D01*
X17311Y115905D01*
X16972Y116244D01*
X16583Y116526D01*
X16156Y116744D01*
X15700Y116892D01*
X15226Y116967D01*
D02*
G37*
G36*
X14859D02*
X14746D01*
X14272Y116892D01*
X13816Y116744D01*
X13389Y116526D01*
X13000Y116244D01*
X12661Y115905D01*
X12379Y115517D01*
X12161Y115089D01*
X12013Y114633D01*
X11938Y114159D01*
Y114046D01*
X14859D01*
Y116967D01*
D02*
G37*
G36*
X73152Y114046D02*
X70231D01*
Y111125D01*
X70344D01*
X70818Y111200D01*
X71274Y111348D01*
X71701Y111566D01*
X72090Y111848D01*
X72429Y112187D01*
X72711Y112576D01*
X72929Y113003D01*
X73077Y113459D01*
X73152Y113933D01*
Y114046D01*
D02*
G37*
G36*
X69977D02*
X67056D01*
Y113933D01*
X67131Y113459D01*
X67279Y113003D01*
X67497Y112576D01*
X67779Y112187D01*
X68118Y111848D01*
X68507Y111566D01*
X68934Y111348D01*
X69390Y111200D01*
X69864Y111125D01*
X69977D01*
Y114046D01*
D02*
G37*
G36*
X18034Y113792D02*
X15113D01*
Y110871D01*
X15226D01*
X15700Y110946D01*
X16156Y111094D01*
X16583Y111312D01*
X16972Y111594D01*
X17311Y111933D01*
X17593Y112322D01*
X17811Y112749D01*
X17959Y113205D01*
X18034Y113679D01*
Y113792D01*
D02*
G37*
G36*
X14859D02*
X11938D01*
Y113679D01*
X12013Y113205D01*
X12161Y112749D01*
X12379Y112322D01*
X12661Y111933D01*
X13000Y111594D01*
X13389Y111312D01*
X13816Y111094D01*
X14272Y110946D01*
X14746Y110871D01*
X14859D01*
Y113792D01*
D02*
G37*
G36*
X161932Y109855D02*
X161664D01*
X161406Y109786D01*
X161174Y109652D01*
X160985Y109463D01*
X160851Y109231D01*
X160782Y108973D01*
Y108705D01*
X160851Y108447D01*
X160985Y108215D01*
X161174Y108026D01*
X161289Y107960D01*
Y107813D01*
X161174Y107747D01*
X160985Y107558D01*
X160851Y107326D01*
X160782Y107068D01*
Y107061D01*
X161798D01*
X162814D01*
Y107068D01*
X162745Y107326D01*
X162611Y107558D01*
X162422Y107747D01*
X162307Y107813D01*
Y107960D01*
X162422Y108026D01*
X162611Y108215D01*
X162745Y108447D01*
X162814Y108705D01*
Y108973D01*
X162745Y109231D01*
X162611Y109463D01*
X162422Y109652D01*
X162190Y109786D01*
X161932Y109855D01*
D02*
G37*
G36*
X162814Y106807D02*
X161798D01*
X160782D01*
Y106800D01*
X160851Y106542D01*
X160985Y106310D01*
X161174Y106121D01*
X161289Y106055D01*
Y105908D01*
X161174Y105842D01*
X160985Y105653D01*
X160851Y105421D01*
X160782Y105163D01*
Y104895D01*
X160851Y104637D01*
X160985Y104405D01*
X161174Y104216D01*
X161406Y104082D01*
X161664Y104013D01*
X161932D01*
X162190Y104082D01*
X162422Y104216D01*
X162611Y104405D01*
X162745Y104637D01*
X162814Y104895D01*
Y105163D01*
X162745Y105421D01*
X162611Y105653D01*
X162422Y105842D01*
X162307Y105908D01*
Y106055D01*
X162422Y106121D01*
X162611Y106310D01*
X162745Y106542D01*
X162814Y106800D01*
Y106807D01*
D02*
G37*
G36*
X195988Y105550D02*
X195013D01*
X194819Y105524D01*
X194639Y105450D01*
X194484Y105331D01*
X194365Y105176D01*
X194290Y104996D01*
X194265Y104802D01*
Y103827D01*
X194290Y103633D01*
X194365Y103453D01*
X194484Y103298D01*
X194639Y103179D01*
X194819Y103105D01*
X195013Y103079D01*
X195988D01*
X196181Y103105D01*
X196361Y103179D01*
X196516Y103298D01*
X196635Y103453D01*
X196710Y103633D01*
X196735Y103827D01*
Y104802D01*
X196710Y104996D01*
X196635Y105176D01*
X196516Y105331D01*
X196361Y105450D01*
X196181Y105524D01*
X195988Y105550D01*
D02*
G37*
G36*
X183388Y106806D02*
Y102235D01*
X186064D01*
Y104013D01*
X186029Y104451D01*
X185926Y104879D01*
X185758Y105285D01*
X185528Y105660D01*
X185243Y105995D01*
X184908Y106280D01*
X184533Y106510D01*
X184127Y106678D01*
X183699Y106781D01*
X183388Y106806D01*
D02*
G37*
G36*
X183134D02*
X182823Y106781D01*
X182395Y106678D01*
X181989Y106510D01*
X181614Y106280D01*
X181279Y105995D01*
X180994Y105660D01*
X180764Y105285D01*
X180596Y104879D01*
X180493Y104451D01*
X180458Y104013D01*
Y102235D01*
X183134D01*
Y106806D01*
D02*
G37*
G36*
X195662Y100543D02*
X195338D01*
X195026Y100460D01*
X194745Y100298D01*
X194517Y100069D01*
X194355Y99789D01*
X194271Y99476D01*
Y99153D01*
X194355Y98840D01*
X194517Y98560D01*
X194745Y98331D01*
X195026Y98169D01*
X195338Y98085D01*
X195662D01*
X195974Y98169D01*
X196255Y98331D01*
X196483Y98560D01*
X196645Y98840D01*
X196729Y99153D01*
Y99476D01*
X196645Y99789D01*
X196483Y100069D01*
X196255Y100298D01*
X195974Y100460D01*
X195662Y100543D01*
D02*
G37*
G36*
X186064Y101981D02*
X183388D01*
Y97410D01*
X183699Y97435D01*
X184127Y97538D01*
X184533Y97706D01*
X184908Y97936D01*
X185243Y98221D01*
X185528Y98556D01*
X185758Y98931D01*
X185926Y99337D01*
X186029Y99765D01*
X186064Y100203D01*
Y101981D01*
D02*
G37*
G36*
X183134D02*
X180458D01*
Y100203D01*
X180493Y99765D01*
X180596Y99337D01*
X180764Y98931D01*
X180994Y98556D01*
X181279Y98221D01*
X181614Y97936D01*
X181989Y97706D01*
X182395Y97538D01*
X182823Y97435D01*
X183134Y97410D01*
Y101981D01*
D02*
G37*
G36*
X159950Y98298D02*
X159582D01*
X159227Y98203D01*
X158908Y98019D01*
X158648Y97759D01*
X158464Y97440D01*
X158369Y97085D01*
Y96717D01*
X158464Y96362D01*
X158648Y96043D01*
X158908Y95783D01*
X159227Y95599D01*
X159582Y95504D01*
X159950D01*
X160305Y95599D01*
X160624Y95783D01*
X160884Y96043D01*
X161068Y96362D01*
X161163Y96717D01*
Y97085D01*
X161068Y97440D01*
X160884Y97759D01*
X160624Y98019D01*
X160305Y98203D01*
X159950Y98298D01*
D02*
G37*
G36*
X195988Y94627D02*
X195013D01*
X194819Y94602D01*
X194639Y94527D01*
X194484Y94408D01*
X194365Y94253D01*
X194290Y94073D01*
X194265Y93879D01*
Y92904D01*
X194290Y92711D01*
X194365Y92531D01*
X194484Y92376D01*
X194639Y92257D01*
X194819Y92182D01*
X195013Y92157D01*
X195988D01*
X196181Y92182D01*
X196361Y92257D01*
X196516Y92376D01*
X196635Y92531D01*
X196710Y92711D01*
X196735Y92904D01*
Y93879D01*
X196710Y94073D01*
X196635Y94253D01*
X196516Y94408D01*
X196361Y94527D01*
X196181Y94602D01*
X195988Y94627D01*
D02*
G37*
G36*
X113382Y93254D02*
X113118D01*
X112862Y93186D01*
X112634Y93053D01*
X112447Y92866D01*
X112314Y92638D01*
X112246Y92382D01*
Y92118D01*
X112314Y91862D01*
X112447Y91634D01*
X112634Y91447D01*
X112862Y91314D01*
X113118Y91246D01*
X113382D01*
X113638Y91314D01*
X113866Y91447D01*
X114053Y91634D01*
X114186Y91862D01*
X114254Y92118D01*
Y92382D01*
X114186Y92638D01*
X114053Y92866D01*
X113866Y93053D01*
X113638Y93186D01*
X113382Y93254D01*
D02*
G37*
G36*
X106882D02*
X106618D01*
X106362Y93186D01*
X106134Y93053D01*
X105947Y92866D01*
X105814Y92638D01*
X105746Y92382D01*
Y92118D01*
X105814Y91862D01*
X105947Y91634D01*
X106134Y91447D01*
X106362Y91314D01*
X106618Y91246D01*
X106882D01*
X107138Y91314D01*
X107366Y91447D01*
X107553Y91634D01*
X107686Y91862D01*
X107754Y92118D01*
Y92382D01*
X107686Y92638D01*
X107553Y92866D01*
X107366Y93053D01*
X107138Y93186D01*
X106882Y93254D01*
D02*
G37*
G36*
X175139Y92324D02*
X174861D01*
X174593Y92252D01*
X174353Y92113D01*
X174157Y91917D01*
X174018Y91677D01*
X173946Y91409D01*
Y91131D01*
X174018Y90863D01*
X174157Y90623D01*
X174353Y90427D01*
X174593Y90288D01*
X174861Y90216D01*
X175139D01*
X175407Y90288D01*
X175647Y90427D01*
X175843Y90623D01*
X175982Y90863D01*
X176054Y91131D01*
Y91409D01*
X175982Y91677D01*
X175843Y91917D01*
X175647Y92113D01*
X175407Y92252D01*
X175139Y92324D01*
D02*
G37*
G36*
X160139D02*
X159861D01*
X159593Y92252D01*
X159353Y92113D01*
X159157Y91917D01*
X159018Y91677D01*
X158946Y91409D01*
Y91131D01*
X159018Y90863D01*
X159157Y90623D01*
X159353Y90427D01*
X159593Y90288D01*
X159861Y90216D01*
X160139D01*
X160407Y90288D01*
X160647Y90427D01*
X160843Y90623D01*
X160982Y90863D01*
X161054Y91131D01*
Y91409D01*
X160982Y91677D01*
X160843Y91917D01*
X160647Y92113D01*
X160407Y92252D01*
X160139Y92324D01*
D02*
G37*
G36*
X145139D02*
X144861D01*
X144593Y92252D01*
X144353Y92113D01*
X144157Y91917D01*
X144018Y91677D01*
X143946Y91409D01*
Y91131D01*
X144018Y90863D01*
X144157Y90623D01*
X144353Y90427D01*
X144593Y90288D01*
X144861Y90216D01*
X145139D01*
X145407Y90288D01*
X145647Y90427D01*
X145843Y90623D01*
X145982Y90863D01*
X146054Y91131D01*
Y91409D01*
X145982Y91677D01*
X145843Y91917D01*
X145647Y92113D01*
X145407Y92252D01*
X145139Y92324D01*
D02*
G37*
G36*
X130139D02*
X129861D01*
X129593Y92252D01*
X129353Y92113D01*
X129157Y91917D01*
X129018Y91677D01*
X128946Y91409D01*
Y91131D01*
X129018Y90863D01*
X129157Y90623D01*
X129353Y90427D01*
X129593Y90288D01*
X129861Y90216D01*
X130139D01*
X130407Y90288D01*
X130647Y90427D01*
X130843Y90623D01*
X130982Y90863D01*
X131054Y91131D01*
Y91409D01*
X130982Y91677D01*
X130843Y91917D01*
X130647Y92113D01*
X130407Y92252D01*
X130139Y92324D01*
D02*
G37*
G36*
X175139Y89784D02*
X174861D01*
X174593Y89712D01*
X174353Y89573D01*
X174157Y89377D01*
X174018Y89137D01*
X173946Y88869D01*
Y88591D01*
X174018Y88323D01*
X174157Y88083D01*
X174353Y87887D01*
X174593Y87748D01*
X174861Y87676D01*
X175139D01*
X175407Y87748D01*
X175647Y87887D01*
X175843Y88083D01*
X175982Y88323D01*
X176054Y88591D01*
Y88869D01*
X175982Y89137D01*
X175843Y89377D01*
X175647Y89573D01*
X175407Y89712D01*
X175139Y89784D01*
D02*
G37*
G36*
X160139D02*
X159861D01*
X159593Y89712D01*
X159353Y89573D01*
X159157Y89377D01*
X159018Y89137D01*
X158946Y88869D01*
Y88591D01*
X159018Y88323D01*
X159157Y88083D01*
X159353Y87887D01*
X159593Y87748D01*
X159861Y87676D01*
X160139D01*
X160407Y87748D01*
X160647Y87887D01*
X160843Y88083D01*
X160982Y88323D01*
X161054Y88591D01*
Y88869D01*
X160982Y89137D01*
X160843Y89377D01*
X160647Y89573D01*
X160407Y89712D01*
X160139Y89784D01*
D02*
G37*
G36*
X145139D02*
X144861D01*
X144593Y89712D01*
X144353Y89573D01*
X144157Y89377D01*
X144018Y89137D01*
X143946Y88869D01*
Y88591D01*
X144018Y88323D01*
X144157Y88083D01*
X144353Y87887D01*
X144593Y87748D01*
X144861Y87676D01*
X145139D01*
X145407Y87748D01*
X145647Y87887D01*
X145843Y88083D01*
X145982Y88323D01*
X146054Y88591D01*
Y88869D01*
X145982Y89137D01*
X145843Y89377D01*
X145647Y89573D01*
X145407Y89712D01*
X145139Y89784D01*
D02*
G37*
G36*
X130139D02*
X129861D01*
X129593Y89712D01*
X129353Y89573D01*
X129157Y89377D01*
X129018Y89137D01*
X128946Y88869D01*
Y88591D01*
X129018Y88323D01*
X129157Y88083D01*
X129353Y87887D01*
X129593Y87748D01*
X129861Y87676D01*
X130139D01*
X130407Y87748D01*
X130647Y87887D01*
X130843Y88083D01*
X130982Y88323D01*
X131054Y88591D01*
Y88869D01*
X130982Y89137D01*
X130843Y89377D01*
X130647Y89573D01*
X130407Y89712D01*
X130139Y89784D01*
D02*
G37*
G36*
X106882Y88754D02*
X106618D01*
X106362Y88686D01*
X106134Y88553D01*
X105947Y88366D01*
X105814Y88138D01*
X105746Y87882D01*
Y87618D01*
X105814Y87362D01*
X105947Y87134D01*
X106134Y86947D01*
X106362Y86814D01*
X106618Y86746D01*
X106882D01*
X107138Y86814D01*
X107366Y86947D01*
X107553Y87134D01*
X107686Y87362D01*
X107754Y87618D01*
Y87882D01*
X107686Y88138D01*
X107553Y88366D01*
X107366Y88553D01*
X107138Y88686D01*
X106882Y88754D01*
D02*
G37*
G36*
X183388Y116722D02*
X182950Y116687D01*
X182522Y116584D01*
X182116Y116416D01*
X181741Y116186D01*
X181406Y115901D01*
X181121Y115566D01*
X180891Y115191D01*
X180723Y114785D01*
X180620Y114357D01*
X180585Y113919D01*
Y110109D01*
X180620Y109671D01*
X180723Y109243D01*
X180891Y108837D01*
X181121Y108462D01*
X181406Y108127D01*
X181741Y107842D01*
X182116Y107612D01*
X182522Y107444D01*
X182950Y107341D01*
X183388Y107306D01*
X183826Y107341D01*
X184254Y107444D01*
X184660Y107612D01*
X185035Y107842D01*
X185370Y108127D01*
X185655Y108462D01*
X185885Y108837D01*
X186053Y109243D01*
X186156Y109671D01*
X186191Y110109D01*
Y110125D01*
X186976D01*
X188230Y108871D01*
Y90149D01*
X188263Y89806D01*
X188364Y89475D01*
X188527Y89170D01*
X188746Y88903D01*
X190503Y87146D01*
X190503Y87146D01*
X190770Y86927D01*
X191075Y86764D01*
X191406Y86663D01*
X191749Y86630D01*
X191749Y86630D01*
X195500D01*
X195844Y86663D01*
X196174Y86764D01*
X196479Y86927D01*
X196746Y87146D01*
X196965Y87413D01*
X197128Y87718D01*
X197229Y88048D01*
X197262Y88392D01*
X197229Y88736D01*
X197128Y89066D01*
X196965Y89371D01*
X196746Y89638D01*
X196479Y89857D01*
X196174Y90020D01*
X195844Y90121D01*
X195500Y90154D01*
X192479D01*
X191754Y90879D01*
Y109601D01*
X191754Y109601D01*
X191721Y109945D01*
X191620Y110275D01*
X191457Y110580D01*
X191238Y110847D01*
X188952Y113133D01*
X188685Y113352D01*
X188380Y113515D01*
X188050Y113616D01*
X187706Y113649D01*
X186803D01*
X186161Y114291D01*
X186156Y114357D01*
X186053Y114785D01*
X185885Y115191D01*
X185655Y115566D01*
X185370Y115901D01*
X185035Y116186D01*
X184660Y116416D01*
X184254Y116584D01*
X183826Y116687D01*
X183388Y116722D01*
D02*
G37*
G36*
X195902Y81154D02*
X195598D01*
X195305Y81075D01*
X195041Y80923D01*
X194827Y80709D01*
X194675Y80445D01*
X194596Y80152D01*
Y79848D01*
X194675Y79555D01*
X194827Y79291D01*
X195041Y79077D01*
X195305Y78925D01*
X195598Y78846D01*
X195902D01*
X196195Y78925D01*
X196459Y79077D01*
X196673Y79291D01*
X196825Y79555D01*
X196904Y79848D01*
Y80152D01*
X196825Y80445D01*
X196673Y80709D01*
X196459Y80923D01*
X196195Y81075D01*
X195902Y81154D01*
D02*
G37*
G36*
X188402D02*
X188098D01*
X187805Y81075D01*
X187541Y80923D01*
X187327Y80709D01*
X187175Y80445D01*
X187096Y80152D01*
Y79848D01*
X187175Y79555D01*
X187327Y79291D01*
X187541Y79077D01*
X187805Y78925D01*
X188098Y78846D01*
X188402D01*
X188695Y78925D01*
X188959Y79077D01*
X189173Y79291D01*
X189325Y79555D01*
X189404Y79848D01*
Y80152D01*
X189325Y80445D01*
X189173Y80709D01*
X188959Y80923D01*
X188695Y81075D01*
X188402Y81154D01*
D02*
G37*
G36*
X113382Y78254D02*
X113377D01*
Y77377D01*
X114254D01*
Y77382D01*
X114186Y77638D01*
X114053Y77866D01*
X113866Y78053D01*
X113638Y78186D01*
X113382Y78254D01*
D02*
G37*
G36*
X113123D02*
X113118D01*
X112862Y78186D01*
X112634Y78053D01*
X112447Y77866D01*
X112314Y77638D01*
X112246Y77382D01*
Y77377D01*
X113123D01*
Y78254D01*
D02*
G37*
G36*
X106882D02*
X106877D01*
Y77377D01*
X107754D01*
Y77382D01*
X107686Y77638D01*
X107553Y77866D01*
X107366Y78053D01*
X107138Y78186D01*
X106882Y78254D01*
D02*
G37*
G36*
X106623D02*
X106618D01*
X106362Y78186D01*
X106134Y78053D01*
X105947Y77866D01*
X105814Y77638D01*
X105746Y77382D01*
Y77377D01*
X106623D01*
Y78254D01*
D02*
G37*
G36*
X114254Y77123D02*
X113377D01*
Y76246D01*
X113382D01*
X113638Y76314D01*
X113866Y76447D01*
X114053Y76634D01*
X114186Y76862D01*
X114254Y77118D01*
Y77123D01*
D02*
G37*
G36*
X113123D02*
X112246D01*
Y77118D01*
X112314Y76862D01*
X112447Y76634D01*
X112634Y76447D01*
X112862Y76314D01*
X113118Y76246D01*
X113123D01*
Y77123D01*
D02*
G37*
G36*
X107754D02*
X106877D01*
Y76246D01*
X106882D01*
X107138Y76314D01*
X107366Y76447D01*
X107553Y76634D01*
X107686Y76862D01*
X107754Y77118D01*
Y77123D01*
D02*
G37*
G36*
X106623D02*
X105746D01*
Y77118D01*
X105814Y76862D01*
X105947Y76634D01*
X106134Y76447D01*
X106362Y76314D01*
X106618Y76246D01*
X106623D01*
Y77123D01*
D02*
G37*
G36*
X175139Y77324D02*
X174861D01*
X174593Y77252D01*
X174353Y77113D01*
X174157Y76917D01*
X174018Y76677D01*
X173946Y76409D01*
Y76131D01*
X174018Y75863D01*
X174157Y75623D01*
X174353Y75427D01*
X174593Y75288D01*
X174861Y75216D01*
X175139D01*
X175407Y75288D01*
X175647Y75427D01*
X175843Y75623D01*
X175982Y75863D01*
X176054Y76131D01*
Y76409D01*
X175982Y76677D01*
X175843Y76917D01*
X175647Y77113D01*
X175407Y77252D01*
X175139Y77324D01*
D02*
G37*
G36*
X160139D02*
X159861D01*
X159593Y77252D01*
X159353Y77113D01*
X159157Y76917D01*
X159018Y76677D01*
X158946Y76409D01*
Y76131D01*
X159018Y75863D01*
X159157Y75623D01*
X159353Y75427D01*
X159593Y75288D01*
X159861Y75216D01*
X160139D01*
X160407Y75288D01*
X160647Y75427D01*
X160843Y75623D01*
X160982Y75863D01*
X161054Y76131D01*
Y76409D01*
X160982Y76677D01*
X160843Y76917D01*
X160647Y77113D01*
X160407Y77252D01*
X160139Y77324D01*
D02*
G37*
G36*
X145139D02*
X144861D01*
X144593Y77252D01*
X144353Y77113D01*
X144157Y76917D01*
X144018Y76677D01*
X143946Y76409D01*
Y76131D01*
X144018Y75863D01*
X144157Y75623D01*
X144353Y75427D01*
X144593Y75288D01*
X144861Y75216D01*
X145139D01*
X145407Y75288D01*
X145647Y75427D01*
X145843Y75623D01*
X145982Y75863D01*
X146054Y76131D01*
Y76409D01*
X145982Y76677D01*
X145843Y76917D01*
X145647Y77113D01*
X145407Y77252D01*
X145139Y77324D01*
D02*
G37*
G36*
X130139D02*
X129861D01*
X129593Y77252D01*
X129353Y77113D01*
X129157Y76917D01*
X129018Y76677D01*
X128946Y76409D01*
Y76131D01*
X129018Y75863D01*
X129157Y75623D01*
X129353Y75427D01*
X129593Y75288D01*
X129861Y75216D01*
X130139D01*
X130407Y75288D01*
X130647Y75427D01*
X130843Y75623D01*
X130982Y75863D01*
X131054Y76131D01*
Y76409D01*
X130982Y76677D01*
X130843Y76917D01*
X130647Y77113D01*
X130407Y77252D01*
X130139Y77324D01*
D02*
G37*
G36*
X188402Y76154D02*
X188377D01*
Y75127D01*
X189404D01*
Y75152D01*
X189325Y75445D01*
X189173Y75709D01*
X188959Y75923D01*
X188695Y76075D01*
X188402Y76154D01*
D02*
G37*
G36*
X188123D02*
X188098D01*
X187805Y76075D01*
X187541Y75923D01*
X187327Y75709D01*
X187175Y75445D01*
X187096Y75152D01*
Y75127D01*
X188123D01*
Y76154D01*
D02*
G37*
G36*
X175139Y74784D02*
X174861D01*
X174593Y74712D01*
X174353Y74573D01*
X174270Y74491D01*
X160730D01*
X160647Y74573D01*
X160407Y74712D01*
X160139Y74784D01*
X159861D01*
X159593Y74712D01*
X159353Y74573D01*
X159270Y74491D01*
X145730D01*
X145647Y74573D01*
X145407Y74712D01*
X145139Y74784D01*
X144861D01*
X144593Y74712D01*
X144353Y74573D01*
X144270Y74491D01*
X130730D01*
X130647Y74573D01*
X130407Y74712D01*
X130139Y74784D01*
X129861D01*
X129593Y74712D01*
X129353Y74573D01*
X129157Y74377D01*
X129018Y74137D01*
X128946Y73869D01*
Y73752D01*
X126843Y71649D01*
X126722Y71491D01*
X126646Y71308D01*
X126620Y71111D01*
Y46349D01*
X126646Y46152D01*
X126722Y45969D01*
X126843Y45811D01*
X128946Y43708D01*
Y43591D01*
X129018Y43323D01*
X129157Y43083D01*
X129353Y42887D01*
X129593Y42748D01*
X129861Y42676D01*
X130139D01*
X130407Y42748D01*
X130647Y42887D01*
X130843Y43083D01*
X130982Y43323D01*
X131054Y43591D01*
Y43869D01*
X130982Y44137D01*
X130843Y44377D01*
X130647Y44573D01*
X130407Y44712D01*
X130139Y44784D01*
X130022D01*
X129670Y45136D01*
X129735Y45250D01*
X129861Y45216D01*
X130139D01*
X130407Y45288D01*
X130647Y45427D01*
X130843Y45623D01*
X130982Y45863D01*
X131054Y46131D01*
Y46409D01*
X130982Y46677D01*
X130843Y46917D01*
X130647Y47113D01*
X130407Y47252D01*
X130139Y47324D01*
X129861D01*
X129593Y47252D01*
X129353Y47113D01*
X129157Y46917D01*
X129018Y46677D01*
X128946Y46409D01*
Y46131D01*
X128980Y46005D01*
X128866Y45940D01*
X128142Y46664D01*
Y70796D01*
X130022Y72676D01*
X130139D01*
X130407Y72748D01*
X130647Y72887D01*
X130730Y72969D01*
X144270D01*
X144353Y72887D01*
X144593Y72748D01*
X144861Y72676D01*
X145139D01*
X145407Y72748D01*
X145647Y72887D01*
X145730Y72969D01*
X159270D01*
X159353Y72887D01*
X159593Y72748D01*
X159861Y72676D01*
X160139D01*
X160407Y72748D01*
X160647Y72887D01*
X160730Y72969D01*
X174270D01*
X174353Y72887D01*
X174593Y72748D01*
X174861Y72676D01*
X175139D01*
X175407Y72748D01*
X175647Y72887D01*
X175843Y73083D01*
X175982Y73323D01*
X176054Y73591D01*
Y73869D01*
X175982Y74137D01*
X175843Y74377D01*
X175647Y74573D01*
X175407Y74712D01*
X175139Y74784D01*
D02*
G37*
G36*
X96409Y76054D02*
X96131D01*
X95863Y75982D01*
X95623Y75843D01*
X95427Y75647D01*
X95288Y75407D01*
X95216Y75139D01*
Y74861D01*
X95288Y74593D01*
X95427Y74353D01*
X95623Y74157D01*
X95863Y74018D01*
X96131Y73946D01*
X96409D01*
X96677Y74018D01*
X96917Y74157D01*
X97113Y74353D01*
X97252Y74593D01*
X97324Y74861D01*
Y75139D01*
X97252Y75407D01*
X97113Y75647D01*
X96917Y75843D01*
X96677Y75982D01*
X96409Y76054D01*
D02*
G37*
G36*
X93869D02*
X93591D01*
X93323Y75982D01*
X93083Y75843D01*
X92887Y75647D01*
X92748Y75407D01*
X92676Y75139D01*
Y74861D01*
X92748Y74593D01*
X92887Y74353D01*
X93083Y74157D01*
X93323Y74018D01*
X93591Y73946D01*
X93869D01*
X94137Y74018D01*
X94377Y74157D01*
X94573Y74353D01*
X94712Y74593D01*
X94784Y74861D01*
Y75139D01*
X94712Y75407D01*
X94573Y75647D01*
X94377Y75843D01*
X94137Y75982D01*
X93869Y76054D01*
D02*
G37*
G36*
X195902Y76154D02*
X195598D01*
X195305Y76075D01*
X195041Y75923D01*
X194827Y75709D01*
X194675Y75445D01*
X194596Y75152D01*
Y74848D01*
X194675Y74555D01*
X194827Y74291D01*
X195041Y74077D01*
X195305Y73925D01*
X195598Y73846D01*
X195902D01*
X196195Y73925D01*
X196459Y74077D01*
X196673Y74291D01*
X196825Y74555D01*
X196904Y74848D01*
Y75152D01*
X196825Y75445D01*
X196673Y75709D01*
X196459Y75923D01*
X196195Y76075D01*
X195902Y76154D01*
D02*
G37*
G36*
X189404Y74873D02*
X188377D01*
Y73846D01*
X188402D01*
X188695Y73925D01*
X188959Y74077D01*
X189173Y74291D01*
X189325Y74555D01*
X189404Y74848D01*
Y74873D01*
D02*
G37*
G36*
X188123D02*
X187096D01*
Y74848D01*
X187175Y74555D01*
X187327Y74291D01*
X187541Y74077D01*
X187805Y73925D01*
X188098Y73846D01*
X188123D01*
Y74873D01*
D02*
G37*
G36*
X106882Y73754D02*
X106618D01*
X106362Y73686D01*
X106134Y73553D01*
X105947Y73366D01*
X105814Y73138D01*
X105746Y72882D01*
Y72618D01*
X105814Y72362D01*
X105947Y72134D01*
X106134Y71947D01*
X106362Y71814D01*
X106618Y71746D01*
X106882D01*
X107138Y71814D01*
X107366Y71947D01*
X107553Y72134D01*
X107686Y72362D01*
X107754Y72618D01*
Y72882D01*
X107686Y73138D01*
X107553Y73366D01*
X107366Y73553D01*
X107138Y73686D01*
X106882Y73754D01*
D02*
G37*
G36*
X195902Y71154D02*
X195598D01*
X195305Y71075D01*
X195041Y70923D01*
X194827Y70709D01*
X194675Y70445D01*
X194596Y70152D01*
Y69848D01*
X194675Y69555D01*
X194827Y69291D01*
X195041Y69077D01*
X195305Y68925D01*
X195598Y68846D01*
X195902D01*
X196195Y68925D01*
X196459Y69077D01*
X196673Y69291D01*
X196825Y69555D01*
X196904Y69848D01*
Y70152D01*
X196825Y70445D01*
X196673Y70709D01*
X196459Y70923D01*
X196195Y71075D01*
X195902Y71154D01*
D02*
G37*
G36*
X188402D02*
X188098D01*
X187805Y71075D01*
X187541Y70923D01*
X187327Y70709D01*
X187175Y70445D01*
X187096Y70152D01*
Y69848D01*
X187175Y69555D01*
X187327Y69291D01*
X187541Y69077D01*
X187805Y68925D01*
X188098Y68846D01*
X188402D01*
X188695Y68925D01*
X188959Y69077D01*
X189173Y69291D01*
X189325Y69555D01*
X189404Y69848D01*
Y70152D01*
X189325Y70445D01*
X189173Y70709D01*
X188959Y70923D01*
X188695Y71075D01*
X188402Y71154D01*
D02*
G37*
G36*
X113382Y63254D02*
X113377D01*
Y62377D01*
X114254D01*
Y62382D01*
X114186Y62638D01*
X114053Y62866D01*
X113866Y63053D01*
X113638Y63186D01*
X113382Y63254D01*
D02*
G37*
G36*
X113123D02*
X113118D01*
X112862Y63186D01*
X112634Y63053D01*
X112447Y62866D01*
X112314Y62638D01*
X112246Y62382D01*
Y62377D01*
X113123D01*
Y63254D01*
D02*
G37*
G36*
X106882D02*
X106877D01*
Y62377D01*
X107754D01*
Y62382D01*
X107686Y62638D01*
X107553Y62866D01*
X107366Y63053D01*
X107138Y63186D01*
X106882Y63254D01*
D02*
G37*
G36*
X106623D02*
X106618D01*
X106362Y63186D01*
X106134Y63053D01*
X105947Y62866D01*
X105814Y62638D01*
X105746Y62382D01*
Y62377D01*
X106623D01*
Y63254D01*
D02*
G37*
G36*
X114254Y62123D02*
X113377D01*
Y61246D01*
X113382D01*
X113638Y61314D01*
X113866Y61447D01*
X114053Y61634D01*
X114186Y61862D01*
X114254Y62118D01*
Y62123D01*
D02*
G37*
G36*
X113123D02*
X112246D01*
Y62118D01*
X112314Y61862D01*
X112447Y61634D01*
X112634Y61447D01*
X112862Y61314D01*
X113118Y61246D01*
X113123D01*
Y62123D01*
D02*
G37*
G36*
X107754D02*
X106877D01*
Y61246D01*
X106882D01*
X107138Y61314D01*
X107366Y61447D01*
X107553Y61634D01*
X107686Y61862D01*
X107754Y62118D01*
Y62123D01*
D02*
G37*
G36*
X106623D02*
X105746D01*
Y62118D01*
X105814Y61862D01*
X105947Y61634D01*
X106134Y61447D01*
X106362Y61314D01*
X106618Y61246D01*
X106623D01*
Y62123D01*
D02*
G37*
G36*
X175139Y62324D02*
X174861D01*
X174593Y62252D01*
X174353Y62113D01*
X174157Y61917D01*
X174018Y61677D01*
X173946Y61409D01*
Y61131D01*
X174018Y60863D01*
X174157Y60623D01*
X174353Y60427D01*
X174593Y60288D01*
X174861Y60216D01*
X175139D01*
X175407Y60288D01*
X175647Y60427D01*
X175843Y60623D01*
X175982Y60863D01*
X176054Y61131D01*
Y61409D01*
X175982Y61677D01*
X175843Y61917D01*
X175647Y62113D01*
X175407Y62252D01*
X175139Y62324D01*
D02*
G37*
G36*
X160139D02*
X159861D01*
X159593Y62252D01*
X159353Y62113D01*
X159157Y61917D01*
X159018Y61677D01*
X158946Y61409D01*
Y61131D01*
X159018Y60863D01*
X159157Y60623D01*
X159353Y60427D01*
X159593Y60288D01*
X159861Y60216D01*
X160139D01*
X160407Y60288D01*
X160647Y60427D01*
X160843Y60623D01*
X160982Y60863D01*
X161054Y61131D01*
Y61409D01*
X160982Y61677D01*
X160843Y61917D01*
X160647Y62113D01*
X160407Y62252D01*
X160139Y62324D01*
D02*
G37*
G36*
X145139D02*
X144861D01*
X144593Y62252D01*
X144353Y62113D01*
X144157Y61917D01*
X144018Y61677D01*
X143946Y61409D01*
Y61131D01*
X144018Y60863D01*
X144157Y60623D01*
X144353Y60427D01*
X144593Y60288D01*
X144861Y60216D01*
X145139D01*
X145407Y60288D01*
X145647Y60427D01*
X145843Y60623D01*
X145982Y60863D01*
X146054Y61131D01*
Y61409D01*
X145982Y61677D01*
X145843Y61917D01*
X145647Y62113D01*
X145407Y62252D01*
X145139Y62324D01*
D02*
G37*
G36*
X130139D02*
X129861D01*
X129593Y62252D01*
X129353Y62113D01*
X129157Y61917D01*
X129018Y61677D01*
X128946Y61409D01*
Y61131D01*
X129018Y60863D01*
X129157Y60623D01*
X129353Y60427D01*
X129593Y60288D01*
X129861Y60216D01*
X130139D01*
X130407Y60288D01*
X130647Y60427D01*
X130843Y60623D01*
X130982Y60863D01*
X131054Y61131D01*
Y61409D01*
X130982Y61677D01*
X130843Y61917D01*
X130647Y62113D01*
X130407Y62252D01*
X130139Y62324D01*
D02*
G37*
G36*
X96409Y61054D02*
X96131D01*
X95863Y60982D01*
X95623Y60843D01*
X95427Y60647D01*
X95288Y60407D01*
X95216Y60139D01*
Y59861D01*
X95288Y59593D01*
X95427Y59353D01*
X95623Y59157D01*
X95863Y59018D01*
X96131Y58946D01*
X96409D01*
X96677Y59018D01*
X96917Y59157D01*
X97113Y59353D01*
X97252Y59593D01*
X97324Y59861D01*
Y60139D01*
X97252Y60407D01*
X97113Y60647D01*
X96917Y60843D01*
X96677Y60982D01*
X96409Y61054D01*
D02*
G37*
G36*
X93869D02*
X93591D01*
X93323Y60982D01*
X93083Y60843D01*
X92887Y60647D01*
X92748Y60407D01*
X92676Y60139D01*
Y59861D01*
X92748Y59593D01*
X92887Y59353D01*
X93083Y59157D01*
X93323Y59018D01*
X93591Y58946D01*
X93869D01*
X94137Y59018D01*
X94377Y59157D01*
X94573Y59353D01*
X94712Y59593D01*
X94784Y59861D01*
Y60139D01*
X94712Y60407D01*
X94573Y60647D01*
X94377Y60843D01*
X94137Y60982D01*
X93869Y61054D01*
D02*
G37*
G36*
X175139Y59784D02*
X174861D01*
X174593Y59712D01*
X174353Y59573D01*
X174157Y59377D01*
X174018Y59137D01*
X173946Y58869D01*
Y58591D01*
X174018Y58323D01*
X174157Y58083D01*
X174353Y57887D01*
X174593Y57748D01*
X174861Y57676D01*
X175139D01*
X175407Y57748D01*
X175647Y57887D01*
X175843Y58083D01*
X175982Y58323D01*
X176054Y58591D01*
Y58869D01*
X175982Y59137D01*
X175843Y59377D01*
X175647Y59573D01*
X175407Y59712D01*
X175139Y59784D01*
D02*
G37*
G36*
X160139D02*
X159861D01*
X159593Y59712D01*
X159353Y59573D01*
X159157Y59377D01*
X159018Y59137D01*
X158946Y58869D01*
Y58591D01*
X159018Y58323D01*
X159157Y58083D01*
X159353Y57887D01*
X159593Y57748D01*
X159861Y57676D01*
X160139D01*
X160407Y57748D01*
X160647Y57887D01*
X160843Y58083D01*
X160982Y58323D01*
X161054Y58591D01*
Y58869D01*
X160982Y59137D01*
X160843Y59377D01*
X160647Y59573D01*
X160407Y59712D01*
X160139Y59784D01*
D02*
G37*
G36*
X145139D02*
X144861D01*
X144593Y59712D01*
X144353Y59573D01*
X144157Y59377D01*
X144018Y59137D01*
X143946Y58869D01*
Y58591D01*
X144018Y58323D01*
X144157Y58083D01*
X144353Y57887D01*
X144593Y57748D01*
X144861Y57676D01*
X145139D01*
X145407Y57748D01*
X145647Y57887D01*
X145843Y58083D01*
X145982Y58323D01*
X146054Y58591D01*
Y58869D01*
X145982Y59137D01*
X145843Y59377D01*
X145647Y59573D01*
X145407Y59712D01*
X145139Y59784D01*
D02*
G37*
G36*
X130139D02*
X129861D01*
X129593Y59712D01*
X129353Y59573D01*
X129157Y59377D01*
X129018Y59137D01*
X128946Y58869D01*
Y58591D01*
X129018Y58323D01*
X129157Y58083D01*
X129353Y57887D01*
X129593Y57748D01*
X129861Y57676D01*
X130139D01*
X130407Y57748D01*
X130647Y57887D01*
X130843Y58083D01*
X130982Y58323D01*
X131054Y58591D01*
Y58869D01*
X130982Y59137D01*
X130843Y59377D01*
X130647Y59573D01*
X130407Y59712D01*
X130139Y59784D01*
D02*
G37*
G36*
X106882Y58754D02*
X106618D01*
X106362Y58686D01*
X106134Y58553D01*
X105947Y58366D01*
X105814Y58138D01*
X105746Y57882D01*
Y57618D01*
X105814Y57362D01*
X105947Y57134D01*
X106134Y56947D01*
X106362Y56814D01*
X106618Y56746D01*
X106882D01*
X107138Y56814D01*
X107366Y56947D01*
X107553Y57134D01*
X107686Y57362D01*
X107754Y57618D01*
Y57882D01*
X107686Y58138D01*
X107553Y58366D01*
X107366Y58553D01*
X107138Y58686D01*
X106882Y58754D01*
D02*
G37*
G36*
X134102Y67310D02*
X133868D01*
X133642Y67249D01*
X133439Y67132D01*
X133274Y66967D01*
X133157Y66764D01*
X133096Y66538D01*
Y66304D01*
X133157Y66078D01*
X133274Y65875D01*
X133439Y65710D01*
X133642Y65593D01*
X133868Y65532D01*
X134102D01*
X134328Y65593D01*
X134446Y65660D01*
X184014D01*
X194596Y55078D01*
Y54848D01*
X194675Y54555D01*
X194827Y54291D01*
X195041Y54077D01*
X195305Y53925D01*
X195598Y53846D01*
X195902D01*
X196195Y53925D01*
X196459Y54077D01*
X196673Y54291D01*
X196825Y54555D01*
X196904Y54848D01*
Y55152D01*
X196825Y55445D01*
X196673Y55709D01*
X196459Y55923D01*
X196195Y56075D01*
X195902Y56154D01*
X195672D01*
X184867Y66959D01*
X184709Y67080D01*
X184526Y67156D01*
X184329Y67182D01*
X134446D01*
X134328Y67249D01*
X134102Y67310D01*
D02*
G37*
G36*
X113382Y48254D02*
X113377D01*
Y47377D01*
X114254D01*
Y47382D01*
X114186Y47638D01*
X114053Y47866D01*
X113866Y48053D01*
X113638Y48186D01*
X113382Y48254D01*
D02*
G37*
G36*
X113123D02*
X113118D01*
X112862Y48186D01*
X112634Y48053D01*
X112447Y47866D01*
X112314Y47638D01*
X112246Y47382D01*
Y47377D01*
X113123D01*
Y48254D01*
D02*
G37*
G36*
X106882D02*
X106877D01*
Y47377D01*
X107754D01*
Y47382D01*
X107686Y47638D01*
X107553Y47866D01*
X107366Y48053D01*
X107138Y48186D01*
X106882Y48254D01*
D02*
G37*
G36*
X106623D02*
X106618D01*
X106362Y48186D01*
X106134Y48053D01*
X105947Y47866D01*
X105814Y47638D01*
X105746Y47382D01*
Y47377D01*
X106623D01*
Y48254D01*
D02*
G37*
G36*
X114254Y47123D02*
X113377D01*
Y46246D01*
X113382D01*
X113638Y46314D01*
X113866Y46447D01*
X114053Y46634D01*
X114186Y46862D01*
X114254Y47118D01*
Y47123D01*
D02*
G37*
G36*
X113123D02*
X112246D01*
Y47118D01*
X112314Y46862D01*
X112447Y46634D01*
X112634Y46447D01*
X112862Y46314D01*
X113118Y46246D01*
X113123D01*
Y47123D01*
D02*
G37*
G36*
X107754D02*
X106877D01*
Y46246D01*
X106882D01*
X107138Y46314D01*
X107366Y46447D01*
X107553Y46634D01*
X107686Y46862D01*
X107754Y47118D01*
Y47123D01*
D02*
G37*
G36*
X106623D02*
X105746D01*
Y47118D01*
X105814Y46862D01*
X105947Y46634D01*
X106134Y46447D01*
X106362Y46314D01*
X106618Y46246D01*
X106623D01*
Y47123D01*
D02*
G37*
G36*
X175139Y47324D02*
X174861D01*
X174593Y47252D01*
X174353Y47113D01*
X174157Y46917D01*
X174018Y46677D01*
X173946Y46409D01*
Y46131D01*
X174018Y45863D01*
X174157Y45623D01*
X174353Y45427D01*
X174593Y45288D01*
X174861Y45216D01*
X175139D01*
X175407Y45288D01*
X175647Y45427D01*
X175843Y45623D01*
X175982Y45863D01*
X176054Y46131D01*
Y46409D01*
X175982Y46677D01*
X175843Y46917D01*
X175647Y47113D01*
X175407Y47252D01*
X175139Y47324D01*
D02*
G37*
G36*
X160139D02*
X159861D01*
X159593Y47252D01*
X159353Y47113D01*
X159157Y46917D01*
X159018Y46677D01*
X158946Y46409D01*
Y46131D01*
X159018Y45863D01*
X159157Y45623D01*
X159353Y45427D01*
X159593Y45288D01*
X159861Y45216D01*
X160139D01*
X160407Y45288D01*
X160647Y45427D01*
X160843Y45623D01*
X160982Y45863D01*
X161054Y46131D01*
Y46409D01*
X160982Y46677D01*
X160843Y46917D01*
X160647Y47113D01*
X160407Y47252D01*
X160139Y47324D01*
D02*
G37*
G36*
X145139D02*
X144861D01*
X144593Y47252D01*
X144353Y47113D01*
X144157Y46917D01*
X144018Y46677D01*
X143946Y46409D01*
Y46131D01*
X144018Y45863D01*
X144157Y45623D01*
X144353Y45427D01*
X144593Y45288D01*
X144861Y45216D01*
X145139D01*
X145407Y45288D01*
X145647Y45427D01*
X145843Y45623D01*
X145982Y45863D01*
X146054Y46131D01*
Y46409D01*
X145982Y46677D01*
X145843Y46917D01*
X145647Y47113D01*
X145407Y47252D01*
X145139Y47324D01*
D02*
G37*
G36*
X195988Y47130D02*
X195013D01*
X194819Y47104D01*
X194639Y47030D01*
X194484Y46911D01*
X194365Y46756D01*
X194290Y46576D01*
X194265Y46382D01*
Y45407D01*
X194290Y45213D01*
X194365Y45033D01*
X194484Y44878D01*
X194639Y44759D01*
X194819Y44685D01*
X195013Y44659D01*
X195988D01*
X196181Y44685D01*
X196361Y44759D01*
X196516Y44878D01*
X196635Y45033D01*
X196710Y45213D01*
X196735Y45407D01*
Y46382D01*
X196710Y46576D01*
X196635Y46756D01*
X196516Y46911D01*
X196361Y47030D01*
X196181Y47104D01*
X195988Y47130D01*
D02*
G37*
G36*
X96409Y46054D02*
X96131D01*
X95863Y45982D01*
X95623Y45843D01*
X95427Y45647D01*
X95288Y45407D01*
X95216Y45139D01*
Y44861D01*
X95288Y44593D01*
X95427Y44353D01*
X95623Y44157D01*
X95863Y44018D01*
X96131Y43946D01*
X96409D01*
X96677Y44018D01*
X96917Y44157D01*
X97113Y44353D01*
X97252Y44593D01*
X97324Y44861D01*
Y45139D01*
X97252Y45407D01*
X97113Y45647D01*
X96917Y45843D01*
X96677Y45982D01*
X96409Y46054D01*
D02*
G37*
G36*
X93869D02*
X93591D01*
X93323Y45982D01*
X93083Y45843D01*
X92887Y45647D01*
X92748Y45407D01*
X92676Y45139D01*
Y44861D01*
X92748Y44593D01*
X92887Y44353D01*
X93083Y44157D01*
X93323Y44018D01*
X93591Y43946D01*
X93869D01*
X94137Y44018D01*
X94377Y44157D01*
X94573Y44353D01*
X94712Y44593D01*
X94784Y44861D01*
Y45139D01*
X94712Y45407D01*
X94573Y45647D01*
X94377Y45843D01*
X94137Y45982D01*
X93869Y46054D01*
D02*
G37*
G36*
X113382Y43754D02*
X113118D01*
X112862Y43686D01*
X112634Y43553D01*
X112591Y43511D01*
X107409D01*
X107366Y43553D01*
X107138Y43686D01*
X106882Y43754D01*
X106618D01*
X106362Y43686D01*
X106134Y43553D01*
X105947Y43366D01*
X105814Y43138D01*
X105746Y42882D01*
Y42618D01*
X105814Y42362D01*
X105947Y42134D01*
X106134Y41947D01*
X106362Y41814D01*
X106618Y41746D01*
X106882D01*
X107138Y41814D01*
X107366Y41947D01*
X107409Y41989D01*
X112490D01*
Y21751D01*
X112515Y21554D01*
X112591Y21371D01*
X112712Y21213D01*
X122048Y11877D01*
Y5359D01*
X122006Y5316D01*
X121873Y5088D01*
X121805Y4832D01*
Y4568D01*
X121873Y4312D01*
X122006Y4084D01*
X122193Y3897D01*
X122421Y3764D01*
X122677Y3696D01*
X122941D01*
X123197Y3764D01*
X123425Y3897D01*
X123612Y4084D01*
X123745Y4312D01*
X123813Y4568D01*
Y4832D01*
X123745Y5088D01*
X123612Y5316D01*
X123570Y5359D01*
Y12192D01*
X123544Y12389D01*
X123499Y12496D01*
X123468Y12572D01*
X123347Y12730D01*
X114011Y22066D01*
Y42091D01*
X114053Y42134D01*
X114186Y42362D01*
X114254Y42618D01*
Y42882D01*
X114186Y43138D01*
X114053Y43366D01*
X113866Y43553D01*
X113638Y43686D01*
X113382Y43754D01*
D02*
G37*
G36*
X175139Y44784D02*
X174861D01*
X174593Y44712D01*
X174353Y44573D01*
X174157Y44377D01*
X174018Y44137D01*
X173946Y43869D01*
Y43591D01*
X174018Y43323D01*
X174157Y43083D01*
X174353Y42887D01*
X174593Y42748D01*
X174861Y42676D01*
X175139D01*
X175407Y42748D01*
X175647Y42887D01*
X175843Y43083D01*
X175982Y43323D01*
X176054Y43591D01*
Y43869D01*
X175982Y44137D01*
X175843Y44377D01*
X175647Y44573D01*
X175407Y44712D01*
X175139Y44784D01*
D02*
G37*
G36*
X160139D02*
X159861D01*
X159593Y44712D01*
X159353Y44573D01*
X159157Y44377D01*
X159018Y44137D01*
X158946Y43869D01*
Y43591D01*
X159018Y43323D01*
X159157Y43083D01*
X159353Y42887D01*
X159593Y42748D01*
X159861Y42676D01*
X160139D01*
X160407Y42748D01*
X160647Y42887D01*
X160843Y43083D01*
X160982Y43323D01*
X161054Y43591D01*
Y43869D01*
X160982Y44137D01*
X160843Y44377D01*
X160647Y44573D01*
X160407Y44712D01*
X160139Y44784D01*
D02*
G37*
G36*
X145139D02*
X144861D01*
X144593Y44712D01*
X144353Y44573D01*
X144157Y44377D01*
X144018Y44137D01*
X143946Y43869D01*
Y43591D01*
X144018Y43323D01*
X144157Y43083D01*
X144353Y42887D01*
X144593Y42748D01*
X144861Y42676D01*
X145139D01*
X145407Y42748D01*
X145647Y42887D01*
X145843Y43083D01*
X145982Y43323D01*
X146054Y43591D01*
Y43869D01*
X145982Y44137D01*
X145843Y44377D01*
X145647Y44573D01*
X145407Y44712D01*
X145139Y44784D01*
D02*
G37*
G36*
X195662Y42123D02*
X195338D01*
X195026Y42040D01*
X194745Y41878D01*
X194517Y41649D01*
X194355Y41369D01*
X194271Y41056D01*
Y40733D01*
X194355Y40420D01*
X194517Y40140D01*
X194745Y39911D01*
X195026Y39749D01*
X195338Y39665D01*
X195662D01*
X195974Y39749D01*
X196255Y39911D01*
X196483Y40140D01*
X196645Y40420D01*
X196729Y40733D01*
Y41056D01*
X196645Y41369D01*
X196483Y41649D01*
X196255Y41878D01*
X195974Y42040D01*
X195662Y42123D01*
D02*
G37*
G36*
X21680Y39076D02*
X21590D01*
Y36449D01*
X24217D01*
Y36539D01*
X24149Y36967D01*
X24015Y37379D01*
X23818Y37765D01*
X23564Y38116D01*
X23257Y38423D01*
X22906Y38677D01*
X22520Y38874D01*
X22108Y39008D01*
X21680Y39076D01*
D02*
G37*
G36*
X21336D02*
X21246D01*
X20818Y39008D01*
X20406Y38874D01*
X20020Y38677D01*
X19669Y38423D01*
X19362Y38116D01*
X19108Y37765D01*
X18911Y37379D01*
X18777Y36967D01*
X18709Y36539D01*
Y36449D01*
X21336D01*
Y39076D01*
D02*
G37*
G36*
X195988Y36160D02*
X195013D01*
X194819Y36135D01*
X194639Y36060D01*
X194484Y35941D01*
X194365Y35786D01*
X194290Y35606D01*
X194265Y35412D01*
Y34438D01*
X194290Y34244D01*
X194365Y34064D01*
X194484Y33909D01*
X194639Y33790D01*
X194819Y33715D01*
X195013Y33690D01*
X195988D01*
X196181Y33715D01*
X196361Y33790D01*
X196516Y33909D01*
X196635Y34064D01*
X196710Y34244D01*
X196735Y34438D01*
Y35412D01*
X196710Y35606D01*
X196635Y35786D01*
X196516Y35941D01*
X196361Y36060D01*
X196181Y36135D01*
X195988Y36160D01*
D02*
G37*
G36*
X24217Y36195D02*
X21590D01*
Y33568D01*
X21680D01*
X22108Y33636D01*
X22520Y33770D01*
X22906Y33967D01*
X23257Y34221D01*
X23564Y34528D01*
X23818Y34879D01*
X24015Y35265D01*
X24149Y35677D01*
X24217Y36105D01*
Y36195D01*
D02*
G37*
G36*
X21336D02*
X18709D01*
Y36105D01*
X18777Y35677D01*
X18911Y35265D01*
X19108Y34879D01*
X19362Y34528D01*
X19669Y34221D01*
X20020Y33967D01*
X20406Y33770D01*
X20818Y33636D01*
X21246Y33568D01*
X21336D01*
Y36195D01*
D02*
G37*
G36*
X25527Y29557D02*
Y29083D01*
X26001D01*
X25912Y29298D01*
X25742Y29468D01*
X25527Y29557D01*
D02*
G37*
G36*
X25273D02*
X25058Y29468D01*
X24888Y29298D01*
X24799Y29083D01*
X25273D01*
Y29557D01*
D02*
G37*
G36*
X22860Y29430D02*
Y28956D01*
X23334D01*
X23245Y29171D01*
X23075Y29341D01*
X22860Y29430D01*
D02*
G37*
G36*
X22606D02*
X22391Y29341D01*
X22221Y29171D01*
X22132Y28956D01*
X22606D01*
Y29430D01*
D02*
G37*
G36*
X195662Y31154D02*
X195338D01*
X195026Y31070D01*
X194745Y30908D01*
X194517Y30680D01*
X194355Y30399D01*
X194271Y30087D01*
Y29763D01*
X194355Y29451D01*
X194517Y29170D01*
X194745Y28942D01*
X195026Y28780D01*
X195338Y28696D01*
X195662D01*
X195974Y28780D01*
X196255Y28942D01*
X196483Y29170D01*
X196645Y29451D01*
X196729Y29763D01*
Y30087D01*
X196645Y30399D01*
X196483Y30680D01*
X196255Y30908D01*
X195974Y31070D01*
X195662Y31154D01*
D02*
G37*
G36*
X26001Y28829D02*
X25527D01*
Y28355D01*
X25742Y28444D01*
X25912Y28614D01*
X26001Y28829D01*
D02*
G37*
G36*
X25273D02*
X24799D01*
X24888Y28614D01*
X25058Y28444D01*
X25273Y28355D01*
Y28829D01*
D02*
G37*
G36*
X23334Y28702D02*
X22860D01*
Y28228D01*
X23075Y28317D01*
X23245Y28487D01*
X23334Y28702D01*
D02*
G37*
G36*
X22606D02*
X22132D01*
X22221Y28487D01*
X22391Y28317D01*
X22606Y28228D01*
Y28702D01*
D02*
G37*
G36*
X19050Y27806D02*
Y26416D01*
X20076D01*
Y26670D01*
X20037Y26968D01*
X19921Y27246D01*
X19738Y27485D01*
X19499Y27668D01*
X19221Y27784D01*
X19050Y27806D01*
D02*
G37*
G36*
X18796D02*
X18625Y27784D01*
X18347Y27668D01*
X18108Y27485D01*
X17925Y27246D01*
X17809Y26968D01*
X17770Y26670D01*
Y26416D01*
X18796D01*
Y27806D01*
D02*
G37*
G36*
X20076Y26162D02*
X19050D01*
Y24772D01*
X19221Y24794D01*
X19499Y24910D01*
X19738Y25093D01*
X19921Y25332D01*
X20037Y25610D01*
X20076Y25908D01*
Y26162D01*
D02*
G37*
G36*
X18796D02*
X17770D01*
Y25908D01*
X17809Y25610D01*
X17925Y25332D01*
X18108Y25093D01*
X18347Y24910D01*
X18625Y24794D01*
X18796Y24772D01*
Y26162D01*
D02*
G37*
G36*
X26543Y27823D02*
X26245Y27784D01*
X25967Y27668D01*
X25728Y27485D01*
X25545Y27246D01*
X25429Y26968D01*
X25390Y26670D01*
Y25908D01*
X25429Y25610D01*
X25545Y25332D01*
X25728Y25093D01*
X25967Y24910D01*
X26245Y24794D01*
X26543Y24755D01*
X26841Y24794D01*
X27119Y24910D01*
X27358Y25093D01*
X27541Y25332D01*
X27657Y25610D01*
X27696Y25908D01*
Y26670D01*
X27657Y26968D01*
X27541Y27246D01*
X27358Y27485D01*
X27119Y27668D01*
X26841Y27784D01*
X26543Y27823D01*
D02*
G37*
G36*
X24003D02*
X23705Y27784D01*
X23427Y27668D01*
X23188Y27485D01*
X23005Y27246D01*
X22889Y26968D01*
X22850Y26670D01*
Y25908D01*
X22889Y25610D01*
X23005Y25332D01*
X23188Y25093D01*
X23427Y24910D01*
X23705Y24794D01*
X24003Y24755D01*
X24301Y24794D01*
X24579Y24910D01*
X24818Y25093D01*
X25001Y25332D01*
X25117Y25610D01*
X25156Y25908D01*
Y26670D01*
X25117Y26968D01*
X25001Y27246D01*
X24818Y27485D01*
X24579Y27668D01*
X24301Y27784D01*
X24003Y27823D01*
D02*
G37*
G36*
X21463D02*
X21165Y27784D01*
X20887Y27668D01*
X20648Y27485D01*
X20465Y27246D01*
X20349Y26968D01*
X20310Y26670D01*
Y25908D01*
X20349Y25610D01*
X20465Y25332D01*
X20648Y25093D01*
X20887Y24910D01*
X21165Y24794D01*
X21463Y24755D01*
X21761Y24794D01*
X22039Y24910D01*
X22278Y25093D01*
X22461Y25332D01*
X22577Y25610D01*
X22616Y25908D01*
Y26670D01*
X22577Y26968D01*
X22461Y27246D01*
X22278Y27485D01*
X22039Y27668D01*
X21761Y27784D01*
X21463Y27823D01*
D02*
G37*
G36*
X15236Y24257D02*
X15113D01*
Y21209D01*
X18161D01*
Y21332D01*
X18083Y21825D01*
X17928Y22301D01*
X17701Y22746D01*
X17408Y23150D01*
X17054Y23504D01*
X16650Y23798D01*
X16205Y24024D01*
X15729Y24179D01*
X15236Y24257D01*
D02*
G37*
G36*
X14859D02*
X14736D01*
X14243Y24179D01*
X13767Y24024D01*
X13322Y23798D01*
X12918Y23504D01*
X12564Y23150D01*
X12271Y22746D01*
X12044Y22301D01*
X11889Y21825D01*
X11811Y21332D01*
Y21209D01*
X14859D01*
Y24257D01*
D02*
G37*
G36*
X70725Y24003D02*
X70612D01*
Y21082D01*
X73533D01*
Y21195D01*
X73458Y21669D01*
X73310Y22125D01*
X73092Y22552D01*
X72810Y22941D01*
X72471Y23280D01*
X72082Y23562D01*
X71655Y23780D01*
X71199Y23928D01*
X70725Y24003D01*
D02*
G37*
G36*
X70358D02*
X70245D01*
X69771Y23928D01*
X69315Y23780D01*
X68887Y23562D01*
X68499Y23280D01*
X68160Y22941D01*
X67878Y22552D01*
X67660Y22125D01*
X67512Y21669D01*
X67437Y21195D01*
Y21082D01*
X70358D01*
Y24003D01*
D02*
G37*
G36*
X73533Y20828D02*
X70612D01*
Y17907D01*
X70725D01*
X71199Y17982D01*
X71655Y18130D01*
X72082Y18348D01*
X72471Y18630D01*
X72810Y18969D01*
X73092Y19358D01*
X73310Y19785D01*
X73458Y20241D01*
X73533Y20715D01*
Y20828D01*
D02*
G37*
G36*
X70358D02*
X67437D01*
Y20715D01*
X67512Y20241D01*
X67660Y19785D01*
X67878Y19358D01*
X68160Y18969D01*
X68499Y18630D01*
X68887Y18348D01*
X69315Y18130D01*
X69771Y17982D01*
X70245Y17907D01*
X70358D01*
Y20828D01*
D02*
G37*
G36*
X18161Y20955D02*
X15113D01*
Y17907D01*
X15236D01*
X15729Y17985D01*
X16205Y18140D01*
X16650Y18367D01*
X17054Y18660D01*
X17408Y19014D01*
X17701Y19418D01*
X17928Y19863D01*
X18083Y20339D01*
X18161Y20832D01*
Y20955D01*
D02*
G37*
G36*
X14859D02*
X11811D01*
Y20832D01*
X11889Y20339D01*
X12044Y19863D01*
X12271Y19418D01*
X12564Y19014D01*
X12918Y18660D01*
X13322Y18367D01*
X13767Y18140D01*
X14243Y17985D01*
X14736Y17907D01*
X14859D01*
Y20955D01*
D02*
G37*
G36*
X110928Y14097D02*
X110560D01*
X110205Y14002D01*
X109886Y13818D01*
X109626Y13558D01*
X109442Y13239D01*
X109347Y12884D01*
Y12516D01*
X109442Y12161D01*
X109626Y11842D01*
X109886Y11582D01*
X110205Y11398D01*
X110560Y11303D01*
X110928D01*
X111283Y11398D01*
X111602Y11582D01*
X111862Y11842D01*
X112046Y12161D01*
X112141Y12516D01*
Y12884D01*
X112046Y13239D01*
X111862Y13558D01*
X111602Y13818D01*
X111283Y14002D01*
X110928Y14097D01*
D02*
G37*
G36*
X154564Y6084D02*
X154559D01*
Y5207D01*
X155436D01*
Y5212D01*
X155368Y5468D01*
X155235Y5696D01*
X155048Y5883D01*
X154820Y6016D01*
X154564Y6084D01*
D02*
G37*
G36*
X154305D02*
X154300D01*
X154044Y6016D01*
X153816Y5883D01*
X153629Y5696D01*
X153496Y5468D01*
X153428Y5212D01*
Y5207D01*
X154305D01*
Y6084D01*
D02*
G37*
G36*
X108336Y5830D02*
X108331D01*
Y4953D01*
X109208D01*
Y4958D01*
X109140Y5214D01*
X109007Y5442D01*
X108820Y5629D01*
X108592Y5762D01*
X108336Y5830D01*
D02*
G37*
G36*
X108077D02*
X108072D01*
X107816Y5762D01*
X107588Y5629D01*
X107401Y5442D01*
X107268Y5214D01*
X107200Y4958D01*
Y4953D01*
X108077D01*
Y5830D01*
D02*
G37*
G36*
X120401Y5704D02*
X120396D01*
Y4827D01*
X121273D01*
Y4832D01*
X121205Y5088D01*
X121072Y5316D01*
X120885Y5503D01*
X120657Y5636D01*
X120401Y5704D01*
D02*
G37*
G36*
X120142D02*
X120137D01*
X119881Y5636D01*
X119653Y5503D01*
X119466Y5316D01*
X119333Y5088D01*
X119265Y4832D01*
Y4827D01*
X120142D01*
Y5704D01*
D02*
G37*
G36*
X155436Y4953D02*
X154559D01*
Y4076D01*
X154564D01*
X154820Y4144D01*
X155048Y4277D01*
X155235Y4464D01*
X155368Y4692D01*
X155436Y4948D01*
Y4953D01*
D02*
G37*
G36*
X154305D02*
X153428D01*
Y4948D01*
X153496Y4692D01*
X153629Y4464D01*
X153816Y4277D01*
X154044Y4144D01*
X154300Y4076D01*
X154305D01*
Y4953D01*
D02*
G37*
G36*
X152024Y6084D02*
X151760D01*
X151504Y6016D01*
X151276Y5883D01*
X151089Y5696D01*
X150956Y5468D01*
X150888Y5212D01*
Y4948D01*
X150956Y4692D01*
X151089Y4464D01*
X151276Y4277D01*
X151504Y4144D01*
X151760Y4076D01*
X152024D01*
X152280Y4144D01*
X152508Y4277D01*
X152695Y4464D01*
X152828Y4692D01*
X152896Y4948D01*
Y5212D01*
X152828Y5468D01*
X152695Y5696D01*
X152508Y5883D01*
X152280Y6016D01*
X152024Y6084D01*
D02*
G37*
G36*
X189404Y56154D02*
X187096D01*
Y53846D01*
X187489D01*
Y48357D01*
X148814Y9682D01*
X148693Y9524D01*
X148617Y9341D01*
X148591Y9144D01*
Y5954D01*
X148524Y5908D01*
X148385Y5700D01*
X148336Y5455D01*
Y4705D01*
X148385Y4460D01*
X148524Y4252D01*
X148732Y4113D01*
X148977Y4064D01*
X149727D01*
X149972Y4113D01*
X150180Y4252D01*
X150320Y4460D01*
X150368Y4705D01*
Y5455D01*
X150320Y5700D01*
X150180Y5908D01*
X150113Y5954D01*
Y8829D01*
X188788Y47504D01*
X188909Y47662D01*
X188940Y47738D01*
X188985Y47845D01*
X189011Y48042D01*
Y53846D01*
X189404D01*
Y56154D01*
D02*
G37*
G36*
X110988Y38735D02*
X110754D01*
X110528Y38674D01*
X110325Y38557D01*
X110160Y38392D01*
X110043Y38189D01*
X109982Y37963D01*
Y37729D01*
X110043Y37503D01*
X110110Y37385D01*
Y20955D01*
X110136Y20758D01*
X110212Y20575D01*
X110333Y20417D01*
X112650Y18100D01*
Y5612D01*
X112481Y5442D01*
X112348Y5214D01*
X112280Y4958D01*
Y4694D01*
X112348Y4438D01*
X112481Y4210D01*
X112668Y4023D01*
X112896Y3890D01*
X113152Y3822D01*
X113416D01*
X113543Y3856D01*
X113576Y3860D01*
X113607Y3873D01*
X113672Y3890D01*
X113729Y3924D01*
X113760Y3936D01*
X113786Y3957D01*
X113900Y4023D01*
X114087Y4210D01*
X114220Y4438D01*
X114288Y4694D01*
Y4958D01*
X114220Y5214D01*
X114170Y5299D01*
X114172Y5307D01*
Y18415D01*
X114146Y18612D01*
X114070Y18795D01*
X113949Y18953D01*
X111632Y21270D01*
Y37385D01*
X111699Y37503D01*
X111760Y37729D01*
Y37963D01*
X111699Y38189D01*
X111582Y38392D01*
X111417Y38557D01*
X111214Y38674D01*
X110988Y38735D01*
D02*
G37*
G36*
X110876Y5830D02*
X110612D01*
X110356Y5762D01*
X110128Y5629D01*
X109941Y5442D01*
X109808Y5214D01*
X109740Y4958D01*
Y4694D01*
X109808Y4438D01*
X109941Y4210D01*
X110128Y4023D01*
X110356Y3890D01*
X110612Y3822D01*
X110876D01*
X111132Y3890D01*
X111360Y4023D01*
X111547Y4210D01*
X111680Y4438D01*
X111748Y4694D01*
Y4958D01*
X111680Y5214D01*
X111547Y5442D01*
X111360Y5629D01*
X111132Y5762D01*
X110876Y5830D01*
D02*
G37*
G36*
X109208Y4699D02*
X108331D01*
Y3822D01*
X108336D01*
X108592Y3890D01*
X108820Y4023D01*
X109007Y4210D01*
X109140Y4438D01*
X109208Y4694D01*
Y4699D01*
D02*
G37*
G36*
X108077D02*
X107200D01*
Y4694D01*
X107268Y4438D01*
X107401Y4210D01*
X107588Y4023D01*
X107816Y3890D01*
X108072Y3822D01*
X108077D01*
Y4699D01*
D02*
G37*
G36*
X116199Y5842D02*
X115449D01*
X115204Y5793D01*
X114996Y5654D01*
X114856Y5446D01*
X114808Y5201D01*
Y4451D01*
X114856Y4206D01*
X114996Y3998D01*
X115204Y3859D01*
X115449Y3810D01*
X116199D01*
X116444Y3859D01*
X116652Y3998D01*
X116791Y4206D01*
X116840Y4451D01*
Y5201D01*
X116791Y5446D01*
X116652Y5654D01*
X116444Y5793D01*
X116199Y5842D01*
D02*
G37*
G36*
X100148Y7284D02*
X99852D01*
X99827Y7279D01*
X99802D01*
X99512Y7221D01*
X99488Y7212D01*
X99463Y7207D01*
X99190Y7094D01*
X99169Y7079D01*
X99146Y7070D01*
X98900Y6905D01*
X98882Y6887D01*
X98861Y6873D01*
X98652Y6664D01*
X98638Y6643D01*
X98620Y6625D01*
X98455Y6379D01*
X98446Y6356D01*
X98431Y6335D01*
X98318Y6062D01*
X98313Y6037D01*
X98304Y6013D01*
X98246Y5723D01*
Y5698D01*
X98241Y5673D01*
Y5377D01*
X98246Y5352D01*
Y5327D01*
X98304Y5037D01*
X98313Y5013D01*
X98318Y4988D01*
X98431Y4715D01*
X98446Y4694D01*
X98455Y4671D01*
X98620Y4425D01*
X98638Y4407D01*
X98652Y4386D01*
X98861Y4177D01*
X98882Y4163D01*
X98900Y4145D01*
X99146Y3980D01*
X99169Y3971D01*
X99190Y3956D01*
X99463Y3843D01*
X99488Y3838D01*
X99512Y3829D01*
X99802Y3771D01*
X99827D01*
X99852Y3766D01*
X100148D01*
X100173Y3771D01*
X100198D01*
X100488Y3829D01*
X100512Y3838D01*
X100537Y3843D01*
X100810Y3956D01*
X100831Y3971D01*
X100854Y3980D01*
X101100Y4145D01*
X101118Y4163D01*
X101139Y4177D01*
X101348Y4386D01*
X101362Y4407D01*
X101380Y4425D01*
X101545Y4671D01*
X101554Y4694D01*
X101569Y4715D01*
X101682Y4988D01*
X101687Y5013D01*
X101696Y5037D01*
X101754Y5327D01*
Y5352D01*
X101759Y5377D01*
Y5673D01*
X101754Y5698D01*
Y5723D01*
X101696Y6013D01*
X101687Y6037D01*
X101682Y6062D01*
X101569Y6335D01*
X101554Y6356D01*
X101545Y6379D01*
X101380Y6625D01*
X101362Y6643D01*
X101348Y6664D01*
X101139Y6873D01*
X101118Y6887D01*
X101100Y6905D01*
X100854Y7070D01*
X100831Y7079D01*
X100810Y7094D01*
X100537Y7207D01*
X100512Y7212D01*
X100488Y7221D01*
X100198Y7279D01*
X100173D01*
X100148Y7284D01*
D02*
G37*
G36*
X194673Y7259D02*
X194377D01*
X194352Y7254D01*
X194327D01*
X194037Y7196D01*
X194013Y7187D01*
X193988Y7182D01*
X193715Y7069D01*
X193694Y7054D01*
X193671Y7045D01*
X193425Y6880D01*
X193407Y6862D01*
X193386Y6848D01*
X193177Y6639D01*
X193163Y6618D01*
X193145Y6600D01*
X192980Y6354D01*
X192971Y6331D01*
X192956Y6310D01*
X192843Y6037D01*
X192838Y6012D01*
X192829Y5988D01*
X192771Y5698D01*
Y5673D01*
X192766Y5648D01*
Y5352D01*
X192771Y5327D01*
Y5302D01*
X192829Y5012D01*
X192838Y4988D01*
X192843Y4963D01*
X192956Y4690D01*
X192971Y4669D01*
X192980Y4646D01*
X193145Y4400D01*
X193163Y4382D01*
X193177Y4361D01*
X193386Y4152D01*
X193407Y4138D01*
X193425Y4120D01*
X193671Y3955D01*
X193694Y3946D01*
X193715Y3931D01*
X193988Y3818D01*
X194013Y3813D01*
X194037Y3804D01*
X194327Y3746D01*
X194352D01*
X194377Y3741D01*
X194673D01*
X194698Y3746D01*
X194723D01*
X195013Y3804D01*
X195037Y3813D01*
X195062Y3818D01*
X195335Y3931D01*
X195356Y3946D01*
X195379Y3955D01*
X195625Y4120D01*
X195643Y4138D01*
X195664Y4152D01*
X195873Y4361D01*
X195887Y4382D01*
X195905Y4400D01*
X196070Y4646D01*
X196079Y4669D01*
X196094Y4690D01*
X196207Y4963D01*
X196212Y4988D01*
X196221Y5012D01*
X196279Y5302D01*
Y5327D01*
X196284Y5352D01*
Y5648D01*
X196279Y5673D01*
Y5698D01*
X196221Y5988D01*
X196212Y6012D01*
X196207Y6037D01*
X196094Y6310D01*
X196079Y6331D01*
X196070Y6354D01*
X195905Y6600D01*
X195887Y6618D01*
X195873Y6639D01*
X195664Y6848D01*
X195643Y6862D01*
X195625Y6880D01*
X195379Y7045D01*
X195356Y7054D01*
X195335Y7069D01*
X195062Y7182D01*
X195037Y7187D01*
X195013Y7196D01*
X194723Y7254D01*
X194698D01*
X194673Y7259D01*
D02*
G37*
G36*
X5673D02*
X5377D01*
X5352Y7254D01*
X5327D01*
X5037Y7196D01*
X5013Y7187D01*
X4988Y7182D01*
X4715Y7069D01*
X4694Y7054D01*
X4671Y7045D01*
X4425Y6880D01*
X4407Y6862D01*
X4386Y6848D01*
X4177Y6639D01*
X4163Y6618D01*
X4145Y6600D01*
X3980Y6354D01*
X3971Y6331D01*
X3956Y6310D01*
X3843Y6037D01*
X3838Y6012D01*
X3829Y5988D01*
X3771Y5698D01*
Y5673D01*
X3766Y5648D01*
Y5352D01*
X3771Y5327D01*
Y5302D01*
X3829Y5012D01*
X3838Y4988D01*
X3843Y4963D01*
X3956Y4690D01*
X3971Y4669D01*
X3980Y4646D01*
X4145Y4400D01*
X4163Y4382D01*
X4177Y4361D01*
X4386Y4152D01*
X4407Y4138D01*
X4425Y4120D01*
X4671Y3955D01*
X4694Y3946D01*
X4715Y3931D01*
X4988Y3818D01*
X5013Y3813D01*
X5037Y3804D01*
X5327Y3746D01*
X5352D01*
X5377Y3741D01*
X5673D01*
X5698Y3746D01*
X5723D01*
X6013Y3804D01*
X6037Y3813D01*
X6062Y3818D01*
X6335Y3931D01*
X6356Y3946D01*
X6379Y3955D01*
X6625Y4120D01*
X6643Y4138D01*
X6664Y4152D01*
X6873Y4361D01*
X6887Y4382D01*
X6905Y4400D01*
X7070Y4646D01*
X7079Y4669D01*
X7094Y4690D01*
X7207Y4963D01*
X7212Y4988D01*
X7221Y5012D01*
X7279Y5302D01*
Y5327D01*
X7284Y5352D01*
Y5648D01*
X7279Y5673D01*
Y5698D01*
X7221Y5988D01*
X7212Y6012D01*
X7207Y6037D01*
X7094Y6310D01*
X7079Y6331D01*
X7070Y6354D01*
X6905Y6600D01*
X6887Y6618D01*
X6873Y6639D01*
X6664Y6848D01*
X6643Y6862D01*
X6625Y6880D01*
X6379Y7045D01*
X6356Y7054D01*
X6335Y7069D01*
X6062Y7182D01*
X6037Y7187D01*
X6013Y7196D01*
X5723Y7254D01*
X5698D01*
X5673Y7259D01*
D02*
G37*
G36*
X123815Y65405D02*
X123581D01*
X123355Y65344D01*
X123152Y65227D01*
X122987Y65062D01*
X122870Y64859D01*
X122809Y64633D01*
Y64399D01*
X122870Y64173D01*
X122937Y64055D01*
Y26162D01*
X122963Y25965D01*
X123039Y25782D01*
X123160Y25624D01*
X138558Y10226D01*
Y5359D01*
X138516Y5316D01*
X138383Y5088D01*
X138315Y4832D01*
Y4568D01*
X138383Y4312D01*
X138516Y4084D01*
X138703Y3897D01*
X138931Y3764D01*
X139187Y3696D01*
X139451D01*
X139707Y3764D01*
X139935Y3897D01*
X140122Y4084D01*
X140255Y4312D01*
X140323Y4568D01*
Y4832D01*
X140255Y5088D01*
X140122Y5316D01*
X140080Y5359D01*
Y10541D01*
X140054Y10738D01*
X139978Y10921D01*
X139857Y11079D01*
X124459Y26477D01*
Y64055D01*
X124526Y64173D01*
X124587Y64399D01*
Y64633D01*
X124526Y64859D01*
X124409Y65062D01*
X124244Y65227D01*
X124041Y65344D01*
X123815Y65405D01*
D02*
G37*
G36*
X119370Y91694D02*
X119136D01*
X118910Y91633D01*
X118707Y91516D01*
X118542Y91351D01*
X118425Y91148D01*
X118364Y90922D01*
Y90688D01*
X118425Y90462D01*
X118492Y90344D01*
Y79629D01*
X118518Y79432D01*
X118594Y79249D01*
X118715Y79091D01*
X120905Y76901D01*
Y25654D01*
X120931Y25457D01*
X121007Y25274D01*
X121128Y25116D01*
X136018Y10226D01*
Y5359D01*
X135976Y5316D01*
X135843Y5088D01*
X135775Y4832D01*
Y4568D01*
X135843Y4312D01*
X135976Y4084D01*
X136163Y3897D01*
X136391Y3764D01*
X136647Y3696D01*
X136911D01*
X137167Y3764D01*
X137395Y3897D01*
X137582Y4084D01*
X137715Y4312D01*
X137783Y4568D01*
Y4832D01*
X137715Y5088D01*
X137582Y5316D01*
X137540Y5359D01*
Y10541D01*
X137514Y10738D01*
X137438Y10921D01*
X137317Y11079D01*
X122427Y25969D01*
Y77216D01*
X122401Y77413D01*
X122325Y77596D01*
X122204Y77754D01*
X120014Y79944D01*
Y90344D01*
X120081Y90462D01*
X120142Y90688D01*
Y90922D01*
X120081Y91148D01*
X119964Y91351D01*
X119799Y91516D01*
X119596Y91633D01*
X119370Y91694D01*
D02*
G37*
G36*
X113382Y88754D02*
X113118D01*
X112862Y88686D01*
X112634Y88553D01*
X112447Y88366D01*
X112314Y88138D01*
X112246Y87882D01*
Y87618D01*
X112314Y87362D01*
X112447Y87134D01*
X112490Y87091D01*
Y81949D01*
X112515Y81752D01*
X112591Y81569D01*
X112712Y81411D01*
X118873Y75250D01*
Y24638D01*
X118899Y24441D01*
X118975Y24258D01*
X119096Y24100D01*
X133478Y9718D01*
Y5359D01*
X133436Y5316D01*
X133303Y5088D01*
X133235Y4832D01*
Y4568D01*
X133303Y4312D01*
X133436Y4084D01*
X133623Y3897D01*
X133851Y3764D01*
X134107Y3696D01*
X134371D01*
X134627Y3764D01*
X134855Y3897D01*
X135042Y4084D01*
X135175Y4312D01*
X135243Y4568D01*
Y4832D01*
X135175Y5088D01*
X135042Y5316D01*
X135000Y5359D01*
Y10033D01*
X134974Y10230D01*
X134898Y10413D01*
X134777Y10571D01*
X120395Y24953D01*
Y75565D01*
X120369Y75762D01*
X120324Y75869D01*
X120293Y75945D01*
X120172Y76103D01*
X114011Y82264D01*
Y87091D01*
X114053Y87134D01*
X114186Y87362D01*
X114254Y87618D01*
Y87882D01*
X114186Y88138D01*
X114053Y88366D01*
X113866Y88553D01*
X113638Y88686D01*
X113382Y88754D01*
D02*
G37*
G36*
Y58754D02*
X113118D01*
X112862Y58686D01*
X112634Y58553D01*
X112447Y58366D01*
X112314Y58138D01*
X112246Y57882D01*
Y57618D01*
X112314Y57362D01*
X112447Y57134D01*
X112490Y57091D01*
Y53628D01*
X112515Y53431D01*
X112591Y53248D01*
X112712Y53090D01*
X114682Y51120D01*
Y22606D01*
X114708Y22409D01*
X114784Y22226D01*
X114905Y22068D01*
X124588Y12385D01*
Y5359D01*
X124546Y5316D01*
X124413Y5088D01*
X124345Y4832D01*
Y4568D01*
X124413Y4312D01*
X124546Y4084D01*
X124733Y3897D01*
X124961Y3764D01*
X125217Y3696D01*
X125481D01*
X125737Y3764D01*
X125965Y3897D01*
X126152Y4084D01*
X126285Y4312D01*
X126353Y4568D01*
Y4832D01*
X126285Y5088D01*
X126152Y5316D01*
X126110Y5359D01*
Y12700D01*
X126084Y12897D01*
X126008Y13080D01*
X125887Y13238D01*
X116204Y22921D01*
Y51435D01*
X116178Y51632D01*
X116102Y51815D01*
X115981Y51973D01*
X114011Y53943D01*
Y57091D01*
X114053Y57134D01*
X114186Y57362D01*
X114254Y57618D01*
Y57882D01*
X114186Y58138D01*
X114053Y58366D01*
X113866Y58553D01*
X113638Y58686D01*
X113382Y58754D01*
D02*
G37*
G36*
X121273Y4573D02*
X120396D01*
Y3696D01*
X120401D01*
X120657Y3764D01*
X120885Y3897D01*
X121072Y4084D01*
X121205Y4312D01*
X121273Y4568D01*
Y4573D01*
D02*
G37*
G36*
X120142D02*
X119265D01*
Y4568D01*
X119333Y4312D01*
X119466Y4084D01*
X119653Y3897D01*
X119881Y3764D01*
X120137Y3696D01*
X120142D01*
Y4573D01*
D02*
G37*
G36*
X125593Y80645D02*
X125359D01*
X125133Y80584D01*
X124930Y80467D01*
X124765Y80302D01*
X124648Y80099D01*
X124587Y79873D01*
Y79639D01*
X124648Y79413D01*
X124715Y79295D01*
Y27178D01*
X124741Y26981D01*
X124817Y26798D01*
X124938Y26640D01*
X141098Y10480D01*
Y5574D01*
X141031Y5528D01*
X140891Y5320D01*
X140843Y5075D01*
Y4325D01*
X140891Y4080D01*
X141031Y3872D01*
X141239Y3732D01*
X141484Y3684D01*
X142234D01*
X142479Y3732D01*
X142687Y3872D01*
X142827Y4080D01*
X142875Y4325D01*
Y5075D01*
X142827Y5320D01*
X142687Y5528D01*
X142620Y5574D01*
Y10795D01*
X142594Y10992D01*
X142518Y11175D01*
X142397Y11333D01*
X126237Y27493D01*
Y79295D01*
X126304Y79413D01*
X126365Y79639D01*
Y79873D01*
X126304Y80099D01*
X126187Y80302D01*
X126022Y80467D01*
X125819Y80584D01*
X125593Y80645D01*
D02*
G37*
G36*
X113382Y73754D02*
X113118D01*
X112862Y73686D01*
X112634Y73553D01*
X112447Y73366D01*
X112314Y73138D01*
X112246Y72882D01*
Y72618D01*
X112314Y72362D01*
X112447Y72134D01*
X112490Y72091D01*
Y68487D01*
X112515Y68290D01*
X112591Y68107D01*
X112712Y67949D01*
X116841Y63820D01*
Y23495D01*
X116867Y23298D01*
X116943Y23115D01*
X117064Y22957D01*
X127128Y12893D01*
Y5574D01*
X127061Y5528D01*
X126922Y5320D01*
X126873Y5075D01*
Y4325D01*
X126922Y4080D01*
X127061Y3872D01*
X127269Y3732D01*
X127514Y3684D01*
X128264D01*
X128509Y3732D01*
X128717Y3872D01*
X128857Y4080D01*
X128905Y4325D01*
Y5075D01*
X128857Y5320D01*
X128717Y5528D01*
X128650Y5574D01*
Y13208D01*
X128624Y13405D01*
X128548Y13588D01*
X128427Y13746D01*
X118363Y23810D01*
Y64135D01*
X118337Y64332D01*
X118292Y64439D01*
X118261Y64515D01*
X118140Y64673D01*
X114011Y68802D01*
Y72091D01*
X114053Y72134D01*
X114186Y72362D01*
X114254Y72618D01*
Y72882D01*
X114186Y73138D01*
X114053Y73366D01*
X113866Y73553D01*
X113638Y73686D01*
X113382Y73754D01*
D02*
G37*
%LPD*%
D10*
X187706Y111887D02*
X189992Y109601D01*
X186073Y111887D02*
X187706D01*
X184476Y113484D02*
X186073Y111887D01*
X189992Y90149D02*
X191749Y88392D01*
X195500D01*
X189992Y90149D02*
Y109601D01*
D11*
X110871Y20955D02*
Y37846D01*
Y20955D02*
X113411Y18415D01*
Y5307D02*
Y18415D01*
X113380Y5275D02*
X113411Y5307D01*
X113380Y4595D02*
Y5275D01*
X113250Y21751D02*
X122809Y12192D01*
X106750Y42750D02*
X113250D01*
X127381Y46349D02*
X130000Y43730D01*
X127381Y46349D02*
Y71111D01*
X130000Y73730D01*
X133985Y66421D02*
X184329D01*
X195750Y55000D01*
X130000Y73730D02*
X145000D01*
X160000D02*
X175000D01*
X145000D02*
X160000D01*
X149352Y9144D02*
X188250Y48042D01*
X149352Y5080D02*
Y9144D01*
X188250Y48042D02*
Y55000D01*
X125476Y27178D02*
Y79756D01*
X141859Y4700D02*
Y10795D01*
X125476Y27178D02*
X141859Y10795D01*
X123698Y26162D02*
Y64516D01*
Y26162D02*
X139319Y10541D01*
Y4700D02*
Y10541D01*
X121666Y25654D02*
X136779Y10541D01*
X121666Y25654D02*
Y77216D01*
X119253Y79629D02*
X121666Y77216D01*
X119253Y79629D02*
Y90805D01*
X136779Y4700D02*
Y10541D01*
X117602Y23495D02*
Y64135D01*
Y23495D02*
X127889Y13208D01*
Y4700D02*
Y13208D01*
X115443Y22606D02*
X125349Y12700D01*
Y4700D02*
Y12700D01*
X115443Y22606D02*
Y51435D01*
X122809Y4700D02*
Y12192D01*
X113250Y21751D02*
Y42750D01*
Y53628D02*
X115443Y51435D01*
X113250Y53628D02*
Y57750D01*
Y68487D02*
X117602Y64135D01*
X113250Y68487D02*
Y72750D01*
Y81949D02*
Y87750D01*
X119634Y24638D02*
Y75565D01*
X113250Y81949D02*
X119634Y75565D01*
Y24638D02*
X134239Y10033D01*
Y4700D02*
Y10033D01*
D12*
X183197Y101156D02*
D03*
D13*
X159552Y130500D02*
D03*
D14*
X164552D02*
D03*
X195500Y29925D02*
D03*
Y99314D02*
D03*
Y40894D02*
D03*
Y88392D02*
D03*
D15*
X108204Y4826D02*
D03*
X110744D02*
D03*
X113284D02*
D03*
X145288Y129700D02*
D03*
X147828D02*
D03*
X150368D02*
D03*
X80772Y126873D02*
D03*
X83312D02*
D03*
X85852D02*
D03*
X42164Y129700D02*
D03*
X44704D02*
D03*
X47244D02*
D03*
X139319Y4700D02*
D03*
X136779D02*
D03*
X134239D02*
D03*
X125349D02*
D03*
X122809D02*
D03*
X120269D02*
D03*
X154432Y5080D02*
D03*
X151892D02*
D03*
X106750Y62250D02*
D03*
Y57750D02*
D03*
X113250Y62250D02*
D03*
Y57750D02*
D03*
X106750Y92250D02*
D03*
Y87750D02*
D03*
X113250Y92250D02*
D03*
Y87750D02*
D03*
Y72750D02*
D03*
Y77250D02*
D03*
X106750Y72750D02*
D03*
Y77250D02*
D03*
X113250Y42750D02*
D03*
Y47250D02*
D03*
X106750Y42750D02*
D03*
Y47250D02*
D03*
D16*
X115824Y4826D02*
D03*
X152908Y129700D02*
D03*
X141859Y4700D02*
D03*
X127889D02*
D03*
X149352Y5080D02*
D03*
D17*
X195500Y34925D02*
D03*
Y104314D02*
D03*
Y45894D02*
D03*
Y93392D02*
D03*
D18*
X195750Y55000D02*
D03*
Y70000D02*
D03*
Y75000D02*
D03*
Y80000D02*
D03*
X188250D02*
D03*
Y75000D02*
D03*
Y70000D02*
D03*
D19*
Y55000D02*
D03*
D20*
X110744Y12700D02*
D03*
X159766Y96901D02*
D03*
D21*
X183388Y112014D02*
D03*
X183261Y102108D02*
D03*
D22*
X161798Y108839D02*
D03*
Y106934D02*
D03*
Y105029D02*
D03*
X21463Y36322D02*
D03*
D23*
X93730Y45000D02*
D03*
X96270D02*
D03*
X175000Y46270D02*
D03*
Y43730D02*
D03*
X160000Y46270D02*
D03*
Y43730D02*
D03*
X145000Y46270D02*
D03*
Y43730D02*
D03*
X130000Y46270D02*
D03*
Y43730D02*
D03*
X175000Y61270D02*
D03*
Y58730D02*
D03*
X160000Y61270D02*
D03*
Y58730D02*
D03*
X145000Y61270D02*
D03*
Y58730D02*
D03*
X130000Y61270D02*
D03*
Y58730D02*
D03*
X175000Y76270D02*
D03*
Y73730D02*
D03*
X160000Y76270D02*
D03*
Y73730D02*
D03*
X145000Y76270D02*
D03*
Y73730D02*
D03*
X130000Y76270D02*
D03*
Y73730D02*
D03*
X175000Y91270D02*
D03*
Y88730D02*
D03*
X160000Y91270D02*
D03*
Y88730D02*
D03*
X145000Y91270D02*
D03*
Y88730D02*
D03*
X130000Y91270D02*
D03*
Y88730D02*
D03*
X93730Y60000D02*
D03*
X96270D02*
D03*
X93730Y75000D02*
D03*
X96270D02*
D03*
D24*
X78232Y126873D02*
D03*
X39624Y129700D02*
D03*
D25*
X14986Y21082D02*
D03*
D26*
Y113919D02*
D03*
X70104Y114173D02*
D03*
X70485Y20955D02*
D03*
D27*
X18923Y26289D02*
D03*
X21463D02*
D03*
X24003D02*
D03*
X26543D02*
D03*
D28*
X110871Y37846D02*
D03*
X133985Y66421D02*
D03*
X123698Y64516D02*
D03*
X125476Y79756D02*
D03*
X119253Y90805D02*
D03*
D29*
X25400Y28956D02*
D03*
X22733Y28829D02*
D03*
%TF.MD5,f4f18be58fb141de9931455dfb67e939*%
M02*
