%TF.GenerationSoftware,Altium Limited,Altium Designer,21.6.4 (81)*%
G04 Layer_Color=128*
%FSLAX43Y43*%
%MOMM*%
%TF.SameCoordinates,51A45B19-5AA5-45A3-BC04-4EA5AD39BA57*%
%TF.FilePolarity,Positive*%
%TF.FileFunction,Paste,Bot*%
%TF.Part,Single*%
G01*
G75*
%TA.AperFunction,SMDPad,CuDef*%
%ADD30R,1.450X0.950*%
%ADD31R,0.950X1.450*%
%ADD32R,1.350X0.600*%
%ADD33R,1.207X1.508*%
%ADD34R,1.508X1.207*%
%ADD35R,1.350X0.950*%
%ADD36R,1.556X1.505*%
D30*
X104000Y75991D02*
D03*
Y74041D02*
D03*
Y43729D02*
D03*
Y45679D02*
D03*
Y61005D02*
D03*
Y59055D02*
D03*
X167640Y69025D02*
D03*
Y70975D02*
D03*
X137541Y69025D02*
D03*
Y70975D02*
D03*
X137414Y64025D02*
D03*
Y65975D02*
D03*
X167640Y64025D02*
D03*
Y65975D02*
D03*
X154686Y13249D02*
D03*
Y15199D02*
D03*
Y9820D02*
D03*
Y11770D02*
D03*
D31*
X90975Y45000D02*
D03*
X89025D02*
D03*
X102975Y48006D02*
D03*
X101025D02*
D03*
X89025Y60071D02*
D03*
X90975D02*
D03*
X101025Y63373D02*
D03*
X102975D02*
D03*
X90975Y75057D02*
D03*
X89025D02*
D03*
X102975Y78613D02*
D03*
X101025D02*
D03*
D32*
X101200Y45781D02*
D03*
Y43881D02*
D03*
X98800Y44831D02*
D03*
Y59944D02*
D03*
X101200Y58994D02*
D03*
Y60894D02*
D03*
Y76007D02*
D03*
Y74107D02*
D03*
X98800Y75057D02*
D03*
D33*
X157572Y102616D02*
D03*
X159674D02*
D03*
D34*
X152273Y104302D02*
D03*
Y102200D02*
D03*
D35*
X155067Y104001D02*
D03*
Y102501D02*
D03*
X158623Y108827D02*
D03*
Y107327D02*
D03*
D36*
X117094Y45901D02*
D03*
Y44099D02*
D03*
X116586Y89099D02*
D03*
Y90901D02*
D03*
Y75901D02*
D03*
Y74099D02*
D03*
X116332Y60901D02*
D03*
Y59099D02*
D03*
%TF.MD5,c9c6ac4129356806acd4c83b8cb39f1e*%
M02*
