%TF.GenerationSoftware,Altium Limited,Altium Designer,21.6.4 (81)*%
G04 Layer_Color=8388736*
%FSLAX43Y43*%
%MOMM*%
%TF.SameCoordinates,51A45B19-5AA5-45A3-BC04-4EA5AD39BA57*%
%TF.FilePolarity,Positive*%
%TF.FileFunction,Other,Bottom_Component_Center*%
%TF.Part,Single*%
G01*
G75*
%TA.AperFunction,NonConductor*%
%ADD40C,0.200*%
%ADD47C,0.100*%
D40*
X157623Y101991D02*
X159623D01*
Y103241D01*
X157623D02*
X159623D01*
X157623Y101991D02*
Y103241D01*
X151648Y102251D02*
Y104251D01*
Y102251D02*
X152898D01*
Y104251D01*
X151648D02*
X152898D01*
D47*
X103500Y75016D02*
X104500D01*
X104000Y74516D02*
Y75516D01*
X89500Y45000D02*
X90500D01*
X90000Y44500D02*
Y45500D01*
X104000Y44204D02*
Y45204D01*
X103500Y44704D02*
X104500D01*
X101500Y48006D02*
X102500D01*
X102000Y47506D02*
Y48506D01*
X90000Y59571D02*
Y60571D01*
X89500Y60071D02*
X90500D01*
X102000Y62873D02*
Y63873D01*
X101500Y63373D02*
X102500D01*
X103500Y60030D02*
X104500D01*
X104000Y59530D02*
Y60530D01*
X167140Y70000D02*
X168140D01*
X167640Y69500D02*
Y70500D01*
X137041Y70000D02*
X138041D01*
X137541Y69500D02*
Y70500D01*
X137414Y64500D02*
Y65500D01*
X136914Y65000D02*
X137914D01*
X167640Y64500D02*
Y65500D01*
X167140Y65000D02*
X168140D01*
X155067Y102751D02*
Y103751D01*
X154567Y103251D02*
X155567D01*
X158623Y107577D02*
Y108577D01*
X158123Y108077D02*
X159123D01*
X154686Y13724D02*
Y14724D01*
X154186Y14224D02*
X155186D01*
X154686Y10295D02*
Y11295D01*
X154186Y10795D02*
X155186D01*
X89500Y75057D02*
X90500D01*
X90000Y74557D02*
Y75557D01*
X117094Y44500D02*
Y45500D01*
X116594Y45000D02*
X117594D01*
X116586Y89500D02*
Y90500D01*
X116086Y90000D02*
X117086D01*
X116586Y74500D02*
Y75500D01*
X116086Y75000D02*
X117086D01*
X116332Y59500D02*
Y60500D01*
X115832Y60000D02*
X116832D01*
X101500Y78613D02*
X102500D01*
X102000Y78113D02*
Y79113D01*
%TF.MD5,52384edcaf9d43340945db1cac38e179*%
M02*
