%TF.GenerationSoftware,Altium Limited,Altium Designer,21.6.4 (81)*%
G04 Layer_Color=32896*
%FSLAX43Y43*%
%MOMM*%
%TF.SameCoordinates,A962B9D3-E780-4B03-8A10-E236CC36F35F*%
%TF.FilePolarity,Positive*%
%TF.FileFunction,Legend,Bot*%
%TF.Part,Single*%
G01*
G75*
%TA.AperFunction,NonConductor*%
%ADD136C,0.250*%
%ADD137C,1.016*%
%ADD138C,0.152*%
%ADD139C,0.200*%
%ADD140C,0.762*%
%ADD141C,0.254*%
%ADD142C,0.150*%
%ADD143C,0.076*%
G36*
X166730Y121835D02*
X166550Y121656D01*
X166820Y121386D01*
X166999Y121566D01*
X166730Y121835D01*
D02*
G37*
G36*
X165669Y128072D02*
X165939Y128342D01*
X165759Y128521D01*
X165490Y128252D01*
X165669Y128072D01*
D02*
G37*
G36*
X173237Y121212D02*
X173506Y121482D01*
X173686Y121302D01*
X173416Y121033D01*
X173237Y121212D01*
D02*
G37*
G36*
X175004Y127988D02*
X175184Y128168D01*
X175453Y127899D01*
X175274Y127719D01*
X175004Y127988D01*
D02*
G37*
D136*
X184875Y92225D02*
G03*
X184875Y92225I-125J0D01*
G01*
X87450Y80400D02*
G03*
X87450Y80400I-125J0D01*
G01*
X179293Y110735D02*
G03*
X179293Y110735I-125J0D01*
G01*
X90759Y130123D02*
G03*
X90759Y130123I-125J0D01*
G01*
X91250Y176173D02*
G03*
X91250Y176173I-125J0D01*
G01*
X90804Y71100D02*
G03*
X90804Y71100I-125J0D01*
G01*
X90387Y25950D02*
G03*
X90387Y25950I-125J0D01*
G01*
X87450Y3829D02*
G03*
X87450Y3829I-125J0D01*
G01*
Y13100D02*
G03*
X87450Y13100I-125J0D01*
G01*
X101450Y15022D02*
G03*
X101450Y15022I-125J0D01*
G01*
X87450Y51446D02*
G03*
X87450Y51446I-125J0D01*
G01*
Y60844D02*
G03*
X87450Y60844I-125J0D01*
G01*
X101450Y62340D02*
G03*
X101450Y62340I-125J0D01*
G01*
X87450Y45649D02*
G03*
X87450Y45649I-125J0D01*
G01*
Y35489D02*
G03*
X87450Y35489I-125J0D01*
G01*
X101450Y120823D02*
G03*
X101450Y120823I-125J0D01*
G01*
X169463Y141488D02*
G03*
X169463Y141488I-125J0D01*
G01*
X87450Y155694D02*
G03*
X87450Y155694I-125J0D01*
G01*
Y167255D02*
G03*
X87450Y167255I-125J0D01*
G01*
X101450Y166777D02*
G03*
X101450Y166777I-125J0D01*
G01*
X87200Y186600D02*
G03*
X87200Y186600I-125J0D01*
G01*
X87450Y196760D02*
G03*
X87450Y196760I-125J0D01*
G01*
Y89602D02*
G03*
X87450Y89602I-125J0D01*
G01*
X101450Y196576D02*
G03*
X101450Y196576I-125J0D01*
G01*
Y90816D02*
G03*
X101450Y90816I-125J0D01*
G01*
X87450Y109683D02*
G03*
X87450Y109683I-125J0D01*
G01*
Y118827D02*
G03*
X87450Y118827I-125J0D01*
G01*
Y140793D02*
G03*
X87450Y140793I-125J0D01*
G01*
Y150064D02*
G03*
X87450Y150064I-125J0D01*
G01*
X101450Y151552D02*
G03*
X101450Y151552I-125J0D01*
G01*
Y45071D02*
G03*
X101450Y45071I-125J0D01*
G01*
D137*
X115872Y148673D02*
G03*
X115872Y148793I18288J120D01*
G01*
X115872Y148673D02*
G03*
X115872Y148793I18288J120D01*
G01*
X155891Y15687D02*
G03*
X155771Y15687I-120J18288D01*
G01*
X155891Y15687D02*
G03*
X155771Y15687I-120J18288D01*
G01*
X134160Y121234D02*
Y129362D01*
X175202Y33975D02*
X183330D01*
D138*
X172210Y131212D02*
G03*
X172210Y131212I-76J0D01*
G01*
X165032Y125484D02*
X165376Y125141D01*
X170295Y120222D02*
X170638Y120565D01*
X175214Y125828D02*
X175557Y125484D01*
X170295Y130747D02*
X170638Y130403D01*
X165032Y125484D02*
X165376Y125828D01*
X169951Y120565D02*
X170295Y120222D01*
X175214Y125141D02*
X175557Y125484D01*
X169951Y130403D02*
X170295Y130747D01*
X95004Y12063D02*
X99246D01*
X95004Y6805D02*
X99246D01*
X95004Y59254D02*
X99246D01*
X95004Y53996D02*
X99246D01*
X95004Y112225D02*
X99246D01*
X95004Y117483D02*
X99246D01*
X95004Y158306D02*
X99246D01*
X95004Y163564D02*
X99246D01*
X95004Y188232D02*
X99246D01*
X95004Y193490D02*
X99246D01*
X95004Y82472D02*
X99246D01*
X95004Y87730D02*
X99246D01*
X95004Y143081D02*
X99246D01*
X95004Y148339D02*
X99246D01*
X95004Y36727D02*
X99246D01*
X95004Y41985D02*
X99246D01*
D139*
X164525Y65850D02*
Y74375D01*
X164575D02*
X168625D01*
X164525Y65850D02*
X168625D01*
Y74375D01*
X41800Y173950D02*
X51200D01*
X41800Y167450D02*
X51200D01*
X41800D02*
Y173950D01*
X51200Y167450D02*
Y173950D01*
X46143Y171457D02*
X46850Y170750D01*
X46143Y170043D02*
X46850Y170750D01*
X46143Y170043D02*
Y171457D01*
X46850Y170750D02*
Y171450D01*
X45550Y170750D02*
X46850D01*
Y170050D02*
Y170750D01*
X47450D01*
X41800Y68875D02*
X51200D01*
X41800Y62375D02*
X51200D01*
X41800D02*
Y68875D01*
X51200Y62375D02*
Y68875D01*
X46143Y66382D02*
X46850Y65675D01*
X46143Y64968D02*
X46850Y65675D01*
X46143Y64968D02*
Y66382D01*
X46850Y65675D02*
Y66375D01*
X45550Y65675D02*
X46850D01*
Y64975D02*
Y65675D01*
X47450D01*
X31800Y62500D02*
X41200D01*
X31800Y69000D02*
X41200D01*
Y62500D02*
Y69000D01*
X31800Y62500D02*
Y69000D01*
X36150Y65700D02*
X36857Y64993D01*
X36150Y65700D02*
X36857Y66407D01*
Y64993D02*
Y66407D01*
X36150Y65000D02*
Y65700D01*
X37450D01*
X36150D02*
Y66400D01*
X35550Y65700D02*
X36150D01*
X49800Y185750D02*
X59200D01*
X49800Y179250D02*
X59200D01*
X49800D02*
Y185750D01*
X59200Y179250D02*
Y185750D01*
X54143Y183257D02*
X54850Y182550D01*
X54143Y181843D02*
X54850Y182550D01*
X54143Y181843D02*
Y183257D01*
X54850Y182550D02*
Y183250D01*
X53550Y182550D02*
X54850D01*
Y181850D02*
Y182550D01*
X55450D01*
X31800Y167550D02*
X41200D01*
X31800Y174050D02*
X41200D01*
Y167550D02*
Y174050D01*
X31800Y167550D02*
Y174050D01*
X36150Y170750D02*
X36857Y170043D01*
X36150Y170750D02*
X36857Y171457D01*
Y170043D02*
Y171457D01*
X36150Y170050D02*
Y170750D01*
X37450D01*
X36150D02*
Y171450D01*
X35550Y170750D02*
X36150D01*
X31800Y27700D02*
X41200D01*
X31800Y34200D02*
X41200D01*
Y27700D02*
Y34200D01*
X31800Y27700D02*
Y34200D01*
X36150Y30900D02*
X36857Y30193D01*
X36150Y30900D02*
X36857Y31607D01*
Y30193D02*
Y31607D01*
X36150Y30200D02*
Y30900D01*
X37450D01*
X36150D02*
Y31600D01*
X35550Y30900D02*
X36150D01*
X31800Y17100D02*
X41200D01*
X31800Y23600D02*
X41200D01*
Y17100D02*
Y23600D01*
X31800Y17100D02*
Y23600D01*
X36150Y20300D02*
X36857Y19593D01*
X36150Y20300D02*
X36857Y21007D01*
Y19593D02*
Y21007D01*
X36150Y19600D02*
Y20300D01*
X37450D01*
X36150D02*
Y21000D01*
X35550Y20300D02*
X36150D01*
X31800Y132400D02*
X41200D01*
X31800Y138900D02*
X41200D01*
Y132400D02*
Y138900D01*
X31800Y132400D02*
Y138900D01*
X36150Y135600D02*
X36857Y134893D01*
X36150Y135600D02*
X36857Y136307D01*
Y134893D02*
Y136307D01*
X36150Y134900D02*
Y135600D01*
X37450D01*
X36150D02*
Y136300D01*
X35550Y135600D02*
X36150D01*
X31800Y121950D02*
X41200D01*
X31800Y128450D02*
X41200D01*
Y121950D02*
Y128450D01*
X31800Y121950D02*
Y128450D01*
X36150Y125150D02*
X36857Y124443D01*
X36150Y125150D02*
X36857Y125857D01*
Y124443D02*
Y125857D01*
X36150Y124450D02*
Y125150D01*
X37450D01*
X36150D02*
Y125850D01*
X35550Y125150D02*
X36150D01*
X49800Y79025D02*
X59200D01*
X49800Y72525D02*
X59200D01*
X49800D02*
Y79025D01*
X59200Y72525D02*
Y79025D01*
X54143Y76532D02*
X54850Y75825D01*
X54143Y75118D02*
X54850Y75825D01*
X54143Y75118D02*
Y76532D01*
X54850Y75825D02*
Y76525D01*
X53550Y75825D02*
X54850D01*
Y75125D02*
Y75825D01*
X55450D01*
X49800Y8000D02*
X59200D01*
X49800Y1500D02*
X59200D01*
X49800D02*
Y8000D01*
X59200Y1500D02*
Y8000D01*
X54143Y5507D02*
X54850Y4800D01*
X54143Y4093D02*
X54850Y4800D01*
X54143Y4093D02*
Y5507D01*
X54850Y4800D02*
Y5500D01*
X53550Y4800D02*
X54850D01*
Y4100D02*
Y4800D01*
X55450D01*
X49800Y112750D02*
X59200D01*
X49800Y106250D02*
X59200D01*
X49800D02*
Y112750D01*
X59200Y106250D02*
Y112750D01*
X54143Y110257D02*
X54850Y109550D01*
X54143Y108843D02*
X54850Y109550D01*
X54143Y108843D02*
Y110257D01*
X54850Y109550D02*
Y110250D01*
X53550Y109550D02*
X54850D01*
Y108850D02*
Y109550D01*
X55450D01*
X49800Y140489D02*
X59200D01*
X49800Y133989D02*
X59200D01*
X49800D02*
Y140489D01*
X59200Y133989D02*
Y140489D01*
X54143Y137996D02*
X54850Y137289D01*
X54143Y136582D02*
X54850Y137289D01*
X54143Y136582D02*
Y137996D01*
X54850Y137289D02*
Y137989D01*
X53550Y137289D02*
X54850D01*
Y136589D02*
Y137289D01*
X55450D01*
X49800Y34775D02*
X59200D01*
X49800Y28275D02*
X59200D01*
X49800D02*
Y34775D01*
X59200Y28275D02*
Y34775D01*
X54143Y32282D02*
X54850Y31575D01*
X54143Y30868D02*
X54850Y31575D01*
X54143Y30868D02*
Y32282D01*
X54850Y31575D02*
Y32275D01*
X53550Y31575D02*
X54850D01*
Y30875D02*
Y31575D01*
X55450D01*
X49800Y52050D02*
X59200D01*
X49800Y45550D02*
X59200D01*
X49800D02*
Y52050D01*
X59200Y45550D02*
Y52050D01*
X54143Y49557D02*
X54850Y48850D01*
X54143Y48143D02*
X54850Y48850D01*
X54143Y48143D02*
Y49557D01*
X54850Y48850D02*
Y49550D01*
X53550Y48850D02*
X54850D01*
Y48150D02*
Y48850D01*
X55450D01*
X49800Y156750D02*
X59200D01*
X49800Y150250D02*
X59200D01*
X49800D02*
Y156750D01*
X59200Y150250D02*
Y156750D01*
X54143Y154257D02*
X54850Y153550D01*
X54143Y152843D02*
X54850Y153550D01*
X54143Y152843D02*
Y154257D01*
X54850Y153550D02*
Y154250D01*
X53550Y153550D02*
X54850D01*
Y152850D02*
Y153550D01*
X55450D01*
X178100Y93250D02*
Y97350D01*
X184800Y93250D02*
Y97350D01*
X178100D02*
X184800D01*
X178100Y93250D02*
X184800D01*
X103800Y192100D02*
Y194500D01*
X108550D01*
Y192100D02*
Y194500D01*
X103800Y192100D02*
X108550D01*
X103077Y162275D02*
Y164675D01*
X107827D01*
Y162275D02*
Y164675D01*
X103077Y162275D02*
X107827D01*
X95975Y169450D02*
X98375D01*
Y164700D02*
Y169450D01*
X95975Y164700D02*
X98375D01*
X95975D02*
Y169450D01*
X95925Y118448D02*
Y123198D01*
Y118448D02*
X98325D01*
Y123198D01*
X95925D02*
X98325D01*
X102668Y115990D02*
Y118390D01*
X107418D01*
Y115990D02*
Y118390D01*
X102668Y115990D02*
X107418D01*
X103900Y86329D02*
Y88729D01*
X108650D01*
Y86329D02*
Y88729D01*
X103900Y86329D02*
X108650D01*
X103050Y58000D02*
Y60400D01*
X107800D01*
Y58000D02*
Y60400D01*
X103050Y58000D02*
X107800D01*
X104700Y10800D02*
Y13200D01*
X109450D01*
Y10800D02*
Y13200D01*
X104700Y10800D02*
X109450D01*
X96250Y199275D02*
X98650D01*
Y194525D02*
Y199275D01*
X96250Y194525D02*
X98650D01*
X96250D02*
Y199275D01*
X96000Y17900D02*
X98400D01*
Y13150D02*
Y17900D01*
X96000Y13150D02*
X98400D01*
X96000D02*
Y17900D01*
X103725Y40704D02*
X108475D01*
Y43104D01*
X103725D02*
X108475D01*
X103725Y40704D02*
Y43104D01*
X16000Y72125D02*
Y76875D01*
Y72125D02*
X18400D01*
Y76875D01*
X16000D02*
X18400D01*
X95975Y88925D02*
Y93675D01*
Y88925D02*
X98375D01*
Y93675D01*
X95975D02*
X98375D01*
X15925Y27100D02*
Y31850D01*
Y27100D02*
X18325D01*
Y31850D01*
X15925D02*
X18325D01*
X15950Y177000D02*
Y181750D01*
Y177000D02*
X18350D01*
Y181750D01*
X15950D02*
X18350D01*
X15925Y132033D02*
Y136783D01*
Y132033D02*
X18325D01*
Y136783D01*
X15925D02*
X18325D01*
X103816Y147210D02*
X108566D01*
Y149610D01*
X103816D02*
X108566D01*
X103816Y147210D02*
Y149610D01*
X95925Y43140D02*
Y47890D01*
Y43140D02*
X98325D01*
Y47890D01*
X95925D02*
X98325D01*
X96077Y149425D02*
Y154175D01*
Y149425D02*
X98477D01*
Y154175D01*
X96077D02*
X98477D01*
X95925Y60425D02*
Y65175D01*
Y60425D02*
X98325D01*
Y65175D01*
X95925D02*
X98325D01*
X85925Y68825D02*
X88125D01*
X85925Y70975D02*
X88125D01*
X87404Y71825D02*
Y74025D01*
X89554Y71825D02*
Y74025D01*
X83250Y81200D02*
X85000D01*
X83250Y79600D02*
X85000D01*
X85828Y128029D02*
X88028D01*
X85828Y130179D02*
X88028D01*
X103862Y144011D02*
Y144157D01*
X102612Y144011D02*
Y144157D01*
X200282Y166742D02*
Y168943D01*
X198132Y166742D02*
Y168943D01*
X128680Y168711D02*
Y168856D01*
X127430Y168711D02*
Y168856D01*
X188850Y115351D02*
X191050D01*
X188850Y113201D02*
X191050D01*
X173298Y103050D02*
X175498D01*
X173298Y105200D02*
X175498D01*
X197225Y78000D02*
Y80200D01*
X195075Y78000D02*
Y80200D01*
X200310Y173475D02*
Y175001D01*
X200440Y173126D02*
X205340D01*
Y169926D02*
Y173126D01*
X200440Y169926D02*
X205340D01*
X200440D02*
Y173126D01*
X206113Y160322D02*
Y162022D01*
X207363Y159472D02*
Y162022D01*
X207413Y165147D02*
Y166847D01*
X206163Y165147D02*
Y167697D01*
X200912Y177505D02*
X201058D01*
X200912Y178755D02*
X201058D01*
X200940Y184272D02*
X201085D01*
X200940Y183022D02*
X201085D01*
X209815Y167747D02*
X209960D01*
X209815Y166497D02*
X209960D01*
X200940Y181522D02*
X201085D01*
X200940Y180272D02*
X201085D01*
X209938Y160974D02*
Y161220D01*
X208688Y160974D02*
Y161220D01*
X205881Y182812D02*
X206027D01*
X205881Y184062D02*
X206027D01*
X205881Y181522D02*
X206027D01*
X205881Y180272D02*
X206027D01*
X183620Y191005D02*
Y191250D01*
X182370Y191005D02*
Y191250D01*
X107425Y54901D02*
Y55047D01*
X106175Y54901D02*
Y55047D01*
X163182Y136390D02*
X163284Y136492D01*
X164066Y135506D02*
X164168Y135609D01*
X180672Y107279D02*
X185833Y112440D01*
X183270Y103796D02*
X188874Y109400D01*
X182088Y109087D02*
X183644Y110643D01*
X180568Y110607D02*
X182124Y112163D01*
X180759Y111371D02*
X181360Y111972D01*
X179804Y112326D02*
X180405Y112927D01*
X177774Y133122D02*
X179329Y131566D01*
X179294Y134642D02*
X180850Y133087D01*
X16500Y70027D02*
Y70172D01*
X17750Y70027D02*
Y70172D01*
X92184Y130398D02*
Y133498D01*
X91484Y130398D02*
Y133498D01*
X92184D01*
X91484Y130398D02*
X92184D01*
X86803Y132027D02*
Y132273D01*
X85553Y132027D02*
Y132273D01*
X89334Y131050D02*
Y133250D01*
X87184Y131050D02*
Y133250D01*
X91085Y133919D02*
X93285D01*
X91085Y136069D02*
X93285D01*
X92063Y137770D02*
X92308D01*
X92063Y136520D02*
X92308D01*
X92702Y183843D02*
X92948D01*
X92702Y182593D02*
X92948D01*
X91725Y180043D02*
X93925D01*
X91725Y182193D02*
X93925D01*
X92675Y176448D02*
Y179548D01*
X91975Y176448D02*
Y179548D01*
X92675D01*
X91975Y176448D02*
X92675D01*
X89900Y177173D02*
Y179373D01*
X87750Y177173D02*
Y179373D01*
X87250Y178150D02*
Y178395D01*
X86000Y178150D02*
Y178395D01*
X92157Y78572D02*
X92402D01*
X92157Y77322D02*
X92402D01*
X91129Y74822D02*
X93329D01*
X91129Y76972D02*
X93329D01*
X92229Y71375D02*
Y74475D01*
X91529Y71375D02*
Y74475D01*
X92229D01*
X91529Y71375D02*
X92229D01*
X86929Y72802D02*
Y73048D01*
X85679Y72802D02*
Y73048D01*
X91812Y26225D02*
Y29325D01*
X91112Y26225D02*
Y29325D01*
X91812D01*
X91112Y26225D02*
X91812D01*
X89274Y26675D02*
Y28875D01*
X87124Y26675D02*
Y28875D01*
X86750Y27652D02*
Y27898D01*
X85500Y27652D02*
Y27898D01*
X90712Y29881D02*
X92912D01*
X90712Y32031D02*
X92912D01*
X91689Y33650D02*
X91934D01*
X91689Y32400D02*
X91934D01*
X106230Y7457D02*
Y7602D01*
X107480Y7457D02*
Y7602D01*
X106378Y159211D02*
Y159357D01*
X107628Y159211D02*
Y159357D01*
X106550Y189002D02*
Y189148D01*
X107800Y189002D02*
Y189148D01*
X106632Y83302D02*
Y83448D01*
X107882Y83302D02*
Y83448D01*
X106275Y113130D02*
Y113275D01*
X107525Y113130D02*
Y113275D01*
X105639Y144011D02*
Y144157D01*
X106889Y144011D02*
Y144157D01*
X106475Y37475D02*
Y37620D01*
X107725Y37475D02*
Y37620D01*
X104882Y83302D02*
Y83448D01*
X103632Y83302D02*
Y83448D01*
X83052Y38420D02*
X83198D01*
X83052Y39670D02*
X83198D01*
X83250Y4629D02*
X85000D01*
X83250Y3029D02*
X85000D01*
X83250Y12300D02*
X85000D01*
X83250Y13900D02*
X85000D01*
X81919Y11000D02*
X84331D01*
X81919Y8850D02*
X84331D01*
X83052Y6760D02*
X83198D01*
X83052Y8010D02*
X83198D01*
X88900Y9885D02*
X89350D01*
X88900Y11235D02*
X89350D01*
X89052Y8010D02*
X89198D01*
X89052Y6760D02*
X89198D01*
X103168Y7457D02*
Y7602D01*
X104418Y7457D02*
Y7602D01*
X102825Y13562D02*
X107425D01*
Y16247D02*
Y16482D01*
Y13562D02*
Y13797D01*
X102825Y16482D02*
X107425D01*
X102825Y16247D02*
Y16482D01*
Y13562D02*
Y13797D01*
X83052Y53996D02*
X83198D01*
X83052Y55246D02*
X83198D01*
X89052Y55373D02*
X89198D01*
X89052Y54123D02*
X89198D01*
X81919Y56086D02*
X84331D01*
X81919Y58236D02*
X84331D01*
X83250Y50646D02*
X85000D01*
X83250Y52246D02*
X85000D01*
X88900Y56740D02*
X89350D01*
X88900Y58090D02*
X89350D01*
X83250Y60044D02*
X85000D01*
X83250Y61644D02*
X85000D01*
X103075Y54901D02*
Y55047D01*
X104325Y54901D02*
Y55047D01*
X102825Y60880D02*
Y61115D01*
Y63565D02*
Y63800D01*
X107425D01*
Y60880D02*
Y61115D01*
Y63565D02*
Y63800D01*
X102825Y60880D02*
X107425D01*
X83250Y46449D02*
X85000D01*
X83250Y44849D02*
X85000D01*
X83250Y34689D02*
X85000D01*
X83250Y36289D02*
X85000D01*
X81919Y41018D02*
X84331D01*
X81919Y43168D02*
X84331D01*
X102825Y119363D02*
Y119598D01*
Y122048D02*
Y122283D01*
X107425D01*
Y119363D02*
Y119598D01*
Y122048D02*
Y122283D01*
X102825Y119363D02*
X107425D01*
X104600Y113130D02*
Y113275D01*
X103350Y113130D02*
Y113275D01*
X89052Y37647D02*
X89198D01*
X89052Y36397D02*
X89198D01*
X136480Y181034D02*
X138680D01*
X136480Y178884D02*
X138680D01*
X136480Y178621D02*
X138680D01*
X136480Y176471D02*
X138680D01*
X86157Y176185D02*
X88357D01*
X86157Y174035D02*
X88357D01*
X85717Y25575D02*
X87917D01*
X85717Y23425D02*
X87917D01*
X165891Y139172D02*
X167128Y140409D01*
X167022Y138041D02*
X168259Y139278D01*
X165750Y169427D02*
Y169573D01*
X167000Y169427D02*
Y169573D01*
X158275Y169427D02*
Y169573D01*
X157025Y169427D02*
Y169573D01*
X184925Y169377D02*
Y169523D01*
X183675Y169377D02*
Y169523D01*
X184910Y191128D02*
Y191373D01*
X186160Y191128D02*
Y191373D01*
X181080Y190882D02*
Y191128D01*
X179830Y190882D02*
Y191128D01*
X87455Y173475D02*
X87700D01*
X87455Y172225D02*
X87700D01*
X87160Y66950D02*
X87405D01*
X87160Y68200D02*
X87405D01*
X83452Y173554D02*
X83698D01*
X83452Y172304D02*
X83698D01*
X83327Y68100D02*
X83573D01*
X83327Y66850D02*
X83573D01*
X83052Y159621D02*
X83198D01*
X83052Y158371D02*
X83198D01*
X89052Y159621D02*
X89198D01*
X89052Y158371D02*
X89198D01*
X141952Y186299D02*
X142097D01*
X141952Y185049D02*
X142097D01*
X121632Y186299D02*
X121777D01*
X121632Y185049D02*
X121777D01*
X137634Y186299D02*
X137779D01*
X137634Y185049D02*
X137779D01*
X117314Y186299D02*
X117459D01*
X117314Y185049D02*
X117459D01*
X141380Y191190D02*
Y191335D01*
X140130Y191190D02*
Y191335D01*
X121060Y191063D02*
Y191208D01*
X119810Y191063D02*
Y191208D01*
X143178Y175950D02*
Y176095D01*
X144428Y175950D02*
Y176095D01*
X124887Y175932D02*
Y176078D01*
X123637Y175932D02*
Y176078D01*
X151985Y186299D02*
X152130D01*
X151985Y185049D02*
X152130D01*
X131665Y186299D02*
X131810D01*
X131665Y185049D02*
X131810D01*
X143051Y168711D02*
Y168856D01*
X144301Y168711D02*
Y168856D01*
X124870Y168711D02*
Y168856D01*
X123620Y168711D02*
Y168856D01*
X146988Y168711D02*
Y168856D01*
X148238Y168711D02*
Y168856D01*
X147667Y186299D02*
X147812D01*
X147667Y185049D02*
X147812D01*
X127347Y186299D02*
X127492D01*
X127347Y185049D02*
X127492D01*
X149635Y191190D02*
Y191335D01*
X148385Y191190D02*
Y191335D01*
X129315Y191098D02*
Y191243D01*
X128065Y191098D02*
Y191243D01*
X140936Y179461D02*
X141081D01*
X140936Y180711D02*
X141081D01*
X134332Y179207D02*
X134477D01*
X134332Y180457D02*
X134477D01*
X103378Y159211D02*
Y159357D01*
X104628Y159211D02*
Y159357D01*
X88900Y165059D02*
X89350D01*
X88900Y163709D02*
X89350D01*
X81919Y163132D02*
X84331D01*
X81919Y165282D02*
X84331D01*
X16500Y174933D02*
Y175078D01*
X17750Y174933D02*
Y175078D01*
X16500Y129987D02*
Y130132D01*
X17750Y129987D02*
Y130132D01*
X83050Y188956D02*
X83196D01*
X83050Y190206D02*
X83196D01*
X83052Y82619D02*
X83198D01*
X83052Y83869D02*
X83198D01*
X16500Y25065D02*
Y25210D01*
X17750Y25065D02*
Y25210D01*
X188227Y169050D02*
X188473D01*
X188227Y167800D02*
X188473D01*
X174252Y100925D02*
X174398D01*
X174252Y102175D02*
X174398D01*
X190102Y117625D02*
X190248D01*
X190102Y116375D02*
X190248D01*
X174247Y99425D02*
X174393D01*
X174247Y98175D02*
X174393D01*
X185577Y117625D02*
X185723D01*
X185577Y116375D02*
X185723D01*
X89052Y188331D02*
X89198D01*
X89052Y189581D02*
X89198D01*
X89052Y82465D02*
X89198D01*
X89052Y83715D02*
X89198D01*
X104800Y189002D02*
Y189148D01*
X103550Y189002D02*
Y189148D01*
X88900Y192656D02*
X89350D01*
X88900Y194006D02*
X89350D01*
X88900Y87722D02*
X89350D01*
X88900Y86372D02*
X89350D01*
X81919Y192256D02*
X84331D01*
X81919Y194406D02*
X84331D01*
X81919Y85972D02*
X84331D01*
X81919Y88122D02*
X84331D01*
X87076Y126210D02*
X87321D01*
X87076Y127460D02*
X87321D01*
X87052Y21600D02*
X87298D01*
X87052Y22850D02*
X87298D01*
X83401Y127540D02*
X83646D01*
X83401Y126290D02*
X83646D01*
X83378Y22736D02*
X83623D01*
X83378Y21486D02*
X83623D01*
X83052Y113610D02*
X83198D01*
X83052Y112360D02*
X83198D01*
X89052Y112487D02*
X89198D01*
X89052Y113737D02*
X89198D01*
X196515Y189752D02*
Y189898D01*
X197765Y189752D02*
Y189898D01*
X88900Y116200D02*
X89350D01*
X88900Y114850D02*
X89350D01*
X193975Y189752D02*
Y189898D01*
X195225Y189752D02*
Y189898D01*
X81919Y114450D02*
X84331D01*
X81919Y116600D02*
X84331D01*
X104681Y37475D02*
Y37620D01*
X103431Y37475D02*
Y37620D01*
X83052Y144593D02*
X83198D01*
X83052Y143343D02*
X83198D01*
X89052D02*
X89198D01*
X89052Y144593D02*
X89198D01*
X88900Y42882D02*
X89350D01*
X88900Y41532D02*
X89350D01*
X181516Y135693D02*
X181618Y135591D01*
X180632Y134809D02*
X180734Y134707D01*
X88900Y147691D02*
X89350D01*
X88900Y146341D02*
X89350D01*
X81919Y145560D02*
X84331D01*
X81919Y147710D02*
X84331D01*
X83250Y156494D02*
X85000D01*
X83250Y154894D02*
X85000D01*
X83250Y168055D02*
X85000D01*
X83250Y166455D02*
X85000D01*
X102825Y165317D02*
X107425D01*
Y168002D02*
Y168237D01*
Y165317D02*
Y165552D01*
X102825Y168237D02*
X107425D01*
X102825Y168002D02*
Y168237D01*
Y165317D02*
Y165552D01*
X83000Y185800D02*
X84750D01*
X83000Y187400D02*
X84750D01*
X83250Y197560D02*
X85000D01*
X83250Y195960D02*
X85000D01*
X83250Y90402D02*
X85000D01*
X83250Y88802D02*
X85000D01*
X102825Y195116D02*
X107425D01*
Y197801D02*
Y198036D01*
Y195116D02*
Y195351D01*
X102825Y198036D02*
X107425D01*
X102825Y197801D02*
Y198036D01*
Y195116D02*
Y195351D01*
Y89356D02*
X107425D01*
Y92041D02*
Y92276D01*
Y89356D02*
Y89591D01*
X102825Y92276D02*
X107425D01*
X102825Y92041D02*
Y92276D01*
Y89356D02*
Y89591D01*
X83250Y110483D02*
X85000D01*
X83250Y108883D02*
X85000D01*
X83250Y119627D02*
X85000D01*
X83250Y118027D02*
X85000D01*
X83250Y141593D02*
X85000D01*
X83250Y139993D02*
X85000D01*
X83250Y150864D02*
X85000D01*
X83250Y149264D02*
X85000D01*
X102825Y150092D02*
X107425D01*
Y152777D02*
Y153012D01*
Y150092D02*
Y150327D01*
X102825Y153012D02*
X107425D01*
X102825Y152777D02*
Y153012D01*
Y150092D02*
Y150327D01*
Y43611D02*
X107425D01*
Y46296D02*
Y46531D01*
Y43611D02*
Y43846D01*
X102825Y46531D02*
X107425D01*
X102825Y46296D02*
Y46531D01*
Y43611D02*
Y43846D01*
X167553Y173404D02*
Y176710D01*
X165197Y173404D02*
Y176710D01*
X158903Y173404D02*
Y176710D01*
X156547Y173404D02*
Y176710D01*
X185478Y173404D02*
Y176710D01*
X183122Y173404D02*
Y176710D01*
X189150Y94875D02*
Y96625D01*
X185750Y94875D02*
Y96625D01*
X187150Y99675D02*
X187750D01*
X187450Y99375D02*
Y99975D01*
X93184Y129504D02*
Y128837D01*
X93050Y128704D01*
X92784D01*
X92650Y128837D01*
Y129504D01*
X92384Y128704D02*
X92117D01*
X92251D01*
Y129504D01*
X92384Y129370D01*
X91717Y129504D02*
X91184D01*
Y129370D01*
X91717Y128837D01*
Y128704D01*
D140*
X175845Y80173D02*
Y89825D01*
X167209Y80046D02*
X175845D01*
Y70394D02*
Y79919D01*
D141*
X200919Y90286D02*
X214381D01*
X200919Y106161D02*
X214381D01*
X200919Y90286D02*
Y106161D01*
X214381Y90286D02*
Y106161D01*
X294Y184559D02*
X13756D01*
X294Y168684D02*
X13756D01*
Y184559D01*
X294Y168684D02*
Y184559D01*
X319Y139389D02*
X13781D01*
X319Y123514D02*
X13781D01*
Y139389D01*
X319Y123514D02*
Y139389D01*
X169Y79439D02*
X13631D01*
X169Y63564D02*
X13631D01*
Y79439D01*
X169Y63564D02*
Y79439D01*
X-156Y34689D02*
X13306D01*
X-156Y18814D02*
X13306D01*
Y34689D01*
X-156Y18814D02*
Y34689D01*
X177980Y53405D02*
X180520D01*
Y58485D01*
X177980D02*
X180520D01*
X177980Y53405D02*
Y58485D01*
X165436Y75572D02*
Y76372D01*
X165036D01*
X164903Y76238D01*
Y75972D01*
X165036Y75839D01*
X165436D01*
X165169D02*
X164903Y75572D01*
X164636D02*
X164369D01*
X164503D01*
Y76372D01*
X164636Y76238D01*
X34565Y175723D02*
Y175190D01*
X34298Y174923D01*
X34031Y175190D01*
Y175723D01*
X33765D02*
Y174923D01*
X33365D01*
X33232Y175057D01*
Y175590D01*
X33365Y175723D01*
X33765D01*
X32965Y174923D02*
X32699D01*
X32832D01*
Y175723D01*
X32965Y175590D01*
X31765Y175723D02*
X32032Y175590D01*
X32299Y175323D01*
Y175057D01*
X32165Y174923D01*
X31899D01*
X31765Y175057D01*
Y175190D01*
X31899Y175323D01*
X32299D01*
X34565Y70669D02*
Y70136D01*
X34298Y69869D01*
X34031Y70136D01*
Y70669D01*
X33765D02*
Y69869D01*
X33365D01*
X33232Y70002D01*
Y70535D01*
X33365Y70669D01*
X33765D01*
X32965Y69869D02*
X32699D01*
X32832D01*
Y70669D01*
X32965Y70535D01*
X31765Y70669D02*
X32299D01*
Y70269D01*
X32032Y70402D01*
X31899D01*
X31765Y70269D01*
Y70002D01*
X31899Y69869D01*
X32165D01*
X32299Y70002D01*
X52497Y158400D02*
Y157867D01*
X52230Y157601D01*
X51964Y157867D01*
Y158400D01*
X51697D02*
Y157601D01*
X51297D01*
X51164Y157734D01*
Y158267D01*
X51297Y158400D01*
X51697D01*
X50898Y157601D02*
X50631D01*
X50764D01*
Y158400D01*
X50898Y158267D01*
X49831Y157601D02*
Y158400D01*
X50231Y158000D01*
X49698D01*
X52497Y53702D02*
Y53168D01*
X52230Y52902D01*
X51964Y53168D01*
Y53702D01*
X51697D02*
Y52902D01*
X51297D01*
X51164Y53035D01*
Y53568D01*
X51297Y53702D01*
X51697D01*
X50898Y52902D02*
X50631D01*
X50764D01*
Y53702D01*
X50898Y53568D01*
X50231D02*
X50098Y53702D01*
X49831D01*
X49698Y53568D01*
Y53435D01*
X49831Y53302D01*
X49964D01*
X49831D01*
X49698Y53168D01*
Y53035D01*
X49831Y52902D01*
X50098D01*
X50231Y53035D01*
X44496Y175622D02*
Y175088D01*
X44229Y174822D01*
X43963Y175088D01*
Y175622D01*
X43696D02*
Y174822D01*
X43296D01*
X43163Y174955D01*
Y175488D01*
X43296Y175622D01*
X43696D01*
X42897Y174822D02*
X42630D01*
X42763D01*
Y175622D01*
X42897Y175488D01*
X41697Y174822D02*
X42230D01*
X41697Y175355D01*
Y175488D01*
X41830Y175622D01*
X42097D01*
X42230Y175488D01*
X44242Y70542D02*
Y70009D01*
X43975Y69742D01*
X43709Y70009D01*
Y70542D01*
X43442D02*
Y69742D01*
X43042D01*
X42909Y69875D01*
Y70408D01*
X43042Y70542D01*
X43442D01*
X42643Y69742D02*
X42376D01*
X42509D01*
Y70542D01*
X42643Y70408D01*
X41976Y69742D02*
X41709D01*
X41843D01*
Y70542D01*
X41976Y70408D01*
X52497Y80676D02*
Y80143D01*
X52230Y79877D01*
X51964Y80143D01*
Y80676D01*
X51697D02*
Y79877D01*
X51297D01*
X51164Y80010D01*
Y80543D01*
X51297Y80676D01*
X51697D01*
X50898Y79877D02*
X50631D01*
X50764D01*
Y80676D01*
X50898Y80543D01*
X50231D02*
X50098Y80676D01*
X49831D01*
X49698Y80543D01*
Y80010D01*
X49831Y79877D01*
X50098D01*
X50231Y80010D01*
Y80543D01*
X51837Y187407D02*
Y186874D01*
X51570Y186607D01*
X51303Y186874D01*
Y187407D01*
X51037D02*
Y186607D01*
X50637D01*
X50504Y186741D01*
Y187274D01*
X50637Y187407D01*
X51037D01*
X50237Y186741D02*
X50104Y186607D01*
X49837D01*
X49704Y186741D01*
Y187274D01*
X49837Y187407D01*
X50104D01*
X50237Y187274D01*
Y187141D01*
X50104Y187007D01*
X49704D01*
X33879Y25254D02*
Y24720D01*
X33612Y24454D01*
X33346Y24720D01*
Y25254D01*
X33079D02*
Y24454D01*
X32679D01*
X32546Y24587D01*
Y25120D01*
X32679Y25254D01*
X33079D01*
X32279Y25120D02*
X32146Y25254D01*
X31879D01*
X31746Y25120D01*
Y24987D01*
X31879Y24854D01*
X31746Y24720D01*
Y24587D01*
X31879Y24454D01*
X32146D01*
X32279Y24587D01*
Y24720D01*
X32146Y24854D01*
X32279Y24987D01*
Y25120D01*
X32146Y24854D02*
X31879D01*
X33879Y130105D02*
Y129572D01*
X33612Y129305D01*
X33346Y129572D01*
Y130105D01*
X33079D02*
Y129305D01*
X32679D01*
X32546Y129438D01*
Y129971D01*
X32679Y130105D01*
X33079D01*
X32279D02*
X31746D01*
Y129971D01*
X32279Y129438D01*
Y129305D01*
X51837Y114408D02*
Y113874D01*
X51570Y113608D01*
X51303Y113874D01*
Y114408D01*
X51037D02*
Y113608D01*
X50637D01*
X50504Y113741D01*
Y114274D01*
X50637Y114408D01*
X51037D01*
X49704D02*
X49971Y114274D01*
X50237Y114008D01*
Y113741D01*
X50104Y113608D01*
X49837D01*
X49704Y113741D01*
Y113874D01*
X49837Y114008D01*
X50237D01*
X51837Y9658D02*
Y9125D01*
X51570Y8858D01*
X51303Y9125D01*
Y9658D01*
X51037D02*
Y8858D01*
X50637D01*
X50504Y8991D01*
Y9525D01*
X50637Y9658D01*
X51037D01*
X49704D02*
X50237D01*
Y9258D01*
X49971Y9391D01*
X49837D01*
X49704Y9258D01*
Y8991D01*
X49837Y8858D01*
X50104D01*
X50237Y8991D01*
X33879Y140570D02*
Y140036D01*
X33612Y139770D01*
X33346Y140036D01*
Y140570D01*
X33079D02*
Y139770D01*
X32679D01*
X32546Y139903D01*
Y140436D01*
X32679Y140570D01*
X33079D01*
X31879Y139770D02*
Y140570D01*
X32279Y140170D01*
X31746D01*
X33879Y35871D02*
Y35338D01*
X33612Y35071D01*
X33346Y35338D01*
Y35871D01*
X33079D02*
Y35071D01*
X32679D01*
X32546Y35204D01*
Y35737D01*
X32679Y35871D01*
X33079D01*
X32279Y35737D02*
X32146Y35871D01*
X31879D01*
X31746Y35737D01*
Y35604D01*
X31879Y35471D01*
X32013D01*
X31879D01*
X31746Y35338D01*
Y35204D01*
X31879Y35071D01*
X32146D01*
X32279Y35204D01*
X51837Y142144D02*
Y141611D01*
X51570Y141345D01*
X51303Y141611D01*
Y142144D01*
X51037D02*
Y141345D01*
X50637D01*
X50504Y141478D01*
Y142011D01*
X50637Y142144D01*
X51037D01*
X49704Y141345D02*
X50237D01*
X49704Y141878D01*
Y142011D01*
X49837Y142144D01*
X50104D01*
X50237Y142011D01*
X51583Y36430D02*
Y35896D01*
X51316Y35630D01*
X51049Y35896D01*
Y36430D01*
X50783D02*
Y35630D01*
X50383D01*
X50250Y35763D01*
Y36296D01*
X50383Y36430D01*
X50783D01*
X49983Y35630D02*
X49717D01*
X49850D01*
Y36430D01*
X49983Y36296D01*
X97525Y124530D02*
X97658Y124663D01*
X97925D01*
X98058Y124530D01*
Y123997D01*
X97925Y123864D01*
X97658D01*
X97525Y123997D01*
X96858Y123864D02*
Y124663D01*
X97258Y124263D01*
X96725D01*
X96459Y123864D02*
X96192D01*
X96325D01*
Y124663D01*
X96459Y124530D01*
X97658Y170686D02*
X97791Y170820D01*
X98058D01*
X98191Y170686D01*
Y170153D01*
X98058Y170020D01*
X97791D01*
X97658Y170153D01*
X97392Y170686D02*
X97258Y170820D01*
X96992D01*
X96858Y170686D01*
Y170553D01*
X96992Y170420D01*
X97125D01*
X96992D01*
X96858Y170286D01*
Y170153D01*
X96992Y170020D01*
X97258D01*
X97392Y170153D01*
X96592Y170820D02*
X96059D01*
Y170686D01*
X96592Y170153D01*
Y170020D01*
X110008Y163617D02*
X110141Y163750D01*
X110408D01*
X110541Y163617D01*
Y163083D01*
X110408Y162950D01*
X110141D01*
X110008Y163083D01*
X109742Y163617D02*
X109608Y163750D01*
X109342D01*
X109208Y163617D01*
Y163483D01*
X109342Y163350D01*
X109475D01*
X109342D01*
X109208Y163217D01*
Y163083D01*
X109342Y162950D01*
X109608D01*
X109742Y163083D01*
X108409Y163750D02*
X108675Y163617D01*
X108942Y163350D01*
Y163083D01*
X108809Y162950D01*
X108542D01*
X108409Y163083D01*
Y163217D01*
X108542Y163350D01*
X108942D01*
X97735Y66802D02*
X97868Y66935D01*
X98134D01*
X98268Y66802D01*
Y66268D01*
X98134Y66135D01*
X97868D01*
X97735Y66268D01*
X97468Y66802D02*
X97335Y66935D01*
X97068D01*
X96935Y66802D01*
Y66668D01*
X97068Y66535D01*
X97201D01*
X97068D01*
X96935Y66402D01*
Y66268D01*
X97068Y66135D01*
X97335D01*
X97468Y66268D01*
X96135Y66935D02*
X96668D01*
Y66535D01*
X96402Y66668D01*
X96268D01*
X96135Y66535D01*
Y66268D01*
X96268Y66135D01*
X96535D01*
X96668Y66268D01*
X110019Y59424D02*
X110153Y59557D01*
X110419D01*
X110553Y59424D01*
Y58890D01*
X110419Y58757D01*
X110153D01*
X110019Y58890D01*
X109753Y59424D02*
X109620Y59557D01*
X109353D01*
X109220Y59424D01*
Y59290D01*
X109353Y59157D01*
X109486D01*
X109353D01*
X109220Y59024D01*
Y58890D01*
X109353Y58757D01*
X109620D01*
X109753Y58890D01*
X108553Y58757D02*
Y59557D01*
X108953Y59157D01*
X108420D01*
X17775Y183388D02*
X17909Y183521D01*
X18175D01*
X18309Y183388D01*
Y182854D01*
X18175Y182721D01*
X17909D01*
X17775Y182854D01*
X17509Y183388D02*
X17376Y183521D01*
X17109D01*
X16976Y183388D01*
Y183254D01*
X17109Y183121D01*
X17242D01*
X17109D01*
X16976Y182988D01*
Y182854D01*
X17109Y182721D01*
X17376D01*
X17509Y182854D01*
X16709Y183388D02*
X16576Y183521D01*
X16309D01*
X16176Y183388D01*
Y183254D01*
X16309Y183121D01*
X16443D01*
X16309D01*
X16176Y182988D01*
Y182854D01*
X16309Y182721D01*
X16576D01*
X16709Y182854D01*
X17801Y78511D02*
X17934Y78644D01*
X18201D01*
X18334Y78511D01*
Y77978D01*
X18201Y77845D01*
X17934D01*
X17801Y77978D01*
X17534Y78511D02*
X17401Y78644D01*
X17134D01*
X17001Y78511D01*
Y78378D01*
X17134Y78244D01*
X17268D01*
X17134D01*
X17001Y78111D01*
Y77978D01*
X17134Y77845D01*
X17401D01*
X17534Y77978D01*
X16201Y77845D02*
X16735D01*
X16201Y78378D01*
Y78511D01*
X16335Y78644D01*
X16601D01*
X16735Y78511D01*
X94500Y198942D02*
X94633Y199075D01*
X94900D01*
X95033Y198942D01*
Y198408D01*
X94900Y198275D01*
X94633D01*
X94500Y198408D01*
X94233Y198942D02*
X94100Y199075D01*
X93833D01*
X93700Y198942D01*
Y198808D01*
X93833Y198675D01*
X93967D01*
X93833D01*
X93700Y198542D01*
Y198408D01*
X93833Y198275D01*
X94100D01*
X94233Y198408D01*
X93434Y198275D02*
X93167D01*
X93300D01*
Y199075D01*
X93434Y198942D01*
X110633Y193417D02*
X110766Y193550D01*
X111033D01*
X111166Y193417D01*
Y192883D01*
X111033Y192750D01*
X110766D01*
X110633Y192883D01*
X110367Y193417D02*
X110233Y193550D01*
X109967D01*
X109833Y193417D01*
Y193283D01*
X109967Y193150D01*
X110100D01*
X109967D01*
X109833Y193017D01*
Y192883D01*
X109967Y192750D01*
X110233D01*
X110367Y192883D01*
X109567Y193417D02*
X109434Y193550D01*
X109167D01*
X109034Y193417D01*
Y192883D01*
X109167Y192750D01*
X109434D01*
X109567Y192883D01*
Y193417D01*
X97785Y95300D02*
X97919Y95434D01*
X98185D01*
X98319Y95300D01*
Y94767D01*
X98185Y94634D01*
X97919D01*
X97785Y94767D01*
X96986Y94634D02*
X97519D01*
X96986Y95167D01*
Y95300D01*
X97119Y95434D01*
X97386D01*
X97519Y95300D01*
X96719Y94767D02*
X96586Y94634D01*
X96319D01*
X96186Y94767D01*
Y95300D01*
X96319Y95434D01*
X96586D01*
X96719Y95300D01*
Y95167D01*
X96586Y95034D01*
X96186D01*
X110801Y87567D02*
X110934Y87700D01*
X111201D01*
X111334Y87567D01*
Y87033D01*
X111201Y86900D01*
X110934D01*
X110801Y87033D01*
X110001Y86900D02*
X110534D01*
X110001Y87433D01*
Y87567D01*
X110134Y87700D01*
X110401D01*
X110534Y87567D01*
X109201Y87700D02*
X109735D01*
Y87300D01*
X109468Y87433D01*
X109335D01*
X109201Y87300D01*
Y87033D01*
X109335Y86900D01*
X109601D01*
X109735Y87033D01*
X97658Y19532D02*
X97792Y19666D01*
X98058D01*
X98192Y19532D01*
Y18999D01*
X98058Y18866D01*
X97792D01*
X97658Y18999D01*
X96859Y18866D02*
X97392D01*
X96859Y19399D01*
Y19532D01*
X96992Y19666D01*
X97259D01*
X97392Y19532D01*
X96192Y18866D02*
Y19666D01*
X96592Y19266D01*
X96059D01*
X109592Y117340D02*
X109725Y117474D01*
X109991D01*
X110125Y117340D01*
Y116807D01*
X109991Y116674D01*
X109725D01*
X109592Y116807D01*
X109325Y116674D02*
X109058D01*
X109192D01*
Y117474D01*
X109325Y117340D01*
X108125Y117474D02*
X108392Y117340D01*
X108658Y117074D01*
Y116807D01*
X108525Y116674D01*
X108259D01*
X108125Y116807D01*
Y116940D01*
X108259Y117074D01*
X108658D01*
X111517Y12067D02*
X111650Y12200D01*
X111916D01*
X112050Y12067D01*
Y11533D01*
X111916Y11400D01*
X111650D01*
X111517Y11533D01*
X111250Y11400D02*
X110983D01*
X111117D01*
Y12200D01*
X111250Y12067D01*
X110050Y12200D02*
X110583D01*
Y11800D01*
X110317Y11933D01*
X110184D01*
X110050Y11800D01*
Y11533D01*
X110184Y11400D01*
X110450D01*
X110583Y11533D01*
X17617Y138042D02*
X17750Y138175D01*
X18016D01*
X18150Y138042D01*
Y137508D01*
X18016Y137375D01*
X17750D01*
X17617Y137508D01*
X17350Y137375D02*
X17083D01*
X17217D01*
Y138175D01*
X17350Y138042D01*
X16284Y137375D02*
Y138175D01*
X16683Y137775D01*
X16150D01*
X97792Y155267D02*
X97925Y155400D01*
X98191D01*
X98325Y155267D01*
Y154733D01*
X98191Y154600D01*
X97925D01*
X97792Y154733D01*
X97525Y154600D02*
X97258D01*
X97392D01*
Y155400D01*
X97525Y155267D01*
X96858D02*
X96725Y155400D01*
X96459D01*
X96325Y155267D01*
Y155133D01*
X96459Y155000D01*
X96592D01*
X96459D01*
X96325Y154867D01*
Y154733D01*
X96459Y154600D01*
X96725D01*
X96858Y154733D01*
X97667Y49042D02*
X97800Y49175D01*
X98066D01*
X98200Y49042D01*
Y48508D01*
X98066Y48375D01*
X97800D01*
X97667Y48508D01*
X97400Y48375D02*
X97133D01*
X97267D01*
Y49175D01*
X97400Y49042D01*
X96200Y48375D02*
X96733D01*
X96200Y48908D01*
Y49042D01*
X96334Y49175D01*
X96600D01*
X96733Y49042D01*
X110258Y148617D02*
X110392Y148750D01*
X110658D01*
X110791Y148617D01*
Y148083D01*
X110658Y147950D01*
X110392D01*
X110258Y148083D01*
X109992Y147950D02*
X109725D01*
X109858D01*
Y148750D01*
X109992Y148617D01*
X109325Y147950D02*
X109059D01*
X109192D01*
Y148750D01*
X109325Y148617D01*
X109833Y42117D02*
X109967Y42250D01*
X110233D01*
X110366Y42117D01*
Y41583D01*
X110233Y41450D01*
X109967D01*
X109833Y41583D01*
X109567D02*
X109433Y41450D01*
X109167D01*
X109034Y41583D01*
Y42117D01*
X109167Y42250D01*
X109433D01*
X109567Y42117D01*
Y41983D01*
X109433Y41850D01*
X109034D01*
X17308Y33017D02*
X17442Y33150D01*
X17708D01*
X17841Y33017D01*
Y32483D01*
X17708Y32350D01*
X17442D01*
X17308Y32483D01*
X17042Y33150D02*
X16509D01*
Y33017D01*
X17042Y32483D01*
Y32350D01*
X107300Y52716D02*
X106500D01*
Y52316D01*
X106633Y52183D01*
X106900D01*
X107033Y52316D01*
Y52716D01*
Y52450D02*
X107300Y52183D01*
X106500Y51917D02*
Y51383D01*
X106633D01*
X107167Y51917D01*
X107300D01*
X107167Y51117D02*
X107300Y50984D01*
Y50717D01*
X107167Y50584D01*
X106633D01*
X106500Y50717D01*
Y50984D01*
X106633Y51117D01*
X106767D01*
X106900Y50984D01*
Y50584D01*
X103450Y142150D02*
X102650D01*
Y141750D01*
X102783Y141617D01*
X103050D01*
X103183Y141750D01*
Y142150D01*
Y141883D02*
X103450Y141617D01*
Y141350D02*
Y141083D01*
Y141217D01*
X102650D01*
X102783Y141350D01*
Y140683D02*
X102650Y140550D01*
Y140284D01*
X102783Y140150D01*
X102917D01*
X103050Y140284D01*
Y140417D01*
Y140284D01*
X103183Y140150D01*
X103317D01*
X103450Y140284D01*
Y140550D01*
X103317Y140683D01*
X80794Y80800D02*
Y80000D01*
X80394D01*
X80261Y80133D01*
Y80667D01*
X80394Y80800D01*
X80794D01*
X79994Y80000D02*
X79728D01*
X79861D01*
Y80800D01*
X79994Y80667D01*
X79328Y80800D02*
X78795D01*
Y80667D01*
X79328Y80133D01*
Y80000D01*
X94475Y25425D02*
Y24758D01*
X94342Y24625D01*
X94075D01*
X93942Y24758D01*
Y25425D01*
X93675Y24625D02*
X93409D01*
X93542D01*
Y25425D01*
X93675Y25292D01*
X92476Y25425D02*
X92742Y25292D01*
X93009Y25025D01*
Y24758D01*
X92876Y24625D01*
X92609D01*
X92476Y24758D01*
Y24892D01*
X92609Y25025D01*
X93009D01*
X93675Y175510D02*
Y174844D01*
X93541Y174711D01*
X93275D01*
X93142Y174844D01*
Y175510D01*
X92875Y174711D02*
X92608D01*
X92742D01*
Y175510D01*
X92875Y175377D01*
X91675Y175510D02*
X92208D01*
Y175110D01*
X91942Y175244D01*
X91809D01*
X91675Y175110D01*
Y174844D01*
X91809Y174711D01*
X92075D01*
X92208Y174844D01*
X93629Y70300D02*
Y69633D01*
X93496Y69500D01*
X93229D01*
X93096Y69633D01*
Y70300D01*
X92829Y69500D02*
X92563D01*
X92696D01*
Y70300D01*
X92829Y70167D01*
X91763Y69500D02*
Y70300D01*
X92163Y69900D01*
X91630D01*
X19436Y71499D02*
X18636D01*
Y71099D01*
X18769Y70966D01*
X19036D01*
X19169Y71099D01*
Y71499D01*
Y71232D02*
X19436Y70966D01*
Y70699D02*
Y70432D01*
Y70566D01*
X18636D01*
X18769Y70699D01*
X19436Y69499D02*
Y70032D01*
X18903Y69499D01*
X18769D01*
X18636Y69633D01*
Y69899D01*
X18769Y70032D01*
Y69233D02*
X18636Y69099D01*
Y68833D01*
X18769Y68700D01*
X19302D01*
X19436Y68833D01*
Y69099D01*
X19302Y69233D01*
X18769D01*
X96591Y182818D02*
Y183618D01*
X96191D01*
X96058Y183484D01*
Y183218D01*
X96191Y183085D01*
X96591D01*
X96325D02*
X96058Y182818D01*
X95792Y183618D02*
X95258D01*
Y183484D01*
X95792Y182951D01*
Y182818D01*
X94992Y183618D02*
X94459D01*
Y183484D01*
X94992Y182951D01*
Y182818D01*
X93938Y78347D02*
Y77547D01*
X94338D01*
X94471Y77680D01*
Y77947D01*
X94338Y78080D01*
X93938D01*
X94204D02*
X94471Y78347D01*
X94738Y77547D02*
X95271D01*
Y77680D01*
X94738Y78213D01*
Y78347D01*
X96070Y77547D02*
X95804Y77680D01*
X95537Y77947D01*
Y78213D01*
X95671Y78347D01*
X95937D01*
X96070Y78213D01*
Y78080D01*
X95937Y77947D01*
X95537D01*
X85229Y179339D02*
X84429D01*
Y178939D01*
X84563Y178806D01*
X84829D01*
X84962Y178939D01*
Y179339D01*
Y179072D02*
X85229Y178806D01*
X84429Y178539D02*
Y178006D01*
X84563D01*
X85096Y178539D01*
X85229D01*
Y177340D02*
X84429D01*
X84829Y177739D01*
Y177206D01*
X86704Y76738D02*
X85905D01*
Y76338D01*
X86038Y76205D01*
X86304D01*
X86438Y76338D01*
Y76738D01*
Y76472D02*
X86704Y76205D01*
X85905Y75938D02*
Y75405D01*
X86038D01*
X86571Y75938D01*
X86704D01*
X86038Y75139D02*
X85905Y75005D01*
Y74739D01*
X86038Y74605D01*
X86171D01*
X86304Y74739D01*
Y74872D01*
Y74739D01*
X86438Y74605D01*
X86571D01*
X86704Y74739D01*
Y75005D01*
X86571Y75139D01*
X96151Y136745D02*
Y137544D01*
X95752D01*
X95618Y137411D01*
Y137145D01*
X95752Y137011D01*
X96151D01*
X95885D02*
X95618Y136745D01*
X95352Y137544D02*
X94819D01*
Y137411D01*
X95352Y136878D01*
Y136745D01*
X94019D02*
X94552D01*
X94019Y137278D01*
Y137411D01*
X94152Y137544D01*
X94419D01*
X94552Y137411D01*
X87111Y134595D02*
Y135394D01*
X86711D01*
X86578Y135261D01*
Y134994D01*
X86711Y134861D01*
X87111D01*
X86845D02*
X86578Y134595D01*
X86312Y135394D02*
X85778D01*
Y135261D01*
X86312Y134728D01*
Y134595D01*
X85512D02*
X85245D01*
X85379D01*
Y135394D01*
X85512Y135261D01*
X95928Y32625D02*
Y33425D01*
X95528D01*
X95395Y33292D01*
Y33025D01*
X95528Y32892D01*
X95928D01*
X95662D02*
X95395Y32625D01*
X95128Y33425D02*
X94595D01*
Y33292D01*
X95128Y32758D01*
Y32625D01*
X94329Y33292D02*
X94195Y33425D01*
X93929D01*
X93796Y33292D01*
Y32758D01*
X93929Y32625D01*
X94195D01*
X94329Y32758D01*
Y33292D01*
X86525Y31732D02*
X85725D01*
Y31333D01*
X85858Y31199D01*
X86125D01*
X86258Y31333D01*
Y31732D01*
Y31466D02*
X86525Y31199D01*
X85725Y30400D02*
X85858Y30666D01*
X86125Y30933D01*
X86392D01*
X86525Y30799D01*
Y30533D01*
X86392Y30400D01*
X86258D01*
X86125Y30533D01*
Y30933D01*
X86392Y30133D02*
X86525Y30000D01*
Y29733D01*
X86392Y29600D01*
X85858D01*
X85725Y29733D01*
Y30000D01*
X85858Y30133D01*
X85992D01*
X86125Y30000D01*
Y29600D01*
X96058Y181284D02*
X96191Y181418D01*
X96458D01*
X96591Y181284D01*
Y180751D01*
X96458Y180618D01*
X96191D01*
X96058Y180751D01*
X95258Y181418D02*
X95792D01*
Y181018D01*
X95525Y181151D01*
X95392D01*
X95258Y181018D01*
Y180751D01*
X95392Y180618D01*
X95658D01*
X95792Y180751D01*
X94592Y180618D02*
Y181418D01*
X94992Y181018D01*
X94459D01*
X88558Y181777D02*
X88425Y181910D01*
Y182177D01*
X88558Y182310D01*
X89092D01*
X89225Y182177D01*
Y181910D01*
X89092Y181777D01*
X88425Y180977D02*
Y181510D01*
X88825D01*
X88692Y181244D01*
Y181110D01*
X88825Y180977D01*
X89092D01*
X89225Y181110D01*
Y181377D01*
X89092Y181510D01*
X88558Y180711D02*
X88425Y180577D01*
Y180311D01*
X88558Y180177D01*
X88692D01*
X88825Y180311D01*
Y180444D01*
Y180311D01*
X88958Y180177D01*
X89092D01*
X89225Y180311D01*
Y180577D01*
X89092Y180711D01*
X94471Y75668D02*
X94338Y75535D01*
X94071D01*
X93938Y75668D01*
Y76201D01*
X94071Y76335D01*
X94338D01*
X94471Y76201D01*
X95271Y75535D02*
X94738D01*
Y75935D01*
X95004Y75801D01*
X95137D01*
X95271Y75935D01*
Y76201D01*
X95137Y76335D01*
X94871D01*
X94738Y76201D01*
X96070Y76335D02*
X95537D01*
X96070Y75801D01*
Y75668D01*
X95937Y75535D01*
X95671D01*
X95537Y75668D01*
X88213Y76072D02*
X88080Y76205D01*
Y76472D01*
X88213Y76605D01*
X88746D01*
X88879Y76472D01*
Y76205D01*
X88746Y76072D01*
X88080Y75272D02*
Y75805D01*
X88479D01*
X88346Y75539D01*
Y75405D01*
X88479Y75272D01*
X88746D01*
X88879Y75405D01*
Y75672D01*
X88746Y75805D01*
X88879Y75005D02*
Y74739D01*
Y74872D01*
X88080D01*
X88213Y75005D01*
X95618Y135324D02*
X95752Y135457D01*
X96018D01*
X96151Y135324D01*
Y134791D01*
X96018Y134657D01*
X95752D01*
X95618Y134791D01*
X94819Y135457D02*
X95352D01*
Y135057D01*
X95085Y135191D01*
X94952D01*
X94819Y135057D01*
Y134791D01*
X94952Y134657D01*
X95218D01*
X95352Y134791D01*
X94552Y135324D02*
X94419Y135457D01*
X94152D01*
X94019Y135324D01*
Y134791D01*
X94152Y134657D01*
X94419D01*
X94552Y134791D01*
Y135324D01*
X88233Y135483D02*
X88100Y135616D01*
Y135883D01*
X88233Y136016D01*
X88767D01*
X88900Y135883D01*
Y135616D01*
X88767Y135483D01*
X88900Y134817D02*
X88100D01*
X88500Y135217D01*
Y134683D01*
X88767Y134417D02*
X88900Y134284D01*
Y134017D01*
X88767Y133884D01*
X88233D01*
X88100Y134017D01*
Y134284D01*
X88233Y134417D01*
X88367D01*
X88500Y134284D01*
Y133884D01*
X95395Y31042D02*
X95528Y31175D01*
X95795D01*
X95928Y31042D01*
Y30508D01*
X95795Y30375D01*
X95528D01*
X95395Y30508D01*
X94729Y30375D02*
Y31175D01*
X95128Y30775D01*
X94595D01*
X94329Y31175D02*
X93796D01*
Y31042D01*
X94329Y30508D01*
Y30375D01*
X87933Y31308D02*
X87799Y31441D01*
Y31708D01*
X87933Y31841D01*
X88466D01*
X88599Y31708D01*
Y31441D01*
X88466Y31308D01*
X88599Y30642D02*
X87799D01*
X88199Y31042D01*
Y30508D01*
X87799Y29709D02*
X87933Y29975D01*
X88199Y30242D01*
X88466D01*
X88599Y30109D01*
Y29842D01*
X88466Y29709D01*
X88332D01*
X88199Y29842D01*
Y30242D01*
X171733Y104467D02*
X171866Y104600D01*
X172133D01*
X172266Y104467D01*
Y103933D01*
X172133Y103800D01*
X171866D01*
X171733Y103933D01*
X171067Y103800D02*
Y104600D01*
X171467Y104200D01*
X170933D01*
X170267Y103800D02*
Y104600D01*
X170667Y104200D01*
X170134D01*
X193358Y114542D02*
X193491Y114675D01*
X193758D01*
X193891Y114542D01*
Y114008D01*
X193758Y113875D01*
X193491D01*
X193358Y114008D01*
X192692Y113875D02*
Y114675D01*
X193092Y114275D01*
X192558D01*
X192292Y114542D02*
X192159Y114675D01*
X191892D01*
X191759Y114542D01*
Y114408D01*
X191892Y114275D01*
X192025D01*
X191892D01*
X191759Y114142D01*
Y114008D01*
X191892Y113875D01*
X192159D01*
X192292Y114008D01*
X196758Y77137D02*
X196891Y77270D01*
X197158D01*
X197291Y77137D01*
Y76603D01*
X197158Y76470D01*
X196891D01*
X196758Y76603D01*
X196092Y76470D02*
Y77270D01*
X196492Y76870D01*
X195958D01*
X195692Y77137D02*
X195559Y77270D01*
X195292D01*
X195159Y77137D01*
Y76603D01*
X195292Y76470D01*
X195559D01*
X195692Y76603D01*
Y77137D01*
X111044Y84825D02*
X111578D01*
X111311D01*
Y84025D01*
X111844D02*
Y84825D01*
X112244D01*
X112377Y84692D01*
Y84425D01*
X112244Y84292D01*
X111844D01*
X113177Y84825D02*
X112644D01*
Y84425D01*
X112910Y84558D01*
X113044D01*
X113177Y84425D01*
Y84158D01*
X113044Y84025D01*
X112777D01*
X112644Y84158D01*
X113444Y84025D02*
X113710D01*
X113577D01*
Y84825D01*
X113444Y84692D01*
X83492Y85450D02*
X84025D01*
X83759D01*
Y84650D01*
X84292D02*
Y85450D01*
X84692D01*
X84825Y85317D01*
Y85050D01*
X84692Y84917D01*
X84292D01*
X85492Y84650D02*
Y85450D01*
X85092Y85050D01*
X85625D01*
X85891Y84783D02*
X86025Y84650D01*
X86291D01*
X86425Y84783D01*
Y85317D01*
X86291Y85450D01*
X86025D01*
X85891Y85317D01*
Y85183D01*
X86025Y85050D01*
X86425D01*
X76309Y89202D02*
X76842D01*
X76575D01*
Y88402D01*
X77109D02*
Y89202D01*
X77508D01*
X77642Y89069D01*
Y88802D01*
X77508Y88669D01*
X77109D01*
X78308Y88402D02*
Y89202D01*
X77908Y88802D01*
X78441D01*
X78708Y89202D02*
X79241D01*
Y89069D01*
X78708Y88535D01*
Y88402D01*
X87186Y111244D02*
X87719D01*
X87453D01*
Y110444D01*
X87986D02*
Y111244D01*
X88386D01*
X88519Y111110D01*
Y110844D01*
X88386Y110711D01*
X87986D01*
X89186Y110444D02*
Y111244D01*
X88786Y110844D01*
X89319D01*
X90119Y110444D02*
X89585D01*
X90119Y110977D01*
Y111110D01*
X89985Y111244D01*
X89719D01*
X89585Y111110D01*
X111084Y117500D02*
X111617D01*
X111350D01*
Y116700D01*
X111884D02*
Y117500D01*
X112283D01*
X112417Y117367D01*
Y117100D01*
X112283Y116967D01*
X111884D01*
X112683Y117367D02*
X112817Y117500D01*
X113083D01*
X113216Y117367D01*
Y117233D01*
X113083Y117100D01*
X112950D01*
X113083D01*
X113216Y116967D01*
Y116833D01*
X113083Y116700D01*
X112817D01*
X112683Y116833D01*
X113483Y117367D02*
X113616Y117500D01*
X113883D01*
X114016Y117367D01*
Y117233D01*
X113883Y117100D01*
X114016Y116967D01*
Y116833D01*
X113883Y116700D01*
X113616D01*
X113483Y116833D01*
Y116967D01*
X113616Y117100D01*
X113483Y117233D01*
Y117367D01*
X113616Y117100D02*
X113883D01*
X83909Y114600D02*
X84442D01*
X84175D01*
Y113800D01*
X84709D02*
Y114600D01*
X85108D01*
X85242Y114467D01*
Y114200D01*
X85108Y114067D01*
X84709D01*
X85508Y114467D02*
X85642Y114600D01*
X85908D01*
X86041Y114467D01*
Y114333D01*
X85908Y114200D01*
X85775D01*
X85908D01*
X86041Y114067D01*
Y113933D01*
X85908Y113800D01*
X85642D01*
X85508Y113933D01*
X86841Y114600D02*
X86575Y114467D01*
X86308Y114200D01*
Y113933D01*
X86441Y113800D01*
X86708D01*
X86841Y113933D01*
Y114067D01*
X86708Y114200D01*
X86308D01*
X90034Y120448D02*
X90567D01*
X90300D01*
Y119648D01*
X90834D02*
Y120448D01*
X91233D01*
X91367Y120314D01*
Y120048D01*
X91233Y119915D01*
X90834D01*
X91633Y120314D02*
X91767Y120448D01*
X92033D01*
X92166Y120314D01*
Y120181D01*
X92033Y120048D01*
X91900D01*
X92033D01*
X92166Y119915D01*
Y119781D01*
X92033Y119648D01*
X91767D01*
X91633Y119781D01*
X92833Y119648D02*
Y120448D01*
X92433Y120048D01*
X92966D01*
X179831Y114573D02*
X180397Y114007D01*
X180114Y113725D01*
X179925Y113725D01*
X179548Y114102D01*
Y114290D01*
X179831Y114573D01*
X179548Y113159D02*
X178983Y113725D01*
X179548Y113725D01*
X179171Y113348D01*
X178794D02*
X178606Y113348D01*
X178417Y113159D01*
Y112971D01*
X178512Y112876D01*
X178700D01*
X178700Y112688D01*
X178794Y112594D01*
X178983Y112594D01*
X179171Y112782D01*
Y112971D01*
X179077Y113065D01*
X178889D01*
X178889Y113253D01*
X178794Y113348D01*
X178889Y113065D02*
X178700Y112876D01*
X199033Y165558D02*
X198900Y165691D01*
Y165958D01*
X199033Y166091D01*
X199567D01*
X199700Y165958D01*
Y165691D01*
X199567Y165558D01*
X199700Y164758D02*
Y165292D01*
X199167Y164758D01*
X199033D01*
X198900Y164892D01*
Y165158D01*
X199033Y165292D01*
Y164492D02*
X198900Y164359D01*
Y164092D01*
X199033Y163959D01*
X199167D01*
X199300Y164092D01*
X199433Y163959D01*
X199567D01*
X199700Y164092D01*
Y164359D01*
X199567Y164492D01*
X199433D01*
X199300Y164359D01*
X199167Y164492D01*
X199033D01*
X199300Y164359D02*
Y164092D01*
X138013Y182249D02*
X138146Y182382D01*
X138413D01*
X138546Y182249D01*
Y181716D01*
X138413Y181583D01*
X138146D01*
X138013Y181716D01*
X137213Y181583D02*
X137746D01*
X137213Y182116D01*
Y182249D01*
X137346Y182382D01*
X137613D01*
X137746Y182249D01*
X136946Y182382D02*
X136413D01*
Y182249D01*
X136946Y181716D01*
Y181583D01*
X140825Y177813D02*
X140958Y177946D01*
X141224D01*
X141358Y177813D01*
Y177280D01*
X141224Y177147D01*
X140958D01*
X140825Y177280D01*
X140025Y177147D02*
X140558D01*
X140025Y177680D01*
Y177813D01*
X140158Y177946D01*
X140425D01*
X140558Y177813D01*
X139225Y177946D02*
X139492Y177813D01*
X139758Y177546D01*
Y177280D01*
X139625Y177147D01*
X139358D01*
X139225Y177280D01*
Y177413D01*
X139358Y177546D01*
X139758D01*
X90088Y70167D02*
X90221Y70300D01*
X90487D01*
X90621Y70167D01*
Y69633D01*
X90487Y69500D01*
X90221D01*
X90088Y69633D01*
X89288Y69500D02*
X89821D01*
X89288Y70033D01*
Y70167D01*
X89421Y70300D01*
X89688D01*
X89821Y70167D01*
X89021D02*
X88888Y70300D01*
X88621D01*
X88488Y70167D01*
Y70033D01*
X88621Y69900D01*
X88755D01*
X88621D01*
X88488Y69767D01*
Y69633D01*
X88621Y69500D01*
X88888D01*
X89021Y69633D01*
X84984Y175436D02*
X85117Y175569D01*
X85384D01*
X85517Y175436D01*
Y174903D01*
X85384Y174769D01*
X85117D01*
X84984Y174903D01*
X84184Y174769D02*
X84717D01*
X84184Y175303D01*
Y175436D01*
X84318Y175569D01*
X84584D01*
X84717Y175436D01*
X83385Y174769D02*
X83918D01*
X83385Y175303D01*
Y175436D01*
X83518Y175569D01*
X83784D01*
X83918Y175436D01*
X89734Y129370D02*
X89867Y129504D01*
X90134D01*
X90267Y129370D01*
Y128837D01*
X90134Y128704D01*
X89867D01*
X89734Y128837D01*
X88934Y128704D02*
X89467D01*
X88934Y129237D01*
Y129370D01*
X89067Y129504D01*
X89334D01*
X89467Y129370D01*
X88667Y128704D02*
X88401D01*
X88534D01*
Y129504D01*
X88667Y129370D01*
X90083Y24767D02*
X90216Y24900D01*
X90483D01*
X90616Y24767D01*
Y24233D01*
X90483Y24100D01*
X90216D01*
X90083Y24233D01*
X89283Y24100D02*
X89817D01*
X89283Y24633D01*
Y24767D01*
X89417Y24900D01*
X89683D01*
X89817Y24767D01*
X89017D02*
X88884Y24900D01*
X88617D01*
X88484Y24767D01*
Y24233D01*
X88617Y24100D01*
X88884D01*
X89017Y24233D01*
Y24767D01*
X166188Y141752D02*
X166753Y141187D01*
X166471Y140904D01*
X166282Y140904D01*
X165905Y141281D01*
Y141470D01*
X166188Y141752D01*
X165811Y140244D02*
X166188Y140621D01*
X165434D01*
X165340Y140716D01*
Y140904D01*
X165528Y141093D01*
X165717Y141093D01*
X165057Y140621D02*
X164680Y140244D01*
X164774Y140150D01*
X165528D01*
X165622Y140056D01*
X205525Y165331D02*
Y165864D01*
X205392D01*
X204858Y165331D01*
X204725D01*
Y165864D01*
Y166663D02*
Y166130D01*
X205258Y166663D01*
X205392D01*
X205525Y166530D01*
Y166264D01*
X205392Y166130D01*
X207150Y157467D02*
Y158000D01*
X207017D01*
X206483Y157467D01*
X206350D01*
Y158000D01*
Y158267D02*
Y158533D01*
Y158400D01*
X207150D01*
X207017Y158267D01*
X96325Y156375D02*
Y157042D01*
X96459Y157175D01*
X96725D01*
X96858Y157042D01*
Y156375D01*
X97125Y157175D02*
X97392D01*
X97258D01*
Y156375D01*
X97125Y156508D01*
X98325Y157175D02*
X97792D01*
X98325Y156642D01*
Y156508D01*
X98191Y156375D01*
X97925D01*
X97792Y156508D01*
X96284Y52700D02*
Y53367D01*
X96417Y53500D01*
X96683D01*
X96817Y53367D01*
Y52700D01*
X97083Y53500D02*
X97350D01*
X97217D01*
Y52700D01*
X97083Y52833D01*
X97750Y53500D02*
X98016D01*
X97883D01*
Y52700D01*
X97750Y52833D01*
X98125Y187708D02*
Y187041D01*
X97991Y186908D01*
X97725D01*
X97592Y187041D01*
Y187708D01*
X97325Y186908D02*
X97058D01*
X97192D01*
Y187708D01*
X97325Y187575D01*
X96658D02*
X96525Y187708D01*
X96259D01*
X96125Y187575D01*
Y187041D01*
X96259Y186908D01*
X96525D01*
X96658Y187041D01*
Y187575D01*
X97918Y81945D02*
Y81278D01*
X97785Y81145D01*
X97519D01*
X97385Y81278D01*
Y81945D01*
X97119Y81278D02*
X96985Y81145D01*
X96719D01*
X96586Y81278D01*
Y81812D01*
X96719Y81945D01*
X96985D01*
X97119Y81812D01*
Y81678D01*
X96985Y81545D01*
X96586D01*
X97891Y6275D02*
Y5608D01*
X97758Y5475D01*
X97492D01*
X97358Y5608D01*
Y6275D01*
X97092Y6142D02*
X96958Y6275D01*
X96692D01*
X96559Y6142D01*
Y6008D01*
X96692Y5875D01*
X96559Y5742D01*
Y5608D01*
X96692Y5475D01*
X96958D01*
X97092Y5608D01*
Y5742D01*
X96958Y5875D01*
X97092Y6008D01*
Y6142D01*
X96958Y5875D02*
X96692D01*
X97891Y111700D02*
Y111033D01*
X97758Y110900D01*
X97492D01*
X97358Y111033D01*
Y111700D01*
X97092D02*
X96559D01*
Y111567D01*
X97092Y111033D01*
Y110900D01*
X97891Y142550D02*
Y141883D01*
X97758Y141750D01*
X97492D01*
X97358Y141883D01*
Y142550D01*
X96559D02*
X96825Y142417D01*
X97092Y142150D01*
Y141883D01*
X96958Y141750D01*
X96692D01*
X96559Y141883D01*
Y142017D01*
X96692Y142150D01*
X97092D01*
X97891Y36075D02*
Y35408D01*
X97758Y35275D01*
X97492D01*
X97358Y35408D01*
Y36075D01*
X96559D02*
X97092D01*
Y35675D01*
X96825Y35808D01*
X96692D01*
X96559Y35675D01*
Y35408D01*
X96692Y35275D01*
X96958D01*
X97092Y35408D01*
X164241Y125775D02*
Y125108D01*
X164108Y124975D01*
X163842D01*
X163708Y125108D01*
Y125775D01*
X163042Y124975D02*
Y125775D01*
X163442Y125375D01*
X162909D01*
X199722Y174225D02*
Y173558D01*
X199589Y173425D01*
X199322D01*
X199189Y173558D01*
Y174225D01*
X198922Y174092D02*
X198789Y174225D01*
X198522D01*
X198389Y174092D01*
Y173958D01*
X198522Y173825D01*
X198656D01*
X198522D01*
X198389Y173692D01*
Y173558D01*
X198522Y173425D01*
X198789D01*
X198922Y173558D01*
X178891Y98942D02*
Y98275D01*
X178758Y98142D01*
X178492D01*
X178358Y98275D01*
Y98942D01*
X178092Y98142D02*
X177825D01*
X177958D01*
Y98942D01*
X178092Y98809D01*
X165251Y169309D02*
X164451D01*
Y168909D01*
X164584Y168776D01*
X164851D01*
X164984Y168909D01*
Y169309D01*
Y169042D02*
X165251Y168776D01*
Y168509D02*
Y168243D01*
Y168376D01*
X164451D01*
X164584Y168509D01*
X165251Y167843D02*
Y167576D01*
Y167709D01*
X164451D01*
X164584Y167843D01*
Y167176D02*
X164451Y167043D01*
Y166776D01*
X164584Y166643D01*
X164718D01*
X164851Y166776D01*
X164984Y166643D01*
X165118D01*
X165251Y166776D01*
Y167043D01*
X165118Y167176D01*
X164984D01*
X164851Y167043D01*
X164718Y167176D01*
X164584D01*
X164851Y167043D02*
Y166776D01*
X156272Y169309D02*
X155472D01*
Y168909D01*
X155605Y168776D01*
X155872D01*
X156005Y168909D01*
Y169309D01*
Y169042D02*
X156272Y168776D01*
Y168509D02*
Y168243D01*
Y168376D01*
X155472D01*
X155605Y168509D01*
X156272Y167843D02*
Y167576D01*
Y167709D01*
X155472D01*
X155605Y167843D01*
X155472Y167176D02*
Y166643D01*
X155605D01*
X156139Y167176D01*
X156272D01*
X183049Y168970D02*
X182249D01*
Y168570D01*
X182382Y168437D01*
X182649D01*
X182782Y168570D01*
Y168970D01*
Y168703D02*
X183049Y168437D01*
Y168170D02*
Y167904D01*
Y168037D01*
X182249D01*
X182382Y168170D01*
X183049Y167504D02*
Y167237D01*
Y167371D01*
X182249D01*
X182382Y167504D01*
X182249Y166304D02*
X182382Y166571D01*
X182649Y166837D01*
X182916D01*
X183049Y166704D01*
Y166438D01*
X182916Y166304D01*
X182782D01*
X182649Y166438D01*
Y166837D01*
X185935Y187758D02*
X185135D01*
Y187358D01*
X185269Y187225D01*
X185535D01*
X185669Y187358D01*
Y187758D01*
Y187491D02*
X185935Y187225D01*
Y186958D02*
Y186692D01*
Y186825D01*
X185135D01*
X185269Y186958D01*
X185935Y186292D02*
Y186025D01*
Y186158D01*
X185135D01*
X185269Y186292D01*
X185135Y185092D02*
Y185625D01*
X185535D01*
X185402Y185359D01*
Y185225D01*
X185535Y185092D01*
X185802D01*
X185935Y185225D01*
Y185492D01*
X185802Y185625D01*
X183395Y187758D02*
X182595D01*
Y187358D01*
X182729Y187225D01*
X182995D01*
X183129Y187358D01*
Y187758D01*
Y187491D02*
X183395Y187225D01*
Y186958D02*
Y186692D01*
Y186825D01*
X182595D01*
X182729Y186958D01*
X183395Y186292D02*
Y186025D01*
Y186158D01*
X182595D01*
X182729Y186292D01*
X183395Y185225D02*
X182595D01*
X182995Y185625D01*
Y185092D01*
X180855Y187758D02*
X180055D01*
Y187358D01*
X180189Y187225D01*
X180455D01*
X180589Y187358D01*
Y187758D01*
Y187491D02*
X180855Y187225D01*
Y186958D02*
Y186692D01*
Y186825D01*
X180055D01*
X180189Y186958D01*
X180855Y186292D02*
Y186025D01*
Y186158D01*
X180055D01*
X180189Y186292D01*
Y185625D02*
X180055Y185492D01*
Y185225D01*
X180189Y185092D01*
X180322D01*
X180455Y185225D01*
Y185359D01*
Y185225D01*
X180589Y185092D01*
X180722D01*
X180855Y185225D01*
Y185492D01*
X180722Y185625D01*
X89033Y170973D02*
Y171773D01*
X88633D01*
X88500Y171640D01*
Y171373D01*
X88633Y171240D01*
X89033D01*
X88766D02*
X88500Y170973D01*
X88233D02*
X87966D01*
X88100D01*
Y171773D01*
X88233Y171640D01*
X87567Y170973D02*
X87300D01*
X87433D01*
Y171773D01*
X87567Y171640D01*
X86367Y170973D02*
X86900D01*
X86367Y171506D01*
Y171640D01*
X86500Y171773D01*
X86767D01*
X86900Y171640D01*
X88350Y65425D02*
Y66225D01*
X87950D01*
X87816Y66092D01*
Y65825D01*
X87950Y65692D01*
X88350D01*
X88083D02*
X87816Y65425D01*
X87550D02*
X87283D01*
X87417D01*
Y66225D01*
X87550Y66092D01*
X86883Y65425D02*
X86617D01*
X86750D01*
Y66225D01*
X86883Y66092D01*
X86217Y65425D02*
X85950D01*
X86084D01*
Y66225D01*
X86217Y66092D01*
X81691Y172575D02*
Y173375D01*
X81291D01*
X81158Y173242D01*
Y172975D01*
X81291Y172842D01*
X81691D01*
X81425D02*
X81158Y172575D01*
X80891D02*
X80625D01*
X80758D01*
Y173375D01*
X80891Y173242D01*
X80225Y172575D02*
X79958D01*
X80092D01*
Y173375D01*
X80225Y173242D01*
X79558D02*
X79425Y173375D01*
X79159D01*
X79025Y173242D01*
Y172708D01*
X79159Y172575D01*
X79425D01*
X79558Y172708D01*
Y173242D01*
X84700Y68875D02*
Y69675D01*
X84300D01*
X84166Y69542D01*
Y69275D01*
X84300Y69142D01*
X84700D01*
X84433D02*
X84166Y68875D01*
X83900D02*
X83633D01*
X83767D01*
Y69675D01*
X83900Y69542D01*
X83233D02*
X83100Y69675D01*
X82833D01*
X82700Y69542D01*
Y69008D01*
X82833Y68875D01*
X83100D01*
X83233Y69008D01*
Y69542D01*
X82434D02*
X82300Y69675D01*
X82034D01*
X81900Y69542D01*
Y69408D01*
X82034Y69275D01*
X81900Y69142D01*
Y69008D01*
X82034Y68875D01*
X82300D01*
X82434Y69008D01*
Y69142D01*
X82300Y69275D01*
X82434Y69408D01*
Y69542D01*
X82300Y69275D02*
X82034D01*
X81025Y158625D02*
Y159425D01*
X80625D01*
X80491Y159292D01*
Y159025D01*
X80625Y158892D01*
X81025D01*
X80758D02*
X80491Y158625D01*
X80225D02*
X79958D01*
X80092D01*
Y159425D01*
X80225Y159292D01*
X79558D02*
X79425Y159425D01*
X79158D01*
X79025Y159292D01*
Y158758D01*
X79158Y158625D01*
X79425D01*
X79558Y158758D01*
Y159292D01*
X78225Y159425D02*
X78492Y159292D01*
X78759Y159025D01*
Y158758D01*
X78625Y158625D01*
X78359D01*
X78225Y158758D01*
Y158892D01*
X78359Y159025D01*
X78759D01*
X78407Y55085D02*
Y54285D01*
X78807D01*
X78941Y54418D01*
Y54685D01*
X78807Y54818D01*
X78407D01*
X78674D02*
X78941Y55085D01*
X79207D02*
X79474D01*
X79340D01*
Y54285D01*
X79207Y54418D01*
X79874D02*
X80007Y54285D01*
X80274D01*
X80407Y54418D01*
Y54951D01*
X80274Y55085D01*
X80007D01*
X79874Y54951D01*
Y54418D01*
X81207Y54285D02*
X80673D01*
Y54685D01*
X80940Y54552D01*
X81073D01*
X81207Y54685D01*
Y54951D01*
X81073Y55085D01*
X80807D01*
X80673Y54951D01*
X90597Y156525D02*
Y157325D01*
X90197D01*
X90064Y157192D01*
Y156925D01*
X90197Y156792D01*
X90597D01*
X90331D02*
X90064Y156525D01*
X89797D02*
X89531D01*
X89664D01*
Y157325D01*
X89797Y157192D01*
X89131D02*
X88998Y157325D01*
X88731D01*
X88598Y157192D01*
Y156658D01*
X88731Y156525D01*
X88998D01*
X89131Y156658D01*
Y157192D01*
X87931Y156525D02*
Y157325D01*
X88331Y156925D01*
X87798D01*
X87798Y53457D02*
Y52657D01*
X88198D01*
X88331Y52790D01*
Y53057D01*
X88198Y53190D01*
X87798D01*
X88065D02*
X88331Y53457D01*
X88598D02*
X88864D01*
X88731D01*
Y52657D01*
X88598Y52790D01*
X89264D02*
X89398Y52657D01*
X89664D01*
X89797Y52790D01*
Y53324D01*
X89664Y53457D01*
X89398D01*
X89264Y53324D01*
Y52790D01*
X90064D02*
X90197Y52657D01*
X90464D01*
X90597Y52790D01*
Y52924D01*
X90464Y53057D01*
X90331D01*
X90464D01*
X90597Y53190D01*
Y53324D01*
X90464Y53457D01*
X90197D01*
X90064Y53324D01*
X143805Y183752D02*
Y184552D01*
X143405D01*
X143272Y184418D01*
Y184152D01*
X143405Y184018D01*
X143805D01*
X143539D02*
X143272Y183752D01*
X143005D02*
X142739D01*
X142872D01*
Y184552D01*
X143005Y184418D01*
X142339D02*
X142206Y184552D01*
X141939D01*
X141806Y184418D01*
Y183885D01*
X141939Y183752D01*
X142206D01*
X142339Y183885D01*
Y184418D01*
X141006Y183752D02*
X141539D01*
X141006Y184285D01*
Y184418D01*
X141139Y184552D01*
X141406D01*
X141539Y184418D01*
X124368Y183624D02*
Y184423D01*
X123968D01*
X123835Y184290D01*
Y184023D01*
X123968Y183890D01*
X124368D01*
X124101D02*
X123835Y183624D01*
X123568D02*
X123302D01*
X123435D01*
Y184423D01*
X123568Y184290D01*
X122902D02*
X122768Y184423D01*
X122502D01*
X122369Y184290D01*
Y183757D01*
X122502Y183624D01*
X122768D01*
X122902Y183757D01*
Y184290D01*
X122102Y183624D02*
X121835D01*
X121969D01*
Y184423D01*
X122102Y184290D01*
X138471Y183751D02*
Y184550D01*
X138071D01*
X137938Y184417D01*
Y184150D01*
X138071Y184017D01*
X138471D01*
X138205D02*
X137938Y183751D01*
X137671D02*
X137405D01*
X137538D01*
Y184550D01*
X137671Y184417D01*
X137005D02*
X136872Y184550D01*
X136605D01*
X136472Y184417D01*
Y183884D01*
X136605Y183751D01*
X136872D01*
X137005Y183884D01*
Y184417D01*
X136205D02*
X136072Y184550D01*
X135805D01*
X135672Y184417D01*
Y183884D01*
X135805Y183751D01*
X136072D01*
X136205Y183884D01*
Y184417D01*
X117183Y183751D02*
Y184550D01*
X116783D01*
X116650Y184417D01*
Y184150D01*
X116783Y184017D01*
X117183D01*
X116916D02*
X116650Y183751D01*
X116383Y183884D02*
X116250Y183751D01*
X115983D01*
X115850Y183884D01*
Y184417D01*
X115983Y184550D01*
X116250D01*
X116383Y184417D01*
Y184284D01*
X116250Y184150D01*
X115850D01*
X115583Y183884D02*
X115450Y183751D01*
X115184D01*
X115050Y183884D01*
Y184417D01*
X115184Y184550D01*
X115450D01*
X115583Y184417D01*
Y184284D01*
X115450Y184150D01*
X115050D01*
X139631Y192329D02*
X138831D01*
Y191929D01*
X138964Y191796D01*
X139231D01*
X139364Y191929D01*
Y192329D01*
Y192062D02*
X139631Y191796D01*
X139497Y191529D02*
X139631Y191396D01*
Y191129D01*
X139497Y190996D01*
X138964D01*
X138831Y191129D01*
Y191396D01*
X138964Y191529D01*
X139097D01*
X139231Y191396D01*
Y190996D01*
X138964Y190729D02*
X138831Y190596D01*
Y190329D01*
X138964Y190196D01*
X139097D01*
X139231Y190329D01*
X139364Y190196D01*
X139497D01*
X139631Y190329D01*
Y190596D01*
X139497Y190729D01*
X139364D01*
X139231Y190596D01*
X139097Y190729D01*
X138964D01*
X139231Y190596D02*
Y190329D01*
X119311Y192329D02*
X118511D01*
Y191929D01*
X118644Y191796D01*
X118911D01*
X119044Y191929D01*
Y192329D01*
Y192062D02*
X119311Y191796D01*
X119177Y191529D02*
X119311Y191396D01*
Y191129D01*
X119177Y190996D01*
X118644D01*
X118511Y191129D01*
Y191396D01*
X118644Y191529D01*
X118777D01*
X118911Y191396D01*
Y190996D01*
X118511Y190729D02*
Y190196D01*
X118644D01*
X119177Y190729D01*
X119311D01*
X146012Y176885D02*
X145212D01*
Y176485D01*
X145345Y176352D01*
X145612D01*
X145745Y176485D01*
Y176885D01*
Y176619D02*
X146012Y176352D01*
X145879Y176086D02*
X146012Y175952D01*
Y175686D01*
X145879Y175552D01*
X145345D01*
X145212Y175686D01*
Y175952D01*
X145345Y176086D01*
X145479D01*
X145612Y175952D01*
Y175552D01*
X145212Y174753D02*
X145345Y175019D01*
X145612Y175286D01*
X145879D01*
X146012Y175153D01*
Y174886D01*
X145879Y174753D01*
X145745D01*
X145612Y174886D01*
Y175286D01*
X122994Y177089D02*
X122194D01*
Y176689D01*
X122327Y176556D01*
X122594D01*
X122727Y176689D01*
Y177089D01*
Y176822D02*
X122994Y176556D01*
X122860Y176289D02*
X122994Y176156D01*
Y175889D01*
X122860Y175756D01*
X122327D01*
X122194Y175889D01*
Y176156D01*
X122327Y176289D01*
X122460D01*
X122594Y176156D01*
Y175756D01*
X122194Y174956D02*
Y175489D01*
X122594D01*
X122460Y175223D01*
Y175089D01*
X122594Y174956D01*
X122860D01*
X122994Y175089D01*
Y175356D01*
X122860Y175489D01*
X153505Y183751D02*
Y184550D01*
X153105D01*
X152972Y184417D01*
Y184150D01*
X153105Y184017D01*
X153505D01*
X153238D02*
X152972Y183751D01*
X152705Y183884D02*
X152572Y183751D01*
X152305D01*
X152172Y183884D01*
Y184417D01*
X152305Y184550D01*
X152572D01*
X152705Y184417D01*
Y184284D01*
X152572Y184150D01*
X152172D01*
X151506Y183751D02*
Y184550D01*
X151905Y184150D01*
X151372D01*
X132887Y183942D02*
Y184741D01*
X132487D01*
X132354Y184608D01*
Y184342D01*
X132487Y184208D01*
X132887D01*
X132621D02*
X132354Y183942D01*
X132087Y184075D02*
X131954Y183942D01*
X131688D01*
X131554Y184075D01*
Y184608D01*
X131688Y184741D01*
X131954D01*
X132087Y184608D01*
Y184475D01*
X131954Y184342D01*
X131554D01*
X131288Y184608D02*
X131154Y184741D01*
X130888D01*
X130755Y184608D01*
Y184475D01*
X130888Y184342D01*
X131021D01*
X130888D01*
X130755Y184208D01*
Y184075D01*
X130888Y183942D01*
X131154D01*
X131288Y184075D01*
X145600Y169850D02*
X144800D01*
Y169450D01*
X144933Y169317D01*
X145200D01*
X145333Y169450D01*
Y169850D01*
Y169583D02*
X145600Y169317D01*
X145466Y169050D02*
X145600Y168917D01*
Y168650D01*
X145466Y168517D01*
X144933D01*
X144800Y168650D01*
Y168917D01*
X144933Y169050D01*
X145066D01*
X145200Y168917D01*
Y168517D01*
X145600Y167717D02*
Y168250D01*
X145066Y167717D01*
X144933D01*
X144800Y167850D01*
Y168117D01*
X144933Y168250D01*
X126169Y169589D02*
X125369D01*
Y169190D01*
X125502Y169056D01*
X125769D01*
X125902Y169190D01*
Y169589D01*
Y169323D02*
X126169Y169056D01*
X126035Y168790D02*
X126169Y168656D01*
Y168390D01*
X126035Y168257D01*
X125502D01*
X125369Y168390D01*
Y168656D01*
X125502Y168790D01*
X125635D01*
X125769Y168656D01*
Y168257D01*
X126169Y167990D02*
Y167723D01*
Y167857D01*
X125369D01*
X125502Y167990D01*
X149664Y169723D02*
X148864D01*
Y169323D01*
X148997Y169190D01*
X149264D01*
X149397Y169323D01*
Y169723D01*
Y169456D02*
X149664Y169190D01*
X149530Y168923D02*
X149664Y168790D01*
Y168523D01*
X149530Y168390D01*
X148997D01*
X148864Y168523D01*
Y168790D01*
X148997Y168923D01*
X149130D01*
X149264Y168790D01*
Y168390D01*
X148997Y168123D02*
X148864Y167990D01*
Y167723D01*
X148997Y167590D01*
X149530D01*
X149664Y167723D01*
Y167990D01*
X149530Y168123D01*
X148997D01*
X129979Y169723D02*
X129179D01*
Y169323D01*
X129312Y169190D01*
X129579D01*
X129712Y169323D01*
Y169723D01*
Y169456D02*
X129979Y169190D01*
X129312Y168923D02*
X129179Y168790D01*
Y168523D01*
X129312Y168390D01*
X129445D01*
X129579Y168523D01*
X129712Y168390D01*
X129845D01*
X129979Y168523D01*
Y168790D01*
X129845Y168923D01*
X129712D01*
X129579Y168790D01*
X129445Y168923D01*
X129312D01*
X129579Y168790D02*
Y168523D01*
X129845Y168123D02*
X129979Y167990D01*
Y167723D01*
X129845Y167590D01*
X129312D01*
X129179Y167723D01*
Y167990D01*
X129312Y168123D01*
X129445D01*
X129579Y167990D01*
Y167590D01*
X148552Y183751D02*
Y184550D01*
X148152D01*
X148019Y184417D01*
Y184150D01*
X148152Y184017D01*
X148552D01*
X148285D02*
X148019Y183751D01*
X147752Y184417D02*
X147619Y184550D01*
X147352D01*
X147219Y184417D01*
Y184284D01*
X147352Y184150D01*
X147219Y184017D01*
Y183884D01*
X147352Y183751D01*
X147619D01*
X147752Y183884D01*
Y184017D01*
X147619Y184150D01*
X147752Y184284D01*
Y184417D01*
X147619Y184150D02*
X147352D01*
X146952Y184417D02*
X146819Y184550D01*
X146553D01*
X146419Y184417D01*
Y184284D01*
X146553Y184150D01*
X146419Y184017D01*
Y183884D01*
X146553Y183751D01*
X146819D01*
X146952Y183884D01*
Y184017D01*
X146819Y184150D01*
X146952Y184284D01*
Y184417D01*
X146819Y184150D02*
X146553D01*
X127851Y183624D02*
Y184423D01*
X127451D01*
X127318Y184290D01*
Y184023D01*
X127451Y183890D01*
X127851D01*
X127584D02*
X127318Y183624D01*
X127051Y184290D02*
X126918Y184423D01*
X126651D01*
X126518Y184290D01*
Y184157D01*
X126651Y184023D01*
X126518Y183890D01*
Y183757D01*
X126651Y183624D01*
X126918D01*
X127051Y183757D01*
Y183890D01*
X126918Y184023D01*
X127051Y184157D01*
Y184290D01*
X126918Y184023D02*
X126651D01*
X126251Y184423D02*
X125718D01*
Y184290D01*
X126251Y183757D01*
Y183624D01*
X147886Y192329D02*
X147086D01*
Y191929D01*
X147219Y191796D01*
X147486D01*
X147619Y191929D01*
Y192329D01*
Y192062D02*
X147886Y191796D01*
X147219Y191529D02*
X147086Y191396D01*
Y191129D01*
X147219Y190996D01*
X147352D01*
X147486Y191129D01*
X147619Y190996D01*
X147752D01*
X147886Y191129D01*
Y191396D01*
X147752Y191529D01*
X147619D01*
X147486Y191396D01*
X147352Y191529D01*
X147219D01*
X147486Y191396D02*
Y191129D01*
X147086Y190196D02*
X147219Y190463D01*
X147486Y190729D01*
X147752D01*
X147886Y190596D01*
Y190329D01*
X147752Y190196D01*
X147619D01*
X147486Y190329D01*
Y190729D01*
X127566Y192202D02*
X126766D01*
Y191802D01*
X126899Y191669D01*
X127166D01*
X127299Y191802D01*
Y192202D01*
Y191935D02*
X127566Y191669D01*
X126899Y191402D02*
X126766Y191269D01*
Y191002D01*
X126899Y190869D01*
X127032D01*
X127166Y191002D01*
X127299Y190869D01*
X127432D01*
X127566Y191002D01*
Y191269D01*
X127432Y191402D01*
X127299D01*
X127166Y191269D01*
X127032Y191402D01*
X126899D01*
X127166Y191269D02*
Y191002D01*
X126766Y190069D02*
Y190602D01*
X127166D01*
X127032Y190336D01*
Y190202D01*
X127166Y190069D01*
X127432D01*
X127566Y190202D01*
Y190469D01*
X127432Y190602D01*
X142424Y181174D02*
Y181973D01*
X142024D01*
X141891Y181840D01*
Y181573D01*
X142024Y181440D01*
X142424D01*
X142157D02*
X141891Y181174D01*
X141624Y181840D02*
X141491Y181973D01*
X141224D01*
X141091Y181840D01*
Y181707D01*
X141224Y181573D01*
X141091Y181440D01*
Y181307D01*
X141224Y181174D01*
X141491D01*
X141624Y181307D01*
Y181440D01*
X141491Y181573D01*
X141624Y181707D01*
Y181840D01*
X141491Y181573D02*
X141224D01*
X140425Y181174D02*
Y181973D01*
X140825Y181573D01*
X140291D01*
X135496Y177858D02*
Y178657D01*
X135096D01*
X134963Y178524D01*
Y178257D01*
X135096Y178124D01*
X135496D01*
X135229D02*
X134963Y177858D01*
X134696Y178524D02*
X134563Y178657D01*
X134296D01*
X134163Y178524D01*
Y178391D01*
X134296Y178257D01*
X134163Y178124D01*
Y177991D01*
X134296Y177858D01*
X134563D01*
X134696Y177991D01*
Y178124D01*
X134563Y178257D01*
X134696Y178391D01*
Y178524D01*
X134563Y178257D02*
X134296D01*
X133896Y178524D02*
X133763Y178657D01*
X133497D01*
X133363Y178524D01*
Y178391D01*
X133497Y178257D01*
X133630D01*
X133497D01*
X133363Y178124D01*
Y177991D01*
X133497Y177858D01*
X133763D01*
X133896Y177991D01*
X102636Y160278D02*
X101836D01*
Y159878D01*
X101970Y159745D01*
X102236D01*
X102369Y159878D01*
Y160278D01*
Y160011D02*
X102636Y159745D01*
X101970Y159478D02*
X101836Y159345D01*
Y159078D01*
X101970Y158945D01*
X102103D01*
X102236Y159078D01*
X102369Y158945D01*
X102503D01*
X102636Y159078D01*
Y159345D01*
X102503Y159478D01*
X102369D01*
X102236Y159345D01*
X102103Y159478D01*
X101970D01*
X102236Y159345D02*
Y159078D01*
X102636Y158145D02*
Y158678D01*
X102103Y158145D01*
X101970D01*
X101836Y158278D01*
Y158545D01*
X101970Y158678D01*
X107700Y157383D02*
X106900D01*
Y156983D01*
X107033Y156850D01*
X107300D01*
X107433Y156983D01*
Y157383D01*
Y157116D02*
X107700Y156850D01*
X107033Y156583D02*
X106900Y156450D01*
Y156183D01*
X107033Y156050D01*
X107167D01*
X107300Y156183D01*
X107433Y156050D01*
X107567D01*
X107700Y156183D01*
Y156450D01*
X107567Y156583D01*
X107433D01*
X107300Y156450D01*
X107167Y156583D01*
X107033D01*
X107300Y156450D02*
Y156183D01*
X107700Y155784D02*
Y155517D01*
Y155650D01*
X106900D01*
X107033Y155784D01*
X104061Y53162D02*
X103261D01*
Y52762D01*
X103394Y52629D01*
X103661D01*
X103794Y52762D01*
Y53162D01*
Y52896D02*
X104061Y52629D01*
X103394Y52362D02*
X103261Y52229D01*
Y51963D01*
X103394Y51829D01*
X103528D01*
X103661Y51963D01*
X103794Y51829D01*
X103927D01*
X104061Y51963D01*
Y52229D01*
X103927Y52362D01*
X103794D01*
X103661Y52229D01*
X103528Y52362D01*
X103394D01*
X103661Y52229D02*
Y51963D01*
X103394Y51563D02*
X103261Y51429D01*
Y51163D01*
X103394Y51029D01*
X103927D01*
X104061Y51163D01*
Y51429D01*
X103927Y51563D01*
X103394D01*
X89989Y165855D02*
Y166655D01*
X89590D01*
X89456Y166522D01*
Y166255D01*
X89590Y166122D01*
X89989D01*
X89723D02*
X89456Y165855D01*
X89190Y166655D02*
X88657D01*
Y166522D01*
X89190Y165989D01*
Y165855D01*
X88390Y166522D02*
X88257Y166655D01*
X87990D01*
X87857Y166522D01*
Y166388D01*
X87990Y166255D01*
X87857Y166122D01*
Y165989D01*
X87990Y165855D01*
X88257D01*
X88390Y165989D01*
Y166122D01*
X88257Y166255D01*
X88390Y166388D01*
Y166522D01*
X88257Y166255D02*
X87990D01*
X87834Y59527D02*
Y58727D01*
X88234D01*
X88367Y58860D01*
Y59127D01*
X88234Y59260D01*
X87834D01*
X88100D02*
X88367Y59527D01*
X88633Y58727D02*
X89167D01*
Y58860D01*
X88633Y59393D01*
Y59527D01*
X89966Y58727D02*
X89433D01*
Y59127D01*
X89700Y58994D01*
X89833D01*
X89966Y59127D01*
Y59393D01*
X89833Y59527D01*
X89566D01*
X89433Y59393D01*
X81116Y164075D02*
Y164875D01*
X80716D01*
X80583Y164742D01*
Y164475D01*
X80716Y164342D01*
X81116D01*
X80850D02*
X80583Y164075D01*
X79783Y164875D02*
X80050Y164742D01*
X80317Y164475D01*
Y164208D01*
X80183Y164075D01*
X79917D01*
X79783Y164208D01*
Y164342D01*
X79917Y164475D01*
X80317D01*
X79517Y164742D02*
X79384Y164875D01*
X79117D01*
X78984Y164742D01*
Y164608D01*
X79117Y164475D01*
X78984Y164342D01*
Y164208D01*
X79117Y164075D01*
X79384D01*
X79517Y164208D01*
Y164342D01*
X79384Y164475D01*
X79517Y164608D01*
Y164742D01*
X79384Y164475D02*
X79117D01*
X79284Y57475D02*
Y56675D01*
X79684D01*
X79817Y56808D01*
Y57075D01*
X79684Y57208D01*
X79284D01*
X79550D02*
X79817Y57475D01*
X80617Y56675D02*
X80350Y56808D01*
X80083Y57075D01*
Y57342D01*
X80217Y57475D01*
X80483D01*
X80617Y57342D01*
Y57208D01*
X80483Y57075D01*
X80083D01*
X81416Y56675D02*
X80883D01*
Y57075D01*
X81150Y56942D01*
X81283D01*
X81416Y57075D01*
Y57342D01*
X81283Y57475D01*
X81016D01*
X80883Y57342D01*
X19550Y176145D02*
X18750D01*
Y175745D01*
X18884Y175611D01*
X19150D01*
X19283Y175745D01*
Y176145D01*
Y175878D02*
X19550Y175611D01*
X18750Y174812D02*
X18884Y175078D01*
X19150Y175345D01*
X19417D01*
X19550Y175212D01*
Y174945D01*
X19417Y174812D01*
X19283D01*
X19150Y174945D01*
Y175345D01*
X19550Y174012D02*
Y174545D01*
X19017Y174012D01*
X18884D01*
X18750Y174145D01*
Y174412D01*
X18884Y174545D01*
X19450Y130920D02*
X18650D01*
Y130520D01*
X18783Y130387D01*
X19050D01*
X19183Y130520D01*
Y130920D01*
Y130653D02*
X19450Y130387D01*
X18650Y129587D02*
X18783Y129853D01*
X19050Y130120D01*
X19317D01*
X19450Y129987D01*
Y129720D01*
X19317Y129587D01*
X19183D01*
X19050Y129720D01*
Y130120D01*
X19450Y129320D02*
Y129054D01*
Y129187D01*
X18650D01*
X18783Y129320D01*
X80760Y189181D02*
Y189981D01*
X80360D01*
X80227Y189848D01*
Y189581D01*
X80360Y189448D01*
X80760D01*
X80494D02*
X80227Y189181D01*
X79427Y189981D02*
X79694Y189848D01*
X79961Y189581D01*
Y189314D01*
X79827Y189181D01*
X79561D01*
X79427Y189314D01*
Y189448D01*
X79561Y189581D01*
X79961D01*
X79161Y189848D02*
X79028Y189981D01*
X78761D01*
X78628Y189848D01*
Y189314D01*
X78761Y189181D01*
X79028D01*
X79161Y189314D01*
Y189848D01*
X80861Y82844D02*
Y83644D01*
X80461D01*
X80327Y83511D01*
Y83244D01*
X80461Y83111D01*
X80861D01*
X80594D02*
X80327Y82844D01*
X79528Y83644D02*
X80061D01*
Y83244D01*
X79794Y83378D01*
X79661D01*
X79528Y83244D01*
Y82978D01*
X79661Y82844D01*
X79928D01*
X80061Y82978D01*
X79261D02*
X79128Y82844D01*
X78861D01*
X78728Y82978D01*
Y83511D01*
X78861Y83644D01*
X79128D01*
X79261Y83511D01*
Y83378D01*
X79128Y83244D01*
X78728D01*
X19611Y25756D02*
X18811D01*
Y25356D01*
X18944Y25223D01*
X19211D01*
X19344Y25356D01*
Y25756D01*
Y25490D02*
X19611Y25223D01*
X18811Y24423D02*
Y24956D01*
X19211D01*
X19078Y24690D01*
Y24557D01*
X19211Y24423D01*
X19478D01*
X19611Y24557D01*
Y24823D01*
X19478Y24956D01*
X18944Y24157D02*
X18811Y24023D01*
Y23757D01*
X18944Y23624D01*
X19078D01*
X19211Y23757D01*
X19344Y23624D01*
X19478D01*
X19611Y23757D01*
Y24023D01*
X19478Y24157D01*
X19344D01*
X19211Y24023D01*
X19078Y24157D01*
X18944D01*
X19211Y24023D02*
Y23757D01*
X189670Y169676D02*
Y170476D01*
X189270D01*
X189137Y170343D01*
Y170076D01*
X189270Y169943D01*
X189670D01*
X189404D02*
X189137Y169676D01*
X188337Y170476D02*
X188871D01*
Y170076D01*
X188604Y170209D01*
X188471D01*
X188337Y170076D01*
Y169809D01*
X188471Y169676D01*
X188737D01*
X188871Y169809D01*
X188071Y170476D02*
X187538D01*
Y170343D01*
X188071Y169809D01*
Y169676D01*
X178600Y101150D02*
Y101950D01*
X178200D01*
X178067Y101817D01*
Y101550D01*
X178200Y101417D01*
X178600D01*
X178333D02*
X178067Y101150D01*
X177267Y101950D02*
X177800D01*
Y101550D01*
X177533Y101683D01*
X177400D01*
X177267Y101550D01*
Y101283D01*
X177400Y101150D01*
X177667D01*
X177800Y101283D01*
X176467Y101950D02*
X176734Y101817D01*
X177000Y101550D01*
Y101283D01*
X176867Y101150D01*
X176600D01*
X176467Y101283D01*
Y101417D01*
X176600Y101550D01*
X177000D01*
X194416Y116700D02*
Y117500D01*
X194016D01*
X193883Y117367D01*
Y117100D01*
X194016Y116967D01*
X194416D01*
X194150D02*
X193883Y116700D01*
X193083Y117500D02*
X193617D01*
Y117100D01*
X193350Y117233D01*
X193217D01*
X193083Y117100D01*
Y116833D01*
X193217Y116700D01*
X193483D01*
X193617Y116833D01*
X192284Y117500D02*
X192817D01*
Y117100D01*
X192550Y117233D01*
X192417D01*
X192284Y117100D01*
Y116833D01*
X192417Y116700D01*
X192684D01*
X192817Y116833D01*
X171666Y98409D02*
Y99209D01*
X171266D01*
X171133Y99075D01*
Y98809D01*
X171266Y98675D01*
X171666D01*
X171400D02*
X171133Y98409D01*
X170333Y99209D02*
X170867D01*
Y98809D01*
X170600Y98942D01*
X170467D01*
X170333Y98809D01*
Y98542D01*
X170467Y98409D01*
X170733D01*
X170867Y98542D01*
X169667Y98409D02*
Y99209D01*
X170067Y98809D01*
X169534D01*
X183691Y116600D02*
Y117400D01*
X183291D01*
X183158Y117267D01*
Y117000D01*
X183291Y116867D01*
X183691D01*
X183425D02*
X183158Y116600D01*
X182358Y117400D02*
X182892D01*
Y117000D01*
X182625Y117133D01*
X182492D01*
X182358Y117000D01*
Y116733D01*
X182492Y116600D01*
X182758D01*
X182892Y116733D01*
X182092Y117267D02*
X181959Y117400D01*
X181692D01*
X181559Y117267D01*
Y117133D01*
X181692Y117000D01*
X181825D01*
X181692D01*
X181559Y116867D01*
Y116733D01*
X181692Y116600D01*
X181959D01*
X182092Y116733D01*
X90191Y187032D02*
Y187832D01*
X89791D01*
X89658Y187699D01*
Y187432D01*
X89791Y187299D01*
X90191D01*
X89925D02*
X89658Y187032D01*
X88858Y187832D02*
X89392D01*
Y187432D01*
X89125Y187565D01*
X88992D01*
X88858Y187432D01*
Y187165D01*
X88992Y187032D01*
X89258D01*
X89392Y187165D01*
X88059Y187032D02*
X88592D01*
X88059Y187565D01*
Y187699D01*
X88192Y187832D01*
X88459D01*
X88592Y187699D01*
X90058Y81000D02*
Y81800D01*
X89658D01*
X89525Y81667D01*
Y81400D01*
X89658Y81267D01*
X90058D01*
X89791D02*
X89525Y81000D01*
X88725Y81800D02*
X89258D01*
Y81400D01*
X88992Y81533D01*
X88858D01*
X88725Y81400D01*
Y81133D01*
X88858Y81000D01*
X89125D01*
X89258Y81133D01*
X88459Y81000D02*
X88192D01*
X88325D01*
Y81800D01*
X88459Y81667D01*
X104400Y186891D02*
X103600D01*
Y186491D01*
X103733Y186358D01*
X104000D01*
X104133Y186491D01*
Y186891D01*
Y186625D02*
X104400Y186358D01*
X103600Y185558D02*
Y186092D01*
X104000D01*
X103867Y185825D01*
Y185692D01*
X104000Y185558D01*
X104267D01*
X104400Y185692D01*
Y185958D01*
X104267Y186092D01*
X103733Y185292D02*
X103600Y185159D01*
Y184892D01*
X103733Y184759D01*
X104267D01*
X104400Y184892D01*
Y185159D01*
X104267Y185292D01*
X103733D01*
X107775Y186441D02*
X106975D01*
Y186041D01*
X107108Y185908D01*
X107375D01*
X107508Y186041D01*
Y186441D01*
Y186175D02*
X107775Y185908D01*
Y185242D02*
X106975D01*
X107375Y185642D01*
Y185108D01*
X107642Y184842D02*
X107775Y184709D01*
Y184442D01*
X107642Y184309D01*
X107108D01*
X106975Y184442D01*
Y184709D01*
X107108Y184842D01*
X107242D01*
X107375Y184709D01*
Y184309D01*
X81016Y6858D02*
Y7658D01*
X80616D01*
X80483Y7525D01*
Y7258D01*
X80616Y7125D01*
X81016D01*
X80750D02*
X80483Y6858D01*
X79817D02*
Y7658D01*
X80217Y7258D01*
X79683D01*
X79417Y7525D02*
X79284Y7658D01*
X79017D01*
X78884Y7525D01*
Y7391D01*
X79017Y7258D01*
X78884Y7125D01*
Y6991D01*
X79017Y6858D01*
X79284D01*
X79417Y6991D01*
Y7125D01*
X79284Y7258D01*
X79417Y7391D01*
Y7525D01*
X79284Y7258D02*
X79017D01*
X104500Y81041D02*
X103700D01*
Y80641D01*
X103833Y80508D01*
X104100D01*
X104233Y80641D01*
Y81041D01*
Y80775D02*
X104500Y80508D01*
Y79842D02*
X103700D01*
X104100Y80242D01*
Y79708D01*
X103700Y79442D02*
Y78909D01*
X103833D01*
X104367Y79442D01*
X104500D01*
X107875Y81141D02*
X107075D01*
Y80741D01*
X107208Y80608D01*
X107475D01*
X107608Y80741D01*
Y81141D01*
Y80875D02*
X107875Y80608D01*
Y79942D02*
X107075D01*
X107475Y80342D01*
Y79808D01*
X107075Y79009D02*
X107208Y79275D01*
X107475Y79542D01*
X107742D01*
X107875Y79409D01*
Y79142D01*
X107742Y79009D01*
X107608D01*
X107475Y79142D01*
Y79542D01*
X90445Y5334D02*
Y6134D01*
X90045D01*
X89912Y6001D01*
Y5734D01*
X90045Y5601D01*
X90445D01*
X90179D02*
X89912Y5334D01*
X89246D02*
Y6134D01*
X89646Y5734D01*
X89112D01*
X88313Y6134D02*
X88846D01*
Y5734D01*
X88579Y5867D01*
X88446D01*
X88313Y5734D01*
Y5467D01*
X88446Y5334D01*
X88713D01*
X88846Y5467D01*
X90191Y194582D02*
Y195382D01*
X89791D01*
X89658Y195249D01*
Y194982D01*
X89791Y194849D01*
X90191D01*
X89925D02*
X89658Y194582D01*
X88992D02*
Y195382D01*
X89392Y194982D01*
X88858D01*
X88192Y194582D02*
Y195382D01*
X88592Y194982D01*
X88059D01*
X90119Y85057D02*
Y85857D01*
X89719D01*
X89586Y85724D01*
Y85457D01*
X89719Y85324D01*
X90119D01*
X89852D02*
X89586Y85057D01*
X88919D02*
Y85857D01*
X89319Y85457D01*
X88786D01*
X88519Y85724D02*
X88386Y85857D01*
X88119D01*
X87986Y85724D01*
Y85590D01*
X88119Y85457D01*
X88253D01*
X88119D01*
X87986Y85324D01*
Y85190D01*
X88119Y85057D01*
X88386D01*
X88519Y85190D01*
X80760Y192987D02*
Y193787D01*
X80360D01*
X80227Y193654D01*
Y193387D01*
X80360Y193254D01*
X80760D01*
X80494D02*
X80227Y192987D01*
X79561D02*
Y193787D01*
X79961Y193387D01*
X79427D01*
X78628Y192987D02*
X79161D01*
X78628Y193520D01*
Y193654D01*
X78761Y193787D01*
X79028D01*
X79161Y193654D01*
X81307Y86695D02*
Y87495D01*
X80907D01*
X80773Y87361D01*
Y87095D01*
X80907Y86962D01*
X81307D01*
X81040D02*
X80773Y86695D01*
X80107D02*
Y87495D01*
X80507Y87095D01*
X79974D01*
X79707Y86695D02*
X79441D01*
X79574D01*
Y87495D01*
X79707Y87361D01*
X103175Y3284D02*
X103975D01*
Y3684D01*
X103842Y3817D01*
X103575D01*
X103442Y3684D01*
Y3284D01*
Y3550D02*
X103175Y3817D01*
Y4483D02*
X103975D01*
X103575Y4083D01*
Y4617D01*
X103842Y4883D02*
X103975Y5016D01*
Y5283D01*
X103842Y5416D01*
X103308D01*
X103175Y5283D01*
Y5016D01*
X103308Y4883D01*
X103842D01*
X198829Y180497D02*
Y181297D01*
X198429D01*
X198296Y181164D01*
Y180897D01*
X198429Y180764D01*
X198829D01*
X198562D02*
X198296Y180497D01*
X198029Y181164D02*
X197896Y181297D01*
X197629D01*
X197496Y181164D01*
Y181030D01*
X197629Y180897D01*
X197763D01*
X197629D01*
X197496Y180764D01*
Y180630D01*
X197629Y180497D01*
X197896D01*
X198029Y180630D01*
X197230D02*
X197096Y180497D01*
X196830D01*
X196696Y180630D01*
Y181164D01*
X196830Y181297D01*
X197096D01*
X197230Y181164D01*
Y181030D01*
X197096Y180897D01*
X196696D01*
X198829Y183247D02*
Y184047D01*
X198429D01*
X198296Y183914D01*
Y183647D01*
X198429Y183514D01*
X198829D01*
X198562D02*
X198296Y183247D01*
X198029Y183914D02*
X197896Y184047D01*
X197629D01*
X197496Y183914D01*
Y183780D01*
X197629Y183647D01*
X197763D01*
X197629D01*
X197496Y183514D01*
Y183380D01*
X197629Y183247D01*
X197896D01*
X198029Y183380D01*
X197230Y183914D02*
X197096Y184047D01*
X196830D01*
X196696Y183914D01*
Y183780D01*
X196830Y183647D01*
X196696Y183514D01*
Y183380D01*
X196830Y183247D01*
X197096D01*
X197230Y183380D01*
Y183514D01*
X197096Y183647D01*
X197230Y183780D01*
Y183914D01*
X197096Y183647D02*
X196830D01*
X110766Y112250D02*
Y113050D01*
X110366D01*
X110233Y112917D01*
Y112650D01*
X110366Y112517D01*
X110766D01*
X110500D02*
X110233Y112250D01*
X109967Y112917D02*
X109833Y113050D01*
X109567D01*
X109433Y112917D01*
Y112783D01*
X109567Y112650D01*
X109700D01*
X109567D01*
X109433Y112517D01*
Y112383D01*
X109567Y112250D01*
X109833D01*
X109967Y112383D01*
X109167Y113050D02*
X108634D01*
Y112917D01*
X109167Y112383D01*
Y112250D01*
X88142Y124773D02*
Y125573D01*
X87742D01*
X87609Y125440D01*
Y125173D01*
X87742Y125040D01*
X88142D01*
X87876D02*
X87609Y124773D01*
X87342Y125440D02*
X87209Y125573D01*
X86943D01*
X86809Y125440D01*
Y125306D01*
X86943Y125173D01*
X87076D01*
X86943D01*
X86809Y125040D01*
Y124906D01*
X86943Y124773D01*
X87209D01*
X87342Y124906D01*
X86010Y125573D02*
X86276Y125440D01*
X86543Y125173D01*
Y124906D01*
X86409Y124773D01*
X86143D01*
X86010Y124906D01*
Y125040D01*
X86143Y125173D01*
X86543D01*
X91778Y22001D02*
Y22801D01*
X91378D01*
X91245Y22667D01*
Y22401D01*
X91378Y22268D01*
X91778D01*
X91512D02*
X91245Y22001D01*
X90978Y22667D02*
X90845Y22801D01*
X90579D01*
X90445Y22667D01*
Y22534D01*
X90579Y22401D01*
X90712D01*
X90579D01*
X90445Y22268D01*
Y22134D01*
X90579Y22001D01*
X90845D01*
X90978Y22134D01*
X89646Y22801D02*
X90179D01*
Y22401D01*
X89912Y22534D01*
X89779D01*
X89646Y22401D01*
Y22134D01*
X89779Y22001D01*
X90045D01*
X90179Y22134D01*
X90064Y11684D02*
Y12484D01*
X89664D01*
X89531Y12351D01*
Y12084D01*
X89664Y11951D01*
X90064D01*
X89798D02*
X89531Y11684D01*
X89265Y12351D02*
X89131Y12484D01*
X88865D01*
X88731Y12351D01*
Y12217D01*
X88865Y12084D01*
X88998D01*
X88865D01*
X88731Y11951D01*
Y11817D01*
X88865Y11684D01*
X89131D01*
X89265Y11817D01*
X88065Y11684D02*
Y12484D01*
X88465Y12084D01*
X87932D01*
X84467Y128216D02*
Y129016D01*
X84067D01*
X83934Y128883D01*
Y128616D01*
X84067Y128483D01*
X84467D01*
X84200D02*
X83934Y128216D01*
X83667Y128883D02*
X83534Y129016D01*
X83267D01*
X83134Y128883D01*
Y128749D01*
X83267Y128616D01*
X83401D01*
X83267D01*
X83134Y128483D01*
Y128350D01*
X83267Y128216D01*
X83534D01*
X83667Y128350D01*
X82868Y128883D02*
X82734Y129016D01*
X82468D01*
X82334Y128883D01*
Y128749D01*
X82468Y128616D01*
X82601D01*
X82468D01*
X82334Y128483D01*
Y128350D01*
X82468Y128216D01*
X82734D01*
X82868Y128350D01*
X80883Y9398D02*
Y10198D01*
X80483D01*
X80350Y10065D01*
Y9798D01*
X80483Y9665D01*
X80883D01*
X80616D02*
X80350Y9398D01*
X80083Y10065D02*
X79950Y10198D01*
X79683D01*
X79550Y10065D01*
Y9931D01*
X79683Y9798D01*
X79817D01*
X79683D01*
X79550Y9665D01*
Y9531D01*
X79683Y9398D01*
X79950D01*
X80083Y9531D01*
X79284Y9398D02*
X79017D01*
X79150D01*
Y10198D01*
X79284Y10065D01*
X84566Y23425D02*
Y24225D01*
X84167D01*
X84033Y24092D01*
Y23825D01*
X84167Y23692D01*
X84566D01*
X84300D02*
X84033Y23425D01*
X83767Y24092D02*
X83633Y24225D01*
X83367D01*
X83234Y24092D01*
Y23958D01*
X83367Y23825D01*
X83500D01*
X83367D01*
X83234Y23692D01*
Y23558D01*
X83367Y23425D01*
X83633D01*
X83767Y23558D01*
X82967Y24092D02*
X82834Y24225D01*
X82567D01*
X82434Y24092D01*
Y23558D01*
X82567Y23425D01*
X82834D01*
X82967Y23558D01*
Y24092D01*
X80916Y38800D02*
Y39600D01*
X80516D01*
X80383Y39467D01*
Y39200D01*
X80516Y39067D01*
X80916D01*
X80650D02*
X80383Y38800D01*
X79583D02*
X80117D01*
X79583Y39333D01*
Y39467D01*
X79717Y39600D01*
X79983D01*
X80117Y39467D01*
X79317D02*
X79184Y39600D01*
X78917D01*
X78784Y39467D01*
Y39333D01*
X78917Y39200D01*
X78784Y39067D01*
Y38933D01*
X78917Y38800D01*
X79184D01*
X79317Y38933D01*
Y39067D01*
X79184Y39200D01*
X79317Y39333D01*
Y39467D01*
X79184Y39200D02*
X78917D01*
X80670Y112712D02*
Y113512D01*
X80270D01*
X80137Y113379D01*
Y113112D01*
X80270Y112979D01*
X80670D01*
X80404D02*
X80137Y112712D01*
X79337D02*
X79870D01*
X79337Y113245D01*
Y113379D01*
X79471Y113512D01*
X79737D01*
X79870Y113379D01*
X79071Y113512D02*
X78538D01*
Y113379D01*
X79071Y112845D01*
Y112712D01*
X91966Y109625D02*
Y110425D01*
X91566D01*
X91433Y110292D01*
Y110025D01*
X91566Y109892D01*
X91966D01*
X91700D02*
X91433Y109625D01*
X90633D02*
X91167D01*
X90633Y110158D01*
Y110292D01*
X90767Y110425D01*
X91033D01*
X91167Y110292D01*
X89834Y110425D02*
X90100Y110292D01*
X90367Y110025D01*
Y109758D01*
X90234Y109625D01*
X89967D01*
X89834Y109758D01*
Y109892D01*
X89967Y110025D01*
X90367D01*
X90264Y35089D02*
Y35889D01*
X89864D01*
X89731Y35755D01*
Y35489D01*
X89864Y35356D01*
X90264D01*
X89997D02*
X89731Y35089D01*
X88931D02*
X89464D01*
X88931Y35622D01*
Y35755D01*
X89064Y35889D01*
X89331D01*
X89464Y35755D01*
X88131Y35889D02*
X88664D01*
Y35489D01*
X88398Y35622D01*
X88265D01*
X88131Y35489D01*
Y35222D01*
X88265Y35089D01*
X88531D01*
X88664Y35222D01*
X104550Y111291D02*
X103750D01*
Y110891D01*
X103883Y110758D01*
X104150D01*
X104283Y110891D01*
Y111291D01*
Y111025D02*
X104550Y110758D01*
Y109958D02*
Y110492D01*
X104017Y109958D01*
X103883D01*
X103750Y110092D01*
Y110358D01*
X103883Y110492D01*
X104550Y109292D02*
X103750D01*
X104150Y109692D01*
Y109159D01*
X106650Y2859D02*
X107450D01*
Y3259D01*
X107317Y3392D01*
X107050D01*
X106917Y3259D01*
Y2859D01*
Y3125D02*
X106650Y3392D01*
Y4192D02*
Y3658D01*
X107183Y4192D01*
X107317D01*
X107450Y4058D01*
Y3792D01*
X107317Y3658D01*
Y4458D02*
X107450Y4591D01*
Y4858D01*
X107317Y4991D01*
X107183D01*
X107050Y4858D01*
Y4725D01*
Y4858D01*
X106917Y4991D01*
X106783D01*
X106650Y4858D01*
Y4591D01*
X106783Y4458D01*
X197540Y187631D02*
X196740D01*
Y187231D01*
X196873Y187098D01*
X197140D01*
X197273Y187231D01*
Y187631D01*
Y187364D02*
X197540Y187098D01*
Y186298D02*
Y186831D01*
X197007Y186298D01*
X196873D01*
X196740Y186431D01*
Y186698D01*
X196873Y186831D01*
X197540Y185498D02*
Y186031D01*
X197007Y185498D01*
X196873D01*
X196740Y185631D01*
Y185898D01*
X196873Y186031D01*
X89985Y116638D02*
Y117438D01*
X89586D01*
X89452Y117304D01*
Y117038D01*
X89586Y116905D01*
X89985D01*
X89719D02*
X89452Y116638D01*
X88653D02*
X89186D01*
X88653Y117171D01*
Y117304D01*
X88786Y117438D01*
X89052D01*
X89186Y117304D01*
X88386Y116638D02*
X88119D01*
X88253D01*
Y117438D01*
X88386Y117304D01*
X195000Y187631D02*
X194200D01*
Y187231D01*
X194333Y187098D01*
X194600D01*
X194733Y187231D01*
Y187631D01*
Y187364D02*
X195000Y187098D01*
Y186298D02*
Y186831D01*
X194467Y186298D01*
X194333D01*
X194200Y186431D01*
Y186698D01*
X194333Y186831D01*
Y186031D02*
X194200Y185898D01*
Y185631D01*
X194333Y185498D01*
X194867D01*
X195000Y185631D01*
Y185898D01*
X194867Y186031D01*
X194333D01*
X80863Y115125D02*
Y115925D01*
X80463D01*
X80330Y115792D01*
Y115525D01*
X80463Y115392D01*
X80863D01*
X80596D02*
X80330Y115125D01*
X80063D02*
X79796D01*
X79930D01*
Y115925D01*
X80063Y115792D01*
X79396Y115258D02*
X79263Y115125D01*
X78997D01*
X78863Y115258D01*
Y115792D01*
X78997Y115925D01*
X79263D01*
X79396Y115792D01*
Y115658D01*
X79263Y115525D01*
X78863D01*
X104455Y35525D02*
X103656D01*
Y35125D01*
X103789Y34992D01*
X104056D01*
X104189Y35125D01*
Y35525D01*
Y35258D02*
X104455Y34992D01*
Y34725D02*
Y34458D01*
Y34592D01*
X103656D01*
X103789Y34725D01*
Y34058D02*
X103656Y33925D01*
Y33659D01*
X103789Y33525D01*
X103922D01*
X104056Y33659D01*
X104189Y33525D01*
X104322D01*
X104455Y33659D01*
Y33925D01*
X104322Y34058D01*
X104189D01*
X104056Y33925D01*
X103922Y34058D01*
X103789D01*
X104056Y33925D02*
Y33659D01*
X106929Y141775D02*
X106129D01*
Y141375D01*
X106263Y141242D01*
X106529D01*
X106662Y141375D01*
Y141775D01*
Y141508D02*
X106929Y141242D01*
Y140975D02*
Y140708D01*
Y140842D01*
X106129D01*
X106263Y140975D01*
X106129Y140308D02*
Y139775D01*
X106263D01*
X106796Y140308D01*
X106929D01*
X80491Y143568D02*
Y144368D01*
X80091D01*
X79958Y144235D01*
Y143968D01*
X80091Y143835D01*
X80491D01*
X80225D02*
X79958Y143568D01*
X79691D02*
X79425D01*
X79558D01*
Y144368D01*
X79691Y144235D01*
X78492Y144368D02*
X78758Y144235D01*
X79025Y143968D01*
Y143702D01*
X78892Y143568D01*
X78625D01*
X78492Y143702D01*
Y143835D01*
X78625Y143968D01*
X79025D01*
X90252Y142044D02*
Y142844D01*
X89852D01*
X89719Y142711D01*
Y142444D01*
X89852Y142311D01*
X90252D01*
X89985D02*
X89719Y142044D01*
X89452D02*
X89185D01*
X89319D01*
Y142844D01*
X89452Y142711D01*
X88252Y142844D02*
X88785D01*
Y142444D01*
X88519Y142577D01*
X88386D01*
X88252Y142444D01*
Y142178D01*
X88386Y142044D01*
X88652D01*
X88785Y142178D01*
X88125Y44490D02*
Y43690D01*
X88525D01*
X88658Y43824D01*
Y44090D01*
X88525Y44224D01*
X88125D01*
X88392D02*
X88658Y44490D01*
X88925D02*
X89192D01*
X89058D01*
Y43690D01*
X88925Y43824D01*
X89991Y44490D02*
Y43690D01*
X89592Y44090D01*
X90125D01*
X109275Y36408D02*
X108475D01*
Y36008D01*
X108608Y35875D01*
X108875D01*
X109008Y36008D01*
Y36408D01*
Y36141D02*
X109275Y35875D01*
Y35608D02*
Y35342D01*
Y35475D01*
X108475D01*
X108608Y35608D01*
X109275Y34409D02*
Y34942D01*
X108742Y34409D01*
X108608D01*
X108475Y34542D01*
Y34808D01*
X108608Y34942D01*
X80943Y41693D02*
Y42493D01*
X80544D01*
X80410Y42359D01*
Y42093D01*
X80544Y41960D01*
X80943D01*
X80677D02*
X80410Y41693D01*
X80144D02*
X79877D01*
X80010D01*
Y42493D01*
X80144Y42359D01*
X79477Y41693D02*
X79211D01*
X79344D01*
Y42493D01*
X79477Y42359D01*
X182399Y135913D02*
X182964Y136479D01*
X182682Y136761D01*
X182493D01*
X182305Y136573D01*
X182305Y136384D01*
X182587Y136102D01*
X182399Y136290D02*
X182022D01*
X181833Y136479D02*
X181645Y136667D01*
X181739Y136573D01*
X182305Y137138D01*
X182305Y136950D01*
X181833Y137421D02*
X181833Y137610D01*
X181645Y137798D01*
X181456D01*
X181079Y137421D01*
X181079Y137233D01*
X181268Y137044D01*
X181456D01*
X181833Y137421D01*
X204716Y177650D02*
Y178450D01*
X204317D01*
X204183Y178317D01*
Y178050D01*
X204317Y177917D01*
X204716D01*
X204450D02*
X204183Y177650D01*
X203917Y177783D02*
X203783Y177650D01*
X203517D01*
X203384Y177783D01*
Y178317D01*
X203517Y178450D01*
X203783D01*
X203917Y178317D01*
Y178183D01*
X203783Y178050D01*
X203384D01*
X211350Y161491D02*
X210550D01*
Y161092D01*
X210683Y160958D01*
X210950D01*
X211083Y161092D01*
Y161491D01*
Y161225D02*
X211350Y160958D01*
X210683Y160692D02*
X210550Y160558D01*
Y160292D01*
X210683Y160159D01*
X210817D01*
X210950Y160292D01*
X211083Y160159D01*
X211217D01*
X211350Y160292D01*
Y160558D01*
X211217Y160692D01*
X211083D01*
X210950Y160558D01*
X210817Y160692D01*
X210683D01*
X210950Y160558D02*
Y160292D01*
X89825Y148140D02*
Y148940D01*
X89426D01*
X89292Y148807D01*
Y148540D01*
X89426Y148407D01*
X89825D01*
X89559D02*
X89292Y148140D01*
X89026Y148940D02*
X88493D01*
Y148807D01*
X89026Y148274D01*
Y148140D01*
X80824Y146235D02*
Y147035D01*
X80425D01*
X80291Y146902D01*
Y146635D01*
X80425Y146502D01*
X80824D01*
X80558D02*
X80291Y146235D01*
X79492Y147035D02*
X79758Y146902D01*
X80025Y146635D01*
Y146369D01*
X79891Y146235D01*
X79625D01*
X79492Y146369D01*
Y146502D01*
X79625Y146635D01*
X80025D01*
X210627Y168414D02*
Y169213D01*
X210227D01*
X210093Y169080D01*
Y168814D01*
X210227Y168680D01*
X210627D01*
X210360D02*
X210093Y168414D01*
X209294Y169213D02*
X209827D01*
Y168814D01*
X209560Y168947D01*
X209427D01*
X209294Y168814D01*
Y168547D01*
X209427Y168414D01*
X209694D01*
X209827Y168547D01*
X209416Y183150D02*
Y183950D01*
X209017D01*
X208883Y183817D01*
Y183550D01*
X209017Y183417D01*
X209416D01*
X209150D02*
X208883Y183150D01*
X208217D02*
Y183950D01*
X208617Y183550D01*
X208084D01*
X209416Y179872D02*
Y180672D01*
X209017D01*
X208883Y180539D01*
Y180272D01*
X209017Y180139D01*
X209416D01*
X209150D02*
X208883Y179872D01*
X208617Y180539D02*
X208483Y180672D01*
X208217D01*
X208084Y180539D01*
Y180405D01*
X208217Y180272D01*
X208350D01*
X208217D01*
X208084Y180139D01*
Y180005D01*
X208217Y179872D01*
X208483D01*
X208617Y180005D01*
X162154Y134485D02*
X161589Y135050D01*
X161306Y134768D01*
Y134579D01*
X161494Y134391D01*
X161683Y134391D01*
X161965Y134673D01*
X161777Y134485D02*
Y134108D01*
X161212Y133542D02*
X161589Y133919D01*
X160835D01*
X160740Y134014D01*
Y134202D01*
X160929Y134391D01*
X161117Y134391D01*
X80691Y156094D02*
Y155295D01*
X80291D01*
X80158Y155428D01*
Y155961D01*
X80291Y156094D01*
X80691D01*
X79358Y155295D02*
X79892D01*
X79358Y155828D01*
Y155961D01*
X79492Y156094D01*
X79758D01*
X79892Y155961D01*
X78559Y156094D02*
X78825Y155961D01*
X79092Y155694D01*
Y155428D01*
X78959Y155295D01*
X78692D01*
X78559Y155428D01*
Y155561D01*
X78692Y155694D01*
X79092D01*
X79034Y51100D02*
Y51900D01*
X79434D01*
X79567Y51767D01*
Y51233D01*
X79434Y51100D01*
X79034D01*
X80367Y51900D02*
X79833D01*
X80367Y51367D01*
Y51233D01*
X80233Y51100D01*
X79967D01*
X79833Y51233D01*
X81166Y51100D02*
X80633D01*
Y51500D01*
X80900Y51367D01*
X81033D01*
X81166Y51500D01*
Y51767D01*
X81033Y51900D01*
X80766D01*
X80633Y51767D01*
X85139Y169671D02*
Y168871D01*
X84739D01*
X84606Y169004D01*
Y169537D01*
X84739Y169671D01*
X85139D01*
X83806Y168871D02*
X84339D01*
X83806Y169404D01*
Y169537D01*
X83939Y169671D01*
X84206D01*
X84339Y169537D01*
X83140Y168871D02*
Y169671D01*
X83539Y169271D01*
X83006D01*
X140166Y172700D02*
Y171900D01*
X139766D01*
X139633Y172033D01*
Y172567D01*
X139766Y172700D01*
X140166D01*
X138833Y171900D02*
X139367D01*
X138833Y172433D01*
Y172567D01*
X138967Y172700D01*
X139233D01*
X139367Y172567D01*
X138567D02*
X138434Y172700D01*
X138167D01*
X138034Y172567D01*
Y172433D01*
X138167Y172300D01*
X138300D01*
X138167D01*
X138034Y172167D01*
Y172033D01*
X138167Y171900D01*
X138434D01*
X138567Y172033D01*
X81033Y61125D02*
Y60325D01*
X80633D01*
X80500Y60458D01*
Y60992D01*
X80633Y61125D01*
X81033D01*
X79700Y60325D02*
X80233D01*
X79700Y60858D01*
Y60992D01*
X79833Y61125D01*
X80100D01*
X80233Y60992D01*
X79434Y60325D02*
X79167D01*
X79300D01*
Y61125D01*
X79434Y60992D01*
X106291Y169500D02*
Y168700D01*
X105891D01*
X105758Y168833D01*
Y169367D01*
X105891Y169500D01*
X106291D01*
X104958Y168700D02*
X105492D01*
X104958Y169233D01*
Y169367D01*
X105092Y169500D01*
X105358D01*
X105492Y169367D01*
X104692D02*
X104559Y169500D01*
X104292D01*
X104159Y169367D01*
Y168833D01*
X104292Y168700D01*
X104559D01*
X104692Y168833D01*
Y169367D01*
X106100Y65525D02*
Y64725D01*
X105700D01*
X105567Y64858D01*
Y65392D01*
X105700Y65525D01*
X106100D01*
X105300Y64725D02*
X105033D01*
X105167D01*
Y65525D01*
X105300Y65392D01*
X104633Y64858D02*
X104500Y64725D01*
X104234D01*
X104100Y64858D01*
Y65392D01*
X104234Y65525D01*
X104500D01*
X104633Y65392D01*
Y65258D01*
X104500Y65125D01*
X104100D01*
X80925Y186925D02*
Y186125D01*
X80525D01*
X80392Y186258D01*
Y186792D01*
X80525Y186925D01*
X80925D01*
X80125Y186125D02*
X79858D01*
X79992D01*
Y186925D01*
X80125Y186792D01*
X79458D02*
X79325Y186925D01*
X79059D01*
X78925Y186792D01*
Y186658D01*
X79059Y186525D01*
X78925Y186392D01*
Y186258D01*
X79059Y186125D01*
X79325D01*
X79458Y186258D01*
Y186392D01*
X79325Y186525D01*
X79458Y186658D01*
Y186792D01*
X79325Y186525D02*
X79059D01*
X80934Y4229D02*
Y3429D01*
X80534D01*
X80401Y3562D01*
Y4096D01*
X80534Y4229D01*
X80934D01*
X80134Y3429D02*
X79867D01*
X80001D01*
Y4229D01*
X80134Y4096D01*
X78934Y4229D02*
X79201Y4096D01*
X79467Y3829D01*
Y3562D01*
X79334Y3429D01*
X79068D01*
X78934Y3562D01*
Y3696D01*
X79068Y3829D01*
X79467D01*
X85125Y199025D02*
Y198225D01*
X84725D01*
X84592Y198358D01*
Y198892D01*
X84725Y199025D01*
X85125D01*
X84325Y198225D02*
X84058D01*
X84192D01*
Y199025D01*
X84325Y198892D01*
X83125Y199025D02*
X83658D01*
Y198625D01*
X83392Y198758D01*
X83259D01*
X83125Y198625D01*
Y198358D01*
X83259Y198225D01*
X83525D01*
X83658Y198358D01*
X80925Y90200D02*
Y89400D01*
X80525D01*
X80392Y89533D01*
Y90067D01*
X80525Y90200D01*
X80925D01*
X80125Y89400D02*
X79858D01*
X79992D01*
Y90200D01*
X80125Y90067D01*
X79059Y89400D02*
Y90200D01*
X79458Y89800D01*
X78925D01*
X80807Y13373D02*
Y12573D01*
X80407D01*
X80274Y12706D01*
Y13240D01*
X80407Y13373D01*
X80807D01*
X80007Y12573D02*
X79740D01*
X79874D01*
Y13373D01*
X80007Y13240D01*
X79340D02*
X79207Y13373D01*
X78941D01*
X78807Y13240D01*
Y13106D01*
X78941Y12973D01*
X79074D01*
X78941D01*
X78807Y12840D01*
Y12706D01*
X78941Y12573D01*
X79207D01*
X79340Y12706D01*
X106325Y199400D02*
Y198600D01*
X105925D01*
X105792Y198733D01*
Y199267D01*
X105925Y199400D01*
X106325D01*
X105525Y198600D02*
X105258D01*
X105392D01*
Y199400D01*
X105525Y199267D01*
X104325Y198600D02*
X104858D01*
X104325Y199133D01*
Y199267D01*
X104459Y199400D01*
X104725D01*
X104858Y199267D01*
X106036Y93573D02*
Y92773D01*
X105637D01*
X105503Y92906D01*
Y93440D01*
X105637Y93573D01*
X106036D01*
X105237Y92773D02*
X104970D01*
X105103D01*
Y93573D01*
X105237Y93440D01*
X104570Y92773D02*
X104304D01*
X104437D01*
Y93573D01*
X104570Y93440D01*
X106375Y18085D02*
Y17286D01*
X105975D01*
X105842Y17419D01*
Y17952D01*
X105975Y18085D01*
X106375D01*
X105575Y17286D02*
X105308D01*
X105442D01*
Y18085D01*
X105575Y17952D01*
X104908D02*
X104775Y18085D01*
X104509D01*
X104375Y17952D01*
Y17419D01*
X104509Y17286D01*
X104775D01*
X104908Y17419D01*
Y17952D01*
X80824Y110210D02*
Y109410D01*
X80425D01*
X80291Y109543D01*
Y110077D01*
X80425Y110210D01*
X80824D01*
X80025Y109543D02*
X79891Y109410D01*
X79625D01*
X79492Y109543D01*
Y110077D01*
X79625Y110210D01*
X79891D01*
X80025Y110077D01*
Y109943D01*
X79891Y109810D01*
X79492D01*
X80925Y119190D02*
Y118391D01*
X80525D01*
X80392Y118524D01*
Y119057D01*
X80525Y119190D01*
X80925D01*
X80125Y119057D02*
X79992Y119190D01*
X79725D01*
X79592Y119057D01*
Y118924D01*
X79725Y118791D01*
X79592Y118657D01*
Y118524D01*
X79725Y118391D01*
X79992D01*
X80125Y118524D01*
Y118657D01*
X79992Y118791D01*
X80125Y118924D01*
Y119057D01*
X79992Y118791D02*
X79725D01*
X79684Y35058D02*
Y35858D01*
X80083D01*
X80217Y35725D01*
Y35192D01*
X80083Y35058D01*
X79684D01*
X80483D02*
X81016D01*
Y35192D01*
X80483Y35725D01*
Y35858D01*
X105966Y124050D02*
Y123250D01*
X105567D01*
X105433Y123383D01*
Y123917D01*
X105567Y124050D01*
X105966D01*
X104634D02*
X104900Y123917D01*
X105167Y123650D01*
Y123383D01*
X105033Y123250D01*
X104767D01*
X104634Y123383D01*
Y123517D01*
X104767Y123650D01*
X105167D01*
X80666Y141075D02*
Y140275D01*
X80267D01*
X80133Y140408D01*
Y140942D01*
X80267Y141075D01*
X80666D01*
X79334D02*
X79867D01*
Y140675D01*
X79600Y140808D01*
X79467D01*
X79334Y140675D01*
Y140408D01*
X79467Y140275D01*
X79733D01*
X79867Y140408D01*
X81042Y46049D02*
Y45249D01*
X80642D01*
X80508Y45382D01*
Y45915D01*
X80642Y46049D01*
X81042D01*
X79842Y45249D02*
Y46049D01*
X80242Y45649D01*
X79709D01*
X80824Y150428D02*
Y149628D01*
X80425D01*
X80291Y149761D01*
Y150294D01*
X80425Y150428D01*
X80824D01*
X80025Y150294D02*
X79891Y150428D01*
X79625D01*
X79492Y150294D01*
Y150161D01*
X79625Y150028D01*
X79758D01*
X79625D01*
X79492Y149894D01*
Y149761D01*
X79625Y149628D01*
X79891D01*
X80025Y149761D01*
X105918Y154238D02*
Y153438D01*
X105519D01*
X105385Y153571D01*
Y154105D01*
X105519Y154238D01*
X105918D01*
X104586Y153438D02*
X105119D01*
X104586Y153971D01*
Y154105D01*
X104719Y154238D01*
X104985D01*
X105119Y154105D01*
X104842Y47225D02*
Y48025D01*
X105242D01*
X105375Y47892D01*
Y47359D01*
X105242Y47225D01*
X104842D01*
X105642Y48025D02*
X105908D01*
X105775D01*
Y47225D01*
X105642Y47359D01*
X165781Y177457D02*
X165648Y177324D01*
X165382D01*
X165248Y177457D01*
Y177991D01*
X165382Y178124D01*
X165648D01*
X165781Y177991D01*
X166048Y178124D02*
X166315D01*
X166181D01*
Y177324D01*
X166048Y177457D01*
X166715Y177991D02*
X166848Y178124D01*
X167114D01*
X167248Y177991D01*
Y177457D01*
X167114Y177324D01*
X166848D01*
X166715Y177457D01*
Y177591D01*
X166848Y177724D01*
X167248D01*
X158192Y177864D02*
X158325Y177997D01*
X158591D01*
X158725Y177864D01*
Y177330D01*
X158591Y177197D01*
X158325D01*
X158192Y177330D01*
X157925Y177197D02*
X157658D01*
X157792D01*
Y177997D01*
X157925Y177864D01*
X157258D02*
X157125Y177997D01*
X156859D01*
X156725Y177864D01*
Y177730D01*
X156859Y177597D01*
X156725Y177464D01*
Y177330D01*
X156859Y177197D01*
X157125D01*
X157258Y177330D01*
Y177464D01*
X157125Y177597D01*
X157258Y177730D01*
Y177864D01*
X157125Y177597D02*
X156859D01*
X184894Y178118D02*
X185027Y178251D01*
X185293D01*
X185427Y178118D01*
Y177584D01*
X185293Y177451D01*
X185027D01*
X184894Y177584D01*
X184627Y177451D02*
X184360D01*
X184494D01*
Y178251D01*
X184627Y178118D01*
X183960Y178251D02*
X183427D01*
Y178118D01*
X183960Y177584D01*
Y177451D01*
X180666Y131243D02*
Y131432D01*
X180855Y131620D01*
X181043Y131620D01*
X181420Y131243D01*
Y131055D01*
X181232Y130866D01*
X181043Y130866D01*
X180949Y130584D02*
X180761Y130395D01*
X180855Y130489D01*
X180289Y131055D01*
X180478Y131055D01*
X180007Y130584D02*
X179818Y130584D01*
X179630Y130395D01*
Y130207D01*
X180007Y129830D01*
X180195Y129830D01*
X180384Y130018D01*
Y130207D01*
X180007Y130584D01*
X179731Y109108D02*
Y109296D01*
X179919Y109485D01*
X180108Y109485D01*
X180485Y109108D01*
Y108919D01*
X180296Y108731D01*
X180108Y108731D01*
X179542Y108919D02*
X179354Y108919D01*
X179165Y108731D01*
Y108542D01*
X179260Y108448D01*
X179448D01*
X179448Y108259D01*
X179542Y108165D01*
X179731Y108165D01*
X179919Y108354D01*
Y108542D01*
X179825Y108636D01*
X179637D01*
X179637Y108825D01*
X179542Y108919D01*
X179637Y108636D02*
X179448Y108448D01*
X188108Y105944D02*
X188296D01*
X188485Y105756D01*
X188485Y105567D01*
X188108Y105190D01*
X187919D01*
X187731Y105379D01*
X187731Y105567D01*
X187637Y106604D02*
X187731Y106321D01*
Y105944D01*
X187542Y105756D01*
X187354D01*
X187165Y105944D01*
X187165Y106133D01*
X187260Y106227D01*
X187448Y106227D01*
X187731Y105944D01*
X190325Y96167D02*
X190458Y96300D01*
X190725D01*
X190858Y96167D01*
Y95633D01*
X190725Y95500D01*
X190458D01*
X190325Y95633D01*
X190058Y95500D02*
X189792D01*
X189925D01*
Y96300D01*
X190058Y96167D01*
D142*
X136536Y170966D02*
Y173966D01*
X132286Y170966D02*
X137286D01*
X132286Y173966D02*
X137286D01*
Y170966D02*
Y173966D01*
X132286Y170966D02*
Y173966D01*
D143*
X100210Y12437D02*
X99677Y11903D01*
X100210D02*
X99677Y12437D01*
X100210Y12170D02*
X99677D01*
X99944Y11903D02*
Y12437D01*
X100210Y59627D02*
X99677Y59094D01*
X100210D02*
X99677Y59627D01*
X100210Y59361D02*
X99677D01*
X99944Y59094D02*
Y59627D01*
X100210Y117856D02*
X99677Y117323D01*
X100210D02*
X99677Y117856D01*
X100210Y117590D02*
X99677D01*
X99944Y117323D02*
Y117856D01*
X100210Y163937D02*
X99677Y163404D01*
X100210D02*
X99677Y163937D01*
X100210Y163671D02*
X99677D01*
X99944Y163404D02*
Y163937D01*
X100210Y193863D02*
X99677Y193330D01*
X100210D02*
X99677Y193863D01*
X100210Y193597D02*
X99677D01*
X99944Y193330D02*
Y193863D01*
X100210Y88103D02*
X99677Y87570D01*
X100210D02*
X99677Y88103D01*
X100210Y87837D02*
X99677D01*
X99944Y87570D02*
Y88103D01*
X100210Y148712D02*
X99677Y148179D01*
X100210D02*
X99677Y148712D01*
X100210Y148446D02*
X99677D01*
X99944Y148179D02*
Y148712D01*
X100210Y42358D02*
X99677Y41825D01*
X100210D02*
X99677Y42358D01*
X100210Y42092D02*
X99677D01*
X99944Y41825D02*
Y42358D01*
%TF.MD5,07af99fbccdfeaf0a5a5967c7794e76d*%
M02*
