%TF.GenerationSoftware,Altium Limited,Altium Designer,21.6.4 (81)*%
G04 Layer_Color=8388736*
%FSLAX43Y43*%
%MOMM*%
%TF.SameCoordinates,A962B9D3-E780-4B03-8A10-E236CC36F35F*%
%TF.FilePolarity,Positive*%
%TF.FileFunction,Other,Top_Assembly*%
%TF.Part,Single*%
G01*
G75*
%TA.AperFunction,NonConductor*%
%ADD139C,0.200*%
%ADD142C,0.150*%
%ADD185C,0.100*%
%ADD197R,3.675X1.300*%
G36*
X96095Y19774D02*
X96100D01*
X96106Y19774D01*
X96120Y19771D01*
X96135Y19767D01*
X96152Y19761D01*
X96168Y19753D01*
X96176Y19748D01*
X96183Y19742D01*
X96184Y19741D01*
X96185Y19740D01*
X96187Y19738D01*
X96189Y19736D01*
X96192Y19732D01*
X96196Y19728D01*
X96203Y19717D01*
X96211Y19704D01*
X96218Y19688D01*
X96224Y19669D01*
X96228Y19648D01*
X96168Y19643D01*
Y19643D01*
X96167Y19645D01*
Y19646D01*
X96166Y19649D01*
X96164Y19657D01*
X96161Y19666D01*
X96157Y19677D01*
X96152Y19687D01*
X96146Y19697D01*
X96139Y19705D01*
X96138Y19706D01*
X96135Y19708D01*
X96130Y19711D01*
X96124Y19714D01*
X96116Y19717D01*
X96106Y19720D01*
X96095Y19723D01*
X96084Y19723D01*
X96078D01*
X96073Y19723D01*
X96067Y19722D01*
X96058Y19720D01*
X96050Y19718D01*
X96041Y19715D01*
X96033Y19711D01*
X96033Y19710D01*
X96030Y19708D01*
X96025Y19706D01*
X96021Y19701D01*
X96015Y19696D01*
X96009Y19690D01*
X96003Y19683D01*
X95997Y19675D01*
X95996Y19674D01*
X95995Y19671D01*
X95992Y19666D01*
X95989Y19659D01*
X95985Y19650D01*
X95982Y19640D01*
X95978Y19628D01*
X95974Y19615D01*
Y19614D01*
X95973Y19613D01*
Y19611D01*
X95973Y19608D01*
X95971Y19601D01*
X95969Y19591D01*
X95968Y19579D01*
X95966Y19567D01*
X95965Y19553D01*
X95965Y19538D01*
Y19537D01*
Y19535D01*
Y19531D01*
Y19525D01*
X95965Y19527D01*
X95968Y19530D01*
X95973Y19536D01*
X95978Y19543D01*
X95985Y19550D01*
X95994Y19558D01*
X96004Y19567D01*
X96016Y19574D01*
X96018Y19575D01*
X96022Y19577D01*
X96029Y19580D01*
X96037Y19583D01*
X96048Y19587D01*
X96060Y19589D01*
X96073Y19592D01*
X96087Y19592D01*
X96093D01*
X96098Y19592D01*
X96104Y19591D01*
X96109Y19590D01*
X96117Y19589D01*
X96124Y19587D01*
X96141Y19581D01*
X96150Y19578D01*
X96159Y19573D01*
X96169Y19568D01*
X96177Y19561D01*
X96186Y19555D01*
X96194Y19547D01*
X96195Y19546D01*
X96197Y19544D01*
X96198Y19542D01*
X96201Y19538D01*
X96205Y19533D01*
X96208Y19528D01*
X96212Y19521D01*
X96216Y19514D01*
X96220Y19506D01*
X96224Y19497D01*
X96228Y19487D01*
X96231Y19476D01*
X96234Y19465D01*
X96236Y19452D01*
X96237Y19439D01*
X96238Y19425D01*
Y19425D01*
Y19422D01*
Y19418D01*
X96237Y19413D01*
X96237Y19406D01*
X96236Y19398D01*
X96234Y19390D01*
X96232Y19380D01*
X96227Y19361D01*
X96223Y19351D01*
X96219Y19340D01*
X96214Y19329D01*
X96207Y19320D01*
X96200Y19309D01*
X96192Y19300D01*
X96191Y19300D01*
X96190Y19298D01*
X96188Y19296D01*
X96184Y19293D01*
X96180Y19289D01*
X96174Y19285D01*
X96168Y19281D01*
X96160Y19276D01*
X96153Y19272D01*
X96144Y19268D01*
X96124Y19260D01*
X96114Y19257D01*
X96102Y19255D01*
X96090Y19253D01*
X96078Y19252D01*
X96072D01*
X96069Y19253D01*
X96065D01*
X96060Y19254D01*
X96047Y19256D01*
X96033Y19259D01*
X96018Y19264D01*
X96002Y19271D01*
X95987Y19280D01*
X95986D01*
X95985Y19281D01*
X95983Y19283D01*
X95980Y19285D01*
X95973Y19291D01*
X95963Y19299D01*
X95953Y19310D01*
X95942Y19323D01*
X95933Y19339D01*
X95924Y19357D01*
Y19357D01*
X95923Y19359D01*
X95922Y19362D01*
X95920Y19366D01*
X95919Y19371D01*
X95917Y19377D01*
X95915Y19385D01*
X95913Y19393D01*
X95911Y19402D01*
X95908Y19414D01*
X95907Y19425D01*
X95905Y19438D01*
X95904Y19452D01*
X95902Y19467D01*
X95902Y19483D01*
Y19500D01*
Y19501D01*
Y19504D01*
Y19510D01*
Y19516D01*
X95902Y19524D01*
Y19534D01*
X95903Y19545D01*
X95905Y19556D01*
X95907Y19581D01*
X95911Y19608D01*
X95916Y19633D01*
X95919Y19646D01*
X95923Y19657D01*
Y19657D01*
X95924Y19659D01*
X95925Y19662D01*
X95927Y19666D01*
X95929Y19671D01*
X95932Y19677D01*
X95939Y19689D01*
X95948Y19703D01*
X95959Y19718D01*
X95972Y19732D01*
X95987Y19745D01*
X95987D01*
X95989Y19746D01*
X95991Y19748D01*
X95994Y19749D01*
X95999Y19751D01*
X96003Y19754D01*
X96009Y19757D01*
X96015Y19759D01*
X96029Y19765D01*
X96046Y19771D01*
X96064Y19774D01*
X96085Y19775D01*
X96091D01*
X96095Y19774D01*
D02*
G37*
G36*
X97125Y19255D02*
X96888D01*
X96882Y19255D01*
X96875D01*
X96860Y19256D01*
X96843Y19258D01*
X96826Y19261D01*
X96809Y19264D01*
X96801Y19266D01*
X96795Y19269D01*
X96794D01*
X96793Y19269D01*
X96789Y19272D01*
X96782Y19275D01*
X96774Y19280D01*
X96765Y19286D01*
X96755Y19295D01*
X96747Y19306D01*
X96738Y19317D01*
Y19318D01*
X96737Y19319D01*
X96734Y19323D01*
X96731Y19331D01*
X96727Y19340D01*
X96723Y19351D01*
X96719Y19365D01*
X96717Y19379D01*
X96716Y19394D01*
Y19395D01*
Y19397D01*
Y19400D01*
X96717Y19403D01*
Y19408D01*
X96718Y19414D01*
X96721Y19426D01*
X96725Y19441D01*
X96731Y19456D01*
X96740Y19472D01*
X96746Y19479D01*
X96752Y19487D01*
X96752Y19487D01*
X96753Y19488D01*
X96755Y19490D01*
X96758Y19493D01*
X96762Y19496D01*
X96767Y19499D01*
X96772Y19502D01*
X96778Y19507D01*
X96786Y19510D01*
X96794Y19514D01*
X96803Y19519D01*
X96812Y19522D01*
X96823Y19525D01*
X96835Y19529D01*
X96847Y19531D01*
X96860Y19533D01*
X96859Y19534D01*
X96856Y19536D01*
X96852Y19538D01*
X96846Y19541D01*
X96832Y19550D01*
X96826Y19555D01*
X96820Y19559D01*
X96818Y19561D01*
X96815Y19564D01*
X96809Y19570D01*
X96801Y19578D01*
X96793Y19588D01*
X96784Y19599D01*
X96774Y19612D01*
X96764Y19627D01*
X96676Y19766D01*
X96760D01*
X96827Y19660D01*
Y19659D01*
X96829Y19657D01*
X96830Y19655D01*
X96832Y19652D01*
X96837Y19644D01*
X96844Y19634D01*
X96852Y19623D01*
X96860Y19611D01*
X96869Y19600D01*
X96876Y19589D01*
X96877Y19589D01*
X96879Y19586D01*
X96883Y19581D01*
X96888Y19576D01*
X96899Y19565D01*
X96905Y19560D01*
X96911Y19555D01*
X96911Y19555D01*
X96913Y19554D01*
X96916Y19553D01*
X96920Y19550D01*
X96925Y19548D01*
X96930Y19546D01*
X96942Y19542D01*
X96942D01*
X96944Y19541D01*
X96947D01*
X96951Y19541D01*
X96956Y19540D01*
X96962D01*
X96970Y19539D01*
X97057D01*
Y19766D01*
X97125D01*
Y19255D01*
D02*
G37*
G36*
X96645Y19765D02*
Y19762D01*
Y19758D01*
X96644Y19752D01*
X96643Y19745D01*
X96642Y19738D01*
X96640Y19731D01*
X96637Y19723D01*
Y19722D01*
X96636Y19721D01*
X96635Y19717D01*
X96632Y19710D01*
X96628Y19701D01*
X96622Y19691D01*
X96614Y19679D01*
X96606Y19667D01*
X96596Y19655D01*
Y19654D01*
X96594Y19653D01*
X96591Y19649D01*
X96584Y19642D01*
X96574Y19632D01*
X96563Y19621D01*
X96549Y19608D01*
X96532Y19593D01*
X96514Y19578D01*
X96513Y19577D01*
X96510Y19575D01*
X96506Y19571D01*
X96500Y19567D01*
X96494Y19561D01*
X96486Y19554D01*
X96478Y19547D01*
X96468Y19538D01*
X96449Y19521D01*
X96431Y19503D01*
X96422Y19494D01*
X96414Y19485D01*
X96407Y19477D01*
X96401Y19469D01*
Y19468D01*
X96399Y19468D01*
X96398Y19465D01*
X96396Y19462D01*
X96391Y19454D01*
X96385Y19445D01*
X96380Y19433D01*
X96375Y19420D01*
X96372Y19406D01*
X96370Y19393D01*
Y19392D01*
Y19391D01*
X96371Y19387D01*
X96372Y19380D01*
X96374Y19371D01*
X96377Y19361D01*
X96382Y19351D01*
X96389Y19340D01*
X96398Y19330D01*
X96399Y19329D01*
X96403Y19326D01*
X96408Y19322D01*
X96416Y19317D01*
X96427Y19312D01*
X96438Y19308D01*
X96452Y19305D01*
X96468Y19304D01*
X96472D01*
X96475Y19305D01*
X96484Y19306D01*
X96495Y19308D01*
X96506Y19311D01*
X96518Y19316D01*
X96530Y19323D01*
X96541Y19332D01*
X96543Y19333D01*
X96546Y19337D01*
X96550Y19343D01*
X96554Y19351D01*
X96560Y19362D01*
X96564Y19375D01*
X96567Y19390D01*
X96568Y19407D01*
X96633Y19400D01*
Y19400D01*
X96632Y19397D01*
Y19394D01*
X96631Y19388D01*
X96630Y19383D01*
X96628Y19376D01*
X96626Y19368D01*
X96624Y19360D01*
X96618Y19342D01*
X96609Y19324D01*
X96604Y19315D01*
X96597Y19306D01*
X96591Y19298D01*
X96583Y19291D01*
X96582Y19290D01*
X96581Y19289D01*
X96579Y19287D01*
X96575Y19285D01*
X96571Y19282D01*
X96565Y19279D01*
X96560Y19275D01*
X96552Y19272D01*
X96544Y19268D01*
X96535Y19264D01*
X96526Y19261D01*
X96515Y19258D01*
X96504Y19256D01*
X96492Y19254D01*
X96480Y19253D01*
X96466Y19252D01*
X96459D01*
X96454Y19253D01*
X96448Y19254D01*
X96441Y19255D01*
X96432Y19256D01*
X96424Y19258D01*
X96405Y19263D01*
X96386Y19270D01*
X96376Y19275D01*
X96367Y19280D01*
X96358Y19286D01*
X96350Y19294D01*
X96349Y19295D01*
X96347Y19295D01*
X96346Y19298D01*
X96343Y19301D01*
X96339Y19305D01*
X96336Y19310D01*
X96332Y19315D01*
X96327Y19322D01*
X96320Y19336D01*
X96313Y19354D01*
X96310Y19363D01*
X96308Y19373D01*
X96307Y19383D01*
X96306Y19394D01*
Y19396D01*
Y19400D01*
X96307Y19405D01*
X96308Y19414D01*
X96309Y19422D01*
X96312Y19433D01*
X96315Y19444D01*
X96319Y19455D01*
X96320Y19456D01*
X96322Y19460D01*
X96325Y19466D01*
X96329Y19474D01*
X96335Y19483D01*
X96342Y19494D01*
X96351Y19505D01*
X96361Y19518D01*
X96363Y19519D01*
X96367Y19524D01*
X96370Y19527D01*
X96374Y19531D01*
X96378Y19536D01*
X96384Y19541D01*
X96390Y19547D01*
X96398Y19554D01*
X96405Y19561D01*
X96414Y19570D01*
X96424Y19578D01*
X96434Y19587D01*
X96446Y19597D01*
X96458Y19607D01*
X96458Y19608D01*
X96460Y19609D01*
X96463Y19612D01*
X96466Y19615D01*
X96471Y19619D01*
X96476Y19623D01*
X96488Y19633D01*
X96500Y19644D01*
X96512Y19655D01*
X96523Y19665D01*
X96527Y19669D01*
X96531Y19672D01*
X96531Y19673D01*
X96534Y19675D01*
X96537Y19678D01*
X96540Y19683D01*
X96544Y19688D01*
X96548Y19693D01*
X96557Y19706D01*
X96305D01*
Y19766D01*
X96645D01*
Y19765D01*
D02*
G37*
G36*
X97125Y64855D02*
X96888D01*
X96882Y64855D01*
X96875D01*
X96860Y64856D01*
X96843Y64858D01*
X96826Y64861D01*
X96809Y64864D01*
X96801Y64866D01*
X96795Y64869D01*
X96794D01*
X96793Y64869D01*
X96789Y64872D01*
X96782Y64875D01*
X96774Y64880D01*
X96765Y64886D01*
X96755Y64895D01*
X96747Y64906D01*
X96738Y64917D01*
Y64918D01*
X96737Y64919D01*
X96734Y64923D01*
X96731Y64931D01*
X96727Y64940D01*
X96723Y64951D01*
X96719Y64965D01*
X96717Y64979D01*
X96716Y64994D01*
Y64995D01*
Y64997D01*
Y65000D01*
X96717Y65003D01*
Y65008D01*
X96718Y65014D01*
X96721Y65026D01*
X96725Y65041D01*
X96731Y65056D01*
X96740Y65072D01*
X96746Y65079D01*
X96752Y65087D01*
X96752Y65087D01*
X96753Y65088D01*
X96755Y65090D01*
X96758Y65093D01*
X96762Y65096D01*
X96767Y65099D01*
X96772Y65102D01*
X96778Y65107D01*
X96786Y65110D01*
X96794Y65114D01*
X96803Y65119D01*
X96812Y65122D01*
X96823Y65125D01*
X96835Y65129D01*
X96847Y65131D01*
X96860Y65133D01*
X96859Y65134D01*
X96856Y65136D01*
X96852Y65138D01*
X96846Y65141D01*
X96832Y65150D01*
X96826Y65155D01*
X96820Y65159D01*
X96818Y65161D01*
X96815Y65164D01*
X96809Y65170D01*
X96801Y65178D01*
X96793Y65188D01*
X96784Y65199D01*
X96774Y65212D01*
X96764Y65227D01*
X96676Y65366D01*
X96760D01*
X96827Y65260D01*
Y65259D01*
X96829Y65257D01*
X96830Y65255D01*
X96832Y65252D01*
X96837Y65244D01*
X96844Y65234D01*
X96852Y65223D01*
X96860Y65211D01*
X96869Y65200D01*
X96876Y65189D01*
X96877Y65189D01*
X96879Y65186D01*
X96883Y65181D01*
X96888Y65176D01*
X96899Y65165D01*
X96905Y65160D01*
X96911Y65155D01*
X96911Y65155D01*
X96913Y65154D01*
X96916Y65153D01*
X96920Y65150D01*
X96925Y65148D01*
X96930Y65146D01*
X96942Y65142D01*
X96942D01*
X96944Y65141D01*
X96947D01*
X96951Y65141D01*
X96956Y65140D01*
X96962D01*
X96970Y65139D01*
X97057D01*
Y65366D01*
X97125D01*
Y64855D01*
D02*
G37*
G36*
X95764Y65365D02*
Y65363D01*
Y65360D01*
X95764Y65356D01*
Y65350D01*
X95763Y65342D01*
X95762Y65334D01*
X95761Y65325D01*
X95760Y65315D01*
X95758Y65305D01*
X95756Y65292D01*
X95754Y65280D01*
X95752Y65266D01*
X95749Y65252D01*
X95741Y65221D01*
Y65221D01*
X95741Y65218D01*
X95739Y65213D01*
X95737Y65206D01*
X95735Y65199D01*
X95732Y65190D01*
X95729Y65180D01*
X95724Y65169D01*
X95720Y65156D01*
X95715Y65144D01*
X95704Y65116D01*
X95691Y65086D01*
X95676Y65056D01*
X95676Y65056D01*
X95674Y65053D01*
X95672Y65049D01*
X95669Y65043D01*
X95665Y65036D01*
X95660Y65028D01*
X95655Y65019D01*
X95649Y65010D01*
X95635Y64988D01*
X95620Y64966D01*
X95603Y64943D01*
X95585Y64922D01*
X95836D01*
Y64861D01*
X95505D01*
Y64911D01*
X95506Y64912D01*
X95507Y64913D01*
X95510Y64916D01*
X95513Y64920D01*
X95517Y64926D01*
X95523Y64932D01*
X95529Y64939D01*
X95536Y64948D01*
X95543Y64957D01*
X95551Y64967D01*
X95559Y64979D01*
X95567Y64991D01*
X95576Y65004D01*
X95585Y65018D01*
X95594Y65034D01*
X95602Y65049D01*
X95603Y65050D01*
X95605Y65053D01*
X95607Y65057D01*
X95611Y65064D01*
X95614Y65072D01*
X95619Y65081D01*
X95624Y65091D01*
X95629Y65103D01*
X95635Y65116D01*
X95642Y65130D01*
X95647Y65144D01*
X95653Y65160D01*
X95665Y65192D01*
X95676Y65226D01*
Y65226D01*
X95677Y65229D01*
X95678Y65232D01*
X95679Y65237D01*
X95681Y65243D01*
X95682Y65250D01*
X95684Y65258D01*
X95686Y65267D01*
X95688Y65277D01*
X95690Y65289D01*
X95694Y65312D01*
X95698Y65338D01*
X95700Y65366D01*
X95764D01*
Y65365D01*
D02*
G37*
G36*
X96462Y64966D02*
X96463Y64967D01*
X96466Y64970D01*
X96471Y64974D01*
X96478Y64980D01*
X96486Y64986D01*
X96497Y64994D01*
X96509Y65002D01*
X96522Y65010D01*
X96523D01*
X96523Y65011D01*
X96528Y65014D01*
X96535Y65017D01*
X96544Y65022D01*
X96554Y65027D01*
X96565Y65032D01*
X96577Y65037D01*
X96588Y65042D01*
Y64981D01*
X96587D01*
X96585Y64980D01*
X96582Y64979D01*
X96579Y64977D01*
X96574Y64974D01*
X96569Y64971D01*
X96557Y64964D01*
X96542Y64956D01*
X96527Y64946D01*
X96512Y64934D01*
X96496Y64921D01*
X96495Y64920D01*
X96495Y64920D01*
X96492Y64917D01*
X96489Y64915D01*
X96483Y64908D01*
X96474Y64899D01*
X96465Y64889D01*
X96455Y64877D01*
X96447Y64865D01*
X96440Y64852D01*
X96399D01*
Y65366D01*
X96462D01*
Y64966D01*
D02*
G37*
G36*
X96084Y65374D02*
X96089Y65374D01*
X96097Y65372D01*
X96105Y65371D01*
X96114Y65368D01*
X96123Y65365D01*
X96132Y65362D01*
X96142Y65358D01*
X96152Y65353D01*
X96161Y65347D01*
X96171Y65340D01*
X96180Y65331D01*
X96188Y65323D01*
X96189Y65322D01*
X96190Y65320D01*
X96192Y65316D01*
X96196Y65310D01*
X96200Y65303D01*
X96203Y65294D01*
X96208Y65284D01*
X96213Y65272D01*
X96217Y65259D01*
X96222Y65243D01*
X96226Y65226D01*
X96230Y65207D01*
X96234Y65187D01*
X96236Y65164D01*
X96237Y65140D01*
X96238Y65114D01*
Y65113D01*
Y65110D01*
Y65105D01*
Y65099D01*
X96237Y65091D01*
Y65082D01*
X96237Y65073D01*
X96236Y65062D01*
X96234Y65039D01*
X96230Y65014D01*
X96225Y64990D01*
X96223Y64979D01*
X96220Y64968D01*
Y64967D01*
X96219Y64966D01*
X96217Y64963D01*
X96216Y64959D01*
X96214Y64954D01*
X96211Y64949D01*
X96206Y64936D01*
X96198Y64923D01*
X96189Y64909D01*
X96177Y64895D01*
X96164Y64883D01*
X96163D01*
X96163Y64881D01*
X96160Y64880D01*
X96157Y64878D01*
X96154Y64875D01*
X96149Y64873D01*
X96138Y64867D01*
X96125Y64862D01*
X96109Y64857D01*
X96091Y64854D01*
X96071Y64852D01*
X96064D01*
X96056Y64853D01*
X96047Y64855D01*
X96036Y64857D01*
X96024Y64860D01*
X96011Y64864D01*
X95999Y64869D01*
X95999D01*
X95998Y64870D01*
X95994Y64872D01*
X95988Y64876D01*
X95981Y64881D01*
X95973Y64889D01*
X95964Y64897D01*
X95956Y64906D01*
X95948Y64917D01*
X95947Y64919D01*
X95944Y64923D01*
X95941Y64929D01*
X95936Y64939D01*
X95931Y64950D01*
X95925Y64963D01*
X95920Y64977D01*
X95916Y64994D01*
Y64994D01*
X95915Y64996D01*
X95914Y64998D01*
X95914Y65002D01*
X95913Y65006D01*
X95912Y65011D01*
X95911Y65018D01*
X95910Y65025D01*
X95908Y65034D01*
X95908Y65042D01*
X95907Y65053D01*
X95905Y65063D01*
X95905Y65075D01*
Y65087D01*
X95904Y65100D01*
Y65114D01*
Y65115D01*
Y65118D01*
Y65123D01*
Y65129D01*
X95905Y65137D01*
Y65146D01*
X95905Y65155D01*
X95906Y65166D01*
X95908Y65189D01*
X95912Y65214D01*
X95917Y65238D01*
X95919Y65249D01*
X95923Y65260D01*
Y65260D01*
X95924Y65262D01*
X95925Y65265D01*
X95927Y65269D01*
X95928Y65274D01*
X95931Y65279D01*
X95937Y65291D01*
X95945Y65305D01*
X95954Y65320D01*
X95965Y65333D01*
X95979Y65345D01*
X95979D01*
X95980Y65347D01*
X95982Y65348D01*
X95985Y65350D01*
X95989Y65352D01*
X95993Y65355D01*
X96004Y65360D01*
X96017Y65365D01*
X96033Y65371D01*
X96051Y65374D01*
X96071Y65375D01*
X96078D01*
X96084Y65374D01*
D02*
G37*
G36*
X97125Y75724D02*
X96828D01*
X96821Y75725D01*
X96813D01*
X96793Y75726D01*
X96773Y75729D01*
X96751Y75732D01*
X96730Y75736D01*
X96720Y75739D01*
X96712Y75742D01*
X96711D01*
X96710Y75743D01*
X96704Y75745D01*
X96696Y75749D01*
X96686Y75756D01*
X96675Y75764D01*
X96663Y75775D01*
X96652Y75788D01*
X96641Y75803D01*
Y75804D01*
X96640Y75805D01*
X96636Y75810D01*
X96632Y75819D01*
X96627Y75831D01*
X96622Y75845D01*
X96617Y75862D01*
X96615Y75879D01*
X96614Y75899D01*
Y75900D01*
Y75902D01*
Y75905D01*
X96615Y75910D01*
Y75916D01*
X96616Y75923D01*
X96619Y75939D01*
X96625Y75957D01*
X96632Y75977D01*
X96643Y75996D01*
X96651Y76005D01*
X96658Y76014D01*
X96659Y76015D01*
X96660Y76016D01*
X96663Y76019D01*
X96666Y76022D01*
X96671Y76026D01*
X96677Y76029D01*
X96684Y76034D01*
X96691Y76039D01*
X96701Y76044D01*
X96711Y76049D01*
X96722Y76054D01*
X96734Y76059D01*
X96748Y76063D01*
X96762Y76067D01*
X96777Y76070D01*
X96794Y76073D01*
X96792Y76074D01*
X96788Y76075D01*
X96783Y76079D01*
X96776Y76083D01*
X96759Y76093D01*
X96751Y76099D01*
X96743Y76105D01*
X96741Y76107D01*
X96737Y76112D01*
X96729Y76119D01*
X96720Y76128D01*
X96710Y76141D01*
X96698Y76155D01*
X96686Y76172D01*
X96673Y76190D01*
X96563Y76364D01*
X96668D01*
X96752Y76231D01*
Y76230D01*
X96754Y76228D01*
X96756Y76225D01*
X96759Y76222D01*
X96765Y76211D01*
X96774Y76198D01*
X96784Y76185D01*
X96794Y76170D01*
X96804Y76156D01*
X96813Y76143D01*
X96814Y76142D01*
X96817Y76138D01*
X96822Y76133D01*
X96828Y76126D01*
X96842Y76112D01*
X96849Y76106D01*
X96857Y76100D01*
X96858Y76099D01*
X96860Y76099D01*
X96863Y76097D01*
X96869Y76094D01*
X96874Y76091D01*
X96881Y76088D01*
X96896Y76084D01*
X96897D01*
X96898Y76083D01*
X96902D01*
X96907Y76082D01*
X96913Y76081D01*
X96921D01*
X96931Y76080D01*
X97040D01*
Y76364D01*
X97125D01*
Y75724D01*
D02*
G37*
G36*
X96304Y76374D02*
X96311D01*
X96320Y76373D01*
X96329Y76371D01*
X96340Y76369D01*
X96351Y76366D01*
X96364Y76362D01*
X96377Y76357D01*
X96390Y76352D01*
X96404Y76344D01*
X96417Y76336D01*
X96430Y76327D01*
X96443Y76316D01*
X96455Y76303D01*
X96456Y76302D01*
X96457Y76299D01*
X96460Y76296D01*
X96464Y76289D01*
X96469Y76281D01*
X96474Y76271D01*
X96480Y76259D01*
X96485Y76246D01*
X96492Y76231D01*
X96497Y76213D01*
X96502Y76194D01*
X96506Y76173D01*
X96511Y76148D01*
X96514Y76123D01*
X96516Y76095D01*
X96517Y76065D01*
Y76064D01*
Y76063D01*
Y76061D01*
Y76057D01*
X96516Y76048D01*
Y76035D01*
X96515Y76020D01*
X96513Y76002D01*
X96511Y75983D01*
X96508Y75962D01*
X96505Y75940D01*
X96500Y75917D01*
X96494Y75895D01*
X96488Y75873D01*
X96480Y75852D01*
X96470Y75831D01*
X96460Y75812D01*
X96448Y75795D01*
X96447Y75794D01*
X96445Y75793D01*
X96442Y75789D01*
X96437Y75783D01*
X96432Y75778D01*
X96424Y75772D01*
X96415Y75765D01*
X96406Y75758D01*
X96395Y75752D01*
X96383Y75744D01*
X96369Y75739D01*
X96355Y75732D01*
X96339Y75728D01*
X96322Y75724D01*
X96305Y75722D01*
X96286Y75721D01*
X96279D01*
X96273Y75722D01*
X96267D01*
X96260Y75723D01*
X96242Y75727D01*
X96223Y75732D01*
X96202Y75739D01*
X96182Y75750D01*
X96172Y75756D01*
X96163Y75764D01*
X96162Y75765D01*
X96161Y75766D01*
X96158Y75769D01*
X96155Y75771D01*
X96151Y75776D01*
X96147Y75781D01*
X96137Y75794D01*
X96126Y75811D01*
X96117Y75831D01*
X96109Y75854D01*
X96103Y75880D01*
X96182Y75887D01*
Y75886D01*
X96183Y75885D01*
X96184Y75879D01*
X96187Y75871D01*
X96190Y75861D01*
X96194Y75850D01*
X96200Y75839D01*
X96206Y75829D01*
X96212Y75820D01*
X96214Y75818D01*
X96218Y75815D01*
X96224Y75809D01*
X96234Y75803D01*
X96246Y75797D01*
X96259Y75792D01*
X96274Y75788D01*
X96291Y75786D01*
X96298D01*
X96305Y75787D01*
X96313Y75789D01*
X96324Y75792D01*
X96335Y75795D01*
X96347Y75800D01*
X96358Y75807D01*
X96359Y75808D01*
X96364Y75812D01*
X96371Y75818D01*
X96379Y75828D01*
X96388Y75839D01*
X96398Y75852D01*
X96408Y75868D01*
X96417Y75887D01*
Y75888D01*
X96418Y75890D01*
X96419Y75892D01*
X96421Y75896D01*
X96421Y75902D01*
X96423Y75908D01*
X96425Y75915D01*
X96427Y75925D01*
X96430Y75935D01*
X96432Y75946D01*
X96433Y75958D01*
X96434Y75971D01*
X96436Y75986D01*
X96437Y76001D01*
X96438Y76017D01*
Y76034D01*
X96437Y76033D01*
X96433Y76027D01*
X96427Y76020D01*
X96419Y76011D01*
X96409Y76000D01*
X96397Y75989D01*
X96384Y75979D01*
X96370Y75970D01*
X96369D01*
X96368Y75969D01*
X96362Y75966D01*
X96354Y75964D01*
X96343Y75959D01*
X96330Y75955D01*
X96315Y75952D01*
X96299Y75950D01*
X96283Y75949D01*
X96275D01*
X96270Y75950D01*
X96262Y75951D01*
X96255Y75952D01*
X96246Y75953D01*
X96237Y75956D01*
X96215Y75963D01*
X96204Y75967D01*
X96193Y75974D01*
X96182Y75980D01*
X96170Y75988D01*
X96159Y75997D01*
X96149Y76007D01*
X96148Y76008D01*
X96146Y76010D01*
X96143Y76013D01*
X96140Y76017D01*
X96136Y76024D01*
X96131Y76030D01*
X96126Y76038D01*
X96121Y76048D01*
X96115Y76058D01*
X96111Y76069D01*
X96106Y76082D01*
X96102Y76095D01*
X96099Y76109D01*
X96096Y76124D01*
X96094Y76140D01*
X96093Y76157D01*
Y76158D01*
Y76160D01*
Y76162D01*
Y76167D01*
X96094Y76173D01*
Y76178D01*
X96097Y76193D01*
X96100Y76210D01*
X96104Y76229D01*
X96111Y76249D01*
X96120Y76269D01*
Y76270D01*
X96121Y76271D01*
X96123Y76273D01*
X96125Y76277D01*
X96130Y76286D01*
X96139Y76298D01*
X96149Y76311D01*
X96161Y76324D01*
X96175Y76337D01*
X96191Y76348D01*
X96192D01*
X96193Y76349D01*
X96196Y76351D01*
X96200Y76352D01*
X96209Y76357D01*
X96221Y76361D01*
X96237Y76367D01*
X96254Y76370D01*
X96273Y76374D01*
X96295Y76375D01*
X96299D01*
X96304Y76374D01*
D02*
G37*
G36*
X95807D02*
X95814D01*
X95822Y76373D01*
X95832Y76371D01*
X95843Y76369D01*
X95854Y76366D01*
X95867Y76362D01*
X95880Y76357D01*
X95893Y76352D01*
X95906Y76344D01*
X95919Y76336D01*
X95932Y76327D01*
X95945Y76316D01*
X95957Y76303D01*
X95958Y76302D01*
X95960Y76299D01*
X95963Y76296D01*
X95967Y76289D01*
X95972Y76281D01*
X95977Y76271D01*
X95982Y76259D01*
X95988Y76246D01*
X95994Y76231D01*
X96000Y76213D01*
X96004Y76194D01*
X96009Y76173D01*
X96014Y76148D01*
X96016Y76123D01*
X96018Y76095D01*
X96019Y76065D01*
Y76064D01*
Y76063D01*
Y76061D01*
Y76057D01*
X96018Y76048D01*
Y76035D01*
X96017Y76020D01*
X96016Y76002D01*
X96014Y75983D01*
X96011Y75962D01*
X96007Y75940D01*
X96003Y75917D01*
X95997Y75895D01*
X95991Y75873D01*
X95982Y75852D01*
X95973Y75831D01*
X95963Y75812D01*
X95951Y75795D01*
X95950Y75794D01*
X95948Y75793D01*
X95944Y75789D01*
X95940Y75783D01*
X95934Y75778D01*
X95927Y75772D01*
X95918Y75765D01*
X95908Y75758D01*
X95897Y75752D01*
X95885Y75744D01*
X95871Y75739D01*
X95857Y75732D01*
X95842Y75728D01*
X95825Y75724D01*
X95808Y75722D01*
X95789Y75721D01*
X95782D01*
X95776Y75722D01*
X95770D01*
X95762Y75723D01*
X95745Y75727D01*
X95725Y75732D01*
X95705Y75739D01*
X95685Y75750D01*
X95674Y75756D01*
X95665Y75764D01*
X95664Y75765D01*
X95663Y75766D01*
X95661Y75769D01*
X95658Y75771D01*
X95653Y75776D01*
X95649Y75781D01*
X95639Y75794D01*
X95629Y75811D01*
X95620Y75831D01*
X95612Y75854D01*
X95606Y75880D01*
X95685Y75887D01*
Y75886D01*
X95685Y75885D01*
X95686Y75879D01*
X95689Y75871D01*
X95693Y75861D01*
X95697Y75850D01*
X95702Y75839D01*
X95709Y75829D01*
X95715Y75820D01*
X95717Y75818D01*
X95721Y75815D01*
X95727Y75809D01*
X95736Y75803D01*
X95748Y75797D01*
X95761Y75792D01*
X95777Y75788D01*
X95794Y75786D01*
X95800D01*
X95808Y75787D01*
X95816Y75789D01*
X95827Y75792D01*
X95838Y75795D01*
X95849Y75800D01*
X95860Y75807D01*
X95862Y75808D01*
X95867Y75812D01*
X95873Y75818D01*
X95881Y75828D01*
X95891Y75839D01*
X95901Y75852D01*
X95910Y75868D01*
X95919Y75887D01*
Y75888D01*
X95920Y75890D01*
X95921Y75892D01*
X95923Y75896D01*
X95924Y75902D01*
X95926Y75908D01*
X95928Y75915D01*
X95930Y75925D01*
X95932Y75935D01*
X95934Y75946D01*
X95936Y75958D01*
X95937Y75971D01*
X95939Y75986D01*
X95940Y76001D01*
X95941Y76017D01*
Y76034D01*
X95940Y76033D01*
X95936Y76027D01*
X95930Y76020D01*
X95921Y76011D01*
X95912Y76000D01*
X95900Y75989D01*
X95887Y75979D01*
X95872Y75970D01*
X95871D01*
X95870Y75969D01*
X95865Y75966D01*
X95857Y75964D01*
X95845Y75959D01*
X95832Y75955D01*
X95818Y75952D01*
X95802Y75950D01*
X95785Y75949D01*
X95778D01*
X95772Y75950D01*
X95765Y75951D01*
X95758Y75952D01*
X95748Y75953D01*
X95739Y75956D01*
X95718Y75963D01*
X95707Y75967D01*
X95696Y75974D01*
X95685Y75980D01*
X95673Y75988D01*
X95661Y75997D01*
X95651Y76007D01*
X95650Y76008D01*
X95648Y76010D01*
X95646Y76013D01*
X95643Y76017D01*
X95638Y76024D01*
X95634Y76030D01*
X95629Y76038D01*
X95624Y76048D01*
X95618Y76058D01*
X95613Y76069D01*
X95609Y76082D01*
X95604Y76095D01*
X95601Y76109D01*
X95599Y76124D01*
X95597Y76140D01*
X95596Y76157D01*
Y76158D01*
Y76160D01*
Y76162D01*
Y76167D01*
X95597Y76173D01*
Y76178D01*
X95599Y76193D01*
X95602Y76210D01*
X95607Y76229D01*
X95613Y76249D01*
X95623Y76269D01*
Y76270D01*
X95624Y76271D01*
X95625Y76273D01*
X95627Y76277D01*
X95633Y76286D01*
X95641Y76298D01*
X95651Y76311D01*
X95663Y76324D01*
X95678Y76337D01*
X95694Y76348D01*
X95695D01*
X95696Y76349D01*
X95698Y76351D01*
X95702Y76352D01*
X95711Y76357D01*
X95723Y76361D01*
X95739Y76367D01*
X95757Y76370D01*
X95776Y76374D01*
X95797Y76375D01*
X95802D01*
X95807Y76374D01*
D02*
G37*
G36*
X95826Y30774D02*
X95833Y30773D01*
X95842Y30772D01*
X95851Y30770D01*
X95861Y30769D01*
X95883Y30763D01*
X95906Y30754D01*
X95918Y30748D01*
X95930Y30742D01*
X95941Y30733D01*
X95952Y30725D01*
X95953Y30724D01*
X95955Y30722D01*
X95957Y30720D01*
X95960Y30716D01*
X95965Y30711D01*
X95969Y30705D01*
X95975Y30698D01*
X95980Y30690D01*
X95986Y30681D01*
X95992Y30671D01*
X96002Y30649D01*
X96010Y30623D01*
X96013Y30610D01*
X96015Y30595D01*
X95936Y30585D01*
Y30585D01*
X95935Y30587D01*
X95934Y30591D01*
X95933Y30596D01*
X95932Y30601D01*
X95930Y30608D01*
X95926Y30622D01*
X95919Y30638D01*
X95911Y30654D01*
X95902Y30669D01*
X95891Y30682D01*
X95889Y30683D01*
X95885Y30686D01*
X95878Y30691D01*
X95869Y30695D01*
X95857Y30701D01*
X95844Y30706D01*
X95828Y30709D01*
X95811Y30710D01*
X95806D01*
X95802Y30709D01*
X95792Y30708D01*
X95779Y30706D01*
X95764Y30701D01*
X95748Y30695D01*
X95733Y30685D01*
X95718Y30672D01*
X95716Y30671D01*
X95711Y30665D01*
X95706Y30657D01*
X95698Y30646D01*
X95691Y30632D01*
X95685Y30616D01*
X95681Y30597D01*
X95679Y30577D01*
Y30576D01*
Y30574D01*
Y30572D01*
X95680Y30568D01*
X95681Y30558D01*
X95684Y30546D01*
X95687Y30531D01*
X95694Y30516D01*
X95703Y30501D01*
X95715Y30487D01*
X95717Y30486D01*
X95722Y30482D01*
X95729Y30476D01*
X95739Y30470D01*
X95752Y30463D01*
X95768Y30458D01*
X95785Y30454D01*
X95805Y30452D01*
X95813D01*
X95820Y30453D01*
X95828Y30454D01*
X95837Y30456D01*
X95848Y30458D01*
X95860Y30461D01*
X95851Y30391D01*
X95846D01*
X95843Y30392D01*
X95831D01*
X95820Y30390D01*
X95808Y30389D01*
X95795Y30386D01*
X95779Y30381D01*
X95764Y30375D01*
X95748Y30366D01*
X95747D01*
X95746Y30365D01*
X95742Y30362D01*
X95735Y30355D01*
X95728Y30347D01*
X95721Y30335D01*
X95714Y30321D01*
X95710Y30305D01*
X95708Y30296D01*
Y30286D01*
Y30285D01*
Y30284D01*
Y30279D01*
X95710Y30271D01*
X95711Y30261D01*
X95715Y30250D01*
X95720Y30238D01*
X95727Y30226D01*
X95737Y30215D01*
X95738Y30214D01*
X95743Y30210D01*
X95749Y30205D01*
X95758Y30200D01*
X95769Y30195D01*
X95782Y30191D01*
X95796Y30187D01*
X95813Y30186D01*
X95820D01*
X95829Y30188D01*
X95840Y30190D01*
X95852Y30193D01*
X95864Y30198D01*
X95877Y30205D01*
X95889Y30215D01*
X95890Y30216D01*
X95894Y30220D01*
X95899Y30227D01*
X95906Y30236D01*
X95912Y30248D01*
X95918Y30263D01*
X95924Y30280D01*
X95928Y30301D01*
X96006Y30287D01*
Y30286D01*
X96005Y30283D01*
X96004Y30279D01*
X96004Y30274D01*
X96002Y30267D01*
X95999Y30260D01*
X95993Y30242D01*
X95984Y30222D01*
X95973Y30202D01*
X95959Y30182D01*
X95942Y30165D01*
X95941Y30164D01*
X95939Y30163D01*
X95936Y30161D01*
X95932Y30158D01*
X95928Y30155D01*
X95921Y30151D01*
X95915Y30147D01*
X95906Y30143D01*
X95888Y30135D01*
X95867Y30128D01*
X95842Y30123D01*
X95829Y30121D01*
X95806D01*
X95796Y30122D01*
X95783Y30124D01*
X95769Y30127D01*
X95752Y30132D01*
X95735Y30137D01*
X95719Y30144D01*
X95718D01*
X95717Y30145D01*
X95711Y30148D01*
X95703Y30154D01*
X95694Y30160D01*
X95683Y30169D01*
X95672Y30180D01*
X95661Y30192D01*
X95651Y30205D01*
X95650Y30207D01*
X95648Y30212D01*
X95644Y30220D01*
X95639Y30230D01*
X95635Y30242D01*
X95631Y30256D01*
X95628Y30272D01*
X95627Y30288D01*
Y30290D01*
Y30295D01*
X95628Y30303D01*
X95630Y30313D01*
X95633Y30325D01*
X95637Y30338D01*
X95643Y30351D01*
X95650Y30364D01*
X95651Y30365D01*
X95654Y30369D01*
X95660Y30376D01*
X95667Y30383D01*
X95676Y30391D01*
X95687Y30401D01*
X95700Y30409D01*
X95716Y30417D01*
X95715D01*
X95713Y30418D01*
X95710Y30419D01*
X95707Y30420D01*
X95697Y30424D01*
X95684Y30429D01*
X95669Y30437D01*
X95654Y30446D01*
X95640Y30458D01*
X95627Y30472D01*
X95626Y30474D01*
X95623Y30479D01*
X95617Y30488D01*
X95612Y30500D01*
X95606Y30515D01*
X95600Y30533D01*
X95597Y30553D01*
X95596Y30575D01*
Y30576D01*
Y30579D01*
Y30584D01*
X95597Y30589D01*
X95598Y30597D01*
X95599Y30605D01*
X95601Y30614D01*
X95603Y30624D01*
X95611Y30646D01*
X95616Y30659D01*
X95622Y30670D01*
X95629Y30682D01*
X95637Y30694D01*
X95647Y30706D01*
X95658Y30717D01*
X95659Y30718D01*
X95661Y30720D01*
X95664Y30722D01*
X95669Y30726D01*
X95674Y30731D01*
X95682Y30735D01*
X95690Y30741D01*
X95700Y30745D01*
X95710Y30751D01*
X95722Y30757D01*
X95734Y30761D01*
X95748Y30766D01*
X95763Y30769D01*
X95779Y30772D01*
X95795Y30774D01*
X95812Y30775D01*
X95820D01*
X95826Y30774D01*
D02*
G37*
G36*
X97125Y30124D02*
X96828D01*
X96821Y30125D01*
X96813D01*
X96793Y30126D01*
X96773Y30129D01*
X96751Y30132D01*
X96730Y30136D01*
X96720Y30139D01*
X96712Y30142D01*
X96711D01*
X96710Y30143D01*
X96704Y30145D01*
X96696Y30149D01*
X96686Y30156D01*
X96675Y30164D01*
X96663Y30175D01*
X96652Y30188D01*
X96641Y30203D01*
Y30204D01*
X96640Y30205D01*
X96636Y30210D01*
X96632Y30219D01*
X96627Y30231D01*
X96622Y30245D01*
X96617Y30262D01*
X96615Y30279D01*
X96614Y30299D01*
Y30300D01*
Y30302D01*
Y30305D01*
X96615Y30310D01*
Y30316D01*
X96616Y30323D01*
X96619Y30339D01*
X96625Y30357D01*
X96632Y30377D01*
X96643Y30396D01*
X96651Y30405D01*
X96658Y30414D01*
X96659Y30415D01*
X96660Y30416D01*
X96663Y30419D01*
X96666Y30422D01*
X96671Y30426D01*
X96677Y30429D01*
X96684Y30434D01*
X96691Y30439D01*
X96701Y30444D01*
X96711Y30449D01*
X96722Y30454D01*
X96734Y30459D01*
X96748Y30463D01*
X96762Y30467D01*
X96777Y30470D01*
X96794Y30473D01*
X96792Y30474D01*
X96788Y30475D01*
X96783Y30479D01*
X96776Y30483D01*
X96759Y30493D01*
X96751Y30499D01*
X96743Y30505D01*
X96741Y30507D01*
X96737Y30512D01*
X96729Y30519D01*
X96720Y30528D01*
X96710Y30541D01*
X96698Y30555D01*
X96686Y30572D01*
X96673Y30590D01*
X96563Y30764D01*
X96668D01*
X96752Y30631D01*
Y30630D01*
X96754Y30628D01*
X96756Y30625D01*
X96759Y30622D01*
X96765Y30611D01*
X96774Y30598D01*
X96784Y30585D01*
X96794Y30570D01*
X96804Y30556D01*
X96813Y30543D01*
X96814Y30542D01*
X96817Y30538D01*
X96822Y30533D01*
X96828Y30526D01*
X96842Y30512D01*
X96849Y30506D01*
X96857Y30500D01*
X96858Y30499D01*
X96860Y30499D01*
X96863Y30497D01*
X96869Y30494D01*
X96874Y30491D01*
X96881Y30488D01*
X96896Y30484D01*
X96897D01*
X96898Y30483D01*
X96902D01*
X96907Y30482D01*
X96913Y30481D01*
X96921D01*
X96931Y30480D01*
X97040D01*
Y30764D01*
X97125D01*
Y30124D01*
D02*
G37*
G36*
X96304Y30774D02*
X96311D01*
X96320Y30773D01*
X96329Y30771D01*
X96340Y30769D01*
X96351Y30766D01*
X96364Y30762D01*
X96377Y30757D01*
X96390Y30752D01*
X96404Y30744D01*
X96417Y30736D01*
X96430Y30727D01*
X96443Y30716D01*
X96455Y30703D01*
X96456Y30702D01*
X96457Y30699D01*
X96460Y30695D01*
X96464Y30689D01*
X96469Y30681D01*
X96474Y30671D01*
X96480Y30659D01*
X96485Y30646D01*
X96492Y30631D01*
X96497Y30613D01*
X96502Y30594D01*
X96506Y30573D01*
X96511Y30548D01*
X96514Y30523D01*
X96516Y30495D01*
X96517Y30465D01*
Y30464D01*
Y30463D01*
Y30461D01*
Y30457D01*
X96516Y30448D01*
Y30435D01*
X96515Y30420D01*
X96513Y30402D01*
X96511Y30383D01*
X96508Y30362D01*
X96505Y30340D01*
X96500Y30317D01*
X96494Y30295D01*
X96488Y30273D01*
X96480Y30252D01*
X96470Y30231D01*
X96460Y30212D01*
X96448Y30195D01*
X96447Y30194D01*
X96445Y30193D01*
X96442Y30189D01*
X96437Y30183D01*
X96432Y30178D01*
X96424Y30172D01*
X96415Y30165D01*
X96406Y30158D01*
X96395Y30152D01*
X96383Y30144D01*
X96369Y30139D01*
X96355Y30132D01*
X96339Y30128D01*
X96322Y30124D01*
X96305Y30122D01*
X96286Y30121D01*
X96279D01*
X96273Y30122D01*
X96267D01*
X96260Y30123D01*
X96242Y30127D01*
X96223Y30132D01*
X96202Y30139D01*
X96182Y30150D01*
X96172Y30156D01*
X96163Y30164D01*
X96162Y30165D01*
X96161Y30166D01*
X96158Y30169D01*
X96155Y30171D01*
X96151Y30176D01*
X96147Y30181D01*
X96137Y30194D01*
X96126Y30211D01*
X96117Y30231D01*
X96109Y30254D01*
X96103Y30280D01*
X96182Y30287D01*
Y30286D01*
X96183Y30285D01*
X96184Y30279D01*
X96187Y30271D01*
X96190Y30261D01*
X96194Y30250D01*
X96200Y30239D01*
X96206Y30229D01*
X96212Y30220D01*
X96214Y30218D01*
X96218Y30215D01*
X96224Y30209D01*
X96234Y30203D01*
X96246Y30197D01*
X96259Y30192D01*
X96274Y30188D01*
X96291Y30186D01*
X96298D01*
X96305Y30187D01*
X96313Y30189D01*
X96324Y30192D01*
X96335Y30195D01*
X96347Y30200D01*
X96358Y30207D01*
X96359Y30208D01*
X96364Y30212D01*
X96371Y30218D01*
X96379Y30228D01*
X96388Y30239D01*
X96398Y30252D01*
X96408Y30268D01*
X96417Y30287D01*
Y30288D01*
X96418Y30290D01*
X96419Y30292D01*
X96421Y30296D01*
X96421Y30302D01*
X96423Y30308D01*
X96425Y30316D01*
X96427Y30325D01*
X96430Y30335D01*
X96432Y30346D01*
X96433Y30358D01*
X96434Y30371D01*
X96436Y30386D01*
X96437Y30401D01*
X96438Y30417D01*
Y30434D01*
X96437Y30433D01*
X96433Y30427D01*
X96427Y30420D01*
X96419Y30411D01*
X96409Y30400D01*
X96397Y30389D01*
X96384Y30379D01*
X96370Y30370D01*
X96369D01*
X96368Y30369D01*
X96362Y30366D01*
X96354Y30364D01*
X96343Y30359D01*
X96330Y30355D01*
X96315Y30352D01*
X96299Y30350D01*
X96283Y30349D01*
X96275D01*
X96270Y30350D01*
X96262Y30351D01*
X96255Y30352D01*
X96246Y30353D01*
X96237Y30356D01*
X96215Y30363D01*
X96204Y30367D01*
X96193Y30374D01*
X96182Y30380D01*
X96170Y30388D01*
X96159Y30397D01*
X96149Y30407D01*
X96148Y30408D01*
X96146Y30410D01*
X96143Y30413D01*
X96140Y30417D01*
X96136Y30424D01*
X96131Y30430D01*
X96126Y30438D01*
X96121Y30448D01*
X96115Y30458D01*
X96111Y30469D01*
X96106Y30482D01*
X96102Y30495D01*
X96099Y30509D01*
X96096Y30524D01*
X96094Y30540D01*
X96093Y30557D01*
Y30558D01*
Y30560D01*
Y30562D01*
Y30567D01*
X96094Y30573D01*
Y30578D01*
X96097Y30593D01*
X96100Y30610D01*
X96104Y30629D01*
X96111Y30649D01*
X96120Y30669D01*
Y30670D01*
X96121Y30671D01*
X96123Y30673D01*
X96125Y30677D01*
X96130Y30686D01*
X96139Y30698D01*
X96149Y30711D01*
X96161Y30724D01*
X96175Y30737D01*
X96191Y30748D01*
X96192D01*
X96193Y30749D01*
X96196Y30751D01*
X96200Y30752D01*
X96209Y30757D01*
X96221Y30761D01*
X96237Y30767D01*
X96254Y30770D01*
X96273Y30774D01*
X96295Y30775D01*
X96299D01*
X96304Y30774D01*
D02*
G37*
G36*
X96484Y124624D02*
X96490Y124624D01*
X96497Y124623D01*
X96504Y124621D01*
X96512Y124620D01*
X96530Y124615D01*
X96548Y124608D01*
X96558Y124604D01*
X96567Y124598D01*
X96576Y124592D01*
X96585Y124585D01*
X96585Y124584D01*
X96587Y124583D01*
X96589Y124581D01*
X96591Y124578D01*
X96595Y124574D01*
X96599Y124569D01*
X96603Y124564D01*
X96608Y124557D01*
X96612Y124550D01*
X96616Y124542D01*
X96625Y124524D01*
X96631Y124504D01*
X96633Y124493D01*
X96635Y124481D01*
X96572Y124473D01*
Y124473D01*
X96571Y124475D01*
X96571Y124478D01*
X96570Y124482D01*
X96569Y124486D01*
X96568Y124491D01*
X96564Y124502D01*
X96559Y124516D01*
X96552Y124528D01*
X96545Y124540D01*
X96536Y124550D01*
X96534Y124551D01*
X96531Y124554D01*
X96526Y124558D01*
X96518Y124561D01*
X96509Y124566D01*
X96498Y124570D01*
X96486Y124573D01*
X96472Y124573D01*
X96468D01*
X96465Y124573D01*
X96457Y124572D01*
X96446Y124570D01*
X96435Y124566D01*
X96422Y124561D01*
X96410Y124553D01*
X96398Y124543D01*
X96396Y124541D01*
X96393Y124537D01*
X96388Y124530D01*
X96382Y124522D01*
X96376Y124510D01*
X96372Y124498D01*
X96368Y124483D01*
X96367Y124467D01*
Y124466D01*
Y124465D01*
Y124462D01*
X96367Y124459D01*
X96368Y124451D01*
X96370Y124442D01*
X96373Y124430D01*
X96378Y124418D01*
X96386Y124406D01*
X96395Y124395D01*
X96397Y124394D01*
X96401Y124391D01*
X96407Y124386D01*
X96415Y124381D01*
X96425Y124376D01*
X96438Y124371D01*
X96452Y124369D01*
X96467Y124367D01*
X96474D01*
X96479Y124368D01*
X96486Y124369D01*
X96493Y124370D01*
X96502Y124371D01*
X96512Y124374D01*
X96504Y124318D01*
X96500D01*
X96497Y124319D01*
X96488D01*
X96480Y124318D01*
X96470Y124316D01*
X96459Y124314D01*
X96446Y124310D01*
X96435Y124305D01*
X96422Y124298D01*
X96421D01*
X96421Y124298D01*
X96417Y124295D01*
X96412Y124289D01*
X96406Y124283D01*
X96400Y124273D01*
X96395Y124262D01*
X96391Y124250D01*
X96390Y124242D01*
Y124234D01*
Y124233D01*
Y124233D01*
Y124228D01*
X96391Y124222D01*
X96393Y124214D01*
X96395Y124205D01*
X96399Y124196D01*
X96405Y124186D01*
X96413Y124177D01*
X96414Y124176D01*
X96418Y124173D01*
X96423Y124170D01*
X96429Y124165D01*
X96438Y124162D01*
X96449Y124158D01*
X96461Y124155D01*
X96474Y124154D01*
X96480D01*
X96486Y124156D01*
X96495Y124157D01*
X96505Y124160D01*
X96514Y124164D01*
X96525Y124170D01*
X96534Y124177D01*
X96535Y124178D01*
X96538Y124182D01*
X96543Y124187D01*
X96548Y124194D01*
X96553Y124204D01*
X96558Y124216D01*
X96563Y124230D01*
X96565Y124246D01*
X96628Y124235D01*
Y124234D01*
X96628Y124232D01*
X96627Y124229D01*
X96626Y124224D01*
X96625Y124219D01*
X96622Y124213D01*
X96618Y124199D01*
X96611Y124183D01*
X96602Y124167D01*
X96591Y124151D01*
X96577Y124137D01*
X96576Y124136D01*
X96574Y124136D01*
X96572Y124134D01*
X96569Y124132D01*
X96565Y124129D01*
X96560Y124126D01*
X96555Y124123D01*
X96548Y124119D01*
X96534Y124114D01*
X96517Y124108D01*
X96497Y124104D01*
X96486Y124102D01*
X96468D01*
X96460Y124103D01*
X96450Y124105D01*
X96438Y124107D01*
X96425Y124111D01*
X96412Y124115D01*
X96398Y124121D01*
X96398D01*
X96397Y124122D01*
X96393Y124124D01*
X96386Y124128D01*
X96378Y124133D01*
X96370Y124141D01*
X96361Y124149D01*
X96352Y124159D01*
X96344Y124170D01*
X96344Y124171D01*
X96342Y124175D01*
X96339Y124182D01*
X96335Y124190D01*
X96331Y124199D01*
X96328Y124210D01*
X96326Y124223D01*
X96325Y124235D01*
Y124237D01*
Y124241D01*
X96326Y124247D01*
X96327Y124255D01*
X96330Y124265D01*
X96333Y124275D01*
X96338Y124286D01*
X96344Y124296D01*
X96344Y124298D01*
X96347Y124301D01*
X96351Y124306D01*
X96357Y124312D01*
X96364Y124318D01*
X96373Y124326D01*
X96384Y124332D01*
X96396Y124339D01*
X96395D01*
X96394Y124340D01*
X96392Y124340D01*
X96389Y124341D01*
X96381Y124344D01*
X96370Y124349D01*
X96359Y124354D01*
X96347Y124362D01*
X96336Y124371D01*
X96325Y124383D01*
X96325Y124384D01*
X96322Y124388D01*
X96317Y124396D01*
X96313Y124405D01*
X96308Y124417D01*
X96304Y124431D01*
X96301Y124448D01*
X96300Y124465D01*
Y124466D01*
Y124468D01*
Y124472D01*
X96301Y124476D01*
X96302Y124482D01*
X96303Y124489D01*
X96305Y124496D01*
X96306Y124505D01*
X96312Y124522D01*
X96316Y124532D01*
X96321Y124541D01*
X96327Y124550D01*
X96333Y124560D01*
X96341Y124570D01*
X96350Y124578D01*
X96350Y124579D01*
X96352Y124581D01*
X96355Y124583D01*
X96359Y124586D01*
X96363Y124590D01*
X96369Y124593D01*
X96376Y124598D01*
X96384Y124601D01*
X96392Y124606D01*
X96401Y124610D01*
X96411Y124614D01*
X96422Y124618D01*
X96434Y124621D01*
X96446Y124623D01*
X96459Y124624D01*
X96473Y124625D01*
X96480D01*
X96484Y124624D01*
D02*
G37*
G36*
X97125Y124105D02*
X96888D01*
X96882Y124105D01*
X96875D01*
X96860Y124106D01*
X96843Y124108D01*
X96826Y124111D01*
X96809Y124114D01*
X96801Y124116D01*
X96795Y124119D01*
X96794D01*
X96793Y124119D01*
X96789Y124122D01*
X96782Y124125D01*
X96774Y124130D01*
X96765Y124136D01*
X96755Y124145D01*
X96747Y124156D01*
X96738Y124167D01*
Y124168D01*
X96737Y124169D01*
X96734Y124173D01*
X96731Y124181D01*
X96727Y124190D01*
X96723Y124201D01*
X96719Y124215D01*
X96717Y124229D01*
X96716Y124244D01*
Y124245D01*
Y124247D01*
Y124250D01*
X96717Y124253D01*
Y124258D01*
X96718Y124264D01*
X96721Y124276D01*
X96725Y124291D01*
X96731Y124306D01*
X96740Y124322D01*
X96746Y124329D01*
X96752Y124337D01*
X96752Y124337D01*
X96753Y124338D01*
X96755Y124340D01*
X96758Y124343D01*
X96762Y124346D01*
X96767Y124349D01*
X96772Y124352D01*
X96778Y124357D01*
X96786Y124360D01*
X96794Y124364D01*
X96803Y124369D01*
X96812Y124372D01*
X96823Y124375D01*
X96835Y124379D01*
X96847Y124381D01*
X96860Y124383D01*
X96859Y124384D01*
X96856Y124386D01*
X96852Y124388D01*
X96846Y124391D01*
X96832Y124400D01*
X96826Y124405D01*
X96820Y124409D01*
X96818Y124411D01*
X96815Y124414D01*
X96809Y124420D01*
X96801Y124428D01*
X96793Y124438D01*
X96784Y124449D01*
X96774Y124462D01*
X96764Y124477D01*
X96676Y124616D01*
X96760D01*
X96827Y124510D01*
Y124509D01*
X96829Y124507D01*
X96830Y124505D01*
X96832Y124502D01*
X96837Y124494D01*
X96844Y124484D01*
X96852Y124473D01*
X96860Y124461D01*
X96869Y124450D01*
X96876Y124439D01*
X96877Y124439D01*
X96879Y124436D01*
X96883Y124431D01*
X96888Y124426D01*
X96899Y124415D01*
X96905Y124410D01*
X96911Y124405D01*
X96911Y124405D01*
X96913Y124404D01*
X96916Y124403D01*
X96920Y124400D01*
X96925Y124398D01*
X96930Y124396D01*
X96942Y124392D01*
X96942D01*
X96944Y124391D01*
X96947D01*
X96951Y124391D01*
X96956Y124390D01*
X96962D01*
X96970Y124389D01*
X97057D01*
Y124616D01*
X97125D01*
Y124105D01*
D02*
G37*
G36*
X96247Y124615D02*
Y124612D01*
Y124608D01*
X96246Y124602D01*
X96245Y124595D01*
X96244Y124588D01*
X96242Y124581D01*
X96240Y124573D01*
Y124572D01*
X96239Y124571D01*
X96237Y124567D01*
X96234Y124560D01*
X96230Y124551D01*
X96224Y124541D01*
X96217Y124529D01*
X96208Y124517D01*
X96198Y124505D01*
Y124504D01*
X96197Y124503D01*
X96193Y124499D01*
X96186Y124492D01*
X96177Y124482D01*
X96166Y124471D01*
X96152Y124458D01*
X96135Y124443D01*
X96116Y124428D01*
X96115Y124427D01*
X96112Y124425D01*
X96108Y124421D01*
X96103Y124417D01*
X96096Y124411D01*
X96088Y124404D01*
X96080Y124397D01*
X96070Y124388D01*
X96052Y124371D01*
X96033Y124353D01*
X96024Y124344D01*
X96016Y124335D01*
X96009Y124327D01*
X96003Y124319D01*
Y124318D01*
X96002Y124318D01*
X96000Y124315D01*
X95999Y124312D01*
X95993Y124304D01*
X95987Y124295D01*
X95982Y124283D01*
X95977Y124270D01*
X95974Y124256D01*
X95973Y124243D01*
Y124242D01*
Y124241D01*
X95973Y124237D01*
X95974Y124230D01*
X95976Y124221D01*
X95979Y124211D01*
X95985Y124201D01*
X95991Y124190D01*
X96000Y124180D01*
X96002Y124179D01*
X96005Y124176D01*
X96010Y124172D01*
X96019Y124167D01*
X96029Y124162D01*
X96041Y124158D01*
X96055Y124155D01*
X96070Y124154D01*
X96075D01*
X96078Y124155D01*
X96087Y124156D01*
X96097Y124158D01*
X96108Y124161D01*
X96121Y124166D01*
X96132Y124173D01*
X96143Y124182D01*
X96145Y124183D01*
X96148Y124187D01*
X96152Y124193D01*
X96157Y124201D01*
X96162Y124212D01*
X96166Y124225D01*
X96169Y124240D01*
X96171Y124257D01*
X96235Y124250D01*
Y124250D01*
X96234Y124247D01*
Y124244D01*
X96234Y124238D01*
X96232Y124233D01*
X96231Y124226D01*
X96228Y124218D01*
X96226Y124210D01*
X96220Y124192D01*
X96211Y124174D01*
X96206Y124165D01*
X96200Y124156D01*
X96193Y124148D01*
X96186Y124141D01*
X96185Y124140D01*
X96183Y124139D01*
X96181Y124137D01*
X96177Y124135D01*
X96173Y124132D01*
X96168Y124129D01*
X96162Y124125D01*
X96155Y124122D01*
X96146Y124118D01*
X96138Y124114D01*
X96128Y124111D01*
X96118Y124108D01*
X96106Y124106D01*
X96095Y124104D01*
X96082Y124103D01*
X96069Y124102D01*
X96061D01*
X96056Y124103D01*
X96050Y124104D01*
X96043Y124105D01*
X96035Y124106D01*
X96027Y124108D01*
X96007Y124113D01*
X95988Y124120D01*
X95979Y124125D01*
X95969Y124130D01*
X95960Y124136D01*
X95952Y124144D01*
X95951Y124145D01*
X95950Y124145D01*
X95948Y124148D01*
X95945Y124151D01*
X95942Y124155D01*
X95938Y124160D01*
X95934Y124165D01*
X95930Y124172D01*
X95922Y124186D01*
X95915Y124204D01*
X95912Y124213D01*
X95911Y124223D01*
X95909Y124233D01*
X95908Y124244D01*
Y124246D01*
Y124250D01*
X95909Y124255D01*
X95910Y124264D01*
X95911Y124272D01*
X95914Y124283D01*
X95917Y124294D01*
X95922Y124305D01*
X95922Y124306D01*
X95924Y124310D01*
X95927Y124316D01*
X95931Y124324D01*
X95937Y124333D01*
X95945Y124344D01*
X95953Y124355D01*
X95964Y124368D01*
X95965Y124369D01*
X95969Y124374D01*
X95973Y124377D01*
X95976Y124381D01*
X95981Y124386D01*
X95987Y124391D01*
X95993Y124397D01*
X96000Y124404D01*
X96007Y124411D01*
X96016Y124420D01*
X96026Y124428D01*
X96036Y124437D01*
X96048Y124447D01*
X96060Y124457D01*
X96061Y124458D01*
X96062Y124459D01*
X96065Y124462D01*
X96069Y124465D01*
X96073Y124469D01*
X96078Y124473D01*
X96090Y124483D01*
X96103Y124494D01*
X96115Y124505D01*
X96125Y124515D01*
X96129Y124519D01*
X96133Y124522D01*
X96134Y124523D01*
X96136Y124525D01*
X96139Y124528D01*
X96143Y124533D01*
X96146Y124538D01*
X96151Y124543D01*
X96160Y124556D01*
X95908D01*
Y124616D01*
X96247D01*
Y124615D01*
D02*
G37*
G36*
X97125Y134874D02*
X96828D01*
X96821Y134875D01*
X96813D01*
X96793Y134876D01*
X96773Y134879D01*
X96751Y134882D01*
X96730Y134886D01*
X96720Y134889D01*
X96712Y134892D01*
X96711D01*
X96710Y134893D01*
X96704Y134895D01*
X96696Y134899D01*
X96686Y134906D01*
X96675Y134914D01*
X96663Y134925D01*
X96652Y134938D01*
X96641Y134953D01*
Y134954D01*
X96640Y134955D01*
X96636Y134960D01*
X96632Y134969D01*
X96627Y134981D01*
X96622Y134995D01*
X96617Y135012D01*
X96615Y135029D01*
X96614Y135049D01*
Y135050D01*
Y135052D01*
Y135055D01*
X96615Y135060D01*
Y135066D01*
X96616Y135073D01*
X96619Y135089D01*
X96625Y135107D01*
X96632Y135127D01*
X96643Y135146D01*
X96651Y135155D01*
X96658Y135164D01*
X96659Y135165D01*
X96660Y135166D01*
X96663Y135169D01*
X96666Y135172D01*
X96671Y135176D01*
X96677Y135179D01*
X96684Y135184D01*
X96691Y135189D01*
X96701Y135194D01*
X96711Y135199D01*
X96722Y135204D01*
X96734Y135209D01*
X96748Y135213D01*
X96762Y135217D01*
X96777Y135220D01*
X96794Y135223D01*
X96792Y135224D01*
X96788Y135225D01*
X96783Y135229D01*
X96776Y135233D01*
X96759Y135243D01*
X96751Y135249D01*
X96743Y135255D01*
X96741Y135257D01*
X96737Y135262D01*
X96729Y135269D01*
X96720Y135278D01*
X96710Y135291D01*
X96698Y135305D01*
X96686Y135322D01*
X96673Y135340D01*
X96563Y135514D01*
X96668D01*
X96752Y135381D01*
Y135380D01*
X96754Y135378D01*
X96756Y135375D01*
X96759Y135372D01*
X96765Y135361D01*
X96774Y135348D01*
X96784Y135335D01*
X96794Y135320D01*
X96804Y135306D01*
X96813Y135293D01*
X96814Y135292D01*
X96817Y135288D01*
X96822Y135283D01*
X96828Y135276D01*
X96842Y135262D01*
X96849Y135256D01*
X96857Y135250D01*
X96858Y135249D01*
X96860Y135249D01*
X96863Y135247D01*
X96869Y135244D01*
X96874Y135241D01*
X96881Y135238D01*
X96896Y135234D01*
X96897D01*
X96898Y135233D01*
X96902D01*
X96907Y135232D01*
X96913Y135231D01*
X96921D01*
X96931Y135230D01*
X97040D01*
Y135514D01*
X97125D01*
Y134874D01*
D02*
G37*
G36*
X96304Y135524D02*
X96311D01*
X96320Y135523D01*
X96329Y135521D01*
X96340Y135519D01*
X96351Y135516D01*
X96364Y135512D01*
X96377Y135507D01*
X96390Y135502D01*
X96404Y135495D01*
X96417Y135486D01*
X96430Y135477D01*
X96443Y135466D01*
X96455Y135453D01*
X96456Y135452D01*
X96457Y135449D01*
X96460Y135445D01*
X96464Y135439D01*
X96469Y135431D01*
X96474Y135421D01*
X96480Y135409D01*
X96485Y135396D01*
X96492Y135381D01*
X96497Y135363D01*
X96502Y135344D01*
X96506Y135323D01*
X96511Y135298D01*
X96514Y135273D01*
X96516Y135245D01*
X96517Y135215D01*
Y135214D01*
Y135213D01*
Y135211D01*
Y135207D01*
X96516Y135198D01*
Y135185D01*
X96515Y135170D01*
X96513Y135152D01*
X96511Y135133D01*
X96508Y135112D01*
X96505Y135090D01*
X96500Y135067D01*
X96494Y135045D01*
X96488Y135023D01*
X96480Y135002D01*
X96470Y134981D01*
X96460Y134962D01*
X96448Y134945D01*
X96447Y134944D01*
X96445Y134943D01*
X96442Y134939D01*
X96437Y134933D01*
X96432Y134928D01*
X96424Y134922D01*
X96415Y134915D01*
X96406Y134908D01*
X96395Y134902D01*
X96383Y134894D01*
X96369Y134889D01*
X96355Y134882D01*
X96339Y134878D01*
X96322Y134874D01*
X96305Y134872D01*
X96286Y134871D01*
X96279D01*
X96273Y134872D01*
X96267D01*
X96260Y134873D01*
X96242Y134877D01*
X96223Y134882D01*
X96202Y134889D01*
X96182Y134900D01*
X96172Y134906D01*
X96163Y134914D01*
X96162Y134915D01*
X96161Y134916D01*
X96158Y134919D01*
X96155Y134921D01*
X96151Y134926D01*
X96147Y134931D01*
X96137Y134944D01*
X96126Y134961D01*
X96117Y134981D01*
X96109Y135004D01*
X96103Y135030D01*
X96182Y135037D01*
Y135036D01*
X96183Y135035D01*
X96184Y135029D01*
X96187Y135021D01*
X96190Y135011D01*
X96194Y135000D01*
X96200Y134989D01*
X96206Y134979D01*
X96212Y134970D01*
X96214Y134968D01*
X96218Y134965D01*
X96224Y134959D01*
X96234Y134953D01*
X96246Y134947D01*
X96259Y134942D01*
X96274Y134938D01*
X96291Y134936D01*
X96298D01*
X96305Y134937D01*
X96313Y134939D01*
X96324Y134942D01*
X96335Y134945D01*
X96347Y134950D01*
X96358Y134957D01*
X96359Y134958D01*
X96364Y134962D01*
X96371Y134968D01*
X96379Y134978D01*
X96388Y134989D01*
X96398Y135002D01*
X96408Y135018D01*
X96417Y135037D01*
Y135038D01*
X96418Y135040D01*
X96419Y135042D01*
X96421Y135046D01*
X96421Y135052D01*
X96423Y135058D01*
X96425Y135066D01*
X96427Y135075D01*
X96430Y135085D01*
X96432Y135096D01*
X96433Y135108D01*
X96434Y135121D01*
X96436Y135136D01*
X96437Y135151D01*
X96438Y135167D01*
Y135184D01*
X96437Y135183D01*
X96433Y135177D01*
X96427Y135170D01*
X96419Y135161D01*
X96409Y135150D01*
X96397Y135139D01*
X96384Y135129D01*
X96370Y135120D01*
X96369D01*
X96368Y135119D01*
X96362Y135116D01*
X96354Y135114D01*
X96343Y135109D01*
X96330Y135105D01*
X96315Y135102D01*
X96299Y135100D01*
X96283Y135099D01*
X96275D01*
X96270Y135100D01*
X96262Y135101D01*
X96255Y135102D01*
X96246Y135103D01*
X96237Y135106D01*
X96215Y135113D01*
X96204Y135117D01*
X96193Y135124D01*
X96182Y135130D01*
X96170Y135138D01*
X96159Y135147D01*
X96149Y135157D01*
X96148Y135158D01*
X96146Y135160D01*
X96143Y135163D01*
X96140Y135167D01*
X96136Y135174D01*
X96131Y135180D01*
X96126Y135188D01*
X96121Y135198D01*
X96115Y135208D01*
X96111Y135219D01*
X96106Y135232D01*
X96102Y135245D01*
X96099Y135259D01*
X96096Y135274D01*
X96094Y135290D01*
X96093Y135307D01*
Y135308D01*
Y135310D01*
Y135312D01*
Y135317D01*
X96094Y135323D01*
Y135328D01*
X96097Y135343D01*
X96100Y135360D01*
X96104Y135379D01*
X96111Y135399D01*
X96120Y135419D01*
Y135420D01*
X96121Y135421D01*
X96123Y135423D01*
X96125Y135427D01*
X96130Y135436D01*
X96139Y135448D01*
X96149Y135461D01*
X96161Y135474D01*
X96175Y135487D01*
X96191Y135498D01*
X96192D01*
X96193Y135499D01*
X96196Y135501D01*
X96200Y135502D01*
X96209Y135507D01*
X96221Y135511D01*
X96237Y135517D01*
X96254Y135520D01*
X96273Y135524D01*
X96295Y135525D01*
X96299D01*
X96304Y135524D01*
D02*
G37*
G36*
X95764Y135360D02*
X96042D01*
Y135288D01*
X95749Y134874D01*
X95685D01*
Y135288D01*
X95599D01*
Y135360D01*
X95685D01*
Y135514D01*
X95764D01*
Y135360D01*
D02*
G37*
G36*
X95697Y170824D02*
X95702D01*
X95708Y170824D01*
X95722Y170821D01*
X95738Y170817D01*
X95754Y170811D01*
X95770Y170803D01*
X95778Y170798D01*
X95786Y170792D01*
X95786Y170791D01*
X95787Y170790D01*
X95789Y170788D01*
X95792Y170786D01*
X95795Y170782D01*
X95798Y170778D01*
X95806Y170767D01*
X95813Y170754D01*
X95820Y170738D01*
X95826Y170719D01*
X95831Y170698D01*
X95770Y170693D01*
Y170693D01*
X95769Y170695D01*
Y170696D01*
X95769Y170699D01*
X95766Y170707D01*
X95764Y170716D01*
X95760Y170727D01*
X95755Y170737D01*
X95749Y170747D01*
X95741Y170755D01*
X95741Y170756D01*
X95738Y170758D01*
X95732Y170761D01*
X95727Y170764D01*
X95718Y170767D01*
X95709Y170770D01*
X95698Y170773D01*
X95686Y170773D01*
X95681D01*
X95676Y170773D01*
X95669Y170772D01*
X95661Y170770D01*
X95653Y170768D01*
X95644Y170765D01*
X95636Y170761D01*
X95635Y170760D01*
X95632Y170758D01*
X95628Y170756D01*
X95623Y170751D01*
X95617Y170746D01*
X95611Y170740D01*
X95605Y170733D01*
X95599Y170725D01*
X95599Y170724D01*
X95597Y170721D01*
X95594Y170716D01*
X95591Y170709D01*
X95588Y170700D01*
X95584Y170690D01*
X95580Y170678D01*
X95577Y170665D01*
Y170664D01*
X95576Y170663D01*
Y170661D01*
X95575Y170658D01*
X95574Y170651D01*
X95571Y170641D01*
X95570Y170629D01*
X95568Y170617D01*
X95568Y170603D01*
X95567Y170588D01*
Y170587D01*
Y170585D01*
Y170581D01*
Y170575D01*
X95568Y170577D01*
X95571Y170580D01*
X95575Y170586D01*
X95580Y170593D01*
X95588Y170600D01*
X95596Y170608D01*
X95607Y170617D01*
X95619Y170624D01*
X95620Y170625D01*
X95625Y170627D01*
X95631Y170630D01*
X95639Y170633D01*
X95650Y170637D01*
X95662Y170639D01*
X95676Y170642D01*
X95690Y170642D01*
X95696D01*
X95700Y170642D01*
X95706Y170641D01*
X95712Y170640D01*
X95719Y170639D01*
X95727Y170637D01*
X95744Y170631D01*
X95752Y170628D01*
X95761Y170623D01*
X95771Y170618D01*
X95780Y170611D01*
X95789Y170605D01*
X95797Y170597D01*
X95798Y170596D01*
X95799Y170594D01*
X95800Y170592D01*
X95803Y170588D01*
X95807Y170583D01*
X95811Y170578D01*
X95815Y170571D01*
X95818Y170564D01*
X95823Y170556D01*
X95826Y170547D01*
X95830Y170537D01*
X95834Y170526D01*
X95837Y170515D01*
X95838Y170502D01*
X95840Y170489D01*
X95840Y170475D01*
Y170475D01*
Y170472D01*
Y170468D01*
X95840Y170463D01*
X95839Y170456D01*
X95838Y170448D01*
X95837Y170440D01*
X95834Y170430D01*
X95829Y170411D01*
X95826Y170401D01*
X95821Y170390D01*
X95816Y170379D01*
X95809Y170370D01*
X95803Y170359D01*
X95795Y170350D01*
X95794Y170350D01*
X95792Y170348D01*
X95790Y170346D01*
X95786Y170343D01*
X95782Y170339D01*
X95776Y170335D01*
X95770Y170331D01*
X95763Y170326D01*
X95755Y170322D01*
X95747Y170318D01*
X95727Y170310D01*
X95716Y170307D01*
X95704Y170305D01*
X95693Y170303D01*
X95680Y170302D01*
X95675D01*
X95671Y170303D01*
X95667D01*
X95662Y170304D01*
X95650Y170306D01*
X95636Y170309D01*
X95620Y170314D01*
X95605Y170321D01*
X95589Y170330D01*
X95588D01*
X95588Y170331D01*
X95585Y170333D01*
X95582Y170335D01*
X95575Y170341D01*
X95565Y170349D01*
X95556Y170360D01*
X95545Y170373D01*
X95535Y170389D01*
X95526Y170407D01*
Y170407D01*
X95526Y170409D01*
X95524Y170412D01*
X95523Y170416D01*
X95521Y170421D01*
X95519Y170427D01*
X95517Y170435D01*
X95515Y170443D01*
X95513Y170452D01*
X95511Y170464D01*
X95509Y170475D01*
X95508Y170488D01*
X95506Y170502D01*
X95505Y170517D01*
X95504Y170533D01*
Y170550D01*
Y170551D01*
Y170554D01*
Y170560D01*
Y170566D01*
X95505Y170574D01*
Y170584D01*
X95506Y170595D01*
X95507Y170606D01*
X95509Y170631D01*
X95513Y170658D01*
X95518Y170683D01*
X95522Y170696D01*
X95526Y170707D01*
Y170707D01*
X95526Y170709D01*
X95528Y170712D01*
X95529Y170716D01*
X95531Y170721D01*
X95534Y170727D01*
X95542Y170739D01*
X95551Y170753D01*
X95561Y170768D01*
X95574Y170782D01*
X95589Y170795D01*
X95590D01*
X95591Y170796D01*
X95594Y170798D01*
X95596Y170799D01*
X95601Y170801D01*
X95605Y170804D01*
X95611Y170807D01*
X95617Y170809D01*
X95631Y170815D01*
X95648Y170821D01*
X95667Y170824D01*
X95687Y170825D01*
X95693D01*
X95697Y170824D01*
D02*
G37*
G36*
X97125Y170305D02*
X96888D01*
X96882Y170305D01*
X96875D01*
X96860Y170306D01*
X96843Y170308D01*
X96826Y170311D01*
X96809Y170314D01*
X96801Y170316D01*
X96795Y170319D01*
X96794D01*
X96793Y170319D01*
X96789Y170322D01*
X96782Y170325D01*
X96774Y170330D01*
X96765Y170336D01*
X96755Y170345D01*
X96747Y170356D01*
X96738Y170367D01*
Y170368D01*
X96737Y170369D01*
X96734Y170373D01*
X96731Y170381D01*
X96727Y170390D01*
X96723Y170401D01*
X96719Y170415D01*
X96717Y170429D01*
X96716Y170444D01*
Y170445D01*
Y170447D01*
Y170450D01*
X96717Y170453D01*
Y170458D01*
X96718Y170464D01*
X96721Y170476D01*
X96725Y170491D01*
X96731Y170506D01*
X96740Y170522D01*
X96746Y170529D01*
X96752Y170537D01*
X96752Y170537D01*
X96753Y170538D01*
X96755Y170540D01*
X96758Y170543D01*
X96762Y170546D01*
X96767Y170549D01*
X96772Y170552D01*
X96778Y170557D01*
X96786Y170560D01*
X96794Y170564D01*
X96803Y170569D01*
X96812Y170572D01*
X96823Y170575D01*
X96835Y170579D01*
X96847Y170581D01*
X96860Y170583D01*
X96859Y170584D01*
X96856Y170586D01*
X96852Y170588D01*
X96846Y170591D01*
X96832Y170600D01*
X96826Y170605D01*
X96820Y170609D01*
X96818Y170611D01*
X96815Y170614D01*
X96809Y170620D01*
X96801Y170628D01*
X96793Y170638D01*
X96784Y170649D01*
X96774Y170662D01*
X96764Y170677D01*
X96676Y170816D01*
X96760D01*
X96827Y170710D01*
Y170709D01*
X96829Y170707D01*
X96830Y170705D01*
X96832Y170702D01*
X96837Y170694D01*
X96844Y170684D01*
X96852Y170673D01*
X96860Y170661D01*
X96869Y170650D01*
X96876Y170639D01*
X96877Y170639D01*
X96879Y170636D01*
X96883Y170631D01*
X96888Y170626D01*
X96899Y170615D01*
X96905Y170610D01*
X96911Y170605D01*
X96911Y170605D01*
X96913Y170604D01*
X96916Y170603D01*
X96920Y170600D01*
X96925Y170598D01*
X96930Y170596D01*
X96942Y170592D01*
X96942D01*
X96944Y170591D01*
X96947D01*
X96951Y170591D01*
X96956Y170590D01*
X96962D01*
X96970Y170589D01*
X97057D01*
Y170816D01*
X97125D01*
Y170305D01*
D02*
G37*
G36*
X96462Y170416D02*
X96463Y170417D01*
X96466Y170420D01*
X96471Y170424D01*
X96478Y170430D01*
X96486Y170436D01*
X96497Y170444D01*
X96509Y170452D01*
X96522Y170460D01*
X96523D01*
X96523Y170461D01*
X96528Y170464D01*
X96535Y170467D01*
X96544Y170472D01*
X96554Y170477D01*
X96565Y170482D01*
X96577Y170487D01*
X96588Y170492D01*
Y170431D01*
X96587D01*
X96585Y170430D01*
X96582Y170429D01*
X96579Y170427D01*
X96574Y170424D01*
X96569Y170421D01*
X96557Y170414D01*
X96542Y170406D01*
X96527Y170396D01*
X96512Y170384D01*
X96496Y170371D01*
X96495Y170370D01*
X96495Y170370D01*
X96492Y170367D01*
X96489Y170365D01*
X96483Y170358D01*
X96474Y170349D01*
X96465Y170339D01*
X96455Y170327D01*
X96447Y170315D01*
X96440Y170302D01*
X96399D01*
Y170816D01*
X96462D01*
Y170416D01*
D02*
G37*
G36*
X96084Y170824D02*
X96089Y170824D01*
X96097Y170822D01*
X96105Y170821D01*
X96114Y170818D01*
X96123Y170815D01*
X96132Y170812D01*
X96142Y170808D01*
X96152Y170803D01*
X96161Y170797D01*
X96171Y170790D01*
X96180Y170781D01*
X96188Y170773D01*
X96189Y170772D01*
X96190Y170770D01*
X96192Y170766D01*
X96196Y170760D01*
X96200Y170753D01*
X96203Y170744D01*
X96208Y170734D01*
X96213Y170722D01*
X96217Y170709D01*
X96222Y170693D01*
X96226Y170676D01*
X96230Y170657D01*
X96234Y170637D01*
X96236Y170614D01*
X96237Y170590D01*
X96238Y170564D01*
Y170563D01*
Y170560D01*
Y170555D01*
Y170549D01*
X96237Y170541D01*
Y170532D01*
X96237Y170523D01*
X96236Y170512D01*
X96234Y170489D01*
X96230Y170464D01*
X96225Y170440D01*
X96223Y170429D01*
X96220Y170418D01*
Y170417D01*
X96219Y170416D01*
X96217Y170413D01*
X96216Y170409D01*
X96214Y170404D01*
X96211Y170399D01*
X96206Y170386D01*
X96198Y170373D01*
X96189Y170359D01*
X96177Y170345D01*
X96164Y170333D01*
X96163D01*
X96163Y170331D01*
X96160Y170330D01*
X96157Y170328D01*
X96154Y170325D01*
X96149Y170323D01*
X96138Y170317D01*
X96125Y170312D01*
X96109Y170307D01*
X96091Y170304D01*
X96071Y170302D01*
X96064D01*
X96056Y170303D01*
X96047Y170305D01*
X96036Y170307D01*
X96024Y170310D01*
X96011Y170314D01*
X95999Y170319D01*
X95999D01*
X95998Y170320D01*
X95994Y170322D01*
X95988Y170326D01*
X95981Y170331D01*
X95973Y170339D01*
X95964Y170347D01*
X95956Y170356D01*
X95948Y170367D01*
X95947Y170369D01*
X95944Y170373D01*
X95941Y170379D01*
X95936Y170389D01*
X95931Y170400D01*
X95925Y170413D01*
X95920Y170427D01*
X95916Y170444D01*
Y170444D01*
X95915Y170446D01*
X95914Y170448D01*
X95914Y170452D01*
X95913Y170456D01*
X95912Y170461D01*
X95911Y170468D01*
X95910Y170475D01*
X95908Y170484D01*
X95908Y170492D01*
X95907Y170503D01*
X95905Y170513D01*
X95905Y170525D01*
Y170537D01*
X95904Y170550D01*
Y170564D01*
Y170565D01*
Y170568D01*
Y170573D01*
Y170579D01*
X95905Y170587D01*
Y170596D01*
X95905Y170605D01*
X95906Y170616D01*
X95908Y170639D01*
X95912Y170664D01*
X95917Y170688D01*
X95919Y170699D01*
X95923Y170710D01*
Y170710D01*
X95924Y170712D01*
X95925Y170715D01*
X95927Y170719D01*
X95928Y170724D01*
X95931Y170729D01*
X95937Y170741D01*
X95945Y170755D01*
X95954Y170770D01*
X95965Y170783D01*
X95979Y170795D01*
X95979D01*
X95980Y170797D01*
X95982Y170798D01*
X95985Y170800D01*
X95989Y170802D01*
X95993Y170805D01*
X96004Y170810D01*
X96017Y170815D01*
X96033Y170821D01*
X96051Y170824D01*
X96071Y170825D01*
X96078D01*
X96084Y170824D01*
D02*
G37*
G36*
X97125Y181574D02*
X96828D01*
X96821Y181575D01*
X96813D01*
X96793Y181576D01*
X96773Y181579D01*
X96751Y181582D01*
X96730Y181586D01*
X96720Y181589D01*
X96712Y181592D01*
X96711D01*
X96710Y181593D01*
X96704Y181595D01*
X96696Y181599D01*
X96686Y181606D01*
X96675Y181614D01*
X96663Y181625D01*
X96652Y181638D01*
X96641Y181653D01*
Y181654D01*
X96640Y181655D01*
X96636Y181660D01*
X96632Y181669D01*
X96627Y181681D01*
X96622Y181695D01*
X96617Y181712D01*
X96615Y181729D01*
X96614Y181749D01*
Y181750D01*
Y181752D01*
Y181755D01*
X96615Y181760D01*
Y181766D01*
X96616Y181773D01*
X96619Y181789D01*
X96625Y181807D01*
X96632Y181827D01*
X96643Y181846D01*
X96651Y181855D01*
X96658Y181864D01*
X96659Y181865D01*
X96660Y181866D01*
X96663Y181869D01*
X96666Y181872D01*
X96671Y181876D01*
X96677Y181879D01*
X96684Y181884D01*
X96691Y181889D01*
X96701Y181894D01*
X96711Y181899D01*
X96722Y181904D01*
X96734Y181909D01*
X96748Y181913D01*
X96762Y181917D01*
X96777Y181920D01*
X96794Y181923D01*
X96792Y181924D01*
X96788Y181925D01*
X96783Y181929D01*
X96776Y181933D01*
X96759Y181943D01*
X96751Y181949D01*
X96743Y181955D01*
X96741Y181957D01*
X96737Y181962D01*
X96729Y181969D01*
X96720Y181978D01*
X96710Y181991D01*
X96698Y182005D01*
X96686Y182022D01*
X96673Y182040D01*
X96563Y182214D01*
X96668D01*
X96752Y182081D01*
Y182080D01*
X96754Y182078D01*
X96756Y182075D01*
X96759Y182072D01*
X96765Y182061D01*
X96774Y182048D01*
X96784Y182035D01*
X96794Y182020D01*
X96804Y182006D01*
X96813Y181993D01*
X96814Y181992D01*
X96817Y181988D01*
X96822Y181983D01*
X96828Y181976D01*
X96842Y181962D01*
X96849Y181956D01*
X96857Y181950D01*
X96858Y181949D01*
X96860Y181949D01*
X96863Y181947D01*
X96869Y181944D01*
X96874Y181941D01*
X96881Y181938D01*
X96896Y181934D01*
X96897D01*
X96898Y181933D01*
X96902D01*
X96907Y181932D01*
X96913Y181931D01*
X96921D01*
X96931Y181930D01*
X97040D01*
Y182214D01*
X97125D01*
Y181574D01*
D02*
G37*
G36*
X96304Y182224D02*
X96311D01*
X96320Y182223D01*
X96329Y182221D01*
X96340Y182219D01*
X96351Y182216D01*
X96364Y182212D01*
X96377Y182207D01*
X96390Y182202D01*
X96404Y182195D01*
X96417Y182186D01*
X96430Y182177D01*
X96443Y182166D01*
X96455Y182153D01*
X96456Y182152D01*
X96457Y182149D01*
X96460Y182145D01*
X96464Y182139D01*
X96469Y182131D01*
X96474Y182121D01*
X96480Y182109D01*
X96485Y182096D01*
X96492Y182081D01*
X96497Y182063D01*
X96502Y182044D01*
X96506Y182023D01*
X96511Y181998D01*
X96514Y181973D01*
X96516Y181945D01*
X96517Y181915D01*
Y181914D01*
Y181913D01*
Y181911D01*
Y181907D01*
X96516Y181898D01*
Y181885D01*
X96515Y181870D01*
X96513Y181852D01*
X96511Y181833D01*
X96508Y181812D01*
X96505Y181790D01*
X96500Y181767D01*
X96494Y181745D01*
X96488Y181723D01*
X96480Y181702D01*
X96470Y181681D01*
X96460Y181662D01*
X96448Y181645D01*
X96447Y181644D01*
X96445Y181643D01*
X96442Y181639D01*
X96437Y181633D01*
X96432Y181628D01*
X96424Y181622D01*
X96415Y181615D01*
X96406Y181608D01*
X96395Y181602D01*
X96383Y181594D01*
X96369Y181589D01*
X96355Y181582D01*
X96339Y181578D01*
X96322Y181574D01*
X96305Y181572D01*
X96286Y181571D01*
X96279D01*
X96273Y181572D01*
X96267D01*
X96260Y181573D01*
X96242Y181577D01*
X96223Y181582D01*
X96202Y181589D01*
X96182Y181600D01*
X96172Y181606D01*
X96163Y181614D01*
X96162Y181615D01*
X96161Y181616D01*
X96158Y181618D01*
X96155Y181621D01*
X96151Y181626D01*
X96147Y181631D01*
X96137Y181644D01*
X96126Y181661D01*
X96117Y181681D01*
X96109Y181704D01*
X96103Y181730D01*
X96182Y181737D01*
Y181736D01*
X96183Y181735D01*
X96184Y181729D01*
X96187Y181721D01*
X96190Y181711D01*
X96194Y181700D01*
X96200Y181689D01*
X96206Y181679D01*
X96212Y181670D01*
X96214Y181668D01*
X96218Y181665D01*
X96224Y181659D01*
X96234Y181653D01*
X96246Y181647D01*
X96259Y181642D01*
X96274Y181638D01*
X96291Y181636D01*
X96298D01*
X96305Y181637D01*
X96313Y181639D01*
X96324Y181642D01*
X96335Y181645D01*
X96347Y181650D01*
X96358Y181657D01*
X96359Y181658D01*
X96364Y181662D01*
X96371Y181668D01*
X96379Y181678D01*
X96388Y181689D01*
X96398Y181702D01*
X96408Y181718D01*
X96417Y181737D01*
Y181738D01*
X96418Y181740D01*
X96419Y181742D01*
X96421Y181746D01*
X96421Y181752D01*
X96423Y181758D01*
X96425Y181766D01*
X96427Y181775D01*
X96430Y181785D01*
X96432Y181796D01*
X96433Y181808D01*
X96434Y181821D01*
X96436Y181836D01*
X96437Y181851D01*
X96438Y181867D01*
Y181884D01*
X96437Y181883D01*
X96433Y181877D01*
X96427Y181870D01*
X96419Y181861D01*
X96409Y181850D01*
X96397Y181839D01*
X96384Y181829D01*
X96370Y181820D01*
X96369D01*
X96368Y181819D01*
X96362Y181816D01*
X96354Y181814D01*
X96343Y181809D01*
X96330Y181805D01*
X96315Y181802D01*
X96299Y181800D01*
X96283Y181799D01*
X96275D01*
X96270Y181800D01*
X96262Y181801D01*
X96255Y181802D01*
X96246Y181803D01*
X96237Y181806D01*
X96215Y181813D01*
X96204Y181817D01*
X96193Y181824D01*
X96182Y181830D01*
X96170Y181838D01*
X96159Y181847D01*
X96149Y181857D01*
X96148Y181858D01*
X96146Y181860D01*
X96143Y181863D01*
X96140Y181867D01*
X96136Y181874D01*
X96131Y181880D01*
X96126Y181888D01*
X96121Y181898D01*
X96115Y181908D01*
X96111Y181919D01*
X96106Y181932D01*
X96102Y181945D01*
X96099Y181959D01*
X96096Y181974D01*
X96094Y181990D01*
X96093Y182007D01*
Y182008D01*
Y182010D01*
Y182012D01*
Y182017D01*
X96094Y182023D01*
Y182028D01*
X96097Y182043D01*
X96100Y182060D01*
X96104Y182079D01*
X96111Y182099D01*
X96120Y182119D01*
Y182120D01*
X96121Y182121D01*
X96123Y182123D01*
X96125Y182127D01*
X96130Y182136D01*
X96139Y182148D01*
X96149Y182161D01*
X96161Y182174D01*
X96175Y182187D01*
X96191Y182198D01*
X96192D01*
X96193Y182199D01*
X96196Y182201D01*
X96200Y182202D01*
X96209Y182207D01*
X96221Y182211D01*
X96237Y182217D01*
X96254Y182220D01*
X96273Y182224D01*
X96295Y182225D01*
X96299D01*
X96304Y182224D01*
D02*
G37*
G36*
X95920Y182213D02*
Y182210D01*
Y182207D01*
X95919Y182201D01*
Y182194D01*
X95918Y182184D01*
X95918Y182174D01*
X95917Y182163D01*
X95915Y182150D01*
X95913Y182137D01*
X95910Y182121D01*
X95907Y182106D01*
X95905Y182089D01*
X95901Y182071D01*
X95892Y182033D01*
Y182032D01*
X95891Y182028D01*
X95889Y182023D01*
X95886Y182014D01*
X95883Y182005D01*
X95880Y181994D01*
X95876Y181981D01*
X95870Y181967D01*
X95865Y181951D01*
X95859Y181936D01*
X95845Y181900D01*
X95829Y181864D01*
X95810Y181827D01*
X95809Y181826D01*
X95808Y181822D01*
X95805Y181817D01*
X95801Y181810D01*
X95796Y181802D01*
X95790Y181791D01*
X95783Y181780D01*
X95776Y181768D01*
X95759Y181741D01*
X95740Y181714D01*
X95719Y181685D01*
X95697Y181658D01*
X96010D01*
Y181582D01*
X95596D01*
Y181644D01*
X95597Y181645D01*
X95599Y181647D01*
X95602Y181651D01*
X95606Y181656D01*
X95612Y181663D01*
X95619Y181670D01*
X95626Y181680D01*
X95635Y181691D01*
X95643Y181702D01*
X95653Y181715D01*
X95663Y181729D01*
X95673Y181744D01*
X95685Y181761D01*
X95696Y181778D01*
X95707Y181798D01*
X95718Y181817D01*
X95719Y181818D01*
X95721Y181822D01*
X95723Y181827D01*
X95728Y181836D01*
X95733Y181846D01*
X95738Y181857D01*
X95745Y181870D01*
X95751Y181885D01*
X95759Y181901D01*
X95767Y181918D01*
X95774Y181937D01*
X95782Y181956D01*
X95796Y181996D01*
X95810Y182038D01*
Y182039D01*
X95811Y182042D01*
X95812Y182047D01*
X95814Y182052D01*
X95816Y182060D01*
X95818Y182069D01*
X95820Y182079D01*
X95822Y182090D01*
X95825Y182103D01*
X95828Y182117D01*
X95832Y182146D01*
X95837Y182179D01*
X95840Y182214D01*
X95920D01*
Y182213D01*
D02*
G37*
G36*
X127392Y53261D02*
X127400Y53260D01*
X127411Y53259D01*
X127421Y53258D01*
X127433Y53256D01*
X127458Y53250D01*
X127485Y53242D01*
X127499Y53236D01*
X127512Y53230D01*
X127525Y53221D01*
X127538Y53213D01*
X127539Y53212D01*
X127541Y53211D01*
X127545Y53208D01*
X127549Y53204D01*
X127554Y53199D01*
X127560Y53193D01*
X127567Y53185D01*
X127574Y53178D01*
X127582Y53169D01*
X127589Y53158D01*
X127597Y53146D01*
X127605Y53134D01*
X127611Y53121D01*
X127619Y53107D01*
X127624Y53092D01*
X127630Y53075D01*
X127547Y53056D01*
Y53057D01*
X127546Y53059D01*
X127544Y53062D01*
X127542Y53067D01*
X127540Y53072D01*
X127537Y53080D01*
X127530Y53095D01*
X127521Y53111D01*
X127510Y53128D01*
X127496Y53144D01*
X127481Y53158D01*
X127479Y53159D01*
X127473Y53163D01*
X127464Y53168D01*
X127452Y53174D01*
X127436Y53180D01*
X127419Y53185D01*
X127398Y53189D01*
X127375Y53190D01*
X127367D01*
X127363Y53189D01*
X127356D01*
X127349Y53188D01*
X127331Y53185D01*
X127312Y53182D01*
X127291Y53175D01*
X127270Y53166D01*
X127251Y53154D01*
X127250D01*
X127249Y53152D01*
X127242Y53147D01*
X127234Y53140D01*
X127224Y53129D01*
X127212Y53115D01*
X127201Y53099D01*
X127191Y53080D01*
X127181Y53059D01*
Y53058D01*
X127180Y53056D01*
X127179Y53053D01*
X127179Y53048D01*
X127177Y53043D01*
X127175Y53036D01*
X127172Y53021D01*
X127168Y53002D01*
X127165Y52982D01*
X127163Y52960D01*
X127162Y52936D01*
Y52935D01*
Y52932D01*
Y52927D01*
Y52922D01*
X127163Y52915D01*
Y52907D01*
X127164Y52898D01*
X127165Y52888D01*
X127167Y52865D01*
X127172Y52841D01*
X127178Y52817D01*
X127185Y52793D01*
Y52792D01*
X127186Y52790D01*
X127188Y52788D01*
X127190Y52783D01*
X127195Y52772D01*
X127203Y52759D01*
X127214Y52744D01*
X127227Y52729D01*
X127241Y52715D01*
X127259Y52702D01*
X127260D01*
X127262Y52701D01*
X127265Y52699D01*
X127268Y52697D01*
X127273Y52695D01*
X127278Y52692D01*
X127291Y52687D01*
X127308Y52681D01*
X127326Y52677D01*
X127347Y52673D01*
X127368Y52672D01*
X127375D01*
X127380Y52673D01*
X127387D01*
X127393Y52674D01*
X127410Y52678D01*
X127429Y52682D01*
X127449Y52690D01*
X127469Y52700D01*
X127479Y52705D01*
X127488Y52713D01*
X127489Y52714D01*
X127490Y52715D01*
X127493Y52717D01*
X127497Y52720D01*
X127500Y52725D01*
X127505Y52730D01*
X127510Y52736D01*
X127515Y52743D01*
X127521Y52752D01*
X127527Y52761D01*
X127533Y52770D01*
X127538Y52781D01*
X127543Y52793D01*
X127547Y52806D01*
X127552Y52820D01*
X127556Y52835D01*
X127641Y52814D01*
Y52813D01*
X127640Y52809D01*
X127638Y52803D01*
X127635Y52796D01*
X127632Y52788D01*
X127629Y52778D01*
X127624Y52766D01*
X127619Y52754D01*
X127606Y52729D01*
X127589Y52703D01*
X127579Y52690D01*
X127569Y52677D01*
X127558Y52666D01*
X127545Y52655D01*
X127544Y52654D01*
X127542Y52652D01*
X127537Y52650D01*
X127533Y52646D01*
X127525Y52642D01*
X127518Y52637D01*
X127508Y52632D01*
X127498Y52628D01*
X127485Y52622D01*
X127473Y52618D01*
X127459Y52613D01*
X127444Y52608D01*
X127428Y52605D01*
X127412Y52603D01*
X127394Y52601D01*
X127375Y52600D01*
X127365D01*
X127358Y52601D01*
X127350D01*
X127339Y52602D01*
X127328Y52604D01*
X127315Y52606D01*
X127289Y52610D01*
X127261Y52618D01*
X127233Y52628D01*
X127220Y52634D01*
X127207Y52642D01*
X127206Y52643D01*
X127204Y52643D01*
X127201Y52646D01*
X127197Y52650D01*
X127191Y52654D01*
X127185Y52659D01*
X127178Y52666D01*
X127170Y52673D01*
X127163Y52681D01*
X127155Y52690D01*
X127138Y52711D01*
X127122Y52736D01*
X127108Y52764D01*
Y52765D01*
X127106Y52767D01*
X127105Y52772D01*
X127103Y52778D01*
X127101Y52785D01*
X127098Y52794D01*
X127094Y52804D01*
X127092Y52815D01*
X127089Y52827D01*
X127085Y52841D01*
X127081Y52870D01*
X127077Y52902D01*
X127075Y52936D01*
Y52937D01*
Y52940D01*
Y52946D01*
X127076Y52952D01*
Y52961D01*
X127077Y52971D01*
X127078Y52983D01*
X127080Y52995D01*
X127084Y53022D01*
X127091Y53051D01*
X127100Y53081D01*
X127113Y53109D01*
X127114Y53110D01*
X127115Y53113D01*
X127117Y53117D01*
X127120Y53121D01*
X127124Y53128D01*
X127129Y53135D01*
X127141Y53152D01*
X127156Y53170D01*
X127175Y53189D01*
X127196Y53207D01*
X127221Y53223D01*
X127222Y53224D01*
X127225Y53225D01*
X127228Y53227D01*
X127233Y53230D01*
X127240Y53232D01*
X127248Y53235D01*
X127257Y53239D01*
X127267Y53243D01*
X127278Y53246D01*
X127290Y53250D01*
X127316Y53256D01*
X127346Y53260D01*
X127376Y53262D01*
X127386D01*
X127392Y53261D01*
D02*
G37*
G36*
X127933Y53253D02*
X127945Y53251D01*
X127960Y53248D01*
X127976Y53243D01*
X127993Y53238D01*
X128010Y53231D01*
X128011D01*
X128012Y53230D01*
X128017Y53227D01*
X128025Y53221D01*
X128035Y53215D01*
X128046Y53206D01*
X128057Y53195D01*
X128068Y53183D01*
X128077Y53170D01*
X128078Y53168D01*
X128081Y53163D01*
X128085Y53155D01*
X128089Y53145D01*
X128094Y53133D01*
X128098Y53119D01*
X128100Y53103D01*
X128101Y53087D01*
Y53085D01*
Y53080D01*
X128100Y53072D01*
X128098Y53062D01*
X128096Y53050D01*
X128091Y53037D01*
X128086Y53024D01*
X128078Y53011D01*
X128077Y53010D01*
X128074Y53006D01*
X128069Y52999D01*
X128061Y52992D01*
X128052Y52984D01*
X128041Y52974D01*
X128028Y52966D01*
X128012Y52958D01*
X128013D01*
X128015Y52957D01*
X128018Y52956D01*
X128022Y52955D01*
X128032Y52951D01*
X128045Y52946D01*
X128060Y52938D01*
X128074Y52929D01*
X128088Y52917D01*
X128101Y52903D01*
X128102Y52901D01*
X128106Y52896D01*
X128111Y52887D01*
X128117Y52875D01*
X128123Y52860D01*
X128128Y52842D01*
X128132Y52822D01*
X128133Y52800D01*
Y52799D01*
Y52796D01*
Y52791D01*
X128132Y52786D01*
X128131Y52778D01*
X128129Y52770D01*
X128127Y52761D01*
X128125Y52751D01*
X128118Y52729D01*
X128112Y52716D01*
X128107Y52705D01*
X128099Y52693D01*
X128091Y52681D01*
X128082Y52669D01*
X128071Y52658D01*
X128070Y52657D01*
X128068Y52655D01*
X128064Y52653D01*
X128060Y52649D01*
X128054Y52644D01*
X128047Y52640D01*
X128038Y52634D01*
X128028Y52630D01*
X128018Y52624D01*
X128006Y52618D01*
X127994Y52614D01*
X127980Y52609D01*
X127965Y52606D01*
X127950Y52603D01*
X127934Y52601D01*
X127916Y52600D01*
X127908D01*
X127902Y52601D01*
X127895Y52602D01*
X127887Y52603D01*
X127878Y52605D01*
X127867Y52606D01*
X127845Y52612D01*
X127822Y52621D01*
X127810Y52627D01*
X127799Y52633D01*
X127788Y52642D01*
X127777Y52650D01*
X127776Y52651D01*
X127774Y52653D01*
X127771Y52655D01*
X127768Y52659D01*
X127764Y52664D01*
X127759Y52670D01*
X127754Y52677D01*
X127748Y52685D01*
X127743Y52694D01*
X127737Y52704D01*
X127727Y52726D01*
X127718Y52752D01*
X127716Y52765D01*
X127714Y52780D01*
X127792Y52790D01*
Y52790D01*
X127793Y52788D01*
X127794Y52784D01*
X127795Y52779D01*
X127796Y52774D01*
X127798Y52767D01*
X127803Y52753D01*
X127809Y52737D01*
X127817Y52721D01*
X127827Y52706D01*
X127838Y52693D01*
X127840Y52692D01*
X127843Y52689D01*
X127851Y52684D01*
X127860Y52680D01*
X127871Y52674D01*
X127885Y52669D01*
X127901Y52666D01*
X127917Y52665D01*
X127923D01*
X127927Y52666D01*
X127937Y52667D01*
X127950Y52669D01*
X127964Y52674D01*
X127980Y52680D01*
X127996Y52690D01*
X128011Y52703D01*
X128012Y52704D01*
X128017Y52710D01*
X128023Y52718D01*
X128030Y52729D01*
X128037Y52743D01*
X128043Y52759D01*
X128048Y52778D01*
X128049Y52798D01*
Y52799D01*
Y52801D01*
Y52803D01*
X128049Y52807D01*
X128048Y52817D01*
X128045Y52829D01*
X128041Y52844D01*
X128035Y52859D01*
X128025Y52874D01*
X128013Y52888D01*
X128012Y52889D01*
X128007Y52893D01*
X128000Y52899D01*
X127989Y52905D01*
X127976Y52912D01*
X127961Y52917D01*
X127943Y52921D01*
X127924Y52923D01*
X127915D01*
X127909Y52922D01*
X127901Y52921D01*
X127891Y52919D01*
X127880Y52917D01*
X127868Y52914D01*
X127878Y52984D01*
X127882D01*
X127886Y52983D01*
X127898D01*
X127908Y52985D01*
X127920Y52986D01*
X127934Y52989D01*
X127950Y52994D01*
X127964Y53000D01*
X127980Y53009D01*
X127981D01*
X127982Y53010D01*
X127987Y53013D01*
X127993Y53020D01*
X128000Y53028D01*
X128008Y53040D01*
X128014Y53054D01*
X128019Y53070D01*
X128021Y53079D01*
Y53089D01*
Y53090D01*
Y53091D01*
Y53096D01*
X128019Y53104D01*
X128017Y53114D01*
X128013Y53125D01*
X128009Y53137D01*
X128001Y53149D01*
X127991Y53160D01*
X127990Y53161D01*
X127986Y53165D01*
X127979Y53170D01*
X127971Y53175D01*
X127960Y53180D01*
X127947Y53184D01*
X127932Y53188D01*
X127915Y53189D01*
X127908D01*
X127900Y53187D01*
X127889Y53185D01*
X127877Y53182D01*
X127865Y53177D01*
X127852Y53170D01*
X127840Y53160D01*
X127839Y53159D01*
X127835Y53155D01*
X127829Y53148D01*
X127823Y53139D01*
X127816Y53127D01*
X127810Y53112D01*
X127804Y53095D01*
X127801Y53074D01*
X127722Y53088D01*
Y53089D01*
X127723Y53092D01*
X127724Y53096D01*
X127725Y53101D01*
X127727Y53108D01*
X127730Y53115D01*
X127735Y53133D01*
X127744Y53153D01*
X127755Y53173D01*
X127769Y53193D01*
X127787Y53210D01*
X127788Y53211D01*
X127790Y53212D01*
X127792Y53214D01*
X127796Y53217D01*
X127801Y53220D01*
X127807Y53224D01*
X127814Y53228D01*
X127822Y53232D01*
X127841Y53240D01*
X127862Y53247D01*
X127887Y53252D01*
X127900Y53254D01*
X127923D01*
X127933Y53253D01*
D02*
G37*
%LPC*%
G36*
X96072Y19537D02*
X96067D01*
X96064Y19536D01*
X96056Y19536D01*
X96047Y19533D01*
X96035Y19530D01*
X96023Y19524D01*
X96011Y19517D01*
X96000Y19507D01*
X95999Y19505D01*
X95996Y19501D01*
X95991Y19494D01*
X95985Y19485D01*
X95980Y19473D01*
X95976Y19459D01*
X95973Y19442D01*
X95971Y19422D01*
Y19422D01*
Y19420D01*
Y19417D01*
X95972Y19414D01*
Y19408D01*
X95973Y19403D01*
X95975Y19391D01*
X95978Y19377D01*
X95983Y19363D01*
X95990Y19349D01*
X96000Y19336D01*
Y19335D01*
X96002Y19334D01*
X96005Y19331D01*
X96011Y19326D01*
X96019Y19320D01*
X96030Y19315D01*
X96041Y19309D01*
X96055Y19306D01*
X96062Y19304D01*
X96074D01*
X96077Y19305D01*
X96085Y19306D01*
X96095Y19309D01*
X96106Y19312D01*
X96119Y19319D01*
X96132Y19327D01*
X96138Y19333D01*
X96143Y19339D01*
Y19340D01*
X96145Y19340D01*
X96146Y19343D01*
X96148Y19345D01*
X96153Y19352D01*
X96158Y19363D01*
X96164Y19375D01*
X96169Y19391D01*
X96172Y19408D01*
X96174Y19428D01*
Y19428D01*
Y19430D01*
Y19432D01*
X96173Y19436D01*
Y19440D01*
X96172Y19445D01*
X96170Y19456D01*
X96166Y19468D01*
X96162Y19482D01*
X96155Y19495D01*
X96145Y19507D01*
X96143Y19508D01*
X96140Y19511D01*
X96133Y19516D01*
X96125Y19521D01*
X96114Y19527D01*
X96101Y19533D01*
X96087Y19536D01*
X96072Y19537D01*
D02*
G37*
G36*
X97057Y19481D02*
X96905D01*
X96896Y19480D01*
X96886Y19479D01*
X96874Y19479D01*
X96862Y19477D01*
X96850Y19475D01*
X96840Y19472D01*
X96838Y19471D01*
X96835Y19470D01*
X96831Y19468D01*
X96825Y19465D01*
X96818Y19460D01*
X96812Y19455D01*
X96805Y19448D01*
X96800Y19441D01*
X96799Y19440D01*
X96798Y19437D01*
X96795Y19433D01*
X96792Y19427D01*
X96790Y19420D01*
X96788Y19413D01*
X96786Y19404D01*
X96786Y19395D01*
Y19394D01*
Y19394D01*
X96786Y19389D01*
X96787Y19383D01*
X96789Y19374D01*
X96792Y19365D01*
X96797Y19354D01*
X96803Y19345D01*
X96812Y19335D01*
X96814Y19334D01*
X96818Y19332D01*
X96823Y19328D01*
X96833Y19323D01*
X96844Y19319D01*
X96859Y19315D01*
X96876Y19312D01*
X96896Y19312D01*
X97057D01*
Y19481D01*
D02*
G37*
G36*
Y65081D02*
X96905D01*
X96896Y65080D01*
X96886Y65079D01*
X96874Y65079D01*
X96862Y65077D01*
X96850Y65075D01*
X96840Y65072D01*
X96838Y65071D01*
X96835Y65070D01*
X96831Y65068D01*
X96825Y65065D01*
X96818Y65060D01*
X96812Y65055D01*
X96805Y65048D01*
X96800Y65041D01*
X96799Y65040D01*
X96798Y65037D01*
X96795Y65033D01*
X96792Y65027D01*
X96790Y65020D01*
X96788Y65013D01*
X96786Y65004D01*
X96786Y64995D01*
Y64994D01*
Y64994D01*
X96786Y64989D01*
X96787Y64983D01*
X96789Y64974D01*
X96792Y64965D01*
X96797Y64954D01*
X96803Y64945D01*
X96812Y64935D01*
X96814Y64934D01*
X96818Y64932D01*
X96823Y64928D01*
X96833Y64923D01*
X96844Y64919D01*
X96859Y64915D01*
X96876Y64912D01*
X96896Y64912D01*
X97057D01*
Y65081D01*
D02*
G37*
G36*
X96071Y65323D02*
X96067D01*
X96064Y65323D01*
X96056Y65321D01*
X96046Y65318D01*
X96035Y65313D01*
X96022Y65306D01*
X96016Y65301D01*
X96010Y65295D01*
X96004Y65289D01*
X95999Y65282D01*
Y65281D01*
X95997Y65280D01*
X95996Y65277D01*
X95994Y65274D01*
X95991Y65269D01*
X95989Y65262D01*
X95986Y65255D01*
X95983Y65246D01*
X95981Y65235D01*
X95978Y65223D01*
X95975Y65209D01*
X95973Y65194D01*
X95971Y65176D01*
X95970Y65158D01*
X95968Y65137D01*
Y65114D01*
Y65113D01*
Y65113D01*
Y65109D01*
Y65102D01*
X95969Y65093D01*
Y65084D01*
X95970Y65072D01*
X95970Y65059D01*
X95972Y65045D01*
X95976Y65017D01*
X95978Y65003D01*
X95981Y64990D01*
X95984Y64977D01*
X95988Y64966D01*
X95993Y64955D01*
X95998Y64946D01*
Y64946D01*
X95999Y64945D01*
X96001Y64943D01*
X96003Y64940D01*
X96010Y64933D01*
X96018Y64925D01*
X96029Y64917D01*
X96041Y64911D01*
X96048Y64908D01*
X96055Y64906D01*
X96064Y64905D01*
X96072Y64904D01*
X96076D01*
X96079Y64905D01*
X96087Y64906D01*
X96097Y64909D01*
X96108Y64913D01*
X96120Y64920D01*
X96126Y64924D01*
X96132Y64929D01*
X96137Y64934D01*
X96142Y64941D01*
Y64942D01*
X96143Y64943D01*
X96145Y64946D01*
X96147Y64950D01*
X96149Y64956D01*
X96152Y64963D01*
X96155Y64971D01*
X96157Y64980D01*
X96160Y64991D01*
X96163Y65004D01*
X96166Y65018D01*
X96169Y65034D01*
X96171Y65051D01*
X96172Y65070D01*
X96173Y65091D01*
X96174Y65114D01*
Y65116D01*
Y65119D01*
Y65126D01*
X96173Y65135D01*
Y65144D01*
X96172Y65156D01*
X96172Y65169D01*
X96170Y65182D01*
X96166Y65211D01*
X96164Y65225D01*
X96161Y65238D01*
X96158Y65251D01*
X96154Y65263D01*
X96149Y65273D01*
X96144Y65282D01*
Y65283D01*
X96143Y65283D01*
X96139Y65289D01*
X96132Y65295D01*
X96124Y65303D01*
X96113Y65310D01*
X96101Y65317D01*
X96087Y65322D01*
X96079Y65323D01*
X96071Y65323D01*
D02*
G37*
G36*
X97040Y76007D02*
X96849D01*
X96838Y76006D01*
X96825Y76005D01*
X96811Y76004D01*
X96796Y76002D01*
X96781Y76000D01*
X96768Y75996D01*
X96766Y75995D01*
X96763Y75993D01*
X96757Y75990D01*
X96750Y75987D01*
X96741Y75981D01*
X96733Y75975D01*
X96725Y75966D01*
X96718Y75957D01*
X96717Y75956D01*
X96715Y75952D01*
X96713Y75947D01*
X96709Y75940D01*
X96706Y75931D01*
X96703Y75922D01*
X96702Y75911D01*
X96701Y75900D01*
Y75899D01*
Y75898D01*
X96702Y75892D01*
X96702Y75884D01*
X96704Y75873D01*
X96709Y75862D01*
X96715Y75849D01*
X96723Y75837D01*
X96734Y75825D01*
X96736Y75824D01*
X96740Y75820D01*
X96748Y75816D01*
X96760Y75810D01*
X96774Y75805D01*
X96792Y75800D01*
X96813Y75796D01*
X96838Y75795D01*
X97040D01*
Y76007D01*
D02*
G37*
G36*
X96296Y76310D02*
X96291D01*
X96287Y76309D01*
X96278Y76308D01*
X96266Y76306D01*
X96253Y76300D01*
X96238Y76294D01*
X96224Y76283D01*
X96216Y76278D01*
X96210Y76271D01*
Y76270D01*
X96208Y76269D01*
X96204Y76263D01*
X96199Y76254D01*
X96191Y76242D01*
X96185Y76226D01*
X96179Y76208D01*
X96175Y76186D01*
X96174Y76161D01*
Y76161D01*
Y76159D01*
Y76155D01*
X96175Y76150D01*
Y76145D01*
X96175Y76138D01*
X96178Y76124D01*
X96182Y76107D01*
X96188Y76089D01*
X96198Y76073D01*
X96210Y76057D01*
X96212Y76055D01*
X96216Y76050D01*
X96224Y76045D01*
X96234Y76038D01*
X96247Y76030D01*
X96261Y76025D01*
X96279Y76020D01*
X96298Y76018D01*
X96304D01*
X96308Y76019D01*
X96317Y76020D01*
X96330Y76023D01*
X96344Y76027D01*
X96359Y76035D01*
X96374Y76044D01*
X96389Y76057D01*
X96391Y76059D01*
X96395Y76063D01*
X96401Y76072D01*
X96408Y76084D01*
X96414Y76098D01*
X96421Y76115D01*
X96424Y76135D01*
X96426Y76157D01*
Y76159D01*
Y76163D01*
X96425Y76172D01*
X96424Y76182D01*
X96422Y76194D01*
X96419Y76207D01*
X96415Y76221D01*
X96409Y76234D01*
X96408Y76236D01*
X96406Y76241D01*
X96402Y76247D01*
X96396Y76256D01*
X96390Y76264D01*
X96382Y76274D01*
X96372Y76283D01*
X96361Y76291D01*
X96359Y76292D01*
X96356Y76294D01*
X96349Y76297D01*
X96341Y76300D01*
X96332Y76304D01*
X96321Y76308D01*
X96309Y76309D01*
X96296Y76310D01*
D02*
G37*
G36*
X95798D02*
X95794D01*
X95790Y76309D01*
X95781Y76308D01*
X95769Y76306D01*
X95756Y76300D01*
X95741Y76294D01*
X95726Y76283D01*
X95719Y76278D01*
X95712Y76271D01*
Y76270D01*
X95710Y76269D01*
X95707Y76263D01*
X95701Y76254D01*
X95694Y76242D01*
X95687Y76226D01*
X95682Y76208D01*
X95678Y76186D01*
X95676Y76161D01*
Y76161D01*
Y76159D01*
Y76155D01*
X95677Y76150D01*
Y76145D01*
X95678Y76138D01*
X95681Y76124D01*
X95685Y76107D01*
X95691Y76089D01*
X95700Y76073D01*
X95712Y76057D01*
X95714Y76055D01*
X95719Y76050D01*
X95726Y76045D01*
X95736Y76038D01*
X95749Y76030D01*
X95764Y76025D01*
X95782Y76020D01*
X95801Y76018D01*
X95807D01*
X95810Y76019D01*
X95820Y76020D01*
X95832Y76023D01*
X95846Y76027D01*
X95862Y76035D01*
X95877Y76044D01*
X95892Y76057D01*
X95894Y76059D01*
X95897Y76063D01*
X95904Y76072D01*
X95910Y76084D01*
X95917Y76098D01*
X95923Y76115D01*
X95927Y76135D01*
X95929Y76157D01*
Y76159D01*
Y76163D01*
X95928Y76172D01*
X95927Y76182D01*
X95925Y76194D01*
X95921Y76207D01*
X95918Y76221D01*
X95912Y76234D01*
X95911Y76236D01*
X95908Y76241D01*
X95905Y76247D01*
X95899Y76256D01*
X95893Y76264D01*
X95884Y76274D01*
X95875Y76283D01*
X95864Y76291D01*
X95862Y76292D01*
X95858Y76294D01*
X95852Y76297D01*
X95844Y76300D01*
X95834Y76304D01*
X95823Y76308D01*
X95811Y76309D01*
X95798Y76310D01*
D02*
G37*
G36*
X97040Y30407D02*
X96849D01*
X96838Y30406D01*
X96825Y30405D01*
X96811Y30404D01*
X96796Y30402D01*
X96781Y30400D01*
X96768Y30396D01*
X96766Y30395D01*
X96763Y30393D01*
X96757Y30390D01*
X96750Y30387D01*
X96741Y30381D01*
X96733Y30375D01*
X96725Y30366D01*
X96718Y30357D01*
X96717Y30356D01*
X96715Y30352D01*
X96713Y30347D01*
X96709Y30340D01*
X96706Y30331D01*
X96703Y30322D01*
X96702Y30311D01*
X96701Y30300D01*
Y30299D01*
Y30298D01*
X96702Y30292D01*
X96702Y30284D01*
X96704Y30273D01*
X96709Y30262D01*
X96715Y30249D01*
X96723Y30237D01*
X96734Y30225D01*
X96736Y30224D01*
X96740Y30220D01*
X96748Y30216D01*
X96760Y30210D01*
X96774Y30205D01*
X96792Y30200D01*
X96813Y30196D01*
X96838Y30195D01*
X97040D01*
Y30407D01*
D02*
G37*
G36*
X96296Y30710D02*
X96291D01*
X96287Y30709D01*
X96278Y30708D01*
X96266Y30706D01*
X96253Y30700D01*
X96238Y30694D01*
X96224Y30683D01*
X96216Y30678D01*
X96210Y30671D01*
Y30670D01*
X96208Y30669D01*
X96204Y30663D01*
X96199Y30654D01*
X96191Y30642D01*
X96185Y30626D01*
X96179Y30608D01*
X96175Y30586D01*
X96174Y30561D01*
Y30561D01*
Y30559D01*
Y30555D01*
X96175Y30550D01*
Y30545D01*
X96175Y30538D01*
X96178Y30524D01*
X96182Y30507D01*
X96188Y30489D01*
X96198Y30473D01*
X96210Y30457D01*
X96212Y30455D01*
X96216Y30450D01*
X96224Y30445D01*
X96234Y30438D01*
X96247Y30430D01*
X96261Y30425D01*
X96279Y30420D01*
X96298Y30418D01*
X96304D01*
X96308Y30419D01*
X96317Y30420D01*
X96330Y30423D01*
X96344Y30427D01*
X96359Y30435D01*
X96374Y30444D01*
X96389Y30457D01*
X96391Y30459D01*
X96395Y30463D01*
X96401Y30472D01*
X96408Y30484D01*
X96414Y30498D01*
X96421Y30515D01*
X96424Y30535D01*
X96426Y30557D01*
Y30559D01*
Y30563D01*
X96425Y30572D01*
X96424Y30582D01*
X96422Y30594D01*
X96419Y30607D01*
X96415Y30621D01*
X96409Y30634D01*
X96408Y30636D01*
X96406Y30641D01*
X96402Y30647D01*
X96396Y30656D01*
X96390Y30664D01*
X96382Y30674D01*
X96372Y30683D01*
X96361Y30691D01*
X96359Y30692D01*
X96356Y30694D01*
X96349Y30697D01*
X96341Y30700D01*
X96332Y30704D01*
X96321Y30708D01*
X96309Y30709D01*
X96296Y30710D01*
D02*
G37*
G36*
X97057Y124331D02*
X96905D01*
X96896Y124330D01*
X96886Y124329D01*
X96874Y124329D01*
X96862Y124327D01*
X96850Y124325D01*
X96840Y124322D01*
X96838Y124321D01*
X96835Y124320D01*
X96831Y124318D01*
X96825Y124315D01*
X96818Y124310D01*
X96812Y124305D01*
X96805Y124298D01*
X96800Y124291D01*
X96799Y124290D01*
X96798Y124287D01*
X96795Y124283D01*
X96792Y124277D01*
X96790Y124270D01*
X96788Y124263D01*
X96786Y124254D01*
X96786Y124245D01*
Y124244D01*
Y124244D01*
X96786Y124239D01*
X96787Y124233D01*
X96789Y124224D01*
X96792Y124215D01*
X96797Y124204D01*
X96803Y124195D01*
X96812Y124185D01*
X96814Y124184D01*
X96818Y124182D01*
X96823Y124178D01*
X96833Y124173D01*
X96844Y124169D01*
X96859Y124165D01*
X96876Y124162D01*
X96896Y124162D01*
X97057D01*
Y124331D01*
D02*
G37*
G36*
X97040Y135157D02*
X96849D01*
X96838Y135156D01*
X96825Y135155D01*
X96811Y135154D01*
X96796Y135152D01*
X96781Y135150D01*
X96768Y135146D01*
X96766Y135145D01*
X96763Y135143D01*
X96757Y135140D01*
X96750Y135137D01*
X96741Y135131D01*
X96733Y135125D01*
X96725Y135116D01*
X96718Y135107D01*
X96717Y135106D01*
X96715Y135102D01*
X96713Y135097D01*
X96709Y135090D01*
X96706Y135081D01*
X96703Y135072D01*
X96702Y135061D01*
X96701Y135050D01*
Y135049D01*
Y135048D01*
X96702Y135042D01*
X96702Y135034D01*
X96704Y135023D01*
X96709Y135012D01*
X96715Y134999D01*
X96723Y134987D01*
X96734Y134975D01*
X96736Y134974D01*
X96740Y134970D01*
X96748Y134966D01*
X96760Y134960D01*
X96774Y134955D01*
X96792Y134950D01*
X96813Y134946D01*
X96838Y134945D01*
X97040D01*
Y135157D01*
D02*
G37*
G36*
X96296Y135460D02*
X96291D01*
X96287Y135459D01*
X96278Y135458D01*
X96266Y135456D01*
X96253Y135450D01*
X96238Y135444D01*
X96224Y135433D01*
X96216Y135428D01*
X96210Y135421D01*
Y135420D01*
X96208Y135419D01*
X96204Y135413D01*
X96199Y135404D01*
X96191Y135392D01*
X96185Y135376D01*
X96179Y135358D01*
X96175Y135336D01*
X96174Y135311D01*
Y135311D01*
Y135309D01*
Y135305D01*
X96175Y135300D01*
Y135295D01*
X96175Y135288D01*
X96178Y135274D01*
X96182Y135257D01*
X96188Y135239D01*
X96198Y135223D01*
X96210Y135207D01*
X96212Y135205D01*
X96216Y135200D01*
X96224Y135195D01*
X96234Y135188D01*
X96247Y135180D01*
X96261Y135175D01*
X96279Y135170D01*
X96298Y135168D01*
X96304D01*
X96308Y135169D01*
X96317Y135170D01*
X96330Y135173D01*
X96344Y135177D01*
X96359Y135185D01*
X96374Y135194D01*
X96389Y135207D01*
X96391Y135209D01*
X96395Y135213D01*
X96401Y135222D01*
X96408Y135234D01*
X96414Y135248D01*
X96421Y135265D01*
X96424Y135285D01*
X96426Y135307D01*
Y135309D01*
Y135313D01*
X96425Y135322D01*
X96424Y135332D01*
X96422Y135344D01*
X96419Y135357D01*
X96415Y135371D01*
X96409Y135384D01*
X96408Y135386D01*
X96406Y135391D01*
X96402Y135397D01*
X96396Y135406D01*
X96390Y135414D01*
X96382Y135424D01*
X96372Y135433D01*
X96361Y135441D01*
X96359Y135442D01*
X96356Y135444D01*
X96349Y135447D01*
X96341Y135450D01*
X96332Y135454D01*
X96321Y135458D01*
X96309Y135459D01*
X96296Y135460D01*
D02*
G37*
G36*
X95966Y135288D02*
X95764D01*
Y135002D01*
X95966Y135288D01*
D02*
G37*
G36*
X95674Y170587D02*
X95670D01*
X95667Y170586D01*
X95659Y170586D01*
X95649Y170583D01*
X95637Y170580D01*
X95625Y170574D01*
X95613Y170567D01*
X95602Y170557D01*
X95601Y170555D01*
X95598Y170551D01*
X95594Y170544D01*
X95588Y170535D01*
X95582Y170523D01*
X95578Y170509D01*
X95575Y170492D01*
X95574Y170472D01*
Y170472D01*
Y170470D01*
Y170467D01*
X95574Y170464D01*
Y170458D01*
X95575Y170453D01*
X95577Y170441D01*
X95580Y170427D01*
X95585Y170413D01*
X95593Y170399D01*
X95602Y170386D01*
Y170385D01*
X95604Y170384D01*
X95608Y170381D01*
X95613Y170376D01*
X95622Y170370D01*
X95632Y170365D01*
X95644Y170359D01*
X95657Y170356D01*
X95664Y170354D01*
X95676D01*
X95679Y170355D01*
X95687Y170356D01*
X95697Y170359D01*
X95709Y170362D01*
X95721Y170369D01*
X95734Y170377D01*
X95740Y170383D01*
X95746Y170389D01*
Y170390D01*
X95747Y170390D01*
X95749Y170393D01*
X95750Y170395D01*
X95755Y170402D01*
X95761Y170413D01*
X95766Y170425D01*
X95772Y170441D01*
X95775Y170458D01*
X95776Y170478D01*
Y170478D01*
Y170480D01*
Y170482D01*
X95775Y170486D01*
Y170490D01*
X95775Y170495D01*
X95772Y170506D01*
X95769Y170518D01*
X95764Y170532D01*
X95757Y170545D01*
X95747Y170557D01*
X95746Y170558D01*
X95742Y170561D01*
X95735Y170566D01*
X95727Y170571D01*
X95716Y170577D01*
X95704Y170583D01*
X95690Y170586D01*
X95674Y170587D01*
D02*
G37*
G36*
X97057Y170531D02*
X96905D01*
X96896Y170530D01*
X96886Y170529D01*
X96874Y170529D01*
X96862Y170527D01*
X96850Y170525D01*
X96840Y170522D01*
X96838Y170521D01*
X96835Y170520D01*
X96831Y170518D01*
X96825Y170515D01*
X96818Y170510D01*
X96812Y170505D01*
X96805Y170498D01*
X96800Y170491D01*
X96799Y170490D01*
X96798Y170487D01*
X96795Y170483D01*
X96792Y170477D01*
X96790Y170470D01*
X96788Y170463D01*
X96786Y170454D01*
X96786Y170445D01*
Y170444D01*
Y170444D01*
X96786Y170439D01*
X96787Y170433D01*
X96789Y170424D01*
X96792Y170415D01*
X96797Y170404D01*
X96803Y170395D01*
X96812Y170385D01*
X96814Y170384D01*
X96818Y170382D01*
X96823Y170378D01*
X96833Y170373D01*
X96844Y170369D01*
X96859Y170365D01*
X96876Y170362D01*
X96896Y170362D01*
X97057D01*
Y170531D01*
D02*
G37*
G36*
X96071Y170773D02*
X96067D01*
X96064Y170773D01*
X96056Y170771D01*
X96046Y170768D01*
X96035Y170763D01*
X96022Y170756D01*
X96016Y170751D01*
X96010Y170745D01*
X96004Y170739D01*
X95999Y170732D01*
Y170731D01*
X95997Y170730D01*
X95996Y170727D01*
X95994Y170724D01*
X95991Y170719D01*
X95989Y170712D01*
X95986Y170705D01*
X95983Y170696D01*
X95981Y170685D01*
X95978Y170673D01*
X95975Y170659D01*
X95973Y170644D01*
X95971Y170626D01*
X95970Y170608D01*
X95968Y170587D01*
Y170564D01*
Y170563D01*
Y170563D01*
Y170559D01*
Y170552D01*
X95969Y170543D01*
Y170534D01*
X95970Y170522D01*
X95970Y170509D01*
X95972Y170495D01*
X95976Y170467D01*
X95978Y170453D01*
X95981Y170440D01*
X95984Y170427D01*
X95988Y170416D01*
X95993Y170405D01*
X95998Y170396D01*
Y170396D01*
X95999Y170395D01*
X96001Y170393D01*
X96003Y170390D01*
X96010Y170383D01*
X96018Y170375D01*
X96029Y170367D01*
X96041Y170361D01*
X96048Y170358D01*
X96055Y170356D01*
X96064Y170355D01*
X96072Y170354D01*
X96076D01*
X96079Y170355D01*
X96087Y170356D01*
X96097Y170359D01*
X96108Y170363D01*
X96120Y170370D01*
X96126Y170374D01*
X96132Y170379D01*
X96137Y170384D01*
X96142Y170391D01*
Y170392D01*
X96143Y170393D01*
X96145Y170396D01*
X96147Y170400D01*
X96149Y170406D01*
X96152Y170413D01*
X96155Y170421D01*
X96157Y170430D01*
X96160Y170441D01*
X96163Y170454D01*
X96166Y170468D01*
X96169Y170484D01*
X96171Y170501D01*
X96172Y170520D01*
X96173Y170541D01*
X96174Y170564D01*
Y170566D01*
Y170569D01*
Y170576D01*
X96173Y170585D01*
Y170594D01*
X96172Y170606D01*
X96172Y170619D01*
X96170Y170632D01*
X96166Y170661D01*
X96164Y170675D01*
X96161Y170688D01*
X96158Y170701D01*
X96154Y170713D01*
X96149Y170723D01*
X96144Y170732D01*
Y170733D01*
X96143Y170733D01*
X96139Y170739D01*
X96132Y170745D01*
X96124Y170753D01*
X96113Y170760D01*
X96101Y170767D01*
X96087Y170772D01*
X96079Y170773D01*
X96071Y170773D01*
D02*
G37*
G36*
X97040Y181857D02*
X96849D01*
X96838Y181856D01*
X96825Y181855D01*
X96811Y181854D01*
X96796Y181852D01*
X96781Y181850D01*
X96768Y181846D01*
X96766Y181845D01*
X96763Y181843D01*
X96757Y181840D01*
X96750Y181837D01*
X96741Y181831D01*
X96733Y181825D01*
X96725Y181816D01*
X96718Y181807D01*
X96717Y181806D01*
X96715Y181802D01*
X96713Y181797D01*
X96709Y181790D01*
X96706Y181781D01*
X96703Y181772D01*
X96702Y181761D01*
X96701Y181750D01*
Y181749D01*
Y181748D01*
X96702Y181742D01*
X96702Y181734D01*
X96704Y181723D01*
X96709Y181712D01*
X96715Y181699D01*
X96723Y181687D01*
X96734Y181675D01*
X96736Y181674D01*
X96740Y181670D01*
X96748Y181666D01*
X96760Y181660D01*
X96774Y181655D01*
X96792Y181650D01*
X96813Y181646D01*
X96838Y181645D01*
X97040D01*
Y181857D01*
D02*
G37*
G36*
X96296Y182160D02*
X96291D01*
X96287Y182159D01*
X96278Y182158D01*
X96266Y182156D01*
X96253Y182150D01*
X96238Y182144D01*
X96224Y182133D01*
X96216Y182128D01*
X96210Y182121D01*
Y182120D01*
X96208Y182119D01*
X96204Y182113D01*
X96199Y182104D01*
X96191Y182092D01*
X96185Y182076D01*
X96179Y182058D01*
X96175Y182036D01*
X96174Y182011D01*
Y182011D01*
Y182009D01*
Y182005D01*
X96175Y182000D01*
Y181995D01*
X96175Y181988D01*
X96178Y181974D01*
X96182Y181957D01*
X96188Y181939D01*
X96198Y181923D01*
X96210Y181907D01*
X96212Y181905D01*
X96216Y181900D01*
X96224Y181895D01*
X96234Y181888D01*
X96247Y181880D01*
X96261Y181875D01*
X96279Y181870D01*
X96298Y181868D01*
X96304D01*
X96308Y181869D01*
X96317Y181870D01*
X96330Y181873D01*
X96344Y181877D01*
X96359Y181885D01*
X96374Y181894D01*
X96389Y181907D01*
X96391Y181909D01*
X96395Y181913D01*
X96401Y181922D01*
X96408Y181934D01*
X96414Y181948D01*
X96421Y181965D01*
X96424Y181985D01*
X96426Y182007D01*
Y182009D01*
Y182013D01*
X96425Y182022D01*
X96424Y182032D01*
X96422Y182044D01*
X96419Y182057D01*
X96415Y182071D01*
X96409Y182084D01*
X96408Y182086D01*
X96406Y182091D01*
X96402Y182097D01*
X96396Y182106D01*
X96390Y182114D01*
X96382Y182124D01*
X96372Y182133D01*
X96361Y182141D01*
X96359Y182142D01*
X96356Y182144D01*
X96349Y182147D01*
X96341Y182150D01*
X96332Y182154D01*
X96321Y182158D01*
X96309Y182159D01*
X96296Y182160D01*
D02*
G37*
%LPD*%
D139*
X81695Y14425D02*
X112555D01*
X81695D02*
Y25125D01*
X112555D01*
Y14425D02*
Y25125D01*
Y60025D02*
Y70725D01*
X81695D02*
X112555D01*
X81695Y60025D02*
Y70725D01*
Y60025D02*
X112555D01*
Y71025D02*
Y81725D01*
X81695D02*
X112555D01*
X81695Y71025D02*
Y81725D01*
Y71025D02*
X112555D01*
Y25425D02*
Y36125D01*
X81695D02*
X112555D01*
X81695Y25425D02*
Y36125D01*
Y25425D02*
X112555D01*
Y119275D02*
Y129975D01*
X81695D02*
X112555D01*
X81695Y119275D02*
Y129975D01*
Y119275D02*
X112555D01*
Y130175D02*
Y140875D01*
X81695D02*
X112555D01*
X81695Y130175D02*
Y140875D01*
Y130175D02*
X112555D01*
Y165475D02*
Y176175D01*
X81695D02*
X112555D01*
X81695Y165475D02*
Y176175D01*
Y165475D02*
X112555D01*
Y176875D02*
Y187575D01*
X81695D02*
X112555D01*
X81695Y176875D02*
Y187575D01*
Y176875D02*
X112555D01*
X121275Y48100D02*
Y57100D01*
Y48100D02*
X132875D01*
Y57100D01*
X121275D02*
X132875D01*
D142*
X161525Y7400D02*
X161258D01*
X161392D01*
Y6733D01*
X161258Y6600D01*
X161125D01*
X160992Y6733D01*
X161792Y6600D02*
X162058D01*
X161925D01*
Y7400D01*
X161792Y7267D01*
X211675Y157167D02*
Y156900D01*
Y157034D01*
X212342D01*
X212475Y156900D01*
Y156767D01*
X212342Y156634D01*
X211675Y157967D02*
Y157434D01*
X212075D01*
X211942Y157700D01*
Y157833D01*
X212075Y157967D01*
X212342D01*
X212475Y157833D01*
Y157567D01*
X212342Y157434D01*
X208600Y122142D02*
Y121875D01*
Y122008D01*
X209267D01*
X209400Y121875D01*
Y121742D01*
X209267Y121609D01*
X209400Y122808D02*
X208600D01*
X209000Y122408D01*
Y122941D01*
X181867Y7400D02*
X181600D01*
X181733D01*
Y6733D01*
X181600Y6600D01*
X181467D01*
X181334Y6733D01*
X182666Y6600D02*
X182133D01*
X182666Y7133D01*
Y7267D01*
X182533Y7400D01*
X182267D01*
X182133Y7267D01*
D185*
X170100Y68200D02*
X173775D01*
X170100Y53850D02*
Y68200D01*
X171188Y53850D02*
X172688D01*
X170100D02*
X171188D01*
X172688D02*
X173775D01*
Y68200D01*
X166525Y9850D02*
X167125Y9600D01*
Y10800D01*
X166525Y10550D02*
X167125Y10800D01*
X155925Y5600D02*
X156525Y5350D01*
X155925Y4400D02*
X156525Y4650D01*
X155925Y4400D02*
Y5600D01*
X156525Y5350D02*
Y11500D01*
Y2500D02*
Y4650D01*
Y2500D02*
X166525D01*
X156525Y11500D02*
X166525D01*
Y10550D02*
Y11500D01*
Y2500D02*
Y9850D01*
X121500Y15625D02*
Y28625D01*
X134500D01*
X121500Y15625D02*
X134500D01*
Y28625D01*
X121500Y29150D02*
Y42150D01*
X134500D01*
X121500Y29150D02*
X134500D01*
Y42150D01*
X209225Y164800D02*
X209475Y165400D01*
X208275D02*
X209475D01*
X208275D02*
X208525Y164800D01*
X207575D02*
X208525D01*
X209225D02*
X216575D01*
X207575Y149800D02*
Y164800D01*
X216575Y149800D02*
Y164800D01*
X214425Y149800D02*
X216575D01*
X207575D02*
X213725D01*
X213475Y149200D02*
X214675D01*
X214425Y149800D02*
X214675Y149200D01*
X213475D02*
X213725Y149800D01*
X206150Y127275D02*
X206400Y127875D01*
X205200D02*
X206400D01*
X205200D02*
X205450Y127275D01*
X210400Y116675D02*
X210650Y117275D01*
X211350D02*
X211600Y116675D01*
X210400D02*
X211600D01*
X204500Y117275D02*
X210650D01*
X211350D02*
X213500D01*
Y127275D01*
X204500Y117275D02*
Y127275D01*
X205450D01*
X206150D02*
X213500D01*
X187000Y2500D02*
Y9850D01*
Y10550D02*
Y11500D01*
X177000D02*
X187000D01*
X177000Y2500D02*
X187000D01*
X177000D02*
Y4650D01*
Y5350D02*
Y11500D01*
X176400Y4400D02*
Y5600D01*
Y4400D02*
X177000Y4650D01*
X176400Y5600D02*
X177000Y5350D01*
X187000Y10550D02*
X187600Y10800D01*
Y9600D02*
Y10800D01*
X187000Y9850D02*
X187600Y9600D01*
X172300Y61950D02*
X171833D01*
X171600Y61717D01*
X171833Y61483D01*
X172300D01*
Y61250D02*
X171600D01*
Y60900D01*
X171717Y60784D01*
X172183D01*
X172300Y60900D01*
Y61250D01*
X171600Y60550D02*
Y60317D01*
Y60434D01*
X172300D01*
X172183Y60550D01*
X172300Y59967D02*
Y59501D01*
X172183D01*
X171717Y59967D01*
X171600D01*
X128458Y21867D02*
X128575Y21750D01*
X128808D01*
X128925Y21867D01*
Y22333D01*
X128808Y22450D01*
X128575D01*
X128458Y22333D01*
X127875Y22450D02*
Y21750D01*
X128225Y22100D01*
X127759D01*
X128458Y35392D02*
X128575Y35275D01*
X128808D01*
X128925Y35392D01*
Y35858D01*
X128808Y35975D01*
X128575D01*
X128458Y35858D01*
X127759Y35275D02*
X128225D01*
Y35625D01*
X127992Y35508D01*
X127875D01*
X127759Y35625D01*
Y35858D01*
X127875Y35975D01*
X128109D01*
X128225Y35858D01*
D197*
X171912Y66125D02*
D03*
%TF.MD5,400b8052d3b9263dd1eef0d22c726abf*%
M02*
