%TF.GenerationSoftware,Altium Limited,Altium Designer,21.6.4 (81)*%
G04 Layer_Color=32896*
%FSLAX43Y43*%
%MOMM*%
%TF.SameCoordinates,A962B9D3-E780-4B03-8A10-E236CC36F35F*%
%TF.FilePolarity,Positive*%
%TF.FileFunction,Other,Mechanical_12*%
%TF.Part,Single*%
G01*
G75*
%TA.AperFunction,NonConductor*%
%ADD139C,0.200*%
%ADD142C,0.150*%
D139*
X182320Y186975D02*
X183670D01*
X182320Y184875D02*
Y186975D01*
Y184875D02*
X183670D01*
Y186975D01*
X127430Y169783D02*
X128680D01*
Y167783D02*
Y169783D01*
X127430Y167783D02*
X128680D01*
X127430D02*
Y169783D01*
X194800Y186950D02*
X196150D01*
X194800Y184850D02*
Y186950D01*
Y184850D02*
X196150D01*
Y186950D01*
X199985Y177505D02*
X201985D01*
Y178755D01*
X199985D02*
X201985D01*
X199985Y177505D02*
Y178755D01*
X200013Y184272D02*
X202013D01*
X200013Y183022D02*
Y184272D01*
Y183022D02*
X202013D01*
Y184272D01*
X208888Y166497D02*
Y167747D01*
X210888D01*
Y166497D02*
Y167747D01*
X208888Y166497D02*
X210888D01*
X200012Y181522D02*
X202012D01*
X200012Y180272D02*
Y181522D01*
Y180272D02*
X202012D01*
Y181522D01*
X204954Y182812D02*
X206954D01*
Y184062D01*
X204954D02*
X206954D01*
X204954Y182812D02*
Y184062D01*
Y180272D02*
Y181522D01*
X206954D01*
Y180272D02*
Y181522D01*
X204954Y180272D02*
X206954D01*
X188025Y186975D02*
X189375D01*
X188025Y184875D02*
Y186975D01*
Y184875D02*
X189375D01*
Y186975D01*
X162526Y135734D02*
X163410Y134850D01*
X162526Y135734D02*
X163940Y137148D01*
X164824Y136264D01*
X163410Y134850D02*
X164824Y136264D01*
X82125Y6760D02*
X84125D01*
Y8010D01*
X82125D02*
X84125D01*
X82125Y6760D02*
Y8010D01*
X88125Y6760D02*
Y8010D01*
X90125D01*
Y6760D02*
Y8010D01*
X88125Y6760D02*
X90125D01*
X82125Y53996D02*
X84125D01*
Y55246D01*
X82125D02*
X84125D01*
X82125Y53996D02*
Y55246D01*
X88125Y54123D02*
Y55373D01*
X90125D01*
Y54123D02*
Y55373D01*
X88125Y54123D02*
X90125D01*
X88125Y36397D02*
Y37647D01*
X90125D01*
Y36397D02*
Y37647D01*
X88125Y36397D02*
X90125D01*
X155670Y150600D02*
X171270D01*
Y144500D02*
Y150600D01*
X155670Y144500D02*
X171270D01*
X155670D02*
Y150600D01*
X158304Y191138D02*
Y197238D01*
Y191138D02*
X173904D01*
Y197238D01*
X158304D02*
X173904D01*
X134925Y190115D02*
X144705D01*
X134925Y185155D02*
Y190115D01*
Y185155D02*
X144705D01*
Y190115D01*
X114605D02*
X124385D01*
X114605Y185155D02*
Y190115D01*
Y185155D02*
X124385D01*
Y190115D01*
X144958D02*
X154738D01*
X144958Y185155D02*
Y190115D01*
Y185155D02*
X154738D01*
Y190115D01*
X124638D02*
X134418D01*
X124638Y185155D02*
Y190115D01*
Y185155D02*
X134418D01*
Y190115D01*
X216525Y166880D02*
Y182480D01*
X210425Y166880D02*
X216525D01*
X210425D02*
Y182480D01*
X216525D01*
X186210Y184875D02*
Y186975D01*
X184860Y184875D02*
X186210D01*
X184860D02*
Y186975D01*
X186210D01*
X179780D02*
X181130D01*
X179780Y184875D02*
Y186975D01*
Y184875D02*
X181130D01*
Y186975D01*
X82125Y158371D02*
Y159621D01*
X84125D01*
Y158371D02*
Y159621D01*
X82125Y158371D02*
X84125D01*
X88125D02*
Y159621D01*
X90125D01*
Y158371D02*
Y159621D01*
X88125Y158371D02*
X90125D01*
X141025Y185049D02*
Y186299D01*
X143025D01*
Y185049D02*
Y186299D01*
X141025Y185049D02*
X143025D01*
X120705D02*
Y186299D01*
X122705D01*
Y185049D02*
Y186299D01*
X120705Y185049D02*
X122705D01*
X136707Y186299D02*
X138707D01*
X136707Y185049D02*
Y186299D01*
Y185049D02*
X138707D01*
Y186299D01*
X116387D02*
X118387D01*
X116387Y185049D02*
Y186299D01*
Y185049D02*
X118387D01*
Y186299D01*
X119810Y192135D02*
X121060D01*
Y190135D02*
Y192135D01*
X119810Y190135D02*
X121060D01*
X119810D02*
Y192135D01*
X143178Y175022D02*
Y177022D01*
Y175022D02*
X144428D01*
Y177022D01*
X143178D02*
X144428D01*
X123637Y177005D02*
X124887D01*
Y175005D02*
Y177005D01*
X123637Y175005D02*
X124887D01*
X123637D02*
Y177005D01*
X151058Y186299D02*
X153058D01*
X151058Y185049D02*
Y186299D01*
Y185049D02*
X153058D01*
Y186299D01*
X130738D02*
X132738D01*
X130738Y185049D02*
Y186299D01*
Y185049D02*
X132738D01*
Y186299D01*
X143051Y167783D02*
Y169783D01*
Y167783D02*
X144301D01*
Y169783D01*
X143051D02*
X144301D01*
X123620D02*
X124870D01*
Y167783D02*
Y169783D01*
X123620Y167783D02*
X124870D01*
X123620D02*
Y169783D01*
X146988Y167783D02*
Y169783D01*
Y167783D02*
X148238D01*
Y169783D01*
X146988D02*
X148238D01*
X126420Y186299D02*
X128420D01*
X126420Y185049D02*
Y186299D01*
Y185049D02*
X128420D01*
Y186299D01*
X148385Y192262D02*
X149635D01*
Y190262D02*
Y192262D01*
X148385Y190262D02*
X149635D01*
X148385D02*
Y192262D01*
X128065Y192170D02*
X129315D01*
Y190170D02*
Y192170D01*
X128065Y190170D02*
X129315D01*
X128065D02*
Y192170D01*
X140009Y179461D02*
X142009D01*
Y180711D01*
X140009D02*
X142009D01*
X140009Y179461D02*
Y180711D01*
X133405Y179207D02*
X135405D01*
Y180457D01*
X133405D02*
X135405D01*
X133405Y179207D02*
Y180457D01*
X82123Y188956D02*
X84123D01*
Y190206D01*
X82123D02*
X84123D01*
X82123Y188956D02*
Y190206D01*
X173325Y100925D02*
X175325D01*
Y102175D01*
X173325D02*
X175325D01*
X173325Y100925D02*
Y102175D01*
X189175Y117625D02*
X191175D01*
X189175Y116375D02*
Y117625D01*
Y116375D02*
X191175D01*
Y117625D01*
X173320Y99425D02*
X175320D01*
X173320Y98175D02*
Y99425D01*
Y98175D02*
X175320D01*
Y99425D01*
X184650Y117625D02*
X186650D01*
X184650Y116375D02*
Y117625D01*
Y116375D02*
X186650D01*
Y117625D01*
X88125Y188331D02*
X90125D01*
Y189581D01*
X88125D02*
X90125D01*
X88125Y188331D02*
Y189581D01*
Y82465D02*
X90125D01*
Y83715D01*
X88125D02*
X90125D01*
X88125Y82465D02*
Y83715D01*
X82125Y112360D02*
Y113610D01*
X84125D01*
Y112360D02*
Y113610D01*
X82125Y112360D02*
X84125D01*
X88125Y112487D02*
X90125D01*
Y113737D01*
X88125D02*
X90125D01*
X88125Y112487D02*
Y113737D01*
X196515Y188825D02*
X197765D01*
X196515D02*
Y190825D01*
X197765D01*
Y188825D02*
Y190825D01*
X193975Y188825D02*
X195225D01*
X193975D02*
Y190825D01*
X195225D01*
Y188825D02*
Y190825D01*
X82125Y143343D02*
Y144593D01*
X84125D01*
Y143343D02*
Y144593D01*
X82125Y143343D02*
X84125D01*
X88125D02*
X90125D01*
Y144593D01*
X88125D02*
X90125D01*
X88125Y143343D02*
Y144593D01*
X179976Y135465D02*
X180860Y136349D01*
X182274Y134935D01*
X181390Y134051D02*
X182274Y134935D01*
X179976Y135465D02*
X181390Y134051D01*
D142*
X177800Y66450D02*
Y67700D01*
X175800D02*
X177800D01*
X175800Y66450D02*
Y67700D01*
Y66450D02*
X177800D01*
X201674Y179884D02*
X202924D01*
X201674Y177884D02*
Y179884D01*
Y177884D02*
X202924D01*
Y179884D01*
X208688Y162097D02*
X209938D01*
Y160097D02*
Y162097D01*
X208688Y160097D02*
X209938D01*
X208688D02*
Y162097D01*
X183620Y190128D02*
Y192128D01*
X182370D02*
X183620D01*
X182370Y190128D02*
Y192128D01*
Y190128D02*
X183620D01*
X85553Y133150D02*
X86803D01*
Y131150D02*
Y133150D01*
X85553Y131150D02*
X86803D01*
X85553D02*
Y133150D01*
X91185Y136520D02*
Y137770D01*
X93185D01*
Y136520D02*
Y137770D01*
X91185Y136520D02*
X93185D01*
X91825Y182593D02*
Y183843D01*
X93825D01*
Y182593D02*
Y183843D01*
X91825Y182593D02*
X93825D01*
X86000Y179273D02*
X87250D01*
Y177273D02*
Y179273D01*
X86000Y177273D02*
X87250D01*
X86000D02*
Y179273D01*
X91279Y77322D02*
Y78572D01*
X93279D01*
Y77322D02*
Y78572D01*
X91279Y77322D02*
X93279D01*
X85679Y73925D02*
X86929D01*
Y71925D02*
Y73925D01*
X85679Y71925D02*
X86929D01*
X85679D02*
Y73925D01*
X85500Y28775D02*
X86750D01*
Y26775D02*
Y28775D01*
X85500Y26775D02*
X86750D01*
X85500D02*
Y28775D01*
X90812Y32400D02*
Y33650D01*
X92812D01*
Y32400D02*
Y33650D01*
X90812Y32400D02*
X92812D01*
X184910Y190250D02*
X186160D01*
X184910D02*
Y192250D01*
X186160D01*
Y190250D02*
Y192250D01*
X181080Y190005D02*
Y192005D01*
X179830D02*
X181080D01*
X179830Y190005D02*
Y192005D01*
Y190005D02*
X181080D01*
X86577Y173475D02*
X88577D01*
X86577Y172225D02*
Y173475D01*
Y172225D02*
X88577D01*
Y173475D01*
X88283Y66950D02*
Y68200D01*
X86283Y66950D02*
X88283D01*
X86283D02*
Y68200D01*
X88283D01*
X82575Y173554D02*
X84575D01*
X82575Y172304D02*
Y173554D01*
Y172304D02*
X84575D01*
Y173554D01*
X82450Y68100D02*
X84450D01*
X82450Y66850D02*
Y68100D01*
Y66850D02*
X84450D01*
Y68100D01*
X187350Y169050D02*
X189350D01*
X187350Y167800D02*
Y169050D01*
Y167800D02*
X189350D01*
Y169050D01*
X88198Y126210D02*
Y127460D01*
X86198Y126210D02*
X88198D01*
X86198D02*
Y127460D01*
X88198D01*
X88175Y21600D02*
Y22850D01*
X86175Y21600D02*
X88175D01*
X86175D02*
Y22850D01*
X88175D01*
X82523Y127540D02*
X84523D01*
X82523Y126290D02*
Y127540D01*
Y126290D02*
X84523D01*
Y127540D01*
X82500Y22736D02*
X84500D01*
X82500Y21486D02*
Y22736D01*
Y21486D02*
X84500D01*
Y22736D01*
%TF.MD5,defde918ab1e891bd7ea5baa7bf444e1*%
M02*
