%TF.GenerationSoftware,Altium Limited,Altium Designer,21.6.4 (81)*%
G04 Layer_Color=32896*
%FSLAX43Y43*%
%MOMM*%
%TF.SameCoordinates,A962B9D3-E780-4B03-8A10-E236CC36F35F*%
%TF.FilePolarity,Positive*%
%TF.FileFunction,Other,Top_Component_Outline*%
%TF.Part,Single*%
G01*
G75*
%TA.AperFunction,NonConductor*%
%ADD185C,0.100*%
D185*
X156525Y9850D02*
X157125Y9600D01*
Y10800D01*
X156525Y10550D02*
X157125Y10800D01*
X145925Y5600D02*
X146525Y5350D01*
X145925Y4400D02*
X146525Y4650D01*
X145925Y4400D02*
Y5600D01*
X146525Y5350D02*
Y11500D01*
Y2500D02*
Y4650D01*
Y2500D02*
X156525D01*
X146525Y11500D02*
X156525D01*
Y10550D02*
Y11500D01*
Y2500D02*
Y9850D01*
X133000Y9850D02*
X133600Y9600D01*
Y10800D01*
X133000Y10550D02*
X133600Y10800D01*
X122400Y5600D02*
X123000Y5350D01*
X122400Y4400D02*
X123000Y4650D01*
X122400Y4400D02*
Y5600D01*
X123000Y5350D02*
Y11500D01*
Y2500D02*
Y4650D01*
Y2500D02*
X133000D01*
X123000Y11500D02*
X133000D01*
Y10550D02*
Y11500D01*
Y2500D02*
Y9850D01*
X206040Y134175D02*
Y146875D01*
X203500Y134175D02*
Y146875D01*
X206040D01*
X203500Y134175D02*
X206040D01*
X176645Y193472D02*
X189345D01*
X176645Y196012D02*
X189345D01*
Y193472D02*
Y196012D01*
X176645Y193472D02*
Y196012D01*
X187225Y134165D02*
X189765D01*
X187225Y146865D02*
X189765D01*
X187225Y134165D02*
Y146865D01*
X189765Y134165D02*
Y146865D01*
%TF.MD5,be2fb5e22015347c6c46cd9b7a6c23bc*%
M02*
