%TF.GenerationSoftware,Altium Limited,Altium Designer,21.6.4 (81)*%
G04 Layer_Color=32768*
%FSLAX43Y43*%
%MOMM*%
%TF.SameCoordinates,A962B9D3-E780-4B03-8A10-E236CC36F35F*%
%TF.FilePolarity,Positive*%
%TF.FileFunction,Other,Top_3D_Body*%
%TF.Part,Single*%
G01*
G75*
%TA.AperFunction,NonConductor*%
%ADD139C,0.200*%
%ADD185C,0.100*%
D139*
X85375Y14525D02*
X108875D01*
X85375D02*
Y25025D01*
X108875D01*
Y14525D02*
Y25025D01*
Y60125D02*
Y70625D01*
X85375D02*
X108875D01*
X85375Y60125D02*
Y70625D01*
Y60125D02*
X108875D01*
Y71125D02*
Y81625D01*
X85375D02*
X108875D01*
X85375Y71125D02*
Y81625D01*
Y71125D02*
X108875D01*
Y25525D02*
Y36025D01*
X85375D02*
X108875D01*
X85375Y25525D02*
Y36025D01*
Y25525D02*
X108875D01*
Y119375D02*
Y129875D01*
X85375D02*
X108875D01*
X85375Y119375D02*
Y129875D01*
Y119375D02*
X108875D01*
Y130275D02*
Y140775D01*
X85375D02*
X108875D01*
X85375Y130275D02*
Y140775D01*
Y130275D02*
X108875D01*
Y165575D02*
Y176075D01*
X85375D02*
X108875D01*
X85375Y165575D02*
Y176075D01*
Y165575D02*
X108875D01*
Y176975D02*
Y187475D01*
X85375D02*
X108875D01*
X85375Y176975D02*
Y187475D01*
Y176975D02*
X108875D01*
X122825Y48350D02*
Y56850D01*
Y48350D02*
X131325D01*
Y56850D01*
X122825D02*
X131325D01*
D185*
X156525Y2500D02*
Y9850D01*
Y10550D02*
Y11500D01*
X146525D02*
X156525D01*
X146525Y2500D02*
X156525D01*
X146525D02*
Y4650D01*
Y5350D02*
Y11500D01*
X145925Y4400D02*
Y5600D01*
Y4400D02*
X146525Y4650D01*
X145925Y5600D02*
X146525Y5350D01*
X156525Y10550D02*
X157125Y10800D01*
Y9600D02*
Y10800D01*
X156525Y9850D02*
X157125Y9600D01*
X133000Y2500D02*
Y9850D01*
Y10550D02*
Y11500D01*
X123000D02*
X133000D01*
X123000Y2500D02*
X133000D01*
X123000D02*
Y4650D01*
Y5350D02*
Y11500D01*
X122400Y4400D02*
Y5600D01*
Y4400D02*
X123000Y4650D01*
X122400Y5600D02*
X123000Y5350D01*
X133000Y10550D02*
X133600Y10800D01*
Y9600D02*
Y10800D01*
X133000Y9850D02*
X133600Y9600D01*
X166525Y2500D02*
Y9850D01*
Y10550D02*
Y11500D01*
X156525D02*
X166525D01*
X156525Y2500D02*
X166525D01*
X156525D02*
Y4650D01*
Y5350D02*
Y11500D01*
X155925Y4400D02*
Y5600D01*
Y4400D02*
X156525Y4650D01*
X155925Y5600D02*
X156525Y5350D01*
X166525Y10550D02*
X167125Y10800D01*
Y9600D02*
Y10800D01*
X166525Y9850D02*
X167125Y9600D01*
X206040Y134175D02*
Y146875D01*
X203500Y134175D02*
Y146875D01*
X206040D01*
X203500Y134175D02*
X206040D01*
X176645Y193472D02*
X189345D01*
X176645Y196012D02*
X189345D01*
Y193472D02*
Y196012D01*
X176645Y193472D02*
Y196012D01*
X187225Y134165D02*
X189765D01*
X187225Y146865D02*
X189765D01*
X187225Y134165D02*
Y146865D01*
X189765Y134165D02*
Y146865D01*
X213475Y149200D02*
X213725Y149800D01*
X214425D02*
X214675Y149200D01*
X213475D02*
X214675D01*
X207575Y149800D02*
X213725D01*
X214425D02*
X216575D01*
Y164800D01*
X207575Y149800D02*
Y164800D01*
X209225D02*
X216575D01*
X207575D02*
X208525D01*
X208275Y165400D02*
X208525Y164800D01*
X208275Y165400D02*
X209475D01*
X209225Y164800D02*
X209475Y165400D01*
X206150Y127275D02*
X213500D01*
X204500D02*
X205450D01*
X204500Y117275D02*
Y127275D01*
X213500Y117275D02*
Y127275D01*
X211350Y117275D02*
X213500D01*
X204500D02*
X210650D01*
X210400Y116675D02*
X211600D01*
X211350Y117275D02*
X211600Y116675D01*
X210400D02*
X210650Y117275D01*
X205200Y127875D02*
X205450Y127275D01*
X205200Y127875D02*
X206400D01*
X206150Y127275D02*
X206400Y127875D01*
X187000Y9850D02*
X187600Y9600D01*
Y10800D01*
X187000Y10550D02*
X187600Y10800D01*
X176400Y5600D02*
X177000Y5350D01*
X176400Y4400D02*
X177000Y4650D01*
X176400Y4400D02*
Y5600D01*
X177000Y5350D02*
Y11500D01*
Y2500D02*
Y4650D01*
Y2500D02*
X187000D01*
X177000Y11500D02*
X187000D01*
Y10550D02*
Y11500D01*
Y2500D02*
Y9850D01*
%TF.MD5,42d92d850ea7273a704439edad2b938b*%
M02*
