%TF.GenerationSoftware,Altium Limited,Altium Designer,21.6.4 (81)*%
G04 Layer_Color=32768*
%FSLAX43Y43*%
%MOMM*%
%TF.SameCoordinates,A962B9D3-E780-4B03-8A10-E236CC36F35F*%
%TF.FilePolarity,Positive*%
%TF.FileFunction,Other,Bottom_Courtyard*%
%TF.Part,Single*%
G01*
G75*
%TA.AperFunction,NonConductor*%
%ADD139C,0.200*%
D139*
X85625Y69050D02*
X88425D01*
Y70750D01*
X85625D02*
X88425D01*
X85625Y69050D02*
Y70750D01*
X87629Y71525D02*
Y74325D01*
Y71525D02*
X89329D01*
Y74325D01*
X87629D02*
X89329D01*
X81525Y81500D02*
X86725D01*
X81525Y79300D02*
Y81500D01*
Y79300D02*
X86725D01*
Y81500D01*
X85528Y128254D02*
X88328D01*
Y129954D01*
X85528D02*
X88328D01*
X85528Y128254D02*
Y129954D01*
X104491Y141930D02*
Y146238D01*
X101983D02*
X104491D01*
X101983Y141930D02*
Y146238D01*
Y141930D02*
X104491D01*
X198357Y169242D02*
X200057D01*
Y166443D02*
Y169242D01*
X198357Y166443D02*
X200057D01*
X198357D02*
Y169242D01*
X188550Y115126D02*
X191350D01*
X188550Y113426D02*
Y115126D01*
Y113426D02*
X191350D01*
Y115126D01*
X172998Y103275D02*
X175798D01*
Y104975D01*
X172998D02*
X175798D01*
X172998Y103275D02*
Y104975D01*
X197000Y77700D02*
Y80500D01*
X195300D02*
X197000D01*
X195300Y77700D02*
Y80500D01*
Y77700D02*
X197000D01*
X108054Y52820D02*
Y57128D01*
X105546D02*
X108054D01*
X105546Y52820D02*
Y57128D01*
Y52820D02*
X108054D01*
X181717Y109034D02*
X183697Y111014D01*
X182495Y112216D02*
X183697Y111014D01*
X180515Y110236D02*
X182495Y112216D01*
X180515Y110236D02*
X181717Y109034D01*
X180087Y110487D02*
X182244Y112644D01*
X181077Y113811D02*
X182244Y112644D01*
X178920Y111654D02*
X181077Y113811D01*
X178920Y111654D02*
X180087Y110487D01*
X179701Y131513D02*
X180903Y132715D01*
X177721Y133493D02*
X179701Y131513D01*
X177721Y133493D02*
X178923Y134695D01*
X180903Y132715D01*
X16171Y68395D02*
Y71803D01*
Y68395D02*
X18079D01*
Y71803D01*
X16171D02*
X18079D01*
X87409Y133550D02*
X89109D01*
Y130750D02*
Y133550D01*
X87409Y130750D02*
X89109D01*
X87409D02*
Y133550D01*
X93585Y134144D02*
Y135844D01*
X90785Y134144D02*
X93585D01*
X90785D02*
Y135844D01*
X93585D01*
X94225Y180268D02*
Y181968D01*
X91425Y180268D02*
X94225D01*
X91425D02*
Y181968D01*
X94225D01*
X87975Y179673D02*
X89675D01*
Y176873D02*
Y179673D01*
X87975Y176873D02*
X89675D01*
X87975D02*
Y179673D01*
X93629Y75047D02*
Y76747D01*
X90829Y75047D02*
X93629D01*
X90829D02*
Y76747D01*
X93629D01*
X87349Y29175D02*
X89049D01*
Y26375D02*
Y29175D01*
X87349Y26375D02*
X89049D01*
X87349D02*
Y29175D01*
X93212Y30106D02*
Y31806D01*
X90412Y30106D02*
X93212D01*
X90412D02*
Y31806D01*
X93212D01*
X105601Y5375D02*
X108109D01*
X105601D02*
Y9683D01*
X108109D01*
Y5375D02*
Y9683D01*
X105749Y157130D02*
X108257D01*
X105749D02*
Y161438D01*
X108257D01*
Y157130D02*
Y161438D01*
X105921Y186921D02*
X108429D01*
X105921D02*
Y191229D01*
X108429D01*
Y186921D02*
Y191229D01*
X106003Y81221D02*
X108511D01*
X106003D02*
Y85529D01*
X108511D01*
Y81221D02*
Y85529D01*
X105646Y111049D02*
X108154D01*
X105646D02*
Y115357D01*
X108154D01*
Y111049D02*
Y115357D01*
X105010Y141930D02*
X107519D01*
X105010D02*
Y146238D01*
X107519D01*
Y141930D02*
Y146238D01*
X105846Y35394D02*
X108354D01*
X105846D02*
Y39702D01*
X108354D01*
Y35394D02*
Y39702D01*
X105511Y81221D02*
Y85529D01*
X103003D02*
X105511D01*
X103003Y81221D02*
Y85529D01*
Y81221D02*
X105511D01*
X81421Y38091D02*
X84829D01*
Y39999D01*
X81421D02*
X84829D01*
X81421Y38091D02*
Y39999D01*
X81525Y4929D02*
X86725D01*
X81525Y2729D02*
Y4929D01*
Y2729D02*
X86725D01*
Y4929D01*
Y12000D02*
Y14200D01*
X81525Y12000D02*
X86725D01*
X81525D02*
Y14200D01*
X86725D01*
X84431Y9150D02*
Y10700D01*
X81819Y9150D02*
X84431D01*
X81819D02*
Y10700D01*
X84431D01*
X90725Y9785D02*
Y11335D01*
X87525Y9785D02*
X90725D01*
X87525D02*
Y11335D01*
X90725D01*
X102539Y5375D02*
X105047D01*
X102539D02*
Y9683D01*
X105047D01*
Y5375D02*
Y9683D01*
X101775Y13462D02*
X108475D01*
Y16582D01*
X101775D02*
X108475D01*
X101775Y13462D02*
Y16582D01*
X81819Y57936D02*
X84431D01*
X81819Y56386D02*
Y57936D01*
Y56386D02*
X84431D01*
Y57936D01*
X86725Y50346D02*
Y52546D01*
X81525Y50346D02*
X86725D01*
X81525D02*
Y52546D01*
X86725D01*
X90725Y56640D02*
Y58190D01*
X87525Y56640D02*
X90725D01*
X87525D02*
Y58190D01*
X90725D01*
X86725Y59744D02*
Y61944D01*
X81525Y59744D02*
X86725D01*
X81525D02*
Y61944D01*
X86725D01*
X102446Y52820D02*
X104954D01*
X102446D02*
Y57128D01*
X104954D01*
Y52820D02*
Y57128D01*
X101775Y60780D02*
Y63900D01*
X108475D01*
Y60780D02*
Y63900D01*
X101775Y60780D02*
X108475D01*
X81525Y46749D02*
X86725D01*
X81525Y44549D02*
Y46749D01*
Y44549D02*
X86725D01*
Y46749D01*
Y34389D02*
Y36589D01*
X81525Y34389D02*
X86725D01*
X81525D02*
Y36589D01*
X86725D01*
X81819Y42868D02*
X84431D01*
X81819Y41318D02*
Y42868D01*
Y41318D02*
X84431D01*
Y42868D01*
X101775Y119263D02*
Y122383D01*
X108475D01*
Y119263D02*
Y122383D01*
X101775Y119263D02*
X108475D01*
X105229Y111049D02*
Y115357D01*
X102721D02*
X105229D01*
X102721Y111049D02*
Y115357D01*
Y111049D02*
X105229D01*
X136180Y179109D02*
Y180809D01*
X138980D01*
Y179109D02*
Y180809D01*
X136180Y179109D02*
X138980D01*
X136180Y176696D02*
Y178396D01*
X138980D01*
Y176696D02*
Y178396D01*
X136180Y176696D02*
X138980D01*
X85857Y174260D02*
Y175960D01*
X88657D01*
Y174260D02*
Y175960D01*
X85857Y174260D02*
X88657D01*
X85417Y23650D02*
Y25350D01*
X88217D01*
Y23650D02*
Y25350D01*
X85417Y23650D02*
X88217D01*
X164459Y138164D02*
X168136Y141841D01*
X164459Y138164D02*
X166014Y136609D01*
X169691Y140286D01*
X168136Y141841D02*
X169691Y140286D01*
X165121Y167346D02*
Y171654D01*
Y167346D02*
X167629D01*
Y171654D01*
X165121D02*
X167629D01*
X156396D02*
X158904D01*
Y167346D02*
Y171654D01*
X156396Y167346D02*
X158904D01*
X156396D02*
Y171654D01*
X183046Y171604D02*
X185554D01*
Y167296D02*
Y171604D01*
X183046Y167296D02*
X185554D01*
X183046D02*
Y171604D01*
X139501Y193417D02*
X142009D01*
Y189108D02*
Y193417D01*
X139501Y189108D02*
X142009D01*
X139501D02*
Y193417D01*
X145586Y186929D02*
X149894D01*
X145586Y184420D02*
Y186929D01*
Y184420D02*
X149894D01*
Y186929D01*
X102749Y157130D02*
X105257D01*
X102749D02*
Y161438D01*
X105257D01*
Y157130D02*
Y161438D01*
X87525Y165159D02*
X90725D01*
X87525Y163609D02*
Y165159D01*
Y163609D02*
X90725D01*
Y165159D01*
X81819Y164982D02*
X84431D01*
X81819Y163432D02*
Y164982D01*
Y163432D02*
X84431D01*
Y164982D01*
X16171Y173302D02*
Y176710D01*
Y173302D02*
X18079D01*
Y176710D01*
X16171D02*
X18079D01*
X16171Y128355D02*
Y131763D01*
Y128355D02*
X18079D01*
Y131763D01*
X16171D02*
X18079D01*
X81421Y82290D02*
X84829D01*
Y84198D01*
X81421D02*
X84829D01*
X81421Y82290D02*
Y84198D01*
X16171Y23433D02*
Y26842D01*
Y23433D02*
X18079D01*
Y26842D01*
X16171D02*
X18079D01*
X105429Y186921D02*
Y191229D01*
X102921D02*
X105429D01*
X102921Y186921D02*
Y191229D01*
Y186921D02*
X105429D01*
X90725Y192556D02*
Y194106D01*
X87525Y192556D02*
X90725D01*
X87525D02*
Y194106D01*
X90725D01*
X87525Y87822D02*
X90725D01*
X87525Y86272D02*
Y87822D01*
Y86272D02*
X90725D01*
Y87822D01*
X81819Y194106D02*
X84431D01*
X81819Y192556D02*
Y194106D01*
Y192556D02*
X84431D01*
Y194106D01*
X81819Y87822D02*
X84431D01*
X81819Y86272D02*
Y87822D01*
Y86272D02*
X84431D01*
Y87822D01*
X87525Y116300D02*
X90725D01*
X87525Y114750D02*
Y116300D01*
Y114750D02*
X90725D01*
Y116300D01*
X81819D02*
X84431D01*
X81819Y114750D02*
Y116300D01*
Y114750D02*
X84431D01*
Y116300D01*
X105310Y35394D02*
Y39702D01*
X102801D02*
X105310D01*
X102801Y35394D02*
Y39702D01*
Y35394D02*
X105310D01*
X87525Y42982D02*
X90725D01*
X87525Y41432D02*
Y42982D01*
Y41432D02*
X90725D01*
Y42982D01*
X87525Y147791D02*
X90725D01*
X87525Y146241D02*
Y147791D01*
Y146241D02*
X90725D01*
Y147791D01*
X81819Y147410D02*
X84431D01*
X81819Y145860D02*
Y147410D01*
Y145860D02*
X84431D01*
Y147410D01*
X81525Y156794D02*
X86725D01*
X81525Y154594D02*
Y156794D01*
Y154594D02*
X86725D01*
Y156794D01*
X81525Y168355D02*
X86725D01*
X81525Y166155D02*
Y168355D01*
Y166155D02*
X86725D01*
Y168355D01*
X101775Y165217D02*
X108475D01*
Y168337D01*
X101775D02*
X108475D01*
X101775Y165217D02*
Y168337D01*
X86475Y185500D02*
Y187700D01*
X81275Y185500D02*
X86475D01*
X81275D02*
Y187700D01*
X86475D01*
X81525Y197860D02*
X86725D01*
X81525Y195660D02*
Y197860D01*
Y195660D02*
X86725D01*
Y197860D01*
X81525Y90702D02*
X86725D01*
X81525Y88502D02*
Y90702D01*
Y88502D02*
X86725D01*
Y90702D01*
X101775Y195016D02*
X108475D01*
Y198136D01*
X101775D02*
X108475D01*
X101775Y195016D02*
Y198136D01*
Y89256D02*
X108475D01*
Y92376D01*
X101775D02*
X108475D01*
X101775Y89256D02*
Y92376D01*
X81525Y110783D02*
X86725D01*
X81525Y108583D02*
Y110783D01*
Y108583D02*
X86725D01*
Y110783D01*
X81525Y119927D02*
X86725D01*
X81525Y117727D02*
Y119927D01*
Y117727D02*
X86725D01*
Y119927D01*
X81525Y141893D02*
X86725D01*
X81525Y139693D02*
Y141893D01*
Y139693D02*
X86725D01*
Y141893D01*
X81525Y151164D02*
X86725D01*
X81525Y148964D02*
Y151164D01*
Y148964D02*
X86725D01*
Y151164D01*
X101775Y149992D02*
X108475D01*
Y153112D01*
X101775D02*
X108475D01*
X101775Y149992D02*
Y153112D01*
Y43511D02*
X108475D01*
Y46631D01*
X101775D02*
X108475D01*
X101775Y43511D02*
Y46631D01*
X165097Y172904D02*
Y177210D01*
Y172904D02*
X167653D01*
Y177210D01*
X165097D02*
X167653D01*
X156447Y172904D02*
Y177210D01*
Y172904D02*
X159003D01*
Y177210D01*
X156447D02*
X159003D01*
X183022Y172904D02*
Y177210D01*
Y172904D02*
X185578D01*
Y177210D01*
X183022D02*
X185578D01*
X189250Y92400D02*
Y99100D01*
X185650D02*
X189250D01*
X185650Y92400D02*
Y99100D01*
Y92400D02*
X189250D01*
%TF.MD5,aa1ed0730c7c0ef443010a39dff34534*%
M02*
