%TF.GenerationSoftware,Altium Limited,Altium Designer,21.6.4 (81)*%
G04 Layer_Color=255*
%FSLAX43Y43*%
%MOMM*%
%TF.SameCoordinates,A962B9D3-E780-4B03-8A10-E236CC36F35F*%
%TF.FilePolarity,Positive*%
%TF.FileFunction,Pads,Top*%
%TF.Part,Single*%
G01*
G75*
%TA.AperFunction,SMDPad,CuDef*%
%ADD11R,0.850X0.900*%
%ADD12R,1.157X1.508*%
%ADD13R,1.524X1.524*%
%ADD14P,2.155X4X270.0*%
%ADD15R,1.200X1.100*%
%ADD16R,1.508X1.157*%
%ADD17R,4.000X2.000*%
%ADD18R,2.108X1.397*%
%TA.AperFunction,ComponentPad*%
%ADD40C,2.286*%
%ADD41C,2.000*%
%ADD42O,5.080X8.890*%
%ADD43C,1.524*%
%ADD44C,6.350*%
%ADD45O,3.556X3.810*%
%ADD46R,1.500X1.500*%
%ADD47C,1.500*%
%ADD48C,1.950*%
G04:AMPARAMS|DCode=49|XSize=1.95mm|YSize=1.95mm|CornerRadius=0.488mm|HoleSize=0mm|Usage=FLASHONLY|Rotation=0.000|XOffset=0mm|YOffset=0mm|HoleType=Round|Shape=RoundedRectangle|*
%AMROUNDEDRECTD49*
21,1,1.950,0.975,0,0,0.0*
21,1,0.975,1.950,0,0,0.0*
1,1,0.975,0.488,-0.488*
1,1,0.975,-0.488,-0.488*
1,1,0.975,-0.488,0.488*
1,1,0.975,0.488,0.488*
%
%ADD49ROUNDEDRECTD49*%
%ADD50O,5.334X4.318*%
%ADD51C,1.600*%
G04:AMPARAMS|DCode=52|XSize=1.6mm|YSize=1.6mm|CornerRadius=0.4mm|HoleSize=0mm|Usage=FLASHONLY|Rotation=270.000|XOffset=0mm|YOffset=0mm|HoleType=Round|Shape=RoundedRectangle|*
%AMROUNDEDRECTD52*
21,1,1.600,0.800,0,0,270.0*
21,1,0.800,1.600,0,0,270.0*
1,1,0.800,-0.400,-0.400*
1,1,0.800,-0.400,0.400*
1,1,0.800,0.400,0.400*
1,1,0.800,0.400,-0.400*
%
%ADD52ROUNDEDRECTD52*%
%ADD53C,6.604*%
%ADD54O,4.826X6.350*%
%ADD55C,3.048*%
%ADD56O,6.350X4.826*%
%ADD57R,1.550X1.550*%
%ADD58C,1.550*%
%ADD59O,2.286X1.778*%
%ADD60C,4.572*%
%ADD61O,2.032X1.524*%
%ADD62R,2.286X2.286*%
%ADD63C,1.200*%
%ADD64R,1.200X1.200*%
G04:AMPARAMS|DCode=65|XSize=1.6mm|YSize=1.6mm|CornerRadius=0.4mm|HoleSize=0mm|Usage=FLASHONLY|Rotation=180.000|XOffset=0mm|YOffset=0mm|HoleType=Round|Shape=RoundedRectangle|*
%AMROUNDEDRECTD65*
21,1,1.600,0.800,0,0,180.0*
21,1,0.800,1.600,0,0,180.0*
1,1,0.800,-0.400,0.400*
1,1,0.800,0.400,0.400*
1,1,0.800,0.400,-0.400*
1,1,0.800,-0.400,-0.400*
%
%ADD65ROUNDEDRECTD65*%
%ADD66R,1.550X1.550*%
G04:AMPARAMS|DCode=67|XSize=1.95mm|YSize=1.95mm|CornerRadius=0.488mm|HoleSize=0mm|Usage=FLASHONLY|Rotation=90.000|XOffset=0mm|YOffset=0mm|HoleType=Round|Shape=RoundedRectangle|*
%AMROUNDEDRECTD67*
21,1,1.950,0.975,0,0,90.0*
21,1,0.975,1.950,0,0,90.0*
1,1,0.975,0.488,0.488*
1,1,0.975,0.488,-0.488*
1,1,0.975,-0.488,-0.488*
1,1,0.975,-0.488,0.488*
%
%ADD67ROUNDEDRECTD67*%
D11*
X180401Y67075D02*
D03*
X181951D02*
D03*
D12*
X175724D02*
D03*
X177876D02*
D03*
D13*
X151375Y63025D02*
D03*
Y58199D02*
D03*
D14*
X185619Y104793D02*
D03*
X189032Y108206D02*
D03*
D15*
X182995Y184875D02*
D03*
Y186975D02*
D03*
X195475Y184850D02*
D03*
Y186950D02*
D03*
X188700Y184875D02*
D03*
Y186975D02*
D03*
X185535D02*
D03*
Y184875D02*
D03*
X180455D02*
D03*
Y186975D02*
D03*
D16*
X202299Y177808D02*
D03*
Y179959D02*
D03*
D17*
X130625Y52600D02*
D03*
X123525D02*
D03*
D18*
X170828Y176149D02*
D03*
Y171679D02*
D03*
X179922D02*
D03*
Y176149D02*
D03*
X153175D02*
D03*
Y171679D02*
D03*
X162269D02*
D03*
Y176149D02*
D03*
X188481D02*
D03*
Y171679D02*
D03*
X197575D02*
D03*
Y176149D02*
D03*
D40*
X123450Y119550D02*
D03*
X109125Y84425D02*
D03*
Y117150D02*
D03*
X86122Y87054D02*
D03*
X77775Y86774D02*
D03*
X86000Y112231D02*
D03*
X91500Y117827D02*
D03*
X86012Y116150D02*
D03*
X177550Y104150D02*
D03*
X109125Y56025D02*
D03*
X45125Y71175D02*
D03*
Y130025D02*
D03*
X86100Y189213D02*
D03*
X86000Y6885D02*
D03*
X45125Y176600D02*
D03*
X86125Y158996D02*
D03*
X86275Y10968D02*
D03*
X86175Y143675D02*
D03*
X86101Y83176D02*
D03*
X86000Y38091D02*
D03*
X108875Y145225D02*
D03*
X45375Y25700D02*
D03*
X86012Y147516D02*
D03*
X79550Y168150D02*
D03*
X79582Y62525D02*
D03*
X86025Y53996D02*
D03*
X45125Y161355D02*
D03*
Y56636D02*
D03*
X108940Y160400D02*
D03*
X86000Y163965D02*
D03*
X86012Y58015D02*
D03*
X92100Y164250D02*
D03*
X91700Y59127D02*
D03*
X109125Y190075D02*
D03*
X86100Y193606D02*
D03*
X92250Y195375D02*
D03*
X79450Y121800D02*
D03*
X79325Y17150D02*
D03*
X45125Y116330D02*
D03*
X44881Y11355D02*
D03*
X109125Y8625D02*
D03*
X91600Y12900D02*
D03*
X109125Y38526D02*
D03*
X86000Y42190D02*
D03*
X91627Y149949D02*
D03*
X90825Y45375D02*
D03*
X139815Y183439D02*
D03*
X119495D02*
D03*
X149848D02*
D03*
X129528D02*
D03*
X143803Y172392D02*
D03*
X124249Y172344D02*
D03*
X144895Y183439D02*
D03*
X133973D02*
D03*
X206180Y188920D02*
D03*
X175244Y196825D02*
D03*
X185925Y121950D02*
D03*
X176025Y95875D02*
D03*
D41*
X171950Y67000D02*
D03*
Y55000D02*
D03*
X130500Y22125D02*
D03*
X125500D02*
D03*
X130500Y35650D02*
D03*
X125500D02*
D03*
D42*
X172289Y75093D02*
D03*
X172416Y84999D02*
D03*
D43*
X193879Y78268D02*
D03*
Y80173D02*
D03*
Y82078D02*
D03*
X179250Y57175D02*
D03*
Y54675D02*
D03*
D44*
X108229Y103536D02*
D03*
X115300Y96464D02*
D03*
X145000Y100000D02*
D03*
X155000D02*
D03*
D45*
X204444Y43413D02*
D03*
Y48493D02*
D03*
X211556Y43413D02*
D03*
Y48493D02*
D03*
X204444Y33413D02*
D03*
Y38493D02*
D03*
X211556Y33413D02*
D03*
Y38493D02*
D03*
X204444Y79960D02*
D03*
Y85040D02*
D03*
X211556Y79960D02*
D03*
Y85040D02*
D03*
X204444Y69960D02*
D03*
Y75040D02*
D03*
X211556Y69960D02*
D03*
Y75040D02*
D03*
D46*
X205430Y194750D02*
D03*
X197140D02*
D03*
X122924Y194488D02*
D03*
X151499D02*
D03*
X143244D02*
D03*
X131179D02*
D03*
D47*
X202890Y194750D02*
D03*
X200350D02*
D03*
X194600D02*
D03*
X192060D02*
D03*
X120384Y194488D02*
D03*
X117844D02*
D03*
X148959D02*
D03*
X146419D02*
D03*
X138164D02*
D03*
X140704D02*
D03*
X126099D02*
D03*
X128639D02*
D03*
D48*
X154025Y6500D02*
D03*
X130500D02*
D03*
X164025D02*
D03*
X212575Y162300D02*
D03*
Y157300D02*
D03*
X209500Y124775D02*
D03*
X184500Y6500D02*
D03*
D49*
X149025D02*
D03*
X125500D02*
D03*
X159025D02*
D03*
X179500D02*
D03*
D50*
X207650Y94350D02*
D03*
Y101970D02*
D03*
X7025Y180495D02*
D03*
Y172875D02*
D03*
X7050Y135325D02*
D03*
Y127705D02*
D03*
X6900Y75375D02*
D03*
Y67755D02*
D03*
X6575Y30625D02*
D03*
Y23005D02*
D03*
D51*
X204770Y140525D02*
D03*
Y143065D02*
D03*
Y137985D02*
D03*
Y135445D02*
D03*
X182995Y194742D02*
D03*
X185535D02*
D03*
X180455D02*
D03*
X177915D02*
D03*
X188495Y135435D02*
D03*
Y137975D02*
D03*
Y143055D02*
D03*
Y140515D02*
D03*
X147562Y177089D02*
D03*
Y174549D02*
D03*
X128004Y177089D02*
D03*
Y174549D02*
D03*
D52*
X204770Y145605D02*
D03*
X188495Y145595D02*
D03*
D53*
X134160Y148539D02*
D03*
X156025Y33975D02*
D03*
D54*
X131239Y125171D02*
D03*
X137081Y125298D02*
D03*
D55*
X169625Y136140D02*
D03*
Y116201D02*
D03*
X136339Y64783D02*
D03*
D56*
X179266Y36896D02*
D03*
X179393Y31054D02*
D03*
D57*
X111680Y19775D02*
D03*
Y65375D02*
D03*
Y76375D02*
D03*
Y30775D02*
D03*
Y124625D02*
D03*
Y135525D02*
D03*
Y170825D02*
D03*
Y182225D02*
D03*
X157120Y147850D02*
D03*
X159754Y194488D02*
D03*
X157120Y155873D02*
D03*
D58*
X82570Y19775D02*
D03*
Y65375D02*
D03*
Y76375D02*
D03*
Y30775D02*
D03*
Y124625D02*
D03*
Y135525D02*
D03*
Y170825D02*
D03*
Y182225D02*
D03*
X159660Y147850D02*
D03*
X162200D02*
D03*
X164740D02*
D03*
X167280D02*
D03*
X169820Y147850D02*
D03*
X172454Y194488D02*
D03*
X169914D02*
D03*
X167374D02*
D03*
X164834D02*
D03*
X162294D02*
D03*
X164740Y155873D02*
D03*
X162200D02*
D03*
X159660D02*
D03*
X213775Y178490D02*
D03*
Y175950D02*
D03*
Y173410D02*
D03*
Y170870D02*
D03*
Y168330D02*
D03*
D59*
X50749Y114831D02*
D03*
Y117371D02*
D03*
Y119911D02*
D03*
X38101Y120419D02*
D03*
Y117879D02*
D03*
Y115339D02*
D03*
X37601Y147919D02*
D03*
Y145379D02*
D03*
Y142839D02*
D03*
X50249Y142131D02*
D03*
Y144671D02*
D03*
Y147211D02*
D03*
X51249Y9831D02*
D03*
Y12371D02*
D03*
Y14911D02*
D03*
X38401Y10339D02*
D03*
Y12879D02*
D03*
Y15419D02*
D03*
X38318Y37839D02*
D03*
Y40379D02*
D03*
Y42919D02*
D03*
X50966Y37331D02*
D03*
Y39871D02*
D03*
Y42411D02*
D03*
X37901Y160339D02*
D03*
Y162879D02*
D03*
Y165419D02*
D03*
X37801Y55339D02*
D03*
Y57879D02*
D03*
Y60419D02*
D03*
X50549Y164911D02*
D03*
Y162371D02*
D03*
Y159831D02*
D03*
X50449Y54831D02*
D03*
Y57371D02*
D03*
Y59911D02*
D03*
X37801Y187839D02*
D03*
Y190379D02*
D03*
Y192919D02*
D03*
X37701Y82839D02*
D03*
Y85379D02*
D03*
Y87919D02*
D03*
X50449Y192411D02*
D03*
Y189871D02*
D03*
Y187331D02*
D03*
X50349Y87411D02*
D03*
Y84871D02*
D03*
Y82331D02*
D03*
D60*
X70942Y117371D02*
D03*
X17908Y117879D02*
D03*
X17408Y145379D02*
D03*
X70442Y144671D02*
D03*
X71442Y12371D02*
D03*
X18208Y12879D02*
D03*
X18125Y40379D02*
D03*
X71159Y39871D02*
D03*
X17708Y162879D02*
D03*
X17608Y57879D02*
D03*
X70742Y162371D02*
D03*
X70642Y57371D02*
D03*
X17608Y190379D02*
D03*
X17508Y85379D02*
D03*
X70642Y189871D02*
D03*
X70542Y84871D02*
D03*
D61*
X141800Y67450D02*
D03*
Y64910D02*
D03*
Y62370D02*
D03*
D62*
X179185Y176200D02*
D03*
Y171628D02*
D03*
X171565D02*
D03*
Y176200D02*
D03*
X161532D02*
D03*
Y171628D02*
D03*
X153912D02*
D03*
Y176200D02*
D03*
X196838D02*
D03*
Y171628D02*
D03*
X189218D02*
D03*
Y176200D02*
D03*
D63*
X142355Y187630D02*
D03*
X139815D02*
D03*
X122035D02*
D03*
X119495D02*
D03*
X152388D02*
D03*
X149848D02*
D03*
X132068D02*
D03*
X129528D02*
D03*
D64*
X137275D02*
D03*
X116955D02*
D03*
X147308D02*
D03*
X126988D02*
D03*
D65*
X188075Y194742D02*
D03*
D66*
X213775Y181030D02*
D03*
D67*
X212575Y152300D02*
D03*
X209500Y119775D02*
D03*
%TF.MD5,1eb47c204541642e104ac219f832fafe*%
M02*
