%TF.GenerationSoftware,Altium Limited,Altium Designer,21.6.4 (81)*%
G04 Layer_Color=16711935*
%FSLAX43Y43*%
%MOMM*%
%TF.SameCoordinates,A962B9D3-E780-4B03-8A10-E236CC36F35F*%
%TF.FilePolarity,Positive*%
%TF.FileFunction,Other,Mechanical_5*%
%TF.Part,Single*%
G01*
G75*
G36*
X92587Y6043D02*
X101663D01*
Y12825D01*
X92587D01*
Y6043D01*
D02*
G37*
G36*
Y35965D02*
X101663D01*
Y42747D01*
X92587D01*
Y35965D01*
D02*
G37*
G36*
Y53234D02*
X101663D01*
Y60016D01*
X92587D01*
Y53234D01*
D02*
G37*
G36*
Y81710D02*
X101663D01*
Y88492D01*
X92587D01*
Y81710D01*
D02*
G37*
G36*
Y111463D02*
X101663D01*
Y118245D01*
X92587D01*
Y111463D01*
D02*
G37*
G36*
Y142319D02*
X101663D01*
Y149101D01*
X92587D01*
Y142319D01*
D02*
G37*
G36*
Y157544D02*
X101663D01*
Y164326D01*
X92587D01*
Y157544D01*
D02*
G37*
G36*
Y187470D02*
X101663D01*
Y194252D01*
X92587D01*
Y187470D01*
D02*
G37*
G36*
X163716Y170282D02*
X151728D01*
Y177546D01*
X163716D01*
Y170282D01*
D02*
G37*
G36*
X181369D02*
X169381D01*
Y177546D01*
X181369D01*
Y170282D01*
D02*
G37*
G36*
X199022D02*
X187034D01*
Y177546D01*
X199022D01*
Y170282D01*
D02*
G37*
%TF.MD5,1f6e4d17c1ea0c77f5c833205adb9e4e*%
M02*
