%TF.GenerationSoftware,Altium Limited,Altium Designer,21.6.4 (81)*%
G04 Layer_Color=16711935*
%FSLAX43Y43*%
%MOMM*%
%TF.SameCoordinates,A962B9D3-E780-4B03-8A10-E236CC36F35F*%
%TF.FilePolarity,Positive*%
%TF.FileFunction,Other,Mechanical_13*%
%TF.Part,Single*%
G01*
G75*
%TA.AperFunction,NonConductor*%
%ADD139C,0.200*%
%ADD143C,0.076*%
%ADD185C,0.100*%
%ADD201C,0.000*%
%ADD202C,0.025*%
D139*
X145403Y173660D02*
X149721D01*
Y177978D01*
X145403D02*
X149721D01*
X145403Y173660D02*
Y177978D01*
X125845Y173660D02*
X130163D01*
Y177978D01*
X125845D02*
X130163D01*
X125845Y173660D02*
Y177978D01*
D143*
X99055Y11256D02*
X98522Y10723D01*
X99055D02*
X98522Y11256D01*
X99055Y10990D02*
X98522D01*
X98789Y10723D02*
Y11256D01*
X99055Y58447D02*
X98522Y57914D01*
X99055D02*
X98522Y58447D01*
X99055Y58181D02*
X98522D01*
X98789Y57914D02*
Y58447D01*
X99055Y116676D02*
X98522Y116143D01*
X99055D02*
X98522Y116676D01*
X99055Y116409D02*
X98522D01*
X98789Y116143D02*
Y116676D01*
X172441Y175939D02*
X172975Y175406D01*
X172441D02*
X172975Y175939D01*
X172441Y175673D02*
X172975D01*
X172708Y175406D02*
Y175939D01*
X154788D02*
X155322Y175406D01*
X154788D02*
X155322Y175939D01*
X154788Y175673D02*
X155322D01*
X155055Y175406D02*
Y175939D01*
X190094D02*
X190628Y175406D01*
X190094D02*
X190628Y175939D01*
X190094Y175673D02*
X190628D01*
X190361Y175406D02*
Y175939D01*
X99055Y162757D02*
X98522Y162224D01*
X99055D02*
X98522Y162757D01*
X99055Y162491D02*
X98522D01*
X98789Y162224D02*
Y162757D01*
X99055Y192683D02*
X98522Y192150D01*
X99055D02*
X98522Y192683D01*
X99055Y192417D02*
X98522D01*
X98789Y192150D02*
Y192683D01*
X99055Y86923D02*
X98522Y86390D01*
X99055D02*
X98522Y86923D01*
X99055Y86657D02*
X98522D01*
X98789Y86390D02*
Y86923D01*
X99055Y147532D02*
X98522Y146999D01*
X99055D02*
X98522Y147532D01*
X99055Y147266D02*
X98522D01*
X98789Y146999D02*
Y147532D01*
X99055Y41178D02*
X98522Y40645D01*
X99055D02*
X98522Y41178D01*
X99055Y40912D02*
X98522D01*
X98789Y40645D02*
Y41178D01*
D185*
X178100Y93450D02*
Y97150D01*
X184800Y93450D02*
Y97150D01*
X178100D02*
X184800D01*
X178100Y93450D02*
X184800D01*
X199060Y191550D02*
X206720D01*
Y197350D01*
X199060D02*
X206720D01*
X199060Y191550D02*
Y197350D01*
X190770Y191550D02*
X198430D01*
Y197350D01*
X190770D02*
X198430D01*
X190770Y191550D02*
Y197350D01*
X116554Y191288D02*
X124214D01*
Y197088D01*
X116554D02*
X124214D01*
X116554Y191288D02*
Y197088D01*
X145129Y191288D02*
X152789D01*
Y197088D01*
X145129D02*
X152789D01*
X145129Y191288D02*
Y197088D01*
X200440Y172206D02*
X201710Y173475D01*
X200440D02*
X205340D01*
Y169576D02*
Y173475D01*
X200440Y169576D02*
X205340D01*
X200440D02*
Y173475D01*
X206863Y160322D02*
X207363Y160822D01*
X206113Y160322D02*
X207363D01*
X206113D02*
Y162022D01*
X207363D01*
Y160322D02*
Y162022D01*
X206163Y166347D02*
X206663Y166847D01*
X206163D02*
X207413D01*
Y165147D02*
Y166847D01*
X206163Y165147D02*
X207413D01*
X206163D02*
Y166847D01*
X182881Y105069D02*
X184543D01*
X180672Y107279D02*
X183712Y104238D01*
X180672Y107279D02*
X185833Y112440D01*
X188874Y109400D01*
X183712Y104238D02*
X188874Y109400D01*
X90934Y133498D02*
X92734D01*
X90934Y130398D02*
X92734D01*
Y133498D01*
X90934Y130398D02*
Y133498D01*
X91425Y179548D02*
X93225D01*
X91425Y176448D02*
X93225D01*
Y179548D01*
X91425Y176448D02*
Y179548D01*
X90979Y74475D02*
X92779D01*
X90979Y71375D02*
X92779D01*
Y74475D01*
X90979Y71375D02*
Y74475D01*
X90562Y29325D02*
X92362D01*
X90562Y26225D02*
X92362D01*
Y29325D01*
X90562Y26225D02*
Y29325D01*
X136874Y191288D02*
Y197088D01*
X144534D01*
Y191288D02*
Y197088D01*
X136874Y191288D02*
X144534D01*
X124809D02*
Y197088D01*
X132469D01*
Y191288D02*
Y197088D01*
X124809Y191288D02*
X132469D01*
X155660Y157143D02*
X166200Y157143D01*
X155660Y154603D02*
Y157143D01*
Y154603D02*
X166200Y154603D01*
Y157143D01*
D201*
X170561Y129563D02*
G03*
X170561Y129563I-76J0D01*
G01*
X96820Y11936D02*
G03*
X97430Y11936I305J0D01*
G01*
X96820Y59127D02*
G03*
X97430Y59127I305J0D01*
G01*
X96820Y117356D02*
G03*
X97430Y117356I305J0D01*
G01*
X177128Y173914D02*
G03*
X177128Y173914I-1753J0D01*
G01*
X159475D02*
G03*
X159475Y173914I-1753J0D01*
G01*
X194781D02*
G03*
X194781Y173914I-1753J0D01*
G01*
X96820Y163437D02*
G03*
X97430Y163437I305J0D01*
G01*
X96820Y193363D02*
G03*
X97430Y193363I305J0D01*
G01*
X96820Y87603D02*
G03*
X97430Y87603I305J0D01*
G01*
X96820Y148212D02*
G03*
X97430Y148212I305J0D01*
G01*
X96820Y41858D02*
G03*
X97430Y41858I305J0D01*
G01*
D202*
X170295Y130567D02*
X175378Y125484D01*
X165212D02*
X170295Y130567D01*
X165212Y125484D02*
X170295Y120401D01*
X175378Y125484D01*
X169397Y129669D02*
X171193Y129669D01*
X99119Y6932D02*
Y11936D01*
X95131D02*
X99119D01*
X95131Y6932D02*
Y11936D01*
Y6932D02*
X99119D01*
X94026Y11593D02*
X95131D01*
X94026Y11085D02*
Y11593D01*
Y11085D02*
X95131D01*
Y11593D01*
X94026Y10323D02*
X95131D01*
X94026Y9815D02*
Y10323D01*
Y9815D02*
X95131D01*
Y10323D01*
X94026Y9053D02*
X95131D01*
X94026Y8545D02*
Y9053D01*
Y8545D02*
X95131D01*
Y9053D01*
X94026Y7783D02*
X95131D01*
X94026Y7275D02*
Y7783D01*
Y7275D02*
X95131D01*
Y7783D01*
X99119Y7275D02*
X100224D01*
Y7783D01*
X99119D02*
X100224D01*
X99119Y7275D02*
Y7783D01*
Y8545D02*
X100224D01*
Y9053D01*
X99119D02*
X100224D01*
X99119Y8545D02*
Y9053D01*
Y9815D02*
X100224D01*
Y10323D01*
X99119D02*
X100224D01*
X99119Y9815D02*
Y10323D01*
Y11085D02*
X100224D01*
Y11593D01*
X99119D02*
X100224D01*
X99119Y11085D02*
Y11593D01*
Y54123D02*
Y59127D01*
X95131D02*
X99119D01*
X95131Y54123D02*
Y59127D01*
Y54123D02*
X99119D01*
X94026Y58784D02*
X95131D01*
X94026Y58276D02*
Y58784D01*
Y58276D02*
X95131D01*
Y58784D01*
X94026Y57514D02*
X95131D01*
X94026Y57006D02*
Y57514D01*
Y57006D02*
X95131D01*
Y57514D01*
X94026Y56244D02*
X95131D01*
X94026Y55736D02*
Y56244D01*
Y55736D02*
X95131D01*
Y56244D01*
X94026Y54974D02*
X95131D01*
X94026Y54466D02*
Y54974D01*
Y54466D02*
X95131D01*
Y54974D01*
X99119Y54466D02*
X100224D01*
Y54974D01*
X99119D02*
X100224D01*
X99119Y54466D02*
Y54974D01*
Y55736D02*
X100224D01*
Y56244D01*
X99119D02*
X100224D01*
X99119Y55736D02*
Y56244D01*
Y57006D02*
X100224D01*
Y57514D01*
X99119D02*
X100224D01*
X99119Y57006D02*
Y57514D01*
Y58276D02*
X100224D01*
Y58784D01*
X99119D02*
X100224D01*
X99119Y58276D02*
Y58784D01*
Y116505D02*
Y117013D01*
X100224D01*
Y116505D02*
Y117013D01*
X99119Y116505D02*
X100224D01*
X99119Y115235D02*
Y115743D01*
X100224D01*
Y115235D02*
Y115743D01*
X99119Y115235D02*
X100224D01*
X99119Y113965D02*
Y114473D01*
X100224D01*
Y113965D02*
Y114473D01*
X99119Y113965D02*
X100224D01*
X99119Y112695D02*
Y113203D01*
X100224D01*
Y112695D02*
Y113203D01*
X99119Y112695D02*
X100224D01*
X95131D02*
Y113203D01*
X94026Y112695D02*
X95131D01*
X94026D02*
Y113203D01*
X95131D01*
Y113965D02*
Y114473D01*
X94026Y113965D02*
X95131D01*
X94026D02*
Y114473D01*
X95131D01*
Y115235D02*
Y115743D01*
X94026Y115235D02*
X95131D01*
X94026D02*
Y115743D01*
X95131D01*
Y116505D02*
Y117013D01*
X94026Y116505D02*
X95131D01*
X94026D02*
Y117013D01*
X95131D01*
Y112352D02*
X99119D01*
X95131D02*
Y117356D01*
X99119D01*
Y112352D02*
Y117356D01*
X172378Y175806D02*
Y176518D01*
X170371D02*
X172378D01*
X170371Y175806D02*
Y176518D01*
Y175806D02*
X172378D01*
Y171311D02*
Y172022D01*
X170371D02*
X172378D01*
X170371Y171311D02*
Y172022D01*
Y171311D02*
X172378D01*
X178372D02*
Y172022D01*
Y171311D02*
X180379D01*
Y172022D01*
X178372D02*
X180379D01*
X178372Y175806D02*
Y176518D01*
Y175806D02*
X180379D01*
Y176518D01*
X178372D02*
X180379D01*
X172378Y170917D02*
X178372D01*
Y176911D01*
X172378D02*
X178372D01*
X172378Y170917D02*
Y176911D01*
X154725Y175806D02*
Y176518D01*
X152718D02*
X154725D01*
X152718Y175806D02*
Y176518D01*
Y175806D02*
X154725D01*
Y171311D02*
Y172022D01*
X152718D02*
X154725D01*
X152718Y171311D02*
Y172022D01*
Y171311D02*
X154725D01*
X160719D02*
Y172022D01*
Y171311D02*
X162726D01*
Y172022D01*
X160719D02*
X162726D01*
X160719Y175806D02*
Y176518D01*
Y175806D02*
X162726D01*
Y176518D01*
X160719D02*
X162726D01*
X154725Y170917D02*
X160719D01*
Y176911D01*
X154725D02*
X160719D01*
X154725Y170917D02*
Y176911D01*
X190031Y175806D02*
Y176518D01*
X188024D02*
X190031D01*
X188024Y175806D02*
Y176518D01*
Y175806D02*
X190031D01*
Y171311D02*
Y172022D01*
X188024D02*
X190031D01*
X188024Y171311D02*
Y172022D01*
Y171311D02*
X190031D01*
X196025D02*
Y172022D01*
Y171311D02*
X198032D01*
Y172022D01*
X196025D02*
X198032D01*
X196025Y175806D02*
Y176518D01*
Y175806D02*
X198032D01*
Y176518D01*
X196025D02*
X198032D01*
X190031Y170917D02*
X196025D01*
Y176911D01*
X190031D02*
X196025D01*
X190031Y170917D02*
Y176911D01*
X99119Y162586D02*
Y163094D01*
X100224D01*
Y162586D02*
Y163094D01*
X99119Y162586D02*
X100224D01*
X99119Y161316D02*
Y161824D01*
X100224D01*
Y161316D02*
Y161824D01*
X99119Y161316D02*
X100224D01*
X99119Y160046D02*
Y160554D01*
X100224D01*
Y160046D02*
Y160554D01*
X99119Y160046D02*
X100224D01*
X99119Y158776D02*
Y159284D01*
X100224D01*
Y158776D02*
Y159284D01*
X99119Y158776D02*
X100224D01*
X95131D02*
Y159284D01*
X94026Y158776D02*
X95131D01*
X94026D02*
Y159284D01*
X95131D01*
Y160046D02*
Y160554D01*
X94026Y160046D02*
X95131D01*
X94026D02*
Y160554D01*
X95131D01*
Y161316D02*
Y161824D01*
X94026Y161316D02*
X95131D01*
X94026D02*
Y161824D01*
X95131D01*
Y162586D02*
Y163094D01*
X94026Y162586D02*
X95131D01*
X94026D02*
Y163094D01*
X95131D01*
Y158433D02*
X99119D01*
X95131D02*
Y163437D01*
X99119D01*
Y158433D02*
Y163437D01*
Y192512D02*
Y193020D01*
X100224D01*
Y192512D02*
Y193020D01*
X99119Y192512D02*
X100224D01*
X99119Y191242D02*
Y191750D01*
X100224D01*
Y191242D02*
Y191750D01*
X99119Y191242D02*
X100224D01*
X99119Y189972D02*
Y190480D01*
X100224D01*
Y189972D02*
Y190480D01*
X99119Y189972D02*
X100224D01*
X99119Y188702D02*
Y189210D01*
X100224D01*
Y188702D02*
Y189210D01*
X99119Y188702D02*
X100224D01*
X95131D02*
Y189210D01*
X94026Y188702D02*
X95131D01*
X94026D02*
Y189210D01*
X95131D01*
Y189972D02*
Y190480D01*
X94026Y189972D02*
X95131D01*
X94026D02*
Y190480D01*
X95131D01*
Y191242D02*
Y191750D01*
X94026Y191242D02*
X95131D01*
X94026D02*
Y191750D01*
X95131D01*
Y192512D02*
Y193020D01*
X94026Y192512D02*
X95131D01*
X94026D02*
Y193020D01*
X95131D01*
Y188359D02*
X99119D01*
X95131D02*
Y193363D01*
X99119D01*
Y188359D02*
Y193363D01*
Y86752D02*
Y87260D01*
X100224D01*
Y86752D02*
Y87260D01*
X99119Y86752D02*
X100224D01*
X99119Y85482D02*
Y85990D01*
X100224D01*
Y85482D02*
Y85990D01*
X99119Y85482D02*
X100224D01*
X99119Y84212D02*
Y84720D01*
X100224D01*
Y84212D02*
Y84720D01*
X99119Y84212D02*
X100224D01*
X99119Y82942D02*
Y83450D01*
X100224D01*
Y82942D02*
Y83450D01*
X99119Y82942D02*
X100224D01*
X95131D02*
Y83450D01*
X94026Y82942D02*
X95131D01*
X94026D02*
Y83450D01*
X95131D01*
Y84212D02*
Y84720D01*
X94026Y84212D02*
X95131D01*
X94026D02*
Y84720D01*
X95131D01*
Y85482D02*
Y85990D01*
X94026Y85482D02*
X95131D01*
X94026D02*
Y85990D01*
X95131D01*
Y86752D02*
Y87260D01*
X94026Y86752D02*
X95131D01*
X94026D02*
Y87260D01*
X95131D01*
Y82599D02*
X99119D01*
X95131D02*
Y87603D01*
X99119D01*
Y82599D02*
Y87603D01*
Y147361D02*
Y147869D01*
X100224D01*
Y147361D02*
Y147869D01*
X99119Y147361D02*
X100224D01*
X99119Y146091D02*
Y146599D01*
X100224D01*
Y146091D02*
Y146599D01*
X99119Y146091D02*
X100224D01*
X99119Y144821D02*
Y145329D01*
X100224D01*
Y144821D02*
Y145329D01*
X99119Y144821D02*
X100224D01*
X99119Y143551D02*
Y144059D01*
X100224D01*
Y143551D02*
Y144059D01*
X99119Y143551D02*
X100224D01*
X95131D02*
Y144059D01*
X94026Y143551D02*
X95131D01*
X94026D02*
Y144059D01*
X95131D01*
Y144821D02*
Y145329D01*
X94026Y144821D02*
X95131D01*
X94026D02*
Y145329D01*
X95131D01*
Y146091D02*
Y146599D01*
X94026Y146091D02*
X95131D01*
X94026D02*
Y146599D01*
X95131D01*
Y147361D02*
Y147869D01*
X94026Y147361D02*
X95131D01*
X94026D02*
Y147869D01*
X95131D01*
Y143208D02*
X99119D01*
X95131D02*
Y148212D01*
X99119D01*
Y143208D02*
Y148212D01*
Y41007D02*
Y41515D01*
X100224D01*
Y41007D02*
Y41515D01*
X99119Y41007D02*
X100224D01*
X99119Y39737D02*
Y40245D01*
X100224D01*
Y39737D02*
Y40245D01*
X99119Y39737D02*
X100224D01*
X99119Y38467D02*
Y38975D01*
X100224D01*
Y38467D02*
Y38975D01*
X99119Y38467D02*
X100224D01*
X99119Y37197D02*
Y37705D01*
X100224D01*
Y37197D02*
Y37705D01*
X99119Y37197D02*
X100224D01*
X95131D02*
Y37705D01*
X94026Y37197D02*
X95131D01*
X94026D02*
Y37705D01*
X95131D01*
Y38467D02*
Y38975D01*
X94026Y38467D02*
X95131D01*
X94026D02*
Y38975D01*
X95131D01*
Y39737D02*
Y40245D01*
X94026Y39737D02*
X95131D01*
X94026D02*
Y40245D01*
X95131D01*
Y41007D02*
Y41515D01*
X94026Y41007D02*
X95131D01*
X94026D02*
Y41515D01*
X95131D01*
Y36854D02*
X99119D01*
X95131D02*
Y41858D01*
X99119D01*
Y36854D02*
Y41858D01*
%TF.MD5,1fd2536e4ee163a5c5ec4b1ae7557d94*%
M02*
