%TF.GenerationSoftware,Altium Limited,Altium Designer,21.6.4 (81)*%
G04 Layer_Color=16711935*
%FSLAX43Y43*%
%MOMM*%
%TF.SameCoordinates,A962B9D3-E780-4B03-8A10-E236CC36F35F*%
%TF.FilePolarity,Positive*%
%TF.FileFunction,Other,Mechanical_1*%
%TF.Part,Single*%
G01*
G75*
%TA.AperFunction,NonConductor*%
%ADD141C,0.254*%
%ADD185C,0.100*%
D141*
X209818Y45953D02*
G03*
X209818Y45953I-1818J0D01*
G01*
Y35953D02*
G03*
X209818Y35953I-1818J0D01*
G01*
X196500Y100000D02*
G03*
X196500Y100000I-1500J0D01*
G01*
X209818Y82500D02*
G03*
X209818Y82500I-1818J0D01*
G01*
Y72500D02*
G03*
X209818Y72500I-1818J0D01*
G01*
X213650Y5125D02*
G03*
X213650Y5125I-1500J0D01*
G01*
Y195125D02*
G03*
X213650Y195125I-1500J0D01*
G01*
X6650Y5125D02*
G03*
X6650Y5125I-1500J0D01*
G01*
X31500Y100125D02*
G03*
X31500Y100125I-1500J0D01*
G01*
X6650Y195125D02*
G03*
X6650Y195125I-1500J0D01*
G01*
X5150Y200125D02*
G03*
X150Y195125I0J-5000D01*
G01*
X212000Y125D02*
G03*
X217000Y5125I0J5000D01*
G01*
X150D02*
G03*
X5150Y125I5000J0D01*
G01*
X217000Y195125D02*
G03*
X212027Y200125I-5000J0D01*
G01*
X5150Y125D02*
X212125Y125D01*
X125Y195039D02*
X125Y5039D01*
X5150Y200125D02*
X212152Y200125D01*
X217000Y5125D02*
X217000Y195125D01*
D185*
X181869Y93649D02*
X181202D01*
X181069Y93782D01*
Y94049D01*
X181202Y94182D01*
X181869D01*
X181069Y94449D02*
Y94715D01*
Y94582D01*
X181869D01*
X181735Y94449D01*
%TF.MD5,3d21496c7270fc2d3d47cd73a7a985f5*%
M02*
