%TF.GenerationSoftware,Altium Limited,Altium Designer,21.6.4 (81)*%
G04 Layer_Color=16711935*
%FSLAX43Y43*%
%MOMM*%
%TF.SameCoordinates,A962B9D3-E780-4B03-8A10-E236CC36F35F*%
%TF.FilePolarity,Positive*%
%TF.FileFunction,Other,Top_Component_Center*%
%TF.Part,Single*%
G01*
G75*
%TA.AperFunction,NonConductor*%
%ADD185C,0.100*%
%ADD198C,0.050*%
D185*
X96625Y19775D02*
X97625D01*
X97125Y19275D02*
Y20275D01*
Y64875D02*
Y65875D01*
X96625Y65375D02*
X97625D01*
X97125Y75875D02*
Y76875D01*
X96625Y76375D02*
X97625D01*
X97125Y30275D02*
Y31275D01*
X96625Y30775D02*
X97625D01*
X97125Y124125D02*
Y125125D01*
X96625Y124625D02*
X97625D01*
X97125Y135025D02*
Y136025D01*
X96625Y135525D02*
X97625D01*
X97125Y170325D02*
Y171325D01*
X96625Y170825D02*
X97625D01*
X97125Y181725D02*
Y182725D01*
X96625Y182225D02*
X97625D01*
X127075Y52100D02*
Y53100D01*
X126575Y52600D02*
X127575D01*
D198*
X151025Y7000D02*
X152025D01*
X151525Y6500D02*
Y7500D01*
X127500Y7000D02*
X128500D01*
X128000Y6500D02*
Y7500D01*
%TF.MD5,f6ad37171f1ed05223afcafe0cd4d5df*%
M02*
