%TF.GenerationSoftware,Altium Limited,Altium Designer,21.6.4 (81)*%
G04 Layer_Physical_Order=1*
G04 Layer_Color=255*
%FSLAX43Y43*%
%MOMM*%
%TF.SameCoordinates,A962B9D3-E780-4B03-8A10-E236CC36F35F*%
%TF.FilePolarity,Positive*%
%TF.FileFunction,Copper,L1,Top,Signal*%
%TF.Part,Single*%
G01*
G75*
%TA.AperFunction,NonConductor*%
%ADD10C,7.620*%
%TA.AperFunction,SMDPad,CuDef*%
%ADD11R,0.850X0.900*%
%ADD12R,1.157X1.508*%
%ADD13R,1.524X1.524*%
%ADD14P,2.155X4X270.0*%
%ADD15R,1.200X1.100*%
%ADD16R,1.508X1.157*%
%ADD17R,4.000X2.000*%
%ADD18R,2.108X1.397*%
%TA.AperFunction,Conductor*%
%ADD19C,1.000*%
%ADD20C,1.800*%
%ADD21C,0.300*%
%ADD22C,2.000*%
%ADD23C,0.800*%
%ADD24C,0.500*%
%ADD25C,1.500*%
%ADD26C,4.000*%
%ADD27C,0.600*%
%ADD28C,1.200*%
%ADD29R,2.667X5.588*%
%ADD30R,2.667X5.842*%
%ADD31R,5.692X8.382*%
%ADD32R,8.382X5.969*%
%ADD33R,10.863X9.175*%
%ADD34R,10.668X8.890*%
G04:AMPARAMS|DCode=35|XSize=5.588mm|YSize=2.667mm|CornerRadius=0mm|HoleSize=0mm|Usage=FLASHONLY|Rotation=225.000|XOffset=0mm|YOffset=0mm|HoleType=Round|Shape=Rectangle|*
%AMROTATEDRECTD35*
4,1,4,1.033,2.919,2.919,1.033,-1.033,-2.919,-2.919,-1.033,1.033,2.919,0.0*
%
%ADD35ROTATEDRECTD35*%

G04:AMPARAMS|DCode=36|XSize=5.842mm|YSize=2.667mm|CornerRadius=0mm|HoleSize=0mm|Usage=FLASHONLY|Rotation=225.000|XOffset=0mm|YOffset=0mm|HoleType=Round|Shape=Rectangle|*
%AMROTATEDRECTD36*
4,1,4,1.123,3.008,3.008,1.123,-1.123,-3.008,-3.008,-1.123,1.123,3.008,0.0*
%
%ADD36ROTATEDRECTD36*%

%ADD37R,5.969X8.382*%
%TA.AperFunction,NonConductor*%
%ADD38R,8.382X5.969*%
%TA.AperFunction,Conductor*%
%ADD39R,19.812X10.160*%
%TA.AperFunction,ComponentPad*%
%ADD40C,2.286*%
%ADD41C,2.000*%
%ADD42O,5.080X8.890*%
%ADD43C,1.524*%
%ADD44C,6.350*%
%ADD45O,3.556X3.810*%
%ADD46R,1.500X1.500*%
%ADD47C,1.500*%
%ADD48C,1.950*%
G04:AMPARAMS|DCode=49|XSize=1.95mm|YSize=1.95mm|CornerRadius=0.488mm|HoleSize=0mm|Usage=FLASHONLY|Rotation=0.000|XOffset=0mm|YOffset=0mm|HoleType=Round|Shape=RoundedRectangle|*
%AMROUNDEDRECTD49*
21,1,1.950,0.975,0,0,0.0*
21,1,0.975,1.950,0,0,0.0*
1,1,0.975,0.488,-0.488*
1,1,0.975,-0.488,-0.488*
1,1,0.975,-0.488,0.488*
1,1,0.975,0.488,0.488*
%
%ADD49ROUNDEDRECTD49*%
%ADD50O,5.334X4.318*%
%ADD51C,1.600*%
G04:AMPARAMS|DCode=52|XSize=1.6mm|YSize=1.6mm|CornerRadius=0.4mm|HoleSize=0mm|Usage=FLASHONLY|Rotation=270.000|XOffset=0mm|YOffset=0mm|HoleType=Round|Shape=RoundedRectangle|*
%AMROUNDEDRECTD52*
21,1,1.600,0.800,0,0,270.0*
21,1,0.800,1.600,0,0,270.0*
1,1,0.800,-0.400,-0.400*
1,1,0.800,-0.400,0.400*
1,1,0.800,0.400,0.400*
1,1,0.800,0.400,-0.400*
%
%ADD52ROUNDEDRECTD52*%
%ADD53C,6.604*%
%ADD54O,4.826X6.350*%
%ADD55C,3.048*%
%ADD56O,6.350X4.826*%
%ADD57R,1.550X1.550*%
%ADD58C,1.550*%
%ADD59O,2.286X1.778*%
%ADD60C,4.572*%
%ADD61O,2.032X1.524*%
%ADD62R,2.286X2.286*%
%ADD63C,1.200*%
%ADD64R,1.200X1.200*%
G04:AMPARAMS|DCode=65|XSize=1.6mm|YSize=1.6mm|CornerRadius=0.4mm|HoleSize=0mm|Usage=FLASHONLY|Rotation=180.000|XOffset=0mm|YOffset=0mm|HoleType=Round|Shape=RoundedRectangle|*
%AMROUNDEDRECTD65*
21,1,1.600,0.800,0,0,180.0*
21,1,0.800,1.600,0,0,180.0*
1,1,0.800,-0.400,0.400*
1,1,0.800,0.400,0.400*
1,1,0.800,0.400,-0.400*
1,1,0.800,-0.400,-0.400*
%
%ADD65ROUNDEDRECTD65*%
%ADD66R,1.550X1.550*%
G04:AMPARAMS|DCode=67|XSize=1.95mm|YSize=1.95mm|CornerRadius=0.488mm|HoleSize=0mm|Usage=FLASHONLY|Rotation=90.000|XOffset=0mm|YOffset=0mm|HoleType=Round|Shape=RoundedRectangle|*
%AMROUNDEDRECTD67*
21,1,1.950,0.975,0,0,90.0*
21,1,0.975,1.950,0,0,90.0*
1,1,0.975,0.488,0.488*
1,1,0.975,0.488,-0.488*
1,1,0.975,-0.488,-0.488*
1,1,0.975,-0.488,0.488*
%
%ADD67ROUNDEDRECTD67*%
%TA.AperFunction,ViaPad*%
%ADD68C,1.270*%
%TA.AperFunction,TestPad*%
%ADD69C,0.700*%
%ADD70C,1.500*%
G36*
X217250Y0D02*
X1D01*
X0Y2D01*
Y200250D01*
X217250D01*
Y0D01*
D02*
G37*
%LPC*%
G36*
X175408Y198068D02*
X175080D01*
X174764Y197983D01*
X174481Y197820D01*
X174249Y197588D01*
X174162Y197437D01*
X162294D01*
X162294Y197437D01*
X118430D01*
X118196Y197390D01*
X117997Y197258D01*
X117411Y196672D01*
X117279Y196473D01*
X117232Y196239D01*
Y195078D01*
X117164Y195010D01*
X117052Y194816D01*
X116994Y194600D01*
Y194376D01*
X117052Y194160D01*
X117164Y193966D01*
X117322Y193808D01*
X117516Y193696D01*
X117732Y193638D01*
X117956D01*
X118172Y193696D01*
X118366Y193808D01*
X118524Y193966D01*
X118636Y194160D01*
X118694Y194376D01*
Y194600D01*
X118636Y194816D01*
X118524Y195010D01*
X118456Y195078D01*
Y195986D01*
X118683Y196213D01*
X125561D01*
Y195152D01*
X125419Y195010D01*
X125307Y194816D01*
X125249Y194600D01*
Y194376D01*
X125307Y194160D01*
X125419Y193966D01*
X125577Y193808D01*
X125771Y193696D01*
X125987Y193638D01*
X126211D01*
X126427Y193696D01*
X126621Y193808D01*
X126779Y193966D01*
X126891Y194160D01*
X126949Y194376D01*
Y194600D01*
X126891Y194816D01*
X126785Y195000D01*
Y196213D01*
X137552D01*
Y195078D01*
X137484Y195010D01*
X137372Y194816D01*
X137314Y194600D01*
Y194376D01*
X137372Y194160D01*
X137484Y193966D01*
X137642Y193808D01*
X137836Y193696D01*
X138052Y193638D01*
X138276D01*
X138492Y193696D01*
X138686Y193808D01*
X138844Y193966D01*
X138956Y194160D01*
X139014Y194376D01*
Y194600D01*
X138956Y194816D01*
X138844Y195010D01*
X138776Y195078D01*
Y196213D01*
X145807D01*
Y195078D01*
X145739Y195010D01*
X145627Y194816D01*
X145569Y194600D01*
Y194376D01*
X145627Y194160D01*
X145739Y193966D01*
X145897Y193808D01*
X146091Y193696D01*
X146307Y193638D01*
X146531D01*
X146747Y193696D01*
X146941Y193808D01*
X147099Y193966D01*
X147211Y194160D01*
X147269Y194376D01*
Y194600D01*
X147211Y194816D01*
X147099Y195010D01*
X147031Y195078D01*
Y196213D01*
X161682D01*
Y195114D01*
X161594Y195025D01*
X161479Y194826D01*
X161419Y194603D01*
Y194373D01*
X161479Y194150D01*
X161594Y193951D01*
X161757Y193788D01*
X161956Y193673D01*
X162179Y193613D01*
X162409D01*
X162632Y193673D01*
X162831Y193788D01*
X162994Y193951D01*
X163109Y194150D01*
X163169Y194373D01*
Y194603D01*
X163109Y194826D01*
X162994Y195025D01*
X162906Y195114D01*
Y196213D01*
X174162D01*
X174249Y196062D01*
X174481Y195830D01*
X174764Y195667D01*
X175080Y195582D01*
X175408D01*
X175724Y195667D01*
X176007Y195830D01*
X176239Y196062D01*
X176326Y196213D01*
X177303D01*
Y195403D01*
X177195Y195295D01*
X177076Y195089D01*
X177015Y194860D01*
Y194624D01*
X177076Y194395D01*
X177195Y194189D01*
X177362Y194022D01*
X177568Y193903D01*
X177797Y193842D01*
X178034D01*
X178262Y193903D01*
X178468Y194022D01*
X178635Y194189D01*
X178754Y194395D01*
X178815Y194624D01*
Y194860D01*
X178754Y195089D01*
X178635Y195295D01*
X178527Y195403D01*
Y196213D01*
X191448D01*
Y195340D01*
X191380Y195272D01*
X191268Y195078D01*
X191210Y194862D01*
Y194638D01*
X191268Y194422D01*
X191380Y194228D01*
X191538Y194070D01*
X191732Y193958D01*
X191948Y193900D01*
X192172D01*
X192388Y193958D01*
X192582Y194070D01*
X192740Y194228D01*
X192852Y194422D01*
X192910Y194638D01*
Y194862D01*
X192852Y195078D01*
X192740Y195272D01*
X192672Y195340D01*
Y196213D01*
X198022D01*
X199500Y194735D01*
Y194638D01*
X199558Y194422D01*
X199670Y194228D01*
X199828Y194070D01*
X200022Y193958D01*
X200238Y193900D01*
X200335D01*
X204982Y189253D01*
X204937Y189084D01*
Y188756D01*
X205022Y188440D01*
X205185Y188157D01*
X205417Y187925D01*
X205700Y187762D01*
X206016Y187677D01*
X206344D01*
X206513Y187722D01*
X209813Y184422D01*
Y180400D01*
X209860Y180166D01*
X209992Y179967D01*
X211902Y178057D01*
X212101Y177925D01*
X212335Y177878D01*
X213149D01*
X213238Y177790D01*
X213437Y177675D01*
X213660Y177615D01*
X213890D01*
X214113Y177675D01*
X214283Y177773D01*
X214398D01*
X215188Y176983D01*
Y166353D01*
X215167Y166333D01*
X215035Y166134D01*
X214988Y165900D01*
Y144553D01*
X206492Y136057D01*
X205431D01*
X205323Y136165D01*
X205117Y136284D01*
X204888Y136345D01*
X204652D01*
X204423Y136284D01*
X204217Y136165D01*
X204104Y136052D01*
X189151D01*
X189048Y136155D01*
X188842Y136274D01*
X188613Y136335D01*
X188377D01*
X188148Y136274D01*
X187942Y136155D01*
X187775Y135988D01*
X187656Y135782D01*
X187595Y135553D01*
Y135317D01*
X187656Y135088D01*
X187775Y134882D01*
X187883Y134774D01*
Y119420D01*
Y116408D01*
X179493Y108018D01*
X179361Y107819D01*
X179314Y107585D01*
Y95461D01*
X177026Y93173D01*
X176884Y93135D01*
X176717Y93038D01*
X176580Y92901D01*
X176483Y92734D01*
X176433Y92547D01*
Y92353D01*
X176483Y92166D01*
X176580Y91999D01*
X176717Y91862D01*
X176884Y91765D01*
X177071Y91715D01*
X177265D01*
X177452Y91765D01*
X177619Y91862D01*
X177756Y91999D01*
X177853Y92166D01*
X177891Y92308D01*
X180358Y94775D01*
X180491Y94974D01*
X180538Y95208D01*
Y107332D01*
X188928Y115722D01*
X189060Y115920D01*
X189107Y116154D01*
Y119167D01*
X189203Y119263D01*
X208418D01*
X208459Y119058D01*
X208589Y118864D01*
X208783Y118734D01*
X209013Y118688D01*
X209988D01*
X210217Y118734D01*
X210411Y118864D01*
X210541Y119058D01*
X210587Y119287D01*
Y120262D01*
X210541Y120491D01*
X210411Y120686D01*
X210217Y120816D01*
X209988Y120861D01*
X209013D01*
X208783Y120816D01*
X208589Y120686D01*
X208459Y120491D01*
X208458Y120487D01*
X189107D01*
Y134774D01*
X189161Y134828D01*
X204114D01*
X204217Y134725D01*
X204423Y134606D01*
X204652Y134545D01*
X204888D01*
X205117Y134606D01*
X205323Y134725D01*
X205431Y134833D01*
X206745D01*
X206979Y134880D01*
X207178Y135012D01*
X216033Y143867D01*
X216165Y144066D01*
X216212Y144300D01*
Y165647D01*
X216233Y165667D01*
X216365Y165866D01*
X216412Y166100D01*
Y177236D01*
X216365Y177470D01*
X216233Y177669D01*
X215084Y178817D01*
X214885Y178950D01*
X214651Y178997D01*
X214493D01*
X214475Y179027D01*
X214312Y179190D01*
X214113Y179305D01*
X213890Y179365D01*
X213660D01*
X213437Y179305D01*
X213238Y179190D01*
X213149Y179102D01*
X212588D01*
X211037Y180653D01*
Y184675D01*
X210990Y184909D01*
X210858Y185108D01*
X207378Y188587D01*
X207423Y188756D01*
Y189084D01*
X207338Y189400D01*
X207175Y189683D01*
X206943Y189915D01*
X206660Y190078D01*
X206344Y190163D01*
X206016D01*
X205847Y190118D01*
X201200Y194765D01*
Y194862D01*
X201142Y195078D01*
X201030Y195272D01*
X200872Y195430D01*
X200678Y195542D01*
X200462Y195600D01*
X200365D01*
X198708Y197258D01*
X198509Y197390D01*
X198275Y197437D01*
X192060D01*
X192060Y197437D01*
X177915D01*
X177915Y197437D01*
X176326D01*
X176239Y197588D01*
X176007Y197820D01*
X175724Y197983D01*
X175408Y198068D01*
D02*
G37*
G36*
X212298Y196733D02*
X212002D01*
X211992Y196729D01*
X211981Y196731D01*
X211691Y196674D01*
X211682Y196667D01*
X211671D01*
X211398Y196554D01*
X211390Y196546D01*
X211379Y196544D01*
X211134Y196380D01*
X211128Y196371D01*
X211117Y196367D01*
X210908Y196158D01*
X210904Y196147D01*
X210895Y196141D01*
X210731Y195896D01*
X210729Y195885D01*
X210721Y195877D01*
X210608Y195604D01*
Y195593D01*
X210601Y195584D01*
X210544Y195294D01*
X210546Y195283D01*
X210542Y195273D01*
Y194977D01*
X210546Y194967D01*
X210544Y194956D01*
X210601Y194666D01*
X210608Y194657D01*
Y194646D01*
X210721Y194373D01*
X210729Y194365D01*
X210731Y194354D01*
X210895Y194109D01*
X210904Y194103D01*
X210908Y194092D01*
X211117Y193883D01*
X211128Y193879D01*
X211134Y193870D01*
X211379Y193706D01*
X211390Y193704D01*
X211398Y193696D01*
X211671Y193583D01*
X211682D01*
X211691Y193576D01*
X211981Y193519D01*
X211992Y193521D01*
X212002Y193517D01*
X212298D01*
X212308Y193521D01*
X212319Y193519D01*
X212609Y193576D01*
X212618Y193583D01*
X212629D01*
X212902Y193696D01*
X212910Y193704D01*
X212921Y193706D01*
X213166Y193870D01*
X213172Y193879D01*
X213183Y193883D01*
X213392Y194092D01*
X213396Y194103D01*
X213405Y194109D01*
X213569Y194354D01*
X213571Y194365D01*
X213579Y194373D01*
X213692Y194646D01*
Y194657D01*
X213699Y194666D01*
X213756Y194956D01*
X213754Y194967D01*
X213758Y194977D01*
Y195273D01*
X213754Y195283D01*
X213756Y195294D01*
X213699Y195584D01*
X213692Y195593D01*
Y195604D01*
X213579Y195877D01*
X213571Y195885D01*
X213569Y195896D01*
X213405Y196141D01*
X213396Y196147D01*
X213392Y196158D01*
X213183Y196367D01*
X213172Y196371D01*
X213166Y196380D01*
X212921Y196544D01*
X212910Y196546D01*
X212902Y196554D01*
X212629Y196667D01*
X212618D01*
X212609Y196674D01*
X212319Y196731D01*
X212308Y196729D01*
X212298Y196733D01*
D02*
G37*
G36*
X5298D02*
X5002D01*
X4992Y196729D01*
X4981Y196731D01*
X4691Y196674D01*
X4682Y196667D01*
X4671D01*
X4398Y196554D01*
X4390Y196546D01*
X4379Y196544D01*
X4134Y196380D01*
X4128Y196371D01*
X4117Y196367D01*
X3908Y196158D01*
X3904Y196147D01*
X3895Y196141D01*
X3731Y195896D01*
X3729Y195885D01*
X3721Y195877D01*
X3608Y195604D01*
Y195593D01*
X3601Y195584D01*
X3544Y195294D01*
X3546Y195283D01*
X3542Y195273D01*
Y194977D01*
X3546Y194967D01*
X3544Y194956D01*
X3601Y194666D01*
X3608Y194657D01*
Y194646D01*
X3721Y194373D01*
X3729Y194365D01*
X3731Y194354D01*
X3895Y194109D01*
X3904Y194103D01*
X3908Y194092D01*
X4117Y193883D01*
X4128Y193879D01*
X4134Y193870D01*
X4379Y193706D01*
X4390Y193704D01*
X4398Y193696D01*
X4671Y193583D01*
X4682D01*
X4691Y193576D01*
X4981Y193519D01*
X4992Y193521D01*
X5002Y193517D01*
X5298D01*
X5308Y193521D01*
X5319Y193519D01*
X5609Y193576D01*
X5618Y193583D01*
X5629D01*
X5902Y193696D01*
X5910Y193704D01*
X5921Y193706D01*
X6166Y193870D01*
X6172Y193879D01*
X6183Y193883D01*
X6392Y194092D01*
X6396Y194103D01*
X6405Y194109D01*
X6569Y194354D01*
X6571Y194365D01*
X6579Y194373D01*
X6692Y194646D01*
Y194657D01*
X6699Y194666D01*
X6756Y194956D01*
X6754Y194967D01*
X6758Y194977D01*
Y195273D01*
X6754Y195283D01*
X6756Y195294D01*
X6699Y195584D01*
X6692Y195593D01*
Y195604D01*
X6579Y195877D01*
X6571Y195885D01*
X6569Y195896D01*
X6405Y196141D01*
X6396Y196147D01*
X6392Y196158D01*
X6183Y196367D01*
X6172Y196371D01*
X6166Y196380D01*
X5921Y196544D01*
X5910Y196546D01*
X5902Y196554D01*
X5629Y196667D01*
X5618D01*
X5609Y196674D01*
X5319Y196731D01*
X5308Y196729D01*
X5298Y196733D01*
D02*
G37*
G36*
X34825Y195867D02*
X14052D01*
X14043Y195865D01*
X14034Y195866D01*
X13965Y195850D01*
X13896Y195836D01*
X13888Y195831D01*
X13879Y195828D01*
X13822Y195787D01*
X13764Y195747D01*
X13759Y195740D01*
X13751Y195734D01*
X3751Y184809D01*
X3716Y184751D01*
X3677Y184696D01*
X3675Y184684D01*
X3668Y184673D01*
X3658Y184606D01*
X3644Y184540D01*
X3544Y178305D01*
X3544Y178303D01*
X3544Y178302D01*
X3558Y178225D01*
X3572Y178148D01*
X3573Y178147D01*
X3573Y178145D01*
X3616Y178080D01*
X3658Y178015D01*
X3660Y178014D01*
X3661Y178012D01*
X3750Y177922D01*
X3751Y177921D01*
X3752Y177920D01*
X3817Y177876D01*
X3881Y177832D01*
X3883Y177832D01*
X3884Y177831D01*
X3961Y177816D01*
X4037Y177800D01*
X4039Y177800D01*
X4041Y177800D01*
X34825D01*
X34981Y177831D01*
X35113Y177920D01*
X35202Y178052D01*
X35233Y178208D01*
Y189169D01*
X36413D01*
X36486Y189120D01*
X36642Y189089D01*
X37469D01*
X37547Y189079D01*
X38055D01*
X38133Y189089D01*
X38304D01*
X38454Y188939D01*
X38353Y188786D01*
X38313Y188803D01*
X38055Y188837D01*
X37547D01*
X37289Y188803D01*
X37048Y188703D01*
X36842Y188544D01*
X36683Y188338D01*
X36583Y188097D01*
X36549Y187839D01*
X36583Y187581D01*
X36683Y187340D01*
X36842Y187134D01*
X37048Y186975D01*
X37289Y186875D01*
X37547Y186841D01*
X38055D01*
X38172Y186857D01*
X43411Y181617D01*
X43610Y181485D01*
X43576Y181308D01*
X36775Y181308D01*
X36619Y181277D01*
X36487Y181189D01*
X36398Y181056D01*
X36367Y180900D01*
Y172975D01*
X36398Y172819D01*
X36487Y172687D01*
X36619Y172598D01*
X36775Y172567D01*
X77176Y172567D01*
X80760Y168982D01*
X80760Y168982D01*
X80893Y168894D01*
X81049Y168863D01*
X81049Y168863D01*
X85450D01*
X85606Y168894D01*
X85738Y168982D01*
X85827Y169115D01*
X85858Y169271D01*
Y184250D01*
X85827Y184406D01*
X85738Y184538D01*
X85606Y184627D01*
X85450Y184658D01*
X80750D01*
X80594Y184627D01*
X80462Y184538D01*
X80462Y184538D01*
X77231Y181308D01*
X76096Y181308D01*
X76064Y181485D01*
X76262Y181617D01*
X82539Y187894D01*
X82672Y188093D01*
X82718Y188327D01*
X82672Y188561D01*
X82539Y188759D01*
X82341Y188892D01*
X82106Y188939D01*
X81872Y188892D01*
X81674Y188759D01*
X75576Y182662D01*
X44097D01*
X39037Y187722D01*
X39053Y187839D01*
X39019Y188097D01*
X39002Y188137D01*
X39155Y188238D01*
X41233Y186161D01*
X41365Y186072D01*
X41521Y186041D01*
X41521Y186041D01*
X49888D01*
Y185351D01*
X49931Y185136D01*
X50052Y184954D01*
X51778Y183228D01*
X51960Y183107D01*
X52175Y183064D01*
X74700D01*
X74915Y183107D01*
X75097Y183228D01*
X82532Y190664D01*
X90728D01*
X91578Y189814D01*
X91624Y189783D01*
X91663Y189744D01*
X91714Y189723D01*
X91760Y189692D01*
X91815Y189681D01*
X91866Y189660D01*
X91921D01*
X91975Y189649D01*
X92029Y189660D01*
X92084D01*
X92135Y189681D01*
X92190Y189692D01*
X92236Y189723D01*
X92287Y189744D01*
X92326Y189783D01*
X92372Y189814D01*
X92402Y189859D01*
X92441Y189899D01*
X92462Y189950D01*
X92493Y189996D01*
X92504Y190050D01*
X92525Y190101D01*
Y190156D01*
X92536Y190210D01*
X92525Y190264D01*
Y190320D01*
X92504Y190371D01*
X92493Y190425D01*
X92462Y190471D01*
X92441Y190522D01*
X92402Y190561D01*
X92372Y190607D01*
X91357Y191622D01*
X91175Y191743D01*
X90960Y191786D01*
X82300D01*
X82085Y191743D01*
X81903Y191622D01*
X74468Y184186D01*
X52407D01*
X51010Y185583D01*
Y186041D01*
X51576D01*
X51732Y186072D01*
X51864Y186161D01*
X51953Y186293D01*
X51984Y186449D01*
Y187185D01*
X52003Y187331D01*
X51984Y187477D01*
Y188227D01*
X51953Y188383D01*
X52051Y188560D01*
X53597D01*
Y184791D01*
X53628Y184635D01*
X53716Y184503D01*
X53848Y184414D01*
X54004Y184383D01*
X73816D01*
X73972Y184414D01*
X74105Y184503D01*
X74193Y184635D01*
X74224Y184791D01*
Y194951D01*
X74193Y195107D01*
X74105Y195239D01*
X73972Y195328D01*
X73816Y195359D01*
X54004D01*
X53848Y195328D01*
X53716Y195239D01*
X53628Y195107D01*
X53597Y194951D01*
Y191182D01*
X50449D01*
X50365Y191171D01*
X50195D01*
X49859Y191127D01*
X49545Y190997D01*
X49276Y190790D01*
X49069Y190521D01*
X48939Y190208D01*
X48905Y189951D01*
X48720Y189882D01*
X47038Y191563D01*
X46906Y191652D01*
X46750Y191683D01*
X46750Y191683D01*
X38857D01*
X38796Y191863D01*
X38974Y192000D01*
X39181Y192269D01*
X39311Y192583D01*
X39355Y192919D01*
X39311Y193255D01*
X39181Y193569D01*
X38974Y193838D01*
X38705Y194045D01*
X38391Y194175D01*
X38055Y194219D01*
X37547D01*
X37210Y194175D01*
X36897Y194045D01*
X36628Y193838D01*
X36421Y193569D01*
X36291Y193255D01*
X36247Y192919D01*
X36291Y192583D01*
X36421Y192269D01*
X36628Y192000D01*
X36806Y191863D01*
X36745Y191683D01*
X36642D01*
X36486Y191652D01*
X36392Y191589D01*
X35233D01*
Y195459D01*
X35202Y195615D01*
X35113Y195747D01*
X34981Y195836D01*
X34825Y195867D01*
D02*
G37*
G36*
X79565Y198372D02*
X53410D01*
X53176Y198325D01*
X52978Y198193D01*
X50016Y195232D01*
X49884Y195033D01*
X49837Y194799D01*
Y193333D01*
X49696Y193275D01*
X49490Y193116D01*
X49331Y192910D01*
X49231Y192669D01*
X49197Y192411D01*
X49231Y192153D01*
X49331Y191912D01*
X49490Y191706D01*
X49696Y191547D01*
X49937Y191447D01*
X50195Y191413D01*
X50703D01*
X50961Y191447D01*
X51202Y191547D01*
X51408Y191706D01*
X51567Y191912D01*
X51667Y192153D01*
X51701Y192411D01*
X51667Y192669D01*
X51567Y192910D01*
X51408Y193116D01*
X51202Y193275D01*
X51061Y193333D01*
Y194546D01*
X53664Y197148D01*
X79311D01*
X81917Y194542D01*
X82116Y194410D01*
X82350Y194363D01*
X82584Y194410D01*
X82783Y194542D01*
X82915Y194741D01*
X82962Y194975D01*
X82915Y195209D01*
X82783Y195408D01*
X79997Y198193D01*
X79799Y198325D01*
X79565Y198372D01*
D02*
G37*
G36*
X92414Y196618D02*
X92086D01*
X91770Y196533D01*
X91487Y196370D01*
X91255Y196138D01*
X91092Y195855D01*
X91007Y195539D01*
Y195211D01*
X91092Y194895D01*
X91255Y194612D01*
X91487Y194380D01*
X91770Y194217D01*
X92086Y194132D01*
X92414D01*
X92730Y194217D01*
X93013Y194380D01*
X93245Y194612D01*
X93408Y194895D01*
X93493Y195211D01*
Y195539D01*
X93408Y195855D01*
X93245Y196138D01*
X93013Y196370D01*
X92730Y196533D01*
X92414Y196618D01*
D02*
G37*
G36*
X135015Y194938D02*
X134836D01*
X134670Y194869D01*
X134544Y194743D01*
X134475Y194578D01*
Y194398D01*
X134544Y194233D01*
X134670Y194107D01*
X134836Y194038D01*
X135015D01*
X135180Y194107D01*
X135307Y194233D01*
X135375Y194398D01*
Y194578D01*
X135307Y194743D01*
X135180Y194869D01*
X135015Y194938D01*
D02*
G37*
G36*
X203002Y195600D02*
X202778D01*
X202562Y195542D01*
X202368Y195430D01*
X202210Y195272D01*
X202098Y195078D01*
X202040Y194862D01*
Y194638D01*
X202098Y194422D01*
X202210Y194228D01*
X202368Y194070D01*
X202562Y193958D01*
X202778Y193900D01*
X203002D01*
X203218Y193958D01*
X203412Y194070D01*
X203570Y194228D01*
X203682Y194422D01*
X203740Y194638D01*
Y194862D01*
X203682Y195078D01*
X203570Y195272D01*
X203412Y195430D01*
X203218Y195542D01*
X203002Y195600D01*
D02*
G37*
G36*
X194712D02*
X194488D01*
X194272Y195542D01*
X194078Y195430D01*
X193920Y195272D01*
X193808Y195078D01*
X193750Y194862D01*
Y194638D01*
X193808Y194422D01*
X193920Y194228D01*
X194078Y194070D01*
X194272Y193958D01*
X194488Y193900D01*
X194712D01*
X194928Y193958D01*
X195122Y194070D01*
X195280Y194228D01*
X195392Y194422D01*
X195450Y194638D01*
Y194862D01*
X195392Y195078D01*
X195280Y195272D01*
X195122Y195430D01*
X194928Y195542D01*
X194712Y195600D01*
D02*
G37*
G36*
X185654Y195642D02*
X185417D01*
X185188Y195581D01*
X184982Y195462D01*
X184815Y195295D01*
X184696Y195089D01*
X184635Y194860D01*
Y194624D01*
X184696Y194395D01*
X184815Y194189D01*
X184982Y194022D01*
X185188Y193903D01*
X185417Y193842D01*
X185654D01*
X185882Y193903D01*
X186088Y194022D01*
X186255Y194189D01*
X186374Y194395D01*
X186435Y194624D01*
Y194860D01*
X186374Y195089D01*
X186255Y195295D01*
X186088Y195462D01*
X185882Y195581D01*
X185654Y195642D01*
D02*
G37*
G36*
X183114D02*
X182877D01*
X182648Y195581D01*
X182442Y195462D01*
X182275Y195295D01*
X182156Y195089D01*
X182095Y194860D01*
Y194624D01*
X182156Y194395D01*
X182275Y194189D01*
X182442Y194022D01*
X182648Y193903D01*
X182877Y193842D01*
X183114D01*
X183342Y193903D01*
X183548Y194022D01*
X183715Y194189D01*
X183834Y194395D01*
X183895Y194624D01*
Y194860D01*
X183834Y195089D01*
X183715Y195295D01*
X183548Y195462D01*
X183342Y195581D01*
X183114Y195642D01*
D02*
G37*
G36*
X180574D02*
X180337D01*
X180108Y195581D01*
X179902Y195462D01*
X179735Y195295D01*
X179616Y195089D01*
X179555Y194860D01*
Y194624D01*
X179616Y194395D01*
X179735Y194189D01*
X179902Y194022D01*
X180108Y193903D01*
X180337Y193842D01*
X180574D01*
X180802Y193903D01*
X181008Y194022D01*
X181175Y194189D01*
X181294Y194395D01*
X181355Y194624D01*
Y194860D01*
X181294Y195089D01*
X181175Y195295D01*
X181008Y195462D01*
X180802Y195581D01*
X180574Y195642D01*
D02*
G37*
G36*
X149071Y195338D02*
X148847D01*
X148631Y195280D01*
X148437Y195168D01*
X148279Y195010D01*
X148167Y194816D01*
X148109Y194600D01*
Y194376D01*
X148167Y194160D01*
X148279Y193966D01*
X148437Y193808D01*
X148631Y193696D01*
X148847Y193638D01*
X149071D01*
X149287Y193696D01*
X149481Y193808D01*
X149639Y193966D01*
X149751Y194160D01*
X149809Y194376D01*
Y194600D01*
X149751Y194816D01*
X149639Y195010D01*
X149481Y195168D01*
X149287Y195280D01*
X149071Y195338D01*
D02*
G37*
G36*
X140816D02*
X140592D01*
X140376Y195280D01*
X140182Y195168D01*
X140024Y195010D01*
X139912Y194816D01*
X139854Y194600D01*
Y194376D01*
X139912Y194160D01*
X140024Y193966D01*
X140182Y193808D01*
X140376Y193696D01*
X140592Y193638D01*
X140816D01*
X141032Y193696D01*
X141226Y193808D01*
X141384Y193966D01*
X141496Y194160D01*
X141554Y194376D01*
Y194600D01*
X141496Y194816D01*
X141384Y195010D01*
X141226Y195168D01*
X141032Y195280D01*
X140816Y195338D01*
D02*
G37*
G36*
X128751D02*
X128527D01*
X128311Y195280D01*
X128117Y195168D01*
X127959Y195010D01*
X127847Y194816D01*
X127789Y194600D01*
Y194376D01*
X127847Y194160D01*
X127959Y193966D01*
X128117Y193808D01*
X128311Y193696D01*
X128527Y193638D01*
X128751D01*
X128967Y193696D01*
X129161Y193808D01*
X129319Y193966D01*
X129431Y194160D01*
X129489Y194376D01*
Y194600D01*
X129431Y194816D01*
X129319Y195010D01*
X129161Y195168D01*
X128967Y195280D01*
X128751Y195338D01*
D02*
G37*
G36*
X120496D02*
X120272D01*
X120056Y195280D01*
X119862Y195168D01*
X119704Y195010D01*
X119592Y194816D01*
X119534Y194600D01*
Y194376D01*
X119592Y194160D01*
X119704Y193966D01*
X119862Y193808D01*
X120056Y193696D01*
X120272Y193638D01*
X120496D01*
X120712Y193696D01*
X120906Y193808D01*
X121064Y193966D01*
X121176Y194160D01*
X121234Y194376D01*
Y194600D01*
X121176Y194816D01*
X121064Y195010D01*
X120906Y195168D01*
X120712Y195280D01*
X120496Y195338D01*
D02*
G37*
G36*
X86264Y194849D02*
X85936D01*
X85620Y194764D01*
X85337Y194601D01*
X85105Y194369D01*
X84942Y194086D01*
X84857Y193770D01*
Y193443D01*
X84942Y193126D01*
X85105Y192843D01*
X85337Y192612D01*
X85620Y192448D01*
X85936Y192363D01*
X86264D01*
X86580Y192448D01*
X86863Y192612D01*
X87095Y192843D01*
X87258Y193126D01*
X87343Y193443D01*
Y193770D01*
X87258Y194086D01*
X87095Y194369D01*
X86863Y194601D01*
X86580Y194764D01*
X86264Y194849D01*
D02*
G37*
G36*
X160629Y195363D02*
X158879D01*
Y193613D01*
X159142D01*
Y192082D01*
X157719Y190659D01*
X116006D01*
X113533Y193133D01*
X113334Y193265D01*
X113100Y193312D01*
X100150D01*
X99916Y193265D01*
X99717Y193133D01*
X94325Y187741D01*
X94193Y187542D01*
X94146Y187308D01*
Y176991D01*
X94142Y176971D01*
Y131070D01*
X94138Y131050D01*
Y114106D01*
X90792Y110760D01*
X90660Y110562D01*
X90613Y110327D01*
Y90606D01*
X90660Y90372D01*
X90792Y90173D01*
X93613Y87353D01*
Y72025D01*
X93601Y71963D01*
Y26964D01*
X93588Y26901D01*
X93635Y26667D01*
X93767Y26468D01*
X93966Y26336D01*
X94200Y26289D01*
X94434Y26336D01*
X94633Y26468D01*
X94645Y26481D01*
X94778Y26679D01*
X94824Y26913D01*
Y71912D01*
X94837Y71975D01*
Y87606D01*
X94790Y87840D01*
X94658Y88039D01*
X91837Y90859D01*
Y110074D01*
X95183Y113420D01*
X95315Y113618D01*
X95362Y113852D01*
Y131034D01*
X95366Y131054D01*
Y176955D01*
X95370Y176975D01*
Y187055D01*
X100403Y192088D01*
X112847D01*
X115320Y189615D01*
X115519Y189482D01*
X115753Y189436D01*
X157188D01*
Y166600D01*
Y165703D01*
X156687Y165203D01*
X156555Y165004D01*
X156508Y164770D01*
Y156748D01*
X156245D01*
Y154998D01*
X156763D01*
Y148725D01*
X156245D01*
Y146975D01*
X157995D01*
Y148725D01*
X157477D01*
Y154998D01*
X157995D01*
Y156748D01*
X157732D01*
Y164517D01*
X158233Y165017D01*
X158365Y165216D01*
X158412Y165450D01*
Y166600D01*
Y189622D01*
X160187Y191396D01*
X160319Y191595D01*
X160366Y191829D01*
Y193613D01*
X160629D01*
Y195363D01*
D02*
G37*
G36*
X86264Y190456D02*
X85936D01*
X85620Y190371D01*
X85337Y190207D01*
X85105Y189976D01*
X84942Y189693D01*
X84857Y189376D01*
Y189049D01*
X84942Y188733D01*
X85105Y188450D01*
X85337Y188218D01*
X85620Y188055D01*
X85936Y187970D01*
X86264D01*
X86580Y188055D01*
X86863Y188218D01*
X87095Y188450D01*
X87258Y188733D01*
X87343Y189049D01*
Y189376D01*
X87258Y189693D01*
X87095Y189976D01*
X86863Y190207D01*
X86580Y190371D01*
X86264Y190456D01*
D02*
G37*
G36*
X148008Y188330D02*
X146608D01*
Y186930D01*
X148008D01*
Y188330D01*
D02*
G37*
G36*
X137975D02*
X136575D01*
Y186930D01*
X137975D01*
Y188330D01*
D02*
G37*
G36*
X127688D02*
X126288D01*
Y186930D01*
X127688D01*
Y188330D01*
D02*
G37*
G36*
X117655D02*
X116255D01*
Y186930D01*
X117655D01*
Y188330D01*
D02*
G37*
G36*
X185535Y189585D02*
X185301Y189538D01*
X185103Y189406D01*
X184970Y189207D01*
X184924Y188973D01*
Y187625D01*
X184835D01*
Y186325D01*
X186235D01*
Y187625D01*
X186147D01*
Y188973D01*
X186100Y189207D01*
X185968Y189406D01*
X185769Y189538D01*
X185535Y189585D01*
D02*
G37*
G36*
X182995D02*
X182761Y189538D01*
X182563Y189406D01*
X182430Y189207D01*
X182384Y188973D01*
Y187625D01*
X182295D01*
Y186325D01*
X183695D01*
Y187625D01*
X183607D01*
Y188973D01*
X183560Y189207D01*
X183428Y189406D01*
X183229Y189538D01*
X182995Y189585D01*
D02*
G37*
G36*
X180455D02*
X180221Y189538D01*
X180023Y189406D01*
X179890Y189207D01*
X179844Y188973D01*
Y187625D01*
X179755D01*
Y186325D01*
X181155D01*
Y187625D01*
X181067D01*
Y188973D01*
X181020Y189207D01*
X180888Y189406D01*
X180689Y189538D01*
X180455Y189585D01*
D02*
G37*
G36*
X201138Y189593D02*
X195149D01*
X195051Y189574D01*
X194968Y189519D01*
X192670Y187220D01*
X192615Y187137D01*
X192595Y187040D01*
Y167706D01*
X192544Y167655D01*
X192475Y167490D01*
Y167310D01*
X192475Y167310D01*
X180195Y155030D01*
X180140Y154948D01*
X180120Y154850D01*
Y145506D01*
X175769Y141155D01*
X167194D01*
X167097Y141135D01*
X167014Y141080D01*
X162538Y136604D01*
X162483Y136522D01*
X162464Y136424D01*
Y129755D01*
X162454Y129745D01*
X162410D01*
X162245Y129677D01*
X162119Y129550D01*
X162050Y129385D01*
Y129206D01*
X162119Y129040D01*
X162245Y128914D01*
X162410Y128845D01*
X162590D01*
X162755Y128914D01*
X162881Y129040D01*
X162950Y129206D01*
Y129385D01*
X162909Y129484D01*
X162954Y129552D01*
X162973Y129649D01*
Y136319D01*
X167300Y140645D01*
X175875D01*
X175973Y140665D01*
X176055Y140720D01*
X180555Y145220D01*
X180610Y145302D01*
X180630Y145400D01*
Y154744D01*
X192835Y166950D01*
X192835Y166950D01*
X193015D01*
X193180Y167019D01*
X193306Y167145D01*
X193375Y167310D01*
Y167490D01*
X193306Y167655D01*
X193180Y167781D01*
X193105Y167813D01*
Y186934D01*
X195254Y189084D01*
X201032D01*
X204504Y185612D01*
X204504Y185612D01*
Y185433D01*
X204573Y185267D01*
X204699Y185141D01*
X204864Y185072D01*
X205044D01*
X205209Y185141D01*
X205335Y185267D01*
X205404Y185433D01*
Y185612D01*
X205335Y185777D01*
X205209Y185904D01*
X205044Y185972D01*
X204864D01*
X204864Y185972D01*
X201318Y189519D01*
X201235Y189574D01*
X201138Y189593D01*
D02*
G37*
G36*
X145059Y184682D02*
X144731D01*
X144415Y184597D01*
X144132Y184434D01*
X143900Y184202D01*
X143737Y183919D01*
X143652Y183603D01*
Y183275D01*
X143737Y182959D01*
X143900Y182676D01*
X144132Y182444D01*
X144415Y182281D01*
X144731Y182196D01*
X145059D01*
X145375Y182281D01*
X145658Y182444D01*
X145890Y182676D01*
X146053Y182959D01*
X146138Y183275D01*
Y183603D01*
X146053Y183919D01*
X145890Y184202D01*
X145658Y184434D01*
X145375Y184597D01*
X145059Y184682D01*
D02*
G37*
G36*
X139907Y188330D02*
X139723D01*
X139545Y188282D01*
X139385Y188190D01*
X139255Y188060D01*
X139163Y187900D01*
X139142Y187822D01*
X137532Y186212D01*
X137399Y186014D01*
X137353Y185780D01*
Y183439D01*
X137399Y183205D01*
X137532Y183006D01*
X137731Y182874D01*
X137965Y182827D01*
X138733D01*
X138820Y182676D01*
X139052Y182444D01*
X139335Y182281D01*
X139651Y182196D01*
X139979D01*
X140295Y182281D01*
X140578Y182444D01*
X140810Y182676D01*
X140973Y182959D01*
X141058Y183275D01*
Y183603D01*
X140973Y183919D01*
X140810Y184202D01*
X140578Y184434D01*
X140295Y184597D01*
X139979Y184682D01*
X139651D01*
X139335Y184597D01*
X139052Y184434D01*
X138820Y184202D01*
X138756Y184091D01*
X138576Y184135D01*
Y185526D01*
X140007Y186957D01*
X140085Y186978D01*
X140245Y187070D01*
X140375Y187200D01*
X140467Y187360D01*
X140515Y187538D01*
Y187722D01*
X140467Y187900D01*
X140375Y188060D01*
X140245Y188190D01*
X140085Y188282D01*
X139907Y188330D01*
D02*
G37*
G36*
X134137Y184682D02*
X133809D01*
X133493Y184597D01*
X133210Y184434D01*
X132978Y184202D01*
X132815Y183919D01*
X132730Y183603D01*
Y183275D01*
X132815Y182959D01*
X132978Y182676D01*
X133210Y182444D01*
X133493Y182281D01*
X133809Y182196D01*
X134137D01*
X134453Y182281D01*
X134736Y182444D01*
X134968Y182676D01*
X135131Y182959D01*
X135216Y183275D01*
Y183603D01*
X135131Y183919D01*
X134968Y184202D01*
X134736Y184434D01*
X134453Y184597D01*
X134137Y184682D01*
D02*
G37*
G36*
X129620Y188330D02*
X129436D01*
X129258Y188282D01*
X129098Y188190D01*
X128968Y188060D01*
X128876Y187900D01*
X128828Y187722D01*
Y187538D01*
X128876Y187360D01*
X128916Y187290D01*
Y184521D01*
X128765Y184434D01*
X128533Y184202D01*
X128370Y183919D01*
X128285Y183603D01*
Y183275D01*
X128370Y182959D01*
X128533Y182676D01*
X128765Y182444D01*
X129048Y182281D01*
X129364Y182196D01*
X129692D01*
X130008Y182281D01*
X130291Y182444D01*
X130523Y182676D01*
X130686Y182959D01*
X130771Y183275D01*
Y183603D01*
X130686Y183919D01*
X130523Y184202D01*
X130291Y184434D01*
X130140Y184521D01*
Y187290D01*
X130180Y187360D01*
X130228Y187538D01*
Y187722D01*
X130180Y187900D01*
X130088Y188060D01*
X129958Y188190D01*
X129798Y188282D01*
X129620Y188330D01*
D02*
G37*
G36*
X119587D02*
X119403D01*
X119225Y188282D01*
X119065Y188190D01*
X118935Y188060D01*
X118843Y187900D01*
X118795Y187722D01*
Y187538D01*
X118843Y187360D01*
X118883Y187290D01*
Y184521D01*
X118732Y184434D01*
X118500Y184202D01*
X118337Y183919D01*
X118252Y183603D01*
Y183275D01*
X118337Y182959D01*
X118500Y182676D01*
X118732Y182444D01*
X119015Y182281D01*
X119331Y182196D01*
X119659D01*
X119975Y182281D01*
X120258Y182444D01*
X120490Y182676D01*
X120653Y182959D01*
X120738Y183275D01*
Y183603D01*
X120653Y183919D01*
X120490Y184202D01*
X120258Y184434D01*
X120107Y184521D01*
Y187290D01*
X120147Y187360D01*
X120195Y187538D01*
Y187722D01*
X120147Y187900D01*
X120055Y188060D01*
X119925Y188190D01*
X119765Y188282D01*
X119587Y188330D01*
D02*
G37*
G36*
X127001Y181679D02*
X126822D01*
X126657Y181611D01*
X126530Y181484D01*
X126462Y181319D01*
Y181140D01*
X126530Y180975D01*
X126657Y180848D01*
X126822Y180779D01*
X127001D01*
X127067Y180807D01*
X131648D01*
X131785Y180750D01*
X131965D01*
X132130Y180819D01*
X132256Y180945D01*
X132325Y181110D01*
Y181290D01*
X132256Y181455D01*
X132130Y181581D01*
X131965Y181650D01*
X131785D01*
X131719Y181623D01*
X127138D01*
X127001Y181679D01*
D02*
G37*
G36*
X214650Y181905D02*
X212900D01*
Y180155D01*
X214650D01*
Y181905D01*
D02*
G37*
G36*
X196175Y187600D02*
X194775D01*
Y186300D01*
X196175D01*
Y186593D01*
X200383D01*
X203068Y183908D01*
Y180771D01*
X202935Y180638D01*
X201445D01*
Y179281D01*
X203153D01*
Y179847D01*
X203677Y180371D01*
X203755Y180487D01*
X203782Y180624D01*
Y184056D01*
X203755Y184193D01*
X203677Y184309D01*
X200784Y187202D01*
X200668Y187280D01*
X200531Y187307D01*
X196175D01*
Y187600D01*
D02*
G37*
G36*
X203153Y178486D02*
X201445D01*
Y177130D01*
X201764D01*
Y176093D01*
X201802Y175898D01*
X201913Y175733D01*
X202078Y175622D01*
X202273Y175584D01*
X202469Y175622D01*
X202634Y175733D01*
X202744Y175898D01*
X202783Y176093D01*
Y177130D01*
X203153D01*
Y178486D01*
D02*
G37*
G36*
X213890Y176825D02*
X213660D01*
X213437Y176765D01*
X213238Y176650D01*
X213075Y176487D01*
X212960Y176288D01*
X212900Y176065D01*
Y175835D01*
X212960Y175612D01*
X213075Y175413D01*
X213238Y175250D01*
X213437Y175135D01*
X213660Y175075D01*
X213890D01*
X214113Y175135D01*
X214312Y175250D01*
X214475Y175413D01*
X214590Y175612D01*
X214650Y175835D01*
Y176065D01*
X214590Y176288D01*
X214475Y176487D01*
X214312Y176650D01*
X214113Y176765D01*
X213890Y176825D01*
D02*
G37*
G36*
X147681Y175449D02*
X147444D01*
X147215Y175388D01*
X147009Y175269D01*
X146842Y175102D01*
X146723Y174896D01*
X146662Y174667D01*
Y174431D01*
X146723Y174202D01*
X146842Y173996D01*
X147009Y173829D01*
X147215Y173710D01*
X147444Y173649D01*
X147681D01*
X147909Y173710D01*
X148115Y173829D01*
X148282Y173996D01*
X148401Y174202D01*
X148462Y174431D01*
Y174667D01*
X148401Y174896D01*
X148282Y175102D01*
X148115Y175269D01*
X147909Y175388D01*
X147681Y175449D01*
D02*
G37*
G36*
X128123D02*
X127886D01*
X127657Y175388D01*
X127451Y175269D01*
X127284Y175102D01*
X127165Y174896D01*
X127104Y174667D01*
Y174431D01*
X127165Y174202D01*
X127284Y173996D01*
X127451Y173829D01*
X127657Y173710D01*
X127886Y173649D01*
X128123D01*
X128351Y173710D01*
X128557Y173829D01*
X128724Y173996D01*
X128843Y174202D01*
X128904Y174431D01*
Y174667D01*
X128843Y174896D01*
X128724Y175102D01*
X128557Y175269D01*
X128351Y175388D01*
X128123Y175449D01*
D02*
G37*
G36*
X204885Y177020D02*
X204705D01*
X204540Y176952D01*
X204414Y176825D01*
X204345Y176660D01*
Y176481D01*
X204345Y176481D01*
X201295Y173431D01*
X201240Y173348D01*
X201220Y173250D01*
Y168906D01*
X185320Y153005D01*
X185265Y152923D01*
X185245Y152825D01*
Y133780D01*
X185188Y133756D01*
X185062Y133630D01*
X184993Y133465D01*
Y133285D01*
X185062Y133120D01*
X185188Y132994D01*
X185354Y132925D01*
X185533D01*
X185698Y132994D01*
X185825Y133120D01*
X185893Y133285D01*
Y133465D01*
X185825Y133630D01*
X185755Y133700D01*
Y152719D01*
X201655Y168620D01*
X201710Y168702D01*
X201730Y168800D01*
Y173145D01*
X204705Y176120D01*
X204705Y176120D01*
X204885D01*
X205050Y176189D01*
X205176Y176315D01*
X205176Y176315D01*
X207674D01*
X210760Y173230D01*
X210842Y173175D01*
X210940Y173155D01*
X212937D01*
X212960Y173072D01*
X213075Y172873D01*
X213238Y172710D01*
X213437Y172595D01*
X213660Y172535D01*
X213890D01*
X214113Y172595D01*
X214312Y172710D01*
X214475Y172873D01*
X214590Y173072D01*
X214650Y173295D01*
Y173525D01*
X214590Y173748D01*
X214475Y173947D01*
X214312Y174110D01*
X214113Y174225D01*
X213890Y174285D01*
X213660D01*
X213437Y174225D01*
X213238Y174110D01*
X213075Y173947D01*
X212960Y173748D01*
X212937Y173665D01*
X211046D01*
X207960Y176751D01*
X207877Y176806D01*
X207780Y176825D01*
X205176D01*
X205176Y176825D01*
X205050Y176952D01*
X204885Y177020D01*
D02*
G37*
G36*
X164949Y195363D02*
X164719D01*
X164496Y195303D01*
X164297Y195188D01*
X164134Y195025D01*
X164019Y194826D01*
X163959Y194603D01*
Y194373D01*
X164019Y194150D01*
X164134Y193951D01*
X164297Y193788D01*
X164496Y193673D01*
X164579Y193650D01*
Y171989D01*
X163423D01*
Y172477D01*
X162775D01*
Y172871D01*
X160289D01*
Y170385D01*
X162775D01*
Y170880D01*
X163423D01*
Y171479D01*
X164728D01*
X167120Y169088D01*
X167203Y169032D01*
X167300Y169013D01*
X169226D01*
X171050Y167190D01*
X171050Y167190D01*
Y167010D01*
X171119Y166845D01*
X171245Y166719D01*
X171410Y166650D01*
X171590D01*
X171590Y166650D01*
X172770Y165469D01*
Y146479D01*
X172720Y146458D01*
X172594Y146332D01*
X172525Y146166D01*
Y145987D01*
X172594Y145822D01*
X172720Y145695D01*
X172885Y145627D01*
X173065D01*
X173230Y145695D01*
X173356Y145822D01*
X173425Y145987D01*
Y146166D01*
X173356Y146332D01*
X173280Y146408D01*
Y165575D01*
X173260Y165673D01*
X173205Y165755D01*
X171950Y167010D01*
X171950Y167010D01*
Y167190D01*
X171881Y167355D01*
X171755Y167481D01*
X171590Y167550D01*
X171410D01*
X171410Y167550D01*
X169512Y169448D01*
X169430Y169503D01*
X169332Y169523D01*
X167406D01*
X165089Y171840D01*
Y193650D01*
X165172Y193673D01*
X165371Y193788D01*
X165534Y193951D01*
X165649Y194150D01*
X165709Y194373D01*
Y194603D01*
X165649Y194826D01*
X165534Y195025D01*
X165371Y195188D01*
X165172Y195303D01*
X164949Y195363D01*
D02*
G37*
G36*
X198081Y172871D02*
X195595D01*
Y170385D01*
X198081D01*
Y170880D01*
X198729D01*
Y172477D01*
X198081D01*
Y172871D01*
D02*
G37*
G36*
X167489Y195363D02*
X167259D01*
X167036Y195303D01*
X166837Y195188D01*
X166674Y195025D01*
X166559Y194826D01*
X166499Y194603D01*
Y194373D01*
X166559Y194150D01*
X166674Y193951D01*
X166837Y193788D01*
X167036Y193673D01*
X167119Y193650D01*
Y172097D01*
X167139Y171999D01*
X167194Y171916D01*
X167662Y171448D01*
X167745Y171393D01*
X167843Y171373D01*
X169674D01*
Y170880D01*
X170322D01*
Y170385D01*
X171369D01*
Y168851D01*
X171388Y168754D01*
X171443Y168671D01*
X173195Y166920D01*
X173277Y166865D01*
X173375Y166845D01*
X173969D01*
X173969Y166845D01*
X173970Y166844D01*
Y146456D01*
X173970Y146456D01*
X173844Y146330D01*
X173775Y146165D01*
Y145985D01*
X173844Y145820D01*
X173970Y145694D01*
X174135Y145625D01*
X174315D01*
X174480Y145694D01*
X174606Y145820D01*
X174675Y145985D01*
Y146165D01*
X174606Y146330D01*
X174480Y146456D01*
X174480Y146456D01*
Y166667D01*
X174605Y166719D01*
X174731Y166845D01*
X174800Y167010D01*
Y167190D01*
X174731Y167355D01*
X174605Y167481D01*
X174440Y167550D01*
X174260D01*
X174095Y167481D01*
X173969Y167355D01*
X173969Y167355D01*
X173481D01*
X171878Y168957D01*
Y170385D01*
X172808D01*
Y171373D01*
X177942D01*
Y170385D01*
X180428D01*
Y170880D01*
X181076D01*
Y172477D01*
X180428D01*
Y172871D01*
X177942D01*
Y171883D01*
X172808D01*
Y172871D01*
X170322D01*
Y172477D01*
X169674D01*
Y171883D01*
X167948D01*
X167629Y172202D01*
Y193650D01*
X167712Y193673D01*
X167911Y193788D01*
X168074Y193951D01*
X168189Y194150D01*
X168249Y194373D01*
Y194603D01*
X168189Y194826D01*
X168074Y195025D01*
X167911Y195188D01*
X167712Y195303D01*
X167489Y195363D01*
D02*
G37*
G36*
X155155Y172871D02*
X152669D01*
Y172477D01*
X152021D01*
Y170880D01*
X152669D01*
Y170385D01*
X155155D01*
Y172871D01*
D02*
G37*
G36*
X206715Y173250D02*
X206535D01*
X206370Y173181D01*
X206244Y173055D01*
X206175Y172890D01*
Y172855D01*
X204873Y171552D01*
X204795Y171437D01*
X204768Y171300D01*
Y168640D01*
X201875Y165747D01*
X201840D01*
X201675Y165679D01*
X201549Y165552D01*
X201480Y165387D01*
Y165208D01*
X201549Y165042D01*
X201675Y164916D01*
X201840Y164847D01*
X202020D01*
X202185Y164916D01*
X202311Y165042D01*
X202380Y165208D01*
Y165242D01*
X205377Y168240D01*
X205455Y168355D01*
X205482Y168492D01*
Y171152D01*
X206680Y172350D01*
X206715D01*
X206880Y172419D01*
X206905Y172443D01*
X208077D01*
X209903Y170618D01*
X210018Y170540D01*
X210155Y170513D01*
X212971D01*
X213075Y170333D01*
X213238Y170170D01*
X213437Y170055D01*
X213660Y169995D01*
X213890D01*
X214113Y170055D01*
X214312Y170170D01*
X214475Y170333D01*
X214590Y170532D01*
X214650Y170755D01*
Y170985D01*
X214590Y171208D01*
X214475Y171407D01*
X214312Y171570D01*
X214113Y171685D01*
X213890Y171745D01*
X213660D01*
X213437Y171685D01*
X213238Y171570D01*
X213075Y171407D01*
X212971Y171227D01*
X210303D01*
X208477Y173052D01*
X208362Y173130D01*
X208225Y173157D01*
X206905D01*
X206880Y173181D01*
X206715Y173250D01*
D02*
G37*
G36*
X179265Y168875D02*
X179085D01*
X178920Y168806D01*
X178794Y168680D01*
X178794Y168680D01*
X174281D01*
X174281Y168680D01*
X174155Y168806D01*
X173990Y168875D01*
X173810D01*
X173645Y168806D01*
X173519Y168680D01*
X173450Y168515D01*
Y168335D01*
X173519Y168170D01*
X173645Y168044D01*
X173810Y167975D01*
X173990D01*
X174155Y168044D01*
X174281Y168170D01*
X174281Y168170D01*
X178794D01*
X178794Y168170D01*
X178920Y168044D01*
X178920Y168044D01*
Y146481D01*
X178920Y146481D01*
X178794Y146355D01*
X178725Y146190D01*
Y146010D01*
X178794Y145845D01*
X178920Y145719D01*
X179085Y145650D01*
X179265D01*
X179430Y145719D01*
X179556Y145845D01*
X179625Y146010D01*
Y146190D01*
X179556Y146355D01*
X179430Y146481D01*
X179430Y146481D01*
Y168044D01*
X179430Y168044D01*
X179556Y168170D01*
X179625Y168335D01*
Y168515D01*
X179556Y168680D01*
X179430Y168806D01*
X179265Y168875D01*
D02*
G37*
G36*
X189400Y187625D02*
X188000D01*
Y186325D01*
X189400D01*
Y186432D01*
X189702D01*
X190815Y185319D01*
Y168450D01*
X190854Y168255D01*
X190965Y168090D01*
X191130Y167979D01*
X191325Y167940D01*
X191520Y167979D01*
X191685Y168090D01*
X191796Y168255D01*
X191835Y168450D01*
Y185530D01*
X191796Y185725D01*
X191685Y185890D01*
X190274Y187302D01*
X190109Y187412D01*
X189914Y187451D01*
X189400D01*
Y187625D01*
D02*
G37*
G36*
X135510Y177869D02*
X135331D01*
X135166Y177801D01*
X135039Y177674D01*
X134997Y177573D01*
X132672Y175248D01*
X132584Y175116D01*
X132553Y174959D01*
X132553Y174959D01*
Y167959D01*
X132511Y167857D01*
Y167678D01*
X132579Y167513D01*
X132706Y167386D01*
X132871Y167317D01*
X133050D01*
X133216Y167386D01*
X133342Y167513D01*
X133411Y167678D01*
Y167857D01*
X133368Y167959D01*
Y174790D01*
X135574Y176996D01*
X135676Y177038D01*
X135802Y177165D01*
X135871Y177330D01*
Y177509D01*
X135802Y177674D01*
X135676Y177801D01*
X135510Y177869D01*
D02*
G37*
G36*
X79714Y169393D02*
X79386D01*
X79070Y169308D01*
X78787Y169145D01*
X78555Y168913D01*
X78392Y168630D01*
X78307Y168314D01*
Y167986D01*
X78392Y167670D01*
X78555Y167387D01*
X78787Y167155D01*
X79070Y166992D01*
X79386Y166907D01*
X79714D01*
X80030Y166992D01*
X80313Y167155D01*
X80545Y167387D01*
X80708Y167670D01*
X80793Y167986D01*
Y168314D01*
X80708Y168630D01*
X80545Y168913D01*
X80313Y169145D01*
X80030Y169308D01*
X79714Y169393D01*
D02*
G37*
G36*
X149940Y188330D02*
X149756D01*
X149578Y188282D01*
X149418Y188190D01*
X149288Y188060D01*
X149196Y187900D01*
X149148Y187722D01*
Y187538D01*
X149196Y187360D01*
X149236Y187290D01*
Y184521D01*
X149085Y184434D01*
X148853Y184202D01*
X148690Y183919D01*
X148605Y183603D01*
Y183275D01*
X148690Y182959D01*
X148853Y182676D01*
X149085Y182444D01*
X149368Y182281D01*
X149440Y182261D01*
Y179580D01*
X149440Y179580D01*
X149471Y179424D01*
X149560Y179291D01*
X150137Y178714D01*
Y171214D01*
X145522Y166599D01*
X145420Y166556D01*
X145294Y166430D01*
X145225Y166265D01*
Y166085D01*
X145294Y165920D01*
X145420Y165794D01*
X145585Y165725D01*
X145765D01*
X145930Y165794D01*
X146056Y165920D01*
X146099Y166022D01*
X150833Y170757D01*
X150922Y170889D01*
X150953Y171045D01*
X150953Y171045D01*
Y178883D01*
X150953Y178883D01*
X150922Y179039D01*
X150833Y179171D01*
X150833Y179171D01*
X150256Y179749D01*
Y182261D01*
X150328Y182281D01*
X150611Y182444D01*
X150843Y182676D01*
X151006Y182959D01*
X151091Y183275D01*
Y183603D01*
X151006Y183919D01*
X150843Y184202D01*
X150611Y184434D01*
X150460Y184521D01*
Y187290D01*
X150500Y187360D01*
X150548Y187538D01*
Y187722D01*
X150500Y187900D01*
X150408Y188060D01*
X150278Y188190D01*
X150118Y188282D01*
X149940Y188330D01*
D02*
G37*
G36*
X187342Y166550D02*
X187163D01*
X186997Y166481D01*
X186871Y166355D01*
X186802Y166190D01*
Y166010D01*
X186871Y165845D01*
X186997Y165719D01*
X187163Y165650D01*
X187342D01*
X187507Y165719D01*
X187634Y165845D01*
X187702Y166010D01*
Y166190D01*
X187634Y166355D01*
X187507Y166481D01*
X187342Y166550D01*
D02*
G37*
G36*
X170029Y195363D02*
X169799D01*
X169576Y195303D01*
X169377Y195188D01*
X169214Y195025D01*
X169099Y194826D01*
X169039Y194603D01*
Y194373D01*
X169099Y194150D01*
X169214Y193951D01*
X169377Y193788D01*
X169404Y193772D01*
Y190246D01*
X169443Y190051D01*
X169554Y189886D01*
X187327Y172112D01*
Y171195D01*
X182017Y165885D01*
X180925D01*
X180730Y165846D01*
X180565Y165735D01*
X180454Y165570D01*
X180415Y165375D01*
X180454Y165180D01*
X180565Y165015D01*
X180730Y164904D01*
X180925Y164865D01*
X182228D01*
X182424Y164904D01*
X182589Y165015D01*
X187950Y170375D01*
X188475D01*
X188524Y170385D01*
X190461D01*
Y172871D01*
X188524D01*
X188475Y172881D01*
X188000D01*
X170424Y190457D01*
Y193772D01*
X170451Y193788D01*
X170614Y193951D01*
X170729Y194150D01*
X170789Y194373D01*
Y194603D01*
X170729Y194826D01*
X170614Y195025D01*
X170451Y195188D01*
X170252Y195303D01*
X170029Y195363D01*
D02*
G37*
G36*
X73400Y170937D02*
X53725D01*
X53491Y170890D01*
X53292Y170758D01*
X50116Y167582D01*
X49984Y167383D01*
X49937Y167149D01*
Y165833D01*
X49796Y165775D01*
X49590Y165616D01*
X49431Y165410D01*
X49331Y165169D01*
X49297Y164911D01*
X49331Y164653D01*
X49431Y164412D01*
X49590Y164206D01*
X49796Y164047D01*
X50037Y163947D01*
X50295Y163913D01*
X50803D01*
X51061Y163947D01*
X51302Y164047D01*
X51508Y164206D01*
X51667Y164412D01*
X51767Y164653D01*
X51801Y164911D01*
X51767Y165169D01*
X51667Y165410D01*
X51508Y165616D01*
X51302Y165775D01*
X51161Y165833D01*
Y166896D01*
X53978Y169713D01*
X73147D01*
X77817Y165042D01*
X78016Y164910D01*
X78250Y164863D01*
X82275D01*
X82509Y164910D01*
X82708Y165042D01*
X82840Y165241D01*
X82887Y165475D01*
X82840Y165709D01*
X82708Y165908D01*
X82509Y166040D01*
X82275Y166087D01*
X78503D01*
X73833Y170758D01*
X73634Y170890D01*
X73400Y170937D01*
D02*
G37*
G36*
X192565Y165700D02*
X192385D01*
X192220Y165631D01*
X192094Y165505D01*
X192025Y165340D01*
Y165160D01*
X192025Y165160D01*
X181220Y154355D01*
X181165Y154273D01*
X181145Y154175D01*
Y144635D01*
X176315Y139805D01*
X167682D01*
X167585Y139785D01*
X167502Y139730D01*
X163735Y135963D01*
X163679Y135880D01*
X163660Y135782D01*
Y127770D01*
X160220Y124330D01*
X160165Y124248D01*
X160145Y124150D01*
Y117956D01*
X160145Y117956D01*
X160019Y117830D01*
X159950Y117665D01*
Y117485D01*
X160019Y117320D01*
X160145Y117194D01*
X160310Y117125D01*
X160490D01*
X160655Y117194D01*
X160781Y117320D01*
X160850Y117485D01*
Y117665D01*
X160781Y117830D01*
X160655Y117956D01*
X160655Y117956D01*
Y124044D01*
X164095Y127485D01*
X164150Y127567D01*
X164170Y127665D01*
Y135677D01*
X167788Y139295D01*
X176420D01*
X176518Y139315D01*
X176601Y139370D01*
X181580Y144349D01*
X181635Y144432D01*
X181655Y144530D01*
Y154069D01*
X192385Y164800D01*
X192385Y164800D01*
X192565D01*
X192730Y164869D01*
X192856Y164995D01*
X192925Y165160D01*
Y165340D01*
X192856Y165505D01*
X192730Y165631D01*
X192565Y165700D01*
D02*
G37*
G36*
X92264Y165493D02*
X91936D01*
X91620Y165408D01*
X91337Y165245D01*
X91105Y165013D01*
X90942Y164730D01*
X90857Y164414D01*
Y164086D01*
X90942Y163770D01*
X91105Y163487D01*
X91337Y163255D01*
X91620Y163092D01*
X91936Y163007D01*
X92264D01*
X92580Y163092D01*
X92863Y163255D01*
X93095Y163487D01*
X93258Y163770D01*
X93343Y164086D01*
Y164414D01*
X93258Y164730D01*
X93095Y165013D01*
X92863Y165245D01*
X92580Y165408D01*
X92264Y165493D01*
D02*
G37*
G36*
X86164Y165208D02*
X85836D01*
X85520Y165123D01*
X85237Y164960D01*
X85005Y164728D01*
X84842Y164445D01*
X84757Y164129D01*
Y163802D01*
X84842Y163485D01*
X85005Y163202D01*
X85237Y162971D01*
X85520Y162807D01*
X85836Y162722D01*
X86164D01*
X86480Y162807D01*
X86763Y162971D01*
X86995Y163202D01*
X87158Y163485D01*
X87243Y163802D01*
Y164129D01*
X87158Y164445D01*
X86995Y164728D01*
X86763Y164960D01*
X86480Y165123D01*
X86164Y165208D01*
D02*
G37*
G36*
X34929Y175567D02*
X3950D01*
X3794Y175536D01*
X3662Y175448D01*
X3573Y175315D01*
X3542Y175159D01*
Y157908D01*
X3573Y157752D01*
X3662Y157620D01*
X3794Y157531D01*
X3950Y157500D01*
X14260D01*
X14377Y157422D01*
X14533Y157391D01*
X34345D01*
X34501Y157422D01*
X34618Y157500D01*
X34929D01*
X35085Y157531D01*
X35218Y157620D01*
X35306Y157752D01*
X35337Y157908D01*
Y161669D01*
X36482D01*
X36589Y161597D01*
X36745Y161566D01*
X38390D01*
X38467Y161469D01*
X38454Y161429D01*
X38370Y161308D01*
X38155Y161337D01*
X37647D01*
X37389Y161303D01*
X37148Y161203D01*
X36942Y161044D01*
X36783Y160838D01*
X36683Y160597D01*
X36649Y160339D01*
X36683Y160081D01*
X36783Y159840D01*
X36942Y159634D01*
X37148Y159475D01*
X37389Y159375D01*
X37647Y159341D01*
X38155D01*
X38272Y159357D01*
X44161Y153467D01*
X44360Y153335D01*
X44594Y153288D01*
X78600D01*
X78834Y153335D01*
X79033Y153467D01*
X82608Y157042D01*
X82740Y157241D01*
X82787Y157475D01*
X82740Y157709D01*
X82608Y157908D01*
X82409Y158040D01*
X82175Y158087D01*
X81941Y158040D01*
X81742Y157908D01*
X78347Y154512D01*
X44847D01*
X39137Y160222D01*
X39153Y160339D01*
X39119Y160597D01*
X39116Y160602D01*
X39269Y160704D01*
X41336Y158638D01*
X41468Y158549D01*
X41624Y158518D01*
X41624Y158518D01*
X49989D01*
Y158200D01*
X50032Y157985D01*
X50154Y157803D01*
X52978Y154978D01*
X53160Y154857D01*
X53375Y154814D01*
X77065D01*
X77280Y154857D01*
X77462Y154978D01*
X82222Y159739D01*
X84939D01*
X85029Y159583D01*
X84967Y159476D01*
X84882Y159160D01*
Y158833D01*
X84967Y158517D01*
X85130Y158233D01*
X85362Y158002D01*
X85645Y157838D01*
X85961Y157753D01*
X86289D01*
X86605Y157838D01*
X86888Y158002D01*
X87120Y158233D01*
X87283Y158517D01*
X87368Y158833D01*
Y159160D01*
X87283Y159476D01*
X87221Y159583D01*
X87311Y159739D01*
X91775D01*
X91829Y159750D01*
X91884D01*
X91935Y159771D01*
X91990Y159782D01*
X92036Y159813D01*
X92087Y159834D01*
X92126Y159873D01*
X92172Y159903D01*
X92202Y159949D01*
X92241Y159988D01*
X92262Y160039D01*
X92293Y160085D01*
X92304Y160140D01*
X92325Y160191D01*
Y160246D01*
X92336Y160300D01*
X92325Y160354D01*
Y160409D01*
X92304Y160460D01*
X92293Y160515D01*
X92262Y160561D01*
X92241Y160612D01*
X92202Y160651D01*
X92172Y160697D01*
X92126Y160727D01*
X92087Y160766D01*
X92036Y160787D01*
X91990Y160818D01*
X91935Y160829D01*
X91884Y160850D01*
X91829D01*
X91775Y160861D01*
X81990D01*
X81775Y160818D01*
X81593Y160697D01*
X76833Y155936D01*
X53607D01*
X51205Y158338D01*
X51279Y158518D01*
X51679D01*
X51835Y158549D01*
X51967Y158638D01*
X52056Y158770D01*
X52087Y158926D01*
Y159707D01*
X52103Y159831D01*
X52087Y159955D01*
Y160704D01*
X52056Y160860D01*
X52043Y160880D01*
X52139Y161060D01*
X53697D01*
Y157291D01*
X53728Y157135D01*
X53816Y157003D01*
X53948Y156914D01*
X54104Y156883D01*
X73916D01*
X74072Y156914D01*
X74205Y157003D01*
X74293Y157135D01*
X74324Y157291D01*
Y167451D01*
X74293Y167607D01*
X74205Y167739D01*
X74072Y167828D01*
X73916Y167859D01*
X54104D01*
X53948Y167828D01*
X53816Y167739D01*
X53728Y167607D01*
X53697Y167451D01*
Y163682D01*
X50549D01*
X50465Y163671D01*
X50295D01*
X49958Y163627D01*
X49645Y163497D01*
X49376Y163290D01*
X49169Y163021D01*
X49039Y162708D01*
X49003Y162433D01*
X48827Y162355D01*
X47141Y164040D01*
X47009Y164129D01*
X46853Y164160D01*
X46853Y164160D01*
X38927D01*
X38866Y164340D01*
X39074Y164500D01*
X39281Y164769D01*
X39411Y165083D01*
X39455Y165419D01*
X39411Y165755D01*
X39281Y166069D01*
X39074Y166338D01*
X38805Y166545D01*
X38492Y166675D01*
X38155Y166719D01*
X37647D01*
X37311Y166675D01*
X36997Y166545D01*
X36728Y166338D01*
X36521Y166069D01*
X36391Y165755D01*
X36347Y165419D01*
X36391Y165083D01*
X36521Y164769D01*
X36728Y164500D01*
X36936Y164340D01*
X36875Y164160D01*
X36745D01*
X36589Y164129D01*
X36530Y164089D01*
X35337D01*
Y175159D01*
X35306Y175315D01*
X35218Y175448D01*
X35085Y175536D01*
X34929Y175567D01*
D02*
G37*
G36*
X212717Y163375D02*
X212433D01*
X212160Y163302D01*
X211915Y163160D01*
X211715Y162960D01*
X211573Y162715D01*
X211500Y162442D01*
Y162158D01*
X211573Y161885D01*
X211715Y161640D01*
X211915Y161440D01*
X212160Y161298D01*
X212433Y161225D01*
X212717D01*
X212990Y161298D01*
X213235Y161440D01*
X213435Y161640D01*
X213577Y161885D01*
X213650Y162158D01*
Y162442D01*
X213577Y162715D01*
X213435Y162960D01*
X213235Y163160D01*
X212990Y163302D01*
X212717Y163375D01*
D02*
G37*
G36*
X213062Y153387D02*
X212087D01*
X211858Y153341D01*
X211664Y153211D01*
X211534Y153017D01*
X211488Y152788D01*
Y151812D01*
X211534Y151583D01*
X211664Y151389D01*
X211858Y151259D01*
X212087Y151213D01*
X213062D01*
X213292Y151259D01*
X213486Y151389D01*
X213616Y151583D01*
X213662Y151812D01*
Y152788D01*
X213616Y153017D01*
X213486Y153211D01*
X213292Y153341D01*
X213062Y153387D01*
D02*
G37*
G36*
X91791Y151192D02*
X91463D01*
X91147Y151107D01*
X90864Y150944D01*
X90632Y150712D01*
X90469Y150429D01*
X90384Y150113D01*
Y149786D01*
X90469Y149469D01*
X90632Y149186D01*
X90864Y148954D01*
X91147Y148791D01*
X91463Y148706D01*
X91791D01*
X92107Y148791D01*
X92390Y148954D01*
X92622Y149186D01*
X92785Y149469D01*
X92870Y149786D01*
Y150113D01*
X92785Y150429D01*
X92622Y150712D01*
X92390Y150944D01*
X92107Y151107D01*
X91791Y151192D01*
D02*
G37*
G36*
X78326Y152837D02*
X53050D01*
X52816Y152790D01*
X52617Y152658D01*
X49816Y149857D01*
X49684Y149658D01*
X49637Y149424D01*
Y148133D01*
X49496Y148075D01*
X49290Y147916D01*
X49131Y147710D01*
X49031Y147469D01*
X48997Y147211D01*
X49031Y146953D01*
X49131Y146712D01*
X49290Y146506D01*
X49496Y146347D01*
X49737Y146247D01*
X49995Y146213D01*
X50503D01*
X50761Y146247D01*
X51002Y146347D01*
X51208Y146506D01*
X51367Y146712D01*
X51467Y146953D01*
X51501Y147211D01*
X51467Y147469D01*
X51367Y147710D01*
X51208Y147916D01*
X51002Y148075D01*
X50861Y148133D01*
Y149171D01*
X53303Y151613D01*
X78073D01*
X81842Y147844D01*
X82041Y147711D01*
X82275Y147664D01*
X82509Y147711D01*
X82708Y147844D01*
X82840Y148042D01*
X82887Y148276D01*
X82840Y148510D01*
X82708Y148709D01*
X78759Y152658D01*
X78560Y152790D01*
X78326Y152837D01*
D02*
G37*
G36*
X167395Y148725D02*
X167165D01*
X166942Y148665D01*
X166743Y148550D01*
X166580Y148387D01*
X166465Y148188D01*
X166405Y147965D01*
Y147735D01*
X166465Y147512D01*
X166580Y147313D01*
X166743Y147150D01*
X166942Y147035D01*
X167165Y146975D01*
X167395D01*
X167618Y147035D01*
X167817Y147150D01*
X167980Y147313D01*
X168095Y147512D01*
X168155Y147735D01*
Y147965D01*
X168095Y148188D01*
X167980Y148387D01*
X167817Y148550D01*
X167618Y148665D01*
X167395Y148725D01*
D02*
G37*
G36*
X164855D02*
X164625D01*
X164402Y148665D01*
X164203Y148550D01*
X164040Y148387D01*
X163925Y148188D01*
X163865Y147965D01*
Y147735D01*
X163925Y147512D01*
X164040Y147313D01*
X164203Y147150D01*
X164402Y147035D01*
X164625Y146975D01*
X164855D01*
X165078Y147035D01*
X165277Y147150D01*
X165440Y147313D01*
X165555Y147512D01*
X165615Y147735D01*
Y147965D01*
X165555Y148188D01*
X165440Y148387D01*
X165277Y148550D01*
X165078Y148665D01*
X164855Y148725D01*
D02*
G37*
G36*
X178042Y167610D02*
X177847Y167571D01*
X177682Y167460D01*
X177673Y167452D01*
X177563Y167287D01*
X177524Y167091D01*
X177563Y166896D01*
X177673Y166731D01*
X177779Y166660D01*
Y146508D01*
X177724Y146486D01*
X177598Y146359D01*
X177529Y146194D01*
Y146015D01*
X177598Y145849D01*
X177724Y145723D01*
X177890Y145654D01*
X178069D01*
X178234Y145723D01*
X178361Y145849D01*
X178429Y146015D01*
Y146194D01*
X178361Y146359D01*
X178288Y146432D01*
Y166660D01*
X178394Y166731D01*
X178403Y166740D01*
X178513Y166905D01*
X178552Y167100D01*
X178513Y167295D01*
X178403Y167460D01*
X178237Y167571D01*
X178042Y167610D01*
D02*
G37*
G36*
X176840Y167550D02*
X176660D01*
X176495Y167481D01*
X176369Y167355D01*
X176300Y167190D01*
Y167010D01*
X176369Y166845D01*
X176495Y166719D01*
X176495Y166719D01*
Y146492D01*
X176470Y146481D01*
X176344Y146355D01*
X176275Y146190D01*
Y146010D01*
X176344Y145845D01*
X176470Y145719D01*
X176635Y145650D01*
X176815D01*
X176980Y145719D01*
X177106Y145845D01*
X177175Y146010D01*
Y146190D01*
X177106Y146355D01*
X177005Y146456D01*
Y166719D01*
X177005Y166719D01*
X177131Y166845D01*
X177200Y167010D01*
Y167190D01*
X177131Y167355D01*
X177005Y167481D01*
X176840Y167550D01*
D02*
G37*
G36*
X175615D02*
X175435D01*
X175270Y167481D01*
X175144Y167355D01*
X175075Y167190D01*
Y167010D01*
X175144Y166845D01*
X175270Y166719D01*
X175270Y166719D01*
Y146502D01*
X175220Y146481D01*
X175094Y146355D01*
X175025Y146190D01*
Y146010D01*
X175094Y145845D01*
X175220Y145719D01*
X175385Y145650D01*
X175565D01*
X175730Y145719D01*
X175856Y145845D01*
X175925Y146010D01*
Y146190D01*
X175856Y146355D01*
X175780Y146432D01*
Y166719D01*
X175780Y166719D01*
X175906Y166845D01*
X175975Y167010D01*
Y167190D01*
X175906Y167355D01*
X175780Y167481D01*
X175615Y167550D01*
D02*
G37*
G36*
X34975Y151683D02*
X3950D01*
X3794Y151652D01*
X3662Y151563D01*
X3573Y151431D01*
X3542Y151275D01*
Y132983D01*
X3573Y132827D01*
X3662Y132695D01*
X3794Y132606D01*
X3950Y132575D01*
X34975D01*
X35131Y132606D01*
X35263Y132695D01*
X35352Y132827D01*
X35383Y132983D01*
Y144169D01*
X36197D01*
X36302Y144098D01*
X36458Y144067D01*
X38031D01*
X38100Y143984D01*
X38004Y143817D01*
X37855Y143837D01*
X37347D01*
X37089Y143803D01*
X36848Y143703D01*
X36642Y143544D01*
X36483Y143338D01*
X36383Y143097D01*
X36349Y142839D01*
X36383Y142581D01*
X36483Y142340D01*
X36642Y142134D01*
X36848Y141975D01*
X37089Y141875D01*
X37347Y141841D01*
X37759D01*
X37811Y141763D01*
X43807Y135767D01*
X44006Y135635D01*
X44240Y135588D01*
X75950D01*
X76184Y135635D01*
X76383Y135767D01*
X82558Y141942D01*
X82690Y142141D01*
X82737Y142375D01*
X82690Y142609D01*
X82558Y142808D01*
X82359Y142940D01*
X82125Y142987D01*
X81891Y142940D01*
X81692Y142808D01*
X75697Y136812D01*
X44493D01*
X38791Y142514D01*
X38819Y142581D01*
X38853Y142839D01*
X38824Y143056D01*
X38938Y143135D01*
X38985Y143149D01*
X41198Y140937D01*
X41330Y140848D01*
X41486Y140817D01*
X41486Y140817D01*
X49688D01*
Y140101D01*
X49731Y139886D01*
X49852Y139704D01*
X52103Y137453D01*
X52285Y137332D01*
X52500Y137289D01*
X75125D01*
X75340Y137332D01*
X75522Y137453D01*
X83082Y145014D01*
X85675D01*
X85699Y144834D01*
X85695Y144833D01*
X85412Y144670D01*
X85180Y144438D01*
X85017Y144155D01*
X84932Y143839D01*
Y143511D01*
X85017Y143195D01*
X85180Y142912D01*
X85412Y142680D01*
X85695Y142517D01*
X86011Y142432D01*
X86339D01*
X86655Y142517D01*
X86938Y142680D01*
X87170Y142912D01*
X87333Y143195D01*
X87418Y143511D01*
Y143839D01*
X87333Y144155D01*
X87170Y144438D01*
X86938Y144670D01*
X86655Y144833D01*
X86651Y144834D01*
X86675Y145014D01*
X91262D01*
X91597Y144678D01*
X91643Y144648D01*
X91682Y144609D01*
X91733Y144588D01*
X91779Y144557D01*
X91834Y144546D01*
X91885Y144525D01*
X91940D01*
X91994Y144514D01*
X92048Y144525D01*
X92103D01*
X92154Y144546D01*
X92209Y144557D01*
X92255Y144588D01*
X92306Y144609D01*
X92345Y144648D01*
X92391Y144678D01*
X92421Y144724D01*
X92460Y144763D01*
X92481Y144814D01*
X92512Y144860D01*
X92523Y144915D01*
X92544Y144966D01*
Y145021D01*
X92555Y145075D01*
X92544Y145129D01*
Y145184D01*
X92523Y145235D01*
X92512Y145290D01*
X92481Y145336D01*
X92460Y145387D01*
X92421Y145426D01*
X92391Y145472D01*
X91891Y145972D01*
X91709Y146093D01*
X91494Y146136D01*
X86359D01*
X86335Y146316D01*
X86492Y146358D01*
X86776Y146521D01*
X87007Y146753D01*
X87171Y147036D01*
X87256Y147352D01*
Y147680D01*
X87171Y147996D01*
X87007Y148279D01*
X86776Y148511D01*
X86492Y148674D01*
X86176Y148759D01*
X85849D01*
X85533Y148674D01*
X85249Y148511D01*
X85018Y148279D01*
X84854Y147996D01*
X84770Y147680D01*
Y147352D01*
X84854Y147036D01*
X85018Y146753D01*
X85249Y146521D01*
X85533Y146358D01*
X85690Y146316D01*
X85666Y146136D01*
X82850D01*
X82635Y146093D01*
X82453Y145972D01*
X74893Y138411D01*
X52732D01*
X50810Y140333D01*
Y140817D01*
X51392D01*
X51548Y140848D01*
X51680Y140937D01*
X51769Y141069D01*
X51800Y141225D01*
Y142106D01*
X51803Y142131D01*
X51800Y142156D01*
Y143003D01*
X51769Y143160D01*
X51755Y143180D01*
X51851Y143360D01*
X53398D01*
Y139591D01*
X53429Y139435D01*
X53517Y139303D01*
X53649Y139214D01*
X53805Y139183D01*
X73617D01*
X73773Y139214D01*
X73906Y139303D01*
X73994Y139435D01*
X74025Y139591D01*
Y149751D01*
X73994Y149907D01*
X73906Y150039D01*
X73773Y150128D01*
X73617Y150159D01*
X53805D01*
X53649Y150128D01*
X53517Y150039D01*
X53429Y149907D01*
X53398Y149751D01*
Y145982D01*
X50249D01*
X50165Y145971D01*
X49995D01*
X49659Y145927D01*
X49345Y145797D01*
X49076Y145590D01*
X48869Y145321D01*
X48739Y145008D01*
X48704Y144744D01*
X48523Y144671D01*
X46652Y146541D01*
X46520Y146630D01*
X46364Y146661D01*
X46364Y146661D01*
X38628Y146661D01*
X38567Y146841D01*
X38774Y147000D01*
X38981Y147269D01*
X39111Y147583D01*
X39155Y147919D01*
X39111Y148255D01*
X38981Y148569D01*
X38774Y148838D01*
X38505Y149045D01*
X38192Y149175D01*
X37855Y149219D01*
X37347D01*
X37011Y149175D01*
X36697Y149045D01*
X36428Y148838D01*
X36221Y148569D01*
X36091Y148255D01*
X36047Y147919D01*
X36091Y147583D01*
X36221Y147269D01*
X36428Y147000D01*
X36635Y146841D01*
X36574Y146661D01*
X36458D01*
X36302Y146630D01*
X36241Y146589D01*
X35383D01*
Y151275D01*
X35352Y151431D01*
X35263Y151563D01*
X35131Y151652D01*
X34975Y151683D01*
D02*
G37*
G36*
X204888Y143965D02*
X204652D01*
X204423Y143904D01*
X204217Y143785D01*
X204050Y143618D01*
X203934Y143417D01*
X189325D01*
X189215Y143608D01*
X189048Y143775D01*
X188842Y143894D01*
X188613Y143955D01*
X188377D01*
X188148Y143894D01*
X187942Y143775D01*
X187775Y143608D01*
X187656Y143402D01*
X187595Y143173D01*
Y142937D01*
X187656Y142708D01*
X187775Y142502D01*
X187942Y142335D01*
X188148Y142216D01*
X188377Y142155D01*
X188613D01*
X188842Y142216D01*
X189048Y142335D01*
X189215Y142502D01*
X189331Y142703D01*
X203940D01*
X204050Y142512D01*
X204217Y142345D01*
X204423Y142226D01*
X204652Y142165D01*
X204888D01*
X205117Y142226D01*
X205323Y142345D01*
X205490Y142512D01*
X205609Y142718D01*
X205670Y142947D01*
Y143183D01*
X205609Y143412D01*
X205490Y143618D01*
X205323Y143785D01*
X205117Y143904D01*
X204888Y143965D01*
D02*
G37*
G36*
Y141425D02*
X204652D01*
X204423Y141364D01*
X204217Y141245D01*
X204050Y141078D01*
X203934Y140877D01*
X189325D01*
X189215Y141068D01*
X189048Y141235D01*
X188842Y141354D01*
X188613Y141415D01*
X188377D01*
X188148Y141354D01*
X187942Y141235D01*
X187775Y141068D01*
X187656Y140862D01*
X187595Y140633D01*
Y140397D01*
X187656Y140168D01*
X187775Y139962D01*
X187942Y139795D01*
X188148Y139676D01*
X188377Y139615D01*
X188613D01*
X188842Y139676D01*
X189048Y139795D01*
X189215Y139962D01*
X189331Y140163D01*
X203940D01*
X204050Y139972D01*
X204217Y139805D01*
X204423Y139686D01*
X204652Y139625D01*
X204888D01*
X205117Y139686D01*
X205323Y139805D01*
X205490Y139972D01*
X205609Y140178D01*
X205670Y140407D01*
Y140643D01*
X205609Y140872D01*
X205490Y141078D01*
X205323Y141245D01*
X205117Y141364D01*
X204888Y141425D01*
D02*
G37*
G36*
X134160Y157535D02*
X133278Y157492D01*
X132405Y157362D01*
X131549Y157148D01*
X130717Y156850D01*
X129919Y156473D01*
X129162Y156019D01*
X128453Y155493D01*
X127799Y154900D01*
X127206Y154246D01*
X126680Y153537D01*
X126226Y152780D01*
X125849Y151982D01*
X125551Y151150D01*
X125337Y150294D01*
X125207Y149421D01*
X125164Y148539D01*
X125207Y147657D01*
X125337Y146784D01*
X125551Y145928D01*
X125849Y145096D01*
X126226Y144298D01*
X126680Y143541D01*
X127206Y142832D01*
X127799Y142178D01*
X128453Y141585D01*
X129162Y141059D01*
X129919Y140605D01*
X130717Y140228D01*
X131549Y139930D01*
X132405Y139716D01*
X133278Y139586D01*
X134160Y139543D01*
X135042Y139586D01*
X135915Y139716D01*
X136771Y139930D01*
X137603Y140228D01*
X138401Y140605D01*
X139158Y141059D01*
X139867Y141585D01*
X140521Y142178D01*
X141114Y142832D01*
X141640Y143541D01*
X142094Y144298D01*
X142471Y145096D01*
X142769Y145928D01*
X142983Y146784D01*
X143113Y147657D01*
X143156Y148539D01*
X143113Y149421D01*
X142983Y150294D01*
X142769Y151150D01*
X142471Y151982D01*
X142094Y152780D01*
X141640Y153537D01*
X141114Y154246D01*
X140521Y154900D01*
X139867Y155493D01*
X139158Y156019D01*
X138401Y156473D01*
X137603Y156850D01*
X136771Y157148D01*
X135915Y157362D01*
X135042Y157492D01*
X134160Y157535D01*
D02*
G37*
G36*
X202153Y182601D02*
X201974D01*
X201809Y182533D01*
X201682Y182406D01*
X201613Y182241D01*
Y182206D01*
X199573Y180165D01*
X199495Y180049D01*
X199468Y179913D01*
Y169373D01*
X183623Y153527D01*
X183545Y153412D01*
X183518Y153275D01*
Y139489D01*
X183494Y139464D01*
X183425Y139299D01*
Y139120D01*
X183494Y138954D01*
X183620Y138828D01*
X183785Y138759D01*
X183965D01*
X184130Y138828D01*
X184256Y138954D01*
X184325Y139120D01*
Y139299D01*
X184256Y139464D01*
X184232Y139489D01*
Y153127D01*
X200077Y168973D01*
X200155Y169088D01*
X200182Y169225D01*
Y179765D01*
X202118Y181701D01*
X202153D01*
X202318Y181770D01*
X202445Y181896D01*
X202513Y182062D01*
Y182241D01*
X202445Y182406D01*
X202318Y182533D01*
X202153Y182601D01*
D02*
G37*
G36*
X80550Y137908D02*
X80394Y137877D01*
X80262Y137788D01*
X80262Y137788D01*
X77056Y134583D01*
X36458Y134583D01*
X36302Y134552D01*
X36170Y134464D01*
X36081Y134331D01*
X36050Y134175D01*
Y126250D01*
X36081Y126094D01*
X36170Y125962D01*
X36302Y125873D01*
X36458Y125842D01*
X77256Y125842D01*
X79962Y123136D01*
X79869Y122975D01*
X79614Y123043D01*
X79286D01*
X78970Y122958D01*
X78687Y122795D01*
X78455Y122563D01*
X78292Y122280D01*
X78207Y121964D01*
Y121636D01*
X78292Y121320D01*
X78455Y121037D01*
X78687Y120805D01*
X78970Y120642D01*
X79286Y120557D01*
X79614D01*
X79930Y120642D01*
X80213Y120805D01*
X80445Y121037D01*
X80608Y121320D01*
X80693Y121636D01*
Y121964D01*
X80608Y122280D01*
X80532Y122411D01*
X80537Y122430D01*
X80647Y122572D01*
X80707Y122560D01*
X80707Y122560D01*
X85375D01*
X85531Y122591D01*
X85663Y122680D01*
X85752Y122812D01*
X85783Y122968D01*
Y137500D01*
X85752Y137656D01*
X85663Y137788D01*
X85531Y137877D01*
X85375Y137908D01*
X80550D01*
X80550Y137908D01*
D02*
G37*
G36*
X169785Y137764D02*
X169465D01*
X169151Y137702D01*
X168856Y137579D01*
X168590Y137401D01*
X168364Y137175D01*
X168186Y136909D01*
X168063Y136614D01*
X168001Y136300D01*
Y135980D01*
X168063Y135666D01*
X168186Y135371D01*
X168364Y135105D01*
X168590Y134879D01*
X168856Y134701D01*
X169151Y134578D01*
X169465Y134516D01*
X169785D01*
X170099Y134578D01*
X170394Y134701D01*
X170660Y134879D01*
X170886Y135105D01*
X171064Y135371D01*
X171187Y135666D01*
X171249Y135980D01*
Y136300D01*
X171187Y136614D01*
X171064Y136909D01*
X170886Y137175D01*
X170660Y137401D01*
X170394Y137579D01*
X170099Y137702D01*
X169785Y137764D01*
D02*
G37*
G36*
X194715Y178700D02*
X194535D01*
X194370Y178631D01*
X194244Y178505D01*
X194175Y178340D01*
Y178160D01*
X194244Y177995D01*
X194370Y177869D01*
X194370Y177869D01*
Y165805D01*
X182221Y153656D01*
X182166Y153574D01*
X182146Y153476D01*
Y132142D01*
X182146Y132142D01*
X182020Y132016D01*
X181951Y131850D01*
Y131671D01*
X182020Y131506D01*
X182146Y131379D01*
X182312Y131311D01*
X182491D01*
X182656Y131379D01*
X182783Y131506D01*
X182851Y131671D01*
Y131850D01*
X182783Y132016D01*
X182656Y132142D01*
X182656Y132142D01*
Y153370D01*
X194805Y165519D01*
X194860Y165602D01*
X194880Y165700D01*
Y177869D01*
X194880Y177869D01*
X195006Y177995D01*
X195075Y178160D01*
Y178340D01*
X195006Y178505D01*
X194880Y178631D01*
X194715Y178700D01*
D02*
G37*
G36*
X170890Y165825D02*
X170710D01*
X170545Y165756D01*
X170419Y165630D01*
X170350Y165465D01*
Y165285D01*
X170419Y165120D01*
X170545Y164994D01*
X170545Y164994D01*
Y162500D01*
X170565Y162402D01*
X170620Y162320D01*
X171245Y161694D01*
Y147256D01*
X161320Y137330D01*
X161265Y137248D01*
X161245Y137150D01*
Y131181D01*
X161245Y131181D01*
X161119Y131055D01*
X161050Y130890D01*
Y130710D01*
X161119Y130545D01*
X161245Y130419D01*
X161410Y130350D01*
X161590D01*
X161755Y130419D01*
X161881Y130545D01*
X161950Y130710D01*
Y130890D01*
X161881Y131055D01*
X161755Y131181D01*
X161755Y131181D01*
Y137044D01*
X171680Y146970D01*
X171735Y147052D01*
X171755Y147150D01*
Y161800D01*
X171735Y161898D01*
X171680Y161980D01*
X171055Y162606D01*
Y164994D01*
X171055Y164994D01*
X171181Y165120D01*
X171250Y165285D01*
Y165465D01*
X171181Y165630D01*
X171055Y165756D01*
X170890Y165825D01*
D02*
G37*
G36*
X207040Y175725D02*
X206860D01*
X206695Y175656D01*
X206569Y175530D01*
X206500Y175365D01*
Y175330D01*
X202923Y171752D01*
X202845Y171637D01*
X202818Y171500D01*
Y168673D01*
X186566Y152421D01*
X186489Y152305D01*
X186462Y152168D01*
Y137882D01*
Y132116D01*
X184379Y130033D01*
X184143D01*
Y136223D01*
X184211Y136387D01*
Y136566D01*
X184143Y136731D01*
X184016Y136858D01*
X183851Y136926D01*
X183672D01*
X183506Y136858D01*
X183380Y136731D01*
X183311Y136566D01*
Y136387D01*
X183380Y136221D01*
X183430Y136171D01*
Y130033D01*
X178129D01*
X173057Y135105D01*
Y137670D01*
X173081Y137695D01*
X173150Y137860D01*
Y138040D01*
X173081Y138205D01*
X172955Y138331D01*
X172790Y138400D01*
X172610D01*
X172445Y138331D01*
X172319Y138205D01*
X172250Y138040D01*
Y137860D01*
X172319Y137695D01*
X172343Y137670D01*
Y134958D01*
X172370Y134821D01*
X172448Y134705D01*
X177729Y129424D01*
X177844Y129347D01*
X177981Y129320D01*
X183775D01*
Y125630D01*
X167926D01*
X167829Y125610D01*
X167746Y125555D01*
X165421Y123230D01*
X163231D01*
X163231Y123230D01*
X163105Y123356D01*
X162940Y123425D01*
X162760D01*
X162595Y123356D01*
X162469Y123230D01*
X162400Y123065D01*
Y122885D01*
X162469Y122720D01*
X162595Y122594D01*
X162760Y122525D01*
X162940D01*
X163105Y122594D01*
X163231Y122720D01*
X163231Y122720D01*
X165526D01*
X165624Y122740D01*
X165707Y122795D01*
X168032Y125120D01*
X183775D01*
Y118391D01*
X175671Y110287D01*
X175636D01*
X175471Y110218D01*
X175344Y110091D01*
X175276Y109926D01*
Y109747D01*
X175344Y109582D01*
X175471Y109455D01*
X175636Y109387D01*
X175815D01*
X175981Y109455D01*
X176107Y109582D01*
X176176Y109747D01*
Y109782D01*
X184384Y117990D01*
X184462Y118106D01*
X184489Y118243D01*
Y125375D01*
Y129320D01*
X184527D01*
X184663Y129347D01*
X184779Y129424D01*
X187071Y131716D01*
X187148Y131832D01*
X187175Y131968D01*
Y137618D01*
X187662D01*
X187775Y137422D01*
X187942Y137255D01*
X188148Y137136D01*
X188377Y137075D01*
X188613D01*
X188842Y137136D01*
X189048Y137255D01*
X189215Y137422D01*
X189331Y137623D01*
X203940D01*
X204050Y137432D01*
X204217Y137265D01*
X204423Y137146D01*
X204652Y137085D01*
X204888D01*
X205117Y137146D01*
X205323Y137265D01*
X205490Y137432D01*
X205609Y137638D01*
X205670Y137867D01*
Y138103D01*
X205609Y138332D01*
X205490Y138538D01*
X205323Y138705D01*
X205117Y138824D01*
X204888Y138885D01*
X204652D01*
X204423Y138824D01*
X204217Y138705D01*
X204050Y138538D01*
X203934Y138337D01*
X189325D01*
X189215Y138528D01*
X189048Y138695D01*
X188842Y138814D01*
X188613Y138875D01*
X188377D01*
X188148Y138814D01*
X187942Y138695D01*
X187775Y138528D01*
X187662Y138332D01*
X187175D01*
Y152021D01*
X203427Y168273D01*
X203505Y168388D01*
X203532Y168525D01*
Y171352D01*
X207005Y174825D01*
X207040D01*
X207205Y174894D01*
X207331Y175020D01*
X207400Y175185D01*
Y175365D01*
X207331Y175530D01*
X207205Y175656D01*
X207040Y175725D01*
D02*
G37*
G36*
X142450Y131730D02*
X123450D01*
X123352Y131710D01*
X123270Y131655D01*
X109806Y118192D01*
X109605Y118308D01*
X109289Y118393D01*
X108961D01*
X108645Y118308D01*
X108362Y118145D01*
X108130Y117913D01*
X107967Y117630D01*
X107882Y117314D01*
Y116986D01*
X107967Y116670D01*
X108130Y116387D01*
X108362Y116155D01*
X108645Y115992D01*
X108961Y115907D01*
X109289D01*
X109605Y115992D01*
X109888Y116155D01*
X110120Y116387D01*
X110283Y116670D01*
X110368Y116986D01*
Y117314D01*
X110283Y117630D01*
X110167Y117831D01*
X123556Y131220D01*
X142344D01*
X143625Y129940D01*
X143625Y129940D01*
Y129760D01*
X143694Y129595D01*
X143820Y129469D01*
X143985Y129400D01*
X144165D01*
X144330Y129469D01*
X144456Y129595D01*
X144525Y129760D01*
Y129940D01*
X144456Y130105D01*
X144330Y130231D01*
X144165Y130300D01*
X143985D01*
X143985Y130300D01*
X142630Y131655D01*
X142548Y131710D01*
X142450Y131730D01*
D02*
G37*
G36*
X109039Y146468D02*
X108711D01*
X108395Y146383D01*
X108112Y146220D01*
X107880Y145988D01*
X107717Y145705D01*
X107632Y145389D01*
Y145061D01*
X107717Y144745D01*
X107880Y144462D01*
X108112Y144230D01*
X108395Y144067D01*
X108711Y143982D01*
X109039D01*
X109355Y144067D01*
X109638Y144230D01*
X109699Y144291D01*
X116995Y136995D01*
X117077Y136940D01*
X117175Y136920D01*
X142394D01*
X151275Y128040D01*
X151275Y128040D01*
Y127860D01*
X151344Y127695D01*
X151470Y127569D01*
X151635Y127500D01*
X151815D01*
X151980Y127569D01*
X152106Y127695D01*
X152175Y127860D01*
Y128040D01*
X152106Y128205D01*
X151980Y128331D01*
X151815Y128400D01*
X151635D01*
X151635Y128400D01*
X142680Y137355D01*
X142598Y137410D01*
X142500Y137430D01*
X117281D01*
X110008Y144702D01*
X110033Y144745D01*
X110118Y145061D01*
Y145389D01*
X110033Y145705D01*
X109870Y145988D01*
X109638Y146220D01*
X109355Y146383D01*
X109039Y146468D01*
D02*
G37*
G36*
X165376Y135396D02*
X165197D01*
X165032Y135327D01*
X164905Y135201D01*
X164837Y135035D01*
Y134856D01*
X164905Y134691D01*
X165032Y134564D01*
X165197Y134496D01*
X165376D01*
X165376Y134496D01*
X171986Y127887D01*
X172068Y127831D01*
X172166Y127812D01*
X181178D01*
X181650Y127340D01*
X181650Y127340D01*
Y127160D01*
X181719Y126995D01*
X181845Y126869D01*
X182010Y126800D01*
X182190D01*
X182355Y126869D01*
X182481Y126995D01*
X182550Y127160D01*
Y127340D01*
X182481Y127505D01*
X182355Y127631D01*
X182190Y127700D01*
X182010D01*
X182010Y127700D01*
X181463Y128247D01*
X181381Y128302D01*
X181283Y128322D01*
X172271D01*
X165737Y134856D01*
X165737Y134856D01*
Y135035D01*
X165668Y135201D01*
X165542Y135327D01*
X165376Y135396D01*
D02*
G37*
G36*
X162315Y156748D02*
X162085D01*
X161862Y156688D01*
X161663Y156573D01*
X161500Y156410D01*
X161385Y156211D01*
X161325Y155988D01*
Y155758D01*
X161385Y155535D01*
X161500Y155336D01*
X161663Y155173D01*
X161862Y155057D01*
X161945Y155035D01*
Y148688D01*
X161862Y148665D01*
X161663Y148550D01*
X161500Y148387D01*
X161385Y148188D01*
X161325Y147965D01*
Y147735D01*
X161385Y147512D01*
X161500Y147313D01*
X161663Y147150D01*
X161862Y147035D01*
X161945Y147012D01*
Y143531D01*
X160288Y141873D01*
X160232Y141791D01*
X160213Y141693D01*
Y127380D01*
X160163Y127330D01*
X160095Y127164D01*
Y126985D01*
X160163Y126820D01*
X160290Y126693D01*
X160455Y126625D01*
X160634D01*
X160799Y126693D01*
X160926Y126820D01*
X160995Y126985D01*
Y127164D01*
X160926Y127330D01*
X160799Y127456D01*
X160723Y127488D01*
Y141587D01*
X162380Y143245D01*
X162435Y143327D01*
X162455Y143425D01*
Y147012D01*
X162538Y147035D01*
X162737Y147150D01*
X162900Y147313D01*
X163015Y147512D01*
X163075Y147735D01*
Y147965D01*
X163015Y148188D01*
X162900Y148387D01*
X162737Y148550D01*
X162538Y148665D01*
X162455Y148688D01*
Y155035D01*
X162538Y155057D01*
X162737Y155173D01*
X162900Y155336D01*
X163015Y155535D01*
X163075Y155758D01*
Y155988D01*
X163015Y156211D01*
X162900Y156410D01*
X162737Y156573D01*
X162538Y156688D01*
X162315Y156748D01*
D02*
G37*
G36*
X165337Y133561D02*
X165158D01*
X164992Y133493D01*
X164866Y133366D01*
X164797Y133201D01*
Y133022D01*
X164866Y132856D01*
X164992Y132730D01*
X165158Y132661D01*
X165337D01*
X165337Y132661D01*
X171503Y126495D01*
X171586Y126440D01*
X171684Y126420D01*
X179419D01*
X179419Y126420D01*
X179545Y126294D01*
X179710Y126225D01*
X179890D01*
X180055Y126294D01*
X180181Y126420D01*
X180250Y126585D01*
Y126765D01*
X180181Y126930D01*
X180055Y127056D01*
X179890Y127125D01*
X179710D01*
X179545Y127056D01*
X179419Y126930D01*
X179419Y126930D01*
X171789D01*
X165697Y133022D01*
X165697Y133022D01*
Y133201D01*
X165629Y133366D01*
X165502Y133493D01*
X165337Y133561D01*
D02*
G37*
G36*
X159775Y156748D02*
X159545D01*
X159322Y156688D01*
X159123Y156573D01*
X158960Y156410D01*
X158845Y156211D01*
X158785Y155988D01*
Y155758D01*
X158845Y155535D01*
X158960Y155336D01*
X159123Y155173D01*
X159322Y155057D01*
X159405Y155035D01*
Y148688D01*
X159322Y148665D01*
X159123Y148550D01*
X158960Y148387D01*
X158845Y148188D01*
X158785Y147965D01*
Y147735D01*
X158845Y147512D01*
X158960Y147313D01*
X159123Y147150D01*
X159322Y147035D01*
X159405Y147012D01*
Y143531D01*
X158920Y143045D01*
X158865Y142963D01*
X158845Y142865D01*
Y123056D01*
X158845Y123056D01*
X158719Y122930D01*
X158650Y122765D01*
Y122585D01*
X158719Y122420D01*
X158845Y122294D01*
X159010Y122225D01*
X159190D01*
X159355Y122294D01*
X159481Y122420D01*
X159550Y122585D01*
Y122765D01*
X159481Y122930D01*
X159355Y123056D01*
X159355Y123056D01*
Y142759D01*
X159840Y143245D01*
X159895Y143327D01*
X159915Y143425D01*
Y147012D01*
X159998Y147035D01*
X160197Y147150D01*
X160360Y147313D01*
X160475Y147512D01*
X160535Y147735D01*
Y147965D01*
X160475Y148188D01*
X160360Y148387D01*
X160197Y148550D01*
X159998Y148665D01*
X159915Y148688D01*
Y155035D01*
X159998Y155057D01*
X160197Y155173D01*
X160360Y155336D01*
X160475Y155535D01*
X160535Y155758D01*
Y155988D01*
X160475Y156211D01*
X160360Y156410D01*
X160197Y156573D01*
X159998Y156688D01*
X159775Y156748D01*
D02*
G37*
G36*
X143966Y173635D02*
X143639D01*
X143323Y173551D01*
X143039Y173387D01*
X142808Y173156D01*
X142644Y172872D01*
X142560Y172556D01*
Y172229D01*
X142644Y171913D01*
X142808Y171629D01*
X143039Y171398D01*
X143323Y171234D01*
X143548Y171174D01*
Y158297D01*
X143567Y158200D01*
X143622Y158117D01*
X157570Y144169D01*
Y117950D01*
X157590Y117852D01*
X157645Y117770D01*
X159195Y116220D01*
X159277Y116165D01*
X159375Y116145D01*
X163686D01*
X163783Y116165D01*
X163866Y116220D01*
X168808Y121162D01*
X175895D01*
X175895Y121162D01*
X176022Y121036D01*
X176187Y120967D01*
X176366D01*
X176532Y121036D01*
X176658Y121162D01*
X176727Y121328D01*
Y121507D01*
X176658Y121672D01*
X176532Y121799D01*
X176366Y121867D01*
X176187D01*
X176022Y121799D01*
X175895Y121672D01*
X175895Y121672D01*
X168703D01*
X168605Y121653D01*
X168522Y121597D01*
X163580Y116655D01*
X159481D01*
X158080Y118056D01*
Y144275D01*
X158060Y144373D01*
X158005Y144455D01*
X144058Y158403D01*
Y171174D01*
X144282Y171234D01*
X144566Y171398D01*
X144797Y171629D01*
X144961Y171913D01*
X145046Y172229D01*
Y172556D01*
X144961Y172872D01*
X144797Y173156D01*
X144566Y173387D01*
X144282Y173551D01*
X143966Y173635D01*
D02*
G37*
G36*
X186089Y123193D02*
X185762D01*
X185446Y123108D01*
X185162Y122944D01*
X184931Y122713D01*
X184767Y122429D01*
X184682Y122113D01*
Y121786D01*
X184767Y121470D01*
X184931Y121186D01*
X185162Y120955D01*
X185446Y120791D01*
X185762Y120707D01*
X186089D01*
X186405Y120791D01*
X186689Y120955D01*
X186920Y121186D01*
X187084Y121470D01*
X187168Y121786D01*
Y122113D01*
X187084Y122429D01*
X186920Y122713D01*
X186689Y122944D01*
X186405Y123108D01*
X186089Y123193D01*
D02*
G37*
G36*
X183115Y120700D02*
X182935D01*
X182770Y120631D01*
X182644Y120505D01*
X182575Y120340D01*
Y120192D01*
X173738Y111355D01*
X173250D01*
X173152Y111335D01*
X173070Y111280D01*
X171565Y109775D01*
X171565Y109775D01*
X171385D01*
X171220Y109706D01*
X171094Y109580D01*
X171025Y109415D01*
Y109235D01*
X171094Y109070D01*
X171220Y108944D01*
X171385Y108875D01*
X171565D01*
X171730Y108944D01*
X171856Y109070D01*
X171925Y109235D01*
Y109415D01*
X171925Y109415D01*
X173356Y110845D01*
X173843D01*
X173941Y110865D01*
X174024Y110920D01*
X182913Y119809D01*
X182935Y119800D01*
X183115D01*
X183280Y119869D01*
X183406Y119995D01*
X183475Y120160D01*
Y120340D01*
X183406Y120505D01*
X183280Y120631D01*
X183115Y120700D01*
D02*
G37*
G36*
X124413Y173587D02*
X124085D01*
X123769Y173502D01*
X123486Y173338D01*
X123254Y173107D01*
X123091Y172824D01*
X123006Y172507D01*
Y172180D01*
X123091Y171864D01*
X123254Y171581D01*
X123486Y171349D01*
X123769Y171186D01*
X124085Y171101D01*
X124413D01*
X124729Y171186D01*
X125012Y171349D01*
X125244Y171581D01*
X125407Y171864D01*
X125468Y172089D01*
X127926D01*
X130862Y169153D01*
Y167058D01*
X130881Y166961D01*
X130936Y166878D01*
X132144Y165670D01*
X132227Y165615D01*
X132324Y165596D01*
X134419D01*
X156309Y143706D01*
Y117537D01*
X156328Y117439D01*
X156383Y117356D01*
X158620Y115120D01*
X158702Y115065D01*
X158800Y115045D01*
X164475D01*
X164573Y115065D01*
X164655Y115120D01*
X169531Y119995D01*
X176277D01*
X176277Y119995D01*
X176403Y119869D01*
X176569Y119800D01*
X176748D01*
X176913Y119869D01*
X177040Y119995D01*
X177108Y120160D01*
Y120340D01*
X177040Y120505D01*
X176913Y120631D01*
X176748Y120700D01*
X176569D01*
X176403Y120631D01*
X176277Y120505D01*
X176277Y120505D01*
X169425D01*
X169327Y120485D01*
X169245Y120430D01*
X164369Y115555D01*
X158906D01*
X156818Y117642D01*
Y143812D01*
X156799Y143909D01*
X156744Y143992D01*
X134705Y166031D01*
X134622Y166086D01*
X134524Y166105D01*
X132430D01*
X131372Y167164D01*
Y169258D01*
X131352Y169356D01*
X131297Y169439D01*
X128211Y172524D01*
X128129Y172579D01*
X128031Y172599D01*
X125468D01*
X125407Y172824D01*
X125244Y173107D01*
X125012Y173338D01*
X124729Y173502D01*
X124413Y173587D01*
D02*
G37*
G36*
X91664Y119070D02*
X91336D01*
X91020Y118985D01*
X90737Y118822D01*
X90505Y118590D01*
X90342Y118307D01*
X90257Y117991D01*
Y117663D01*
X90342Y117347D01*
X90505Y117064D01*
X90737Y116832D01*
X91020Y116669D01*
X91336Y116584D01*
X91664D01*
X91980Y116669D01*
X92263Y116832D01*
X92495Y117064D01*
X92658Y117347D01*
X92743Y117663D01*
Y117991D01*
X92658Y118307D01*
X92495Y118590D01*
X92263Y118822D01*
X91980Y118985D01*
X91664Y119070D01*
D02*
G37*
G36*
X34672Y130467D02*
X3950D01*
X3794Y130436D01*
X3662Y130348D01*
X3573Y130215D01*
X3542Y130059D01*
Y112808D01*
X3573Y112652D01*
X3662Y112520D01*
X3794Y112431D01*
X3950Y112400D01*
X14683D01*
X14733Y112390D01*
X34545D01*
X34595Y112400D01*
X34672D01*
X34828Y112431D01*
X34960Y112520D01*
X35049Y112652D01*
X35080Y112808D01*
Y116669D01*
X36719D01*
X36802Y116613D01*
X36958Y116582D01*
X37822D01*
X37847Y116579D01*
X38355D01*
X38380Y116582D01*
X38691D01*
X38891Y116382D01*
X38789Y116230D01*
X38613Y116303D01*
X38355Y116337D01*
X37847D01*
X37589Y116303D01*
X37348Y116203D01*
X37142Y116044D01*
X36983Y115838D01*
X36883Y115597D01*
X36849Y115339D01*
X36883Y115081D01*
X36983Y114840D01*
X37142Y114634D01*
X37348Y114475D01*
X37589Y114375D01*
X37847Y114341D01*
X38259D01*
X38311Y114263D01*
X44907Y107667D01*
X45106Y107535D01*
X45340Y107488D01*
X78883D01*
X79117Y107535D01*
X79315Y107667D01*
X82683Y111035D01*
X82815Y111233D01*
X82862Y111467D01*
X82815Y111701D01*
X82683Y111900D01*
X82484Y112032D01*
X82250Y112079D01*
X82016Y112032D01*
X81817Y111900D01*
X78629Y108712D01*
X45593D01*
X39291Y115014D01*
X39319Y115081D01*
X39353Y115339D01*
X39319Y115597D01*
X39246Y115773D01*
X39398Y115875D01*
X41611Y113663D01*
X41743Y113574D01*
X41899Y113543D01*
X41899Y113543D01*
X50188D01*
Y113001D01*
X50231Y112786D01*
X50352Y112604D01*
X53228Y109728D01*
X53410Y109607D01*
X53625Y109564D01*
X77277D01*
X77492Y109607D01*
X77673Y109728D01*
X81584Y113639D01*
X85758D01*
X85782Y113459D01*
X85520Y113389D01*
X85237Y113226D01*
X85005Y112994D01*
X84842Y112711D01*
X84757Y112395D01*
Y112067D01*
X84842Y111751D01*
X85005Y111468D01*
X85237Y111236D01*
X85520Y111073D01*
X85836Y110988D01*
X86164D01*
X86480Y111073D01*
X86763Y111236D01*
X86995Y111468D01*
X87158Y111751D01*
X87243Y112067D01*
Y112395D01*
X87158Y112711D01*
X86995Y112994D01*
X86763Y113226D01*
X86480Y113389D01*
X86218Y113459D01*
X86242Y113639D01*
X91950D01*
X92004Y113650D01*
X92059D01*
X92110Y113671D01*
X92165Y113682D01*
X92211Y113713D01*
X92262Y113734D01*
X92301Y113773D01*
X92347Y113803D01*
X92377Y113849D01*
X92416Y113888D01*
X92437Y113939D01*
X92468Y113985D01*
X92479Y114040D01*
X92500Y114091D01*
Y114146D01*
X92511Y114200D01*
X92500Y114254D01*
Y114309D01*
X92479Y114360D01*
X92468Y114415D01*
X92437Y114461D01*
X92416Y114512D01*
X92377Y114551D01*
X92347Y114597D01*
X92301Y114627D01*
X92262Y114666D01*
X92211Y114687D01*
X92165Y114718D01*
X92110Y114729D01*
X92059Y114750D01*
X92004D01*
X91950Y114761D01*
X86326D01*
X86302Y114941D01*
X86492Y114992D01*
X86776Y115155D01*
X87007Y115387D01*
X87171Y115670D01*
X87256Y115986D01*
Y116314D01*
X87171Y116630D01*
X87007Y116913D01*
X86776Y117145D01*
X86492Y117308D01*
X86176Y117393D01*
X85849D01*
X85533Y117308D01*
X85249Y117145D01*
X85018Y116913D01*
X84854Y116630D01*
X84770Y116314D01*
Y115986D01*
X84854Y115670D01*
X85018Y115387D01*
X85249Y115155D01*
X85533Y114992D01*
X85723Y114941D01*
X85699Y114761D01*
X81352D01*
X81137Y114718D01*
X80955Y114597D01*
X77045Y110686D01*
X53857D01*
X51310Y113233D01*
Y113543D01*
X51954D01*
X52110Y113574D01*
X52242Y113663D01*
X52331Y113795D01*
X52362Y113951D01*
Y115729D01*
X52332Y115880D01*
X52331Y115885D01*
X52430Y116060D01*
X53897D01*
Y112291D01*
X53928Y112135D01*
X54017Y112003D01*
X54149Y111914D01*
X54305Y111883D01*
X74117D01*
X74273Y111914D01*
X74405Y112003D01*
X74494Y112135D01*
X74525Y112291D01*
Y122451D01*
X74494Y122607D01*
X74462Y122654D01*
X74446Y122679D01*
X74586Y122793D01*
X80734Y116645D01*
X80900Y116534D01*
X81095Y116495D01*
X82323D01*
X82518Y116534D01*
X82683Y116645D01*
X82794Y116810D01*
X82833Y117005D01*
X82794Y117200D01*
X82683Y117366D01*
X82518Y117476D01*
X82323Y117515D01*
X81306D01*
X73710Y125110D01*
X73545Y125221D01*
X73350Y125260D01*
X53800D01*
X53605Y125221D01*
X53440Y125110D01*
X50389Y122059D01*
X50278Y121894D01*
X50239Y121699D01*
Y120875D01*
X50237Y120875D01*
X49996Y120775D01*
X49790Y120616D01*
X49631Y120410D01*
X49531Y120169D01*
X49497Y119911D01*
X49531Y119653D01*
X49631Y119412D01*
X49790Y119206D01*
X49996Y119047D01*
X50237Y118947D01*
X50495Y118913D01*
X51003D01*
X51261Y118947D01*
X51502Y119047D01*
X51708Y119206D01*
X51867Y119412D01*
X51967Y119653D01*
X52001Y119911D01*
X51967Y120169D01*
X51867Y120410D01*
X51708Y120616D01*
X51502Y120775D01*
X51261Y120875D01*
X51259Y120875D01*
Y121488D01*
X54011Y124240D01*
X73139D01*
X74459Y122920D01*
X74344Y122780D01*
X74320Y122796D01*
X74273Y122828D01*
X74117Y122859D01*
X54305D01*
X54149Y122828D01*
X54017Y122739D01*
X53928Y122607D01*
X53897Y122451D01*
Y118682D01*
X50749D01*
X50665Y118671D01*
X50495D01*
X50159Y118627D01*
X49845Y118497D01*
X49576Y118290D01*
X49369Y118021D01*
X49239Y117707D01*
X49215Y117522D01*
X49025Y117457D01*
X47416Y119065D01*
X47284Y119154D01*
X47128Y119185D01*
X47128Y119185D01*
X39160D01*
X39099Y119365D01*
X39274Y119500D01*
X39481Y119769D01*
X39611Y120083D01*
X39655Y120419D01*
X39611Y120756D01*
X39481Y121069D01*
X39274Y121338D01*
X39005Y121545D01*
X38692Y121675D01*
X38355Y121719D01*
X37847D01*
X37511Y121675D01*
X37197Y121545D01*
X36928Y121338D01*
X36721Y121069D01*
X36591Y120756D01*
X36547Y120419D01*
X36591Y120083D01*
X36721Y119769D01*
X36928Y119500D01*
X37103Y119365D01*
X37042Y119185D01*
X36958D01*
X36802Y119154D01*
X36705Y119089D01*
X35080D01*
Y130059D01*
X35049Y130215D01*
X34960Y130348D01*
X34828Y130436D01*
X34672Y130467D01*
D02*
G37*
G36*
X102915Y190676D02*
X102735D01*
X102570Y190607D01*
X102444Y190481D01*
X102375Y190316D01*
Y190136D01*
X102444Y189971D01*
X102532Y189883D01*
Y160765D01*
X102494Y160749D01*
X102367Y160622D01*
X102299Y160457D01*
Y160278D01*
X102367Y160113D01*
X102494Y159986D01*
X102513Y159978D01*
Y147957D01*
X102532Y147860D01*
X102587Y147777D01*
X115770Y134595D01*
X115852Y134540D01*
X115950Y134520D01*
X142494D01*
X151224Y125790D01*
Y116032D01*
X151243Y115935D01*
X151299Y115852D01*
X153406Y113745D01*
X153406Y113745D01*
X156231Y110920D01*
X156314Y110865D01*
X156411Y110845D01*
X169575D01*
X169673Y110865D01*
X169755Y110920D01*
X174585Y115750D01*
X174585Y115750D01*
X174765D01*
X174930Y115819D01*
X175056Y115945D01*
X175125Y116110D01*
Y116290D01*
X175056Y116455D01*
X174930Y116581D01*
X174765Y116650D01*
X174585D01*
X174420Y116581D01*
X174294Y116455D01*
X174225Y116290D01*
Y116110D01*
X174225Y116110D01*
X169469Y111355D01*
X156517D01*
X153767Y114105D01*
X153766Y114105D01*
X151734Y116138D01*
Y125896D01*
X151714Y125994D01*
X151659Y126076D01*
X142780Y134955D01*
X142698Y135010D01*
X142600Y135030D01*
X116056D01*
X103022Y148063D01*
Y160005D01*
X103130Y160113D01*
X103199Y160278D01*
Y160457D01*
X103130Y160622D01*
X103042Y160711D01*
Y189829D01*
X103080Y189845D01*
X103206Y189971D01*
X103275Y190136D01*
Y190316D01*
X103206Y190481D01*
X103080Y190607D01*
X102915Y190676D01*
D02*
G37*
G36*
X109103Y161643D02*
X108776D01*
X108460Y161558D01*
X108177Y161395D01*
X107945Y161163D01*
X107782Y160880D01*
X107697Y160564D01*
Y160236D01*
X107782Y159920D01*
X107945Y159637D01*
X108177Y159405D01*
X108460Y159242D01*
X108776Y159157D01*
X109103D01*
X109420Y159242D01*
X109703Y159405D01*
X109934Y159637D01*
X110098Y159920D01*
X110158Y160145D01*
X135869Y160145D01*
X152720Y143294D01*
Y116025D01*
X152740Y115927D01*
X152795Y115845D01*
X153500Y115140D01*
X153500Y115140D01*
Y114960D01*
X153569Y114795D01*
X153695Y114669D01*
X153860Y114600D01*
X154040D01*
X154205Y114669D01*
X154331Y114795D01*
X154400Y114960D01*
Y115140D01*
X154331Y115305D01*
X154205Y115431D01*
X154040Y115500D01*
X153860D01*
X153860Y115500D01*
X153230Y116131D01*
Y143400D01*
X153210Y143498D01*
X153155Y143580D01*
X136155Y160580D01*
X136073Y160635D01*
X135975Y160655D01*
X110158Y160655D01*
X110098Y160880D01*
X109934Y161163D01*
X109703Y161395D01*
X109420Y161558D01*
X109103Y161643D01*
D02*
G37*
G36*
X109289Y191318D02*
X108961D01*
X108645Y191233D01*
X108362Y191070D01*
X108130Y190838D01*
X107967Y190555D01*
X107882Y190239D01*
Y189911D01*
X107967Y189595D01*
X108130Y189312D01*
X108362Y189080D01*
X108645Y188917D01*
X108870Y188856D01*
Y170051D01*
X108890Y169953D01*
X108945Y169870D01*
X115370Y163445D01*
X115453Y163390D01*
X115551Y163370D01*
X135244D01*
X155020Y143594D01*
Y117200D01*
X155040Y117102D01*
X155095Y117020D01*
X158286Y113829D01*
X158286Y113829D01*
Y113650D01*
X158354Y113485D01*
X158481Y113358D01*
X158646Y113289D01*
X158825D01*
X158990Y113358D01*
X159117Y113485D01*
X159186Y113650D01*
Y113829D01*
X159117Y113994D01*
X158990Y114121D01*
X158825Y114189D01*
X158646D01*
X158646Y114189D01*
X155530Y117306D01*
Y143700D01*
X155510Y143798D01*
X155455Y143880D01*
X135530Y163805D01*
X135448Y163860D01*
X135350Y163880D01*
X115656D01*
X109380Y170156D01*
Y188856D01*
X109605Y188917D01*
X109888Y189080D01*
X110120Y189312D01*
X110283Y189595D01*
X110368Y189911D01*
Y190239D01*
X110283Y190555D01*
X110120Y190838D01*
X109888Y191070D01*
X109605Y191233D01*
X109289Y191318D01*
D02*
G37*
G36*
X182190Y122937D02*
X182010D01*
X181845Y122868D01*
X181719Y122741D01*
X181650Y122576D01*
Y122397D01*
X181719Y122232D01*
X181845Y122105D01*
X181845Y122105D01*
Y120956D01*
X173751Y112862D01*
X173751Y112862D01*
X173571D01*
X173406Y112793D01*
X173279Y112666D01*
X173211Y112501D01*
Y112322D01*
X173279Y112157D01*
X173406Y112030D01*
X173571Y111962D01*
X173751D01*
X173916Y112030D01*
X174042Y112157D01*
X174111Y112322D01*
Y112501D01*
X174111Y112501D01*
X182280Y120670D01*
X182335Y120753D01*
X182355Y120851D01*
Y122105D01*
X182355Y122105D01*
X182481Y122232D01*
X182550Y122397D01*
Y122576D01*
X182481Y122741D01*
X182355Y122868D01*
X182190Y122937D01*
D02*
G37*
G36*
X106840Y185300D02*
X106660D01*
X106495Y185231D01*
X106369Y185105D01*
X106300Y184940D01*
Y184760D01*
X106369Y184595D01*
X106495Y184469D01*
X106495Y184469D01*
Y168876D01*
X106515Y168779D01*
X106570Y168696D01*
X113396Y161870D01*
X113479Y161815D01*
X113576Y161795D01*
X135519D01*
X153845Y143469D01*
Y116766D01*
X153865Y116669D01*
X153920Y116586D01*
X158686Y111820D01*
X158769Y111765D01*
X158866Y111745D01*
X169325D01*
X169423Y111765D01*
X169505Y111820D01*
X173303Y115618D01*
X173359Y115701D01*
X173378Y115798D01*
Y116192D01*
X174656Y117470D01*
X175600D01*
X175698Y117490D01*
X175780Y117545D01*
X178280Y120044D01*
X178335Y120127D01*
X178354Y120224D01*
Y123865D01*
X178354Y123865D01*
X178481Y123991D01*
X178549Y124157D01*
Y124336D01*
X178481Y124501D01*
X178354Y124628D01*
X178189Y124696D01*
X178010D01*
X177845Y124628D01*
X177718Y124501D01*
X177649Y124336D01*
Y124157D01*
X177718Y123991D01*
X177845Y123865D01*
X177845Y123865D01*
Y120330D01*
X175494Y117980D01*
X174551D01*
X174453Y117961D01*
X174371Y117905D01*
X172943Y116478D01*
X172888Y116395D01*
X172868Y116297D01*
Y115904D01*
X169219Y112255D01*
X158972D01*
X154355Y116872D01*
Y143575D01*
X154335Y143673D01*
X154280Y143755D01*
X135805Y162230D01*
X135723Y162285D01*
X135625Y162305D01*
X113682D01*
X107005Y168982D01*
Y184469D01*
X107005Y184469D01*
X107131Y184595D01*
X107200Y184760D01*
Y184940D01*
X107131Y185105D01*
X107005Y185231D01*
X106840Y185300D01*
D02*
G37*
G36*
X178874Y115091D02*
X178695D01*
X178529Y115022D01*
X178403Y114896D01*
X178334Y114730D01*
Y114551D01*
X178335Y114549D01*
X174461Y110675D01*
X174285D01*
X174120Y110606D01*
X173994Y110480D01*
X173925Y110315D01*
Y110135D01*
X173994Y109970D01*
X174120Y109844D01*
X174285Y109775D01*
X174465D01*
X174630Y109844D01*
X174756Y109970D01*
X174825Y110135D01*
Y110315D01*
X174824Y110317D01*
X178698Y114191D01*
X178874D01*
X179039Y114259D01*
X179166Y114386D01*
X179234Y114551D01*
Y114730D01*
X179166Y114896D01*
X179039Y115022D01*
X178874Y115091D01*
D02*
G37*
G36*
X103415Y139300D02*
X103235D01*
X103070Y139231D01*
X102944Y139105D01*
X102875Y138940D01*
Y138760D01*
X102944Y138595D01*
X103070Y138469D01*
X103235Y138400D01*
X103415D01*
X103415Y138400D01*
X109445Y132370D01*
X109527Y132315D01*
X109625Y132295D01*
X143194D01*
X150070Y125419D01*
Y115675D01*
X150090Y115577D01*
X150145Y115495D01*
X155795Y109845D01*
X155877Y109790D01*
X155975Y109770D01*
X169858D01*
X169956Y109790D01*
X170038Y109845D01*
X180619Y120425D01*
X180765D01*
X180930Y120494D01*
X181056Y120620D01*
X181125Y120785D01*
Y120965D01*
X181056Y121130D01*
X180930Y121256D01*
X180765Y121325D01*
X180585D01*
X180420Y121256D01*
X180294Y121130D01*
X180225Y120965D01*
Y120785D01*
X180235Y120762D01*
X169752Y110280D01*
X156081D01*
X150580Y115781D01*
Y125525D01*
X150560Y125623D01*
X150505Y125705D01*
X143480Y132730D01*
X143398Y132785D01*
X143300Y132805D01*
X109731D01*
X103775Y138760D01*
X103775Y138760D01*
Y138940D01*
X103706Y139105D01*
X103580Y139231D01*
X103415Y139300D01*
D02*
G37*
G36*
X185290Y119340D02*
X185110D01*
X184945Y119271D01*
X184819Y119144D01*
X184750Y118979D01*
Y118800D01*
X184819Y118635D01*
X184945Y118508D01*
X184945Y118508D01*
Y117646D01*
X175932Y108633D01*
X175932Y108633D01*
X175753D01*
X175588Y108565D01*
X175461Y108438D01*
X175393Y108273D01*
Y108094D01*
X175461Y107928D01*
X175588Y107802D01*
X175753Y107733D01*
X175932D01*
X176098Y107802D01*
X176224Y107928D01*
X176293Y108094D01*
Y108273D01*
X176293Y108273D01*
X185380Y117360D01*
X185435Y117443D01*
X185455Y117540D01*
Y118508D01*
X185455Y118508D01*
X185581Y118635D01*
X185650Y118800D01*
Y118979D01*
X185581Y119144D01*
X185455Y119271D01*
X185290Y119340D01*
D02*
G37*
G36*
X102073Y145525D02*
X101894D01*
X101728Y145456D01*
X101602Y145330D01*
X101533Y145165D01*
Y144985D01*
X101602Y144820D01*
X101626Y144795D01*
Y114492D01*
X101653Y114355D01*
X101725Y114248D01*
Y114129D01*
X101794Y113964D01*
X101920Y113837D01*
X102085Y113769D01*
X102265D01*
X102430Y113837D01*
X102455Y113862D01*
X109928D01*
X110065Y113889D01*
X110180Y113967D01*
X126182Y129968D01*
X136825D01*
X136825Y129968D01*
X141102D01*
X146918Y124152D01*
Y117231D01*
X146945Y117094D01*
X147023Y116979D01*
X155487Y108515D01*
X155602Y108437D01*
X155739Y108410D01*
X157214D01*
X157249Y108376D01*
X157414Y108307D01*
X157593D01*
X157758Y108376D01*
X157885Y108502D01*
X157954Y108668D01*
Y108847D01*
X157885Y109012D01*
X157758Y109139D01*
X157593Y109207D01*
X157414D01*
X157249Y109139D01*
X157234Y109124D01*
X155887D01*
X147632Y117379D01*
Y124300D01*
X147605Y124437D01*
X147527Y124552D01*
X141502Y130577D01*
X141387Y130655D01*
X141250Y130682D01*
X136825D01*
X136825Y130682D01*
X126034D01*
X125898Y130655D01*
X125782Y130577D01*
X109780Y114576D01*
X102455D01*
X102430Y114600D01*
X102344Y114636D01*
X102340Y114640D01*
Y144795D01*
X102365Y144820D01*
X102433Y144985D01*
Y145165D01*
X102365Y145330D01*
X102238Y145456D01*
X102073Y145525D01*
D02*
G37*
G36*
X140637Y129643D02*
X134668D01*
X134512Y129612D01*
X134380Y129524D01*
X134291Y129392D01*
X134260Y129236D01*
Y126073D01*
X134259Y126060D01*
Y124536D01*
X134260Y124523D01*
Y120854D01*
Y115225D01*
X134260Y112277D01*
X134266Y112248D01*
X134265Y112217D01*
X134282Y112170D01*
X134291Y112121D01*
X134308Y112096D01*
X134318Y112068D01*
X134352Y112030D01*
X134380Y111989D01*
X134405Y111972D01*
X134425Y111950D01*
X148278Y101661D01*
X149319Y81282D01*
X149328Y81247D01*
X149329Y81211D01*
X149347Y81170D01*
X149358Y81127D01*
X149380Y81099D01*
X149394Y81066D01*
X149427Y81035D01*
X149453Y81000D01*
X149484Y80981D01*
X149510Y80957D01*
X166437Y70358D01*
X166467Y70347D01*
X166494Y70329D01*
X166541Y70319D01*
X166586Y70302D01*
X166618Y70303D01*
X166650Y70296D01*
X172074Y70242D01*
X172075Y70242D01*
X172076Y70242D01*
X172125Y70252D01*
X172289Y70239D01*
X172750Y70275D01*
X173200Y70383D01*
X173628Y70560D01*
X174022Y70802D01*
X174374Y71103D01*
X174675Y71455D01*
X174917Y71849D01*
X175094Y72277D01*
X175202Y72727D01*
X175238Y73188D01*
Y76998D01*
X175202Y77459D01*
X175094Y77909D01*
X174917Y78337D01*
X174675Y78731D01*
X174374Y79083D01*
X174022Y79384D01*
X173694Y79585D01*
X173745Y79765D01*
X175692D01*
X196939Y64270D01*
X196983Y64250D01*
X197023Y64223D01*
X197054Y64217D01*
X197083Y64204D01*
X197132Y64202D01*
X197179Y64192D01*
X213529D01*
X213686Y64223D01*
X213818Y64312D01*
X213906Y64444D01*
X213937Y64600D01*
Y90075D01*
Y97850D01*
X213906Y98006D01*
X213818Y98138D01*
X213686Y98227D01*
X213529Y98258D01*
X202666D01*
X202510Y98227D01*
X202378Y98138D01*
X202289Y98006D01*
X202258Y97850D01*
Y90483D01*
X169876D01*
X169720Y90452D01*
X169588Y90363D01*
X169499Y90231D01*
X169468Y90075D01*
Y86920D01*
X169467Y86904D01*
Y83094D01*
X169468Y83078D01*
Y80173D01*
X169473Y80149D01*
X169330Y79971D01*
X169100Y79976D01*
X167062Y82307D01*
Y93719D01*
X167031Y93875D01*
X166942Y94007D01*
X166942Y94007D01*
X141045Y119905D01*
Y124357D01*
X141225Y124431D01*
X144319Y121337D01*
Y117374D01*
X144343Y117191D01*
X144414Y117021D01*
X144526Y116875D01*
X155872Y105528D01*
X156018Y105416D01*
X156189Y105345D01*
X156371Y105321D01*
X175726D01*
X175908Y105345D01*
X176079Y105416D01*
X176225Y105528D01*
X185098Y114402D01*
X185211Y114548D01*
X185281Y114718D01*
X185305Y114901D01*
X185281Y115084D01*
X185211Y115254D01*
X185098Y115400D01*
X184952Y115512D01*
X184782Y115583D01*
X184599Y115607D01*
X184416Y115583D01*
X184246Y115512D01*
X184100Y115400D01*
X175433Y106733D01*
X156664D01*
X145731Y117666D01*
Y121630D01*
X145707Y121812D01*
X145636Y121983D01*
X145524Y122129D01*
X141856Y125797D01*
X141710Y125909D01*
X141539Y125980D01*
X141357Y126004D01*
X141045D01*
Y129236D01*
X141014Y129392D01*
X140926Y129524D01*
X140793Y129612D01*
X140637Y129643D01*
D02*
G37*
G36*
X177714Y105393D02*
X177386D01*
X177070Y105308D01*
X176787Y105145D01*
X176555Y104913D01*
X176392Y104630D01*
X176307Y104314D01*
Y103986D01*
X176392Y103670D01*
X176555Y103387D01*
X176787Y103155D01*
X177070Y102992D01*
X177386Y102907D01*
X177714D01*
X178030Y102992D01*
X178313Y103155D01*
X178545Y103387D01*
X178708Y103670D01*
X178793Y103986D01*
Y104314D01*
X178708Y104630D01*
X178545Y104913D01*
X178313Y105145D01*
X178030Y105308D01*
X177714Y105393D01*
D02*
G37*
G36*
X185350Y106428D02*
X185273Y106397D01*
Y106397D01*
X185254Y106378D01*
X181668Y102792D01*
X181480Y102754D01*
X181282Y102622D01*
X181149Y102423D01*
X181103Y102189D01*
X181149Y101955D01*
X181282Y101757D01*
X181480Y101624D01*
X181668Y101587D01*
X183008Y100247D01*
X183015Y100240D01*
X183015D01*
X183028Y100227D01*
X183028D01*
X183105Y100195D01*
X183181Y100227D01*
Y100227D01*
X183200Y100246D01*
X186178Y103224D01*
X187017Y102385D01*
X187216Y102253D01*
X187450Y102206D01*
X187684Y102253D01*
X187883Y102385D01*
X188015Y102584D01*
X188062Y102818D01*
X188015Y103052D01*
X187883Y103250D01*
X187044Y104089D01*
X187293Y104339D01*
X187312Y104358D01*
Y104358D01*
X187344Y104434D01*
X187312Y104511D01*
Y104511D01*
X187293Y104530D01*
X185451Y106372D01*
X185445Y106378D01*
X185439Y106383D01*
X185439Y106383D01*
X185426Y106397D01*
X185426D01*
X185350Y106428D01*
D02*
G37*
G36*
X30148Y101733D02*
X29852D01*
X29842Y101729D01*
X29831Y101731D01*
X29541Y101674D01*
X29532Y101667D01*
X29521D01*
X29248Y101554D01*
X29240Y101546D01*
X29229Y101544D01*
X28984Y101380D01*
X28978Y101371D01*
X28967Y101367D01*
X28758Y101158D01*
X28754Y101147D01*
X28745Y101141D01*
X28581Y100896D01*
X28579Y100885D01*
X28571Y100877D01*
X28458Y100604D01*
Y100593D01*
X28451Y100584D01*
X28394Y100294D01*
X28396Y100283D01*
X28392Y100273D01*
Y99977D01*
X28396Y99967D01*
X28394Y99956D01*
X28451Y99666D01*
X28458Y99657D01*
Y99646D01*
X28571Y99373D01*
X28579Y99365D01*
X28581Y99354D01*
X28745Y99109D01*
X28754Y99103D01*
X28758Y99092D01*
X28967Y98883D01*
X28978Y98879D01*
X28984Y98870D01*
X29229Y98706D01*
X29240Y98704D01*
X29248Y98696D01*
X29521Y98583D01*
X29532D01*
X29541Y98576D01*
X29831Y98519D01*
X29842Y98521D01*
X29852Y98517D01*
X30148D01*
X30158Y98521D01*
X30169Y98519D01*
X30459Y98576D01*
X30468Y98583D01*
X30479D01*
X30752Y98696D01*
X30760Y98704D01*
X30771Y98706D01*
X31016Y98870D01*
X31022Y98879D01*
X31033Y98883D01*
X31242Y99092D01*
X31246Y99103D01*
X31255Y99109D01*
X31419Y99354D01*
X31421Y99365D01*
X31429Y99373D01*
X31542Y99646D01*
Y99657D01*
X31549Y99666D01*
X31606Y99956D01*
X31604Y99967D01*
X31608Y99977D01*
Y100273D01*
X31604Y100283D01*
X31606Y100294D01*
X31549Y100584D01*
X31542Y100593D01*
Y100604D01*
X31429Y100877D01*
X31421Y100885D01*
X31419Y100896D01*
X31255Y101141D01*
X31246Y101147D01*
X31242Y101158D01*
X31033Y101367D01*
X31022Y101371D01*
X31016Y101380D01*
X30771Y101544D01*
X30760Y101546D01*
X30752Y101554D01*
X30479Y101667D01*
X30468D01*
X30459Y101674D01*
X30169Y101731D01*
X30158Y101729D01*
X30148Y101733D01*
D02*
G37*
G36*
X195148Y101608D02*
X194852D01*
X194842Y101604D01*
X194831Y101606D01*
X194541Y101549D01*
X194532Y101542D01*
X194521D01*
X194248Y101429D01*
X194240Y101421D01*
X194229Y101419D01*
X193984Y101255D01*
X193978Y101246D01*
X193967Y101242D01*
X193758Y101033D01*
X193754Y101022D01*
X193745Y101016D01*
X193581Y100771D01*
X193579Y100760D01*
X193571Y100752D01*
X193458Y100479D01*
Y100468D01*
X193451Y100459D01*
X193394Y100169D01*
X193396Y100158D01*
X193392Y100148D01*
Y99852D01*
X193396Y99842D01*
X193394Y99831D01*
X193451Y99541D01*
X193458Y99532D01*
Y99521D01*
X193571Y99248D01*
X193579Y99240D01*
X193581Y99229D01*
X193745Y98984D01*
X193754Y98978D01*
X193758Y98967D01*
X193967Y98758D01*
X193978Y98754D01*
X193984Y98745D01*
X194229Y98581D01*
X194240Y98579D01*
X194248Y98571D01*
X194521Y98458D01*
X194532D01*
X194541Y98451D01*
X194831Y98394D01*
X194842Y98396D01*
X194852Y98392D01*
X195148D01*
X195158Y98396D01*
X195169Y98394D01*
X195459Y98451D01*
X195468Y98458D01*
X195479D01*
X195752Y98571D01*
X195760Y98579D01*
X195771Y98581D01*
X196016Y98745D01*
X196022Y98754D01*
X196033Y98758D01*
X196242Y98967D01*
X196246Y98978D01*
X196255Y98984D01*
X196419Y99229D01*
X196421Y99240D01*
X196429Y99248D01*
X196542Y99521D01*
Y99532D01*
X196549Y99541D01*
X196606Y99831D01*
X196604Y99842D01*
X196608Y99852D01*
Y100148D01*
X196604Y100158D01*
X196606Y100169D01*
X196549Y100459D01*
X196542Y100468D01*
Y100479D01*
X196429Y100752D01*
X196421Y100760D01*
X196419Y100771D01*
X196255Y101016D01*
X196246Y101022D01*
X196242Y101033D01*
X196033Y101242D01*
X196022Y101246D01*
X196016Y101255D01*
X195771Y101419D01*
X195760Y101421D01*
X195752Y101429D01*
X195479Y101542D01*
X195468D01*
X195459Y101549D01*
X195169Y101606D01*
X195158Y101604D01*
X195148Y101608D01*
D02*
G37*
G36*
X133652Y129643D02*
X127683D01*
X127527Y129612D01*
X127395Y129524D01*
X127306Y129392D01*
X127275Y129236D01*
Y128976D01*
X109441Y111568D01*
X97586Y108123D01*
X97566Y108112D01*
X97544Y108108D01*
X97496Y108076D01*
X97445Y108049D01*
X97430Y108032D01*
X97412Y108019D01*
X97380Y107971D01*
X97343Y107927D01*
X97336Y107906D01*
X97323Y107887D01*
X97312Y107830D01*
X97295Y107776D01*
X97297Y107753D01*
X97292Y107731D01*
Y100200D01*
X97323Y100044D01*
X97412Y99912D01*
X97544Y99823D01*
X97700Y99792D01*
X114373D01*
X114380Y99794D01*
X114387Y99792D01*
X114458Y99809D01*
X114529Y99823D01*
X114535Y99827D01*
X114542Y99829D01*
X114601Y99871D01*
X114662Y99912D01*
X114666Y99918D01*
X114671Y99922D01*
X118732Y104272D01*
X118732Y104272D01*
X133950Y120575D01*
X133961Y120592D01*
X133976Y120605D01*
X133999Y120653D01*
X134029Y120697D01*
X134030Y120704D01*
X134034Y120711D01*
X134037Y120730D01*
X134046Y120748D01*
X134050Y120801D01*
X134060Y120854D01*
Y124400D01*
X134061Y124409D01*
Y125933D01*
X134060Y125942D01*
Y129236D01*
X134029Y129392D01*
X133941Y129524D01*
X133808Y129612D01*
X133652Y129643D01*
D02*
G37*
G36*
X176189Y97118D02*
X175861D01*
X175545Y97033D01*
X175262Y96870D01*
X175030Y96638D01*
X174867Y96355D01*
X174782Y96039D01*
Y95711D01*
X174867Y95395D01*
X175030Y95112D01*
X175262Y94880D01*
X175545Y94717D01*
X175861Y94632D01*
X176189D01*
X176505Y94717D01*
X176788Y94880D01*
X177020Y95112D01*
X177183Y95395D01*
X177268Y95711D01*
Y96039D01*
X177183Y96355D01*
X177020Y96638D01*
X176788Y96870D01*
X176505Y97033D01*
X176189Y97118D01*
D02*
G37*
G36*
X89815Y90052D02*
X89635D01*
X89470Y89983D01*
X89445Y89959D01*
X85811D01*
X85674Y89932D01*
X85558Y89854D01*
X82835Y87131D01*
X78966D01*
X78933Y87254D01*
X78770Y87538D01*
X78538Y87769D01*
X78255Y87933D01*
X77939Y88017D01*
X77611D01*
X77295Y87933D01*
X77012Y87769D01*
X76780Y87538D01*
X76617Y87254D01*
X76532Y86938D01*
Y86611D01*
X76617Y86295D01*
X76780Y86011D01*
X77012Y85780D01*
X77295Y85616D01*
X77611Y85531D01*
X77939D01*
X78255Y85616D01*
X78538Y85780D01*
X78770Y86011D01*
X78933Y86295D01*
X78966Y86418D01*
X82983D01*
X83120Y86445D01*
X83236Y86522D01*
X85959Y89245D01*
X89445D01*
X89470Y89221D01*
X89635Y89152D01*
X89815D01*
X89980Y89221D01*
X90106Y89347D01*
X90175Y89512D01*
Y89692D01*
X90106Y89857D01*
X89980Y89983D01*
X89815Y90052D01*
D02*
G37*
G36*
X77645Y93412D02*
X53975D01*
X53741Y93365D01*
X53542Y93233D01*
X49916Y89607D01*
X49784Y89408D01*
X49737Y89174D01*
Y88333D01*
X49596Y88275D01*
X49390Y88116D01*
X49231Y87910D01*
X49131Y87669D01*
X49097Y87411D01*
X49131Y87153D01*
X49231Y86912D01*
X49390Y86706D01*
X49596Y86547D01*
X49837Y86447D01*
X50095Y86413D01*
X50603D01*
X50861Y86447D01*
X51102Y86547D01*
X51308Y86706D01*
X51467Y86912D01*
X51567Y87153D01*
X51601Y87411D01*
X51567Y87669D01*
X51467Y87910D01*
X51308Y88116D01*
X51102Y88275D01*
X50961Y88333D01*
Y88921D01*
X54228Y92188D01*
X77392D01*
X81890Y87690D01*
X82089Y87557D01*
X82323Y87511D01*
X82557Y87557D01*
X82756Y87690D01*
X82888Y87888D01*
X82935Y88122D01*
X82888Y88356D01*
X82756Y88555D01*
X78078Y93233D01*
X77879Y93365D01*
X77645Y93412D01*
D02*
G37*
G36*
X86286Y88297D02*
X85958D01*
X85642Y88212D01*
X85359Y88048D01*
X85127Y87817D01*
X84964Y87534D01*
X84879Y87217D01*
Y86890D01*
X84964Y86574D01*
X85127Y86291D01*
X85359Y86059D01*
X85642Y85896D01*
X85958Y85811D01*
X86286D01*
X86602Y85896D01*
X86885Y86059D01*
X87117Y86291D01*
X87280Y86574D01*
X87365Y86890D01*
Y87217D01*
X87280Y87534D01*
X87117Y87817D01*
X86885Y88048D01*
X86602Y88212D01*
X86286Y88297D01*
D02*
G37*
G36*
X34272Y90867D02*
X3950D01*
X3794Y90836D01*
X3662Y90747D01*
X3573Y90615D01*
X3542Y90459D01*
Y72908D01*
X3573Y72752D01*
X3662Y72620D01*
X3794Y72531D01*
X3950Y72500D01*
X34272D01*
X34428Y72531D01*
X34560Y72620D01*
X34649Y72752D01*
X34680Y72908D01*
Y84169D01*
X36295D01*
X36402Y84097D01*
X36558Y84066D01*
X38254D01*
X38400Y83920D01*
X38298Y83767D01*
X38213Y83803D01*
X37955Y83837D01*
X37447D01*
X37189Y83803D01*
X36948Y83703D01*
X36742Y83544D01*
X36583Y83338D01*
X36483Y83097D01*
X36449Y82839D01*
X36483Y82581D01*
X36583Y82340D01*
X36742Y82134D01*
X36948Y81975D01*
X37189Y81875D01*
X37447Y81841D01*
X37955D01*
X38072Y81857D01*
X43736Y76192D01*
X43935Y76060D01*
X44169Y76013D01*
X76766D01*
X77000Y76060D01*
X77199Y76192D01*
X82607Y81600D01*
X82739Y81799D01*
X82786Y82033D01*
X82739Y82267D01*
X82607Y82465D01*
X82408Y82598D01*
X82174Y82645D01*
X81940Y82598D01*
X81742Y82465D01*
X76513Y77237D01*
X44422D01*
X38937Y82722D01*
X38953Y82839D01*
X38919Y83097D01*
X38883Y83182D01*
X39036Y83284D01*
X41183Y81138D01*
X41315Y81049D01*
X41471Y81018D01*
X41471Y81018D01*
X49788D01*
Y79676D01*
X49831Y79461D01*
X49952Y79279D01*
X51303Y77928D01*
X51485Y77807D01*
X51700Y77764D01*
X74875D01*
X75090Y77807D01*
X75272Y77928D01*
X81832Y84489D01*
X85530D01*
X85578Y84309D01*
X85338Y84171D01*
X85107Y83939D01*
X84943Y83656D01*
X84858Y83340D01*
Y83012D01*
X84943Y82696D01*
X85107Y82413D01*
X85338Y82181D01*
X85622Y82018D01*
X85938Y81933D01*
X86265D01*
X86581Y82018D01*
X86865Y82181D01*
X87096Y82413D01*
X87260Y82696D01*
X87344Y83012D01*
Y83340D01*
X87260Y83656D01*
X87096Y83939D01*
X86865Y84171D01*
X86624Y84309D01*
X86673Y84489D01*
X91093D01*
X91503Y84078D01*
X91549Y84048D01*
X91588Y84009D01*
X91639Y83988D01*
X91685Y83957D01*
X91740Y83946D01*
X91791Y83925D01*
X91846D01*
X91900Y83914D01*
X91954Y83925D01*
X92009D01*
X92060Y83946D01*
X92115Y83957D01*
X92161Y83988D01*
X92212Y84009D01*
X92251Y84048D01*
X92297Y84078D01*
X92327Y84124D01*
X92366Y84163D01*
X92387Y84214D01*
X92418Y84260D01*
X92429Y84315D01*
X92450Y84366D01*
Y84421D01*
X92461Y84475D01*
X92450Y84529D01*
Y84584D01*
X92429Y84635D01*
X92418Y84690D01*
X92387Y84736D01*
X92366Y84787D01*
X92327Y84826D01*
X92297Y84872D01*
X91722Y85447D01*
X91540Y85568D01*
X91325Y85611D01*
X81600D01*
X81385Y85568D01*
X81203Y85447D01*
X74643Y78886D01*
X51932D01*
X50910Y79908D01*
Y81018D01*
X51492D01*
X51648Y81049D01*
X51780Y81138D01*
X51869Y81270D01*
X51900Y81426D01*
Y82306D01*
X51903Y82331D01*
X51900Y82356D01*
Y83204D01*
X51869Y83360D01*
X51836Y83409D01*
X51932Y83589D01*
X53497D01*
Y79791D01*
X53528Y79635D01*
X53617Y79503D01*
X53749Y79414D01*
X53905Y79383D01*
X73717D01*
X73873Y79414D01*
X74005Y79503D01*
X74094Y79635D01*
X74125Y79791D01*
Y89951D01*
X74094Y90107D01*
X74005Y90239D01*
X73873Y90328D01*
X73717Y90359D01*
X53905D01*
X53749Y90328D01*
X53617Y90239D01*
X53528Y90107D01*
X53497Y89951D01*
Y86211D01*
X50349D01*
X50010Y86167D01*
X49986Y86157D01*
X49758Y86127D01*
X49445Y85997D01*
X49176Y85790D01*
X48969Y85521D01*
X48839Y85207D01*
X48805Y84945D01*
X48622Y84872D01*
X46954Y86540D01*
X46822Y86629D01*
X46666Y86660D01*
X46666Y86660D01*
X38727D01*
X38666Y86840D01*
X38874Y87000D01*
X39081Y87269D01*
X39211Y87582D01*
X39255Y87919D01*
X39211Y88256D01*
X39081Y88569D01*
X38874Y88838D01*
X38605Y89045D01*
X38292Y89175D01*
X37955Y89219D01*
X37447D01*
X37111Y89175D01*
X36797Y89045D01*
X36528Y88838D01*
X36321Y88569D01*
X36191Y88256D01*
X36147Y87919D01*
X36191Y87582D01*
X36321Y87269D01*
X36528Y87000D01*
X36736Y86840D01*
X36675Y86660D01*
X36558D01*
X36402Y86629D01*
X36343Y86589D01*
X34680D01*
Y90459D01*
X34649Y90615D01*
X34560Y90747D01*
X34428Y90836D01*
X34272Y90867D01*
D02*
G37*
G36*
X109289Y85668D02*
X108961D01*
X108645Y85583D01*
X108362Y85420D01*
X108130Y85188D01*
X107967Y84905D01*
X107882Y84589D01*
Y84261D01*
X107967Y83945D01*
X108130Y83662D01*
X108362Y83430D01*
X108645Y83267D01*
X108961Y83182D01*
X109289D01*
X109605Y83267D01*
X109888Y83430D01*
X110120Y83662D01*
X110283Y83945D01*
X110344Y84170D01*
X131094D01*
X133650Y81615D01*
X133650Y81615D01*
Y81435D01*
X133719Y81270D01*
X133845Y81144D01*
X134010Y81075D01*
X134190D01*
X134355Y81144D01*
X134481Y81270D01*
X134550Y81435D01*
Y81615D01*
X134481Y81780D01*
X134355Y81906D01*
X134190Y81975D01*
X134010D01*
X134010Y81975D01*
X131380Y84605D01*
X131298Y84660D01*
X131200Y84680D01*
X110344D01*
X110283Y84905D01*
X110120Y85188D01*
X109888Y85420D01*
X109605Y85583D01*
X109289Y85668D01*
D02*
G37*
G36*
X129215Y78775D02*
X129035D01*
X128870Y78706D01*
X128744Y78580D01*
X128675Y78415D01*
Y78235D01*
X128675Y78235D01*
X116128Y65689D01*
X115709D01*
X115611Y65669D01*
X115529Y65614D01*
X102245Y52330D01*
X102190Y52248D01*
X102170Y52150D01*
Y39106D01*
X102170Y39106D01*
X102044Y38980D01*
X101975Y38815D01*
Y38635D01*
X102044Y38470D01*
X102170Y38344D01*
X102195Y38333D01*
Y9181D01*
X102195Y9181D01*
X102069Y9054D01*
X102000Y8889D01*
Y8710D01*
X102069Y8544D01*
X102195Y8418D01*
X102360Y8349D01*
X102540D01*
X102705Y8418D01*
X102831Y8544D01*
X102900Y8710D01*
Y8889D01*
X102831Y9054D01*
X102705Y9181D01*
X102705Y9181D01*
Y38368D01*
X102806Y38470D01*
X102875Y38635D01*
Y38815D01*
X102806Y38980D01*
X102680Y39106D01*
X102680Y39106D01*
Y52044D01*
X115814Y65179D01*
X116234D01*
X116331Y65198D01*
X116414Y65254D01*
X129035Y77875D01*
X129035Y77875D01*
X129215D01*
X129380Y77944D01*
X129506Y78070D01*
X129575Y78235D01*
Y78415D01*
X129506Y78580D01*
X129380Y78706D01*
X129215Y78775D01*
D02*
G37*
G36*
X105840Y79800D02*
X105660D01*
X105495Y79731D01*
X105369Y79605D01*
X105300Y79440D01*
Y79260D01*
X105369Y79095D01*
X105495Y78969D01*
X105660Y78900D01*
X105840D01*
X106005Y78969D01*
X106131Y79095D01*
X106131Y79095D01*
X116419D01*
X118620Y76895D01*
X118702Y76840D01*
X118800Y76820D01*
X124119D01*
X124119Y76820D01*
X124245Y76694D01*
X124410Y76625D01*
X124590D01*
X124755Y76694D01*
X124881Y76820D01*
X124950Y76985D01*
Y77165D01*
X124881Y77330D01*
X124755Y77456D01*
X124590Y77525D01*
X124410D01*
X124245Y77456D01*
X124119Y77330D01*
X124119Y77330D01*
X118906D01*
X116705Y79530D01*
X116623Y79585D01*
X116525Y79605D01*
X106131D01*
X106131Y79605D01*
X106005Y79731D01*
X105840Y79800D01*
D02*
G37*
G36*
X85379Y78433D02*
X80150D01*
X79994Y78402D01*
X79862Y78313D01*
X79862Y78313D01*
X77031Y75483D01*
X36550Y75483D01*
X36394Y75452D01*
X36262Y75364D01*
X36173Y75231D01*
X36142Y75075D01*
Y67150D01*
X36173Y66994D01*
X36262Y66862D01*
X36394Y66773D01*
X36550Y66742D01*
X77231Y66742D01*
X80131Y63842D01*
X80111Y63795D01*
X80026Y63693D01*
X79746Y63768D01*
X79418D01*
X79102Y63683D01*
X78819Y63520D01*
X78587Y63288D01*
X78424Y63005D01*
X78339Y62689D01*
Y62361D01*
X78424Y62045D01*
X78587Y61762D01*
X78819Y61530D01*
X79102Y61367D01*
X79418Y61282D01*
X79746D01*
X80062Y61367D01*
X80345Y61530D01*
X80577Y61762D01*
X80740Y62045D01*
X80825Y62361D01*
Y62689D01*
X80740Y63005D01*
X80577Y63288D01*
X80533Y63332D01*
X80622Y63498D01*
X80650Y63492D01*
X80650Y63492D01*
X85379D01*
X85535Y63523D01*
X85667Y63612D01*
X85756Y63744D01*
X85787Y63900D01*
Y78025D01*
X85756Y78181D01*
X85667Y78313D01*
X85535Y78402D01*
X85379Y78433D01*
D02*
G37*
G36*
X132025Y86730D02*
X104350D01*
X104252Y86710D01*
X104170Y86655D01*
X102515Y85000D01*
X102515Y85000D01*
X102335D01*
X102170Y84931D01*
X102044Y84805D01*
X101975Y84640D01*
Y84460D01*
X102044Y84295D01*
X102170Y84169D01*
X102181Y84164D01*
Y56361D01*
X102064Y56245D01*
X101996Y56080D01*
Y55900D01*
X102064Y55735D01*
X102191Y55609D01*
X102356Y55540D01*
X102535D01*
X102701Y55609D01*
X102827Y55735D01*
X102896Y55900D01*
Y56080D01*
X102827Y56245D01*
X102701Y56371D01*
X102690Y56376D01*
Y84179D01*
X102806Y84295D01*
X102875Y84460D01*
Y84640D01*
X102875Y84640D01*
X104456Y86220D01*
X131919D01*
X138495Y79644D01*
Y74506D01*
X138495Y74506D01*
X138369Y74380D01*
X138300Y74215D01*
Y74035D01*
X138369Y73870D01*
X138495Y73744D01*
X138660Y73675D01*
X138840D01*
X139005Y73744D01*
X139131Y73870D01*
X139200Y74035D01*
Y74215D01*
X139131Y74380D01*
X139005Y74506D01*
X139005Y74506D01*
Y79750D01*
X138985Y79848D01*
X138930Y79930D01*
X132205Y86655D01*
X132123Y86710D01*
X132025Y86730D01*
D02*
G37*
G36*
X178554Y67929D02*
X177198D01*
Y66221D01*
X178554D01*
Y66463D01*
X180401D01*
X180635Y66510D01*
X180658Y66525D01*
X180926D01*
Y66781D01*
X180966Y66841D01*
X181013Y67075D01*
X180966Y67309D01*
X180926Y67369D01*
Y67625D01*
X180658D01*
X180635Y67640D01*
X180401Y67687D01*
X178554D01*
Y67929D01*
D02*
G37*
G36*
X172134Y68400D02*
X171766D01*
X171410Y68305D01*
X171090Y68120D01*
X170830Y67860D01*
X170645Y67540D01*
X170550Y67184D01*
Y66816D01*
X170645Y66460D01*
X170830Y66140D01*
X171090Y65880D01*
X171410Y65695D01*
X171766Y65600D01*
X172134D01*
X172490Y65695D01*
X172810Y65880D01*
X173070Y66140D01*
X173101Y66193D01*
X174746D01*
Y65921D01*
X176702D01*
Y68229D01*
X174746D01*
Y67807D01*
X173101D01*
X173070Y67860D01*
X172810Y68120D01*
X172490Y68305D01*
X172134Y68400D01*
D02*
G37*
G36*
X142054Y68319D02*
X141546D01*
X141321Y68290D01*
X141111Y68203D01*
X140931Y68065D01*
X140793Y67885D01*
X140706Y67675D01*
X140677Y67450D01*
X140706Y67225D01*
X140793Y67015D01*
X140931Y66835D01*
X141111Y66697D01*
X141321Y66610D01*
X141546Y66581D01*
X142054D01*
X142279Y66610D01*
X142489Y66697D01*
X142669Y66835D01*
X142671Y66838D01*
X149870D01*
Y62136D01*
X149901Y62059D01*
X149978Y62027D01*
X152645D01*
X152722Y62059D01*
X152753Y62136D01*
Y64388D01*
X161197D01*
X162177Y63408D01*
X162215Y63266D01*
X162312Y63099D01*
X162449Y62962D01*
X162616Y62865D01*
X162803Y62815D01*
X162997D01*
X163184Y62865D01*
X163351Y62962D01*
X163488Y63099D01*
X163585Y63266D01*
X163635Y63453D01*
Y63647D01*
X163585Y63834D01*
X163488Y64001D01*
X163351Y64138D01*
X163184Y64235D01*
X163042Y64273D01*
X161883Y65433D01*
X161684Y65565D01*
X161450Y65612D01*
X152753D01*
Y67978D01*
X152722Y68054D01*
X152645Y68086D01*
X149978D01*
X149920Y68062D01*
X142671D01*
X142669Y68065D01*
X142489Y68203D01*
X142279Y68290D01*
X142054Y68319D01*
D02*
G37*
G36*
X73500Y65537D02*
X52425D01*
X52191Y65490D01*
X51992Y65358D01*
X50016Y63382D01*
X49884Y63183D01*
X49837Y62949D01*
Y60833D01*
X49696Y60775D01*
X49490Y60616D01*
X49331Y60410D01*
X49231Y60169D01*
X49197Y59911D01*
X49231Y59653D01*
X49331Y59412D01*
X49490Y59206D01*
X49696Y59047D01*
X49937Y58947D01*
X50195Y58913D01*
X50703D01*
X50961Y58947D01*
X51202Y59047D01*
X51408Y59206D01*
X51567Y59412D01*
X51667Y59653D01*
X51701Y59911D01*
X51667Y60169D01*
X51567Y60410D01*
X51408Y60616D01*
X51202Y60775D01*
X51061Y60833D01*
Y62696D01*
X52678Y64313D01*
X73247D01*
X79149Y58410D01*
X79348Y58278D01*
X79582Y58231D01*
X82286D01*
X82521Y58278D01*
X82719Y58410D01*
X82852Y58609D01*
X82898Y58843D01*
X82852Y59077D01*
X82719Y59276D01*
X82521Y59408D01*
X82286Y59455D01*
X79835D01*
X73933Y65358D01*
X73734Y65490D01*
X73500Y65537D01*
D02*
G37*
G36*
X91864Y60370D02*
X91536D01*
X91220Y60285D01*
X90937Y60122D01*
X90705Y59890D01*
X90542Y59607D01*
X90457Y59291D01*
Y58963D01*
X90542Y58647D01*
X90705Y58364D01*
X90937Y58132D01*
X91220Y57969D01*
X91536Y57884D01*
X91864D01*
X92180Y57969D01*
X92463Y58132D01*
X92695Y58364D01*
X92858Y58647D01*
X92943Y58963D01*
Y59291D01*
X92858Y59607D01*
X92695Y59890D01*
X92463Y60122D01*
X92180Y60285D01*
X91864Y60370D01*
D02*
G37*
G36*
X132175Y81150D02*
X131996D01*
X131831Y81081D01*
X131704Y80955D01*
X131635Y80790D01*
Y80610D01*
X131704Y80445D01*
X131831Y80319D01*
X131831Y80319D01*
Y79091D01*
X109806Y57067D01*
X109605Y57183D01*
X109289Y57268D01*
X108961D01*
X108645Y57183D01*
X108362Y57020D01*
X108130Y56788D01*
X107967Y56505D01*
X107882Y56189D01*
Y55861D01*
X107967Y55545D01*
X108130Y55262D01*
X108362Y55030D01*
X108645Y54867D01*
X108961Y54782D01*
X109289D01*
X109605Y54867D01*
X109888Y55030D01*
X110120Y55262D01*
X110283Y55545D01*
X110368Y55861D01*
Y56189D01*
X110283Y56505D01*
X110167Y56706D01*
X132266Y78805D01*
X132321Y78888D01*
X132340Y78985D01*
Y80319D01*
X132340Y80319D01*
X132467Y80445D01*
X132535Y80610D01*
Y80790D01*
X132467Y80955D01*
X132340Y81081D01*
X132175Y81150D01*
D02*
G37*
G36*
X86176Y59258D02*
X85849D01*
X85533Y59174D01*
X85249Y59010D01*
X85018Y58779D01*
X84854Y58495D01*
X84770Y58179D01*
Y57852D01*
X84854Y57536D01*
X85018Y57252D01*
X85249Y57021D01*
X85533Y56857D01*
X85849Y56772D01*
X86176D01*
X86492Y56857D01*
X86776Y57021D01*
X87007Y57252D01*
X87171Y57536D01*
X87256Y57852D01*
Y58179D01*
X87171Y58495D01*
X87007Y58779D01*
X86776Y59010D01*
X86492Y59174D01*
X86176Y59258D01*
D02*
G37*
G36*
X34245Y70592D02*
X3950D01*
X3794Y70561D01*
X3662Y70473D01*
X3573Y70340D01*
X3542Y70184D01*
Y52933D01*
X3573Y52777D01*
X3662Y52645D01*
X3794Y52556D01*
X3950Y52525D01*
X14134D01*
X14145Y52510D01*
X14277Y52422D01*
X14433Y52391D01*
X34245D01*
X34401Y52422D01*
X34533Y52510D01*
X34622Y52642D01*
X34653Y52798D01*
Y56669D01*
X36432D01*
X36515Y56613D01*
X36671Y56582D01*
X37522D01*
X37547Y56579D01*
X38055D01*
X38080Y56582D01*
X38333D01*
X38492Y56423D01*
X38390Y56271D01*
X38313Y56303D01*
X38055Y56337D01*
X37547D01*
X37289Y56303D01*
X37048Y56203D01*
X36842Y56044D01*
X36683Y55838D01*
X36583Y55597D01*
X36549Y55339D01*
X36583Y55081D01*
X36683Y54840D01*
X36842Y54634D01*
X37048Y54475D01*
X37289Y54375D01*
X37547Y54341D01*
X38055D01*
X38172Y54357D01*
X44111Y48417D01*
X44310Y48285D01*
X44544Y48238D01*
X77848D01*
X78082Y48285D01*
X78281Y48417D01*
X82556Y52692D01*
X82688Y52891D01*
X82735Y53125D01*
X82688Y53359D01*
X82556Y53558D01*
X82357Y53690D01*
X82123Y53737D01*
X81889Y53690D01*
X81690Y53558D01*
X77595Y49462D01*
X44797D01*
X39037Y55222D01*
X39053Y55339D01*
X39019Y55597D01*
X38987Y55674D01*
X39139Y55776D01*
X41262Y53654D01*
X41394Y53565D01*
X41550Y53534D01*
X41550Y53534D01*
X49888D01*
Y53076D01*
X49931Y52861D01*
X50052Y52679D01*
X52553Y50178D01*
X52735Y50057D01*
X52950Y50014D01*
X76069D01*
X76283Y50057D01*
X76465Y50178D01*
X81676Y55389D01*
X85725D01*
X85749Y55209D01*
X85545Y55155D01*
X85262Y54991D01*
X85030Y54760D01*
X84867Y54476D01*
X84782Y54160D01*
Y53833D01*
X84867Y53517D01*
X85030Y53233D01*
X85262Y53002D01*
X85545Y52838D01*
X85861Y52753D01*
X86189D01*
X86505Y52838D01*
X86788Y53002D01*
X87020Y53233D01*
X87183Y53517D01*
X87268Y53833D01*
Y54160D01*
X87183Y54476D01*
X87020Y54760D01*
X86788Y54991D01*
X86505Y55155D01*
X86301Y55209D01*
X86325Y55389D01*
X91700D01*
X91754Y55400D01*
X91809D01*
X91860Y55421D01*
X91915Y55432D01*
X91961Y55463D01*
X92012Y55484D01*
X92051Y55523D01*
X92097Y55553D01*
X92127Y55599D01*
X92166Y55638D01*
X92187Y55689D01*
X92218Y55735D01*
X92229Y55790D01*
X92250Y55841D01*
Y55896D01*
X92261Y55950D01*
X92250Y56004D01*
Y56059D01*
X92229Y56110D01*
X92218Y56165D01*
X92187Y56211D01*
X92166Y56262D01*
X92127Y56301D01*
X92097Y56347D01*
X92051Y56377D01*
X92012Y56416D01*
X91961Y56437D01*
X91915Y56468D01*
X91860Y56479D01*
X91809Y56500D01*
X91754D01*
X91700Y56511D01*
X81444D01*
X81229Y56468D01*
X81047Y56347D01*
X75836Y51136D01*
X53182D01*
X51010Y53308D01*
Y53534D01*
X51592D01*
X51748Y53565D01*
X51880Y53654D01*
X51969Y53786D01*
X52000Y53942D01*
Y54806D01*
X52003Y54831D01*
X52000Y54856D01*
Y55720D01*
X51969Y55876D01*
X51966Y55880D01*
X52063Y56060D01*
X53597D01*
Y52291D01*
X53628Y52135D01*
X53717Y52003D01*
X53849Y51914D01*
X54005Y51883D01*
X73817D01*
X73973Y51914D01*
X74105Y52003D01*
X74194Y52135D01*
X74225Y52291D01*
Y62451D01*
X74194Y62607D01*
X74105Y62739D01*
X73973Y62828D01*
X73817Y62859D01*
X54005D01*
X53849Y62828D01*
X53717Y62739D01*
X53628Y62607D01*
X53597Y62451D01*
Y58682D01*
X50449D01*
X50365Y58671D01*
X50195D01*
X49859Y58627D01*
X49545Y58497D01*
X49276Y58290D01*
X49069Y58021D01*
X48939Y57708D01*
X48908Y57470D01*
X48718Y57406D01*
X47067Y59056D01*
X46935Y59145D01*
X46779Y59176D01*
X46779Y59176D01*
X38848D01*
X38787Y59356D01*
X38974Y59500D01*
X39181Y59769D01*
X39311Y60083D01*
X39355Y60419D01*
X39311Y60756D01*
X39181Y61069D01*
X38974Y61338D01*
X38705Y61545D01*
X38391Y61675D01*
X38055Y61719D01*
X37547D01*
X37210Y61675D01*
X36897Y61545D01*
X36628Y61338D01*
X36421Y61069D01*
X36291Y60756D01*
X36247Y60419D01*
X36291Y60083D01*
X36421Y59769D01*
X36628Y59500D01*
X36815Y59356D01*
X36754Y59176D01*
X36671D01*
X36515Y59145D01*
X36432Y59089D01*
X34653D01*
Y62958D01*
Y70184D01*
X34622Y70340D01*
X34533Y70473D01*
X34401Y70561D01*
X34245Y70592D01*
D02*
G37*
G36*
X90989Y46618D02*
X90661D01*
X90345Y46533D01*
X90062Y46370D01*
X89830Y46138D01*
X89667Y45855D01*
X89582Y45539D01*
Y45211D01*
X89667Y44895D01*
X89830Y44612D01*
X90062Y44380D01*
X90345Y44217D01*
X90661Y44132D01*
X90989D01*
X91305Y44217D01*
X91588Y44380D01*
X91820Y44612D01*
X91983Y44895D01*
X92068Y45211D01*
Y45539D01*
X91983Y45855D01*
X91820Y46138D01*
X91588Y46370D01*
X91305Y46533D01*
X90989Y46618D01*
D02*
G37*
G36*
X79249Y47387D02*
X53400D01*
X53166Y47340D01*
X52967Y47208D01*
X50534Y44774D01*
X50401Y44575D01*
X50354Y44341D01*
Y43333D01*
X50213Y43275D01*
X50007Y43116D01*
X49848Y42910D01*
X49749Y42669D01*
X49715Y42411D01*
X49749Y42153D01*
X49848Y41912D01*
X50007Y41706D01*
X50213Y41547D01*
X50454Y41447D01*
X50712Y41413D01*
X51220D01*
X51478Y41447D01*
X51719Y41547D01*
X51925Y41706D01*
X52084Y41912D01*
X52184Y42153D01*
X52218Y42411D01*
X52184Y42669D01*
X52084Y42910D01*
X51925Y43116D01*
X51719Y43275D01*
X51578Y43333D01*
Y44088D01*
X53653Y46163D01*
X78996D01*
X81924Y43235D01*
X82122Y43102D01*
X82356Y43056D01*
X82591Y43102D01*
X82789Y43235D01*
X82922Y43433D01*
X82968Y43668D01*
X82922Y43902D01*
X82789Y44100D01*
X79682Y47208D01*
X79483Y47340D01*
X79249Y47387D01*
D02*
G37*
G36*
X86164Y43433D02*
X85836D01*
X85520Y43349D01*
X85237Y43185D01*
X85005Y42953D01*
X84842Y42670D01*
X84757Y42354D01*
Y42027D01*
X84842Y41710D01*
X85005Y41427D01*
X85237Y41196D01*
X85520Y41032D01*
X85836Y40947D01*
X86164D01*
X86480Y41032D01*
X86763Y41196D01*
X86995Y41427D01*
X87158Y41710D01*
X87243Y42027D01*
Y42354D01*
X87158Y42670D01*
X86995Y42953D01*
X86763Y43185D01*
X86480Y43349D01*
X86164Y43433D01*
D02*
G37*
G36*
X35125Y45992D02*
X3950D01*
X3794Y45961D01*
X3662Y45873D01*
X3573Y45740D01*
X3542Y45584D01*
Y31098D01*
X3496Y30625D01*
X3542Y30152D01*
Y28333D01*
X3573Y28177D01*
X3662Y28045D01*
X3794Y27956D01*
X3950Y27925D01*
X35125D01*
X35281Y27956D01*
X35413Y28045D01*
X35502Y28177D01*
X35533Y28333D01*
Y39169D01*
X36944D01*
X37014Y39122D01*
X37170Y39091D01*
X37971D01*
X38064Y39079D01*
X38572D01*
X38665Y39091D01*
X38779D01*
X38903Y38967D01*
X38848Y38843D01*
X38810Y38805D01*
X38572Y38837D01*
X38064D01*
X37806Y38803D01*
X37565Y38703D01*
X37359Y38544D01*
X37200Y38338D01*
X37101Y38097D01*
X37067Y37839D01*
X37101Y37581D01*
X37200Y37340D01*
X37359Y37134D01*
X37565Y36975D01*
X37806Y36875D01*
X38064Y36841D01*
X38572D01*
X38689Y36857D01*
X44729Y30817D01*
X44927Y30685D01*
X45161Y30638D01*
X76142D01*
X76376Y30685D01*
X76574Y30817D01*
X82607Y36850D01*
X82739Y37048D01*
X82786Y37283D01*
X82739Y37517D01*
X82607Y37715D01*
X82408Y37848D01*
X82174Y37894D01*
X81940Y37848D01*
X81742Y37715D01*
X75888Y31862D01*
X45415D01*
X39554Y37722D01*
X39570Y37839D01*
X39538Y38077D01*
X39576Y38115D01*
X39700Y38170D01*
X41708Y36163D01*
X41840Y36074D01*
X41996Y36043D01*
X41996Y36043D01*
X50405D01*
Y35484D01*
X50448Y35269D01*
X50570Y35087D01*
X53203Y32453D01*
X53385Y32332D01*
X53600Y32289D01*
X75226D01*
X75441Y32332D01*
X75623Y32453D01*
X82599Y39430D01*
X85501D01*
X85525Y39250D01*
X85520Y39249D01*
X85237Y39085D01*
X85005Y38854D01*
X84842Y38571D01*
X84757Y38254D01*
Y37927D01*
X84842Y37611D01*
X85005Y37328D01*
X85237Y37096D01*
X85520Y36932D01*
X85836Y36848D01*
X86164D01*
X86480Y36932D01*
X86763Y37096D01*
X86995Y37328D01*
X87158Y37611D01*
X87243Y37927D01*
Y38254D01*
X87158Y38571D01*
X86995Y38854D01*
X86763Y39085D01*
X86480Y39249D01*
X86475Y39250D01*
X86499Y39430D01*
X90238D01*
X91343Y38324D01*
X91389Y38294D01*
X91428Y38255D01*
X91479Y38234D01*
X91525Y38203D01*
X91579Y38192D01*
X91631Y38171D01*
X91686D01*
X91740Y38160D01*
X91794Y38171D01*
X91849D01*
X91900Y38192D01*
X91954Y38203D01*
X92000Y38234D01*
X92051Y38255D01*
X92091Y38294D01*
X92136Y38324D01*
X92167Y38370D01*
X92206Y38409D01*
X92227Y38460D01*
X92258Y38506D01*
X92269Y38561D01*
X92290Y38612D01*
Y38667D01*
X92301Y38721D01*
X92290Y38775D01*
Y38830D01*
X92269Y38881D01*
X92258Y38936D01*
X92227Y38982D01*
X92206Y39033D01*
X92167Y39072D01*
X92136Y39118D01*
X90866Y40388D01*
X90685Y40509D01*
X90470Y40552D01*
X82367D01*
X82152Y40509D01*
X81971Y40388D01*
X74994Y33411D01*
X53832D01*
X51527Y35716D01*
Y36043D01*
X52104D01*
X52260Y36074D01*
X52392Y36163D01*
X52481Y36295D01*
X52512Y36451D01*
Y37266D01*
X52520Y37331D01*
X52512Y37396D01*
Y38229D01*
X52482Y38380D01*
X52481Y38385D01*
X52580Y38560D01*
X54114D01*
Y34791D01*
X54145Y34635D01*
X54233Y34503D01*
X54365Y34414D01*
X54521Y34383D01*
X74333D01*
X74490Y34414D01*
X74622Y34503D01*
X74710Y34635D01*
X74741Y34791D01*
Y44951D01*
X74710Y45107D01*
X74622Y45239D01*
X74490Y45328D01*
X74333Y45359D01*
X54521D01*
X54365Y45328D01*
X54233Y45239D01*
X54145Y45107D01*
X54114Y44951D01*
Y41182D01*
X50966D01*
X50882Y41171D01*
X50712D01*
X50376Y41127D01*
X50062Y40997D01*
X49793Y40790D01*
X49586Y40521D01*
X49456Y40208D01*
X49424Y39962D01*
X49234Y39898D01*
X47566Y41565D01*
X47434Y41654D01*
X47278Y41685D01*
X47278Y41685D01*
X39377D01*
X39316Y41865D01*
X39491Y42000D01*
X39698Y42269D01*
X39828Y42583D01*
X39872Y42919D01*
X39828Y43256D01*
X39698Y43569D01*
X39491Y43838D01*
X39222Y44045D01*
X38909Y44175D01*
X38572Y44219D01*
X38064D01*
X37728Y44175D01*
X37414Y44045D01*
X37145Y43838D01*
X36938Y43569D01*
X36808Y43256D01*
X36764Y42919D01*
X36808Y42583D01*
X36938Y42269D01*
X37145Y42000D01*
X37321Y41865D01*
X37259Y41685D01*
X37170D01*
X37014Y41654D01*
X36917Y41589D01*
X35533D01*
Y45584D01*
X35502Y45740D01*
X35413Y45873D01*
X35281Y45961D01*
X35125Y45992D01*
D02*
G37*
G36*
X137265Y80250D02*
X137085D01*
X136920Y80181D01*
X136794Y80055D01*
X136725Y79890D01*
Y79710D01*
X136794Y79545D01*
X136920Y79419D01*
X136920Y79419D01*
Y77731D01*
X108945Y49755D01*
X108890Y49673D01*
X108870Y49575D01*
Y39744D01*
X108645Y39684D01*
X108362Y39521D01*
X108130Y39289D01*
X107967Y39006D01*
X107882Y38689D01*
Y38362D01*
X107967Y38046D01*
X108130Y37763D01*
X108362Y37531D01*
X108645Y37368D01*
X108961Y37283D01*
X109289D01*
X109605Y37368D01*
X109888Y37531D01*
X110120Y37763D01*
X110283Y38046D01*
X110368Y38362D01*
Y38689D01*
X110283Y39006D01*
X110120Y39289D01*
X109888Y39521D01*
X109605Y39684D01*
X109380Y39744D01*
Y49469D01*
X137355Y77445D01*
X137410Y77527D01*
X137430Y77625D01*
Y79419D01*
X137430Y79419D01*
X137556Y79545D01*
X137625Y79710D01*
Y79890D01*
X137556Y80055D01*
X137430Y80181D01*
X137265Y80250D01*
D02*
G37*
G36*
X122865Y75950D02*
X122685D01*
X122520Y75881D01*
X122394Y75755D01*
X122325Y75590D01*
Y75410D01*
X122394Y75245D01*
X122520Y75119D01*
X122520Y75119D01*
Y74191D01*
X95920Y47591D01*
X95865Y47508D01*
X95845Y47411D01*
Y35131D01*
X95845Y35131D01*
X95719Y35005D01*
X95650Y34840D01*
Y34660D01*
X95719Y34495D01*
X95845Y34369D01*
X96010Y34300D01*
X96190D01*
X96355Y34369D01*
X96481Y34495D01*
X96550Y34660D01*
Y34840D01*
X96481Y35005D01*
X96355Y35131D01*
X96355Y35131D01*
Y47305D01*
X122955Y73905D01*
X123010Y73988D01*
X123030Y74086D01*
Y75119D01*
X123030Y75119D01*
X123156Y75245D01*
X123225Y75410D01*
Y75590D01*
X123156Y75755D01*
X123030Y75881D01*
X122865Y75950D01*
D02*
G37*
G36*
X179403Y58337D02*
X179097D01*
X178801Y58258D01*
X178537Y58105D01*
X178320Y57888D01*
X178167Y57624D01*
X178088Y57328D01*
Y57022D01*
X178167Y56726D01*
X178320Y56462D01*
X178537Y56245D01*
X178801Y56092D01*
X178820Y56087D01*
X178832Y55898D01*
X178602Y55803D01*
X178331Y55594D01*
X178122Y55323D01*
X177991Y55006D01*
X177947Y54667D01*
Y40860D01*
X175330D01*
X175174Y40829D01*
X175041Y40740D01*
X174953Y40608D01*
X174922Y40452D01*
Y34483D01*
X174953Y34327D01*
X175041Y34195D01*
X175174Y34106D01*
X175330Y34075D01*
X178493D01*
X178504Y34074D01*
X180028D01*
X180039Y34075D01*
X183712D01*
X183868Y34106D01*
X184000Y34195D01*
X184088Y34327D01*
X184119Y34483D01*
Y40452D01*
X184088Y40608D01*
X184000Y40740D01*
X183868Y40829D01*
X183712Y40860D01*
X180569D01*
Y54667D01*
X180525Y55006D01*
X180394Y55323D01*
X180185Y55594D01*
X179914Y55803D01*
X179678Y55900D01*
X179690Y56090D01*
X179699Y56092D01*
X179963Y56245D01*
X180180Y56462D01*
X180333Y56726D01*
X180412Y57022D01*
Y57328D01*
X180333Y57624D01*
X180180Y57888D01*
X179963Y58105D01*
X179699Y58258D01*
X179403Y58337D01*
D02*
G37*
G36*
X80350Y32958D02*
X80194Y32927D01*
X80062Y32838D01*
X77081Y29858D01*
X37258Y29858D01*
X37102Y29827D01*
X36970Y29739D01*
X36881Y29606D01*
X36850Y29450D01*
Y21525D01*
X36881Y21369D01*
X36970Y21237D01*
X37102Y21148D01*
X37258Y21117D01*
X77281Y21117D01*
X79988Y18411D01*
X79877Y18266D01*
X79805Y18308D01*
X79489Y18393D01*
X79161D01*
X78845Y18308D01*
X78562Y18145D01*
X78330Y17913D01*
X78167Y17630D01*
X78082Y17314D01*
Y16986D01*
X78167Y16670D01*
X78330Y16387D01*
X78562Y16155D01*
X78845Y15992D01*
X79161Y15907D01*
X79489D01*
X79805Y15992D01*
X80088Y16155D01*
X80320Y16387D01*
X80483Y16670D01*
X80568Y16986D01*
Y17314D01*
X80483Y17630D01*
X80441Y17702D01*
X80586Y17813D01*
X80753Y17645D01*
X80753Y17645D01*
X80886Y17556D01*
X81042Y17525D01*
X81042Y17525D01*
X85375D01*
X85531Y17556D01*
X85663Y17645D01*
X85752Y17777D01*
X85783Y17933D01*
Y32550D01*
X85752Y32706D01*
X85663Y32838D01*
X85531Y32927D01*
X85375Y32958D01*
X80350D01*
X80350Y32958D01*
D02*
G37*
G36*
X7083Y25576D02*
X6067D01*
X5565Y25527D01*
X5255Y25433D01*
X4041D01*
X4038Y25432D01*
X4035Y25433D01*
X3960Y25417D01*
X3885Y25402D01*
X3882Y25400D01*
X3879Y25399D01*
X3816Y25356D01*
X3753Y25313D01*
X3751Y25311D01*
X3748Y25309D01*
X3660Y25218D01*
X3658Y25215D01*
X3656Y25213D01*
X3615Y25148D01*
X3574Y25084D01*
X3573Y25081D01*
X3571Y25078D01*
X3559Y25002D01*
X3545Y24927D01*
X3546Y24924D01*
X3545Y24921D01*
X3586Y23641D01*
X3545Y23507D01*
X3496Y23005D01*
X3545Y22503D01*
X3631Y22221D01*
X3745Y18600D01*
X3760Y18536D01*
X3771Y18470D01*
X3778Y18458D01*
X3781Y18445D01*
X3820Y18391D01*
X3855Y18335D01*
X14481Y6922D01*
X14487Y6918D01*
X14491Y6912D01*
X14551Y6871D01*
X14610Y6829D01*
X14617Y6827D01*
X14623Y6823D01*
X14694Y6809D01*
X14764Y6792D01*
X14772Y6794D01*
X14779Y6792D01*
X35325D01*
X35481Y6823D01*
X35613Y6912D01*
X35702Y7044D01*
X35733Y7200D01*
Y11669D01*
X37058D01*
X37102Y11639D01*
X37258Y11608D01*
X37925D01*
X38147Y11579D01*
X38655D01*
X38877Y11608D01*
X38920D01*
X39114Y11414D01*
X39012Y11262D01*
X38913Y11303D01*
X38655Y11337D01*
X38147D01*
X37889Y11303D01*
X37648Y11203D01*
X37442Y11044D01*
X37283Y10838D01*
X37183Y10597D01*
X37149Y10339D01*
X37183Y10081D01*
X37283Y9840D01*
X37442Y9634D01*
X37648Y9475D01*
X37889Y9375D01*
X38147Y9341D01*
X38655D01*
X38772Y9357D01*
X45811Y2317D01*
X46010Y2185D01*
X46244Y2138D01*
X79149D01*
X79383Y2185D01*
X79582Y2317D01*
X82507Y5242D01*
X82639Y5441D01*
X82686Y5675D01*
X82639Y5909D01*
X82507Y6108D01*
X82308Y6240D01*
X82074Y6287D01*
X81840Y6240D01*
X81642Y6108D01*
X78896Y3362D01*
X46497D01*
X39637Y10222D01*
X39653Y10339D01*
X39619Y10597D01*
X39578Y10696D01*
X39730Y10798D01*
X41849Y8680D01*
X41981Y8591D01*
X42137Y8560D01*
X42137Y8560D01*
X50688D01*
Y7726D01*
X50731Y7511D01*
X50852Y7329D01*
X53778Y4403D01*
X53960Y4282D01*
X54175Y4239D01*
X77900D01*
X78115Y4282D01*
X78297Y4403D01*
X82131Y8238D01*
X85553D01*
X85577Y8058D01*
X85520Y8043D01*
X85237Y7880D01*
X85005Y7648D01*
X84842Y7365D01*
X84757Y7049D01*
Y6721D01*
X84842Y6405D01*
X85005Y6122D01*
X85237Y5890D01*
X85520Y5727D01*
X85836Y5642D01*
X86164D01*
X86480Y5727D01*
X86763Y5890D01*
X86995Y6122D01*
X87158Y6405D01*
X87243Y6721D01*
Y7049D01*
X87158Y7365D01*
X86995Y7648D01*
X86763Y7880D01*
X86480Y8043D01*
X86423Y8058D01*
X86447Y8238D01*
X91875D01*
X91929Y8249D01*
X91984D01*
X92035Y8270D01*
X92090Y8281D01*
X92136Y8312D01*
X92187Y8333D01*
X92226Y8372D01*
X92272Y8403D01*
X92302Y8449D01*
X92341Y8488D01*
X92362Y8539D01*
X92393Y8585D01*
X92404Y8639D01*
X92425Y8690D01*
Y8745D01*
X92436Y8799D01*
X92425Y8853D01*
Y8909D01*
X92404Y8960D01*
X92393Y9014D01*
X92362Y9060D01*
X92341Y9111D01*
X92302Y9150D01*
X92272Y9196D01*
X92226Y9226D01*
X92187Y9265D01*
X92136Y9287D01*
X92090Y9317D01*
X92035Y9328D01*
X91984Y9349D01*
X91929D01*
X91875Y9360D01*
X81899D01*
X81685Y9317D01*
X81503Y9196D01*
X77668Y5361D01*
X54407D01*
X51810Y7958D01*
Y8560D01*
X52192D01*
X52348Y8591D01*
X52480Y8680D01*
X52569Y8812D01*
X52600Y8968D01*
Y9143D01*
X52629Y9181D01*
X52759Y9495D01*
X52803Y9831D01*
X52759Y10167D01*
X52629Y10481D01*
X52600Y10519D01*
Y10746D01*
X52573Y10880D01*
X52589Y10930D01*
X52680Y11060D01*
X54397D01*
Y7291D01*
X54428Y7135D01*
X54516Y7003D01*
X54648Y6914D01*
X54805Y6883D01*
X74617D01*
X74773Y6914D01*
X74905Y7003D01*
X74993Y7135D01*
X75024Y7291D01*
Y17451D01*
X74993Y17607D01*
X74905Y17739D01*
X74773Y17828D01*
X74617Y17859D01*
X54805D01*
X54648Y17828D01*
X54516Y17739D01*
X54428Y17607D01*
X54397Y17451D01*
Y13682D01*
X51249D01*
X51165Y13671D01*
X50995D01*
X50659Y13627D01*
X50345Y13497D01*
X50076Y13290D01*
X49869Y13021D01*
X49739Y12708D01*
X49695Y12371D01*
X49706Y12285D01*
X49536Y12201D01*
X47706Y14030D01*
X47574Y14119D01*
X47418Y14150D01*
X47418Y14150D01*
X39413D01*
X39353Y14330D01*
X39574Y14500D01*
X39781Y14769D01*
X39911Y15083D01*
X39955Y15419D01*
X39911Y15755D01*
X39781Y16069D01*
X39574Y16338D01*
X39305Y16545D01*
X38992Y16675D01*
X38655Y16719D01*
X38147D01*
X37811Y16675D01*
X37497Y16545D01*
X37228Y16338D01*
X37021Y16069D01*
X36891Y15755D01*
X36847Y15419D01*
X36891Y15083D01*
X37021Y14769D01*
X37228Y14500D01*
X37449Y14330D01*
X37389Y14150D01*
X37258D01*
X37102Y14119D01*
X37058Y14089D01*
X35733D01*
Y25025D01*
X35702Y25181D01*
X35613Y25313D01*
X35481Y25402D01*
X35325Y25433D01*
X7895D01*
X7585Y25527D01*
X7083Y25576D01*
D02*
G37*
G36*
X156025Y42971D02*
X155143Y42928D01*
X154270Y42798D01*
X153414Y42584D01*
X152582Y42286D01*
X151784Y41909D01*
X151027Y41455D01*
X150318Y40929D01*
X149664Y40336D01*
X149071Y39682D01*
X148545Y38973D01*
X148091Y38216D01*
X147714Y37418D01*
X147416Y36586D01*
X147202Y35730D01*
X147072Y34857D01*
X147029Y33975D01*
X147072Y33093D01*
X147202Y32220D01*
X147416Y31364D01*
X147714Y30532D01*
X148091Y29734D01*
X148545Y28977D01*
X149071Y28268D01*
X149664Y27614D01*
X150318Y27021D01*
X151027Y26495D01*
X151784Y26041D01*
X152582Y25664D01*
X153414Y25366D01*
X154270Y25152D01*
X155143Y25022D01*
X156025Y24979D01*
X156907Y25022D01*
X157780Y25152D01*
X158636Y25366D01*
X159468Y25664D01*
X160266Y26041D01*
X161023Y26495D01*
X161732Y27021D01*
X162386Y27614D01*
X162979Y28268D01*
X163505Y28977D01*
X163959Y29734D01*
X164336Y30532D01*
X164634Y31364D01*
X164848Y32220D01*
X164978Y33093D01*
X165021Y33975D01*
X164978Y34857D01*
X164848Y35730D01*
X164634Y36586D01*
X164336Y37418D01*
X163959Y38216D01*
X163505Y38973D01*
X162979Y39682D01*
X162386Y40336D01*
X161732Y40929D01*
X161023Y41455D01*
X160266Y41909D01*
X159468Y42286D01*
X158636Y42584D01*
X157780Y42798D01*
X156907Y42928D01*
X156025Y42971D01*
D02*
G37*
G36*
X91764Y14143D02*
X91436D01*
X91120Y14058D01*
X90837Y13895D01*
X90605Y13663D01*
X90442Y13380D01*
X90357Y13064D01*
Y12736D01*
X90442Y12420D01*
X90605Y12137D01*
X90837Y11905D01*
X91120Y11742D01*
X91436Y11657D01*
X91764D01*
X92080Y11742D01*
X92363Y11905D01*
X92595Y12137D01*
X92758Y12420D01*
X92843Y12736D01*
Y13064D01*
X92758Y13380D01*
X92595Y13663D01*
X92363Y13895D01*
X92080Y14058D01*
X91764Y14143D01*
D02*
G37*
G36*
X73968Y20185D02*
X53550D01*
X53355Y20146D01*
X53190Y20035D01*
X50889Y17734D01*
X50778Y17569D01*
X50739Y17374D01*
Y15875D01*
X50737Y15875D01*
X50496Y15775D01*
X50290Y15616D01*
X50131Y15410D01*
X50031Y15169D01*
X49997Y14911D01*
X50031Y14653D01*
X50131Y14412D01*
X50290Y14206D01*
X50496Y14047D01*
X50737Y13947D01*
X50995Y13913D01*
X51503D01*
X51761Y13947D01*
X52002Y14047D01*
X52208Y14206D01*
X52367Y14412D01*
X52467Y14653D01*
X52501Y14911D01*
X52467Y15169D01*
X52367Y15410D01*
X52208Y15616D01*
X52002Y15775D01*
X51761Y15875D01*
X51759Y15875D01*
Y17163D01*
X53761Y19165D01*
X73757D01*
X81915Y11008D01*
X82080Y10897D01*
X82275Y10858D01*
X82470Y10897D01*
X82635Y11008D01*
X82746Y11173D01*
X82785Y11368D01*
X82746Y11563D01*
X82635Y11729D01*
X74329Y20035D01*
X74163Y20146D01*
X73968Y20185D01*
D02*
G37*
G36*
X86439Y12211D02*
X86111D01*
X85795Y12126D01*
X85512Y11962D01*
X85280Y11731D01*
X85117Y11447D01*
X85032Y11131D01*
Y10804D01*
X85117Y10488D01*
X85280Y10204D01*
X85512Y9973D01*
X85795Y9809D01*
X86111Y9725D01*
X86439D01*
X86755Y9809D01*
X87038Y9973D01*
X87270Y10204D01*
X87433Y10488D01*
X87518Y10804D01*
Y11131D01*
X87433Y11447D01*
X87270Y11731D01*
X87038Y11962D01*
X86755Y12126D01*
X86439Y12211D01*
D02*
G37*
G36*
X135665Y80250D02*
X135485D01*
X135320Y80181D01*
X135194Y80055D01*
X135125Y79890D01*
Y79710D01*
X135194Y79545D01*
X135320Y79419D01*
X135320Y79419D01*
Y78531D01*
X105195Y48405D01*
X105140Y48323D01*
X105120Y48225D01*
Y12375D01*
X105140Y12277D01*
X105195Y12195D01*
X108083Y9306D01*
X107967Y9105D01*
X107882Y8789D01*
Y8461D01*
X107967Y8145D01*
X108130Y7862D01*
X108362Y7630D01*
X108645Y7467D01*
X108961Y7382D01*
X109289D01*
X109605Y7467D01*
X109888Y7630D01*
X110120Y7862D01*
X110283Y8145D01*
X110368Y8461D01*
Y8789D01*
X110283Y9105D01*
X110120Y9388D01*
X109888Y9620D01*
X109605Y9783D01*
X109289Y9868D01*
X108961D01*
X108645Y9783D01*
X108444Y9667D01*
X105630Y12481D01*
Y48119D01*
X135755Y78245D01*
X135810Y78327D01*
X135830Y78425D01*
Y79419D01*
X135830Y79419D01*
X135956Y79545D01*
X136025Y79710D01*
Y79890D01*
X135956Y80055D01*
X135830Y80181D01*
X135665Y80250D01*
D02*
G37*
G36*
X212273Y6733D02*
X211977D01*
X211967Y6729D01*
X211956Y6731D01*
X211666Y6674D01*
X211657Y6667D01*
X211646D01*
X211373Y6554D01*
X211365Y6546D01*
X211354Y6544D01*
X211109Y6380D01*
X211103Y6371D01*
X211092Y6367D01*
X210883Y6158D01*
X210879Y6147D01*
X210870Y6141D01*
X210706Y5896D01*
X210704Y5885D01*
X210696Y5877D01*
X210583Y5604D01*
Y5593D01*
X210576Y5584D01*
X210519Y5294D01*
X210521Y5283D01*
X210517Y5273D01*
Y4977D01*
X210521Y4967D01*
X210519Y4956D01*
X210576Y4666D01*
X210583Y4657D01*
Y4646D01*
X210696Y4373D01*
X210704Y4365D01*
X210706Y4354D01*
X210870Y4109D01*
X210879Y4103D01*
X210883Y4092D01*
X211092Y3883D01*
X211103Y3879D01*
X211109Y3870D01*
X211354Y3706D01*
X211365Y3704D01*
X211373Y3696D01*
X211646Y3583D01*
X211657D01*
X211666Y3576D01*
X211956Y3519D01*
X211967Y3521D01*
X211977Y3517D01*
X212273D01*
X212283Y3521D01*
X212294Y3519D01*
X212584Y3576D01*
X212593Y3583D01*
X212604D01*
X212877Y3696D01*
X212885Y3704D01*
X212896Y3706D01*
X213141Y3870D01*
X213147Y3879D01*
X213158Y3883D01*
X213367Y4092D01*
X213371Y4103D01*
X213380Y4109D01*
X213544Y4354D01*
X213546Y4365D01*
X213554Y4373D01*
X213667Y4646D01*
Y4657D01*
X213674Y4666D01*
X213731Y4956D01*
X213729Y4967D01*
X213733Y4977D01*
Y5273D01*
X213729Y5283D01*
X213731Y5294D01*
X213674Y5584D01*
X213667Y5593D01*
Y5604D01*
X213554Y5877D01*
X213546Y5885D01*
X213544Y5896D01*
X213380Y6141D01*
X213371Y6147D01*
X213367Y6158D01*
X213158Y6367D01*
X213147Y6371D01*
X213141Y6380D01*
X212896Y6544D01*
X212885Y6546D01*
X212877Y6554D01*
X212604Y6667D01*
X212593D01*
X212584Y6674D01*
X212294Y6731D01*
X212283Y6729D01*
X212273Y6733D01*
D02*
G37*
G36*
X5298D02*
X5002D01*
X4992Y6729D01*
X4981Y6731D01*
X4691Y6674D01*
X4682Y6667D01*
X4671D01*
X4398Y6554D01*
X4390Y6546D01*
X4379Y6544D01*
X4134Y6380D01*
X4128Y6371D01*
X4117Y6367D01*
X3908Y6158D01*
X3904Y6147D01*
X3895Y6141D01*
X3731Y5896D01*
X3729Y5885D01*
X3721Y5877D01*
X3608Y5604D01*
Y5593D01*
X3601Y5584D01*
X3544Y5294D01*
X3546Y5283D01*
X3542Y5273D01*
Y4977D01*
X3546Y4967D01*
X3544Y4956D01*
X3601Y4666D01*
X3608Y4657D01*
Y4646D01*
X3721Y4373D01*
X3729Y4365D01*
X3731Y4354D01*
X3895Y4109D01*
X3904Y4103D01*
X3908Y4092D01*
X4117Y3883D01*
X4128Y3879D01*
X4134Y3870D01*
X4379Y3706D01*
X4390Y3704D01*
X4398Y3696D01*
X4671Y3583D01*
X4682D01*
X4691Y3576D01*
X4981Y3519D01*
X4992Y3521D01*
X5002Y3517D01*
X5298D01*
X5308Y3521D01*
X5319Y3519D01*
X5609Y3576D01*
X5618Y3583D01*
X5629D01*
X5902Y3696D01*
X5910Y3704D01*
X5921Y3706D01*
X6166Y3870D01*
X6172Y3879D01*
X6183Y3883D01*
X6392Y4092D01*
X6396Y4103D01*
X6405Y4109D01*
X6569Y4354D01*
X6571Y4365D01*
X6579Y4373D01*
X6692Y4646D01*
Y4657D01*
X6699Y4666D01*
X6756Y4956D01*
X6754Y4967D01*
X6758Y4977D01*
Y5273D01*
X6754Y5283D01*
X6756Y5294D01*
X6699Y5584D01*
X6692Y5593D01*
Y5604D01*
X6579Y5877D01*
X6571Y5885D01*
X6569Y5896D01*
X6405Y6141D01*
X6396Y6147D01*
X6392Y6158D01*
X6183Y6367D01*
X6172Y6371D01*
X6166Y6380D01*
X5921Y6544D01*
X5910Y6546D01*
X5902Y6554D01*
X5629Y6667D01*
X5618D01*
X5609Y6674D01*
X5319Y6731D01*
X5308Y6729D01*
X5298Y6733D01*
D02*
G37*
G36*
X142054Y63239D02*
X141546D01*
X141321Y63210D01*
X141111Y63123D01*
X140931Y62985D01*
X140853Y62883D01*
X131677Y53707D01*
X130875D01*
X130819Y53700D01*
X128525D01*
Y51500D01*
X129642D01*
Y36348D01*
X129620Y36325D01*
X129475Y36075D01*
X129400Y35795D01*
Y35505D01*
X129475Y35225D01*
X129620Y34975D01*
X129642Y34952D01*
X129642Y22823D01*
X129620Y22800D01*
X129584Y22739D01*
X129539Y22680D01*
X129510Y22611D01*
X129475Y22550D01*
X129457Y22481D01*
X129428Y22412D01*
X129418Y22338D01*
X129400Y22270D01*
Y22199D01*
X129390Y22125D01*
Y6500D01*
X129428Y6213D01*
X129539Y5945D01*
X129715Y5715D01*
X129945Y5539D01*
X130213Y5428D01*
X130500Y5391D01*
X130787Y5428D01*
X131055Y5539D01*
X131284Y5715D01*
X131461Y5945D01*
X131571Y6213D01*
X131609Y6500D01*
Y22125D01*
X131600Y22195D01*
Y22270D01*
X131581Y22342D01*
X131571Y22412D01*
X131544Y22478D01*
X131525Y22550D01*
X131488Y22614D01*
X131461Y22680D01*
X131417Y22736D01*
X131380Y22800D01*
X131357Y22824D01*
X131357Y34793D01*
X136095D01*
X153168Y17720D01*
Y10191D01*
Y7163D01*
X153165Y7160D01*
X153023Y6915D01*
X152950Y6642D01*
Y6358D01*
X153023Y6085D01*
X153165Y5840D01*
X153365Y5640D01*
X153610Y5498D01*
X153883Y5425D01*
X154167D01*
X154440Y5498D01*
X154685Y5640D01*
X154885Y5840D01*
X155027Y6085D01*
X155100Y6358D01*
Y6642D01*
X155027Y6915D01*
X154885Y7160D01*
X154882Y7163D01*
Y9334D01*
X159979D01*
X162950Y6363D01*
Y6358D01*
X163023Y6085D01*
X163165Y5840D01*
X163365Y5640D01*
X163610Y5498D01*
X163883Y5425D01*
X164166D01*
X164440Y5498D01*
X164685Y5640D01*
X164885Y5840D01*
X165026Y6085D01*
X165100Y6358D01*
Y6642D01*
X165026Y6915D01*
X164885Y7160D01*
X164685Y7360D01*
X164440Y7502D01*
X164166Y7575D01*
X164162D01*
X160940Y10797D01*
X160763Y10933D01*
X160556Y11019D01*
X160334Y11048D01*
X154882D01*
Y18075D01*
X154853Y18297D01*
X154767Y18504D01*
X154631Y18681D01*
X137056Y36256D01*
X136879Y36392D01*
X136672Y36478D01*
X136450Y36507D01*
X131357D01*
Y51500D01*
X132725D01*
Y52330D01*
X141896Y61501D01*
X142054D01*
X142279Y61530D01*
X142489Y61617D01*
X142669Y61755D01*
X142807Y61935D01*
X142894Y62145D01*
X142923Y62370D01*
X142894Y62595D01*
X142807Y62805D01*
X142669Y62985D01*
X142489Y63123D01*
X142279Y63210D01*
X142054Y63239D01*
D02*
G37*
G36*
X180155Y33876D02*
X178631D01*
X178620Y33875D01*
X175330D01*
X175174Y33844D01*
X175041Y33755D01*
X174953Y33623D01*
X174922Y33467D01*
Y27498D01*
X174953Y27342D01*
X175041Y27210D01*
X175174Y27121D01*
X175330Y27090D01*
X178334D01*
Y7561D01*
X178237Y7435D01*
X178148Y7219D01*
X178117Y6987D01*
Y6012D01*
X178148Y5781D01*
X178237Y5565D01*
X178379Y5380D01*
X178565Y5237D01*
X178781Y5148D01*
X179012Y5117D01*
X179987D01*
X180219Y5148D01*
X180435Y5237D01*
X180620Y5380D01*
X180762Y5565D01*
X180852Y5781D01*
X180882Y6012D01*
Y6987D01*
X180852Y7219D01*
X180762Y7435D01*
X180620Y7620D01*
X180452Y7750D01*
Y27090D01*
X183712D01*
X183868Y27121D01*
X184000Y27210D01*
X184088Y27342D01*
X184119Y27498D01*
Y33467D01*
X184088Y33623D01*
X184000Y33755D01*
X183868Y33844D01*
X183712Y33875D01*
X180166D01*
X180155Y33876D01*
D02*
G37*
%LPD*%
G36*
X49798Y188227D02*
X51576D01*
Y186449D01*
X41521D01*
X38473Y189497D01*
X36642D01*
Y191275D01*
X46750D01*
X49798Y188227D01*
D02*
G37*
G36*
X85450Y169271D02*
X81049D01*
X77345Y172975D01*
X36775Y172975D01*
Y180900D01*
X77400Y180900D01*
X80750Y184250D01*
X85450D01*
Y169271D01*
D02*
G37*
G36*
X34825Y178208D02*
X4041D01*
X3951Y178298D01*
X4051Y184534D01*
X14052Y195459D01*
X34825D01*
Y178208D01*
D02*
G37*
G36*
X49901Y160704D02*
X51679D01*
Y158926D01*
X41624D01*
X38576Y161974D01*
X36745D01*
Y163752D01*
X46853D01*
X49901Y160704D01*
D02*
G37*
G36*
X34929Y157908D02*
X3950D01*
Y175159D01*
X34929D01*
Y157908D01*
D02*
G37*
G36*
X46364Y146253D02*
X49614Y143003D01*
X51392D01*
Y141225D01*
X41486D01*
X38236Y144475D01*
X36458D01*
Y146253D01*
X46364Y146253D01*
D02*
G37*
G36*
X34975Y132983D02*
X3950D01*
Y151275D01*
X34975D01*
Y132983D01*
D02*
G37*
G36*
X85375Y122968D02*
X80707D01*
X77425Y126250D01*
X36458Y126250D01*
Y134175D01*
X77225Y134175D01*
X80550Y137500D01*
X85375D01*
Y122968D01*
D02*
G37*
G36*
X50176Y115729D02*
X51954D01*
Y113951D01*
X41899D01*
X38860Y116990D01*
X36958D01*
Y118777D01*
X47128D01*
X50176Y115729D01*
D02*
G37*
G36*
X34672Y112808D02*
X3950D01*
Y130059D01*
X34672D01*
Y112808D01*
D02*
G37*
G36*
X140637Y119736D02*
X166654Y93719D01*
Y82154D01*
X168912Y79571D01*
X172291Y79507D01*
Y70861D01*
X172078Y70650D01*
X166654Y70704D01*
X149727Y81302D01*
X148675Y101874D01*
X134668Y112277D01*
X134668Y115225D01*
Y121234D01*
Y125705D01*
X140637D01*
Y119736D01*
D02*
G37*
G36*
X213529Y64600D02*
X197179D01*
X175825Y80173D01*
X169876Y80173D01*
Y90075D01*
X213529D01*
Y64600D01*
D02*
G37*
%LPC*%
G36*
X195650Y84150D02*
X191875D01*
Y76470D01*
X195650D01*
Y84150D01*
D02*
G37*
%LPD*%
G36*
X128258Y129046D02*
X131971Y123763D01*
X133652Y120854D01*
X118434Y104550D01*
X114373Y100200D01*
X97700D01*
Y107731D01*
X109653Y111205D01*
X127959Y129074D01*
X128258Y129046D01*
D02*
G37*
G36*
X49714Y83204D02*
X51492D01*
Y81426D01*
X41471D01*
X38423Y84474D01*
X36558D01*
Y86252D01*
X46666D01*
X49714Y83204D01*
D02*
G37*
G36*
X34272Y72908D02*
X3950D01*
Y90459D01*
X34272D01*
Y72908D01*
D02*
G37*
G36*
X85379Y63900D02*
X80650D01*
X77400Y67150D01*
X36550Y67150D01*
Y75075D01*
X77200Y75075D01*
X80150Y78025D01*
X85379D01*
Y63900D01*
D02*
G37*
G36*
X49827Y55720D02*
X51592D01*
Y53942D01*
X41550D01*
X38502Y56990D01*
X36671D01*
Y58768D01*
X46779D01*
X49827Y55720D01*
D02*
G37*
G36*
X34245Y52933D02*
X3950D01*
Y70184D01*
X34245D01*
Y52933D01*
D02*
G37*
G36*
X50326Y38229D02*
X52104D01*
Y36451D01*
X41996D01*
X38948Y39499D01*
X37170D01*
Y41277D01*
X47278D01*
X50326Y38229D01*
D02*
G37*
G36*
X35125Y28333D02*
X3950D01*
Y45584D01*
X35125D01*
Y28333D01*
D02*
G37*
G36*
X85375Y17933D02*
X81042D01*
X77450Y21525D01*
X37258Y21525D01*
Y29450D01*
X77250Y29450D01*
X80350Y32550D01*
X85375D01*
Y17933D01*
D02*
G37*
G36*
X50414Y10746D02*
X52192D01*
Y8968D01*
X42137D01*
X39089Y12016D01*
X37258D01*
Y13742D01*
X47418D01*
X50414Y10746D01*
D02*
G37*
G36*
X35325Y7200D02*
X14779D01*
X4153Y18613D01*
X3953Y24934D01*
X4041Y25025D01*
X35325D01*
Y7200D01*
D02*
G37*
D10*
X139235Y148539D02*
G03*
X139235Y148539I-5075J0D01*
G01*
X161100Y33975D02*
G03*
X161100Y33975I-5075J0D01*
G01*
D11*
X180401Y67075D02*
D03*
X181951D02*
D03*
D12*
X175724D02*
D03*
X177876D02*
D03*
D13*
X151375Y63025D02*
D03*
Y58199D02*
D03*
D14*
X185619Y104793D02*
D03*
X189032Y108206D02*
D03*
D15*
X182995Y184875D02*
D03*
Y186975D02*
D03*
X195475Y184850D02*
D03*
Y186950D02*
D03*
X188700Y184875D02*
D03*
Y186975D02*
D03*
X185535D02*
D03*
Y184875D02*
D03*
X180455D02*
D03*
Y186975D02*
D03*
D16*
X202299Y177808D02*
D03*
Y179959D02*
D03*
D17*
X130625Y52600D02*
D03*
X123525D02*
D03*
D18*
X170828Y176149D02*
D03*
Y171679D02*
D03*
X179922D02*
D03*
Y176149D02*
D03*
X153175D02*
D03*
Y171679D02*
D03*
X162269D02*
D03*
Y176149D02*
D03*
X188481D02*
D03*
Y171679D02*
D03*
X197575D02*
D03*
Y176149D02*
D03*
D19*
X37801Y55339D02*
X38055D01*
X44544Y48850D01*
X77848D01*
X177876Y67075D02*
X180401D01*
X175523Y67000D02*
X175698Y66825D01*
X171950Y67000D02*
X175523D01*
X151375Y63025D02*
Y65000D01*
Y65457D02*
X151688D01*
X152145Y65000D02*
X161450D01*
X162900Y63550D01*
X151375Y65000D02*
Y65495D01*
X151688Y65457D02*
X152145Y65000D01*
X151375Y65457D02*
Y65495D01*
X141800Y67450D02*
X151807D01*
X184649Y104087D02*
X186181D01*
X177168Y92450D02*
X179926Y95208D01*
Y107585D01*
X188495Y119420D02*
Y135435D01*
X91225Y110327D02*
X94750Y113852D01*
X91225Y90606D02*
Y110327D01*
Y90606D02*
X94225Y87606D01*
Y71975D02*
Y87606D01*
X94750Y113852D02*
Y131050D01*
X206745Y135445D02*
X215600Y144300D01*
Y165900D01*
X50966Y44341D02*
X53400Y46775D01*
X79249D01*
X82356Y43668D01*
X213880Y178385D02*
X214651D01*
X215800Y166100D02*
Y177236D01*
X213775Y178490D02*
X213880Y178385D01*
X214651D02*
X215800Y177236D01*
X215600Y165900D02*
X215800Y166100D01*
X188950Y119875D02*
X209500D01*
X157800Y165450D02*
Y166600D01*
X94758Y187308D02*
X100150Y192700D01*
X113100D02*
X115753Y190047D01*
X100150Y192700D02*
X113100D01*
X157800Y166600D02*
Y190047D01*
X188495Y116154D02*
Y119420D01*
X188950Y119875D01*
X179926Y107585D02*
X188495Y116154D01*
X181715Y102189D02*
X183270D01*
X184278Y103716D02*
X184649Y104087D01*
X186181D02*
X187450Y102818D01*
X162294Y196825D02*
Y196825D01*
Y194488D02*
Y196825D01*
X182995Y186975D02*
Y188973D01*
X129291Y183202D02*
X129528D01*
X206180Y188920D02*
X210425Y184675D01*
X200350Y194750D02*
X206180Y188920D01*
X210425Y180400D02*
Y184675D01*
X198275Y196825D02*
X200350Y194750D01*
X128119Y178320D02*
X128804Y179005D01*
X128004Y177089D02*
X128119Y177204D01*
X122035Y183058D02*
X126015Y179078D01*
X128804D01*
X128119Y177204D02*
Y178320D01*
X128804Y179005D02*
Y179078D01*
X129291Y183202D02*
X129528Y183439D01*
X119249Y183193D02*
X119495Y183439D01*
Y187630D01*
X129528Y183439D02*
Y187630D01*
X137965Y183439D02*
Y185780D01*
X139815Y187630D01*
X137965Y183439D02*
X139815D01*
X204770Y135445D02*
X206745D01*
X204765Y135440D02*
X204770Y135445D01*
X175244Y196825D02*
X177915D01*
X162294D02*
X175244D01*
X177915Y196825D02*
X192060D01*
X177915Y194742D02*
Y196825D01*
X162294Y196825D02*
X162294Y196825D01*
X210425Y180400D02*
X212335Y178490D01*
X213775D01*
X149848Y183439D02*
Y187630D01*
X192060Y196825D02*
X198275D01*
X192060Y196825D02*
Y196825D01*
X138141D02*
X146419D01*
Y194488D02*
Y196825D01*
X162294D01*
X125975D02*
X138141D01*
X138164Y196802D01*
Y194488D02*
Y196802D01*
X157120Y155873D02*
Y164770D01*
X157800Y165450D01*
Y190047D02*
X157972D01*
X115753D02*
X157800D01*
X157972D02*
X159754Y191829D01*
X188500Y135440D02*
X204765D01*
X188495Y135435D02*
X188500Y135440D01*
X192060Y194750D02*
Y196825D01*
X142355Y182296D02*
X147562Y177089D01*
X118430Y196825D02*
X125975D01*
X117844Y196239D02*
X118430Y196825D01*
X117844Y194488D02*
Y196239D01*
X125975Y196825D02*
X126173Y196627D01*
Y194562D02*
Y196627D01*
X126099Y194488D02*
X126173Y194562D01*
X159754Y191829D02*
Y194488D01*
X94758Y176975D02*
Y187308D01*
X180455Y186975D02*
Y188973D01*
X94750Y131050D02*
X94754Y131054D01*
Y176971D02*
X94758Y176975D01*
X94754Y131054D02*
Y176971D01*
X94200Y26901D02*
X94213Y26913D01*
Y71963D01*
X94225Y71975D01*
X78250Y165475D02*
X82275D01*
X53725Y170325D02*
X73400D01*
X78250Y165475D01*
X52425Y64925D02*
X73500D01*
X79582Y58843D01*
X82286D01*
X43844Y182050D02*
X75830D01*
X38055Y187839D02*
X43844Y182050D01*
X75830D02*
X82106Y188327D01*
X37955Y82839D02*
X44169Y76625D01*
X76766D02*
X82174Y82033D01*
X44169Y76625D02*
X76766D01*
X53975Y92800D02*
X77645D01*
X82323Y88122D01*
X46244Y2750D02*
X79149D01*
X38655Y10339D02*
X46244Y2750D01*
X79149D02*
X82074Y5675D01*
X44240Y136200D02*
X75950D01*
X82125Y142375D01*
X78326Y152225D02*
X82275Y148276D01*
X53050Y152225D02*
X78326D01*
X50449Y59911D02*
Y62949D01*
X52425Y64925D01*
X76142Y31250D02*
X82174Y37283D01*
X45161Y31250D02*
X76142D01*
X38744Y114696D02*
X45340Y108100D01*
X78883D01*
X82250Y111467D01*
X38144Y115339D02*
X38744Y114739D01*
Y114696D02*
Y114739D01*
X77848Y48850D02*
X82123Y53125D01*
X44594Y153900D02*
X78600D01*
X82175Y157475D01*
X53410Y197760D02*
X79565D01*
X82350Y194975D01*
X38401Y10339D02*
X38655D01*
X50549Y159831D02*
X50550Y159830D01*
X38155Y160339D02*
X44594Y153900D01*
X50549Y167149D02*
X53725Y170325D01*
X50549Y164911D02*
Y167149D01*
X50349Y87411D02*
Y89174D01*
X53975Y92800D01*
X37901Y160339D02*
X38155D01*
X50249Y149424D02*
X53050Y152225D01*
X50449Y192411D02*
Y194799D01*
X53410Y197760D01*
X37801Y187839D02*
X38055D01*
X50249Y147211D02*
Y149424D01*
X37601Y142839D02*
X37644D01*
X38244Y142196D02*
Y142239D01*
X37644Y142839D02*
X38244Y142239D01*
Y142196D02*
X44240Y136200D01*
X37701Y82839D02*
X37955D01*
X50966Y42411D02*
Y44341D01*
X38318Y37839D02*
X38572D01*
X45161Y31250D01*
X142355Y182296D02*
Y187630D01*
X122035Y183058D02*
Y187630D01*
X185535Y186975D02*
Y188973D01*
D20*
X43751Y57879D02*
X44993Y56636D01*
X37801Y57879D02*
X43751D01*
X44993Y56636D02*
X45125D01*
X17408Y145379D02*
X37601Y145379D01*
X17317Y145379D02*
X17408D01*
X24939Y12879D02*
X38401D01*
X18125Y40379D02*
X38318Y40379D01*
X17908Y117879D02*
X38101D01*
X17608Y190379D02*
X37801Y190379D01*
X17708Y162879D02*
X37901D01*
X17608Y57879D02*
X37801Y57879D01*
X24239Y85379D02*
X37701D01*
D21*
X182100Y120851D02*
Y122487D01*
X173661Y112412D02*
X182100Y120851D01*
X165247Y133111D02*
X171684Y126675D01*
X179800D01*
X164475Y115300D02*
X169425Y120250D01*
X176658D01*
X174551Y117725D02*
X175600D01*
X178099Y120224D01*
Y124246D01*
X173123Y116297D02*
X174551Y117725D01*
X173123Y115798D02*
Y116297D01*
X169325Y112000D02*
X173123Y115798D01*
X158866Y112000D02*
X169325D01*
X182993Y120250D02*
X183025D01*
X173843Y111100D02*
X182993Y120250D01*
X173250Y111100D02*
X173843D01*
X185200Y117540D02*
Y118890D01*
X175843Y108183D02*
X185200Y117540D01*
X171475Y109325D02*
X173250Y111100D01*
X169858Y110025D02*
X180675Y120842D01*
Y120875D01*
X155975Y110025D02*
X169858D01*
X169575Y111100D02*
X174675Y116200D01*
X156411Y111100D02*
X169575D01*
X163686Y116400D02*
X168703Y121417D01*
X176277D01*
X170800Y162500D02*
Y165375D01*
X171500Y147150D02*
Y161800D01*
X170800Y162500D02*
X171500Y161800D01*
X132025Y86475D02*
X138750Y79750D01*
X104350Y86475D02*
X132025D01*
X138750Y74125D02*
Y79750D01*
X109125Y56025D02*
X132085Y78985D01*
Y80700D01*
X109125Y56025D02*
X109125D01*
X109125Y160400D02*
X135975Y160400D01*
X108569Y160400D02*
X108940D01*
X165287Y134946D02*
X172166Y128067D01*
X181283D02*
X182100Y127250D01*
X172166Y128067D02*
X181283D01*
X153586Y113925D02*
X156411Y111100D01*
X153586Y113925D02*
X153586D01*
X151479Y116032D02*
X153586Y113925D01*
X150325Y115675D02*
X155975Y110025D01*
X143300Y132550D02*
X150325Y125525D01*
Y115675D02*
Y125525D01*
X109625Y132550D02*
X143300D01*
X142600Y134775D02*
X151479Y125896D01*
X102768Y147957D02*
X115950Y134775D01*
X142600D01*
X109125Y145225D02*
X117175Y137175D01*
X142500D02*
X151725Y127950D01*
X117175Y137175D02*
X142500D01*
X124249Y172344D02*
X128031D01*
X131117Y169258D01*
Y167058D02*
X132324Y165851D01*
X131117Y167058D02*
Y169258D01*
X132324Y165851D02*
X134524D01*
X156563Y143812D01*
X151479Y116032D02*
Y125896D01*
X159100Y142865D02*
X159660Y143425D01*
X159100Y122675D02*
Y142865D01*
X152975Y116025D02*
Y143400D01*
X135975Y160400D02*
X152975Y143400D01*
X113576Y162050D02*
X135625D01*
X106750Y168876D02*
X113576Y162050D01*
X154100Y116766D02*
Y143575D01*
X135625Y162050D02*
X154100Y143575D01*
X115551Y163625D02*
X135350D01*
X155275Y143700D01*
Y117200D02*
Y143700D01*
X156563Y117537D02*
Y143812D01*
X143803Y158297D02*
X157825Y144275D01*
Y117950D02*
Y144275D01*
X143803Y158297D02*
Y172392D01*
X109125Y170051D02*
X115551Y163625D01*
X154100Y116766D02*
X158866Y112000D01*
X152975Y116025D02*
X153950Y115050D01*
X142450Y131475D02*
X144075Y129850D01*
X123450Y131475D02*
X142450D01*
X109125Y117150D02*
X123450Y131475D01*
X103325Y138850D02*
X109625Y132550D01*
X102425Y52150D02*
X115709Y65434D01*
X102425Y38725D02*
Y52150D01*
X115709Y65434D02*
X116234D01*
X160468Y127151D02*
Y141693D01*
X162200Y143425D01*
X102435Y56000D02*
Y84540D01*
X102425Y84550D02*
X102435Y84540D01*
Y56000D02*
X102446Y55990D01*
X96100Y47411D02*
X122775Y74086D01*
X96100Y34750D02*
Y47411D01*
X122775Y74086D02*
Y75500D01*
X135575Y78425D02*
Y79800D01*
X105375Y48225D02*
X135575Y78425D01*
X105375Y12375D02*
Y48225D01*
X137175Y77625D02*
Y79800D01*
X109125Y49575D02*
X137175Y77625D01*
X109125Y38526D02*
Y49575D01*
X159660Y147850D02*
Y155341D01*
Y143425D02*
Y147850D01*
X160468Y127151D02*
X160545Y127075D01*
X174375Y110228D02*
X178784Y114637D01*
X174375Y110225D02*
Y110228D01*
X178784Y114637D02*
Y114641D01*
X185443Y133375D02*
X185500Y133432D01*
Y152825D01*
X201475Y168800D01*
X194625Y165700D02*
Y178250D01*
X182401Y131761D02*
Y153476D01*
X194625Y165700D01*
X180375Y145400D02*
Y154850D01*
X192925Y167400D01*
X192850Y167475D02*
X192925Y167400D01*
X192850Y167475D02*
Y187040D01*
X158800Y115300D02*
X164475D01*
X156563Y117537D02*
X158800Y115300D01*
X162719Y136424D02*
X167194Y140900D01*
X162719Y129649D02*
Y136424D01*
X162500Y129295D02*
Y129431D01*
X162719Y129649D01*
X161500Y130800D02*
Y137150D01*
X171500Y147150D01*
X163915Y127665D02*
Y135782D01*
X167682Y139550D01*
X160400Y124150D02*
X163915Y127665D01*
X159375Y116400D02*
X163686D01*
X157825Y117950D02*
X159375Y116400D01*
X155275Y117200D02*
X158736Y113739D01*
X131200Y84425D02*
X134100Y81525D01*
X109125Y84425D02*
X131200D01*
X162850Y122975D02*
X165526D01*
X167926Y125375D02*
X184132D01*
X165526Y122975D02*
X167926Y125375D01*
X160400Y117575D02*
Y124150D01*
X102749Y160367D02*
X102768Y160349D01*
Y147957D02*
Y160349D01*
X102787Y190188D02*
X102825Y190226D01*
X102787Y160405D02*
Y190188D01*
X102749Y160367D02*
X102787Y160405D01*
X116234Y65434D02*
X129125Y78325D01*
X102425Y84550D02*
X104350Y86475D01*
X118800Y77075D02*
X124500D01*
X116525Y79350D02*
X118800Y77075D01*
X105750Y79350D02*
X116525D01*
X167843Y171628D02*
X171565D01*
X167374Y172097D02*
Y194488D01*
Y172097D02*
X167843Y171628D01*
X171565D02*
X171624Y171570D01*
X171565Y171628D02*
X179185D01*
X171624Y168851D02*
Y171570D01*
Y168851D02*
X173375Y167100D01*
X174350D01*
X173900Y168425D02*
X179175D01*
X161638Y171734D02*
X164834D01*
X181400Y154175D02*
X192475Y165250D01*
X181400Y144530D02*
Y154175D01*
X201475Y168800D02*
Y173250D01*
X210940Y173410D02*
X213775D01*
X207780Y176570D02*
X210940Y173410D01*
X204795Y176570D02*
X207780D01*
X167194Y140900D02*
X175875D01*
X201475Y173250D02*
X204795Y176570D01*
X195149Y189338D02*
X201138D01*
X192850Y187040D02*
X195149Y189338D01*
X201138D02*
X204954Y185522D01*
X176750Y146125D02*
Y167100D01*
X175875Y140900D02*
X180375Y145400D01*
X162200Y143425D02*
Y147850D01*
Y155341D01*
X161976Y155649D02*
X162200Y155873D01*
X161976Y155565D02*
Y155649D01*
Y155565D02*
X162200Y155341D01*
X159235Y155766D02*
X159660Y155341D01*
X164834Y194488D02*
Y194691D01*
X172975Y146077D02*
X173025Y146127D01*
Y165575D01*
X171500Y167100D02*
X173025Y165575D01*
X167682Y139550D02*
X176420D01*
X181400Y144530D01*
X204765Y145600D02*
X204770Y145605D01*
X188495Y145595D02*
X188500Y145600D01*
X204765Y143060D02*
X204770Y143065D01*
X188495Y143055D02*
X188500Y143060D01*
X188495Y140515D02*
X188500Y140520D01*
X204765D02*
X204770Y140525D01*
X174225Y166975D02*
X174350Y167100D01*
X174225Y146075D02*
Y166975D01*
X109125Y170051D02*
Y190075D01*
X106750Y168876D02*
Y184850D01*
X164834Y171734D02*
Y194488D01*
X179175Y146100D02*
Y168425D01*
X175525Y146150D02*
Y167100D01*
X178034Y146159D02*
Y167091D01*
X169332Y169268D02*
X171500Y167100D01*
X167300Y169268D02*
X169332D01*
X164834Y171734D02*
X167300Y169268D01*
X105375Y12375D02*
X109125Y8625D01*
X102450Y8799D02*
Y38700D01*
D22*
X50349Y84900D02*
X69821Y84900D01*
X50749Y117371D02*
X70942Y117371D01*
X70642Y57371D02*
X70675D01*
X50449D02*
X70642D01*
X50966Y39871D02*
X71159D01*
X130500Y6500D02*
Y22125D01*
X179258Y36904D02*
Y54667D01*
X50549Y162371D02*
X70742D01*
X50449Y189871D02*
X70642D01*
X51249Y12371D02*
X71442D01*
X17608Y193679D02*
X18388Y194459D01*
X50249Y144671D02*
X70442Y144671D01*
D23*
X156371Y106027D02*
X175726D01*
X145025Y117374D02*
X156371Y106027D01*
X145025Y117374D02*
Y121630D01*
X141357Y125298D02*
X145025Y121630D01*
X136188Y123387D02*
X137140D01*
X137081Y125298D02*
X141357D01*
X137081Y124419D02*
Y125298D01*
X175726Y106027D02*
X184599Y114901D01*
X188481Y171628D02*
Y171679D01*
Y171628D02*
X189218D01*
X188481Y170891D02*
Y171628D01*
X169914Y194488D02*
Y194691D01*
Y190246D02*
Y194488D01*
X188481Y171679D02*
Y172365D01*
X191325Y168450D02*
Y185530D01*
X189914Y186941D02*
X191325Y185530D01*
X188700Y187100D02*
X188859Y186941D01*
X189914D01*
X169914Y190246D02*
X187789Y172371D01*
X187738Y170885D02*
X188475D01*
X182228Y165375D02*
X187738Y170885D01*
X188475D02*
X188481Y170891D01*
X180925Y165375D02*
X182228D01*
X188475Y172371D02*
X188481Y172365D01*
X187789Y172371D02*
X188475D01*
X202207Y177774D02*
X202273Y177707D01*
Y176093D02*
Y177707D01*
X178034Y167091D02*
X178042Y167100D01*
X81095Y117005D02*
X82323D01*
X73350Y124750D02*
X81095Y117005D01*
X53800Y124750D02*
X73350D01*
X53550Y19675D02*
X73968D01*
X82275Y11368D01*
X51249Y17374D02*
X53550Y19675D01*
X50749Y121699D02*
X53800Y124750D01*
X50749Y119911D02*
Y121699D01*
X51249Y14911D02*
Y17374D01*
D24*
X147275Y117231D02*
Y124300D01*
X155739Y108767D02*
X157494D01*
X147275Y117231D02*
X155739Y108767D01*
X184132Y125375D02*
Y129677D01*
Y118243D02*
Y125375D01*
Y129677D02*
X184527D01*
X175726Y109837D02*
X184132Y118243D01*
X183787Y129677D02*
X184132D01*
X171674Y118250D02*
X173123D01*
X169625Y116201D02*
X171674Y118250D01*
X177981Y129677D02*
X183787D01*
X186852Y137882D02*
X186945Y137975D01*
X188495D01*
X186818Y137882D02*
X186852D01*
X184527Y129677D02*
X186818Y131968D01*
Y137882D01*
X157494Y108767D02*
X157504Y108757D01*
X126034Y130325D02*
X136825D01*
X109928Y114219D02*
X126034Y130325D01*
X102175Y114219D02*
X109928D01*
X141250Y130325D02*
X147275Y124300D01*
X136825Y130325D02*
X141250D01*
X136825Y130325D02*
X136825Y130325D01*
X76069Y50575D02*
X81444Y55950D01*
X50449Y53076D02*
X52950Y50575D01*
X76069D01*
X51700Y78325D02*
X74875D01*
X81600Y85050D01*
X50349Y79676D02*
X51700Y78325D01*
X74700Y183625D02*
X82300Y191225D01*
X52175Y183625D02*
X74700D01*
X82300Y191225D02*
X90960D01*
X50449Y185351D02*
X52175Y183625D01*
X183761Y136476D02*
X183787Y136451D01*
Y129677D02*
Y136451D01*
X183875Y139209D02*
Y153275D01*
X199825Y169225D01*
X186818Y152168D02*
X203175Y168525D01*
X186818Y137882D02*
Y152168D01*
X102175Y114219D02*
Y114300D01*
X101983Y114492D02*
X102175Y114300D01*
X101983Y114492D02*
Y144994D01*
X199825Y169225D02*
Y179913D01*
X203175Y168525D02*
Y171500D01*
X199825Y179913D02*
X202063Y182151D01*
X203175Y171500D02*
X206950Y175275D01*
X188495Y137975D02*
X188500Y137980D01*
X201930Y165297D02*
X205125Y168492D01*
Y171300D01*
X206625Y172800D01*
X172700Y134958D02*
X177981Y129677D01*
X172700Y134958D02*
Y137950D01*
X195475Y186950D02*
X200531D01*
X203425Y180624D02*
Y184056D01*
X200531Y186950D02*
X203425Y184056D01*
X202839Y180038D02*
X203425Y180624D01*
X202377Y180038D02*
X202839D01*
X202299Y179959D02*
X202377Y180038D01*
X157120Y147850D02*
Y155873D01*
X206625Y172800D02*
X208225D01*
X210155Y170870D01*
X213775D01*
X188500Y145600D02*
X204765D01*
X188500Y143060D02*
X204765D01*
X188500Y140520D02*
X204765D01*
X188500Y137980D02*
X204765D01*
X204770Y137985D01*
X75125Y137850D02*
X82850Y145575D01*
X91494D02*
X91994Y145075D01*
X82850Y145575D02*
X91494D01*
X90960Y191225D02*
X91975Y190210D01*
X77775Y86774D02*
X82983D01*
X85811Y89602D01*
X89725D01*
X81600Y85050D02*
X91325D01*
X91900Y84475D01*
X90470Y39991D02*
X91740Y38721D01*
X82367Y39991D02*
X90470D01*
X75226Y32850D02*
X82367Y39991D01*
X81444Y55950D02*
X91700D01*
X77277Y110125D02*
X81352Y114200D01*
X91950D01*
X53375Y155375D02*
X77065D01*
X81990Y160300D02*
X91775D01*
X77065Y155375D02*
X81990Y160300D01*
X50449Y185351D02*
Y187331D01*
X51249Y7726D02*
X54175Y4800D01*
X77900D01*
X81899Y8799D01*
X51249Y7726D02*
Y9831D01*
X50249Y140101D02*
Y142131D01*
X52500Y137850D02*
X75125D01*
X50249Y140101D02*
X52500Y137850D01*
X50349Y79676D02*
Y82331D01*
X50749Y113001D02*
X53625Y110125D01*
X50749Y113001D02*
Y114831D01*
X53625Y110125D02*
X77277D01*
X50449Y53076D02*
Y54831D01*
X81899Y8799D02*
X91875D01*
X53600Y32850D02*
X75226D01*
X50550Y158200D02*
X53375Y155375D01*
X50550Y158200D02*
Y159830D01*
X50966Y35484D02*
X53600Y32850D01*
X50966Y35484D02*
Y37331D01*
D25*
X132032Y52850D02*
X141548Y62365D01*
X130875Y52850D02*
X132032D01*
X130625Y52600D02*
X130875Y52850D01*
X141548Y62365D02*
X141795D01*
X130500Y35650D02*
Y52600D01*
X179393Y6607D02*
X179500Y6500D01*
X179393Y6607D02*
Y31054D01*
X160334Y10191D02*
X164025Y6500D01*
X154025Y10191D02*
X160334D01*
X130500Y35650D02*
X136450D01*
X154025Y10191D02*
Y18075D01*
X136450Y35650D02*
X154025Y18075D01*
Y6500D02*
Y10191D01*
X130500Y22125D02*
X130500Y35650D01*
D26*
X207650Y82850D02*
X208000Y82500D01*
X205735Y81442D02*
X207600Y83307D01*
X205735Y81442D02*
Y81442D01*
D27*
X109125Y56025D02*
Y56025D01*
X145675Y166175D02*
X150545Y171045D01*
X149848Y179580D02*
X150545Y178883D01*
X149848Y179580D02*
Y183439D01*
X150545Y171045D02*
Y178883D01*
X126926Y181215D02*
X131860D01*
X131875Y181200D01*
X126912Y181229D02*
X126926Y181215D01*
X132961Y174959D02*
X135421Y177419D01*
X132961Y167767D02*
Y174959D01*
D28*
X180455Y184929D02*
X188700D01*
X172454Y191646D02*
X179171Y184929D01*
X172454Y191646D02*
Y194393D01*
X179171Y184929D02*
X180455D01*
D29*
X151311Y56421D02*
D03*
D30*
X151311Y65057D02*
D03*
D31*
X130529Y125045D02*
D03*
D32*
X179521Y30482D02*
D03*
Y37467D02*
D03*
D33*
X208098Y93262D02*
D03*
D34*
X208000Y45953D02*
D03*
Y35953D02*
D03*
Y82500D02*
D03*
Y72500D02*
D03*
D35*
X190334Y109418D02*
D03*
D36*
X184227Y103312D02*
D03*
D37*
X137653Y125045D02*
D03*
X130668D02*
D03*
D38*
X179521Y30482D02*
D03*
D39*
X64211Y117371D02*
D03*
X24639Y117878D02*
D03*
X24139Y145379D02*
D03*
X63711Y144671D02*
D03*
X64711Y12371D02*
D03*
X24939Y12879D02*
D03*
X24856Y40378D02*
D03*
X64427Y39871D02*
D03*
X24439Y162879D02*
D03*
X24339Y57878D02*
D03*
X64010Y162371D02*
D03*
X63911Y57371D02*
D03*
X24339Y190379D02*
D03*
X24239Y85378D02*
D03*
X63910Y189871D02*
D03*
X63811Y84871D02*
D03*
D40*
X123450Y119550D02*
D03*
X109125Y84425D02*
D03*
Y117150D02*
D03*
X86122Y87054D02*
D03*
X77775Y86774D02*
D03*
X86000Y112231D02*
D03*
X91500Y117827D02*
D03*
X86012Y116150D02*
D03*
X177550Y104150D02*
D03*
X109125Y56025D02*
D03*
X45125Y71175D02*
D03*
Y130025D02*
D03*
X86100Y189213D02*
D03*
X86000Y6885D02*
D03*
X45125Y176600D02*
D03*
X86125Y158996D02*
D03*
X86275Y10968D02*
D03*
X86175Y143675D02*
D03*
X86101Y83176D02*
D03*
X86000Y38091D02*
D03*
X108875Y145225D02*
D03*
X45375Y25700D02*
D03*
X86012Y147516D02*
D03*
X79550Y168150D02*
D03*
X79582Y62525D02*
D03*
X86025Y53996D02*
D03*
X45125Y161355D02*
D03*
Y56636D02*
D03*
X108940Y160400D02*
D03*
X86000Y163965D02*
D03*
X86012Y58015D02*
D03*
X92100Y164250D02*
D03*
X91700Y59127D02*
D03*
X109125Y190075D02*
D03*
X86100Y193606D02*
D03*
X92250Y195375D02*
D03*
X79450Y121800D02*
D03*
X79325Y17150D02*
D03*
X45125Y116330D02*
D03*
X44881Y11355D02*
D03*
X109125Y8625D02*
D03*
X91600Y12900D02*
D03*
X109125Y38526D02*
D03*
X86000Y42190D02*
D03*
X91627Y149949D02*
D03*
X90825Y45375D02*
D03*
X139815Y183439D02*
D03*
X119495D02*
D03*
X149848D02*
D03*
X129528D02*
D03*
X143803Y172392D02*
D03*
X124249Y172344D02*
D03*
X144895Y183439D02*
D03*
X133973D02*
D03*
X206180Y188920D02*
D03*
X175244Y196825D02*
D03*
X185925Y121950D02*
D03*
X176025Y95875D02*
D03*
D41*
X171950Y67000D02*
D03*
Y55000D02*
D03*
X130500Y22125D02*
D03*
X125500D02*
D03*
X130500Y35650D02*
D03*
X125500D02*
D03*
D42*
X172289Y75093D02*
D03*
X172416Y84999D02*
D03*
D43*
X193879Y78268D02*
D03*
Y80173D02*
D03*
Y82078D02*
D03*
X179250Y57175D02*
D03*
Y54675D02*
D03*
D44*
X108229Y103536D02*
D03*
X115300Y96464D02*
D03*
X145000Y100000D02*
D03*
X155000D02*
D03*
D45*
X204444Y43413D02*
D03*
Y48493D02*
D03*
X211556Y43413D02*
D03*
Y48493D02*
D03*
X204444Y33413D02*
D03*
Y38493D02*
D03*
X211556Y33413D02*
D03*
Y38493D02*
D03*
X204444Y79960D02*
D03*
Y85040D02*
D03*
X211556Y79960D02*
D03*
Y85040D02*
D03*
X204444Y69960D02*
D03*
Y75040D02*
D03*
X211556Y69960D02*
D03*
Y75040D02*
D03*
D46*
X205430Y194750D02*
D03*
X197140D02*
D03*
X122924Y194488D02*
D03*
X151499D02*
D03*
X143244D02*
D03*
X131179D02*
D03*
D47*
X202890Y194750D02*
D03*
X200350D02*
D03*
X194600D02*
D03*
X192060D02*
D03*
X120384Y194488D02*
D03*
X117844D02*
D03*
X148959D02*
D03*
X146419D02*
D03*
X138164D02*
D03*
X140704D02*
D03*
X126099D02*
D03*
X128639D02*
D03*
D48*
X154025Y6500D02*
D03*
X130500D02*
D03*
X164025D02*
D03*
X212575Y162300D02*
D03*
Y157300D02*
D03*
X209500Y124775D02*
D03*
X184500Y6500D02*
D03*
D49*
X149025D02*
D03*
X125500D02*
D03*
X159025D02*
D03*
X179500D02*
D03*
D50*
X207650Y94350D02*
D03*
Y101970D02*
D03*
X7025Y180495D02*
D03*
Y172875D02*
D03*
X7050Y135325D02*
D03*
Y127705D02*
D03*
X6900Y75375D02*
D03*
Y67755D02*
D03*
X6575Y30625D02*
D03*
Y23005D02*
D03*
D51*
X204770Y140525D02*
D03*
Y143065D02*
D03*
Y137985D02*
D03*
Y135445D02*
D03*
X182995Y194742D02*
D03*
X185535D02*
D03*
X180455D02*
D03*
X177915D02*
D03*
X188495Y135435D02*
D03*
Y137975D02*
D03*
Y143055D02*
D03*
Y140515D02*
D03*
X147562Y177089D02*
D03*
Y174549D02*
D03*
X128004Y177089D02*
D03*
Y174549D02*
D03*
D52*
X204770Y145605D02*
D03*
X188495Y145595D02*
D03*
D53*
X134160Y148539D02*
D03*
X156025Y33975D02*
D03*
D54*
X131239Y125171D02*
D03*
X137081Y125298D02*
D03*
D55*
X169625Y136140D02*
D03*
Y116201D02*
D03*
X136339Y64783D02*
D03*
D56*
X179266Y36896D02*
D03*
X179393Y31054D02*
D03*
D57*
X111680Y19775D02*
D03*
Y65375D02*
D03*
Y76375D02*
D03*
Y30775D02*
D03*
Y124625D02*
D03*
Y135525D02*
D03*
Y170825D02*
D03*
Y182225D02*
D03*
X157120Y147850D02*
D03*
X159754Y194488D02*
D03*
X157120Y155873D02*
D03*
D58*
X82570Y19775D02*
D03*
Y65375D02*
D03*
Y76375D02*
D03*
Y30775D02*
D03*
Y124625D02*
D03*
Y135525D02*
D03*
Y170825D02*
D03*
Y182225D02*
D03*
X159660Y147850D02*
D03*
X162200D02*
D03*
X164740D02*
D03*
X167280D02*
D03*
X169820Y147850D02*
D03*
X172454Y194488D02*
D03*
X169914D02*
D03*
X167374D02*
D03*
X164834D02*
D03*
X162294D02*
D03*
X164740Y155873D02*
D03*
X162200D02*
D03*
X159660D02*
D03*
X213775Y178490D02*
D03*
Y175950D02*
D03*
Y173410D02*
D03*
Y170870D02*
D03*
Y168330D02*
D03*
D59*
X50749Y114831D02*
D03*
Y117371D02*
D03*
Y119911D02*
D03*
X38101Y120419D02*
D03*
Y117879D02*
D03*
Y115339D02*
D03*
X37601Y147919D02*
D03*
Y145379D02*
D03*
Y142839D02*
D03*
X50249Y142131D02*
D03*
Y144671D02*
D03*
Y147211D02*
D03*
X51249Y9831D02*
D03*
Y12371D02*
D03*
Y14911D02*
D03*
X38401Y10339D02*
D03*
Y12879D02*
D03*
Y15419D02*
D03*
X38318Y37839D02*
D03*
Y40379D02*
D03*
Y42919D02*
D03*
X50966Y37331D02*
D03*
Y39871D02*
D03*
Y42411D02*
D03*
X37901Y160339D02*
D03*
Y162879D02*
D03*
Y165419D02*
D03*
X37801Y55339D02*
D03*
Y57879D02*
D03*
Y60419D02*
D03*
X50549Y164911D02*
D03*
Y162371D02*
D03*
Y159831D02*
D03*
X50449Y54831D02*
D03*
Y57371D02*
D03*
Y59911D02*
D03*
X37801Y187839D02*
D03*
Y190379D02*
D03*
Y192919D02*
D03*
X37701Y82839D02*
D03*
Y85379D02*
D03*
Y87919D02*
D03*
X50449Y192411D02*
D03*
Y189871D02*
D03*
Y187331D02*
D03*
X50349Y87411D02*
D03*
Y84871D02*
D03*
Y82331D02*
D03*
D60*
X70942Y117371D02*
D03*
X17908Y117879D02*
D03*
X17408Y145379D02*
D03*
X70442Y144671D02*
D03*
X71442Y12371D02*
D03*
X18208Y12879D02*
D03*
X18125Y40379D02*
D03*
X71159Y39871D02*
D03*
X17708Y162879D02*
D03*
X17608Y57879D02*
D03*
X70742Y162371D02*
D03*
X70642Y57371D02*
D03*
X17608Y190379D02*
D03*
X17508Y85379D02*
D03*
X70642Y189871D02*
D03*
X70542Y84871D02*
D03*
D61*
X141800Y67450D02*
D03*
Y64910D02*
D03*
Y62370D02*
D03*
D62*
X179185Y176200D02*
D03*
Y171628D02*
D03*
X171565D02*
D03*
Y176200D02*
D03*
X161532D02*
D03*
Y171628D02*
D03*
X153912D02*
D03*
Y176200D02*
D03*
X196838D02*
D03*
Y171628D02*
D03*
X189218D02*
D03*
Y176200D02*
D03*
D63*
X142355Y187630D02*
D03*
X139815D02*
D03*
X122035D02*
D03*
X119495D02*
D03*
X152388D02*
D03*
X149848D02*
D03*
X132068D02*
D03*
X129528D02*
D03*
D64*
X137275D02*
D03*
X116955D02*
D03*
X147308D02*
D03*
X126988D02*
D03*
D65*
X188075Y194742D02*
D03*
D66*
X213775Y181030D02*
D03*
D67*
X212575Y152300D02*
D03*
X209500Y119775D02*
D03*
D68*
X162900Y63550D02*
D03*
X177168Y92450D02*
D03*
D69*
X182100Y122487D02*
D03*
X176658Y120250D02*
D03*
X171875Y108650D02*
D03*
X178099Y124246D02*
D03*
X183025Y120250D02*
D03*
X185200Y118890D02*
D03*
X173123Y118250D02*
D03*
X180675Y120875D02*
D03*
X174675Y116200D02*
D03*
X173661Y112412D02*
D03*
X185200Y119800D02*
D03*
X173500Y110200D02*
D03*
X182100Y123550D02*
D03*
X179550Y121075D02*
D03*
X176277Y121417D02*
D03*
X171475Y109325D02*
D03*
X132085Y80700D02*
D03*
X170800Y165375D02*
D03*
X157504Y108757D02*
D03*
X144075Y129000D02*
D03*
Y129850D02*
D03*
X185443Y133375D02*
D03*
X175325Y116875D02*
D03*
X183875Y139209D02*
D03*
X175726Y109837D02*
D03*
X159100Y122675D02*
D03*
X192475Y165250D02*
D03*
X173900Y168425D02*
D03*
X182995Y188755D02*
D03*
X177997Y134676D02*
D03*
X180925Y141050D02*
D03*
X105300Y52850D02*
D03*
X105796Y81025D02*
D03*
X104800Y141550D02*
D03*
X105525Y157000D02*
D03*
X105700Y186825D02*
D03*
X105750Y79350D02*
D03*
X101282Y159030D02*
D03*
X160400Y117575D02*
D03*
X132961Y167767D02*
D03*
X135421Y177419D02*
D03*
X126912Y181229D02*
D03*
X131875Y181200D02*
D03*
X180375Y188632D02*
D03*
X175525Y167100D02*
D03*
X176750D02*
D03*
X178042D02*
D03*
X171500D02*
D03*
X172975Y146077D02*
D03*
X177979Y146104D02*
D03*
X174225Y146075D02*
D03*
X175475Y146100D02*
D03*
X138516Y175320D02*
D03*
X179175Y146100D02*
D03*
X174350Y167100D02*
D03*
X187252Y166100D02*
D03*
X179175Y168425D02*
D03*
X204954Y185522D02*
D03*
X202273Y176093D02*
D03*
X206625Y172800D02*
D03*
X204795Y176570D02*
D03*
X182401Y131761D02*
D03*
X201930Y165297D02*
D03*
X180925Y165375D02*
D03*
X204795Y162173D02*
D03*
X176725Y146100D02*
D03*
X191325Y168450D02*
D03*
X194625Y178250D02*
D03*
X151725Y127950D02*
D03*
X202063Y182151D02*
D03*
X162850Y122975D02*
D03*
X102425Y84550D02*
D03*
X102450Y8799D02*
D03*
X102425Y38725D02*
D03*
X101983Y145075D02*
D03*
X94200Y26875D02*
D03*
X94225Y71975D02*
D03*
X94758Y176975D02*
D03*
X94750Y131050D02*
D03*
X89725Y89602D02*
D03*
X96100Y34750D02*
D03*
X103325Y138850D02*
D03*
X106750Y184850D02*
D03*
X105350Y5175D02*
D03*
X185535Y188877D02*
D03*
X82350Y194975D02*
D03*
X82275Y165475D02*
D03*
X82175Y157475D02*
D03*
X91775Y160300D02*
D03*
X82275Y11368D02*
D03*
X91875Y8799D02*
D03*
X82123Y53125D02*
D03*
X82356Y43668D02*
D03*
X82074Y5675D02*
D03*
X91700Y55950D02*
D03*
X82174Y37283D02*
D03*
X82250Y111467D02*
D03*
X82323Y117005D02*
D03*
X91950Y114200D02*
D03*
X91900Y84475D02*
D03*
X82286Y58843D02*
D03*
X82275Y148276D02*
D03*
X82125Y142375D02*
D03*
X91994Y145075D02*
D03*
X91975Y190210D02*
D03*
X82106Y188327D02*
D03*
X91740Y38721D02*
D03*
X82323Y88122D02*
D03*
X82174Y82033D02*
D03*
X172700Y137950D02*
D03*
X182100Y127250D02*
D03*
X157800Y166600D02*
D03*
X145675Y166175D02*
D03*
X206950Y175275D02*
D03*
X215600Y165900D02*
D03*
X192925Y167400D02*
D03*
X165287Y134946D02*
D03*
X125897Y171309D02*
D03*
X109125Y158550D02*
D03*
X160545Y127075D02*
D03*
X159453Y117950D02*
D03*
X109175Y147000D02*
D03*
X108054Y54386D02*
D03*
X102175Y114219D02*
D03*
X137875Y74125D02*
D03*
X101282Y112949D02*
D03*
X107982Y118390D02*
D03*
X88217Y20300D02*
D03*
X101168Y143805D02*
D03*
X95775Y175425D02*
D03*
X102825Y190226D02*
D03*
X90129Y67575D02*
D03*
X105950Y184025D02*
D03*
X110500Y188932D02*
D03*
X109200Y36775D02*
D03*
X136375Y80700D02*
D03*
X104257Y81221D02*
D03*
X134925Y194488D02*
D03*
X156986Y107925D02*
D03*
X109700Y115489D02*
D03*
X154525Y58675D02*
D03*
X89900Y172771D02*
D03*
X101282Y37451D02*
D03*
X134825Y80650D02*
D03*
X190950Y111950D02*
D03*
X190109Y111080D02*
D03*
X130050Y79000D02*
D03*
X184599Y114901D02*
D03*
X137175Y79800D02*
D03*
X183025Y121141D02*
D03*
X207100Y174000D02*
D03*
X109103Y6775D02*
D03*
X158736Y113739D02*
D03*
X132950Y80750D02*
D03*
X187450Y102818D02*
D03*
X101282Y188956D02*
D03*
X122775Y75500D02*
D03*
X121875D02*
D03*
X125375Y77800D02*
D03*
X101282Y7529D02*
D03*
X90084Y126835D02*
D03*
X105750Y78225D02*
D03*
X103175Y137700D02*
D03*
X95375Y71963D02*
D03*
X95275Y26825D02*
D03*
X101282Y83196D02*
D03*
X181715Y102189D02*
D03*
X96100Y33679D02*
D03*
X101282Y54720D02*
D03*
X109125Y82605D02*
D03*
X135575Y79800D02*
D03*
X107100Y35394D02*
D03*
X129125Y78325D02*
D03*
X124500Y77075D02*
D03*
X161500Y130800D02*
D03*
X179800Y126675D02*
D03*
X170600Y109325D02*
D03*
X174375Y110225D02*
D03*
X164615Y133820D02*
D03*
X175843Y108183D02*
D03*
X162500Y129295D02*
D03*
X165247Y133111D02*
D03*
X178784Y114641D02*
D03*
X183761Y136476D02*
D03*
X172975Y112000D02*
D03*
X162850Y124109D02*
D03*
X166000Y146825D02*
D03*
X179525Y115125D02*
D03*
X179015Y124246D02*
D03*
X159453Y114577D02*
D03*
X160825Y126150D02*
D03*
X151725Y126825D02*
D03*
X176125Y119474D02*
D03*
X154525Y57688D02*
D03*
X177108Y121417D02*
D03*
X102749Y160367D02*
D03*
X145324Y171584D02*
D03*
X153950Y115050D02*
D03*
X154876Y114838D02*
D03*
X123400Y54550D02*
D03*
X174900Y109525D02*
D03*
X181178Y126675D02*
D03*
X212750Y172125D02*
D03*
X102446Y55990D02*
D03*
X122300Y54550D02*
D03*
X154525Y56799D02*
D03*
X189375Y141775D02*
D03*
X124550Y54550D02*
D03*
X138750Y74125D02*
D03*
X173123Y117500D02*
D03*
X134100Y81525D02*
D03*
X158876Y121783D02*
D03*
D70*
X107425Y96975D02*
D03*
Y95325D02*
D03*
X105850Y96975D02*
D03*
Y95325D02*
D03*
X104225Y96975D02*
D03*
Y95325D02*
D03*
X102600D02*
D03*
Y96975D02*
D03*
X119475Y95675D02*
D03*
Y94025D02*
D03*
Y92375D02*
D03*
Y90700D02*
D03*
X121100D02*
D03*
Y92375D02*
D03*
Y94025D02*
D03*
Y95675D02*
D03*
X122725Y90700D02*
D03*
Y92375D02*
D03*
Y94025D02*
D03*
Y95675D02*
D03*
X124300Y90700D02*
D03*
Y92375D02*
D03*
Y94025D02*
D03*
Y95675D02*
D03*
X98725Y106000D02*
D03*
Y104350D02*
D03*
Y102700D02*
D03*
Y101025D02*
D03*
X100350D02*
D03*
Y102700D02*
D03*
Y104350D02*
D03*
Y106000D02*
D03*
X101975Y101025D02*
D03*
Y102700D02*
D03*
Y104350D02*
D03*
Y106000D02*
D03*
X103550Y101025D02*
D03*
Y102700D02*
D03*
Y104350D02*
D03*
Y106000D02*
D03*
X40750Y129482D02*
D03*
Y127807D02*
D03*
X39125Y132782D02*
D03*
Y131132D02*
D03*
Y129482D02*
D03*
Y127807D02*
D03*
X37500D02*
D03*
Y129482D02*
D03*
Y131132D02*
D03*
Y132782D02*
D03*
X42325Y73457D02*
D03*
Y71807D02*
D03*
Y70157D02*
D03*
Y68482D02*
D03*
X40750Y73457D02*
D03*
Y71807D02*
D03*
Y70157D02*
D03*
Y68482D02*
D03*
X39125Y73457D02*
D03*
Y71807D02*
D03*
Y70157D02*
D03*
Y68482D02*
D03*
X37500D02*
D03*
Y70157D02*
D03*
Y71807D02*
D03*
Y73457D02*
D03*
X43125Y28057D02*
D03*
Y26407D02*
D03*
Y24757D02*
D03*
Y23082D02*
D03*
X41550Y28057D02*
D03*
Y26407D02*
D03*
Y24757D02*
D03*
Y23082D02*
D03*
X39925Y28057D02*
D03*
Y26407D02*
D03*
Y24757D02*
D03*
Y23082D02*
D03*
X38300D02*
D03*
Y24757D02*
D03*
Y26407D02*
D03*
Y28057D02*
D03*
X37875Y179500D02*
D03*
Y177850D02*
D03*
Y176200D02*
D03*
Y174525D02*
D03*
X39500D02*
D03*
Y176200D02*
D03*
Y177850D02*
D03*
Y179500D02*
D03*
X41125Y174525D02*
D03*
Y176200D02*
D03*
Y177850D02*
D03*
Y179500D02*
D03*
X42700Y174525D02*
D03*
Y176200D02*
D03*
Y177850D02*
D03*
Y179500D02*
D03*
X42325Y132782D02*
D03*
Y131132D02*
D03*
Y129482D02*
D03*
Y127807D02*
D03*
X40750Y132782D02*
D03*
Y131132D02*
D03*
%TF.MD5,a19e988c1109314d24e567322ceaa661*%
M02*
