%TF.GenerationSoftware,Altium Limited,Altium Designer,21.6.4 (81)*%
G04 Layer_Color=255*
%FSLAX43Y43*%
%MOMM*%
%TF.SameCoordinates,A962B9D3-E780-4B03-8A10-E236CC36F35F*%
%TF.FilePolarity,Positive*%
%TF.FileFunction,Pads,Bot*%
%TF.Part,Single*%
G01*
G75*
%TA.AperFunction,SMDPad,CuDef*%
%ADD12R,1.157X1.508*%
%ADD16R,1.508X1.157*%
%TA.AperFunction,ComponentPad*%
%ADD40C,2.286*%
%ADD41C,2.000*%
%ADD42O,5.080X8.890*%
%ADD43C,1.524*%
%ADD44C,6.350*%
%ADD45O,3.556X3.810*%
%ADD46R,1.500X1.500*%
%ADD47C,1.500*%
%ADD48C,1.950*%
G04:AMPARAMS|DCode=49|XSize=1.95mm|YSize=1.95mm|CornerRadius=0.488mm|HoleSize=0mm|Usage=FLASHONLY|Rotation=0.000|XOffset=0mm|YOffset=0mm|HoleType=Round|Shape=RoundedRectangle|*
%AMROUNDEDRECTD49*
21,1,1.950,0.975,0,0,0.0*
21,1,0.975,1.950,0,0,0.0*
1,1,0.975,0.488,-0.488*
1,1,0.975,-0.488,-0.488*
1,1,0.975,-0.488,0.488*
1,1,0.975,0.488,0.488*
%
%ADD49ROUNDEDRECTD49*%
%ADD50O,5.334X4.318*%
%ADD51C,1.600*%
G04:AMPARAMS|DCode=52|XSize=1.6mm|YSize=1.6mm|CornerRadius=0.4mm|HoleSize=0mm|Usage=FLASHONLY|Rotation=270.000|XOffset=0mm|YOffset=0mm|HoleType=Round|Shape=RoundedRectangle|*
%AMROUNDEDRECTD52*
21,1,1.600,0.800,0,0,270.0*
21,1,0.800,1.600,0,0,270.0*
1,1,0.800,-0.400,-0.400*
1,1,0.800,-0.400,0.400*
1,1,0.800,0.400,0.400*
1,1,0.800,0.400,-0.400*
%
%ADD52ROUNDEDRECTD52*%
%ADD53C,6.604*%
%ADD54O,4.826X6.350*%
%ADD55C,3.048*%
%ADD56O,6.350X4.826*%
%ADD57R,1.550X1.550*%
%ADD58C,1.550*%
%ADD59O,2.286X1.778*%
%ADD60C,4.572*%
%ADD62R,2.286X2.286*%
%ADD63C,1.200*%
%ADD64R,1.200X1.200*%
G04:AMPARAMS|DCode=65|XSize=1.6mm|YSize=1.6mm|CornerRadius=0.4mm|HoleSize=0mm|Usage=FLASHONLY|Rotation=180.000|XOffset=0mm|YOffset=0mm|HoleType=Round|Shape=RoundedRectangle|*
%AMROUNDEDRECTD65*
21,1,1.600,0.800,0,0,180.0*
21,1,0.800,1.600,0,0,180.0*
1,1,0.800,-0.400,0.400*
1,1,0.800,0.400,0.400*
1,1,0.800,0.400,-0.400*
1,1,0.800,-0.400,-0.400*
%
%ADD65ROUNDEDRECTD65*%
%ADD66R,1.550X1.550*%
G04:AMPARAMS|DCode=67|XSize=1.95mm|YSize=1.95mm|CornerRadius=0.488mm|HoleSize=0mm|Usage=FLASHONLY|Rotation=90.000|XOffset=0mm|YOffset=0mm|HoleType=Round|Shape=RoundedRectangle|*
%AMROUNDEDRECTD67*
21,1,1.950,0.975,0,0,90.0*
21,1,0.975,1.950,0,0,90.0*
1,1,0.975,0.488,0.488*
1,1,0.975,0.488,-0.488*
1,1,0.975,-0.488,-0.488*
1,1,0.975,-0.488,0.488*
%
%ADD67ROUNDEDRECTD67*%
%TA.AperFunction,SMDPad,CuDef*%
%ADD71R,1.450X1.800*%
%ADD72R,2.400X3.300*%
G04:AMPARAMS|DCode=73|XSize=3.15mm|YSize=1.45mm|CornerRadius=0.051mm|HoleSize=0mm|Usage=FLASHONLY|Rotation=0.000|XOffset=0mm|YOffset=0mm|HoleType=Round|Shape=RoundedRectangle|*
%AMROUNDEDRECTD73*
21,1,3.150,1.349,0,0,0.0*
21,1,3.049,1.450,0,0,0.0*
1,1,0.102,1.524,-0.674*
1,1,0.102,-1.524,-0.674*
1,1,0.102,-1.524,0.674*
1,1,0.102,1.524,0.674*
%
%ADD73ROUNDEDRECTD73*%
G04:AMPARAMS|DCode=74|XSize=0.9mm|YSize=1.45mm|CornerRadius=0.05mm|HoleSize=0mm|Usage=FLASHONLY|Rotation=0.000|XOffset=0mm|YOffset=0mm|HoleType=Round|Shape=RoundedRectangle|*
%AMROUNDEDRECTD74*
21,1,0.900,1.351,0,0,0.0*
21,1,0.801,1.450,0,0,0.0*
1,1,0.099,0.401,-0.676*
1,1,0.099,-0.401,-0.676*
1,1,0.099,-0.401,0.676*
1,1,0.099,0.401,0.676*
%
%ADD74ROUNDEDRECTD74*%
%ADD75R,1.300X1.800*%
%ADD76R,1.800X1.300*%
%ADD77R,0.950X1.350*%
%ADD78R,1.350X0.950*%
%ADD79R,1.250X2.000*%
%ADD80R,1.508X1.207*%
%ADD81R,0.650X1.525*%
%ADD82R,0.500X1.000*%
%ADD83R,1.207X1.508*%
G04:AMPARAMS|DCode=84|XSize=1.194mm|YSize=0.305mm|CornerRadius=0mm|HoleSize=0mm|Usage=FLASHONLY|Rotation=315.000|XOffset=0mm|YOffset=0mm|HoleType=Round|Shape=Rectangle|*
%AMROTATEDRECTD84*
4,1,4,-0.530,0.314,-0.314,0.530,0.530,-0.314,0.314,-0.530,-0.530,0.314,0.0*
%
%ADD84ROTATEDRECTD84*%

G04:AMPARAMS|DCode=85|XSize=1.194mm|YSize=0.305mm|CornerRadius=0mm|HoleSize=0mm|Usage=FLASHONLY|Rotation=45.000|XOffset=0mm|YOffset=0mm|HoleType=Round|Shape=Rectangle|*
%AMROTATEDRECTD85*
4,1,4,-0.314,-0.530,-0.530,-0.314,0.314,0.530,0.530,0.314,-0.314,-0.530,0.0*
%
%ADD85ROTATEDRECTD85*%

G04:AMPARAMS|DCode=86|XSize=1.207mm|YSize=1.508mm|CornerRadius=0mm|HoleSize=0mm|Usage=FLASHONLY|Rotation=45.000|XOffset=0mm|YOffset=0mm|HoleType=Round|Shape=Rectangle|*
%AMROTATEDRECTD86*
4,1,4,0.107,-0.960,-0.960,0.107,-0.107,0.960,0.960,-0.107,0.107,-0.960,0.0*
%
%ADD86ROTATEDRECTD86*%

G04:AMPARAMS|DCode=87|XSize=2.45mm|YSize=2.35mm|CornerRadius=0mm|HoleSize=0mm|Usage=FLASHONLY|Rotation=315.000|XOffset=0mm|YOffset=0mm|HoleType=Round|Shape=Rectangle|*
%AMROTATEDRECTD87*
4,1,4,-1.697,0.035,-0.035,1.697,1.697,-0.035,0.035,-1.697,-1.697,0.035,0.0*
%
%ADD87ROTATEDRECTD87*%

G04:AMPARAMS|DCode=88|XSize=0.95mm|YSize=1.35mm|CornerRadius=0mm|HoleSize=0mm|Usage=FLASHONLY|Rotation=45.000|XOffset=0mm|YOffset=0mm|HoleType=Round|Shape=Rectangle|*
%AMROTATEDRECTD88*
4,1,4,0.141,-0.813,-0.813,0.141,-0.141,0.813,0.813,-0.141,0.141,-0.813,0.0*
%
%ADD88ROTATEDRECTD88*%

%ADD89P,0.849X4X90.0*%
G04:AMPARAMS|DCode=90|XSize=0.95mm|YSize=1.35mm|CornerRadius=0mm|HoleSize=0mm|Usage=FLASHONLY|Rotation=135.000|XOffset=0mm|YOffset=0mm|HoleType=Round|Shape=Rectangle|*
%AMROTATEDRECTD90*
4,1,4,0.813,0.141,-0.141,-0.813,-0.813,-0.141,0.141,0.813,0.813,0.141,0.0*
%
%ADD90ROTATEDRECTD90*%

%ADD91R,1.408X1.007*%
%ADD92R,0.900X0.650*%
%ADD93R,1.308X0.757*%
%ADD94R,0.757X1.308*%
%ADD95R,1.007X1.408*%
%ADD96R,2.270X0.558*%
%ADD97R,0.808X1.262*%
%ADD98R,0.900X1.200*%
%ADD99R,2.500X1.700*%
G04:AMPARAMS|DCode=100|XSize=1.25mm|YSize=2mm|CornerRadius=0mm|HoleSize=0mm|Usage=FLASHONLY|Rotation=225.000|XOffset=0mm|YOffset=0mm|HoleType=Round|Shape=Rectangle|*
%AMROTATEDRECTD100*
4,1,4,-0.265,1.149,1.149,-0.265,0.265,-1.149,-1.149,0.265,-0.265,1.149,0.0*
%
%ADD100ROTATEDRECTD100*%

G04:AMPARAMS|DCode=101|XSize=1.207mm|YSize=1.508mm|CornerRadius=0mm|HoleSize=0mm|Usage=FLASHONLY|Rotation=315.000|XOffset=0mm|YOffset=0mm|HoleType=Round|Shape=Rectangle|*
%AMROTATEDRECTD101*
4,1,4,-0.960,-0.107,0.107,0.960,0.960,0.107,-0.107,-0.960,-0.960,-0.107,0.0*
%
%ADD101ROTATEDRECTD101*%

G04:AMPARAMS|DCode=102|XSize=0.8mm|YSize=1.6mm|CornerRadius=0.2mm|HoleSize=0mm|Usage=FLASHONLY|Rotation=0.000|XOffset=0mm|YOffset=0mm|HoleType=Round|Shape=RoundedRectangle|*
%AMROUNDEDRECTD102*
21,1,0.800,1.200,0,0,0.0*
21,1,0.400,1.600,0,0,0.0*
1,1,0.400,0.200,-0.600*
1,1,0.400,-0.200,-0.600*
1,1,0.400,-0.200,0.600*
1,1,0.400,0.200,0.600*
%
%ADD102ROUNDEDRECTD102*%
G04:AMPARAMS|DCode=103|XSize=0.6mm|YSize=1.6mm|CornerRadius=0.15mm|HoleSize=0mm|Usage=FLASHONLY|Rotation=0.000|XOffset=0mm|YOffset=0mm|HoleType=Round|Shape=RoundedRectangle|*
%AMROUNDEDRECTD103*
21,1,0.600,1.300,0,0,0.0*
21,1,0.300,1.600,0,0,0.0*
1,1,0.300,0.150,-0.650*
1,1,0.300,-0.150,-0.650*
1,1,0.300,-0.150,0.650*
1,1,0.300,0.150,0.650*
%
%ADD103ROUNDEDRECTD103*%
%ADD104R,1.556X1.505*%
%ADD105R,2.800X2.000*%
%TA.AperFunction,ComponentPad*%
%ADD121O,2.540X2.032*%
D12*
X88653Y172850D02*
D03*
X86501D02*
D03*
X86207Y67575D02*
D03*
X88359D02*
D03*
X189426Y168425D02*
D03*
X187274D02*
D03*
X86123Y126835D02*
D03*
X88274D02*
D03*
X86099Y22225D02*
D03*
X88251D02*
D03*
D16*
X209313Y160021D02*
D03*
Y162173D02*
D03*
X182995Y190052D02*
D03*
Y192204D02*
D03*
X185535Y192326D02*
D03*
Y190174D02*
D03*
D40*
X123450Y119550D02*
D03*
X109125Y84425D02*
D03*
Y117150D02*
D03*
X86122Y87054D02*
D03*
X77775Y86774D02*
D03*
X86000Y112231D02*
D03*
X91500Y117827D02*
D03*
X86012Y116150D02*
D03*
X177550Y104150D02*
D03*
X109125Y56025D02*
D03*
X45125Y71175D02*
D03*
Y130025D02*
D03*
X86100Y189213D02*
D03*
X86000Y6885D02*
D03*
X45125Y176600D02*
D03*
X86125Y158996D02*
D03*
X86275Y10968D02*
D03*
X86175Y143675D02*
D03*
X86101Y83176D02*
D03*
X86000Y38091D02*
D03*
X108875Y145225D02*
D03*
X45375Y25700D02*
D03*
X86012Y147516D02*
D03*
X79550Y168150D02*
D03*
X79582Y62525D02*
D03*
X86025Y53996D02*
D03*
X45125Y161355D02*
D03*
Y56636D02*
D03*
X108940Y160400D02*
D03*
X86000Y163965D02*
D03*
X86012Y58015D02*
D03*
X92100Y164250D02*
D03*
X91700Y59127D02*
D03*
X109125Y190075D02*
D03*
X86100Y193606D02*
D03*
X92250Y195375D02*
D03*
X79450Y121800D02*
D03*
X79325Y17150D02*
D03*
X45125Y116330D02*
D03*
X44881Y11355D02*
D03*
X109125Y8625D02*
D03*
X91600Y12900D02*
D03*
X109125Y38526D02*
D03*
X86000Y42190D02*
D03*
X91627Y149949D02*
D03*
X90825Y45375D02*
D03*
X139815Y183439D02*
D03*
X119495D02*
D03*
X149848D02*
D03*
X129528D02*
D03*
X143803Y172392D02*
D03*
X124249Y172344D02*
D03*
X144895Y183439D02*
D03*
X133973D02*
D03*
X206180Y188920D02*
D03*
X175244Y196825D02*
D03*
X185925Y121950D02*
D03*
X176025Y95875D02*
D03*
D41*
X171950Y67000D02*
D03*
Y55000D02*
D03*
X130500Y22125D02*
D03*
X125500D02*
D03*
X130500Y35650D02*
D03*
X125500D02*
D03*
D42*
X172289Y75093D02*
D03*
X172416Y84999D02*
D03*
D43*
X193879Y78268D02*
D03*
Y80173D02*
D03*
Y82078D02*
D03*
X179250Y57175D02*
D03*
Y54675D02*
D03*
D44*
X108229Y103536D02*
D03*
X115300Y96464D02*
D03*
X145000Y100000D02*
D03*
X155000D02*
D03*
D45*
X204444Y43413D02*
D03*
Y48493D02*
D03*
X211556Y43413D02*
D03*
Y48493D02*
D03*
X204444Y33413D02*
D03*
Y38493D02*
D03*
X211556Y33413D02*
D03*
Y38493D02*
D03*
X204444Y79960D02*
D03*
Y85040D02*
D03*
X211556Y79960D02*
D03*
Y85040D02*
D03*
X204444Y69960D02*
D03*
Y75040D02*
D03*
X211556Y69960D02*
D03*
Y75040D02*
D03*
D46*
X205430Y194750D02*
D03*
X197140D02*
D03*
X122924Y194488D02*
D03*
X151499D02*
D03*
X143244D02*
D03*
X131179D02*
D03*
D47*
X202890Y194750D02*
D03*
X200350D02*
D03*
X194600D02*
D03*
X192060D02*
D03*
X120384Y194488D02*
D03*
X117844D02*
D03*
X148959D02*
D03*
X146419D02*
D03*
X138164D02*
D03*
X140704D02*
D03*
X126099D02*
D03*
X128639D02*
D03*
D48*
X154025Y6500D02*
D03*
X130500D02*
D03*
X164025D02*
D03*
X212575Y162300D02*
D03*
Y157300D02*
D03*
X209500Y124775D02*
D03*
X184500Y6500D02*
D03*
D49*
X149025D02*
D03*
X125500D02*
D03*
X159025D02*
D03*
X179500D02*
D03*
D50*
X207650Y94350D02*
D03*
Y101970D02*
D03*
X7025Y180495D02*
D03*
Y172875D02*
D03*
X7050Y135325D02*
D03*
Y127705D02*
D03*
X6900Y75375D02*
D03*
Y67755D02*
D03*
X6575Y30625D02*
D03*
Y23005D02*
D03*
D51*
X204770Y140525D02*
D03*
Y143065D02*
D03*
Y137985D02*
D03*
Y135445D02*
D03*
X182995Y194742D02*
D03*
X185535D02*
D03*
X180455D02*
D03*
X177915D02*
D03*
X188495Y135435D02*
D03*
Y137975D02*
D03*
Y143055D02*
D03*
Y140515D02*
D03*
X147562Y177089D02*
D03*
Y174549D02*
D03*
X128004Y177089D02*
D03*
Y174549D02*
D03*
D52*
X204770Y145605D02*
D03*
X188495Y145595D02*
D03*
D53*
X134160Y148539D02*
D03*
X156025Y33975D02*
D03*
D54*
X131239Y125171D02*
D03*
X137081Y125298D02*
D03*
D55*
X169625Y136140D02*
D03*
Y116201D02*
D03*
X136339Y64783D02*
D03*
D56*
X179266Y36896D02*
D03*
X179393Y31054D02*
D03*
D57*
X111680Y19775D02*
D03*
Y65375D02*
D03*
Y76375D02*
D03*
Y30775D02*
D03*
Y124625D02*
D03*
Y135525D02*
D03*
Y170825D02*
D03*
Y182225D02*
D03*
X157120Y147850D02*
D03*
X159754Y194488D02*
D03*
X157120Y155873D02*
D03*
D58*
X82570Y19775D02*
D03*
Y65375D02*
D03*
Y76375D02*
D03*
Y30775D02*
D03*
Y124625D02*
D03*
Y135525D02*
D03*
Y170825D02*
D03*
Y182225D02*
D03*
X159660Y147850D02*
D03*
X162200D02*
D03*
X164740D02*
D03*
X167280D02*
D03*
X169820Y147850D02*
D03*
X172454Y194488D02*
D03*
X169914D02*
D03*
X167374D02*
D03*
X164834D02*
D03*
X162294D02*
D03*
X164740Y155873D02*
D03*
X162200D02*
D03*
X159660D02*
D03*
X213775Y178490D02*
D03*
Y175950D02*
D03*
Y173410D02*
D03*
Y170870D02*
D03*
Y168330D02*
D03*
D59*
X50749Y114831D02*
D03*
Y117371D02*
D03*
Y119911D02*
D03*
X38101Y120419D02*
D03*
Y117879D02*
D03*
Y115339D02*
D03*
X37601Y147919D02*
D03*
Y145379D02*
D03*
Y142839D02*
D03*
X50249Y142131D02*
D03*
Y144671D02*
D03*
Y147211D02*
D03*
X51249Y9831D02*
D03*
Y12371D02*
D03*
Y14911D02*
D03*
X38401Y10339D02*
D03*
Y12879D02*
D03*
Y15419D02*
D03*
X38318Y37839D02*
D03*
Y40379D02*
D03*
Y42919D02*
D03*
X50966Y37331D02*
D03*
Y39871D02*
D03*
Y42411D02*
D03*
X37901Y160339D02*
D03*
Y162879D02*
D03*
Y165419D02*
D03*
X37801Y55339D02*
D03*
Y57879D02*
D03*
Y60419D02*
D03*
X50549Y164911D02*
D03*
Y162371D02*
D03*
Y159831D02*
D03*
X50449Y54831D02*
D03*
Y57371D02*
D03*
Y59911D02*
D03*
X37801Y187839D02*
D03*
Y190379D02*
D03*
Y192919D02*
D03*
X37701Y82839D02*
D03*
Y85379D02*
D03*
Y87919D02*
D03*
X50449Y192411D02*
D03*
Y189871D02*
D03*
Y187331D02*
D03*
X50349Y87411D02*
D03*
Y84871D02*
D03*
Y82331D02*
D03*
D60*
X70942Y117371D02*
D03*
X17908Y117879D02*
D03*
X17408Y145379D02*
D03*
X70442Y144671D02*
D03*
X71442Y12371D02*
D03*
X18208Y12879D02*
D03*
X18125Y40379D02*
D03*
X71159Y39871D02*
D03*
X17708Y162879D02*
D03*
X17608Y57879D02*
D03*
X70742Y162371D02*
D03*
X70642Y57371D02*
D03*
X17608Y190379D02*
D03*
X17508Y85379D02*
D03*
X70642Y189871D02*
D03*
X70542Y84871D02*
D03*
D62*
X179185Y176200D02*
D03*
Y171628D02*
D03*
X171565D02*
D03*
Y176200D02*
D03*
X161532D02*
D03*
Y171628D02*
D03*
X153912D02*
D03*
Y176200D02*
D03*
X196838D02*
D03*
Y171628D02*
D03*
X189218D02*
D03*
Y176200D02*
D03*
D63*
X142355Y187630D02*
D03*
X139815D02*
D03*
X122035D02*
D03*
X119495D02*
D03*
X152388D02*
D03*
X149848D02*
D03*
X132068D02*
D03*
X129528D02*
D03*
D64*
X137275D02*
D03*
X116955D02*
D03*
X147308D02*
D03*
X126988D02*
D03*
D65*
X188075Y194742D02*
D03*
D66*
X213775Y181030D02*
D03*
D67*
X212575Y152300D02*
D03*
X209500Y119775D02*
D03*
D71*
X167800Y73400D02*
D03*
Y66850D02*
D03*
X165350Y73400D02*
D03*
Y66850D02*
D03*
D72*
X49800Y170750D02*
D03*
X43150D02*
D03*
X49800Y65675D02*
D03*
X43150D02*
D03*
X33200Y65700D02*
D03*
X39850D02*
D03*
X57800Y182550D02*
D03*
X51150D02*
D03*
X33200Y170750D02*
D03*
X39850D02*
D03*
X33200Y30900D02*
D03*
X39850D02*
D03*
X33200Y20300D02*
D03*
X39850D02*
D03*
X33200Y135600D02*
D03*
X39850D02*
D03*
X33200Y125150D02*
D03*
X39850D02*
D03*
X57800Y75825D02*
D03*
X51150D02*
D03*
X57800Y4800D02*
D03*
X51150D02*
D03*
X57800Y109550D02*
D03*
X51150D02*
D03*
X57800Y137289D02*
D03*
X51150D02*
D03*
X57800Y31575D02*
D03*
X51150D02*
D03*
X57800Y48850D02*
D03*
X51150D02*
D03*
X57800Y153550D02*
D03*
X51150D02*
D03*
D73*
X181450Y98375D02*
D03*
D74*
X179150Y92225D02*
D03*
X181450D02*
D03*
X183750D02*
D03*
D75*
X104750Y193300D02*
D03*
X107600D02*
D03*
X104027Y163475D02*
D03*
X106877D02*
D03*
X103618Y117190D02*
D03*
X106468D02*
D03*
X104850Y87529D02*
D03*
X107700D02*
D03*
X104000Y59200D02*
D03*
X106850D02*
D03*
X105650Y12000D02*
D03*
X108500D02*
D03*
X107525Y41904D02*
D03*
X104675D02*
D03*
X107616Y148410D02*
D03*
X104766D02*
D03*
D76*
X97175Y168500D02*
D03*
Y165650D02*
D03*
X97125Y119398D02*
D03*
Y122248D02*
D03*
X97450Y198325D02*
D03*
Y195475D02*
D03*
X97200Y16950D02*
D03*
Y14100D02*
D03*
X17200Y73075D02*
D03*
Y75925D02*
D03*
X97175Y89875D02*
D03*
Y92725D02*
D03*
X17125Y28050D02*
D03*
Y30900D02*
D03*
X17150Y177950D02*
D03*
Y180800D02*
D03*
X17125Y132983D02*
D03*
Y135833D02*
D03*
X97125Y44090D02*
D03*
Y46940D02*
D03*
X97277Y150375D02*
D03*
Y153225D02*
D03*
X97125Y61375D02*
D03*
Y64225D02*
D03*
D77*
X86275Y69900D02*
D03*
X87775D02*
D03*
X86178Y129104D02*
D03*
X87678D02*
D03*
X190700Y114276D02*
D03*
X189200D02*
D03*
X173648Y104125D02*
D03*
X175148D02*
D03*
X91435Y134994D02*
D03*
X92935D02*
D03*
X92075Y181118D02*
D03*
X93575D02*
D03*
X91479Y75897D02*
D03*
X92979D02*
D03*
X91062Y30956D02*
D03*
X92562D02*
D03*
X138330Y179959D02*
D03*
X136830D02*
D03*
X138330Y177546D02*
D03*
X136830D02*
D03*
X88007Y175110D02*
D03*
X86507D02*
D03*
X87567Y24500D02*
D03*
X86067D02*
D03*
D78*
X88479Y73675D02*
D03*
Y72175D02*
D03*
X199207Y167092D02*
D03*
Y168592D02*
D03*
X196150Y78350D02*
D03*
Y79850D02*
D03*
X88259Y131400D02*
D03*
Y132900D02*
D03*
X88825Y177523D02*
D03*
Y179023D02*
D03*
X88199Y27025D02*
D03*
Y28525D02*
D03*
D79*
X86000Y80400D02*
D03*
X82250D02*
D03*
X86000Y3829D02*
D03*
X82250D02*
D03*
Y13100D02*
D03*
X86000D02*
D03*
X82250Y51446D02*
D03*
X86000D02*
D03*
X82250Y60844D02*
D03*
X86000D02*
D03*
Y45649D02*
D03*
X82250D02*
D03*
Y35489D02*
D03*
X86000D02*
D03*
Y155694D02*
D03*
X82250D02*
D03*
X86000Y167255D02*
D03*
X82250D02*
D03*
X82000Y186600D02*
D03*
X85750D02*
D03*
X86000Y196760D02*
D03*
X82250D02*
D03*
X86000Y89602D02*
D03*
X82250D02*
D03*
X86000Y109683D02*
D03*
X82250D02*
D03*
X86000Y118827D02*
D03*
X82250D02*
D03*
X86000Y140793D02*
D03*
X82250D02*
D03*
X86000Y150064D02*
D03*
X82250D02*
D03*
D80*
X103237Y143033D02*
D03*
Y145135D02*
D03*
X128055Y167733D02*
D03*
Y169834D02*
D03*
X106800Y53923D02*
D03*
Y56025D02*
D03*
X106855Y8580D02*
D03*
Y6478D02*
D03*
X107003Y160335D02*
D03*
Y158233D02*
D03*
X107175Y190126D02*
D03*
Y188024D02*
D03*
X107257Y84426D02*
D03*
Y82324D02*
D03*
X106900Y114254D02*
D03*
Y112152D02*
D03*
X106264Y145135D02*
D03*
Y143033D02*
D03*
X107100Y38598D02*
D03*
Y36497D02*
D03*
X104257Y82324D02*
D03*
Y84426D02*
D03*
X103793Y8580D02*
D03*
Y6478D02*
D03*
X103700Y56025D02*
D03*
Y53923D02*
D03*
X103975Y112152D02*
D03*
Y114254D02*
D03*
X166375Y170551D02*
D03*
Y168449D02*
D03*
X157650D02*
D03*
Y170551D02*
D03*
X184300Y168399D02*
D03*
Y170501D02*
D03*
X140755Y190212D02*
D03*
Y192313D02*
D03*
X120435Y190085D02*
D03*
Y192186D02*
D03*
X143803Y177073D02*
D03*
Y174972D02*
D03*
X124262Y174954D02*
D03*
Y177056D02*
D03*
X143676Y169834D02*
D03*
Y167733D02*
D03*
X124245D02*
D03*
Y169834D02*
D03*
X147613D02*
D03*
Y167733D02*
D03*
X149010Y190212D02*
D03*
Y192313D02*
D03*
X128690Y190119D02*
D03*
Y192221D02*
D03*
X104003Y160335D02*
D03*
Y158233D02*
D03*
X104175Y188024D02*
D03*
Y190126D02*
D03*
X197140Y190876D02*
D03*
Y188774D02*
D03*
X194600Y190876D02*
D03*
Y188774D02*
D03*
X104056Y36497D02*
D03*
Y38598D02*
D03*
D81*
X200985Y168814D02*
D03*
X202255D02*
D03*
X203525D02*
D03*
X204795D02*
D03*
Y174238D02*
D03*
X203525D02*
D03*
X202255D02*
D03*
X200985D02*
D03*
D82*
X206738Y162372D02*
D03*
Y159972D02*
D03*
X206788Y164797D02*
D03*
Y167197D02*
D03*
D83*
X199934Y178130D02*
D03*
X202036D02*
D03*
X202063Y183647D02*
D03*
X199962D02*
D03*
X210938Y167122D02*
D03*
X208837D02*
D03*
X202063Y180897D02*
D03*
X199962D02*
D03*
X204903Y183437D02*
D03*
X207005D02*
D03*
Y180897D02*
D03*
X204903D02*
D03*
X82074Y7385D02*
D03*
X84176D02*
D03*
X90176D02*
D03*
X88074D02*
D03*
X82074Y54621D02*
D03*
X84176D02*
D03*
X90176Y54748D02*
D03*
X88074D02*
D03*
X90176Y37022D02*
D03*
X88074D02*
D03*
X84176Y158996D02*
D03*
X82074D02*
D03*
X90176D02*
D03*
X88074D02*
D03*
X143076Y185674D02*
D03*
X140974D02*
D03*
X122756D02*
D03*
X120654D02*
D03*
X138758D02*
D03*
X136656D02*
D03*
X118438D02*
D03*
X116336D02*
D03*
X153109D02*
D03*
X151007D02*
D03*
X132788D02*
D03*
X130687D02*
D03*
X148790D02*
D03*
X146689D02*
D03*
X128471D02*
D03*
X126369D02*
D03*
X139958Y180086D02*
D03*
X142059D02*
D03*
X133354Y179832D02*
D03*
X135456D02*
D03*
X82072Y189581D02*
D03*
X84174D02*
D03*
X173274Y101550D02*
D03*
X175376D02*
D03*
X191226Y117000D02*
D03*
X189124D02*
D03*
X175371Y98800D02*
D03*
X173269D02*
D03*
X186701Y117000D02*
D03*
X184599D02*
D03*
X88074Y188956D02*
D03*
X90176D02*
D03*
X88074Y83090D02*
D03*
X90176D02*
D03*
X84176Y112985D02*
D03*
X82074D02*
D03*
X88074Y113112D02*
D03*
X90176D02*
D03*
X84176Y143968D02*
D03*
X82074D02*
D03*
X88074D02*
D03*
X90176D02*
D03*
D84*
X169234Y130434D02*
D03*
X168881Y130080D02*
D03*
X168527Y129727D02*
D03*
X168173Y129373D02*
D03*
X167820Y129020D02*
D03*
X167466Y128666D02*
D03*
X167113Y128313D02*
D03*
X166759Y127959D02*
D03*
X166406Y127605D02*
D03*
X166052Y127252D02*
D03*
X165699Y126898D02*
D03*
X165345Y126545D02*
D03*
X171355Y120534D02*
D03*
X171709Y120888D02*
D03*
X172063Y121242D02*
D03*
X172416Y121595D02*
D03*
X172770Y121949D02*
D03*
X173123Y122302D02*
D03*
X173477Y122656D02*
D03*
X173830Y123009D02*
D03*
X174184Y123363D02*
D03*
X174537Y123716D02*
D03*
X174891Y124070D02*
D03*
X175245Y124424D02*
D03*
D85*
X165345D02*
D03*
X165699Y124070D02*
D03*
X166052Y123716D02*
D03*
X166406Y123363D02*
D03*
X166759Y123009D02*
D03*
X167113Y122656D02*
D03*
X167466Y122302D02*
D03*
X167820Y121949D02*
D03*
X168173Y121595D02*
D03*
X168527Y121242D02*
D03*
X168881Y120888D02*
D03*
X169234Y120534D02*
D03*
X175245Y126545D02*
D03*
X174891Y126898D02*
D03*
X174537Y127252D02*
D03*
X174184Y127605D02*
D03*
X173830Y127959D02*
D03*
X173477Y128313D02*
D03*
X173123Y128666D02*
D03*
X172770Y129020D02*
D03*
X172416Y129373D02*
D03*
X172063Y129727D02*
D03*
X171709Y130080D02*
D03*
X171355Y130434D02*
D03*
D86*
X164418Y136742D02*
D03*
X162932Y135256D02*
D03*
D87*
X186965Y110531D02*
D03*
X182581Y106147D02*
D03*
D88*
X181575Y110095D02*
D03*
X182636Y111156D02*
D03*
D89*
X179804Y111371D02*
D03*
X181360Y112927D02*
D03*
D90*
X178781Y133635D02*
D03*
X179842Y132574D02*
D03*
D91*
X17125Y71050D02*
D03*
Y69148D02*
D03*
Y175956D02*
D03*
Y174055D02*
D03*
Y131010D02*
D03*
Y129108D02*
D03*
Y26088D02*
D03*
Y24187D02*
D03*
D92*
X93034Y130998D02*
D03*
Y132898D02*
D03*
X90634D02*
D03*
Y131948D02*
D03*
Y130998D02*
D03*
X93525Y177048D02*
D03*
Y178948D02*
D03*
X91125D02*
D03*
Y177998D02*
D03*
Y177048D02*
D03*
X93079Y71975D02*
D03*
Y73875D02*
D03*
X90679D02*
D03*
Y72925D02*
D03*
Y71975D02*
D03*
X92662Y26825D02*
D03*
Y28725D02*
D03*
X90262D02*
D03*
Y27775D02*
D03*
Y26825D02*
D03*
D93*
X86178Y131274D02*
D03*
Y133026D02*
D03*
X86625Y177397D02*
D03*
Y179148D02*
D03*
X86304Y72049D02*
D03*
Y73801D02*
D03*
X86125Y26899D02*
D03*
Y28651D02*
D03*
X180455Y190129D02*
D03*
Y191881D02*
D03*
D94*
X93061Y137145D02*
D03*
X91309D02*
D03*
X93701Y183218D02*
D03*
X91949D02*
D03*
X93155Y77947D02*
D03*
X91404D02*
D03*
X92688Y33025D02*
D03*
X90936D02*
D03*
X84451Y172929D02*
D03*
X82699D02*
D03*
X84326Y67475D02*
D03*
X82574D02*
D03*
X84399Y126915D02*
D03*
X82647D02*
D03*
X84376Y22111D02*
D03*
X82624D02*
D03*
D95*
X82174Y39045D02*
D03*
X84076D02*
D03*
X82174Y83244D02*
D03*
X84076D02*
D03*
D96*
X94611Y11339D02*
D03*
Y10069D02*
D03*
Y8799D02*
D03*
Y7529D02*
D03*
X99639D02*
D03*
Y8799D02*
D03*
Y10069D02*
D03*
Y11339D02*
D03*
X94611Y58530D02*
D03*
Y57260D02*
D03*
Y55990D02*
D03*
Y54720D02*
D03*
X99639D02*
D03*
Y55990D02*
D03*
Y57260D02*
D03*
Y58530D02*
D03*
Y116759D02*
D03*
Y115489D02*
D03*
Y114219D02*
D03*
Y112949D02*
D03*
X94611D02*
D03*
Y114219D02*
D03*
Y115489D02*
D03*
Y116759D02*
D03*
X99639Y162840D02*
D03*
Y161570D02*
D03*
Y160300D02*
D03*
Y159030D02*
D03*
X94611D02*
D03*
Y160300D02*
D03*
Y161570D02*
D03*
Y162840D02*
D03*
X99639Y192766D02*
D03*
Y191496D02*
D03*
Y190226D02*
D03*
Y188956D02*
D03*
X94611D02*
D03*
Y190226D02*
D03*
Y191496D02*
D03*
Y192766D02*
D03*
X99639Y87006D02*
D03*
Y85736D02*
D03*
Y84466D02*
D03*
Y83196D02*
D03*
X94611D02*
D03*
Y84466D02*
D03*
Y85736D02*
D03*
Y87006D02*
D03*
X99639Y147615D02*
D03*
Y146345D02*
D03*
Y145075D02*
D03*
Y143805D02*
D03*
X94611D02*
D03*
Y145075D02*
D03*
Y146345D02*
D03*
Y147615D02*
D03*
X99639Y41261D02*
D03*
Y39991D02*
D03*
Y38721D02*
D03*
Y37451D02*
D03*
X94611D02*
D03*
Y38721D02*
D03*
Y39991D02*
D03*
Y41261D02*
D03*
D97*
X82323Y9925D02*
D03*
X83927D02*
D03*
Y57161D02*
D03*
X82323D02*
D03*
X83927Y42093D02*
D03*
X82323D02*
D03*
X83927Y164207D02*
D03*
X82323D02*
D03*
X83927Y193331D02*
D03*
X82323D02*
D03*
X83927Y87047D02*
D03*
X82323D02*
D03*
X83927Y115525D02*
D03*
X82323D02*
D03*
X83927Y146635D02*
D03*
X82323D02*
D03*
D98*
X88075Y10560D02*
D03*
X90175D02*
D03*
X88075Y57415D02*
D03*
X90175D02*
D03*
Y164384D02*
D03*
X88075D02*
D03*
Y193331D02*
D03*
X90175D02*
D03*
Y87047D02*
D03*
X88075D02*
D03*
X90175Y115525D02*
D03*
X88075D02*
D03*
X90175Y42207D02*
D03*
X88075D02*
D03*
X90175Y147016D02*
D03*
X88075D02*
D03*
D99*
X103125Y15022D02*
D03*
X107125D02*
D03*
Y62340D02*
D03*
X103125D02*
D03*
X107125Y120823D02*
D03*
X103125D02*
D03*
Y166777D02*
D03*
X107125D02*
D03*
X103125Y196576D02*
D03*
X107125D02*
D03*
X103125Y90816D02*
D03*
X107125D02*
D03*
X103125Y151552D02*
D03*
X107125D02*
D03*
X103125Y45071D02*
D03*
X107125D02*
D03*
D100*
X168401Y140551D02*
D03*
X165749Y137899D02*
D03*
D101*
X181868Y134457D02*
D03*
X180382Y135943D02*
D03*
D102*
X136811Y169866D02*
D03*
X132761D02*
D03*
X136811Y175066D02*
D03*
X132761D02*
D03*
D103*
X135421Y169866D02*
D03*
X134151D02*
D03*
X135421Y175066D02*
D03*
X134151D02*
D03*
D104*
X166375Y175958D02*
D03*
Y174156D02*
D03*
X157725Y175958D02*
D03*
Y174156D02*
D03*
X184300Y175958D02*
D03*
Y174156D02*
D03*
D105*
X187450Y93500D02*
D03*
Y98000D02*
D03*
D121*
X141800Y67450D02*
D03*
Y64910D02*
D03*
Y62370D02*
D03*
%TF.MD5,bb9fd0564345bc234da088559979388b*%
M02*
