%TF.GenerationSoftware,Altium Limited,Altium Designer,21.6.4 (81)*%
G04 Layer_Color=8388736*
%FSLAX43Y43*%
%MOMM*%
%TF.SameCoordinates,A962B9D3-E780-4B03-8A10-E236CC36F35F*%
%TF.FilePolarity,Positive*%
%TF.FileFunction,Other,Top_Designator*%
%TF.Part,Single*%
G01*
G75*
%TA.AperFunction,NonConductor*%
%ADD142C,0.150*%
D142*
X150651Y7750D02*
X150151D01*
X150401D01*
Y6500D01*
X150151Y6250D01*
X149901D01*
X149651Y6500D01*
X151150Y6250D02*
X151650D01*
X151400D01*
Y7750D01*
X151150Y7500D01*
X153400Y7750D02*
X152400D01*
Y7000D01*
X152900Y7250D01*
X153150D01*
X153400Y7000D01*
Y6500D01*
X153150Y6250D01*
X152650D01*
X152400Y6500D01*
X127125Y7750D02*
X126625D01*
X126875D01*
Y6500D01*
X126625Y6250D01*
X126376D01*
X126126Y6500D01*
X127625Y6250D02*
X128125D01*
X127875D01*
Y7750D01*
X127625Y7500D01*
X128875D02*
X129125Y7750D01*
X129624D01*
X129874Y7500D01*
Y7250D01*
X129624Y7000D01*
X129375D01*
X129624D01*
X129874Y6750D01*
Y6500D01*
X129624Y6250D01*
X129125D01*
X128875Y6500D01*
X204020Y142399D02*
X205520D01*
Y141650D01*
X205270Y141400D01*
X204770D01*
X204520Y141650D01*
Y142399D01*
X204020Y140900D02*
Y140400D01*
Y140650D01*
X205520D01*
X205270Y140900D01*
X204020Y138901D02*
X205520D01*
X204770Y139650D01*
Y138651D01*
X183995Y195142D02*
Y194342D01*
X183595D01*
X183462Y194475D01*
Y194742D01*
X183595Y194875D01*
X183995D01*
X183195Y195142D02*
X182928D01*
X183062D01*
Y194342D01*
X183195Y194475D01*
X182529D02*
X182395Y194342D01*
X182129D01*
X181995Y194475D01*
Y194609D01*
X182129Y194742D01*
X182262D01*
X182129D01*
X181995Y194875D01*
Y195009D01*
X182129Y195142D01*
X182395D01*
X182529Y195009D01*
X187745Y142389D02*
X189245D01*
Y141640D01*
X188995Y141390D01*
X188495D01*
X188245Y141640D01*
Y142389D01*
X187745Y140890D02*
Y140390D01*
Y140640D01*
X189245D01*
X188995Y140890D01*
X187745Y138641D02*
Y139640D01*
X188745Y138641D01*
X188995D01*
X189245Y138891D01*
Y139390D01*
X188995Y139640D01*
%TF.MD5,0ffee9d61c50324f625a6f4db5734ead*%
M02*
