M48
;Layer_Color=9474304
;FILE_FORMAT=4:3
METRIC,LZ
;TYPE=PLATED
T1F00S00C0.300
T2F00S00C0.700
T3F00S00C0.711
T4F00S00C0.762
T5F00S00C1.000
T6F00S00C1.016
T7F00S00C1.020
T8F00S00C1.100
T9F00S00C1.143
T10F00S00C1.200
T11F00S00C1.270
T12F00S00C1.300
T13F00S00C1.524
T14F00S00C1.905
T15F00S00C2.159
T17F00S00C2.540
T18F00S00C3.048
T19F00S00C3.556
%
T01
X0082074Y0005675
X0082275Y0011368
X0091875Y0008799
X010245
X0101282Y0007529
X010535Y0005175
X0109103Y0006775
X0154525Y0056799
Y0057688
Y0058675
X012455Y005455
X01234
X01223
X0108054Y0054386
X01053Y005285
X0101282Y005472
X0102446Y005599
X00917Y005595
X009174Y0038721
X00961Y003475
Y0033679
X0095275Y0026825
X00942Y0026875
X0088217Y00203
X0101282Y0037451
X0102425Y0038725
X01071Y0035394
X01092Y0036775
X0082174Y0037283
X0082356Y0043668
X0082123Y0053125
X0082286Y0058843
X0082174Y0082033
X0082323Y0088122
X0089725Y0089602
X00919Y0084475
X0102425Y008455
X0101282Y0083196
X0104257Y0081221
X0105796Y0081025
X010575Y007935
Y0078225
X0109125Y0082605
X0121875Y00755
X0122775
X01245Y0077075
X0125375Y00778
X0095375Y0071963
X0094225Y0071975
X0090129Y0067575
X0129125Y0078325
X013005Y0079
X0132085Y00807
X013295Y008075
X01341Y0081525
X0134825Y008065
X0136375Y00807
X0137175Y00798
X0135575
X0137875Y0074125
X013875
X01706Y0109325
X0171475
X0171875Y010865
X01735Y01102
X0174375Y0110225
X01749Y0109525
X0175726Y0109837
X0175843Y0108183
X0173661Y0112412
X0172975Y0112
X0173123Y01175
Y011825
X0175325Y0116875
X0174675Y01162
X0176125Y0119474
X0176658Y012025
X0176277Y0121417
X0177108
X017955Y0121075
X0180675Y0120875
X0183025Y0121141
Y012025
X01852Y01198
Y011889
X0184599Y0114901
X0179525Y0115125
X0178784Y0114641
X0179015Y0124246
X0178099
X01798Y0126675
X0181178
X01821Y012725
Y012355
Y0122487
X0182401Y0131761
X0185443Y0133375
X0183761Y0136476
X0177997Y0134676
X01727Y013795
X019095Y011195
X0190109Y011108
X018745Y0102818
X0181715Y0102189
X0156986Y0107925
X0157504Y0108757
X0158736Y0113739
X0159453Y0114577
Y011795
X01604Y0117575
X0158876Y0121783
X01591Y0122675
X016285Y0122975
Y0124109
X0160825Y012615
X0160545Y0127075
X01625Y0129295
X01615Y01308
X0165247Y0133111
X0164615Y013382
X0165287Y0134946
X0151725Y012795
Y0126825
X0144075Y0129
Y012985
X015395Y011505
X0154876Y0114838
X01097Y0115489
X0107982Y011839
X0102175Y0114219
X0101282Y0112949
X009195Y01142
X0090084Y0126835
X009475Y013105
X0103175Y01377
X0082323Y0117005
X008225Y0111467
X0082125Y0142375
X0082275Y0148276
X0082175Y0157475
X0082275Y0165475
X0091775Y01603
X0101282Y015903
X0102749Y0160367
X0105525Y0157
X0109125Y015855
X0109175Y0147
X0101983Y0145075
X0101168Y0143805
X01048Y014155
X0103325Y013885
X0091994Y0145075
X00899Y0172771
X0095775Y0175425
X0094758Y0176975
X0125897Y0171309
X0132961Y0167767
X0135421Y0177419
X0138516Y017532
X0145324Y0171584
X0145675Y0166175
X01578Y01666
X01715Y01671
X01708Y0165375
X017435Y01671
X0175525
X017675
X0178042
X0179175Y0168425
X0180925Y0165375
X0187252Y01661
X0192475Y016525
X0192925Y01674
X0191325Y016845
X0194625Y017825
X0202273Y0176093
X0204795Y017657
X020193Y0165297
X0204795Y0162173
X0189375Y0141775
X0183875Y0139209
X0180925Y014105
X0179175Y01461
X0177979Y0146104
X0176725Y01461
X0175475
X0174225Y0146075
X0172975Y0146077
X0166Y0146825
X01739Y0168425
X0206625Y01728
X02071Y0174
X020695Y0175275
X021275Y0172125
X02156Y01659
X0202063Y0182151
X0204954Y0185522
X0185535Y0188877
X0182995Y0188755
X0180375Y0188632
X0134925Y0194488
X0131875Y01812
X0126912Y0181229
X010595Y0184025
X010675Y018485
X01057Y0186825
X0102825Y0190226
X0101282Y0188956
X01105Y0188932
X0091975Y019021
X0082106Y0188327
X008235Y0194975
T02
X0126988Y018763
X0129528
X0132068
X0137275
X0139815
X0142355
X0147308
X0149848
X0152388
X0122035
X0119495
X0116955
T03
X01629Y006355
X0177168Y009245
T04
X017925Y0054675
Y0057175
X0193879Y0078268
Y0080173
Y0082078
T05
X01305Y0022125
Y003565
X01255
Y0022125
X011168Y0019775
Y0030775
X008257
Y0019775
X0043125Y0023082
X004155
X0039925
X00383
Y0024757
X0039925
X004155
X0043125
Y0026407
X004155
X0039925
X00383
Y0028057
X0039925
X004155
X0043125
X0042325Y0068482
X004075
X0039125
X00375
Y0070157
X0039125
X004075
X0042325
Y0071807
X004075
X0039125
X00375
Y0073457
X0039125
X004075
X0042325
X008257Y0076375
Y0065375
X011168
Y0076375
X0119475Y00907
X01211
X0122725
X01243
Y0092375
X0122725
X01211
X0119475
Y0094025
X01211
X0122725
X01243
Y0095675
X0122725
X01211
X0119475
X0107425Y0095325
X010585
X0104225
X01026
Y0096975
X0104225
X010585
X0107425
X010355Y0101025
X0101975
X010035
X0098725
Y01027
X010035
X0101975
X010355
Y010435
X0101975
X010035
X0098725
Y0106
X010035
X0101975
X010355
X011168Y0124625
Y0135525
X008257
Y0124625
X0042325Y0127807
X004075
X0039125
X00375
Y0129482
X0039125
X004075
X0042325
Y0131132
X004075
X0039125
X00375
Y0132782
X0039125
X004075
X0042325
X00427Y0174525
X0041125
X00395
X0037875
Y01762
X00395
X0041125
X00427
Y017785
X0041125
X00395
X0037875
X008257Y0170825
X011168
X0128004Y0174549
Y0177089
X0147562
Y0174549
X015712Y014785
X015966Y014785
X01622
X016474
X016728
X016982Y014785
X0213775Y016833
Y017087
Y017341
Y017595
Y017849
Y018103
X020543Y019475
X020289
X020035
X019714
X01946
X019206
X0172454Y0194488
X0169914
X0167374
X0164834
X0162294
X0159754
X0151499
X0148959
X0146419
X0143244
X0140704
X0138164
X0131179
X0128639
X0126099
X0122924
X0120384
X0117844
X011168Y0182225
X008257
X00427Y01795
X0041125
X00395
X0037875
T06
X01418Y006237
Y006491
Y006745
X0153912Y0171628
Y01762
X0161532
Y0171628
X0171565
Y01762
X0179185
Y0171628
X0189218
Y01762
X0196838
Y0171628
T07
X015712Y0155873
X015966
X01622
X016474
T08
X0188495Y0135435
Y0137975
X020477Y0137985
Y0135445
Y0140525
Y0143065
Y0145605
X0188495Y0145595
Y0143055
Y0140515
X0188075Y0194742
X0185535
X0182995
X0180455
X0177915
T09
X0038401Y0010339
Y0012879
Y0015419
X0051249Y0014911
Y0012371
Y0009831
X0050966Y0037331
Y0039871
Y0042411
X0050449Y0054831
Y0057371
X0037801Y0057879
Y0055339
X0038318Y0042919
Y0040379
Y0037839
X0037801Y0060419
X0037701Y0082839
Y0085379
Y0087919
X0050349Y0087411
Y0084871
Y0082331
X0050449Y0059911
X0050749Y0114831
Y0117371
Y0119911
X0038101Y0120419
Y0117879
Y0115339
X0037601Y0142839
Y0145379
Y0147919
X0037901Y0160339
Y0162879
Y0165419
X0050549Y0164911
Y0162371
Y0159831
X0050249Y0147211
Y0144671
Y0142131
X0050449Y0187331
Y0189871
Y0192411
X0037801Y0192919
Y0190379
Y0187839
T10
X0124249Y0172344
X0143803Y0172392
X0144895Y0183439
X0149848
X0139815
X0133973
X0129528
X0119495
T11
X0044881Y0011355
X0079325Y001715
X0086275Y0010968
X0086Y0006885
X00916Y00129
X0109125Y0008625
Y0038526
Y0056025
X00917Y0059127
X0090825Y0045375
X0086Y004219
Y0038091
X0086025Y0053996
X0086012Y0058015
X0045125Y0056636
X0045375Y00257
X0045125Y0071175
X0079582Y0062525
X0077775Y0086774
X0086122Y0087054
X0086101Y0083176
X0109125Y0084425
X0176025Y0095875
X017755Y010415
X0185925Y012195
X012345Y011955
X0109125Y011715
X00915Y0117827
X0086012Y011615
X0086Y0112231
X007945Y01218
X0045125Y011633
Y0130025
Y0161355
Y01766
X007955Y016815
X0086Y0163965
X0086125Y0158996
X0086012Y0147516
X0086175Y0143675
X0091627Y0149949
X00921Y016425
X010894Y01604
X0108875Y0145225
X020618Y018892
X0175244Y0196825
X0109125Y0190075
X009225Y0195375
X00861Y0193606
Y0189213
T12
X01255Y00065
X01305
X0149025
X0154025
X0159025
X0164025
X01795
X01845
X017195Y0055
Y0067
X02095Y0119775
Y0124775
X0212575Y01523
Y01573
Y01623
T13
X0136339Y0064783
X0169625Y0116201
Y013614
T14
X0211556Y0033413
Y0038493
Y0043413
Y0048493
X0204444
Y0043413
Y0038493
Y0033413
Y006996
Y007504
Y007996
Y008504
X0211556
Y007996
Y007504
Y006996
T15
X0006575Y0023005
Y0030625
X00069Y0067755
Y0075375
X020765Y009435
Y010197
X000705Y0127705
Y0135325
X0007025Y0172875
Y0180495
T17
X0018208Y0012879
X0071442Y0012371
X0071159Y0039871
X0070642Y0057371
X0017608Y0057879
X0018125Y0040379
X0017508Y0085379
X0070542Y0084871
X01153Y0096464
X0145Y01
X0155
X0108229Y0103536
X0070942Y0117371
X0017908Y0117879
X0017408Y0145379
X0017708Y0162879
X0070742Y0162371
X0070442Y0144671
X0070642Y0189871
X0017608Y0190379
T18
X0179393Y0031054
X0179266Y0036896
X0137081Y0125298
X0131239Y0125171
T19
X0156025Y0033975
X013416Y0148539
M30
