%TF.GenerationSoftware,Altium Limited,Altium Designer,21.6.4 (81)*%
G04 Layer_Color=128*
%FSLAX43Y43*%
%MOMM*%
%TF.SameCoordinates,A962B9D3-E780-4B03-8A10-E236CC36F35F*%
%TF.FilePolarity,Positive*%
%TF.FileFunction,Paste,Bot*%
%TF.Part,Single*%
G01*
G75*
%TA.AperFunction,SMDPad,CuDef*%
%ADD12R,1.157X1.508*%
%ADD16R,1.508X1.157*%
%ADD77R,0.950X1.350*%
%ADD78R,1.350X0.950*%
%ADD79R,1.250X2.000*%
%ADD80R,1.508X1.207*%
%ADD83R,1.207X1.508*%
G04:AMPARAMS|DCode=84|XSize=1.194mm|YSize=0.305mm|CornerRadius=0mm|HoleSize=0mm|Usage=FLASHONLY|Rotation=315.000|XOffset=0mm|YOffset=0mm|HoleType=Round|Shape=Rectangle|*
%AMROTATEDRECTD84*
4,1,4,-0.530,0.314,-0.314,0.530,0.530,-0.314,0.314,-0.530,-0.530,0.314,0.0*
%
%ADD84ROTATEDRECTD84*%

G04:AMPARAMS|DCode=85|XSize=1.194mm|YSize=0.305mm|CornerRadius=0mm|HoleSize=0mm|Usage=FLASHONLY|Rotation=45.000|XOffset=0mm|YOffset=0mm|HoleType=Round|Shape=Rectangle|*
%AMROTATEDRECTD85*
4,1,4,-0.314,-0.530,-0.530,-0.314,0.314,0.530,0.530,0.314,-0.314,-0.530,0.0*
%
%ADD85ROTATEDRECTD85*%

G04:AMPARAMS|DCode=86|XSize=1.207mm|YSize=1.508mm|CornerRadius=0mm|HoleSize=0mm|Usage=FLASHONLY|Rotation=45.000|XOffset=0mm|YOffset=0mm|HoleType=Round|Shape=Rectangle|*
%AMROTATEDRECTD86*
4,1,4,0.107,-0.960,-0.960,0.107,-0.107,0.960,0.960,-0.107,0.107,-0.960,0.0*
%
%ADD86ROTATEDRECTD86*%

G04:AMPARAMS|DCode=88|XSize=0.95mm|YSize=1.35mm|CornerRadius=0mm|HoleSize=0mm|Usage=FLASHONLY|Rotation=45.000|XOffset=0mm|YOffset=0mm|HoleType=Round|Shape=Rectangle|*
%AMROTATEDRECTD88*
4,1,4,0.141,-0.813,-0.813,0.141,-0.141,0.813,0.813,-0.141,0.141,-0.813,0.0*
%
%ADD88ROTATEDRECTD88*%

G04:AMPARAMS|DCode=90|XSize=0.95mm|YSize=1.35mm|CornerRadius=0mm|HoleSize=0mm|Usage=FLASHONLY|Rotation=135.000|XOffset=0mm|YOffset=0mm|HoleType=Round|Shape=Rectangle|*
%AMROTATEDRECTD90*
4,1,4,0.813,0.141,-0.141,-0.813,-0.813,-0.141,0.141,0.813,0.813,0.141,0.0*
%
%ADD90ROTATEDRECTD90*%

%ADD91R,1.408X1.007*%
%ADD93R,1.308X0.757*%
%ADD94R,0.757X1.308*%
%ADD95R,1.007X1.408*%
%ADD96R,2.270X0.558*%
%ADD97R,0.808X1.262*%
%ADD98R,0.900X1.200*%
%ADD99R,2.500X1.700*%
G04:AMPARAMS|DCode=100|XSize=1.25mm|YSize=2mm|CornerRadius=0mm|HoleSize=0mm|Usage=FLASHONLY|Rotation=225.000|XOffset=0mm|YOffset=0mm|HoleType=Round|Shape=Rectangle|*
%AMROTATEDRECTD100*
4,1,4,-0.265,1.149,1.149,-0.265,0.265,-1.149,-1.149,0.265,-0.265,1.149,0.0*
%
%ADD100ROTATEDRECTD100*%

G04:AMPARAMS|DCode=101|XSize=1.207mm|YSize=1.508mm|CornerRadius=0mm|HoleSize=0mm|Usage=FLASHONLY|Rotation=315.000|XOffset=0mm|YOffset=0mm|HoleType=Round|Shape=Rectangle|*
%AMROTATEDRECTD101*
4,1,4,-0.960,-0.107,0.107,0.960,0.960,0.107,-0.107,-0.960,-0.960,-0.107,0.0*
%
%ADD101ROTATEDRECTD101*%

%ADD104R,1.556X1.505*%
%ADD105R,2.800X2.000*%
%TA.AperFunction,NonConductor*%
%ADD123P,0.707X4X90.0*%
%TA.AperFunction,SMDPad,CuDef*%
%ADD124R,2.450X2.800*%
%ADD125R,3.400X4.300*%
G04:AMPARAMS|DCode=126|XSize=4.15mm|YSize=2.45mm|CornerRadius=0.551mm|HoleSize=0mm|Usage=FLASHONLY|Rotation=0.000|XOffset=0mm|YOffset=0mm|HoleType=Round|Shape=RoundedRectangle|*
%AMROUNDEDRECTD126*
21,1,4.150,1.349,0,0,0.0*
21,1,3.049,2.450,0,0,0.0*
1,1,1.102,1.524,-0.674*
1,1,1.102,-1.524,-0.674*
1,1,1.102,-1.524,0.674*
1,1,1.102,1.524,0.674*
%
%ADD126ROUNDEDRECTD126*%
G04:AMPARAMS|DCode=127|XSize=1.9mm|YSize=2.45mm|CornerRadius=0.55mm|HoleSize=0mm|Usage=FLASHONLY|Rotation=0.000|XOffset=0mm|YOffset=0mm|HoleType=Round|Shape=RoundedRectangle|*
%AMROUNDEDRECTD127*
21,1,1.900,1.351,0,0,0.0*
21,1,0.801,2.450,0,0,0.0*
1,1,1.099,0.401,-0.676*
1,1,1.099,-0.401,-0.676*
1,1,1.099,-0.401,0.676*
1,1,1.099,0.401,0.676*
%
%ADD127ROUNDEDRECTD127*%
%ADD128R,2.300X2.800*%
%ADD129R,2.800X2.300*%
%ADD130R,1.650X2.525*%
%ADD131R,1.500X2.000*%
G04:AMPARAMS|DCode=132|XSize=3.45mm|YSize=3.35mm|CornerRadius=0mm|HoleSize=0mm|Usage=FLASHONLY|Rotation=315.000|XOffset=0mm|YOffset=0mm|HoleType=Round|Shape=Rectangle|*
%AMROTATEDRECTD132*
4,1,4,-2.404,0.035,-0.035,2.404,2.404,-0.035,0.035,-2.404,-2.404,0.035,0.0*
%
%ADD132ROTATEDRECTD132*%

%ADD133R,1.900X1.650*%
G04:AMPARAMS|DCode=134|XSize=1.8mm|YSize=2.6mm|CornerRadius=0.7mm|HoleSize=0mm|Usage=FLASHONLY|Rotation=0.000|XOffset=0mm|YOffset=0mm|HoleType=Round|Shape=RoundedRectangle|*
%AMROUNDEDRECTD134*
21,1,1.800,1.200,0,0,0.0*
21,1,0.400,2.600,0,0,0.0*
1,1,1.400,0.200,-0.600*
1,1,1.400,-0.200,-0.600*
1,1,1.400,-0.200,0.600*
1,1,1.400,0.200,0.600*
%
%ADD134ROUNDEDRECTD134*%
G04:AMPARAMS|DCode=135|XSize=1.6mm|YSize=2.6mm|CornerRadius=0.65mm|HoleSize=0mm|Usage=FLASHONLY|Rotation=0.000|XOffset=0mm|YOffset=0mm|HoleType=Round|Shape=RoundedRectangle|*
%AMROUNDEDRECTD135*
21,1,1.600,1.300,0,0,0.0*
21,1,0.300,2.600,0,0,0.0*
1,1,1.300,0.150,-0.650*
1,1,1.300,-0.150,-0.650*
1,1,1.300,-0.150,0.650*
1,1,1.300,0.150,0.650*
%
%ADD135ROUNDEDRECTD135*%
D12*
X88653Y172850D02*
D03*
X86501D02*
D03*
X86207Y67575D02*
D03*
X88359D02*
D03*
X189426Y168425D02*
D03*
X187274D02*
D03*
X86123Y126835D02*
D03*
X88274D02*
D03*
X86099Y22225D02*
D03*
X88251D02*
D03*
D16*
X209313Y160021D02*
D03*
Y162173D02*
D03*
X182995Y190052D02*
D03*
Y192204D02*
D03*
X185535Y192326D02*
D03*
Y190174D02*
D03*
D77*
X86275Y69900D02*
D03*
X87775D02*
D03*
X86178Y129104D02*
D03*
X87678D02*
D03*
X190700Y114276D02*
D03*
X189200D02*
D03*
X173648Y104125D02*
D03*
X175148D02*
D03*
X91435Y134994D02*
D03*
X92935D02*
D03*
X92075Y181118D02*
D03*
X93575D02*
D03*
X91479Y75897D02*
D03*
X92979D02*
D03*
X91062Y30956D02*
D03*
X92562D02*
D03*
X138330Y179959D02*
D03*
X136830D02*
D03*
X138330Y177546D02*
D03*
X136830D02*
D03*
X88007Y175110D02*
D03*
X86507D02*
D03*
X87567Y24500D02*
D03*
X86067D02*
D03*
D78*
X88479Y73675D02*
D03*
Y72175D02*
D03*
X199207Y167092D02*
D03*
Y168592D02*
D03*
X196150Y78350D02*
D03*
Y79850D02*
D03*
X88259Y131400D02*
D03*
Y132900D02*
D03*
X88825Y177523D02*
D03*
Y179023D02*
D03*
X88199Y27025D02*
D03*
Y28525D02*
D03*
D79*
X86000Y80400D02*
D03*
X82250D02*
D03*
X86000Y3829D02*
D03*
X82250D02*
D03*
Y13100D02*
D03*
X86000D02*
D03*
X82250Y51446D02*
D03*
X86000D02*
D03*
X82250Y60844D02*
D03*
X86000D02*
D03*
Y45649D02*
D03*
X82250D02*
D03*
Y35489D02*
D03*
X86000D02*
D03*
Y155694D02*
D03*
X82250D02*
D03*
X86000Y167255D02*
D03*
X82250D02*
D03*
X82000Y186600D02*
D03*
X85750D02*
D03*
X86000Y196760D02*
D03*
X82250D02*
D03*
X86000Y89602D02*
D03*
X82250D02*
D03*
X86000Y109683D02*
D03*
X82250D02*
D03*
X86000Y118827D02*
D03*
X82250D02*
D03*
X86000Y140793D02*
D03*
X82250D02*
D03*
X86000Y150064D02*
D03*
X82250D02*
D03*
D80*
X103237Y143033D02*
D03*
Y145135D02*
D03*
X128055Y167733D02*
D03*
Y169834D02*
D03*
X106800Y53923D02*
D03*
Y56025D02*
D03*
X106855Y8580D02*
D03*
Y6478D02*
D03*
X107003Y160335D02*
D03*
Y158233D02*
D03*
X107175Y190126D02*
D03*
Y188024D02*
D03*
X107257Y84426D02*
D03*
Y82324D02*
D03*
X106900Y114254D02*
D03*
Y112152D02*
D03*
X106264Y145135D02*
D03*
Y143033D02*
D03*
X107100Y38598D02*
D03*
Y36497D02*
D03*
X104257Y82324D02*
D03*
Y84426D02*
D03*
X103793Y8580D02*
D03*
Y6478D02*
D03*
X103700Y56025D02*
D03*
Y53923D02*
D03*
X103975Y112152D02*
D03*
Y114254D02*
D03*
X166375Y170551D02*
D03*
Y168449D02*
D03*
X157650D02*
D03*
Y170551D02*
D03*
X184300Y168399D02*
D03*
Y170501D02*
D03*
X140755Y190212D02*
D03*
Y192313D02*
D03*
X120435Y190085D02*
D03*
Y192186D02*
D03*
X143803Y177073D02*
D03*
Y174972D02*
D03*
X124262Y174954D02*
D03*
Y177056D02*
D03*
X143676Y169834D02*
D03*
Y167733D02*
D03*
X124245D02*
D03*
Y169834D02*
D03*
X147613D02*
D03*
Y167733D02*
D03*
X149010Y190212D02*
D03*
Y192313D02*
D03*
X128690Y190119D02*
D03*
Y192221D02*
D03*
X104003Y160335D02*
D03*
Y158233D02*
D03*
X104175Y188024D02*
D03*
Y190126D02*
D03*
X197140Y190876D02*
D03*
Y188774D02*
D03*
X194600Y190876D02*
D03*
Y188774D02*
D03*
X104056Y36497D02*
D03*
Y38598D02*
D03*
D83*
X199934Y178130D02*
D03*
X202036D02*
D03*
X202063Y183647D02*
D03*
X199962D02*
D03*
X210938Y167122D02*
D03*
X208837D02*
D03*
X202063Y180897D02*
D03*
X199962D02*
D03*
X204903Y183437D02*
D03*
X207005D02*
D03*
Y180897D02*
D03*
X204903D02*
D03*
X82074Y7385D02*
D03*
X84176D02*
D03*
X90176D02*
D03*
X88074D02*
D03*
X82074Y54621D02*
D03*
X84176D02*
D03*
X90176Y54748D02*
D03*
X88074D02*
D03*
X90176Y37022D02*
D03*
X88074D02*
D03*
X84176Y158996D02*
D03*
X82074D02*
D03*
X90176D02*
D03*
X88074D02*
D03*
X143076Y185674D02*
D03*
X140974D02*
D03*
X122756D02*
D03*
X120654D02*
D03*
X138758D02*
D03*
X136656D02*
D03*
X118438D02*
D03*
X116336D02*
D03*
X153109D02*
D03*
X151007D02*
D03*
X132788D02*
D03*
X130687D02*
D03*
X148790D02*
D03*
X146689D02*
D03*
X128471D02*
D03*
X126369D02*
D03*
X139958Y180086D02*
D03*
X142059D02*
D03*
X133354Y179832D02*
D03*
X135456D02*
D03*
X82072Y189581D02*
D03*
X84174D02*
D03*
X173274Y101550D02*
D03*
X175376D02*
D03*
X191226Y117000D02*
D03*
X189124D02*
D03*
X175371Y98800D02*
D03*
X173269D02*
D03*
X186701Y117000D02*
D03*
X184599D02*
D03*
X88074Y188956D02*
D03*
X90176D02*
D03*
X88074Y83090D02*
D03*
X90176D02*
D03*
X84176Y112985D02*
D03*
X82074D02*
D03*
X88074Y113112D02*
D03*
X90176D02*
D03*
X84176Y143968D02*
D03*
X82074D02*
D03*
X88074D02*
D03*
X90176D02*
D03*
D84*
X169234Y130434D02*
D03*
X168881Y130080D02*
D03*
X168527Y129727D02*
D03*
X168173Y129373D02*
D03*
X167820Y129020D02*
D03*
X167466Y128666D02*
D03*
X167113Y128313D02*
D03*
X166759Y127959D02*
D03*
X166406Y127605D02*
D03*
X166052Y127252D02*
D03*
X165699Y126898D02*
D03*
X165345Y126545D02*
D03*
X171355Y120534D02*
D03*
X171709Y120888D02*
D03*
X172063Y121242D02*
D03*
X172416Y121595D02*
D03*
X172770Y121949D02*
D03*
X173123Y122302D02*
D03*
X173477Y122656D02*
D03*
X173830Y123009D02*
D03*
X174184Y123363D02*
D03*
X174537Y123716D02*
D03*
X174891Y124070D02*
D03*
X175245Y124424D02*
D03*
D85*
X165345D02*
D03*
X165699Y124070D02*
D03*
X166052Y123716D02*
D03*
X166406Y123363D02*
D03*
X166759Y123009D02*
D03*
X167113Y122656D02*
D03*
X167466Y122302D02*
D03*
X167820Y121949D02*
D03*
X168173Y121595D02*
D03*
X168527Y121242D02*
D03*
X168881Y120888D02*
D03*
X169234Y120534D02*
D03*
X175245Y126545D02*
D03*
X174891Y126898D02*
D03*
X174537Y127252D02*
D03*
X174184Y127605D02*
D03*
X173830Y127959D02*
D03*
X173477Y128313D02*
D03*
X173123Y128666D02*
D03*
X172770Y129020D02*
D03*
X172416Y129373D02*
D03*
X172063Y129727D02*
D03*
X171709Y130080D02*
D03*
X171355Y130434D02*
D03*
D86*
X164418Y136742D02*
D03*
X162932Y135256D02*
D03*
D88*
X181575Y110095D02*
D03*
X182636Y111156D02*
D03*
D90*
X178781Y133635D02*
D03*
X179842Y132574D02*
D03*
D91*
X17125Y71050D02*
D03*
Y69148D02*
D03*
Y175956D02*
D03*
Y174055D02*
D03*
Y131010D02*
D03*
Y129108D02*
D03*
Y26088D02*
D03*
Y24187D02*
D03*
D93*
X86178Y131274D02*
D03*
Y133026D02*
D03*
X86625Y177397D02*
D03*
Y179148D02*
D03*
X86304Y72049D02*
D03*
Y73801D02*
D03*
X86125Y26899D02*
D03*
Y28651D02*
D03*
X180455Y190129D02*
D03*
Y191881D02*
D03*
D94*
X93061Y137145D02*
D03*
X91309D02*
D03*
X93701Y183218D02*
D03*
X91949D02*
D03*
X93155Y77947D02*
D03*
X91404D02*
D03*
X92688Y33025D02*
D03*
X90936D02*
D03*
X84451Y172929D02*
D03*
X82699D02*
D03*
X84326Y67475D02*
D03*
X82574D02*
D03*
X84399Y126915D02*
D03*
X82647D02*
D03*
X84376Y22111D02*
D03*
X82624D02*
D03*
D95*
X82174Y39045D02*
D03*
X84076D02*
D03*
X82174Y83244D02*
D03*
X84076D02*
D03*
D96*
X94611Y11339D02*
D03*
Y10069D02*
D03*
Y8799D02*
D03*
Y7529D02*
D03*
X99639D02*
D03*
Y8799D02*
D03*
Y10069D02*
D03*
Y11339D02*
D03*
X94611Y58530D02*
D03*
Y57260D02*
D03*
Y55990D02*
D03*
Y54720D02*
D03*
X99639D02*
D03*
Y55990D02*
D03*
Y57260D02*
D03*
Y58530D02*
D03*
Y116759D02*
D03*
Y115489D02*
D03*
Y114219D02*
D03*
Y112949D02*
D03*
X94611D02*
D03*
Y114219D02*
D03*
Y115489D02*
D03*
Y116759D02*
D03*
X99639Y162840D02*
D03*
Y161570D02*
D03*
Y160300D02*
D03*
Y159030D02*
D03*
X94611D02*
D03*
Y160300D02*
D03*
Y161570D02*
D03*
Y162840D02*
D03*
X99639Y192766D02*
D03*
Y191496D02*
D03*
Y190226D02*
D03*
Y188956D02*
D03*
X94611D02*
D03*
Y190226D02*
D03*
Y191496D02*
D03*
Y192766D02*
D03*
X99639Y87006D02*
D03*
Y85736D02*
D03*
Y84466D02*
D03*
Y83196D02*
D03*
X94611D02*
D03*
Y84466D02*
D03*
Y85736D02*
D03*
Y87006D02*
D03*
X99639Y147615D02*
D03*
Y146345D02*
D03*
Y145075D02*
D03*
Y143805D02*
D03*
X94611D02*
D03*
Y145075D02*
D03*
Y146345D02*
D03*
Y147615D02*
D03*
X99639Y41261D02*
D03*
Y39991D02*
D03*
Y38721D02*
D03*
Y37451D02*
D03*
X94611D02*
D03*
Y38721D02*
D03*
Y39991D02*
D03*
Y41261D02*
D03*
D97*
X82323Y9925D02*
D03*
X83927D02*
D03*
Y57161D02*
D03*
X82323D02*
D03*
X83927Y42093D02*
D03*
X82323D02*
D03*
X83927Y164207D02*
D03*
X82323D02*
D03*
X83927Y193331D02*
D03*
X82323D02*
D03*
X83927Y87047D02*
D03*
X82323D02*
D03*
X83927Y115525D02*
D03*
X82323D02*
D03*
X83927Y146635D02*
D03*
X82323D02*
D03*
D98*
X88075Y10560D02*
D03*
X90175D02*
D03*
X88075Y57415D02*
D03*
X90175D02*
D03*
Y164384D02*
D03*
X88075D02*
D03*
Y193331D02*
D03*
X90175D02*
D03*
Y87047D02*
D03*
X88075D02*
D03*
X90175Y115525D02*
D03*
X88075D02*
D03*
X90175Y42207D02*
D03*
X88075D02*
D03*
X90175Y147016D02*
D03*
X88075D02*
D03*
D99*
X103125Y15022D02*
D03*
X107125D02*
D03*
Y62340D02*
D03*
X103125D02*
D03*
X107125Y120823D02*
D03*
X103125D02*
D03*
Y166777D02*
D03*
X107125D02*
D03*
X103125Y196576D02*
D03*
X107125D02*
D03*
X103125Y90816D02*
D03*
X107125D02*
D03*
X103125Y151552D02*
D03*
X107125D02*
D03*
X103125Y45071D02*
D03*
X107125D02*
D03*
D100*
X168401Y140551D02*
D03*
X165749Y137899D02*
D03*
D101*
X181868Y134457D02*
D03*
X180382Y135943D02*
D03*
D104*
X166375Y175958D02*
D03*
Y174156D02*
D03*
X157725Y175958D02*
D03*
Y174156D02*
D03*
X184300Y175958D02*
D03*
Y174156D02*
D03*
D105*
X187450Y93500D02*
D03*
Y98000D02*
D03*
D123*
X179804Y111371D02*
D03*
X181360Y112926D02*
D03*
D124*
X167800Y73400D02*
D03*
Y66850D02*
D03*
X165350Y73400D02*
D03*
Y66850D02*
D03*
D125*
X49800Y170750D02*
D03*
X43150D02*
D03*
X49800Y65675D02*
D03*
X43150D02*
D03*
X33200Y65700D02*
D03*
X39850D02*
D03*
X57800Y182550D02*
D03*
X51150D02*
D03*
X33200Y170750D02*
D03*
X39850D02*
D03*
X33200Y30900D02*
D03*
X39850D02*
D03*
X33200Y20300D02*
D03*
X39850D02*
D03*
X33200Y135600D02*
D03*
X39850D02*
D03*
X33200Y125150D02*
D03*
X39850D02*
D03*
X57800Y75825D02*
D03*
X51150D02*
D03*
X57800Y4800D02*
D03*
X51150D02*
D03*
X57800Y109550D02*
D03*
X51150D02*
D03*
X57800Y137289D02*
D03*
X51150D02*
D03*
X57800Y31575D02*
D03*
X51150D02*
D03*
X57800Y48850D02*
D03*
X51150D02*
D03*
X57800Y153550D02*
D03*
X51150D02*
D03*
D126*
X181450Y98375D02*
D03*
D127*
X179150Y92225D02*
D03*
X181450D02*
D03*
X183750D02*
D03*
D128*
X104750Y193300D02*
D03*
X107600D02*
D03*
X104027Y163475D02*
D03*
X106877D02*
D03*
X103618Y117190D02*
D03*
X106468D02*
D03*
X104850Y87529D02*
D03*
X107700D02*
D03*
X104000Y59200D02*
D03*
X106850D02*
D03*
X105650Y12000D02*
D03*
X108500D02*
D03*
X107525Y41904D02*
D03*
X104675D02*
D03*
X107616Y148410D02*
D03*
X104766D02*
D03*
D129*
X97175Y168500D02*
D03*
Y165650D02*
D03*
X97125Y119398D02*
D03*
Y122248D02*
D03*
X97450Y198325D02*
D03*
Y195475D02*
D03*
X97200Y16950D02*
D03*
Y14100D02*
D03*
X17200Y73075D02*
D03*
Y75925D02*
D03*
X97175Y89875D02*
D03*
Y92725D02*
D03*
X17125Y28050D02*
D03*
Y30900D02*
D03*
X17150Y177950D02*
D03*
Y180800D02*
D03*
X17125Y132983D02*
D03*
Y135833D02*
D03*
X97125Y44090D02*
D03*
Y46940D02*
D03*
X97277Y150375D02*
D03*
Y153225D02*
D03*
X97125Y61375D02*
D03*
Y64225D02*
D03*
D130*
X200985Y168814D02*
D03*
X202255D02*
D03*
X203525D02*
D03*
X204795D02*
D03*
Y174238D02*
D03*
X203525D02*
D03*
X202255D02*
D03*
X200985D02*
D03*
D131*
X206738Y162372D02*
D03*
Y159972D02*
D03*
X206788Y164797D02*
D03*
Y167197D02*
D03*
D132*
X186965Y110531D02*
D03*
X182581Y106147D02*
D03*
D133*
X93034Y130998D02*
D03*
Y132898D02*
D03*
X90634D02*
D03*
Y131948D02*
D03*
Y130998D02*
D03*
X93525Y177048D02*
D03*
Y178948D02*
D03*
X91125D02*
D03*
Y177998D02*
D03*
Y177048D02*
D03*
X93079Y71975D02*
D03*
Y73875D02*
D03*
X90679D02*
D03*
Y72925D02*
D03*
Y71975D02*
D03*
X92662Y26825D02*
D03*
Y28725D02*
D03*
X90262D02*
D03*
Y27775D02*
D03*
Y26825D02*
D03*
D134*
X136811Y169866D02*
D03*
X132761D02*
D03*
X136811Y175066D02*
D03*
X132761D02*
D03*
D135*
X135421Y169866D02*
D03*
X134151D02*
D03*
X135421Y175066D02*
D03*
X134151D02*
D03*
%TF.MD5,7c1feea56f5e36a451f714893dc396da*%
M02*
