%TF.GenerationSoftware,Altium Limited,Altium Designer,21.6.4 (81)*%
G04 Layer_Color=8388736*
%FSLAX43Y43*%
%MOMM*%
%TF.SameCoordinates,A962B9D3-E780-4B03-8A10-E236CC36F35F*%
%TF.FilePolarity,Negative*%
%TF.FileFunction,Soldermask,Top*%
%TF.Part,Single*%
G01*
G75*
%TA.AperFunction,SMDPad,CuDef*%
%ADD12R,1.157X1.508*%
%ADD15R,1.200X1.100*%
%ADD16R,1.508X1.157*%
%ADD17R,4.000X2.000*%
%ADD18R,2.108X1.397*%
%TA.AperFunction,ComponentPad*%
%ADD57R,1.550X1.550*%
%ADD58C,1.550*%
%ADD63C,1.200*%
%ADD64R,1.200X1.200*%
%ADD66R,1.550X1.550*%
%TA.AperFunction,NonConductor*%
%ADD141C,0.254*%
%ADD145C,2.000*%
%TA.AperFunction,ComponentPad*%
%ADD158C,2.489*%
%ADD159C,2.300*%
%ADD160O,5.380X9.190*%
%ADD161C,1.824*%
%ADD162C,6.650*%
%ADD163O,3.856X4.110*%
%ADD164R,1.800X1.800*%
%ADD165C,1.800*%
%ADD166C,2.250*%
G04:AMPARAMS|DCode=167|XSize=2.25mm|YSize=2.25mm|CornerRadius=0.638mm|HoleSize=0mm|Usage=FLASHONLY|Rotation=0.000|XOffset=0mm|YOffset=0mm|HoleType=Round|Shape=RoundedRectangle|*
%AMROUNDEDRECTD167*
21,1,2.250,0.975,0,0,0.0*
21,1,0.975,2.250,0,0,0.0*
1,1,1.275,0.488,-0.488*
1,1,1.275,-0.488,-0.488*
1,1,1.275,-0.488,0.488*
1,1,1.275,0.488,0.488*
%
%ADD167ROUNDEDRECTD167*%
%ADD168O,5.634X4.618*%
%ADD169C,1.900*%
G04:AMPARAMS|DCode=170|XSize=1.9mm|YSize=1.9mm|CornerRadius=0.55mm|HoleSize=0mm|Usage=FLASHONLY|Rotation=270.000|XOffset=0mm|YOffset=0mm|HoleType=Round|Shape=RoundedRectangle|*
%AMROUNDEDRECTD170*
21,1,1.900,0.800,0,0,270.0*
21,1,0.800,1.900,0,0,270.0*
1,1,1.100,-0.400,-0.400*
1,1,1.100,-0.400,0.400*
1,1,1.100,0.400,0.400*
1,1,1.100,0.400,-0.400*
%
%ADD170ROUNDEDRECTD170*%
%ADD171C,6.904*%
%ADD172O,5.126X6.650*%
%ADD173C,3.348*%
%ADD174O,6.650X5.126*%
%ADD175O,2.586X2.078*%
%ADD176C,4.872*%
%ADD178R,2.586X2.586*%
G04:AMPARAMS|DCode=179|XSize=1.9mm|YSize=1.9mm|CornerRadius=0.55mm|HoleSize=0mm|Usage=FLASHONLY|Rotation=180.000|XOffset=0mm|YOffset=0mm|HoleType=Round|Shape=RoundedRectangle|*
%AMROUNDEDRECTD179*
21,1,1.900,0.800,0,0,180.0*
21,1,0.800,1.900,0,0,180.0*
1,1,1.100,-0.400,0.400*
1,1,1.100,0.400,0.400*
1,1,1.100,0.400,-0.400*
1,1,1.100,-0.400,-0.400*
%
%ADD179ROUNDEDRECTD179*%
%ADD180C,1.850*%
%ADD181R,1.850X1.850*%
G04:AMPARAMS|DCode=182|XSize=2.25mm|YSize=2.25mm|CornerRadius=0.638mm|HoleSize=0mm|Usage=FLASHONLY|Rotation=90.000|XOffset=0mm|YOffset=0mm|HoleType=Round|Shape=RoundedRectangle|*
%AMROUNDEDRECTD182*
21,1,2.250,0.975,0,0,90.0*
21,1,0.975,2.250,0,0,90.0*
1,1,1.275,0.488,0.488*
1,1,1.275,0.488,-0.488*
1,1,1.275,-0.488,-0.488*
1,1,1.275,-0.488,0.488*
%
%ADD182ROUNDEDRECTD182*%
%TA.AperFunction,ViaPad*%
%ADD183C,1.570*%
%TA.AperFunction,NonConductor*%
%ADD188R,20.066X10.668*%
%ADD192C,3.000*%
%TA.AperFunction,SMDPad,CuDef*%
%ADD193R,1.150X1.200*%
%ADD194R,1.824X1.824*%
%ADD195P,2.580X4X270.0*%
%TA.AperFunction,ComponentPad*%
%ADD196O,2.332X1.824*%
D12*
X175724Y67075D02*
D03*
X177876D02*
D03*
D15*
X182995Y184875D02*
D03*
Y186975D02*
D03*
X195475Y184850D02*
D03*
Y186950D02*
D03*
X188700Y184875D02*
D03*
Y186975D02*
D03*
X185535D02*
D03*
Y184875D02*
D03*
X180455D02*
D03*
Y186975D02*
D03*
D16*
X202299Y177808D02*
D03*
Y179959D02*
D03*
D17*
X130625Y52600D02*
D03*
X123525D02*
D03*
D18*
X170828Y176149D02*
D03*
Y171679D02*
D03*
X179922D02*
D03*
Y176149D02*
D03*
X153175D02*
D03*
Y171679D02*
D03*
X162269D02*
D03*
Y176149D02*
D03*
X188481D02*
D03*
Y171679D02*
D03*
X197575D02*
D03*
Y176149D02*
D03*
D57*
X111680Y19775D02*
D03*
Y65375D02*
D03*
Y76375D02*
D03*
Y30775D02*
D03*
Y124625D02*
D03*
Y135525D02*
D03*
Y170825D02*
D03*
Y182225D02*
D03*
X157120Y147850D02*
D03*
X159754Y194488D02*
D03*
D58*
X82570Y19775D02*
D03*
Y65375D02*
D03*
Y76375D02*
D03*
Y30775D02*
D03*
Y124625D02*
D03*
Y135525D02*
D03*
Y170825D02*
D03*
Y182225D02*
D03*
X159660Y147850D02*
D03*
X162200D02*
D03*
X164740D02*
D03*
X167280D02*
D03*
X169820Y147850D02*
D03*
X172454Y194488D02*
D03*
X169914D02*
D03*
X167374D02*
D03*
X164834D02*
D03*
X162294D02*
D03*
X213775Y178490D02*
D03*
Y175950D02*
D03*
Y173410D02*
D03*
Y170870D02*
D03*
Y168330D02*
D03*
D63*
X142355Y187630D02*
D03*
X139815D02*
D03*
X122035D02*
D03*
X119495D02*
D03*
X152388D02*
D03*
X149848D02*
D03*
X132068D02*
D03*
X129528D02*
D03*
D64*
X137275D02*
D03*
X116955D02*
D03*
X147308D02*
D03*
X126988D02*
D03*
D66*
X213775Y181030D02*
D03*
D141*
X45729Y37396D02*
X50902D01*
X42746Y40379D02*
X45729Y37396D01*
X38318Y40379D02*
X42746D01*
D145*
X82574Y65220D02*
Y65751D01*
X77370Y70955D02*
X82574Y65751D01*
X77370Y70955D02*
Y71175D01*
X82570Y76375D01*
X45125Y71175D02*
X77370D01*
X77096Y129896D02*
X77145D01*
X77096D02*
X82570Y124625D01*
X77071Y130025D02*
X82570Y135525D01*
X45125Y130025D02*
X77071D01*
X76933Y25275D02*
X82433Y19775D01*
X45675Y25700D02*
X77495D01*
X82570Y30775D01*
X76793Y176602D02*
X82570Y170825D01*
X76950Y176445D02*
Y176600D01*
X45125D02*
X76950D01*
X76793Y176602D02*
X82415Y182225D01*
X45294Y142131D02*
X50249D01*
X42046Y145379D02*
X45294Y142131D01*
X37601Y145379D02*
X42046D01*
X46649Y159831D02*
X50549D01*
X43601Y162879D02*
X46650Y159830D01*
X37901Y162879D02*
X43601D01*
X45519Y187331D02*
X50449D01*
X42471Y190379D02*
X45519Y187331D01*
X37801Y190379D02*
X42471D01*
X46701Y114831D02*
X50749D01*
X43653Y117879D02*
X46701Y114831D01*
X38101Y117879D02*
X43653D01*
X45555Y82320D02*
X50567D01*
X42496Y85379D02*
X45555Y82320D01*
X37701Y85379D02*
X42496D01*
X46404Y9831D02*
X51249D01*
X43356Y12879D02*
X46404Y9831D01*
X38401Y12879D02*
X43356D01*
X46112Y37331D02*
X50966D01*
X43064Y40379D02*
X46112Y37331D01*
X38318Y40379D02*
X43064D01*
X50902Y37396D02*
X50966Y37331D01*
X46930Y54831D02*
X50449D01*
X43882Y57879D02*
X46930Y54831D01*
X37801Y57879D02*
X43882D01*
D158*
X123450Y119550D02*
D03*
X109125Y84425D02*
D03*
Y117150D02*
D03*
X86122Y87054D02*
D03*
X77775Y86774D02*
D03*
X86000Y112231D02*
D03*
X91500Y117827D02*
D03*
X86012Y116150D02*
D03*
X177550Y104150D02*
D03*
X109125Y56025D02*
D03*
X45125Y71175D02*
D03*
Y130025D02*
D03*
X86100Y189213D02*
D03*
X86000Y6885D02*
D03*
X45125Y176600D02*
D03*
X86125Y158996D02*
D03*
X86275Y10968D02*
D03*
X86175Y143675D02*
D03*
X86101Y83176D02*
D03*
X86000Y38091D02*
D03*
X108875Y145225D02*
D03*
X45375Y25700D02*
D03*
X86012Y147516D02*
D03*
X79550Y168150D02*
D03*
X79582Y62525D02*
D03*
X86025Y53996D02*
D03*
X45125Y161355D02*
D03*
Y56636D02*
D03*
X108940Y160400D02*
D03*
X86000Y163965D02*
D03*
X86012Y58015D02*
D03*
X92100Y164250D02*
D03*
X91700Y59127D02*
D03*
X109125Y190075D02*
D03*
X86100Y193606D02*
D03*
X92250Y195375D02*
D03*
X79450Y121800D02*
D03*
X79325Y17150D02*
D03*
X45125Y116330D02*
D03*
X44881Y11355D02*
D03*
X109125Y8625D02*
D03*
X91600Y12900D02*
D03*
X109125Y38526D02*
D03*
X86000Y42190D02*
D03*
X91627Y149949D02*
D03*
X90825Y45375D02*
D03*
X139815Y183439D02*
D03*
X119495D02*
D03*
X149848D02*
D03*
X129528D02*
D03*
X143803Y172392D02*
D03*
X124249Y172344D02*
D03*
X144895Y183439D02*
D03*
X133973D02*
D03*
X206180Y188920D02*
D03*
X175244Y196825D02*
D03*
X185925Y121950D02*
D03*
X176025Y95875D02*
D03*
D159*
X171950Y67000D02*
D03*
Y55000D02*
D03*
X130500Y22125D02*
D03*
X125500D02*
D03*
X130500Y35650D02*
D03*
X125500D02*
D03*
D160*
X172289Y75093D02*
D03*
X172416Y84999D02*
D03*
D161*
X193879Y78268D02*
D03*
Y80173D02*
D03*
Y82078D02*
D03*
X179250Y57175D02*
D03*
Y54675D02*
D03*
D162*
X108229Y103536D02*
D03*
X115300Y96464D02*
D03*
X145000Y100000D02*
D03*
X155000D02*
D03*
D163*
X204444Y43413D02*
D03*
Y48493D02*
D03*
X211556Y43413D02*
D03*
Y48493D02*
D03*
X204444Y33413D02*
D03*
Y38493D02*
D03*
X211556Y33413D02*
D03*
Y38493D02*
D03*
X204444Y79960D02*
D03*
Y85040D02*
D03*
X211556Y79960D02*
D03*
Y85040D02*
D03*
X204444Y69960D02*
D03*
Y75040D02*
D03*
X211556Y69960D02*
D03*
Y75040D02*
D03*
D164*
X205430Y194750D02*
D03*
X197140D02*
D03*
X122924Y194488D02*
D03*
X151499D02*
D03*
X143244D02*
D03*
X131179D02*
D03*
D165*
X202890Y194750D02*
D03*
X200350D02*
D03*
X194600D02*
D03*
X192060D02*
D03*
X120384Y194488D02*
D03*
X117844D02*
D03*
X148959D02*
D03*
X146419D02*
D03*
X138164D02*
D03*
X140704D02*
D03*
X126099D02*
D03*
X128639D02*
D03*
D166*
X154025Y6500D02*
D03*
X130500D02*
D03*
X164025D02*
D03*
X212575Y162300D02*
D03*
Y157300D02*
D03*
X209500Y124775D02*
D03*
X184500Y6500D02*
D03*
D167*
X149025D02*
D03*
X125500D02*
D03*
X159025D02*
D03*
X179500D02*
D03*
D168*
X207650Y94350D02*
D03*
Y101970D02*
D03*
X7025Y180495D02*
D03*
Y172875D02*
D03*
X7050Y135325D02*
D03*
Y127705D02*
D03*
X6900Y75375D02*
D03*
Y67755D02*
D03*
X6575Y30625D02*
D03*
Y23005D02*
D03*
D169*
X204770Y140525D02*
D03*
Y143065D02*
D03*
Y137985D02*
D03*
Y135445D02*
D03*
X182995Y194742D02*
D03*
X185535D02*
D03*
X180455D02*
D03*
X177915D02*
D03*
X188495Y135435D02*
D03*
Y137975D02*
D03*
Y143055D02*
D03*
Y140515D02*
D03*
X147562Y177089D02*
D03*
Y174549D02*
D03*
X128004Y177089D02*
D03*
Y174549D02*
D03*
D170*
X204770Y145605D02*
D03*
X188495Y145595D02*
D03*
D171*
X134160Y148539D02*
D03*
X156025Y33975D02*
D03*
D172*
X131239Y125171D02*
D03*
X137081Y125298D02*
D03*
D173*
X169625Y136140D02*
D03*
Y116201D02*
D03*
X136339Y64783D02*
D03*
D174*
X179266Y36896D02*
D03*
X179393Y31054D02*
D03*
D175*
X50749Y114831D02*
D03*
Y117371D02*
D03*
Y119911D02*
D03*
X38101Y120419D02*
D03*
Y117879D02*
D03*
Y115339D02*
D03*
X37601Y147919D02*
D03*
Y145379D02*
D03*
Y142839D02*
D03*
X50249Y142131D02*
D03*
Y144671D02*
D03*
Y147211D02*
D03*
X51249Y9831D02*
D03*
Y12371D02*
D03*
Y14911D02*
D03*
X38401Y10339D02*
D03*
Y12879D02*
D03*
Y15419D02*
D03*
X38318Y37839D02*
D03*
Y40379D02*
D03*
Y42919D02*
D03*
X50966Y37331D02*
D03*
Y39871D02*
D03*
Y42411D02*
D03*
X37901Y160339D02*
D03*
Y162879D02*
D03*
Y165419D02*
D03*
X37801Y55339D02*
D03*
Y57879D02*
D03*
Y60419D02*
D03*
X50549Y164911D02*
D03*
Y162371D02*
D03*
Y159831D02*
D03*
X50449Y54831D02*
D03*
Y57371D02*
D03*
Y59911D02*
D03*
X37801Y187839D02*
D03*
Y190379D02*
D03*
Y192919D02*
D03*
X37701Y82839D02*
D03*
Y85379D02*
D03*
Y87919D02*
D03*
X50449Y192411D02*
D03*
Y189871D02*
D03*
Y187331D02*
D03*
X50349Y87411D02*
D03*
Y84871D02*
D03*
Y82331D02*
D03*
D176*
X70942Y117371D02*
D03*
X17908Y117879D02*
D03*
X17408Y145379D02*
D03*
X70442Y144671D02*
D03*
X71442Y12371D02*
D03*
X18208Y12879D02*
D03*
X18125Y40379D02*
D03*
X71159Y39871D02*
D03*
X17708Y162879D02*
D03*
X17608Y57879D02*
D03*
X70742Y162371D02*
D03*
X70642Y57371D02*
D03*
X17608Y190379D02*
D03*
X17508Y85379D02*
D03*
X70642Y189871D02*
D03*
X70542Y84871D02*
D03*
D178*
X179185Y176200D02*
D03*
Y171628D02*
D03*
X171565D02*
D03*
Y176200D02*
D03*
X161532D02*
D03*
Y171628D02*
D03*
X153912D02*
D03*
Y176200D02*
D03*
X196838D02*
D03*
Y171628D02*
D03*
X189218D02*
D03*
Y176200D02*
D03*
D179*
X188075Y194742D02*
D03*
D180*
X164740Y155873D02*
D03*
X162200D02*
D03*
X159660D02*
D03*
D181*
X157120D02*
D03*
D182*
X212575Y152300D02*
D03*
X209500Y119775D02*
D03*
D183*
X162900Y63550D02*
D03*
X177168Y92450D02*
D03*
D188*
X64338Y117371D02*
D03*
X24512Y117878D02*
D03*
X24012Y145379D02*
D03*
X63838Y144671D02*
D03*
X64838Y12371D02*
D03*
X24812Y12879D02*
D03*
X24729Y40378D02*
D03*
X64554Y39871D02*
D03*
X24312Y162879D02*
D03*
X24212Y57878D02*
D03*
X64137Y162371D02*
D03*
X64038Y57371D02*
D03*
X24212Y190379D02*
D03*
X24112Y85378D02*
D03*
X64037Y189871D02*
D03*
X63938Y84871D02*
D03*
D192*
X107875Y103650D02*
X108271Y103254D01*
X112179D01*
X131175Y122250D01*
Y124950D01*
X194667Y69833D02*
X204415D01*
X191875Y72625D02*
X194667Y69833D01*
X173925Y86125D02*
X202250D01*
X173150Y83925D02*
X180575D01*
X191875Y72625D01*
X107875Y103650D02*
X108803D01*
X130103Y124950D02*
X131175D01*
X137140Y117635D02*
Y125389D01*
Y117635D02*
X159950Y94825D01*
Y83275D02*
Y94825D01*
Y83275D02*
X167942Y75283D01*
X171600D01*
D193*
X180401Y67075D02*
D03*
X181951D02*
D03*
D194*
X151375Y63025D02*
D03*
Y58199D02*
D03*
D195*
X185619Y104793D02*
D03*
X189032Y108206D02*
D03*
D196*
X141800Y67450D02*
D03*
Y64910D02*
D03*
Y62370D02*
D03*
%TF.MD5,b35a2f35693f4a2536d10c1580d5ebf2*%
M02*
