%TF.GenerationSoftware,Altium Limited,Altium Designer,21.6.4 (81)*%
G04 Layer_Color=16711935*
%FSLAX43Y43*%
%MOMM*%
%TF.SameCoordinates,A962B9D3-E780-4B03-8A10-E236CC36F35F*%
%TF.FilePolarity,Positive*%
%TF.FileFunction,Other,Top_Courtyard*%
%TF.Part,Single*%
G01*
G75*
%TA.AperFunction,NonConductor*%
%ADD139C,0.200*%
%ADD198C,0.050*%
D139*
X81695Y14425D02*
X112555D01*
X81695D02*
Y25125D01*
X112555D01*
Y14425D02*
Y25125D01*
Y60025D02*
Y70725D01*
X81695D02*
X112555D01*
X81695Y60025D02*
Y70725D01*
Y60025D02*
X112555D01*
Y71025D02*
Y81725D01*
X81695D02*
X112555D01*
X81695Y71025D02*
Y81725D01*
Y71025D02*
X112555D01*
Y25425D02*
Y36125D01*
X81695D02*
X112555D01*
X81695Y25425D02*
Y36125D01*
Y25425D02*
X112555D01*
Y119275D02*
Y129975D01*
X81695D02*
X112555D01*
X81695Y119275D02*
Y129975D01*
Y119275D02*
X112555D01*
Y130175D02*
Y140875D01*
X81695D02*
X112555D01*
X81695Y130175D02*
Y140875D01*
Y130175D02*
X112555D01*
Y165475D02*
Y176175D01*
X81695D02*
X112555D01*
X81695Y165475D02*
Y176175D01*
Y165475D02*
X112555D01*
Y176875D02*
Y187575D01*
X81695D02*
X112555D01*
X81695Y176875D02*
Y187575D01*
Y176875D02*
X112555D01*
X121275Y48100D02*
Y57100D01*
Y48100D02*
X132875D01*
Y57100D01*
X121275D02*
X132875D01*
D198*
X145725Y11700D02*
X157325D01*
Y2300D02*
Y11700D01*
X145725Y2300D02*
X157325D01*
X145725D02*
Y11700D01*
X122200D02*
X133800D01*
Y2300D02*
Y11700D01*
X122200Y2300D02*
X133800D01*
X122200D02*
Y11700D01*
X155725D02*
X167325D01*
Y2300D02*
Y11700D01*
X155725Y2300D02*
X167325D01*
X155725D02*
Y11700D01*
X161025Y7000D02*
X162025D01*
X161525Y6500D02*
Y7500D01*
X204770Y140025D02*
Y141025D01*
X204270Y140525D02*
X205270D01*
X206315Y133825D02*
Y147225D01*
X203225Y133825D02*
X206315D01*
X203225D02*
Y147225D01*
X206315D01*
X182495Y194742D02*
X183495D01*
X182995Y194242D02*
Y195242D01*
X176295Y193197D02*
X189695D01*
X176295D02*
Y196287D01*
X189695D01*
Y193197D02*
Y196287D01*
X186950Y147215D02*
X190040D01*
X186950Y133815D02*
Y147215D01*
Y133815D02*
X190040D01*
Y147215D01*
X187995Y140515D02*
X188995D01*
X188495Y140015D02*
Y141015D01*
X207375Y149000D02*
X216775D01*
Y165600D01*
X207375D02*
X216775D01*
X207375Y149000D02*
Y165600D01*
X212075Y156800D02*
Y157800D01*
X211575Y157300D02*
X212575D01*
X204300Y116475D02*
Y128075D01*
X213700D01*
Y116475D02*
Y128075D01*
X204300Y116475D02*
X213700D01*
X209000Y121775D02*
Y122775D01*
X208500Y122275D02*
X209500D01*
X182000Y6500D02*
Y7500D01*
X181500Y7000D02*
X182500D01*
X176200Y2300D02*
Y11700D01*
Y2300D02*
X187800D01*
Y11700D01*
X176200D02*
X187800D01*
%TF.MD5,2c8ed4df5b2b0941aebd054f18bdb1b6*%
M02*
