%TF.GenerationSoftware,Altium Limited,Altium Designer,21.6.4 (81)*%
G04 Layer_Color=0*
%FSLAX43Y43*%
%MOMM*%
%TF.SameCoordinates,A962B9D3-E780-4B03-8A10-E236CC36F35F*%
%TF.FilePolarity,Positive*%
%TF.FileFunction,Profile,NP*%
%TF.Part,Single*%
G01*
G75*
%TA.AperFunction,Profile*%
%ADD203C,0.025*%
G36*
X30000Y98625D02*
X29852D01*
X29562Y98683D01*
X29289Y98796D01*
X29044Y98960D01*
X28835Y99169D01*
X28671Y99414D01*
X28558Y99687D01*
X28500Y99977D01*
Y100125D01*
Y100273D01*
X28558Y100563D01*
X28671Y100836D01*
X28835Y101081D01*
X29044Y101290D01*
X29289Y101454D01*
X29562Y101567D01*
X29852Y101625D01*
X30000D01*
X30148D01*
X30438Y101567D01*
X30711Y101454D01*
X30956Y101290D01*
X31165Y101081D01*
X31329Y100836D01*
X31442Y100563D01*
X31500Y100273D01*
Y100125D01*
Y99977D01*
X31442Y99687D01*
X31329Y99414D01*
X31165Y99169D01*
X30956Y98960D01*
X30711Y98796D01*
X30438Y98683D01*
X30148Y98625D01*
X30000D01*
D01*
D02*
G37*
G36*
X193500Y100000D02*
Y99852D01*
X193558Y99562D01*
X193671Y99289D01*
X193835Y99044D01*
X194044Y98835D01*
X194289Y98671D01*
X194562Y98558D01*
X194852Y98500D01*
X195000D01*
X195148D01*
X195438Y98558D01*
X195711Y98671D01*
X195956Y98835D01*
X196165Y99044D01*
X196329Y99289D01*
X196442Y99562D01*
X196500Y99852D01*
Y100000D01*
Y100148D01*
X196442Y100438D01*
X196329Y100711D01*
X196165Y100956D01*
X195956Y101165D01*
X195711Y101329D01*
X195438Y101442D01*
X195148Y101500D01*
X195000D01*
X194852D01*
X194562Y101442D01*
X194289Y101329D01*
X194044Y101165D01*
X193835Y100956D01*
X193671Y100711D01*
X193558Y100438D01*
X193500Y100148D01*
Y100000D01*
D01*
D02*
G37*
G36*
X5150Y193625D02*
X5002D01*
X4712Y193683D01*
X4439Y193796D01*
X4194Y193960D01*
X3985Y194169D01*
X3821Y194414D01*
X3708Y194687D01*
X3650Y194977D01*
Y195125D01*
Y195273D01*
X3708Y195563D01*
X3821Y195836D01*
X3985Y196081D01*
X4194Y196290D01*
X4439Y196454D01*
X4712Y196567D01*
X5002Y196625D01*
X5150D01*
X5298D01*
X5588Y196567D01*
X5861Y196454D01*
X6106Y196290D01*
X6315Y196081D01*
X6479Y195836D01*
X6592Y195563D01*
X6650Y195273D01*
Y195125D01*
Y194977D01*
X6592Y194687D01*
X6479Y194414D01*
X6315Y194169D01*
X6106Y193960D01*
X5861Y193796D01*
X5588Y193683D01*
X5298Y193625D01*
X5150D01*
D01*
D02*
G37*
G36*
X3650Y5125D02*
Y4977D01*
X3708Y4687D01*
X3821Y4414D01*
X3985Y4169D01*
X4194Y3960D01*
X4439Y3796D01*
X4712Y3683D01*
X5002Y3625D01*
X5150D01*
X5298D01*
X5588Y3683D01*
X5861Y3796D01*
X6106Y3960D01*
X6315Y4169D01*
X6479Y4414D01*
X6592Y4687D01*
X6650Y4977D01*
Y5125D01*
Y5273D01*
X6592Y5563D01*
X6479Y5836D01*
X6315Y6081D01*
X6106Y6290D01*
X5861Y6454D01*
X5588Y6567D01*
X5298Y6625D01*
X5150D01*
X5002D01*
X4712Y6567D01*
X4439Y6454D01*
X4194Y6290D01*
X3985Y6081D01*
X3821Y5836D01*
X3708Y5563D01*
X3650Y5273D01*
Y5125D01*
D01*
D02*
G37*
G36*
X210650Y195125D02*
Y194977D01*
X210708Y194687D01*
X210821Y194414D01*
X210985Y194169D01*
X211194Y193960D01*
X211439Y193796D01*
X211712Y193683D01*
X212002Y193625D01*
X212150D01*
X212298D01*
X212588Y193683D01*
X212861Y193796D01*
X213106Y193960D01*
X213315Y194169D01*
X213479Y194414D01*
X213592Y194687D01*
X213650Y194977D01*
Y195125D01*
Y195273D01*
X213592Y195563D01*
X213479Y195836D01*
X213315Y196081D01*
X213106Y196290D01*
X212861Y196454D01*
X212588Y196567D01*
X212298Y196625D01*
X212150D01*
X212002D01*
X211712Y196567D01*
X211439Y196454D01*
X211194Y196290D01*
X210985Y196081D01*
X210821Y195836D01*
X210708Y195563D01*
X210650Y195273D01*
Y195125D01*
D01*
D02*
G37*
G36*
X210625Y5125D02*
Y4977D01*
X210683Y4687D01*
X210796Y4414D01*
X210960Y4169D01*
X211169Y3960D01*
X211414Y3796D01*
X211687Y3683D01*
X211977Y3625D01*
X212125D01*
X212273D01*
X212563Y3683D01*
X212836Y3796D01*
X213081Y3960D01*
X213290Y4169D01*
X213454Y4414D01*
X213567Y4687D01*
X213625Y4977D01*
Y5125D01*
Y5273D01*
X213567Y5563D01*
X213454Y5836D01*
X213290Y6081D01*
X213081Y6290D01*
X212836Y6454D01*
X212563Y6567D01*
X212273Y6625D01*
X212125D01*
X211977D01*
X211687Y6567D01*
X211414Y6454D01*
X211169Y6290D01*
X210960Y6081D01*
X210796Y5836D01*
X210683Y5563D01*
X210625Y5273D01*
Y5125D01*
D01*
D02*
G37*
D203*
X25Y4960D02*
G03*
X5150Y-2I5125J165D01*
G01*
D02*
G03*
X5151Y-2I-0J127D01*
G01*
X211998Y-2D01*
X212125D01*
D02*
G03*
X212148Y-0I0J127D01*
G01*
D02*
G03*
X217127Y5125I-148J5125D01*
G01*
X217127Y195125D01*
D02*
G03*
X217127Y195128I-127J-0D01*
G01*
D02*
G02*
X217127Y195125I-1282J-2D01*
G01*
Y195128D01*
D02*
G03*
X212179Y200249I-5127J-3D01*
G01*
D02*
G03*
X212152Y200252I-28J-124D01*
G01*
X5153Y200252D01*
D02*
G03*
X5150Y200252I-3J-127D01*
G01*
D02*
G03*
X23Y195125I0J-5127D01*
G01*
D02*
G03*
X23Y195116I127J-0D01*
G01*
D02*
G03*
X-2Y195039I102J-76D01*
G01*
X-2Y5039D01*
D02*
G03*
X25Y4960I127J0D01*
G01*
%TF.MD5,a0d75f5fcdf132ce4fc8c9cd71c5fe18*%
M02*
