%TF.GenerationSoftware,Altium Limited,Altium Designer,21.6.4 (81)*%
G04 Layer_Color=16711935*
%FSLAX43Y43*%
%MOMM*%
%TF.SameCoordinates,5D8205C6-A8A5-4108-8313-488A8EE5113E*%
%TF.FilePolarity,Positive*%
%TF.FileFunction,Other,Mechanical_13*%
%TF.Part,Single*%
G01*
G75*
%TA.AperFunction,NonConductor*%
%ADD82C,0.200*%
%ADD85C,0.076*%
%ADD117C,0.100*%
%ADD119C,0.000*%
%ADD120C,0.025*%
D82*
X205359Y68072D02*
X209677D01*
X205359Y63754D02*
Y68072D01*
Y63754D02*
X209677D01*
Y68072D01*
X185801D02*
X190119D01*
X185801Y63754D02*
Y68072D01*
Y63754D02*
X190119D01*
Y68072D01*
X185801Y148204D02*
X190119D01*
Y152522D01*
X185801D02*
X190119D01*
X185801Y148204D02*
Y152522D01*
X205359Y148209D02*
Y152527D01*
X209677D01*
Y148209D02*
Y152527D01*
X205359Y148209D02*
X209677D01*
D85*
X119151Y71429D02*
X118305Y70582D01*
X119151D02*
X118305Y71429D01*
X119151Y71005D02*
X118305D01*
X118728Y70582D02*
Y71429D01*
X119151Y55681D02*
X118305Y54834D01*
X119151D02*
X118305Y55681D01*
X119151Y55257D02*
X118305D01*
X118728Y54834D02*
Y55681D01*
X119151Y167187D02*
X118305Y166340D01*
X119151D02*
X118305Y167187D01*
X119151Y166763D02*
X118305D01*
X118728Y166340D02*
Y167187D01*
X119151Y151439D02*
X118305Y150592D01*
X119151D02*
X118305Y151439D01*
X119151Y151015D02*
X118305D01*
X118728Y150592D02*
Y151439D01*
X119151Y135310D02*
X118305Y134463D01*
X119151D02*
X118305Y135310D01*
X119151Y134886D02*
X118305D01*
X118728Y134463D02*
Y135310D01*
X119151Y119562D02*
X118305Y118715D01*
X119151D02*
X118305Y119562D01*
X119151Y119138D02*
X118305D01*
X118728Y118715D02*
Y119562D01*
X119151Y103306D02*
X118305Y102459D01*
X119151D02*
X118305Y103306D01*
X119151Y102882D02*
X118305D01*
X118728Y102459D02*
Y103306D01*
X119151Y87558D02*
X118305Y86711D01*
X119151D02*
X118305Y87558D01*
X119151Y87134D02*
X118305D01*
X118728Y86711D02*
Y87558D01*
X145428Y65401D02*
X144581Y66247D01*
X145428D02*
X144581Y65401D01*
X145428Y65824D02*
X144581D01*
X145005Y66247D02*
Y65401D01*
X180734D02*
X179887Y66247D01*
X180734D02*
X179887Y65401D01*
X180734Y65824D02*
X179887D01*
X180311Y66247D02*
Y65401D01*
X163081D02*
X162234Y66247D01*
X163081D02*
X162234Y65401D01*
X163081Y65824D02*
X162234D01*
X162658Y66247D02*
Y65401D01*
D117*
X161245Y156554D02*
X165145D01*
Y161454D01*
X161245D02*
X165145D01*
X161245Y156554D02*
Y161454D01*
Y157824D02*
X162515Y156554D01*
X167933Y164594D02*
X168433Y164094D01*
X167933D02*
Y165344D01*
X169633D01*
Y164094D02*
Y165344D01*
X167933Y164094D02*
X169633D01*
X174029Y165344D02*
X174529Y164844D01*
Y164094D02*
Y165344D01*
X172829Y164094D02*
X174529D01*
X172829D02*
Y165344D01*
X174529D01*
X136938Y98655D02*
Y100317D01*
X136107Y99486D02*
X139147Y102526D01*
X144309Y97364D01*
X141269Y94324D02*
X144309Y97364D01*
X136107Y99486D02*
X141269Y94324D01*
X215320Y72977D02*
X219020D01*
X215320Y79677D02*
X219020D01*
X215320Y72977D02*
Y79677D01*
X219020Y72977D02*
Y79677D01*
X213893Y123606D02*
X215293Y126181D01*
X213893Y118456D02*
Y123606D01*
Y118456D02*
X215293Y115881D01*
X224193D01*
Y126181D01*
X215293D02*
X224193D01*
X218968Y44644D02*
Y50444D01*
X211308Y44644D02*
X218968D01*
X211308D02*
Y50444D01*
X218968D01*
X210713Y44644D02*
Y50444D01*
X203053Y44644D02*
X210713D01*
X203053D02*
Y50444D01*
X210713D01*
X190393Y44644D02*
Y50444D01*
X182733Y44644D02*
X190393D01*
X182733D02*
Y50444D01*
X190393D01*
X198648Y44644D02*
Y50444D01*
X190988Y44644D02*
X198648D01*
X190988D02*
Y50444D01*
X198648D01*
X213893Y90459D02*
X215293Y93034D01*
X213893Y85309D02*
Y90459D01*
Y85309D02*
X215293Y82734D01*
X224193D01*
Y93034D01*
X215293D02*
X224193D01*
X165164Y144399D02*
X175704Y144399D01*
X165164Y141859D02*
Y144399D01*
Y141859D02*
X175704Y141859D01*
Y144399D01*
X176594Y141859D02*
X187134Y141859D01*
Y144399D01*
X176594Y144399D02*
X187134Y144399D01*
X176594Y141859D02*
Y144399D01*
X211308Y165837D02*
X218968D01*
Y171637D01*
X211308D02*
X218968D01*
X211308Y165837D02*
Y171637D01*
X203053Y165837D02*
X210713D01*
Y171637D01*
X203053D02*
X210713D01*
X203053Y165837D02*
Y171637D01*
X190988Y165883D02*
X198648D01*
Y171683D01*
X190988D02*
X198648D01*
X190988Y165883D02*
Y171683D01*
X182733Y165883D02*
X190393D01*
Y171683D01*
X182733D02*
X190393D01*
X182733Y165883D02*
Y171683D01*
X138156Y162835D02*
Y168635D01*
X145816D01*
Y162835D02*
Y168635D01*
X138156Y162835D02*
X145816D01*
X129774Y162789D02*
Y168589D01*
X137434D01*
Y162789D02*
Y168589D01*
X129774Y162789D02*
X137434D01*
D119*
X116916Y71717D02*
G03*
X117526Y71717I305J0D01*
G01*
X116916Y55969D02*
G03*
X117526Y55969I305J0D01*
G01*
X116916Y167475D02*
G03*
X117526Y167475I305J0D01*
G01*
X116916Y151727D02*
G03*
X117526Y151727I305J0D01*
G01*
X116916Y135598D02*
G03*
X117526Y135598I305J0D01*
G01*
X116916Y119850D02*
G03*
X117526Y119850I305J0D01*
G01*
X116916Y103594D02*
G03*
X117526Y103594I305J0D01*
G01*
X116916Y87846D02*
G03*
X117526Y87846I305J0D01*
G01*
X160746Y111824D02*
G03*
X160746Y111824I-76J0D01*
G01*
X144247Y67818D02*
G03*
X144247Y67818I-1753J0D01*
G01*
X179553D02*
G03*
X179553Y67818I-1753J0D01*
G01*
X161900D02*
G03*
X161900Y67818I-1753J0D01*
G01*
D120*
X119215Y66713D02*
Y71717D01*
X115227D02*
X119215D01*
X115227Y66713D02*
Y71717D01*
Y66713D02*
X119215D01*
X114122Y71374D02*
X115227D01*
X114122Y70866D02*
Y71374D01*
Y70866D02*
X115227D01*
Y71374D01*
X114122Y70104D02*
X115227D01*
X114122Y69596D02*
Y70104D01*
Y69596D02*
X115227D01*
Y70104D01*
X114122Y68834D02*
X115227D01*
X114122Y68326D02*
Y68834D01*
Y68326D02*
X115227D01*
Y68834D01*
X114122Y67564D02*
X115227D01*
X114122Y67056D02*
Y67564D01*
Y67056D02*
X115227D01*
Y67564D01*
X119215Y67056D02*
X120320D01*
Y67564D01*
X119215D02*
X120320D01*
X119215Y67056D02*
Y67564D01*
Y68326D02*
X120320D01*
Y68834D01*
X119215D02*
X120320D01*
X119215Y68326D02*
Y68834D01*
Y69596D02*
X120320D01*
Y70104D01*
X119215D02*
X120320D01*
X119215Y69596D02*
Y70104D01*
Y70866D02*
X120320D01*
Y71374D01*
X119215D02*
X120320D01*
X119215Y70866D02*
Y71374D01*
Y50965D02*
Y55969D01*
X115227D02*
X119215D01*
X115227Y50965D02*
Y55969D01*
Y50965D02*
X119215D01*
X114122Y55626D02*
X115227D01*
X114122Y55118D02*
Y55626D01*
Y55118D02*
X115227D01*
Y55626D01*
X114122Y54356D02*
X115227D01*
X114122Y53848D02*
Y54356D01*
Y53848D02*
X115227D01*
Y54356D01*
X114122Y53086D02*
X115227D01*
X114122Y52578D02*
Y53086D01*
Y52578D02*
X115227D01*
Y53086D01*
X114122Y51816D02*
X115227D01*
X114122Y51308D02*
Y51816D01*
Y51308D02*
X115227D01*
Y51816D01*
X119215Y51308D02*
X120320D01*
Y51816D01*
X119215D02*
X120320D01*
X119215Y51308D02*
Y51816D01*
Y52578D02*
X120320D01*
Y53086D01*
X119215D02*
X120320D01*
X119215Y52578D02*
Y53086D01*
Y53848D02*
X120320D01*
Y54356D01*
X119215D02*
X120320D01*
X119215Y53848D02*
Y54356D01*
Y55118D02*
X120320D01*
Y55626D01*
X119215D02*
X120320D01*
X119215Y55118D02*
Y55626D01*
Y162471D02*
Y167475D01*
X115227D02*
X119215D01*
X115227Y162471D02*
Y167475D01*
Y162471D02*
X119215D01*
X114122Y167132D02*
X115227D01*
X114122Y166624D02*
Y167132D01*
Y166624D02*
X115227D01*
Y167132D01*
X114122Y165862D02*
X115227D01*
X114122Y165354D02*
Y165862D01*
Y165354D02*
X115227D01*
Y165862D01*
X114122Y164592D02*
X115227D01*
X114122Y164084D02*
Y164592D01*
Y164084D02*
X115227D01*
Y164592D01*
X114122Y163322D02*
X115227D01*
X114122Y162814D02*
Y163322D01*
Y162814D02*
X115227D01*
Y163322D01*
X119215Y162814D02*
X120320D01*
Y163322D01*
X119215D02*
X120320D01*
X119215Y162814D02*
Y163322D01*
Y164084D02*
X120320D01*
Y164592D01*
X119215D02*
X120320D01*
X119215Y164084D02*
Y164592D01*
Y165354D02*
X120320D01*
Y165862D01*
X119215D02*
X120320D01*
X119215Y165354D02*
Y165862D01*
Y166624D02*
X120320D01*
Y167132D01*
X119215D02*
X120320D01*
X119215Y166624D02*
Y167132D01*
Y146723D02*
Y151727D01*
X115227D02*
X119215D01*
X115227Y146723D02*
Y151727D01*
Y146723D02*
X119215D01*
X114122Y151384D02*
X115227D01*
X114122Y150876D02*
Y151384D01*
Y150876D02*
X115227D01*
Y151384D01*
X114122Y150114D02*
X115227D01*
X114122Y149606D02*
Y150114D01*
Y149606D02*
X115227D01*
Y150114D01*
X114122Y148844D02*
X115227D01*
X114122Y148336D02*
Y148844D01*
Y148336D02*
X115227D01*
Y148844D01*
X114122Y147574D02*
X115227D01*
X114122Y147066D02*
Y147574D01*
Y147066D02*
X115227D01*
Y147574D01*
X119215Y147066D02*
X120320D01*
Y147574D01*
X119215D02*
X120320D01*
X119215Y147066D02*
Y147574D01*
Y148336D02*
X120320D01*
Y148844D01*
X119215D02*
X120320D01*
X119215Y148336D02*
Y148844D01*
Y149606D02*
X120320D01*
Y150114D01*
X119215D02*
X120320D01*
X119215Y149606D02*
Y150114D01*
Y150876D02*
X120320D01*
Y151384D01*
X119215D02*
X120320D01*
X119215Y150876D02*
Y151384D01*
Y130594D02*
Y135598D01*
X115227D02*
X119215D01*
X115227Y130594D02*
Y135598D01*
Y130594D02*
X119215D01*
X114122Y135255D02*
X115227D01*
X114122Y134747D02*
Y135255D01*
Y134747D02*
X115227D01*
Y135255D01*
X114122Y133985D02*
X115227D01*
X114122Y133477D02*
Y133985D01*
Y133477D02*
X115227D01*
Y133985D01*
X114122Y132715D02*
X115227D01*
X114122Y132207D02*
Y132715D01*
Y132207D02*
X115227D01*
Y132715D01*
X114122Y131445D02*
X115227D01*
X114122Y130937D02*
Y131445D01*
Y130937D02*
X115227D01*
Y131445D01*
X119215Y130937D02*
X120320D01*
Y131445D01*
X119215D02*
X120320D01*
X119215Y130937D02*
Y131445D01*
Y132207D02*
X120320D01*
Y132715D01*
X119215D02*
X120320D01*
X119215Y132207D02*
Y132715D01*
Y133477D02*
X120320D01*
Y133985D01*
X119215D02*
X120320D01*
X119215Y133477D02*
Y133985D01*
Y134747D02*
X120320D01*
Y135255D01*
X119215D02*
X120320D01*
X119215Y134747D02*
Y135255D01*
Y114846D02*
Y119850D01*
X115227D02*
X119215D01*
X115227Y114846D02*
Y119850D01*
Y114846D02*
X119215D01*
X114122Y119507D02*
X115227D01*
X114122Y118999D02*
Y119507D01*
Y118999D02*
X115227D01*
Y119507D01*
X114122Y118237D02*
X115227D01*
X114122Y117729D02*
Y118237D01*
Y117729D02*
X115227D01*
Y118237D01*
X114122Y116967D02*
X115227D01*
X114122Y116459D02*
Y116967D01*
Y116459D02*
X115227D01*
Y116967D01*
X114122Y115697D02*
X115227D01*
X114122Y115189D02*
Y115697D01*
Y115189D02*
X115227D01*
Y115697D01*
X119215Y115189D02*
X120320D01*
Y115697D01*
X119215D02*
X120320D01*
X119215Y115189D02*
Y115697D01*
Y116459D02*
X120320D01*
Y116967D01*
X119215D02*
X120320D01*
X119215Y116459D02*
Y116967D01*
Y117729D02*
X120320D01*
Y118237D01*
X119215D02*
X120320D01*
X119215Y117729D02*
Y118237D01*
Y118999D02*
X120320D01*
Y119507D01*
X119215D02*
X120320D01*
X119215Y118999D02*
Y119507D01*
Y98590D02*
Y103594D01*
X115227D02*
X119215D01*
X115227Y98590D02*
Y103594D01*
Y98590D02*
X119215D01*
X114122Y103251D02*
X115227D01*
X114122Y102743D02*
Y103251D01*
Y102743D02*
X115227D01*
Y103251D01*
X114122Y101981D02*
X115227D01*
X114122Y101473D02*
Y101981D01*
Y101473D02*
X115227D01*
Y101981D01*
X114122Y100711D02*
X115227D01*
X114122Y100203D02*
Y100711D01*
Y100203D02*
X115227D01*
Y100711D01*
X114122Y99441D02*
X115227D01*
X114122Y98933D02*
Y99441D01*
Y98933D02*
X115227D01*
Y99441D01*
X119215Y98933D02*
X120320D01*
Y99441D01*
X119215D02*
X120320D01*
X119215Y98933D02*
Y99441D01*
Y100203D02*
X120320D01*
Y100711D01*
X119215D02*
X120320D01*
X119215Y100203D02*
Y100711D01*
Y101473D02*
X120320D01*
Y101981D01*
X119215D02*
X120320D01*
X119215Y101473D02*
Y101981D01*
Y102743D02*
X120320D01*
Y103251D01*
X119215D02*
X120320D01*
X119215Y102743D02*
Y103251D01*
Y82842D02*
Y87846D01*
X115227D02*
X119215D01*
X115227Y82842D02*
Y87846D01*
Y82842D02*
X119215D01*
X114122Y87503D02*
X115227D01*
X114122Y86995D02*
Y87503D01*
Y86995D02*
X115227D01*
Y87503D01*
X114122Y86233D02*
X115227D01*
X114122Y85725D02*
Y86233D01*
Y85725D02*
X115227D01*
Y86233D01*
X114122Y84963D02*
X115227D01*
X114122Y84455D02*
Y84963D01*
Y84455D02*
X115227D01*
Y84963D01*
X114122Y83693D02*
X115227D01*
X114122Y83185D02*
Y83693D01*
Y83185D02*
X115227D01*
Y83693D01*
X119215Y83185D02*
X120320D01*
Y83693D01*
X119215D02*
X120320D01*
X119215Y83185D02*
Y83693D01*
Y84455D02*
X120320D01*
Y84963D01*
X119215D02*
X120320D01*
X119215Y84455D02*
Y84963D01*
Y85725D02*
X120320D01*
Y86233D01*
X119215D02*
X120320D01*
X119215Y85725D02*
Y86233D01*
Y86995D02*
X120320D01*
Y87503D01*
X119215D02*
X120320D01*
X119215Y86995D02*
Y87503D01*
X156591Y106931D02*
X161674Y112014D01*
X156591Y117097D02*
X161674Y112014D01*
X151508D02*
X156591Y117097D01*
X151508Y112014D02*
X156591Y106931D01*
X160776Y112912D02*
X160776Y111116D01*
X145491Y65215D02*
Y65926D01*
Y65215D02*
X147498D01*
Y65926D01*
X145491D02*
X147498D01*
X145491Y69710D02*
Y70422D01*
Y69710D02*
X147498D01*
Y70422D01*
X145491D02*
X147498D01*
X139497Y69710D02*
Y70422D01*
X137490D02*
X139497D01*
X137490Y69710D02*
Y70422D01*
Y69710D02*
X139497D01*
Y65215D02*
Y65926D01*
X137490D02*
X139497D01*
X137490Y65215D02*
Y65926D01*
Y65215D02*
X139497D01*
Y70815D02*
X145491D01*
X139497Y64821D02*
Y70815D01*
Y64821D02*
X145491D01*
Y70815D01*
X180797Y65215D02*
Y65926D01*
Y65215D02*
X182804D01*
Y65926D01*
X180797D02*
X182804D01*
X180797Y69710D02*
Y70422D01*
Y69710D02*
X182804D01*
Y70422D01*
X180797D02*
X182804D01*
X174803Y69710D02*
Y70422D01*
X172796D02*
X174803D01*
X172796Y69710D02*
Y70422D01*
Y69710D02*
X174803D01*
Y65215D02*
Y65926D01*
X172796D02*
X174803D01*
X172796Y65215D02*
Y65926D01*
Y65215D02*
X174803D01*
Y70815D02*
X180797D01*
X174803Y64821D02*
Y70815D01*
Y64821D02*
X180797D01*
Y70815D01*
X163144Y65215D02*
Y65926D01*
Y65215D02*
X165151D01*
Y65926D01*
X163144D02*
X165151D01*
X163144Y69710D02*
Y70422D01*
Y69710D02*
X165151D01*
Y70422D01*
X163144D02*
X165151D01*
X157150Y69710D02*
Y70422D01*
X155143D02*
X157150D01*
X155143Y69710D02*
Y70422D01*
Y69710D02*
X157150D01*
Y65215D02*
Y65926D01*
X155143D02*
X157150D01*
X155143Y65215D02*
Y65926D01*
Y65215D02*
X157150D01*
Y70815D02*
X163144D01*
X157150Y64821D02*
Y70815D01*
Y64821D02*
X163144D01*
Y70815D01*
X190933Y111731D02*
X192203D01*
X191187Y111096D02*
Y112366D01*
Y111731D02*
X191949Y112366D01*
X191187Y111731D02*
X191949Y112239D01*
X191187Y111731D02*
X191949Y112112D01*
X191187Y111731D02*
X191949Y111985D01*
X191187Y111731D02*
X191949Y111858D01*
X191187Y111731D02*
X191949Y111096D01*
X191187Y111731D02*
X191949Y111223D01*
X191187Y111731D02*
X191949Y111350D01*
X191187Y111731D02*
X191949Y111477D01*
X191187Y111731D02*
X191949Y111604D01*
Y111096D02*
Y112366D01*
X194768Y111731D02*
X200966D01*
X210465D02*
X216663D01*
X200966Y109076D02*
X210465D01*
Y114385D01*
X200966D02*
X210465D01*
X200966Y109076D02*
Y114385D01*
X200838Y94247D02*
Y99555D01*
X210337D01*
Y94247D02*
Y99555D01*
X200838Y94247D02*
X210337D01*
Y96901D02*
X216535D01*
X194640D02*
X200838D01*
X191821Y96266D02*
Y97536D01*
X191059Y96901D02*
X191821Y96774D01*
X191059Y96901D02*
X191821Y96647D01*
X191059Y96901D02*
X191821Y96520D01*
X191059Y96901D02*
X191821Y96393D01*
X191059Y96901D02*
X191821Y96266D01*
X191059Y96901D02*
X191821Y97028D01*
X191059Y96901D02*
X191821Y97155D01*
X191059Y96901D02*
X191821Y97282D01*
X191059Y96901D02*
X191821Y97409D01*
X191059Y96901D02*
X191821Y97536D01*
X191059Y96266D02*
Y97536D01*
X190805Y96901D02*
X192075D01*
%TF.MD5,e0f263b6c8eb788758ac6bafb23c5b3e*%
M02*
