%TF.GenerationSoftware,Altium Limited,Altium Designer,21.6.4 (81)*%
G04 Layer_Color=32896*
%FSLAX43Y43*%
%MOMM*%
%TF.SameCoordinates,5D8205C6-A8A5-4108-8313-488A8EE5113E*%
%TF.FilePolarity,Positive*%
%TF.FileFunction,Other,Bottom_3D_Body*%
%TF.Part,Single*%
G01*
G75*
%TA.AperFunction,NonConductor*%
%ADD82C,0.200*%
D82*
X69749Y49075D02*
X74499D01*
X69749Y46175D02*
Y49075D01*
Y46175D02*
X74499D01*
Y49075D01*
X69876Y60378D02*
X74626D01*
X69876Y57478D02*
Y60378D01*
Y57478D02*
X74626D01*
Y60378D01*
X69876Y65077D02*
X74626D01*
X69876Y62177D02*
Y65077D01*
Y62177D02*
X74626D01*
Y65077D01*
X69749Y81079D02*
X74499D01*
X69749Y78179D02*
Y81079D01*
Y78179D02*
X74499D01*
Y81079D01*
X69876Y92509D02*
X74626D01*
X69876Y89609D02*
Y92509D01*
Y89609D02*
X74626D01*
Y92509D01*
X69876Y96954D02*
X74626D01*
X69876Y94054D02*
Y96954D01*
Y94054D02*
X74626D01*
Y96954D01*
X69876Y108384D02*
X74626D01*
X69876Y105484D02*
Y108384D01*
Y105484D02*
X74626D01*
Y108384D01*
X69888Y112829D02*
X74638D01*
X69888Y109929D02*
Y112829D01*
Y109929D02*
X74638D01*
Y112829D01*
X70015Y124386D02*
X74765D01*
X70015Y121486D02*
Y124386D01*
Y121486D02*
X74765D01*
Y124386D01*
X69888Y128831D02*
X74638D01*
X69888Y125931D02*
Y128831D01*
Y125931D02*
X74638D01*
Y128831D01*
X69761Y140388D02*
X74511D01*
X69761Y137488D02*
Y140388D01*
Y137488D02*
X74511D01*
Y140388D01*
X69749Y144960D02*
X74499D01*
X69749Y142060D02*
Y144960D01*
Y142060D02*
X74499D01*
Y144960D01*
X69888Y156390D02*
X74638D01*
X69888Y153490D02*
Y156390D01*
Y153490D02*
X74638D01*
Y156390D01*
X69888Y160835D02*
X74638D01*
X69888Y157935D02*
Y160835D01*
Y157935D02*
X74638D01*
Y160835D01*
X69888Y172138D02*
X74638D01*
X69888Y169238D02*
Y172138D01*
Y169238D02*
X74638D01*
Y172138D01*
X69888Y76507D02*
X74638D01*
X69888Y73607D02*
Y76507D01*
Y73607D02*
X74638D01*
Y76507D01*
X104720Y79972D02*
Y81572D01*
X101020Y79972D02*
X104720D01*
X101020D02*
Y81572D01*
X104720D01*
X104593Y89370D02*
Y90970D01*
X100893Y89370D02*
X104593D01*
X100893D02*
Y90970D01*
X104593D01*
X104817Y152870D02*
Y154470D01*
X101117Y152870D02*
X104817D01*
X101117D02*
Y154470D01*
X104817D01*
X122946Y159147D02*
X124196D01*
X122946D02*
Y161147D01*
X124196D01*
Y159147D02*
Y161147D01*
X122946Y79518D02*
X124196D01*
X122946D02*
Y81518D01*
X124196D01*
Y79518D02*
Y81518D01*
X122946Y63389D02*
X124196D01*
X122946D02*
Y65389D01*
X124196D01*
Y63389D02*
Y65389D01*
X122946Y47641D02*
X124196D01*
X122946D02*
Y49641D01*
X124196D01*
Y47641D02*
Y49641D01*
X122414Y56325D02*
Y59245D01*
X127014D01*
Y56325D02*
Y59245D01*
X122414Y56325D02*
X127014D01*
X122414Y71946D02*
Y74866D01*
X127014D01*
Y71946D02*
Y74866D01*
X122414Y71946D02*
X127014D01*
X122414Y88456D02*
Y91376D01*
X127014D01*
Y88456D02*
Y91376D01*
X122414Y88456D02*
X127014D01*
X122414Y103569D02*
Y106489D01*
X127014D01*
Y103569D02*
Y106489D01*
X122414Y103569D02*
X127014D01*
X122414Y120079D02*
Y122999D01*
X127014D01*
Y120079D02*
Y122999D01*
X122414Y120079D02*
X127014D01*
X122414Y135700D02*
Y138620D01*
X127014D01*
Y135700D02*
Y138620D01*
X122414Y135700D02*
X127014D01*
X122287Y152210D02*
Y155130D01*
X126887D01*
Y152210D02*
Y155130D01*
X122287Y152210D02*
X126887D01*
X122382Y167831D02*
Y170751D01*
X126982D01*
Y167831D02*
Y170751D01*
X122382Y167831D02*
X126982D01*
X116596Y170418D02*
X117846D01*
Y168418D02*
Y170418D01*
X116596Y168418D02*
X117846D01*
X116596D02*
Y170418D01*
X116469Y154889D02*
X117719D01*
Y152889D02*
Y154889D01*
X116469Y152889D02*
X117719D01*
X116469D02*
Y154889D01*
X116596Y138760D02*
X117846D01*
Y136760D02*
Y138760D01*
X116596Y136760D02*
X117846D01*
X116596D02*
Y138760D01*
Y123139D02*
X117846D01*
Y121139D02*
Y123139D01*
X116596Y121139D02*
X117846D01*
X116596D02*
Y123139D01*
Y106537D02*
X117846D01*
Y104537D02*
Y106537D01*
X116596Y104537D02*
X117846D01*
X116596D02*
Y106537D01*
Y90916D02*
X117846D01*
Y88916D02*
Y90916D01*
X116596Y88916D02*
X117846D01*
X116596D02*
Y90916D01*
Y58912D02*
X117846D01*
Y56912D02*
Y58912D01*
X116596Y56912D02*
X117846D01*
X116596D02*
Y58912D01*
X110524Y54697D02*
Y56047D01*
X108424Y54697D02*
X110524D01*
X108424D02*
Y56047D01*
X110524D01*
X109889Y70064D02*
Y71414D01*
X107789Y70064D02*
X109889D01*
X107789D02*
Y71414D01*
X109889D01*
X110651Y86066D02*
Y87416D01*
X108551Y86066D02*
X110651D01*
X108551D02*
Y87416D01*
X110651D01*
X110524Y101814D02*
Y103164D01*
X108424Y101814D02*
X110524D01*
X108424D02*
Y103164D01*
X110524D01*
X109889Y117689D02*
Y119039D01*
X107789Y117689D02*
X109889D01*
X107789D02*
Y119039D01*
X109889D01*
X109728Y134072D02*
Y135422D01*
X107628Y134072D02*
X109728D01*
X107628D02*
Y135422D01*
X109728D01*
X109635Y150455D02*
Y151805D01*
X107535Y150455D02*
X109635D01*
X107535D02*
Y151805D01*
X109635D01*
X104750Y168872D02*
Y170472D01*
X101050Y168872D02*
X104750D01*
X101050D02*
Y170472D01*
X104750D01*
X102854Y165872D02*
Y167122D01*
X100854Y165872D02*
X102854D01*
X100854D02*
Y167122D01*
X102854D01*
X102941Y149997D02*
Y151247D01*
X100941Y149997D02*
X102941D01*
X100941D02*
Y151247D01*
X102941D01*
X104720Y143726D02*
Y145326D01*
X101020Y143726D02*
X104720D01*
X101020D02*
Y145326D01*
X104720D01*
X104750Y136995D02*
Y138595D01*
X101050Y136995D02*
X104750D01*
X101050D02*
Y138595D01*
X104750D01*
X104720Y127724D02*
Y129324D01*
X101020Y127724D02*
X104720D01*
X101020D02*
Y129324D01*
X104720D01*
X102854Y133741D02*
Y134991D01*
X100854Y133741D02*
X102854D01*
X100854D02*
Y134991D01*
X102854D01*
X104750Y111722D02*
Y113322D01*
X101050Y111722D02*
X104750D01*
X101050D02*
Y113322D01*
X104750D01*
Y120866D02*
Y122466D01*
X101050Y120866D02*
X104750D01*
X101050D02*
Y122466D01*
X104750D01*
X102814Y117739D02*
Y118989D01*
X100814Y117739D02*
X102814D01*
X100814D02*
Y118989D01*
X102814D01*
X104750Y95720D02*
Y97320D01*
X101050Y95720D02*
X104750D01*
X101050D02*
Y97320D01*
X104750D01*
Y104864D02*
Y106464D01*
X101050Y104864D02*
X104750D01*
X101050D02*
Y106464D01*
X104750D01*
X102814Y101864D02*
Y103114D01*
X100814Y101864D02*
X102814D01*
X100814D02*
Y103114D01*
X102814D01*
X104847Y63081D02*
Y64681D01*
X101147Y63081D02*
X104847D01*
X101147D02*
Y64681D01*
X104847D01*
X104720Y57112D02*
Y58712D01*
X101020Y57112D02*
X104720D01*
X101020D02*
Y58712D01*
X104720D01*
X102854Y54112D02*
Y55362D01*
X100854Y54112D02*
X102854D01*
X100854D02*
Y55362D01*
X102854D01*
X141585Y101611D02*
X143140Y100056D01*
X144165Y101081D01*
X142610Y102636D02*
X144165Y101081D01*
X141585Y101611D02*
X142610Y102636D01*
X162921Y102732D02*
X163946Y101707D01*
X162921Y102732D02*
X164476Y104287D01*
X165501Y103262D01*
X163946Y101707D02*
X165501Y103262D01*
X159522Y71136D02*
X160772D01*
X159522D02*
Y73136D01*
X160772D01*
Y71136D02*
Y73136D01*
X177048Y65548D02*
X178298D01*
X177048D02*
Y67548D01*
X178298D01*
Y65548D02*
Y67548D01*
X141742Y65421D02*
X142992D01*
X141742D02*
Y67421D01*
X142992D01*
Y65421D02*
Y67421D01*
X159522Y65548D02*
X160772D01*
X159522D02*
Y67548D01*
X160772D01*
Y65548D02*
Y67548D01*
X186833Y55382D02*
Y56632D01*
X188833D01*
Y55382D02*
Y56632D01*
X186833Y55382D02*
X188833D01*
X219508Y80977D02*
Y84377D01*
X213308Y80977D02*
X219508D01*
X213308D02*
Y84377D01*
X219508D01*
X210367Y85687D02*
Y87287D01*
X214067D01*
Y85687D02*
Y87287D01*
X210367Y85687D02*
X214067D01*
X142992Y71101D02*
Y73101D01*
X141742D02*
X142992D01*
X141742Y71101D02*
Y73101D01*
Y71101D02*
X142992D01*
X178298Y71136D02*
Y73136D01*
X177048D02*
X178298D01*
X177048Y71136D02*
Y73136D01*
Y71136D02*
X178298D01*
X194193Y166735D02*
X195443D01*
Y164735D02*
Y166735D01*
X194193Y164735D02*
X195443D01*
X194193D02*
Y166735D01*
X195443Y49419D02*
Y51419D01*
X194193D02*
X195443D01*
X194193Y49419D02*
Y51419D01*
Y49419D02*
X195443D01*
X124196Y143399D02*
Y145399D01*
X122946D02*
X124196D01*
X122946Y143399D02*
Y145399D01*
Y143399D02*
X124196D01*
Y127270D02*
Y129270D01*
X122946D02*
X124196D01*
X122946Y127270D02*
Y129270D01*
Y127270D02*
X124196D01*
Y111522D02*
Y113522D01*
X122946D02*
X124196D01*
X122946Y111522D02*
Y113522D01*
Y111522D02*
X124196D01*
Y95266D02*
Y97266D01*
X122946D02*
X124196D01*
X122946Y95266D02*
Y97266D01*
Y95266D02*
X124196D01*
X116596Y72752D02*
Y74752D01*
Y72752D02*
X117846D01*
Y74752D01*
X116596D02*
X117846D01*
X107535Y166918D02*
X109635D01*
X107535Y165568D02*
Y166918D01*
Y165568D02*
X109635D01*
Y166918D01*
X101274Y74841D02*
X104974D01*
X101274Y73241D02*
Y74841D01*
Y73241D02*
X104974D01*
Y74841D01*
X101108Y71110D02*
X103108D01*
X101108Y69860D02*
Y71110D01*
Y69860D02*
X103108D01*
Y71110D01*
X101020Y49441D02*
X104720D01*
X101020Y47841D02*
Y49441D01*
Y47841D02*
X104720D01*
Y49441D01*
X100814Y87112D02*
X102814D01*
X100814Y85862D02*
Y87112D01*
Y85862D02*
X102814D01*
Y87112D01*
X101050Y161201D02*
X104750D01*
X101050Y159601D02*
Y161201D01*
Y159601D02*
X104750D01*
Y161201D01*
%TF.MD5,14076df7d8002277dd68dff0b061f2bf*%
M02*
