%TF.GenerationSoftware,Altium Limited,Altium Designer,21.6.4 (81)*%
G04 Layer_Color=16711935*
%FSLAX43Y43*%
%MOMM*%
%TF.SameCoordinates,5D8205C6-A8A5-4108-8313-488A8EE5113E*%
%TF.FilePolarity,Positive*%
%TF.FileFunction,Other,Mechanical_5*%
%TF.Part,Single*%
G01*
G75*
G36*
X112683Y50076D02*
X121759D01*
Y56858D01*
X112683D01*
Y50076D01*
D02*
G37*
G36*
Y65824D02*
X121759D01*
Y72606D01*
X112683D01*
Y65824D01*
D02*
G37*
G36*
Y81953D02*
X121759D01*
Y88735D01*
X112683D01*
Y81953D01*
D02*
G37*
G36*
X136500Y71450D02*
X148488D01*
Y64186D01*
X136500D01*
Y71450D01*
D02*
G37*
G36*
X154153D02*
X166141D01*
Y64186D01*
X154153D01*
Y71450D01*
D02*
G37*
G36*
X171806D02*
X183794D01*
Y64186D01*
X171806D01*
Y71450D01*
D02*
G37*
G36*
X121759Y161582D02*
X112683D01*
Y168364D01*
X121759D01*
Y161582D01*
D02*
G37*
G36*
Y145834D02*
X112683D01*
Y152616D01*
X121759D01*
Y145834D01*
D02*
G37*
G36*
Y129705D02*
X112683D01*
Y136487D01*
X121759D01*
Y129705D01*
D02*
G37*
G36*
Y113957D02*
X112683D01*
Y120739D01*
X121759D01*
Y113957D01*
D02*
G37*
G36*
X218073Y108695D02*
X193358D01*
Y114766D01*
X218073D01*
Y108695D01*
D02*
G37*
G36*
X121759Y97701D02*
X112683D01*
Y104483D01*
X121759D01*
Y97701D01*
D02*
G37*
G36*
X217945Y93866D02*
X193230D01*
Y99936D01*
X217945D01*
Y93866D01*
D02*
G37*
%TF.MD5,d25bf888337ae7b55d4a60031cc5f7d5*%
M02*
