%TF.GenerationSoftware,Altium Limited,Altium Designer,21.6.4 (81)*%
G04 Layer_Color=65535*
%FSLAX43Y43*%
%MOMM*%
%TF.SameCoordinates,5D8205C6-A8A5-4108-8313-488A8EE5113E*%
%TF.FilePolarity,Positive*%
%TF.FileFunction,Legend,Top*%
%TF.Part,Single*%
G01*
G75*
%TA.AperFunction,NonConductor*%
%ADD80C,0.250*%
%ADD81C,0.152*%
%ADD82C,0.200*%
%ADD84C,0.254*%
%ADD85C,0.076*%
%ADD110C,1.016*%
%ADD111C,0.635*%
%ADD112C,0.500*%
D80*
X195070Y113880D02*
G03*
X195070Y113880I-125J0D01*
G01*
X175893Y51094D02*
G03*
X175893Y51094I-125J0D01*
G01*
X152627Y53603D02*
G03*
X152627Y53603I-125J0D01*
G01*
X150087D02*
G03*
X150087Y53603I-125J0D01*
G01*
X147547D02*
G03*
X147547Y53603I-125J0D01*
G01*
X212723Y50944D02*
G03*
X212723Y50944I-125J0D01*
G01*
X204468D02*
G03*
X204468Y50944I-125J0D01*
G01*
X184148D02*
G03*
X184148Y50944I-125J0D01*
G01*
X192403D02*
G03*
X192403Y50944I-125J0D01*
G01*
X213739Y83233D02*
G03*
X213739Y83233I-125J0D01*
G01*
X213485Y125422D02*
G03*
X213485Y125422I-125J0D01*
G01*
X166876Y147326D02*
G03*
X166876Y147326I-125J0D01*
G01*
X217803Y165337D02*
G03*
X217803Y165337I-125J0D01*
G01*
X209548D02*
G03*
X209548Y165337I-125J0D01*
G01*
X197483Y165383D02*
G03*
X197483Y165383I-125J0D01*
G01*
X189228D02*
G03*
X189228Y165383I-125J0D01*
G01*
X148207Y162139D02*
G03*
X148207Y162139I-125J0D01*
G01*
X144651Y162335D02*
G03*
X144651Y162335I-125J0D01*
G01*
X136269Y162289D02*
G03*
X136269Y162289I-125J0D01*
G01*
X145419Y49661D02*
X144586D01*
X147697Y170120D02*
X148530D01*
X148114Y170536D02*
Y169703D01*
X160193Y170120D02*
X161026D01*
X179066Y155190D02*
X179899D01*
X178439Y140593D02*
X177606D01*
X173986Y140585D02*
X174819D01*
D81*
X144247Y67818D02*
G03*
X144247Y67818I-1753J0D01*
G01*
X179553D02*
G03*
X179553Y67818I-1753J0D01*
G01*
X161900D02*
G03*
X161900Y67818I-1753J0D01*
G01*
X139370Y70942D02*
X145618D01*
X139370Y64694D02*
Y70942D01*
Y64694D02*
X145618D01*
Y70942D01*
X174676D02*
X180924D01*
X174676Y64694D02*
Y70942D01*
Y64694D02*
X180924D01*
Y70942D01*
X157023D02*
X163271D01*
X157023Y64694D02*
Y70942D01*
Y64694D02*
X163271D01*
Y70942D01*
X190933Y111731D02*
X192203D01*
X191187Y111096D02*
Y112366D01*
Y111731D02*
X191949Y112366D01*
X191187Y111731D02*
X191949Y112239D01*
X191187Y111731D02*
X191949Y112112D01*
X191187Y111731D02*
X191949Y111985D01*
X191187Y111731D02*
X191949Y111858D01*
X191187Y111731D02*
X191949Y111096D01*
X191187Y111731D02*
X191949Y111223D01*
X191187Y111731D02*
X191949Y111350D01*
X191187Y111731D02*
X191949Y111477D01*
X191187Y111731D02*
X191949Y111604D01*
Y111096D02*
Y112366D01*
X200839Y108949D02*
X210592D01*
Y114512D01*
X200839D02*
X210592D01*
X200839Y108949D02*
Y114512D01*
X200711Y94120D02*
Y99682D01*
X210464D01*
Y94120D02*
Y99682D01*
X200711Y94120D02*
X210464D01*
X191821Y96266D02*
Y97536D01*
X191059Y96901D02*
X191821Y96774D01*
X191059Y96901D02*
X191821Y96647D01*
X191059Y96901D02*
X191821Y96520D01*
X191059Y96901D02*
X191821Y96393D01*
X191059Y96901D02*
X191821Y96266D01*
X191059Y96901D02*
X191821Y97028D01*
X191059Y96901D02*
X191821Y97155D01*
X191059Y96901D02*
X191821Y97282D01*
X191059Y96901D02*
X191821Y97409D01*
X191059Y96901D02*
X191821Y97536D01*
X191059Y96266D02*
Y97536D01*
X190805Y96901D02*
X192075D01*
X207010Y63373D02*
X206248D01*
X206502D01*
X207010Y62865D01*
X206629Y63246D01*
X206248Y62865D01*
X187452Y63373D02*
X186690D01*
X186944D01*
X187452Y62865D01*
X187071Y63246D01*
X186690Y62865D01*
X188468Y152903D02*
X189230D01*
X188976D01*
X188468Y153411D01*
X188849Y153030D01*
X189230Y153411D01*
X208026Y152908D02*
X208788D01*
X208534D01*
X208026Y153416D01*
X208407Y153035D01*
X208788Y153416D01*
D82*
X212143Y121031D02*
G03*
X212043Y121031I-50J0D01*
G01*
D02*
G03*
X212143Y121031I50J0D01*
G01*
D02*
G03*
X212043Y121031I-50J0D01*
G01*
X208961Y64601D02*
G03*
X208540Y67574I-1443J1312D01*
G01*
X206496D02*
G03*
X206139Y64534I1022J-1661D01*
G01*
X189403Y64601D02*
G03*
X188982Y67574I-1443J1312D01*
G01*
X186938D02*
G03*
X186581Y64534I1022J-1661D01*
G01*
X212143Y87884D02*
G03*
X212043Y87884I-50J0D01*
G01*
D02*
G03*
X212143Y87884I50J0D01*
G01*
D02*
G03*
X212043Y87884I-50J0D01*
G01*
X186517Y151675D02*
G03*
X186938Y148702I1443J-1312D01*
G01*
X188982D02*
G03*
X189339Y151742I-1022J1661D01*
G01*
X208540Y148707D02*
G03*
X208897Y151747I-1022J1661D01*
G01*
X206075Y151680D02*
G03*
X206496Y148707I1443J-1312D01*
G01*
X105542Y157022D02*
X107172D01*
X130672D02*
X132302D01*
X130672Y151772D02*
Y162272D01*
X107172D02*
X130672D01*
X107172Y151772D02*
Y162272D01*
Y151772D02*
X130672D01*
X177218Y44494D02*
Y50594D01*
X161618D02*
X177218D01*
X161618Y44494D02*
Y50594D01*
Y44494D02*
X177218D01*
X156487Y45645D02*
Y48335D01*
X143487D02*
X156487D01*
X143487Y45645D02*
Y48335D01*
Y45645D02*
X156487D01*
X153202Y55628D02*
Y55878D01*
X151852Y55628D02*
Y55878D01*
X149312Y55628D02*
Y55878D01*
X150662Y55628D02*
Y55878D01*
X146772Y55628D02*
Y55878D01*
X148122Y55628D02*
Y55878D01*
X220917Y159577D02*
Y164537D01*
X211137Y159577D02*
X220917D01*
X211137D02*
Y164537D01*
X220917D01*
X210884Y159572D02*
Y164532D01*
X201104Y159572D02*
X210884D01*
X201104D02*
Y164532D01*
X210884D01*
X200597Y159577D02*
Y164537D01*
X190817Y159577D02*
X200597D01*
X190817D02*
Y164537D01*
X200597D01*
X190564Y159577D02*
Y164537D01*
X180784Y159577D02*
X190564D01*
X180784D02*
Y164537D01*
X190564D01*
X213893Y118456D02*
Y119031D01*
Y118456D02*
X215293Y115881D01*
X224193D01*
Y119031D01*
Y123031D02*
Y126181D01*
X215293D02*
X224193D01*
X213893Y123606D02*
X215293Y126181D01*
X213893Y123031D02*
Y123606D01*
X220043Y114231D02*
X220293Y114831D01*
X219093D02*
X220293D01*
X219093D02*
X219343Y114231D01*
X224293Y103631D02*
X224543Y104231D01*
X225243D02*
X225493Y103631D01*
X224293D02*
X225493D01*
X218393Y104231D02*
X224543D01*
X225243D02*
X227393D01*
Y114231D01*
X218393Y104231D02*
Y114231D01*
X219343D01*
X220043D02*
X227393D01*
X220043Y104227D02*
X220293Y104827D01*
X219093D02*
X220293D01*
X219093D02*
X219343Y104227D01*
X224293Y93627D02*
X224543Y94227D01*
X225243D02*
X225493Y93627D01*
X224293D02*
X225493D01*
X218393Y94227D02*
X224543D01*
X225243D02*
X227393D01*
Y104227D01*
X218393Y94227D02*
Y104227D01*
X219343D01*
X220043D02*
X227393D01*
X220043Y81240D02*
X227393D01*
X218393D02*
X219343D01*
X218393Y71240D02*
Y81240D01*
X227393Y71240D02*
Y81240D01*
X225243Y71240D02*
X227393D01*
X218393D02*
X224543D01*
X224293Y70640D02*
X225493D01*
X225243Y71240D02*
X225493Y70640D01*
X224293D02*
X224543Y71240D01*
X219093Y81840D02*
X219343Y81240D01*
X219093Y81840D02*
X220293D01*
X220043Y81240D02*
X220293Y81840D01*
X201104Y51617D02*
X210884D01*
Y56577D01*
X201104D02*
X210884D01*
X201104Y51617D02*
Y56577D01*
X211137Y51617D02*
X220917D01*
Y56577D01*
X211137D02*
X220917D01*
X211137Y51617D02*
Y56577D01*
X190817Y51617D02*
X200597D01*
Y56577D01*
X190817D02*
X200597D01*
X190817Y51617D02*
Y56577D01*
X180784Y51617D02*
X190564D01*
Y56577D01*
X180784D02*
X190564D01*
X180784Y51617D02*
Y56577D01*
X211158Y50519D02*
X219118D01*
X211158Y44569D02*
Y50519D01*
Y44569D02*
X219118D01*
Y50519D01*
X202903D02*
X210863D01*
X202903Y44569D02*
Y50519D01*
Y44569D02*
X210863D01*
Y50519D01*
X182583D02*
X190543D01*
X182583Y44569D02*
Y50519D01*
Y44569D02*
X190543D01*
Y50519D01*
X190838D02*
X198798D01*
X190838Y44569D02*
Y50519D01*
Y44569D02*
X198798D01*
Y50519D01*
X208534Y64516D02*
X208876D01*
X206139D02*
X206502D01*
X208876D02*
X208961Y64601D01*
X188976Y64516D02*
X189318D01*
X186581D02*
X186944D01*
X189318D02*
X189403Y64601D01*
X215014Y81333D02*
X217864D01*
X209364D02*
X212214D01*
X217864Y73833D02*
Y81333D01*
X216864Y72833D02*
X217864Y73833D01*
X215014Y72833D02*
X216864D01*
X210364D02*
X212214D01*
X209364Y73833D02*
X210364Y72833D01*
X209364Y73833D02*
Y81333D01*
X213893Y85309D02*
Y85884D01*
Y85309D02*
X215293Y82734D01*
X224193D01*
Y85884D01*
Y89884D02*
Y93034D01*
X215293D02*
X224193D01*
X213893Y90459D02*
X215293Y93034D01*
X213893Y89884D02*
Y90459D01*
X209110Y127322D02*
X211960D01*
X214760D02*
X217610D01*
X209110D02*
Y134822D01*
X210110Y135822D01*
X211960D01*
X214760D02*
X216610D01*
X217610Y134822D01*
Y127322D02*
Y134822D01*
X220043Y137247D02*
X227393D01*
X218393D02*
X219343D01*
X218393Y127247D02*
Y137247D01*
X227393Y127247D02*
Y137247D01*
X225243Y127247D02*
X227393D01*
X218393D02*
X224543D01*
X224293Y126647D02*
X225493D01*
X225243Y127247D02*
X225493Y126647D01*
X224293D02*
X224543Y127247D01*
X219093Y137847D02*
X219343Y137247D01*
X219093Y137847D02*
X220293D01*
X220043Y137247D02*
X220293Y137847D01*
X165301Y153926D02*
X180901D01*
Y147826D02*
Y153926D01*
X165301Y147826D02*
X180901D01*
X165301D02*
Y153926D01*
X165164Y144399D02*
X175704Y144399D01*
X165164Y141859D02*
Y144399D01*
Y141859D02*
X175704Y141859D01*
Y144399D01*
X176594Y141859D02*
X187134Y141859D01*
Y144399D01*
X176594Y144399D02*
X187134Y144399D01*
X176594Y141859D02*
Y144399D01*
X186602Y151760D02*
X186944D01*
X188976D02*
X189339D01*
X186517Y151675D02*
X186602Y151760D01*
X206075Y151680D02*
X206160Y151765D01*
X208534D02*
X208897D01*
X206160D02*
X206502D01*
X211158Y165762D02*
Y171712D01*
X219118D01*
Y165762D02*
Y171712D01*
X211158Y165762D02*
X219118D01*
X202903D02*
Y171712D01*
X210863D01*
Y165762D02*
Y171712D01*
X202903Y165762D02*
X210863D01*
X190838Y165808D02*
Y171758D01*
X198798D01*
Y165808D02*
Y171758D01*
X190838Y165808D02*
X198798D01*
X182583D02*
Y171758D01*
X190543D01*
Y165808D02*
Y171758D01*
X182583Y165808D02*
X190543D01*
X163743Y161369D02*
Y168719D01*
Y159719D02*
Y160669D01*
X163143Y160419D02*
X163743Y160669D01*
X163143Y160419D02*
Y161619D01*
X163743Y161369D01*
X178743Y165869D02*
X179343Y165619D01*
X178743Y166569D02*
X179343Y166819D01*
Y165619D02*
Y166819D01*
X178743Y159719D02*
Y165869D01*
Y166569D02*
Y168719D01*
X163743D02*
X178743D01*
X163743Y159719D02*
X178743D01*
X146632Y168739D02*
X162232D01*
Y162639D02*
Y168739D01*
X146632Y162639D02*
X162232D01*
X146632D02*
Y168739D01*
X138006Y162760D02*
X145966D01*
Y168710D01*
X138006D02*
X145966D01*
X138006Y162760D02*
Y168710D01*
X129624Y162714D02*
X137584D01*
Y168664D01*
X129624D02*
X137584D01*
X129624Y162714D02*
Y168664D01*
X105542Y125222D02*
X107172D01*
X130672D02*
X132302D01*
X130672Y119972D02*
Y130472D01*
X107172D02*
X130672D01*
X107172Y119972D02*
Y130472D01*
Y119972D02*
X130672D01*
X107199Y87968D02*
X130699D01*
X107199D02*
Y98468D01*
X130699D01*
Y87968D02*
Y98468D01*
Y93218D02*
X132329D01*
X105569D02*
X107199D01*
X105542Y61341D02*
X107172D01*
X130672D02*
X132302D01*
X130672Y56091D02*
Y66591D01*
X107172D02*
X130672D01*
X107172Y56091D02*
Y66591D01*
Y56091D02*
X130672D01*
X185734Y99123D02*
X190694D01*
X185734D02*
Y108903D01*
X190694D01*
Y99123D02*
Y108903D01*
X30679Y152099D02*
X38029D01*
X38729D02*
X39679D01*
Y162099D01*
X30679Y152099D02*
Y162099D01*
X32829D01*
X33529D02*
X39679D01*
X32579Y162699D02*
X33779D01*
X32579D02*
X32829Y162099D01*
X33529D02*
X33779Y162699D01*
X38729Y152099D02*
X38979Y151499D01*
X37779D02*
X38979D01*
X37779D02*
X38029Y152099D01*
X30671Y120182D02*
X38021D01*
X38721D02*
X39671D01*
Y130182D01*
X30671Y120182D02*
Y130182D01*
X32821D01*
X33521D02*
X39671D01*
X32571Y130782D02*
X33771D01*
X32571D02*
X32821Y130182D01*
X33521D02*
X33771Y130782D01*
X38721Y120182D02*
X38971Y119582D01*
X37771D02*
X38971D01*
X37771D02*
X38021Y120182D01*
X30679Y87583D02*
X38029D01*
X38729D02*
X39679D01*
Y97583D01*
X30679Y87583D02*
Y97583D01*
X32829D01*
X33529D02*
X39679D01*
X32579Y98183D02*
X33779D01*
X32579D02*
X32829Y97583D01*
X33529D02*
X33779Y98183D01*
X38729Y87583D02*
X38979Y86983D01*
X37779D02*
X38979D01*
X37779D02*
X38029Y87583D01*
X30679Y56214D02*
X38029D01*
X38729D02*
X39679D01*
Y66214D01*
X30679Y56214D02*
Y66214D01*
X32829D01*
X33529D02*
X39679D01*
X32579Y66814D02*
X33779D01*
X32579D02*
X32829Y66214D01*
X33529D02*
X33779Y66814D01*
X38729Y56214D02*
X38979Y55614D01*
X37779D02*
X38979D01*
X37779D02*
X38029Y56214D01*
D84*
X214376Y101600D02*
X216916D01*
Y103124D02*
Y105156D01*
X214376Y106680D02*
X216916D01*
X214376Y101600D02*
Y106680D01*
X216916Y101600D02*
Y103124D01*
Y105156D02*
Y106680D01*
X207391Y67056D02*
X207518Y67183D01*
X207264Y67056D02*
X207391D01*
X175641Y63500D02*
X175387Y63754D01*
X174879D01*
X174625Y63500D01*
Y63246D01*
X174879Y62992D01*
X175387D01*
X175641Y62738D01*
Y62484D01*
X175387Y62230D01*
X174879D01*
X174625Y62484D01*
X176149Y63754D02*
X177164D01*
X176656D01*
Y62230D01*
X177672D02*
Y63246D01*
X178180Y63754D01*
X178688Y63246D01*
Y62230D01*
Y62992D01*
X177672D01*
X179196Y62230D02*
Y63754D01*
X179957D01*
X180211Y63500D01*
Y62992D01*
X179957Y62738D01*
X179196D01*
X179703D02*
X180211Y62230D01*
X180719Y63754D02*
X181735D01*
X181227D01*
Y62230D01*
X154589Y49848D02*
Y49022D01*
X155209D01*
X155003Y49435D01*
Y49642D01*
X155209Y49848D01*
X155622D01*
X155829Y49642D01*
Y49229D01*
X155622Y49022D01*
X155003Y50262D02*
X155829Y50675D01*
X155003Y51088D01*
X166099Y154559D02*
X165892Y154766D01*
Y155179D01*
X166099Y155385D01*
X166306D01*
X166512Y155179D01*
Y154972D01*
Y155179D01*
X166719Y155385D01*
X166925D01*
X167132Y155179D01*
Y154766D01*
X166925Y154559D01*
X167132Y155799D02*
X166925D01*
Y156005D01*
X167132D01*
Y155799D01*
X166099Y156832D02*
X165892Y157038D01*
Y157451D01*
X166099Y157658D01*
X166306D01*
X166512Y157451D01*
Y157245D01*
Y157451D01*
X166719Y157658D01*
X166925D01*
X167132Y157451D01*
Y157038D01*
X166925Y156832D01*
X166306Y158071D02*
X167132Y158484D01*
X166306Y158898D01*
X130302Y170561D02*
Y169545D01*
X131064D01*
X130810Y170053D01*
Y170307D01*
X131064Y170561D01*
X131572D01*
X131826Y170307D01*
Y169799D01*
X131572Y169545D01*
X130810Y171069D02*
X131826Y171576D01*
X130810Y172084D01*
X138684Y170607D02*
Y169591D01*
X139446D01*
X139192Y170099D01*
Y170353D01*
X139446Y170607D01*
X139954D01*
X140208Y170353D01*
Y169845D01*
X139954Y169591D01*
X139192Y171115D02*
X140208Y171622D01*
X139192Y172130D01*
X185166Y135763D02*
X184913Y136017D01*
Y136525D01*
X185166Y136779D01*
X185420D01*
X185674Y136525D01*
Y136271D01*
Y136525D01*
X185928Y136779D01*
X186182D01*
X186436Y136525D01*
Y136017D01*
X186182Y135763D01*
X186436Y137287D02*
X186182D01*
Y137540D01*
X186436D01*
Y137287D01*
X185166Y138556D02*
X184913Y138810D01*
Y139318D01*
X185166Y139572D01*
X185420D01*
X185674Y139318D01*
Y139064D01*
Y139318D01*
X185928Y139572D01*
X186182D01*
X186436Y139318D01*
Y138810D01*
X186182Y138556D01*
X185420Y140080D02*
X186436Y140587D01*
X185420Y141095D01*
X165989Y135763D02*
X165735Y136017D01*
Y136525D01*
X165989Y136779D01*
X166243D01*
X166497Y136525D01*
Y136271D01*
Y136525D01*
X166751Y136779D01*
X167005D01*
X167259Y136525D01*
Y136017D01*
X167005Y135763D01*
X167259Y137287D02*
X167005D01*
Y137540D01*
X167259D01*
Y137287D01*
X165989Y138556D02*
X165735Y138810D01*
Y139318D01*
X165989Y139572D01*
X166243D01*
X166497Y139318D01*
Y139064D01*
Y139318D01*
X166751Y139572D01*
X167005D01*
X167259Y139318D01*
Y138810D01*
X167005Y138556D01*
X166243Y140080D02*
X167259Y140587D01*
X166243Y141095D01*
X141224Y169591D02*
Y170607D01*
Y170099D01*
X142748D01*
X141224Y171115D02*
Y171622D01*
Y171368D01*
X142748D01*
Y171115D01*
Y171622D01*
Y172384D02*
X141224D01*
X141732Y172892D01*
X141224Y173400D01*
X142748D01*
X132842Y169545D02*
Y170053D01*
Y169799D01*
X134366D01*
Y169545D01*
Y170053D01*
Y170815D02*
X132842D01*
X134366Y171830D01*
X132842D01*
Y172338D02*
Y173354D01*
Y172846D01*
X134366D01*
X153924Y169799D02*
X152400D01*
Y170561D01*
X152654Y170815D01*
X153162D01*
X153416Y170561D01*
Y169799D01*
Y170307D02*
X153924Y170815D01*
X152400Y171323D02*
X153924Y172338D01*
X152400D02*
X153924Y171323D01*
X150622Y169672D02*
Y170688D01*
X150114Y170180D02*
X151130D01*
X149860Y172211D02*
Y171196D01*
X150622D01*
X150368Y171703D01*
Y171957D01*
X150622Y172211D01*
X151130D01*
X151384Y171957D01*
Y171449D01*
X151130Y171196D01*
X149860Y172719D02*
X150876D01*
X151384Y173227D01*
X150876Y173735D01*
X149860D01*
X155351Y169799D02*
Y170625D01*
Y170212D01*
X156591D01*
X155351Y171039D02*
X156591Y171865D01*
X155351D02*
X156591Y171039D01*
X157764Y169799D02*
X159004D01*
Y170419D01*
X158797Y170625D01*
X157971D01*
X157764Y170419D01*
Y169799D01*
Y171039D02*
Y171452D01*
Y171245D01*
X159004D01*
Y171039D01*
Y171452D01*
Y172072D02*
X157764D01*
Y172691D01*
X157971Y172898D01*
X158384D01*
X158591Y172691D01*
Y172072D01*
Y172485D02*
X159004Y172898D01*
X177466Y154686D02*
X176227D01*
Y155306D01*
X176433Y155512D01*
X176847D01*
X177053Y155306D01*
Y154686D01*
Y155099D02*
X177466Y155512D01*
X176227Y155926D02*
X177466Y156752D01*
X176227D02*
X177466Y155926D01*
X177673Y157165D02*
Y157992D01*
X177466Y158405D02*
Y158818D01*
Y158611D01*
X176227D01*
X176433Y158405D01*
X173814Y154559D02*
Y155385D01*
Y154972D01*
X175053D01*
X173814Y155799D02*
X175053Y156625D01*
X173814D02*
X175053Y155799D01*
X175260Y157038D02*
Y157865D01*
X175053Y158278D02*
Y158691D01*
Y158484D01*
X173814D01*
X174020Y158278D01*
X168529Y154559D02*
X170053D01*
Y155321D01*
X169799Y155575D01*
X168783D01*
X168529Y155321D01*
Y154559D01*
Y156083D02*
Y156590D01*
Y156336D01*
X170053D01*
Y156083D01*
Y156590D01*
X168529Y158114D02*
Y157606D01*
X168783Y157352D01*
X169799D01*
X170053Y157606D01*
Y158114D01*
X169799Y158368D01*
X168783D01*
X168529Y158114D01*
X171323Y155575D02*
X171069Y155321D01*
Y154813D01*
X171323Y154559D01*
X172339D01*
X172593Y154813D01*
Y155321D01*
X172339Y155575D01*
X171069Y156083D02*
X172593D01*
Y157098D01*
X171323Y158622D02*
X171069Y158368D01*
Y157860D01*
X171323Y157606D01*
X172339D01*
X172593Y157860D01*
Y158368D01*
X172339Y158622D01*
X165100Y53467D02*
X164846Y53213D01*
Y52705D01*
X165100Y52451D01*
X166116D01*
X166370Y52705D01*
Y53213D01*
X166116Y53467D01*
X164846Y53975D02*
X166370D01*
Y54990D01*
X164846Y56514D02*
Y55498D01*
X166370D01*
Y56514D01*
X165608Y55498D02*
Y56006D01*
X166370Y57022D02*
X165354D01*
X164846Y57529D01*
X165354Y58037D01*
X166370D01*
X165608D01*
Y57022D01*
X166370Y58545D02*
X164846D01*
Y59307D01*
X165100Y59561D01*
X165608D01*
X165862Y59307D01*
Y58545D01*
Y59053D02*
X166370Y59561D01*
X167640Y53467D02*
X167386Y53213D01*
Y52705D01*
X167640Y52451D01*
X167894D01*
X168148Y52705D01*
Y53213D01*
X168402Y53467D01*
X168656D01*
X168910Y53213D01*
Y52705D01*
X168656Y52451D01*
X167386Y53975D02*
Y54990D01*
Y54482D01*
X168910D01*
X167386Y56260D02*
Y55752D01*
X167640Y55498D01*
X168656D01*
X168910Y55752D01*
Y56260D01*
X168656Y56514D01*
X167640D01*
X167386Y56260D01*
X168910Y57022D02*
X167386D01*
Y57783D01*
X167640Y58037D01*
X168148D01*
X168402Y57783D01*
Y57022D01*
X170180Y53467D02*
X169926Y53213D01*
Y52705D01*
X170180Y52451D01*
X170434D01*
X170688Y52705D01*
Y53213D01*
X170942Y53467D01*
X171196D01*
X171450Y53213D01*
Y52705D01*
X171196Y52451D01*
X169926Y53975D02*
Y54990D01*
Y54482D01*
X171450D01*
Y55498D02*
X170434D01*
X169926Y56006D01*
X170434Y56514D01*
X171450D01*
X170688D01*
Y55498D01*
X171450Y57022D02*
X169926D01*
Y57783D01*
X170180Y58037D01*
X170688D01*
X170942Y57783D01*
Y57022D01*
Y57529D02*
X171450Y58037D01*
X169926Y58545D02*
Y59561D01*
Y59053D01*
X171450D01*
X172593Y53467D02*
Y52451D01*
X173355D01*
X173101Y52959D01*
Y53213D01*
X173355Y53467D01*
X173863D01*
X174117Y53213D01*
Y52705D01*
X173863Y52451D01*
X173101Y53975D02*
X174117Y54482D01*
X173101Y54990D01*
X175260Y52324D02*
X175006Y52578D01*
Y53086D01*
X175260Y53340D01*
X175514D01*
X175768Y53086D01*
Y52832D01*
Y53086D01*
X176022Y53340D01*
X176276D01*
X176530Y53086D01*
Y52578D01*
X176276Y52324D01*
X176530Y53848D02*
X176276D01*
Y54101D01*
X176530D01*
Y53848D01*
X175260Y55117D02*
X175006Y55371D01*
Y55879D01*
X175260Y56133D01*
X175514D01*
X175768Y55879D01*
Y55625D01*
Y55879D01*
X176022Y56133D01*
X176276D01*
X176530Y55879D01*
Y55371D01*
X176276Y55117D01*
X175514Y56641D02*
X176530Y57148D01*
X175514Y57656D01*
X140208Y63754D02*
X139954Y64008D01*
X139446D01*
X139192Y63754D01*
Y62738D01*
X139446Y62484D01*
X139954D01*
X140208Y62738D01*
X140716Y64008D02*
Y62484D01*
X141731D01*
X143255Y64008D02*
X142239D01*
Y62484D01*
X143255D01*
X142239Y63246D02*
X142747D01*
X143763Y62484D02*
Y63500D01*
X144270Y64008D01*
X144778Y63500D01*
Y62484D01*
Y63246D01*
X143763D01*
X145286Y62484D02*
Y64008D01*
X146048D01*
X146302Y63754D01*
Y63246D01*
X146048Y62992D01*
X145286D01*
X145794D02*
X146302Y62484D01*
X158496Y63754D02*
X158242Y64008D01*
X157734D01*
X157480Y63754D01*
Y63500D01*
X157734Y63246D01*
X158242D01*
X158496Y62992D01*
Y62738D01*
X158242Y62484D01*
X157734D01*
X157480Y62738D01*
X159004Y64008D02*
X160019D01*
X159511D01*
Y62484D01*
X161289Y64008D02*
X160781D01*
X160527Y63754D01*
Y62738D01*
X160781Y62484D01*
X161289D01*
X161543Y62738D01*
Y63754D01*
X161289Y64008D01*
X162051Y62484D02*
Y64008D01*
X162812D01*
X163066Y63754D01*
Y63246D01*
X162812Y62992D01*
X162051D01*
X180086Y138303D02*
X179832Y138049D01*
Y137541D01*
X180086Y137287D01*
X180340D01*
X180594Y137541D01*
Y138049D01*
X180848Y138303D01*
X181102D01*
X181356Y138049D01*
Y137541D01*
X181102Y137287D01*
X180086Y139826D02*
X179832Y139572D01*
Y139064D01*
X180086Y138811D01*
X181102D01*
X181356Y139064D01*
Y139572D01*
X181102Y139826D01*
X179832Y140334D02*
X181356D01*
Y141350D01*
X182626Y138303D02*
X182372Y138049D01*
Y137541D01*
X182626Y137287D01*
X182880D01*
X183134Y137541D01*
Y138049D01*
X183388Y138303D01*
X183642D01*
X183896Y138049D01*
Y137541D01*
X183642Y137287D01*
X182372Y138811D02*
X183896D01*
Y139572D01*
X183642Y139826D01*
X182626D01*
X182372Y139572D01*
Y138811D01*
X183896Y140334D02*
X182880D01*
X182372Y140842D01*
X182880Y141350D01*
X183896D01*
X183134D01*
Y140334D01*
X171196Y138303D02*
X170942Y138049D01*
Y137541D01*
X171196Y137287D01*
X172212D01*
X172466Y137541D01*
Y138049D01*
X172212Y138303D01*
X170942Y138811D02*
X172466D01*
Y139826D01*
X171196Y141350D02*
X170942Y141096D01*
Y140588D01*
X171196Y140334D01*
X172212D01*
X172466Y140588D01*
Y141096D01*
X172212Y141350D01*
X168402Y137541D02*
X169926D01*
Y138303D01*
X169672Y138557D01*
X168656D01*
X168402Y138303D01*
Y137541D01*
Y139065D02*
Y139572D01*
Y139318D01*
X169926D01*
Y139065D01*
Y139572D01*
X168402Y141096D02*
Y140588D01*
X168656Y140334D01*
X169672D01*
X169926Y140588D01*
Y141096D01*
X169672Y141350D01*
X168656D01*
X168402Y141096D01*
X30242Y66929D02*
X31242D01*
X30742D01*
Y67595D01*
X30242D01*
X31242D01*
X31353Y55245D02*
X30353D01*
Y54579D01*
X30242Y98298D02*
X31242D01*
X30742D01*
Y98964D01*
X30242D01*
X31242D01*
X31353Y86614D02*
X30353D01*
Y85948D01*
X30234Y130897D02*
X31234D01*
X30734D01*
Y131563D01*
X30234D01*
X31234D01*
X31345Y119213D02*
X30345D01*
Y118546D01*
X31353Y151130D02*
X30353D01*
Y150464D01*
X30242Y162814D02*
X31242D01*
X30742D01*
Y163480D01*
X30242D01*
X31242D01*
X228148Y128428D02*
X227981Y128262D01*
Y127929D01*
X228148Y127762D01*
X228814D01*
X228981Y127929D01*
Y128262D01*
X228814Y128428D01*
X228481D01*
Y128095D01*
X228981Y128762D02*
X227981D01*
X228981Y129428D01*
X227981D01*
Y129761D02*
X228981D01*
Y130261D01*
X228814Y130428D01*
X228148D01*
X227981Y130261D01*
Y129761D01*
X228108Y133985D02*
X228775D01*
X229108Y134318D01*
X228775Y134651D01*
X228108D01*
X228275Y135651D02*
X228108Y135485D01*
Y135151D01*
X228275Y134985D01*
X228941D01*
X229108Y135151D01*
Y135485D01*
X228941Y135651D01*
X228275Y136651D02*
X228108Y136484D01*
Y136151D01*
X228275Y135984D01*
X228941D01*
X229108Y136151D01*
Y136484D01*
X228941Y136651D01*
X228862Y70739D02*
Y71405D01*
X228529Y71072D02*
X229195D01*
X228362Y72405D02*
Y71739D01*
X228862D01*
X228696Y72072D01*
Y72239D01*
X228862Y72405D01*
X229195D01*
X229362Y72239D01*
Y71905D01*
X229195Y71739D01*
X228362Y72738D02*
X229029D01*
X229362Y73072D01*
X229029Y73405D01*
X228362D01*
X228529Y78644D02*
X228362Y78478D01*
Y78145D01*
X228529Y77978D01*
X229195D01*
X229362Y78145D01*
Y78478D01*
X229195Y78644D01*
X228862D01*
Y78311D01*
X229362Y78978D02*
X228362D01*
X229362Y79644D01*
X228362D01*
Y79977D02*
X229362D01*
Y80477D01*
X229195Y80644D01*
X228529D01*
X228362Y80477D01*
Y79977D01*
X228148Y95789D02*
X227981Y95623D01*
Y95290D01*
X228148Y95123D01*
X228814D01*
X228981Y95290D01*
Y95623D01*
X228814Y95789D01*
X228481D01*
Y95456D01*
X228981Y96123D02*
X227981D01*
X228981Y96789D01*
X227981D01*
Y97122D02*
X228981D01*
Y97622D01*
X228814Y97789D01*
X228148D01*
X227981Y97622D01*
Y97122D01*
X228854Y100457D02*
X227854D01*
Y100957D01*
X228021Y101123D01*
X228354D01*
X228521Y100957D01*
Y100457D01*
X227854Y101957D02*
Y101623D01*
X228021Y101457D01*
X228687D01*
X228854Y101623D01*
Y101957D01*
X228687Y102123D01*
X228021D01*
X227854Y101957D01*
Y102456D02*
X228854D01*
X228521Y102790D01*
X228854Y103123D01*
X227854D01*
X227981Y105410D02*
X228981D01*
Y105910D01*
X228814Y106076D01*
X228648D01*
X228481Y105910D01*
Y105410D01*
Y105910D01*
X228315Y106076D01*
X228148D01*
X227981Y105910D01*
Y105410D01*
X228981Y106410D02*
X228315D01*
X227981Y106743D01*
X228315Y107076D01*
X228981D01*
X228481D01*
Y106410D01*
X227981Y107409D02*
Y108076D01*
Y107743D01*
X228981D01*
X228275Y111537D02*
X228108Y111371D01*
Y111038D01*
X228275Y110871D01*
X228941D01*
X229108Y111038D01*
Y111371D01*
X228941Y111537D01*
X228608D01*
Y111204D01*
X229108Y111871D02*
X228108D01*
X229108Y112537D01*
X228108D01*
Y112870D02*
X229108D01*
Y113370D01*
X228941Y113537D01*
X228275D01*
X228108Y113370D01*
Y112870D01*
X191762Y132057D02*
X190762D01*
Y132557D01*
X190929Y132723D01*
X191262D01*
X191429Y132557D01*
Y132057D01*
Y132390D02*
X191762Y132723D01*
X190929Y133723D02*
X190762Y133556D01*
Y133223D01*
X190929Y133056D01*
X191595D01*
X191762Y133223D01*
Y133556D01*
X191595Y133723D01*
X191262D01*
Y133390D01*
X191762Y134056D02*
Y134389D01*
Y134223D01*
X190762D01*
X190929Y134056D01*
X181824Y153281D02*
X181491D01*
X181658D01*
Y152448D01*
X181491Y152281D01*
X181325D01*
X181158Y152448D01*
X182158Y153281D02*
X182824D01*
Y153114D01*
X182158Y152448D01*
Y152281D01*
X185776Y109855D02*
Y110855D01*
X186275D01*
X186442Y110688D01*
Y110355D01*
X186275Y110188D01*
X185776D01*
X186109D02*
X186442Y109855D01*
X186775D02*
Y110855D01*
X187275D01*
X187442Y110688D01*
Y110355D01*
X187275Y110188D01*
X186775D01*
X187775Y109855D02*
X188108D01*
X187942D01*
Y110855D01*
X187775Y110688D01*
X188349Y119222D02*
X189349D01*
Y119888D01*
Y120221D02*
Y120554D01*
Y120388D01*
X188349D01*
X188516Y120221D01*
X217051Y108764D02*
Y108431D01*
Y108597D01*
X217884D01*
X218051Y108431D01*
Y108264D01*
X217884Y108097D01*
X218051Y109097D02*
Y109430D01*
Y109264D01*
X217051D01*
X217218Y109097D01*
Y109930D02*
X217051Y110097D01*
Y110430D01*
X217218Y110597D01*
X217384D01*
X217551Y110430D01*
Y110263D01*
Y110430D01*
X217718Y110597D01*
X217884D01*
X218051Y110430D01*
Y110097D01*
X217884Y109930D01*
X212987Y103811D02*
Y103478D01*
Y103644D01*
X213820D01*
X213987Y103478D01*
Y103311D01*
X213820Y103144D01*
X213987Y104144D02*
Y104477D01*
Y104311D01*
X212987D01*
X213154Y104144D01*
X213987Y105644D02*
Y104977D01*
X213320Y105644D01*
X213154D01*
X212987Y105477D01*
Y105144D01*
X213154Y104977D01*
X169001Y44061D02*
X168668D01*
X168835D01*
Y43228D01*
X168668Y43061D01*
X168502D01*
X168335Y43228D01*
X169335Y43061D02*
X169668D01*
X169501D01*
Y44061D01*
X169335Y43894D01*
X170168Y43061D02*
X170501D01*
X170334D01*
Y44061D01*
X170168Y43894D01*
X40161Y156456D02*
Y155789D01*
X40494Y155456D01*
X40827Y155789D01*
Y156456D01*
X41160D02*
X41827D01*
X41493D01*
Y155456D01*
X42160D02*
X42493D01*
X42327D01*
Y156456D01*
X42160Y156289D01*
X43659Y156456D02*
X43326Y156289D01*
X42993Y155956D01*
Y155623D01*
X43160Y155456D01*
X43493D01*
X43659Y155623D01*
Y155789D01*
X43493Y155956D01*
X42993D01*
X40288Y92702D02*
Y92035D01*
X40621Y91702D01*
X40954Y92035D01*
Y92702D01*
X41287D02*
X41954D01*
X41620D01*
Y91702D01*
X42287D02*
X42620D01*
X42454D01*
Y92702D01*
X42287Y92535D01*
X43786Y92702D02*
X43120D01*
Y92202D01*
X43453Y92369D01*
X43620D01*
X43786Y92202D01*
Y91869D01*
X43620Y91702D01*
X43287D01*
X43120Y91869D01*
X93878Y156498D02*
Y155832D01*
X94212Y155499D01*
X94545Y155832D01*
Y156498D01*
X94878D02*
X95545D01*
X95211D01*
Y155499D01*
X95878D02*
X96211D01*
X96044D01*
Y156498D01*
X95878Y156332D01*
X97211Y155499D02*
Y156498D01*
X96711Y155999D01*
X97377D01*
X93878Y92643D02*
Y91976D01*
X94212Y91643D01*
X94545Y91976D01*
Y92643D01*
X94878D02*
X95545D01*
X95211D01*
Y91643D01*
X95878D02*
X96211D01*
X96044D01*
Y92643D01*
X95878Y92476D01*
X96711D02*
X96877Y92643D01*
X97211D01*
X97377Y92476D01*
Y92310D01*
X97211Y92143D01*
X97044D01*
X97211D01*
X97377Y91976D01*
Y91810D01*
X97211Y91643D01*
X96877D01*
X96711Y91810D01*
X40288Y172331D02*
Y171664D01*
X40621Y171331D01*
X40954Y171664D01*
Y172331D01*
X41287D02*
X41954D01*
X41620D01*
Y171331D01*
X42287D02*
X42620D01*
X42454D01*
Y172331D01*
X42287Y172164D01*
X43786Y171331D02*
X43120D01*
X43786Y171998D01*
Y172164D01*
X43620Y172331D01*
X43287D01*
X43120Y172164D01*
X40200Y108577D02*
Y107910D01*
X40533Y107577D01*
X40867Y107910D01*
Y108577D01*
X41200D02*
X41866D01*
X41533D01*
Y107577D01*
X42200D02*
X42533D01*
X42366D01*
Y108577D01*
X42200Y108410D01*
X43033Y107577D02*
X43366D01*
X43199D01*
Y108577D01*
X43033Y108410D01*
X40288Y60698D02*
Y60031D01*
X40621Y59698D01*
X40954Y60031D01*
Y60698D01*
X41287D02*
X41954D01*
X41620D01*
Y59698D01*
X42287D02*
X42620D01*
X42454D01*
Y60698D01*
X42287Y60531D01*
X43120D02*
X43287Y60698D01*
X43620D01*
X43786Y60531D01*
Y59865D01*
X43620Y59698D01*
X43287D01*
X43120Y59865D01*
Y60531D01*
X95060Y172204D02*
Y171537D01*
X95393Y171204D01*
X95727Y171537D01*
Y172204D01*
X96060D02*
X96726D01*
X96393D01*
Y171204D01*
X97059Y171371D02*
X97226Y171204D01*
X97559D01*
X97726Y171371D01*
Y172037D01*
X97559Y172204D01*
X97226D01*
X97059Y172037D01*
Y171871D01*
X97226Y171704D01*
X97726D01*
X93878Y108492D02*
Y107826D01*
X94212Y107493D01*
X94545Y107826D01*
Y108492D01*
X94878D02*
X95545D01*
X95211D01*
Y107493D01*
X95878Y108326D02*
X96044Y108492D01*
X96378D01*
X96544Y108326D01*
Y108159D01*
X96378Y107993D01*
X96544Y107826D01*
Y107659D01*
X96378Y107493D01*
X96044D01*
X95878Y107659D01*
Y107826D01*
X96044Y107993D01*
X95878Y108159D01*
Y108326D01*
X96044Y107993D02*
X96378D01*
X93878Y60639D02*
Y59972D01*
X94212Y59639D01*
X94545Y59972D01*
Y60639D01*
X94878D02*
X95545D01*
X95211D01*
Y59639D01*
X95878Y60639D02*
X96544D01*
Y60472D01*
X95878Y59806D01*
Y59639D01*
X40450Y124706D02*
Y124039D01*
X40783Y123706D01*
X41117Y124039D01*
Y124706D01*
X41450D02*
X42116D01*
X41783D01*
Y123706D01*
X43116Y124706D02*
X42783Y124539D01*
X42449Y124206D01*
Y123873D01*
X42616Y123706D01*
X42949D01*
X43116Y123873D01*
Y124039D01*
X42949Y124206D01*
X42449D01*
X93878Y124494D02*
Y123828D01*
X94212Y123495D01*
X94545Y123828D01*
Y124494D01*
X94878D02*
X95545D01*
X95211D01*
Y123495D01*
X96544Y124494D02*
X95878D01*
Y123995D01*
X96211Y124161D01*
X96378D01*
X96544Y123995D01*
Y123661D01*
X96378Y123495D01*
X96044D01*
X95878Y123661D01*
X40323Y76700D02*
Y76033D01*
X40656Y75700D01*
X40990Y76033D01*
Y76700D01*
X41323D02*
X41989D01*
X41656D01*
Y75700D01*
X42822D02*
Y76700D01*
X42322Y76200D01*
X42989D01*
X40323Y140454D02*
Y139787D01*
X40656Y139454D01*
X40990Y139787D01*
Y140454D01*
X41323D02*
X41989D01*
X41656D01*
Y139454D01*
X42322Y140287D02*
X42489Y140454D01*
X42822D01*
X42989Y140287D01*
Y140121D01*
X42822Y139954D01*
X42656D01*
X42822D01*
X42989Y139787D01*
Y139621D01*
X42822Y139454D01*
X42489D01*
X42322Y139621D01*
X94005Y140496D02*
Y139830D01*
X94339Y139497D01*
X94672Y139830D01*
Y140496D01*
X95005D02*
X95672D01*
X95338D01*
Y139497D01*
X96671D02*
X96005D01*
X96671Y140163D01*
Y140330D01*
X96505Y140496D01*
X96171D01*
X96005Y140330D01*
X93878Y76641D02*
Y75974D01*
X94212Y75641D01*
X94545Y75974D01*
Y76641D01*
X94878D02*
X95545D01*
X95211D01*
Y75641D01*
X95878D02*
X96211D01*
X96044D01*
Y76641D01*
X95878Y76474D01*
X105228Y144645D02*
X105895D01*
X105561D01*
Y143645D01*
X106228D02*
Y144645D01*
X106728D01*
X106894Y144478D01*
Y144145D01*
X106728Y143978D01*
X106228D01*
X107228Y144645D02*
X107894D01*
Y144478D01*
X107228Y143812D01*
Y143645D01*
X108227Y144478D02*
X108394Y144645D01*
X108727D01*
X108894Y144478D01*
Y143812D01*
X108727Y143645D01*
X108394D01*
X108227Y143812D01*
Y144478D01*
X104593Y81018D02*
X105260D01*
X104926D01*
Y80018D01*
X105593D02*
Y81018D01*
X106093D01*
X106259Y80851D01*
Y80518D01*
X106093Y80351D01*
X105593D01*
X107259Y81018D02*
X106926Y80851D01*
X106593Y80518D01*
Y80185D01*
X106759Y80018D01*
X107092D01*
X107259Y80185D01*
Y80351D01*
X107092Y80518D01*
X106593D01*
X107592Y80185D02*
X107759Y80018D01*
X108092D01*
X108259Y80185D01*
Y80851D01*
X108092Y81018D01*
X107759D01*
X107592Y80851D01*
Y80685D01*
X107759Y80518D01*
X108259D01*
X67208Y160105D02*
X67875D01*
X67542D01*
Y159106D01*
X68208D02*
Y160105D01*
X68708D01*
X68875Y159939D01*
Y159605D01*
X68708Y159439D01*
X68208D01*
X69874Y160105D02*
X69541Y159939D01*
X69208Y159605D01*
Y159272D01*
X69374Y159106D01*
X69708D01*
X69874Y159272D01*
Y159439D01*
X69708Y159605D01*
X69208D01*
X70207Y159939D02*
X70374Y160105D01*
X70707D01*
X70874Y159939D01*
Y159772D01*
X70707Y159605D01*
X70874Y159439D01*
Y159272D01*
X70707Y159106D01*
X70374D01*
X70207Y159272D01*
Y159439D01*
X70374Y159605D01*
X70207Y159772D01*
Y159939D01*
X70374Y159605D02*
X70707D01*
X67208Y96224D02*
X67875D01*
X67542D01*
Y95225D01*
X68208D02*
Y96224D01*
X68708D01*
X68875Y96058D01*
Y95724D01*
X68708Y95558D01*
X68208D01*
X69874Y96224D02*
X69541Y96058D01*
X69208Y95724D01*
Y95391D01*
X69374Y95225D01*
X69708D01*
X69874Y95391D01*
Y95558D01*
X69708Y95724D01*
X69208D01*
X70207Y96224D02*
X70874D01*
Y96058D01*
X70207Y95391D01*
Y95225D01*
X115007Y147312D02*
X115674D01*
X115340D01*
Y146312D01*
X116007D02*
Y147312D01*
X116507D01*
X116673Y147145D01*
Y146812D01*
X116507Y146645D01*
X116007D01*
X117673Y147312D02*
X117340Y147145D01*
X117007Y146812D01*
Y146479D01*
X117173Y146312D01*
X117506D01*
X117673Y146479D01*
Y146645D01*
X117506Y146812D01*
X117007D01*
X118673Y147312D02*
X118340Y147145D01*
X118006Y146812D01*
Y146479D01*
X118173Y146312D01*
X118506D01*
X118673Y146479D01*
Y146645D01*
X118506Y146812D01*
X118006D01*
X115515Y82669D02*
X116182D01*
X115848D01*
Y81669D01*
X116515D02*
Y82669D01*
X117015D01*
X117181Y82502D01*
Y82169D01*
X117015Y82002D01*
X116515D01*
X118181Y82669D02*
X117848Y82502D01*
X117515Y82169D01*
Y81836D01*
X117681Y81669D01*
X118014D01*
X118181Y81836D01*
Y82002D01*
X118014Y82169D01*
X117515D01*
X119181Y82669D02*
X118514D01*
Y82169D01*
X118848Y82336D01*
X119014D01*
X119181Y82169D01*
Y81836D01*
X119014Y81669D01*
X118681D01*
X118514Y81836D01*
X111705Y150233D02*
X112372D01*
X112038D01*
Y149233D01*
X112705D02*
Y150233D01*
X113205D01*
X113371Y150066D01*
Y149733D01*
X113205Y149566D01*
X112705D01*
X114371Y150233D02*
X114038Y150066D01*
X113705Y149733D01*
Y149400D01*
X113871Y149233D01*
X114204D01*
X114371Y149400D01*
Y149566D01*
X114204Y149733D01*
X113705D01*
X115204Y149233D02*
Y150233D01*
X114704Y149733D01*
X115371D01*
X111959Y86352D02*
X112626D01*
X112292D01*
Y85352D01*
X112959D02*
Y86352D01*
X113459D01*
X113625Y86185D01*
Y85852D01*
X113459Y85685D01*
X112959D01*
X114625Y86352D02*
X114292Y86185D01*
X113959Y85852D01*
Y85519D01*
X114125Y85352D01*
X114458D01*
X114625Y85519D01*
Y85685D01*
X114458Y85852D01*
X113959D01*
X114958Y86185D02*
X115125Y86352D01*
X115458D01*
X115625Y86185D01*
Y86019D01*
X115458Y85852D01*
X115292D01*
X115458D01*
X115625Y85685D01*
Y85519D01*
X115458Y85352D01*
X115125D01*
X114958Y85519D01*
X122119Y150360D02*
X122786D01*
X122452D01*
Y149360D01*
X123119D02*
Y150360D01*
X123619D01*
X123785Y150193D01*
Y149860D01*
X123619Y149693D01*
X123119D01*
X124785Y150360D02*
X124452Y150193D01*
X124119Y149860D01*
Y149527D01*
X124285Y149360D01*
X124618D01*
X124785Y149527D01*
Y149693D01*
X124618Y149860D01*
X124119D01*
X125785Y149360D02*
X125118D01*
X125785Y150027D01*
Y150193D01*
X125618Y150360D01*
X125285D01*
X125118Y150193D01*
X122286Y86352D02*
X122952D01*
X122619D01*
Y85352D01*
X123286D02*
Y86352D01*
X123785D01*
X123952Y86185D01*
Y85852D01*
X123785Y85685D01*
X123286D01*
X124952Y86352D02*
X124618Y86185D01*
X124285Y85852D01*
Y85519D01*
X124452Y85352D01*
X124785D01*
X124952Y85519D01*
Y85685D01*
X124785Y85852D01*
X124285D01*
X125285Y85352D02*
X125618D01*
X125452D01*
Y86352D01*
X125285Y86185D01*
X101291Y153535D02*
X101958D01*
X101624D01*
Y152535D01*
X102291D02*
Y153535D01*
X102791D01*
X102957Y153368D01*
Y153035D01*
X102791Y152868D01*
X102291D01*
X103957Y153535D02*
X103624Y153368D01*
X103291Y153035D01*
Y152702D01*
X103457Y152535D01*
X103790D01*
X103957Y152702D01*
Y152868D01*
X103790Y153035D01*
X103291D01*
X104290Y153368D02*
X104457Y153535D01*
X104790D01*
X104957Y153368D01*
Y152702D01*
X104790Y152535D01*
X104457D01*
X104290Y152702D01*
Y153368D01*
X101418Y89146D02*
X102085D01*
X101751D01*
Y88146D01*
X102418D02*
Y89146D01*
X102918D01*
X103084Y88979D01*
Y88646D01*
X102918Y88479D01*
X102418D01*
X104084Y89146D02*
X103418D01*
Y88646D01*
X103751Y88813D01*
X103917D01*
X104084Y88646D01*
Y88313D01*
X103917Y88146D01*
X103584D01*
X103418Y88313D01*
X104417D02*
X104584Y88146D01*
X104917D01*
X105084Y88313D01*
Y88979D01*
X104917Y89146D01*
X104584D01*
X104417Y88979D01*
Y88813D01*
X104584Y88646D01*
X105084D01*
X130882Y151376D02*
X131549D01*
X131215D01*
Y150376D01*
X131882D02*
Y151376D01*
X132382D01*
X132548Y151209D01*
Y150876D01*
X132382Y150709D01*
X131882D01*
X133548Y151376D02*
X132882D01*
Y150876D01*
X133215Y151043D01*
X133381D01*
X133548Y150876D01*
Y150543D01*
X133381Y150376D01*
X133048D01*
X132882Y150543D01*
X133881Y151209D02*
X134048Y151376D01*
X134381D01*
X134548Y151209D01*
Y151043D01*
X134381Y150876D01*
X134548Y150709D01*
Y150543D01*
X134381Y150376D01*
X134048D01*
X133881Y150543D01*
Y150709D01*
X134048Y150876D01*
X133881Y151043D01*
Y151209D01*
X134048Y150876D02*
X134381D01*
X130628Y87495D02*
X131295D01*
X130961D01*
Y86495D01*
X131628D02*
Y87495D01*
X132128D01*
X132294Y87328D01*
Y86995D01*
X132128Y86828D01*
X131628D01*
X133294Y87495D02*
X132628D01*
Y86995D01*
X132961Y87162D01*
X133127D01*
X133294Y86995D01*
Y86662D01*
X133127Y86495D01*
X132794D01*
X132628Y86662D01*
X133627Y87495D02*
X134294D01*
Y87328D01*
X133627Y86662D01*
Y86495D01*
X109546Y172712D02*
X110213D01*
X109879D01*
Y171712D01*
X110546D02*
Y172712D01*
X111046D01*
X111212Y172545D01*
Y172212D01*
X111046Y172045D01*
X110546D01*
X112212Y172712D02*
X111546D01*
Y172212D01*
X111879Y172379D01*
X112045D01*
X112212Y172212D01*
Y171879D01*
X112045Y171712D01*
X111712D01*
X111546Y171879D01*
X113212Y172712D02*
X112879Y172545D01*
X112545Y172212D01*
Y171879D01*
X112712Y171712D01*
X113045D01*
X113212Y171879D01*
Y172045D01*
X113045Y172212D01*
X112545D01*
X109927Y109339D02*
X110594D01*
X110260D01*
Y108339D01*
X110927D02*
Y109339D01*
X111427D01*
X111593Y109172D01*
Y108839D01*
X111427Y108672D01*
X110927D01*
X112593Y109339D02*
X111927D01*
Y108839D01*
X112260Y109006D01*
X112426D01*
X112593Y108839D01*
Y108506D01*
X112426Y108339D01*
X112093D01*
X111927Y108506D01*
X113593Y109339D02*
X112926D01*
Y108839D01*
X113260Y109006D01*
X113426D01*
X113593Y108839D01*
Y108506D01*
X113426Y108339D01*
X113093D01*
X112926Y108506D01*
X100656Y165346D02*
X101323D01*
X100989D01*
Y164346D01*
X101656D02*
Y165346D01*
X102156D01*
X102322Y165179D01*
Y164846D01*
X102156Y164679D01*
X101656D01*
X103322Y165346D02*
X102656D01*
Y164846D01*
X102989Y165013D01*
X103155D01*
X103322Y164846D01*
Y164513D01*
X103155Y164346D01*
X102822D01*
X102656Y164513D01*
X104155Y164346D02*
Y165346D01*
X103655Y164846D01*
X104322D01*
X100783Y101338D02*
X101450D01*
X101116D01*
Y100338D01*
X101783D02*
Y101338D01*
X102283D01*
X102449Y101171D01*
Y100838D01*
X102283Y100671D01*
X101783D01*
X103449Y101338D02*
X102783D01*
Y100838D01*
X103116Y101005D01*
X103282D01*
X103449Y100838D01*
Y100505D01*
X103282Y100338D01*
X102949D01*
X102783Y100505D01*
X103782Y101171D02*
X103949Y101338D01*
X104282D01*
X104449Y101171D01*
Y101005D01*
X104282Y100838D01*
X104116D01*
X104282D01*
X104449Y100671D01*
Y100505D01*
X104282Y100338D01*
X103949D01*
X103782Y100505D01*
X124024Y167251D02*
X124691D01*
X124357D01*
Y166251D01*
X125024D02*
Y167251D01*
X125524D01*
X125690Y167084D01*
Y166751D01*
X125524Y166584D01*
X125024D01*
X126690Y167251D02*
X126024D01*
Y166751D01*
X126357Y166918D01*
X126523D01*
X126690Y166751D01*
Y166418D01*
X126523Y166251D01*
X126190D01*
X126024Y166418D01*
X127690Y166251D02*
X127023D01*
X127690Y166918D01*
Y167084D01*
X127523Y167251D01*
X127190D01*
X127023Y167084D01*
X125882Y103209D02*
X126549D01*
X126216D01*
Y102210D01*
X126882D02*
Y103209D01*
X127382D01*
X127549Y103043D01*
Y102709D01*
X127382Y102543D01*
X126882D01*
X128548Y103209D02*
X127882D01*
Y102709D01*
X128215Y102876D01*
X128382D01*
X128548Y102709D01*
Y102376D01*
X128382Y102210D01*
X128048D01*
X127882Y102376D01*
X128881Y102210D02*
X129215D01*
X129048D01*
Y103209D01*
X128881Y103043D01*
X101291Y168775D02*
X101958D01*
X101624D01*
Y167775D01*
X102291D02*
Y168775D01*
X102791D01*
X102957Y168608D01*
Y168275D01*
X102791Y168108D01*
X102291D01*
X103957Y168775D02*
X103291D01*
Y168275D01*
X103624Y168442D01*
X103790D01*
X103957Y168275D01*
Y167942D01*
X103790Y167775D01*
X103457D01*
X103291Y167942D01*
X104290Y168608D02*
X104457Y168775D01*
X104790D01*
X104957Y168608D01*
Y167942D01*
X104790Y167775D01*
X104457D01*
X104290Y167942D01*
Y168608D01*
X101164Y104513D02*
X101831D01*
X101497D01*
Y103513D01*
X102164D02*
Y104513D01*
X102664D01*
X102830Y104346D01*
Y104013D01*
X102664Y103846D01*
X102164D01*
X103663Y103513D02*
Y104513D01*
X103164Y104013D01*
X103830D01*
X104163Y103680D02*
X104330Y103513D01*
X104663D01*
X104830Y103680D01*
Y104346D01*
X104663Y104513D01*
X104330D01*
X104163Y104346D01*
Y104180D01*
X104330Y104013D01*
X104830D01*
X113737Y171188D02*
X114404D01*
X114070D01*
Y170188D01*
X114737D02*
Y171188D01*
X115237D01*
X115403Y171021D01*
Y170688D01*
X115237Y170521D01*
X114737D01*
X116236Y170188D02*
Y171188D01*
X115737Y170688D01*
X116403D01*
X116736Y171021D02*
X116903Y171188D01*
X117236D01*
X117403Y171021D01*
Y170855D01*
X117236Y170688D01*
X117403Y170521D01*
Y170355D01*
X117236Y170188D01*
X116903D01*
X116736Y170355D01*
Y170521D01*
X116903Y170688D01*
X116736Y170855D01*
Y171021D01*
X116903Y170688D02*
X117236D01*
X113610Y107942D02*
X114277D01*
X113943D01*
Y106942D01*
X114610D02*
Y107942D01*
X115110D01*
X115276Y107775D01*
Y107442D01*
X115110Y107275D01*
X114610D01*
X116109Y106942D02*
Y107942D01*
X115610Y107442D01*
X116276D01*
X116609Y107942D02*
X117276D01*
Y107775D01*
X116609Y107109D01*
Y106942D01*
X104847Y112895D02*
X105514D01*
X105180D01*
Y111895D01*
X105847D02*
Y112895D01*
X106347D01*
X106513Y112728D01*
Y112395D01*
X106347Y112228D01*
X105847D01*
X107346Y111895D02*
Y112895D01*
X106847Y112395D01*
X107513D01*
X108513Y112895D02*
X108180Y112728D01*
X107846Y112395D01*
Y112062D01*
X108013Y111895D01*
X108346D01*
X108513Y112062D01*
Y112228D01*
X108346Y112395D01*
X107846D01*
X110308Y46093D02*
X110975D01*
X110641D01*
Y45093D01*
X111308D02*
Y46093D01*
X111808D01*
X111974Y45926D01*
Y45593D01*
X111808Y45426D01*
X111308D01*
X112807Y45093D02*
Y46093D01*
X112308Y45593D01*
X112974D01*
X113974Y46093D02*
X113307D01*
Y45593D01*
X113641Y45760D01*
X113807D01*
X113974Y45593D01*
Y45260D01*
X113807Y45093D01*
X113474D01*
X113307Y45260D01*
X67208Y128228D02*
X67875D01*
X67542D01*
Y127229D01*
X68208D02*
Y128228D01*
X68708D01*
X68875Y128062D01*
Y127728D01*
X68708Y127562D01*
X68208D01*
X69708Y127229D02*
Y128228D01*
X69208Y127728D01*
X69874D01*
X70707Y127229D02*
Y128228D01*
X70207Y127728D01*
X70874D01*
X67208Y64347D02*
X67875D01*
X67542D01*
Y63348D01*
X68208D02*
Y64347D01*
X68708D01*
X68875Y64181D01*
Y63847D01*
X68708Y63681D01*
X68208D01*
X69708Y63348D02*
Y64347D01*
X69208Y63847D01*
X69874D01*
X70207Y64181D02*
X70374Y64347D01*
X70707D01*
X70874Y64181D01*
Y64014D01*
X70707Y63847D01*
X70541D01*
X70707D01*
X70874Y63681D01*
Y63514D01*
X70707Y63348D01*
X70374D01*
X70207Y63514D01*
X115388Y115308D02*
X116055D01*
X115721D01*
Y114308D01*
X116388D02*
Y115308D01*
X116888D01*
X117054Y115141D01*
Y114808D01*
X116888Y114641D01*
X116388D01*
X117887Y114308D02*
Y115308D01*
X117388Y114808D01*
X118054D01*
X119054Y114308D02*
X118387D01*
X119054Y114975D01*
Y115141D01*
X118887Y115308D01*
X118554D01*
X118387Y115141D01*
X115555Y51173D02*
X116221D01*
X115888D01*
Y50173D01*
X116555D02*
Y51173D01*
X117054D01*
X117221Y51006D01*
Y50673D01*
X117054Y50506D01*
X116555D01*
X118054Y50173D02*
Y51173D01*
X117554Y50673D01*
X118221D01*
X118554Y50173D02*
X118887D01*
X118721D01*
Y51173D01*
X118554Y51006D01*
X112340Y117975D02*
X113007D01*
X112673D01*
Y116975D01*
X113340D02*
Y117975D01*
X113840D01*
X114006Y117808D01*
Y117475D01*
X113840Y117308D01*
X113340D01*
X114839Y116975D02*
Y117975D01*
X114340Y117475D01*
X115006D01*
X115339Y117808D02*
X115506Y117975D01*
X115839D01*
X116006Y117808D01*
Y117142D01*
X115839Y116975D01*
X115506D01*
X115339Y117142D01*
Y117808D01*
X112467Y54221D02*
X113134D01*
X112800D01*
Y53221D01*
X113467D02*
Y54221D01*
X113967D01*
X114133Y54054D01*
Y53721D01*
X113967Y53554D01*
X113467D01*
X114467Y54054D02*
X114633Y54221D01*
X114966D01*
X115133Y54054D01*
Y53888D01*
X114966Y53721D01*
X114800D01*
X114966D01*
X115133Y53554D01*
Y53388D01*
X114966Y53221D01*
X114633D01*
X114467Y53388D01*
X115466D02*
X115633Y53221D01*
X115966D01*
X116133Y53388D01*
Y54054D01*
X115966Y54221D01*
X115633D01*
X115466Y54054D01*
Y53888D01*
X115633Y53721D01*
X116133D01*
X122373Y118610D02*
X123040D01*
X122706D01*
Y117610D01*
X123373D02*
Y118610D01*
X123873D01*
X124039Y118443D01*
Y118110D01*
X123873Y117943D01*
X123373D01*
X124373Y118443D02*
X124539Y118610D01*
X124872D01*
X125039Y118443D01*
Y118277D01*
X124872Y118110D01*
X124706D01*
X124872D01*
X125039Y117943D01*
Y117777D01*
X124872Y117610D01*
X124539D01*
X124373Y117777D01*
X125372Y118443D02*
X125539Y118610D01*
X125872D01*
X126039Y118443D01*
Y118277D01*
X125872Y118110D01*
X126039Y117943D01*
Y117777D01*
X125872Y117610D01*
X125539D01*
X125372Y117777D01*
Y117943D01*
X125539Y118110D01*
X125372Y118277D01*
Y118443D01*
X125539Y118110D02*
X125872D01*
X122500Y54221D02*
X123167D01*
X122833D01*
Y53221D01*
X123500D02*
Y54221D01*
X124000D01*
X124166Y54054D01*
Y53721D01*
X124000Y53554D01*
X123500D01*
X124500Y54054D02*
X124666Y54221D01*
X124999D01*
X125166Y54054D01*
Y53888D01*
X124999Y53721D01*
X124833D01*
X124999D01*
X125166Y53554D01*
Y53388D01*
X124999Y53221D01*
X124666D01*
X124500Y53388D01*
X125499Y54221D02*
X126166D01*
Y54054D01*
X125499Y53388D01*
Y53221D01*
X101291Y121023D02*
X101958D01*
X101624D01*
Y120023D01*
X102291D02*
Y121023D01*
X102791D01*
X102957Y120856D01*
Y120523D01*
X102791Y120356D01*
X102291D01*
X103291Y120856D02*
X103457Y121023D01*
X103790D01*
X103957Y120856D01*
Y120690D01*
X103790Y120523D01*
X103624D01*
X103790D01*
X103957Y120356D01*
Y120190D01*
X103790Y120023D01*
X103457D01*
X103291Y120190D01*
X104957Y121023D02*
X104624Y120856D01*
X104290Y120523D01*
Y120190D01*
X104457Y120023D01*
X104790D01*
X104957Y120190D01*
Y120356D01*
X104790Y120523D01*
X104290D01*
X104292Y58378D02*
X104959D01*
X104626D01*
Y57379D01*
X105292D02*
Y58378D01*
X105792D01*
X105959Y58212D01*
Y57878D01*
X105792Y57712D01*
X105292D01*
X106292Y58212D02*
X106458Y58378D01*
X106792D01*
X106958Y58212D01*
Y58045D01*
X106792Y57878D01*
X106625D01*
X106792D01*
X106958Y57712D01*
Y57545D01*
X106792Y57379D01*
X106458D01*
X106292Y57545D01*
X107958Y58378D02*
X107291D01*
Y57878D01*
X107625Y58045D01*
X107791D01*
X107958Y57878D01*
Y57545D01*
X107791Y57379D01*
X107458D01*
X107291Y57545D01*
X130628Y119499D02*
X131295D01*
X130961D01*
Y118499D01*
X131628D02*
Y119499D01*
X132128D01*
X132294Y119332D01*
Y118999D01*
X132128Y118832D01*
X131628D01*
X132628Y119332D02*
X132794Y119499D01*
X133127D01*
X133294Y119332D01*
Y119166D01*
X133127Y118999D01*
X132961D01*
X133127D01*
X133294Y118832D01*
Y118666D01*
X133127Y118499D01*
X132794D01*
X132628Y118666D01*
X134127Y118499D02*
Y119499D01*
X133627Y118999D01*
X134294D01*
X130755Y55491D02*
X131422D01*
X131088D01*
Y54491D01*
X131755D02*
Y55491D01*
X132255D01*
X132421Y55324D01*
Y54991D01*
X132255Y54824D01*
X131755D01*
X132755Y55324D02*
X132921Y55491D01*
X133254D01*
X133421Y55324D01*
Y55158D01*
X133254Y54991D01*
X133088D01*
X133254D01*
X133421Y54824D01*
Y54658D01*
X133254Y54491D01*
X132921D01*
X132755Y54658D01*
X133754Y55324D02*
X133921Y55491D01*
X134254D01*
X134421Y55324D01*
Y55158D01*
X134254Y54991D01*
X134088D01*
X134254D01*
X134421Y54824D01*
Y54658D01*
X134254Y54491D01*
X133921D01*
X133754Y54658D01*
X110054Y140962D02*
X110721D01*
X110387D01*
Y139962D01*
X111054D02*
Y140962D01*
X111554D01*
X111720Y140795D01*
Y140462D01*
X111554Y140295D01*
X111054D01*
X112054Y140795D02*
X112220Y140962D01*
X112553D01*
X112720Y140795D01*
Y140629D01*
X112553Y140462D01*
X112387D01*
X112553D01*
X112720Y140295D01*
Y140129D01*
X112553Y139962D01*
X112220D01*
X112054Y140129D01*
X113720Y139962D02*
X113053D01*
X113720Y140629D01*
Y140795D01*
X113553Y140962D01*
X113220D01*
X113053Y140795D01*
X110348Y76954D02*
X111014D01*
X110681D01*
Y75954D01*
X111348D02*
Y76954D01*
X111847D01*
X112014Y76787D01*
Y76454D01*
X111847Y76287D01*
X111348D01*
X112347Y76787D02*
X112514Y76954D01*
X112847D01*
X113014Y76787D01*
Y76621D01*
X112847Y76454D01*
X112680D01*
X112847D01*
X113014Y76287D01*
Y76121D01*
X112847Y75954D01*
X112514D01*
X112347Y76121D01*
X113347Y75954D02*
X113680D01*
X113514D01*
Y76954D01*
X113347Y76787D01*
X100275Y133215D02*
X100942D01*
X100608D01*
Y132215D01*
X101275D02*
Y133215D01*
X101775D01*
X101941Y133048D01*
Y132715D01*
X101775Y132548D01*
X101275D01*
X102275Y133048D02*
X102441Y133215D01*
X102774D01*
X102941Y133048D01*
Y132882D01*
X102774Y132715D01*
X102608D01*
X102774D01*
X102941Y132548D01*
Y132382D01*
X102774Y132215D01*
X102441D01*
X102275Y132382D01*
X103274Y133048D02*
X103441Y133215D01*
X103774D01*
X103941Y133048D01*
Y132382D01*
X103774Y132215D01*
X103441D01*
X103274Y132382D01*
Y133048D01*
X101037Y69207D02*
X101704D01*
X101370D01*
Y68207D01*
X102037D02*
Y69207D01*
X102537D01*
X102703Y69040D01*
Y68707D01*
X102537Y68540D01*
X102037D01*
X103703Y68207D02*
X103037D01*
X103703Y68874D01*
Y69040D01*
X103536Y69207D01*
X103203D01*
X103037Y69040D01*
X104036Y68374D02*
X104203Y68207D01*
X104536D01*
X104703Y68374D01*
Y69040D01*
X104536Y69207D01*
X104203D01*
X104036Y69040D01*
Y68874D01*
X104203Y68707D01*
X104703D01*
X125882Y135340D02*
X126549D01*
X126216D01*
Y134341D01*
X126882D02*
Y135340D01*
X127382D01*
X127549Y135174D01*
Y134840D01*
X127382Y134674D01*
X126882D01*
X128548Y134341D02*
X127882D01*
X128548Y135007D01*
Y135174D01*
X128382Y135340D01*
X128048D01*
X127882Y135174D01*
X128881D02*
X129048Y135340D01*
X129381D01*
X129548Y135174D01*
Y135007D01*
X129381Y134840D01*
X129548Y134674D01*
Y134507D01*
X129381Y134341D01*
X129048D01*
X128881Y134507D01*
Y134674D01*
X129048Y134840D01*
X128881Y135007D01*
Y135174D01*
X129048Y134840D02*
X129381D01*
X127453Y70604D02*
X128120D01*
X127786D01*
Y69604D01*
X128453D02*
Y70604D01*
X128953D01*
X129119Y70437D01*
Y70104D01*
X128953Y69937D01*
X128453D01*
X130119Y69604D02*
X129453D01*
X130119Y70271D01*
Y70437D01*
X129952Y70604D01*
X129619D01*
X129453Y70437D01*
X130452Y70604D02*
X131119D01*
Y70437D01*
X130452Y69771D01*
Y69604D01*
X101418Y137025D02*
X102085D01*
X101751D01*
Y136025D01*
X102418D02*
Y137025D01*
X102918D01*
X103084Y136858D01*
Y136525D01*
X102918Y136358D01*
X102418D01*
X104084Y136025D02*
X103418D01*
X104084Y136692D01*
Y136858D01*
X103917Y137025D01*
X103584D01*
X103418Y136858D01*
X105084Y137025D02*
X104751Y136858D01*
X104417Y136525D01*
Y136192D01*
X104584Y136025D01*
X104917D01*
X105084Y136192D01*
Y136358D01*
X104917Y136525D01*
X104417D01*
X101545Y73525D02*
X102212D01*
X101878D01*
Y72525D01*
X102545D02*
Y73525D01*
X103045D01*
X103211Y73358D01*
Y73025D01*
X103045Y72858D01*
X102545D01*
X104211Y72525D02*
X103545D01*
X104211Y73192D01*
Y73358D01*
X104044Y73525D01*
X103711D01*
X103545Y73358D01*
X105211Y73525D02*
X104544D01*
Y73025D01*
X104878Y73192D01*
X105044D01*
X105211Y73025D01*
Y72692D01*
X105044Y72525D01*
X104711D01*
X104544Y72692D01*
X113483Y139184D02*
X114150D01*
X113816D01*
Y138184D01*
X114483D02*
Y139184D01*
X114983D01*
X115149Y139017D01*
Y138684D01*
X114983Y138517D01*
X114483D01*
X116149Y138184D02*
X115483D01*
X116149Y138851D01*
Y139017D01*
X115982Y139184D01*
X115649D01*
X115483Y139017D01*
X116982Y138184D02*
Y139184D01*
X116482Y138684D01*
X117149D01*
X113610Y74668D02*
X114277D01*
X113943D01*
Y73668D01*
X114610D02*
Y74668D01*
X115110D01*
X115276Y74501D01*
Y74168D01*
X115110Y74001D01*
X114610D01*
X116276Y73668D02*
X115610D01*
X116276Y74335D01*
Y74501D01*
X116109Y74668D01*
X115776D01*
X115610Y74501D01*
X116609D02*
X116776Y74668D01*
X117109D01*
X117276Y74501D01*
Y74335D01*
X117109Y74168D01*
X116943D01*
X117109D01*
X117276Y74001D01*
Y73835D01*
X117109Y73668D01*
X116776D01*
X116609Y73835D01*
X193874Y60698D02*
X194541D01*
X194207D01*
Y59698D01*
X194874D02*
Y60698D01*
X195374D01*
X195540Y60531D01*
Y60198D01*
X195374Y60031D01*
X194874D01*
X196540Y59698D02*
X195874D01*
X196540Y60365D01*
Y60531D01*
X196373Y60698D01*
X196040D01*
X195874Y60531D01*
X197540Y59698D02*
X196873D01*
X197540Y60365D01*
Y60531D01*
X197373Y60698D01*
X197040D01*
X196873Y60531D01*
X216647Y60317D02*
X217313D01*
X216980D01*
Y59317D01*
X217647D02*
Y60317D01*
X218146D01*
X218313Y60150D01*
Y59817D01*
X218146Y59650D01*
X217647D01*
X219313Y59317D02*
X218646D01*
X219313Y59984D01*
Y60150D01*
X219146Y60317D01*
X218813D01*
X218646Y60150D01*
X219646Y59317D02*
X219979D01*
X219813D01*
Y60317D01*
X219646Y60150D01*
X183841Y60571D02*
X184508D01*
X184174D01*
Y59571D01*
X184841D02*
Y60571D01*
X185341D01*
X185507Y60404D01*
Y60071D01*
X185341Y59904D01*
X184841D01*
X186507Y59571D02*
X185841D01*
X186507Y60238D01*
Y60404D01*
X186340Y60571D01*
X186007D01*
X185841Y60404D01*
X186840D02*
X187007Y60571D01*
X187340D01*
X187507Y60404D01*
Y59738D01*
X187340Y59571D01*
X187007D01*
X186840Y59738D01*
Y60404D01*
X206531Y60571D02*
X207197D01*
X206864D01*
Y59571D01*
X207530D02*
Y60571D01*
X208030D01*
X208197Y60404D01*
Y60071D01*
X208030Y59904D01*
X207530D01*
X208530Y59571D02*
X208863D01*
X208697D01*
Y60571D01*
X208530Y60404D01*
X209363Y59738D02*
X209530Y59571D01*
X209863D01*
X210029Y59738D01*
Y60404D01*
X209863Y60571D01*
X209530D01*
X209363Y60404D01*
Y60238D01*
X209530Y60071D01*
X210029D01*
X192942Y70223D02*
X193608D01*
X193275D01*
Y69223D01*
X193941D02*
Y70223D01*
X194441D01*
X194608Y70056D01*
Y69723D01*
X194441Y69556D01*
X193941D01*
X194941Y69223D02*
X195274D01*
X195108D01*
Y70223D01*
X194941Y70056D01*
X195774D02*
X195941Y70223D01*
X196274D01*
X196440Y70056D01*
Y69890D01*
X196274Y69723D01*
X196440Y69556D01*
Y69390D01*
X196274Y69223D01*
X195941D01*
X195774Y69390D01*
Y69556D01*
X195941Y69723D01*
X195774Y69890D01*
Y70056D01*
X195941Y69723D02*
X196274D01*
X212627Y70223D02*
X213293D01*
X212960D01*
Y69223D01*
X213626D02*
Y70223D01*
X214126D01*
X214293Y70056D01*
Y69723D01*
X214126Y69556D01*
X213626D01*
X214626Y69223D02*
X214959D01*
X214793D01*
Y70223D01*
X214626Y70056D01*
X215459Y70223D02*
X216125D01*
Y70056D01*
X215459Y69390D01*
Y69223D01*
X188878Y60825D02*
X189544D01*
X189211D01*
Y59825D01*
X189877D02*
Y60825D01*
X190377D01*
X190544Y60658D01*
Y60325D01*
X190377Y60158D01*
X189877D01*
X190877Y59825D02*
X191210D01*
X191044D01*
Y60825D01*
X190877Y60658D01*
X192376Y60825D02*
X192043Y60658D01*
X191710Y60325D01*
Y59992D01*
X191877Y59825D01*
X192210D01*
X192376Y59992D01*
Y60158D01*
X192210Y60325D01*
X191710D01*
X199673Y60825D02*
X200339D01*
X200006D01*
Y59825D01*
X200672D02*
Y60825D01*
X201172D01*
X201339Y60658D01*
Y60325D01*
X201172Y60158D01*
X200672D01*
X201672Y59825D02*
X202005D01*
X201839D01*
Y60825D01*
X201672Y60658D01*
X203171Y60825D02*
X202505D01*
Y60325D01*
X202838Y60492D01*
X203005D01*
X203171Y60325D01*
Y59992D01*
X203005Y59825D01*
X202672D01*
X202505Y59992D01*
X200033Y170209D02*
Y170875D01*
Y170542D01*
X201033D01*
Y171208D02*
X200033D01*
Y171708D01*
X200200Y171875D01*
X200533D01*
X200700Y171708D01*
Y171208D01*
X201033Y172208D02*
Y172541D01*
Y172375D01*
X200033D01*
X200200Y172208D01*
X201033Y173541D02*
X200033D01*
X200533Y173041D01*
Y173707D01*
X179459Y170209D02*
Y170875D01*
Y170542D01*
X180459D01*
Y171208D02*
X179459D01*
Y171708D01*
X179626Y171875D01*
X179959D01*
X180126Y171708D01*
Y171208D01*
X180459Y172208D02*
Y172541D01*
Y172375D01*
X179459D01*
X179626Y172208D01*
Y173041D02*
X179459Y173208D01*
Y173541D01*
X179626Y173707D01*
X179792D01*
X179959Y173541D01*
Y173374D01*
Y173541D01*
X180126Y173707D01*
X180292D01*
X180459Y173541D01*
Y173208D01*
X180292Y173041D01*
X184179Y156456D02*
X184845D01*
X184512D01*
Y155456D01*
X185178D02*
Y156456D01*
X185678D01*
X185845Y156289D01*
Y155956D01*
X185678Y155789D01*
X185178D01*
X186178Y155456D02*
X186511D01*
X186345D01*
Y156456D01*
X186178Y156289D01*
X187677Y155456D02*
X187011D01*
X187677Y156123D01*
Y156289D01*
X187511Y156456D01*
X187178D01*
X187011Y156289D01*
X204157Y156456D02*
X204824D01*
X204490D01*
Y155456D01*
X205157D02*
Y156456D01*
X205657D01*
X205823Y156289D01*
Y155956D01*
X205657Y155789D01*
X205157D01*
X206157Y155456D02*
X206490D01*
X206323D01*
Y156456D01*
X206157Y156289D01*
X206990Y155456D02*
X207323D01*
X207156D01*
Y156456D01*
X206990Y156289D01*
X194085Y156456D02*
X194751D01*
X194418D01*
Y155456D01*
X195084D02*
Y156456D01*
X195584D01*
X195751Y156289D01*
Y155956D01*
X195584Y155789D01*
X195084D01*
X196084Y155456D02*
X196417D01*
X196251D01*
Y156456D01*
X196084Y156289D01*
X196917D02*
X197084Y156456D01*
X197417D01*
X197583Y156289D01*
Y155623D01*
X197417Y155456D01*
X197084D01*
X196917Y155623D01*
Y156289D01*
X214694Y156456D02*
X215361D01*
X215027D01*
Y155456D01*
X215694D02*
Y156456D01*
X216194D01*
X216360Y156289D01*
Y155956D01*
X216194Y155789D01*
X215694D01*
X216693Y155623D02*
X216860Y155456D01*
X217193D01*
X217360Y155623D01*
Y156289D01*
X217193Y156456D01*
X216860D01*
X216693Y156289D01*
Y156123D01*
X216860Y155956D01*
X217360D01*
X192469Y149090D02*
X193136D01*
X192802D01*
Y148090D01*
X193469D02*
Y149090D01*
X193969D01*
X194135Y148923D01*
Y148590D01*
X193969Y148423D01*
X193469D01*
X194468Y148923D02*
X194635Y149090D01*
X194968D01*
X195135Y148923D01*
Y148757D01*
X194968Y148590D01*
X195135Y148423D01*
Y148257D01*
X194968Y148090D01*
X194635D01*
X194468Y148257D01*
Y148423D01*
X194635Y148590D01*
X194468Y148757D01*
Y148923D01*
X194635Y148590D02*
X194968D01*
X212789Y148328D02*
X213456D01*
X213122D01*
Y147328D01*
X213789D02*
Y148328D01*
X214289D01*
X214455Y148161D01*
Y147828D01*
X214289Y147661D01*
X213789D01*
X214788Y148328D02*
X215455D01*
Y148161D01*
X214788Y147495D01*
Y147328D01*
X189294Y156202D02*
X189961D01*
X189627D01*
Y155202D01*
X190294D02*
Y156202D01*
X190794D01*
X190960Y156035D01*
Y155702D01*
X190794Y155535D01*
X190294D01*
X191960Y156202D02*
X191627Y156035D01*
X191293Y155702D01*
Y155369D01*
X191460Y155202D01*
X191793D01*
X191960Y155369D01*
Y155535D01*
X191793Y155702D01*
X191293D01*
X209741Y156456D02*
X210408D01*
X210074D01*
Y155456D01*
X210741D02*
Y156456D01*
X211241D01*
X211407Y156289D01*
Y155956D01*
X211241Y155789D01*
X210741D01*
X212407Y156456D02*
X211740D01*
Y155956D01*
X212074Y156123D01*
X212240D01*
X212407Y155956D01*
Y155623D01*
X212240Y155456D01*
X211907D01*
X211740Y155623D01*
X179586Y43117D02*
Y43784D01*
Y43450D01*
X180586D01*
Y44117D02*
X179586D01*
Y44617D01*
X179753Y44783D01*
X180086D01*
X180253Y44617D01*
Y44117D01*
X180586Y45616D02*
X179586D01*
X180086Y45116D01*
Y45783D01*
X200287Y43117D02*
Y43784D01*
Y43450D01*
X201287D01*
Y44117D02*
X200287D01*
Y44617D01*
X200454Y44783D01*
X200787D01*
X200954Y44617D01*
Y44117D01*
X200454Y45116D02*
X200287Y45283D01*
Y45616D01*
X200454Y45783D01*
X200620D01*
X200787Y45616D01*
Y45450D01*
Y45616D01*
X200954Y45783D01*
X201120D01*
X201287Y45616D01*
Y45283D01*
X201120Y45116D01*
X194501Y108704D02*
X195168D01*
X194834D01*
Y107704D01*
X195501D02*
Y108704D01*
X196001D01*
X196167Y108537D01*
Y108204D01*
X196001Y108037D01*
X195501D01*
X197167Y107704D02*
X196500D01*
X197167Y108371D01*
Y108537D01*
X197000Y108704D01*
X196667D01*
X196500Y108537D01*
X194541Y103370D02*
X195207D01*
X194874D01*
Y102370D01*
X195540D02*
Y103370D01*
X196040D01*
X196207Y103203D01*
Y102870D01*
X196040Y102703D01*
X195540D01*
X196540Y102370D02*
X196873D01*
X196707D01*
Y103370D01*
X196540Y103203D01*
X159354Y72088D02*
X159187Y72255D01*
X158854D01*
X158687Y72088D01*
Y71922D01*
X158854Y71755D01*
X159187D01*
X159354Y71588D01*
Y71422D01*
X159187Y71255D01*
X158854D01*
X158687Y71422D01*
X159687Y72255D02*
Y71255D01*
X160020Y71588D01*
X160353Y71255D01*
Y72255D01*
X160686Y72088D02*
X160853Y72255D01*
X161186D01*
X161353Y72088D01*
Y71922D01*
X161186Y71755D01*
X161020D01*
X161186D01*
X161353Y71588D01*
Y71422D01*
X161186Y71255D01*
X160853D01*
X160686Y71422D01*
X177134Y72088D02*
X176967Y72255D01*
X176634D01*
X176467Y72088D01*
Y71922D01*
X176634Y71755D01*
X176967D01*
X177134Y71588D01*
Y71422D01*
X176967Y71255D01*
X176634D01*
X176467Y71422D01*
X177467Y72255D02*
Y71255D01*
X177800Y71588D01*
X178133Y71255D01*
Y72255D01*
X179133Y71255D02*
X178466D01*
X179133Y71922D01*
Y72088D01*
X178966Y72255D01*
X178633D01*
X178466Y72088D01*
X141994Y72215D02*
X141828Y72382D01*
X141494D01*
X141328Y72215D01*
Y72049D01*
X141494Y71882D01*
X141828D01*
X141994Y71715D01*
Y71549D01*
X141828Y71382D01*
X141494D01*
X141328Y71549D01*
X142327Y72382D02*
Y71382D01*
X142661Y71715D01*
X142994Y71382D01*
Y72382D01*
X143327Y71382D02*
X143660D01*
X143494D01*
Y72382D01*
X143327Y72215D01*
X197168Y56904D02*
Y57904D01*
X197668D01*
X197835Y57737D01*
Y57404D01*
X197668Y57237D01*
X197168D01*
X197501D02*
X197835Y56904D01*
X198168D02*
Y57904D01*
X198668D01*
X198834Y57737D01*
Y57404D01*
X198668Y57237D01*
X198168D01*
X199167Y57071D02*
X199334Y56904D01*
X199667D01*
X199834Y57071D01*
Y57737D01*
X199667Y57904D01*
X199334D01*
X199167Y57737D01*
Y57571D01*
X199334Y57404D01*
X199834D01*
X218504Y57031D02*
Y58031D01*
X219004D01*
X219171Y57864D01*
Y57531D01*
X219004Y57364D01*
X218504D01*
X218837D02*
X219171Y57031D01*
X219504D02*
Y58031D01*
X220004D01*
X220170Y57864D01*
Y57531D01*
X220004Y57364D01*
X219504D01*
X220503Y57864D02*
X220670Y58031D01*
X221003D01*
X221170Y57864D01*
Y57698D01*
X221003Y57531D01*
X221170Y57364D01*
Y57198D01*
X221003Y57031D01*
X220670D01*
X220503Y57198D01*
Y57364D01*
X220670Y57531D01*
X220503Y57698D01*
Y57864D01*
X220670Y57531D02*
X221003D01*
X180658Y56904D02*
Y57904D01*
X181158D01*
X181325Y57737D01*
Y57404D01*
X181158Y57237D01*
X180658D01*
X180991D02*
X181325Y56904D01*
X181658D02*
Y57904D01*
X182158D01*
X182324Y57737D01*
Y57404D01*
X182158Y57237D01*
X181658D01*
X182657Y57904D02*
X183324D01*
Y57737D01*
X182657Y57071D01*
Y56904D01*
X208217Y57158D02*
Y58158D01*
X208717D01*
X208884Y57991D01*
Y57658D01*
X208717Y57491D01*
X208217D01*
X208550D02*
X208884Y57158D01*
X209217D02*
Y58158D01*
X209717D01*
X209883Y57991D01*
Y57658D01*
X209717Y57491D01*
X209217D01*
X210883Y58158D02*
X210550Y57991D01*
X210216Y57658D01*
Y57325D01*
X210383Y57158D01*
X210716D01*
X210883Y57325D01*
Y57491D01*
X210716Y57658D01*
X210216D01*
X181166Y158123D02*
Y159123D01*
X181666D01*
X181833Y158956D01*
Y158623D01*
X181666Y158456D01*
X181166D01*
X181499D02*
X181833Y158123D01*
X182166D02*
Y159123D01*
X182666D01*
X182832Y158956D01*
Y158623D01*
X182666Y158456D01*
X182166D01*
X183832Y159123D02*
X183165D01*
Y158623D01*
X183499Y158790D01*
X183665D01*
X183832Y158623D01*
Y158290D01*
X183665Y158123D01*
X183332D01*
X183165Y158290D01*
X201359Y158377D02*
Y159377D01*
X201859D01*
X202026Y159210D01*
Y158877D01*
X201859Y158710D01*
X201359D01*
X201692D02*
X202026Y158377D01*
X202359D02*
Y159377D01*
X202859D01*
X203025Y159210D01*
Y158877D01*
X202859Y158710D01*
X202359D01*
X203858Y158377D02*
Y159377D01*
X203358Y158877D01*
X204025D01*
X197803Y158377D02*
Y159377D01*
X198303D01*
X198470Y159210D01*
Y158877D01*
X198303Y158710D01*
X197803D01*
X198136D02*
X198470Y158377D01*
X198803D02*
Y159377D01*
X199303D01*
X199469Y159210D01*
Y158877D01*
X199303Y158710D01*
X198803D01*
X199802Y159210D02*
X199969Y159377D01*
X200302D01*
X200469Y159210D01*
Y159044D01*
X200302Y158877D01*
X200136D01*
X200302D01*
X200469Y158710D01*
Y158544D01*
X200302Y158377D01*
X199969D01*
X199802Y158544D01*
X218377Y158123D02*
Y159123D01*
X218877D01*
X219044Y158956D01*
Y158623D01*
X218877Y158456D01*
X218377D01*
X218710D02*
X219044Y158123D01*
X219377D02*
Y159123D01*
X219877D01*
X220043Y158956D01*
Y158623D01*
X219877Y158456D01*
X219377D01*
X221043Y158123D02*
X220376D01*
X221043Y158790D01*
Y158956D01*
X220876Y159123D01*
X220543D01*
X220376Y158956D01*
X116234Y162822D02*
Y163822D01*
X116733D01*
X116900Y163655D01*
Y163322D01*
X116733Y163155D01*
X116234D01*
X116567D02*
X116900Y162822D01*
X117233D02*
X117566D01*
X117400D01*
Y163822D01*
X117233Y163655D01*
X118066D02*
X118233Y163822D01*
X118566D01*
X118733Y163655D01*
Y162989D01*
X118566Y162822D01*
X118233D01*
X118066Y162989D01*
Y163655D01*
X119066Y162989D02*
X119233Y162822D01*
X119566D01*
X119732Y162989D01*
Y163655D01*
X119566Y163822D01*
X119233D01*
X119066Y163655D01*
Y163489D01*
X119233Y163322D01*
X119732D01*
X117377Y98814D02*
Y99814D01*
X117876D01*
X118043Y99647D01*
Y99314D01*
X117876Y99147D01*
X117377D01*
X117710D02*
X118043Y98814D01*
X118376D02*
X118709D01*
X118543D01*
Y99814D01*
X118376Y99647D01*
X119209D02*
X119376Y99814D01*
X119709D01*
X119876Y99647D01*
Y98981D01*
X119709Y98814D01*
X119376D01*
X119209Y98981D01*
Y99647D01*
X120209Y99814D02*
X120875D01*
Y99647D01*
X120209Y98981D01*
Y98814D01*
X116904Y130945D02*
Y131945D01*
X117404D01*
X117571Y131778D01*
Y131445D01*
X117404Y131278D01*
X116904D01*
X117237D02*
X117571Y130945D01*
X117904Y131778D02*
X118070Y131945D01*
X118404D01*
X118570Y131778D01*
Y131612D01*
X118404Y131445D01*
X118237D01*
X118404D01*
X118570Y131278D01*
Y131112D01*
X118404Y130945D01*
X118070D01*
X117904Y131112D01*
X119570Y130945D02*
X118903D01*
X119570Y131612D01*
Y131778D01*
X119403Y131945D01*
X119070D01*
X118903Y131778D01*
X117793Y66937D02*
Y67937D01*
X118293D01*
X118460Y67770D01*
Y67437D01*
X118293Y67270D01*
X117793D01*
X118126D02*
X118460Y66937D01*
X119459D02*
X118793D01*
X119459Y67604D01*
Y67770D01*
X119293Y67937D01*
X118959D01*
X118793Y67770D01*
X119792Y67104D02*
X119959Y66937D01*
X120292D01*
X120459Y67104D01*
Y67770D01*
X120292Y67937D01*
X119959D01*
X119792Y67770D01*
Y67604D01*
X119959Y67437D01*
X120459D01*
X148483Y44077D02*
Y45077D01*
X148983D01*
X149150Y44910D01*
Y44577D01*
X148983Y44410D01*
X148483D01*
X149483Y44077D02*
X149816D01*
X149650D01*
Y45077D01*
X149483Y44910D01*
X150316D02*
X150483Y45077D01*
X150816D01*
X150983Y44910D01*
Y44744D01*
X150816Y44577D01*
X150649D01*
X150816D01*
X150983Y44410D01*
Y44244D01*
X150816Y44077D01*
X150483D01*
X150316Y44244D01*
X180487Y145169D02*
Y146169D01*
X180987D01*
X181154Y146002D01*
Y145669D01*
X180987Y145502D01*
X180487D01*
X181487Y145169D02*
X181820D01*
X181654D01*
Y146169D01*
X181487Y146002D01*
X182987Y145169D02*
X182320D01*
X182987Y145836D01*
Y146002D01*
X182820Y146169D01*
X182487D01*
X182320Y146002D01*
X200271Y48447D02*
X199271D01*
Y48947D01*
X199438Y49113D01*
X199771D01*
X199938Y48947D01*
Y48447D01*
X200271Y49447D02*
Y49780D01*
Y49613D01*
X199271D01*
X199438Y49447D01*
X200271Y50280D02*
Y50613D01*
Y50446D01*
X199271D01*
X199438Y50280D01*
X220591Y47899D02*
X219591D01*
Y48399D01*
X219758Y48566D01*
X220091D01*
X220258Y48399D01*
Y47899D01*
X220591Y48899D02*
Y49232D01*
Y49066D01*
X219591D01*
X219758Y48899D01*
Y49732D02*
X219591Y49899D01*
Y50232D01*
X219758Y50399D01*
X220424D01*
X220591Y50232D01*
Y49899D01*
X220424Y49732D01*
X219758D01*
X182110Y48824D02*
X181110D01*
Y49324D01*
X181277Y49490D01*
X181610D01*
X181777Y49324D01*
Y48824D01*
X181943Y49824D02*
X182110Y49990D01*
Y50323D01*
X181943Y50490D01*
X181277D01*
X181110Y50323D01*
Y49990D01*
X181277Y49824D01*
X181443D01*
X181610Y49990D01*
Y50490D01*
X202557Y48697D02*
X201557D01*
Y49197D01*
X201724Y49363D01*
X202057D01*
X202224Y49197D01*
Y48697D01*
X201724Y49697D02*
X201557Y49863D01*
Y50196D01*
X201724Y50363D01*
X201890D01*
X202057Y50196D01*
X202224Y50363D01*
X202390D01*
X202557Y50196D01*
Y49863D01*
X202390Y49697D01*
X202224D01*
X202057Y49863D01*
X201890Y49697D01*
X201724D01*
X202057Y49863D02*
Y50196D01*
X182237Y165918D02*
X181237D01*
Y166418D01*
X181404Y166584D01*
X181737D01*
X181904Y166418D01*
Y165918D01*
X181237Y166918D02*
Y167584D01*
X181404D01*
X182070Y166918D01*
X182237D01*
X202557Y165918D02*
X201557D01*
Y166418D01*
X201724Y166584D01*
X202057D01*
X202224Y166418D01*
Y165918D01*
X201557Y167584D02*
X201724Y167251D01*
X202057Y166918D01*
X202390D01*
X202557Y167084D01*
Y167417D01*
X202390Y167584D01*
X202224D01*
X202057Y167417D01*
Y166918D01*
X200144Y165918D02*
X199144D01*
Y166418D01*
X199311Y166584D01*
X199644D01*
X199811Y166418D01*
Y165918D01*
X199144Y167584D02*
Y166918D01*
X199644D01*
X199477Y167251D01*
Y167417D01*
X199644Y167584D01*
X199977D01*
X200144Y167417D01*
Y167084D01*
X199977Y166918D01*
X141153Y161425D02*
Y162425D01*
X141653D01*
X141819Y162258D01*
Y161925D01*
X141653Y161758D01*
X141153D01*
X142652Y161425D02*
Y162425D01*
X142153Y161925D01*
X142819D01*
X220591Y166426D02*
X219591D01*
Y166926D01*
X219758Y167092D01*
X220091D01*
X220258Y166926D01*
Y166426D01*
X219758Y167426D02*
X219591Y167592D01*
Y167925D01*
X219758Y168092D01*
X219924D01*
X220091Y167925D01*
Y167759D01*
Y167925D01*
X220258Y168092D01*
X220424D01*
X220591Y167925D01*
Y167592D01*
X220424Y167426D01*
X132771Y161425D02*
Y162425D01*
X133271D01*
X133437Y162258D01*
Y161925D01*
X133271Y161758D01*
X132771D01*
X134437Y161425D02*
X133771D01*
X134437Y162092D01*
Y162258D01*
X134270Y162425D01*
X133937D01*
X133771Y162258D01*
X169768Y144915D02*
Y145915D01*
X170267D01*
X170434Y145748D01*
Y145415D01*
X170267Y145248D01*
X169768D01*
X170767Y144915D02*
X171100D01*
X170934D01*
Y145915D01*
X170767Y145748D01*
X187460Y68652D02*
X188460D01*
Y69319D01*
X187460Y70318D02*
Y69652D01*
X188460D01*
Y70318D01*
X187960Y69652D02*
Y69985D01*
X187460Y70652D02*
X188460D01*
Y71151D01*
X188293Y71318D01*
X187627D01*
X187460Y71151D01*
Y70652D01*
X188460Y72151D02*
X187460D01*
X187960Y71651D01*
Y72318D01*
X207018Y68525D02*
X208018D01*
Y69192D01*
X207018Y70191D02*
Y69525D01*
X208018D01*
Y70191D01*
X207518Y69525D02*
Y69858D01*
X207018Y70525D02*
X208018D01*
Y71024D01*
X207851Y71191D01*
X207185D01*
X207018Y71024D01*
Y70525D01*
X207185Y71524D02*
X207018Y71691D01*
Y72024D01*
X207185Y72191D01*
X207351D01*
X207518Y72024D01*
Y71858D01*
Y72024D01*
X207685Y72191D01*
X207851D01*
X208018Y72024D01*
Y71691D01*
X207851Y71524D01*
X187460Y144471D02*
X188460D01*
Y145138D01*
X187460Y146137D02*
Y145471D01*
X188460D01*
Y146137D01*
X187960Y145471D02*
Y145804D01*
X187460Y146471D02*
X188460D01*
Y146970D01*
X188293Y147137D01*
X187627D01*
X187460Y146970D01*
Y146471D01*
X188460Y148137D02*
Y147470D01*
X187793Y148137D01*
X187627D01*
X187460Y147970D01*
Y147637D01*
X187627Y147470D01*
X206891Y144765D02*
X207891D01*
Y145431D01*
X206891Y146431D02*
Y145765D01*
X207891D01*
Y146431D01*
X207391Y145765D02*
Y146098D01*
X206891Y146764D02*
X207891D01*
Y147264D01*
X207724Y147431D01*
X207058D01*
X206891Y147264D01*
Y146764D01*
X207891Y147764D02*
Y148097D01*
Y147931D01*
X206891D01*
X207058Y147764D01*
X31123Y156643D02*
Y156310D01*
Y156476D01*
X31956D01*
X32123Y156310D01*
Y156143D01*
X31956Y155976D01*
X32123Y156976D02*
Y157309D01*
Y157143D01*
X31123D01*
X31290Y156976D01*
Y157809D02*
X31123Y157976D01*
Y158309D01*
X31290Y158476D01*
X31956D01*
X32123Y158309D01*
Y157976D01*
X31956Y157809D01*
X31290D01*
X31123Y92416D02*
Y92083D01*
Y92250D01*
X31956D01*
X32123Y92083D01*
Y91917D01*
X31956Y91750D01*
Y92750D02*
X32123Y92916D01*
Y93249D01*
X31956Y93416D01*
X31290D01*
X31123Y93249D01*
Y92916D01*
X31290Y92750D01*
X31456D01*
X31623Y92916D01*
Y93416D01*
X31123Y61174D02*
Y60841D01*
Y61008D01*
X31956D01*
X32123Y60841D01*
Y60675D01*
X31956Y60508D01*
X31290Y61508D02*
X31123Y61674D01*
Y62007D01*
X31290Y62174D01*
X31456D01*
X31623Y62007D01*
X31790Y62174D01*
X31956D01*
X32123Y62007D01*
Y61674D01*
X31956Y61508D01*
X31790D01*
X31623Y61674D01*
X31456Y61508D01*
X31290D01*
X31623Y61674D02*
Y62007D01*
X154392Y161917D02*
X154059D01*
X154226D01*
Y161084D01*
X154059Y160917D01*
X153893D01*
X153726Y161084D01*
X155392Y161917D02*
X155059Y161750D01*
X154726Y161417D01*
Y161084D01*
X154892Y160917D01*
X155225D01*
X155392Y161084D01*
Y161250D01*
X155225Y161417D01*
X154726D01*
X162139Y159885D02*
X161806D01*
X161973D01*
Y159052D01*
X161806Y158885D01*
X161640D01*
X161473Y159052D01*
X163139Y159885D02*
X162473D01*
Y159385D01*
X162806Y159552D01*
X162972D01*
X163139Y159385D01*
Y159052D01*
X162972Y158885D01*
X162639D01*
X162473Y159052D01*
X222083Y70731D02*
X221750D01*
X221917D01*
Y69898D01*
X221750Y69731D01*
X221584D01*
X221417Y69898D01*
X222916Y69731D02*
Y70731D01*
X222417Y70231D01*
X223083D01*
X30996Y125055D02*
Y124722D01*
Y124889D01*
X31829D01*
X31996Y124722D01*
Y124556D01*
X31829Y124389D01*
X31163Y125389D02*
X30996Y125555D01*
Y125888D01*
X31163Y126055D01*
X31329D01*
X31496Y125888D01*
Y125722D01*
Y125888D01*
X31663Y126055D01*
X31829D01*
X31996Y125888D01*
Y125555D01*
X31829Y125389D01*
X217178Y98766D02*
Y98433D01*
Y98600D01*
X218011D01*
X218178Y98433D01*
Y98267D01*
X218011Y98100D01*
X218178Y99766D02*
Y99100D01*
X217511Y99766D01*
X217345D01*
X217178Y99599D01*
Y99266D01*
X217345Y99100D01*
X222758Y138676D02*
X222425D01*
X222591D01*
Y137843D01*
X222425Y137676D01*
X222258D01*
X222092Y137843D01*
X223091Y137676D02*
X223424D01*
X223258D01*
Y138676D01*
X223091Y138509D01*
X146947Y58016D02*
X147947D01*
Y58516D01*
X147780Y58682D01*
X147114D01*
X146947Y58516D01*
Y58016D01*
X147114Y59015D02*
X146947Y59182D01*
Y59515D01*
X147114Y59682D01*
X147280D01*
X147447Y59515D01*
Y59349D01*
Y59515D01*
X147614Y59682D01*
X147780D01*
X147947Y59515D01*
Y59182D01*
X147780Y59015D01*
X147947Y60015D02*
Y60348D01*
Y60182D01*
X146947D01*
X147114Y60015D01*
X149487Y57849D02*
X150487D01*
Y58349D01*
X150320Y58516D01*
X149654D01*
X149487Y58349D01*
Y57849D01*
X149654Y58849D02*
X149487Y59015D01*
Y59349D01*
X149654Y59515D01*
X149820D01*
X149987Y59349D01*
Y59182D01*
Y59349D01*
X150154Y59515D01*
X150320D01*
X150487Y59349D01*
Y59015D01*
X150320Y58849D01*
X149654Y59848D02*
X149487Y60015D01*
Y60348D01*
X149654Y60515D01*
X150320D01*
X150487Y60348D01*
Y60015D01*
X150320Y59848D01*
X149654D01*
X152281Y57849D02*
X153281D01*
Y58349D01*
X153114Y58516D01*
X152448D01*
X152281Y58349D01*
Y57849D01*
X153281Y59515D02*
Y58849D01*
X152614Y59515D01*
X152448D01*
X152281Y59349D01*
Y59015D01*
X152448Y58849D01*
X153114Y59848D02*
X153281Y60015D01*
Y60348D01*
X153114Y60515D01*
X152448D01*
X152281Y60348D01*
Y60015D01*
X152448Y59848D01*
X152614D01*
X152781Y60015D01*
Y60515D01*
X201772Y115649D02*
X201605Y115816D01*
X201272D01*
X201105Y115649D01*
Y114983D01*
X201272Y114816D01*
X201605D01*
X201772Y114983D01*
X202105Y114816D02*
Y115816D01*
X202605D01*
X202771Y115649D01*
Y115316D01*
X202605Y115149D01*
X202105D01*
X202438D02*
X202771Y114816D01*
X203771D02*
X203104D01*
X203771Y115483D01*
Y115649D01*
X203604Y115816D01*
X203271D01*
X203104Y115649D01*
X201557Y100917D02*
X201391Y101084D01*
X201057D01*
X200891Y100917D01*
Y100251D01*
X201057Y100084D01*
X201391D01*
X201557Y100251D01*
X201890Y100084D02*
Y101084D01*
X202390D01*
X202557Y100917D01*
Y100584D01*
X202390Y100417D01*
X201890D01*
X202224D02*
X202557Y100084D01*
X202890D02*
X203223D01*
X203057D01*
Y101084D01*
X202890Y100917D01*
X225092Y123912D02*
X224925Y123746D01*
Y123413D01*
X225092Y123246D01*
X225758D01*
X225925Y123413D01*
Y123746D01*
X225758Y123912D01*
X224925Y124912D02*
Y124246D01*
X225425D01*
X225258Y124579D01*
Y124745D01*
X225425Y124912D01*
X225758D01*
X225925Y124745D01*
Y124412D01*
X225758Y124246D01*
X224711Y90765D02*
X224544Y90599D01*
Y90266D01*
X224711Y90099D01*
X225377D01*
X225544Y90266D01*
Y90599D01*
X225377Y90765D01*
X225544Y91598D02*
X224544D01*
X225044Y91099D01*
Y91765D01*
X207820Y131405D02*
X207653Y131239D01*
Y130906D01*
X207820Y130739D01*
X208486D01*
X208653Y130906D01*
Y131239D01*
X208486Y131405D01*
X207820Y131739D02*
X207653Y131905D01*
Y132238D01*
X207820Y132405D01*
X207986D01*
X208153Y132238D01*
Y132072D01*
Y132238D01*
X208320Y132405D01*
X208486D01*
X208653Y132238D01*
Y131905D01*
X208486Y131739D01*
X208074Y77938D02*
X207907Y77772D01*
Y77439D01*
X208074Y77272D01*
X208740D01*
X208907Y77439D01*
Y77772D01*
X208740Y77938D01*
X208907Y78938D02*
Y78272D01*
X208240Y78938D01*
X208074D01*
X207907Y78771D01*
Y78438D01*
X208074Y78272D01*
X147170Y122166D02*
Y121166D01*
X147670D01*
X147836Y121333D01*
Y121499D01*
X147670Y121666D01*
X147170D01*
X147670D01*
X147836Y121833D01*
Y121999D01*
X147670Y122166D01*
X147170D01*
X148169D02*
X148836D01*
X148503D01*
Y121166D01*
X149169D02*
X149502D01*
X149336D01*
Y122166D01*
X149169Y121999D01*
D85*
X148527Y63585D02*
X147680Y64431D01*
X148527D02*
X147680Y63585D01*
X148527Y64008D02*
X147680D01*
X148103Y64431D02*
Y63585D01*
X183833D02*
X182986Y64431D01*
X183833D02*
X182986Y63585D01*
X183833Y64008D02*
X182986D01*
X183409Y64431D02*
Y63585D01*
X166180D02*
X165333Y64431D01*
X166180D02*
X165333Y63585D01*
X166180Y64008D02*
X165333D01*
X165756Y64431D02*
Y63585D01*
D110*
X166751Y113157D02*
G03*
X166751Y113157I-10160J0D01*
G01*
D111*
X77470Y90805D02*
X97790D01*
X77470Y79883D02*
X97790D01*
Y90805D01*
X77470Y79883D02*
Y90805D01*
Y63881D02*
Y74803D01*
X97790Y63881D02*
Y74803D01*
X77470Y63881D02*
X97790D01*
X77470Y74803D02*
X97790D01*
X77470Y47879D02*
Y58801D01*
X97790Y47879D02*
Y58801D01*
X77470Y47879D02*
X97790D01*
X77470Y58801D02*
X97790D01*
X77470Y95758D02*
Y106680D01*
X97790Y95758D02*
Y106680D01*
X77470Y95758D02*
X97790D01*
X77470Y106680D02*
X97790D01*
X77470Y111760D02*
Y122682D01*
X97790Y111760D02*
Y122682D01*
X77470Y111760D02*
X97790D01*
X77470Y122682D02*
X97790D01*
X77597Y127762D02*
Y138684D01*
X97917Y127762D02*
Y138684D01*
X77597Y127762D02*
X97917D01*
X77597Y138684D02*
X97917D01*
X77470Y143764D02*
Y154686D01*
X97790Y143764D02*
Y154686D01*
X77470Y143764D02*
X97790D01*
X77470Y154686D02*
X97790D01*
X60452Y47879D02*
Y58801D01*
X40132Y47879D02*
Y58801D01*
X60452D01*
X40132Y47879D02*
X60452D01*
Y63881D02*
Y74803D01*
X40132Y63881D02*
Y74803D01*
X60452D01*
X40132Y63881D02*
X60452D01*
Y79883D02*
Y90805D01*
X40132Y79883D02*
Y90805D01*
X60452D01*
X40132Y79883D02*
X60452D01*
Y95758D02*
Y106680D01*
X40132Y95758D02*
Y106680D01*
X60452D01*
X40132Y95758D02*
X60452D01*
Y111887D02*
Y122809D01*
X40132Y111887D02*
Y122809D01*
X60452D01*
X40132Y111887D02*
X60452D01*
Y127762D02*
Y138684D01*
X40132Y127762D02*
Y138684D01*
X60452D01*
X40132Y127762D02*
X60452D01*
Y143764D02*
Y154686D01*
X40132Y143764D02*
Y154686D01*
X60452D01*
X40132Y143764D02*
X60452D01*
X77470Y159639D02*
Y170561D01*
X97790Y159639D02*
Y170561D01*
X77470Y159639D02*
X97790D01*
X77470Y170561D02*
X97790D01*
X60452Y159639D02*
Y170561D01*
X40132Y159639D02*
Y170561D01*
X60452D01*
X40132Y159639D02*
X60452D01*
D112*
X165807Y171541D02*
Y169918D01*
X166619D01*
X166889Y170189D01*
Y170459D01*
X166619Y170730D01*
X165807D01*
X166619D01*
X166889Y171000D01*
Y171271D01*
X166619Y171541D01*
X165807D01*
X175807Y169918D02*
Y171000D01*
X176348Y171541D01*
X176889Y171000D01*
Y169918D01*
Y170730D01*
X175807D01*
X170807Y169918D02*
X171889D01*
X163584Y52713D02*
X162502D01*
X189619Y43646D02*
X188537D01*
X189078Y43105D02*
Y44187D01*
X184749Y43646D02*
X183666D01*
X197874D02*
X196792D01*
X197333Y43105D02*
Y44187D01*
X193004Y43646D02*
X191921D01*
X209939D02*
X208857D01*
X209398Y43105D02*
Y44187D01*
X205069Y43646D02*
X203986D01*
X218194D02*
X217112D01*
X217653Y43105D02*
Y44187D01*
X213324Y43646D02*
X212241D01*
X212082Y172970D02*
X213164D01*
X212623Y173511D02*
Y172429D01*
X216952Y172970D02*
X218035D01*
X203827D02*
X204909D01*
X204368Y173511D02*
Y172429D01*
X208697Y172970D02*
X209780D01*
X191762Y173016D02*
X192844D01*
X192303Y173557D02*
Y172475D01*
X196632Y173016D02*
X197715D01*
X183507D02*
X184589D01*
X184048Y173557D02*
Y172475D01*
X188377Y173016D02*
X189460D01*
X144137Y170218D02*
X145219D01*
X135755Y170172D02*
X136837D01*
%TF.MD5,17fad7d36a37f46191b105643a208120*%
M02*
