%TF.GenerationSoftware,Altium Limited,Altium Designer,21.6.4 (81)*%
G04 Layer_Color=32896*
%FSLAX43Y43*%
%MOMM*%
%TF.SameCoordinates,5D8205C6-A8A5-4108-8313-488A8EE5113E*%
%TF.FilePolarity,Positive*%
%TF.FileFunction,Legend,Bot*%
%TF.Part,Single*%
G01*
G75*
%TA.AperFunction,NonConductor*%
%ADD80C,0.250*%
%ADD81C,0.152*%
%ADD82C,0.200*%
%ADD83C,0.150*%
%ADD84C,0.254*%
%ADD85C,0.076*%
G36*
X152319Y109072D02*
X152588Y108803D01*
X152409Y108623D01*
X152139Y108893D01*
X152319Y109072D01*
D02*
G37*
G36*
X159095Y107304D02*
X159275Y107125D01*
X159005Y106855D01*
X158826Y107035D01*
X159095Y107304D01*
D02*
G37*
G36*
X152942Y115579D02*
X152762Y115758D01*
X152493Y115489D01*
X152673Y115309D01*
X152942Y115579D01*
D02*
G37*
G36*
X159179Y116639D02*
X159449Y116370D01*
X159628Y116550D01*
X159359Y116819D01*
X159179Y116639D01*
D02*
G37*
D80*
X75449Y47625D02*
G03*
X75449Y47625I-125J0D01*
G01*
X75576Y58928D02*
G03*
X75576Y58928I-125J0D01*
G01*
Y63627D02*
G03*
X75576Y63627I-125J0D01*
G01*
X75449Y79629D02*
G03*
X75449Y79629I-125J0D01*
G01*
X75576Y91059D02*
G03*
X75576Y91059I-125J0D01*
G01*
Y95504D02*
G03*
X75576Y95504I-125J0D01*
G01*
Y106934D02*
G03*
X75576Y106934I-125J0D01*
G01*
X75588Y111379D02*
G03*
X75588Y111379I-125J0D01*
G01*
X75715Y122936D02*
G03*
X75715Y122936I-125J0D01*
G01*
X75588Y127381D02*
G03*
X75588Y127381I-125J0D01*
G01*
X75461Y138938D02*
G03*
X75461Y138938I-125J0D01*
G01*
X75449Y143510D02*
G03*
X75449Y143510I-125J0D01*
G01*
X75588Y154940D02*
G03*
X75588Y154940I-125J0D01*
G01*
Y159385D02*
G03*
X75588Y159385I-125J0D01*
G01*
Y170688D02*
G03*
X75588Y170688I-125J0D01*
G01*
Y75057D02*
G03*
X75588Y75057I-125J0D01*
G01*
X106195Y80772D02*
G03*
X106195Y80772I-125J0D01*
G01*
X106068Y90170D02*
G03*
X106068Y90170I-125J0D01*
G01*
X106292Y153670D02*
G03*
X106292Y153670I-125J0D01*
G01*
X121039Y57785D02*
G03*
X121039Y57785I-125J0D01*
G01*
Y73406D02*
G03*
X121039Y73406I-125J0D01*
G01*
Y89916D02*
G03*
X121039Y89916I-125J0D01*
G01*
Y105029D02*
G03*
X121039Y105029I-125J0D01*
G01*
Y121539D02*
G03*
X121039Y121539I-125J0D01*
G01*
Y137160D02*
G03*
X121039Y137160I-125J0D01*
G01*
X120912Y153670D02*
G03*
X120912Y153670I-125J0D01*
G01*
X121007Y169291D02*
G03*
X121007Y169291I-125J0D01*
G01*
X106225Y169672D02*
G03*
X106225Y169672I-125J0D01*
G01*
X106195Y144526D02*
G03*
X106195Y144526I-125J0D01*
G01*
X106225Y137795D02*
G03*
X106225Y137795I-125J0D01*
G01*
X106195Y128524D02*
G03*
X106195Y128524I-125J0D01*
G01*
X106225Y112522D02*
G03*
X106225Y112522I-125J0D01*
G01*
Y121666D02*
G03*
X106225Y121666I-125J0D01*
G01*
Y96520D02*
G03*
X106225Y96520I-125J0D01*
G01*
Y105664D02*
G03*
X106225Y105664I-125J0D01*
G01*
X106322Y63881D02*
G03*
X106322Y63881I-125J0D01*
G01*
X106195Y57912D02*
G03*
X106195Y57912I-125J0D01*
G01*
X220370Y79627D02*
G03*
X220370Y79627I-125J0D01*
G01*
X209142Y86487D02*
G03*
X209142Y86487I-125J0D01*
G01*
X196112Y100863D02*
G03*
X196112Y100863I-125J0D01*
G01*
X106449Y74041D02*
G03*
X106449Y74041I-125J0D01*
G01*
X106195Y48641D02*
G03*
X106195Y48641I-125J0D01*
G01*
X106225Y160401D02*
G03*
X106225Y160401I-125J0D01*
G01*
D81*
X162395Y110175D02*
G03*
X162395Y110175I-76J0D01*
G01*
X115100Y71844D02*
X119342D01*
X115100Y66586D02*
X119342D01*
X115100Y56096D02*
X119342D01*
X115100Y50838D02*
X119342D01*
X115100Y167602D02*
X119342D01*
X115100Y162344D02*
X119342D01*
X115100Y151854D02*
X119342D01*
X115100Y146596D02*
X119342D01*
X115100Y135725D02*
X119342D01*
X115100Y130467D02*
X119342D01*
X115100Y119977D02*
X119342D01*
X115100Y114719D02*
X119342D01*
X115100Y103721D02*
X119342D01*
X115100Y98463D02*
X119342D01*
X115100Y87973D02*
X119342D01*
X115100Y82715D02*
X119342D01*
X156247Y116933D02*
X156591Y117276D01*
X151329Y112014D02*
X151672Y111670D01*
X156591Y106752D02*
X156935Y107095D01*
X161510Y111670D02*
X161853Y112014D01*
X156591Y117276D02*
X156935Y116933D01*
X151329Y112014D02*
X151672Y112358D01*
X156247Y107095D02*
X156591Y106752D01*
X161510Y112358D02*
X161853Y112014D01*
D82*
X69749Y49075D02*
X74499D01*
X69749Y46175D02*
Y46410D01*
Y48840D02*
Y49075D01*
Y46175D02*
X74499D01*
Y46410D01*
Y48840D02*
Y49075D01*
X69876Y60378D02*
X74626D01*
X69876Y57478D02*
Y57713D01*
Y60143D02*
Y60378D01*
Y57478D02*
X74626D01*
Y57713D01*
Y60143D02*
Y60378D01*
X69876Y65077D02*
X74626D01*
X69876Y62177D02*
Y62412D01*
Y64842D02*
Y65077D01*
Y62177D02*
X74626D01*
Y62412D01*
Y64842D02*
Y65077D01*
X69749Y81079D02*
X74499D01*
X69749Y78179D02*
Y78414D01*
Y80844D02*
Y81079D01*
Y78179D02*
X74499D01*
Y78414D01*
Y80844D02*
Y81079D01*
X69876Y92509D02*
X74626D01*
X69876Y89609D02*
Y89844D01*
Y92274D02*
Y92509D01*
Y89609D02*
X74626D01*
Y89844D01*
Y92274D02*
Y92509D01*
X69876Y96954D02*
X74626D01*
X69876Y94054D02*
Y94289D01*
Y96719D02*
Y96954D01*
Y94054D02*
X74626D01*
Y94289D01*
Y96719D02*
Y96954D01*
X69876Y108384D02*
X74626D01*
X69876Y105484D02*
Y105719D01*
Y108149D02*
Y108384D01*
Y105484D02*
X74626D01*
Y105719D01*
Y108149D02*
Y108384D01*
X69888Y112829D02*
X74638D01*
X69888Y109929D02*
Y110164D01*
Y112594D02*
Y112829D01*
Y109929D02*
X74638D01*
Y110164D01*
Y112594D02*
Y112829D01*
X70015Y124386D02*
X74765D01*
X70015Y121486D02*
Y121721D01*
Y124151D02*
Y124386D01*
Y121486D02*
X74765D01*
Y121721D01*
Y124151D02*
Y124386D01*
X69888Y128831D02*
X74638D01*
X69888Y125931D02*
Y126166D01*
Y128596D02*
Y128831D01*
Y125931D02*
X74638D01*
Y126166D01*
Y128596D02*
Y128831D01*
X69761Y140388D02*
X74511D01*
X69761Y137488D02*
Y137723D01*
Y140153D02*
Y140388D01*
Y137488D02*
X74511D01*
Y137723D01*
Y140153D02*
Y140388D01*
X69749Y144960D02*
X74499D01*
X69749Y142060D02*
Y142295D01*
Y144725D02*
Y144960D01*
Y142060D02*
X74499D01*
Y142295D01*
Y144725D02*
Y144960D01*
X69888Y156390D02*
X74638D01*
X69888Y153490D02*
Y153725D01*
Y156155D02*
Y156390D01*
Y153490D02*
X74638D01*
Y153725D01*
Y156155D02*
Y156390D01*
X69888Y160835D02*
X74638D01*
X69888Y157935D02*
Y158170D01*
Y160600D02*
Y160835D01*
Y157935D02*
X74638D01*
Y158170D01*
Y160600D02*
Y160835D01*
X69888Y172138D02*
X74638D01*
X69888Y169238D02*
Y169473D01*
Y171903D02*
Y172138D01*
Y169238D02*
X74638D01*
Y169473D01*
Y171903D02*
Y172138D01*
X69888Y76507D02*
X74638D01*
X69888Y73607D02*
Y73842D01*
Y76272D02*
Y76507D01*
Y73607D02*
X74638D01*
Y73842D01*
Y76272D02*
Y76507D01*
X101995Y79972D02*
X103745D01*
X101995Y81572D02*
X103745D01*
X101868Y89370D02*
X103618D01*
X101868Y90970D02*
X103618D01*
X102092Y152870D02*
X103842D01*
X102092Y154470D02*
X103842D01*
X122946Y160074D02*
Y160220D01*
X124196Y160074D02*
Y160220D01*
X126248Y160074D02*
Y160220D01*
X127498Y160074D02*
Y160220D01*
X122946Y80445D02*
Y80591D01*
X124196Y80445D02*
Y80591D01*
X126248Y80445D02*
Y80591D01*
X127498Y80445D02*
Y80591D01*
X122946Y64316D02*
Y64462D01*
X124196Y64316D02*
Y64462D01*
X126248Y64316D02*
Y64462D01*
X127498Y64316D02*
Y64462D01*
X122946Y48568D02*
Y48714D01*
X124196Y48568D02*
Y48714D01*
X126248Y48568D02*
Y48714D01*
X127498Y48568D02*
Y48714D01*
X122414Y56325D02*
Y56560D01*
Y59010D02*
Y59245D01*
X127014D01*
Y56325D02*
Y56560D01*
Y59010D02*
Y59245D01*
X122414Y56325D02*
X127014D01*
X122414Y71946D02*
Y72181D01*
Y74631D02*
Y74866D01*
X127014D01*
Y71946D02*
Y72181D01*
Y74631D02*
Y74866D01*
X122414Y71946D02*
X127014D01*
X122414Y88456D02*
Y88691D01*
Y91141D02*
Y91376D01*
X127014D01*
Y88456D02*
Y88691D01*
Y91141D02*
Y91376D01*
X122414Y88456D02*
X127014D01*
X122414Y103569D02*
Y103804D01*
Y106254D02*
Y106489D01*
X127014D01*
Y103569D02*
Y103804D01*
Y106254D02*
Y106489D01*
X122414Y103569D02*
X127014D01*
X122414Y120079D02*
Y120314D01*
Y122764D02*
Y122999D01*
X127014D01*
Y120079D02*
Y120314D01*
Y122764D02*
Y122999D01*
X122414Y120079D02*
X127014D01*
X122414Y135700D02*
Y135935D01*
Y138385D02*
Y138620D01*
X127014D01*
Y135700D02*
Y135935D01*
Y138385D02*
Y138620D01*
X122414Y135700D02*
X127014D01*
X122287Y152210D02*
Y152445D01*
Y154895D02*
Y155130D01*
X126887D01*
Y152210D02*
Y152445D01*
Y154895D02*
Y155130D01*
X122287Y152210D02*
X126887D01*
X122382Y167831D02*
Y168066D01*
Y170516D02*
Y170751D01*
X126982D01*
Y167831D02*
Y168066D01*
Y170516D02*
Y170751D01*
X122382Y167831D02*
X126982D01*
X116146Y168212D02*
Y170624D01*
X118296Y168212D02*
Y170624D01*
X116019Y152683D02*
Y155095D01*
X118169Y152683D02*
Y155095D01*
X116146Y136554D02*
Y138966D01*
X118296Y136554D02*
Y138966D01*
X116146Y120933D02*
Y123345D01*
X118296Y120933D02*
Y123345D01*
X116146Y104331D02*
Y106743D01*
X118296Y104331D02*
Y106743D01*
X116146Y88710D02*
Y91122D01*
X118296Y88710D02*
Y91122D01*
X116146Y56706D02*
Y59118D01*
X118296Y56706D02*
Y59118D01*
X107496Y52822D02*
X107642D01*
X107496Y51572D02*
X107642D01*
X109249Y54697D02*
X109699D01*
X109249Y56047D02*
X109699D01*
X108335Y60716D02*
X108581D01*
X108335Y61966D02*
X108581D01*
X109020Y67935D02*
X109166D01*
X109020Y66685D02*
X109166D01*
X108614Y70064D02*
X109064D01*
X108614Y71414D02*
X109064D01*
X109376Y86066D02*
X109826D01*
X109376Y87416D02*
X109826D01*
X108335Y92593D02*
X108581D01*
X108335Y93843D02*
X108581D01*
X109020Y100193D02*
X109166D01*
X109020Y98943D02*
X109166D01*
X109249Y101814D02*
X109699D01*
X109249Y103164D02*
X109699D01*
X107496Y116576D02*
X107642D01*
X107496Y115326D02*
X107642D01*
X108614Y117689D02*
X109064D01*
X108614Y119039D02*
X109064D01*
X108335Y124597D02*
X108581D01*
X108335Y125847D02*
X108581D01*
X108639Y132324D02*
X108785D01*
X108639Y131074D02*
X108785D01*
X108453Y134072D02*
X108903D01*
X108453Y135422D02*
X108903D01*
X108360Y150455D02*
X108810D01*
X108360Y151805D02*
X108810D01*
X108462Y156347D02*
X108708D01*
X108462Y157597D02*
X108708D01*
X108639Y163693D02*
X108785D01*
X108639Y162443D02*
X108785D01*
X102025Y168872D02*
X103775D01*
X102025Y170472D02*
X103775D01*
X100648Y167572D02*
X103060D01*
X100648Y165422D02*
X103060D01*
X102035Y164201D02*
X102181D01*
X102035Y162951D02*
X102181D01*
X100735Y151697D02*
X103147D01*
X100735Y149547D02*
X103147D01*
X101995Y143726D02*
X103745D01*
X101995Y145326D02*
X103745D01*
X102025Y136995D02*
X103775D01*
X102025Y138595D02*
X103775D01*
X101995Y127724D02*
X103745D01*
X101995Y129324D02*
X103745D01*
X100648Y135441D02*
X103060D01*
X100648Y133291D02*
X103060D01*
X102025Y111722D02*
X103775D01*
X102025Y113322D02*
X103775D01*
X102025Y120866D02*
X103775D01*
X102025Y122466D02*
X103775D01*
X100608Y119439D02*
X103020D01*
X100608Y117289D02*
X103020D01*
X102025Y95720D02*
X103775D01*
X102025Y97320D02*
X103775D01*
X102025Y104864D02*
X103775D01*
X102025Y106464D02*
X103775D01*
X100608Y103564D02*
X103020D01*
X100608Y101414D02*
X103020D01*
X107369Y84699D02*
X107515D01*
X107369Y83449D02*
X107515D01*
X102122Y63081D02*
X103872D01*
X102122Y64681D02*
X103872D01*
X101995Y57112D02*
X103745D01*
X101995Y58712D02*
X103745D01*
X100648Y55812D02*
X103060D01*
X100648Y53662D02*
X103060D01*
X161595Y156554D02*
X164795D01*
Y161454D01*
X161595D02*
X164795D01*
X161595Y156554D02*
Y161454D01*
X159720Y156424D02*
X161245D01*
X155077Y169218D02*
Y169364D01*
X156327Y169218D02*
Y169364D01*
X158867Y169184D02*
Y169329D01*
X157617Y169184D02*
Y169329D01*
X165618Y167694D02*
Y167840D01*
X166868Y167694D02*
Y167840D01*
X176901Y169218D02*
Y169364D01*
X175651Y169218D02*
Y169364D01*
X167933Y165344D02*
X169633D01*
X167083Y164094D02*
X169633D01*
X172829D02*
X174529D01*
X172829Y165344D02*
X175379D01*
X165618Y120254D02*
X165720Y120152D01*
X164734Y119370D02*
X164836Y119268D01*
X139147Y102526D02*
X144309Y97364D01*
X135665Y99928D02*
X141269Y94324D01*
X141337Y101364D02*
X142893Y99808D01*
X142857Y102884D02*
X144413Y101328D01*
X162673Y102979D02*
X164229Y104535D01*
X164193Y101459D02*
X165749Y103015D01*
X159522Y72063D02*
Y72209D01*
X160772Y72063D02*
Y72209D01*
X178851Y64895D02*
Y68201D01*
X176495Y64895D02*
Y68201D01*
X143545Y64768D02*
Y68074D01*
X141189Y64768D02*
Y68074D01*
X161325Y64895D02*
Y68201D01*
X158969Y64895D02*
Y68201D01*
X153152Y49521D02*
Y49766D01*
X151902Y49521D02*
Y49766D01*
X183442Y56632D02*
X183588D01*
X183442Y55382D02*
X183588D01*
X187760Y56632D02*
X187906D01*
X187760Y55382D02*
X187906D01*
X197793Y56632D02*
X197939D01*
X197793Y55382D02*
X197939D01*
X203762Y56632D02*
X203908D01*
X203762Y55382D02*
X203908D01*
X208080Y56632D02*
X208226D01*
X208080Y55382D02*
X208226D01*
X218113Y56632D02*
X218259D01*
X218113Y55382D02*
X218259D01*
X201095Y61224D02*
X201241D01*
X201095Y62474D02*
X201241D01*
X194491Y60970D02*
X194637D01*
X194491Y62220D02*
X194637D01*
X191145Y65586D02*
Y65732D01*
X192395Y65586D02*
Y65732D01*
X187335Y72825D02*
Y72971D01*
X188585Y72825D02*
Y72971D01*
X191272Y72825D02*
Y72971D01*
X192522Y72825D02*
Y72971D01*
X206893Y72825D02*
Y72971D01*
X208143Y72825D02*
Y72971D01*
X215120Y72977D02*
X219220D01*
X215120Y79677D02*
X219220D01*
X215120Y72977D02*
Y79677D01*
X219220Y72977D02*
Y79677D01*
X212183Y82677D02*
X212783D01*
X212483Y82377D02*
Y82977D01*
X215533Y80977D02*
X217283D01*
X215533Y84377D02*
X217283D01*
X211342Y87287D02*
X213092D01*
X211342Y85687D02*
X213092D01*
X192802Y103642D02*
X192947D01*
X192802Y104892D02*
X192947D01*
X201146Y99149D02*
X203842D01*
X201146D02*
Y109385D01*
X203842D01*
X201222Y139329D02*
X201368D01*
X201222Y140579D02*
X201368D01*
X188585Y143276D02*
Y143421D01*
X187335Y143276D02*
Y143421D01*
X196713Y151311D02*
Y151457D01*
X195463Y151311D02*
Y151457D01*
X208270Y143276D02*
Y143421D01*
X207020Y143276D02*
Y143421D01*
X212207Y143310D02*
Y143456D01*
X210957Y143310D02*
Y143456D01*
X212207Y150372D02*
Y150618D01*
X210957Y150372D02*
Y150618D01*
X218113Y159522D02*
X218259D01*
X218113Y160772D02*
X218259D01*
X213795Y159522D02*
X213941D01*
X213795Y160772D02*
X213941D01*
X208046D02*
X208191D01*
X208046Y159522D02*
X208191D01*
X203762D02*
X203908D01*
X203762Y160772D02*
X203908D01*
X197759Y159522D02*
X197904D01*
X197759Y160772D02*
X197904D01*
X193475Y159522D02*
X193621D01*
X193475Y160772D02*
X193621D01*
X187726D02*
X187871D01*
X187726Y159522D02*
X187871D01*
X183569D02*
X183715D01*
X183569Y160772D02*
X183715D01*
X134229Y163157D02*
Y163302D01*
X132979Y163157D02*
Y163302D01*
X136769Y163157D02*
Y163302D01*
X135519Y163157D02*
Y163302D01*
X142611Y163157D02*
Y163302D01*
X141361Y163157D02*
Y163302D01*
X145151Y163157D02*
Y163302D01*
X143901Y163157D02*
Y163302D01*
X153787Y169218D02*
Y169364D01*
X152537Y169218D02*
Y169364D01*
X149362Y49848D02*
Y50093D01*
X150612Y49848D02*
Y50093D01*
X146822Y49848D02*
Y50093D01*
X148072Y49848D02*
Y50093D01*
X142992Y72029D02*
Y72174D01*
X141742Y72029D02*
Y72174D01*
X178298Y72063D02*
Y72209D01*
X177048Y72063D02*
Y72209D01*
X191272Y143253D02*
Y143398D01*
X192522Y143253D02*
Y143398D01*
X191272Y150549D02*
Y150695D01*
X192522Y150549D02*
Y150695D01*
X211936Y65604D02*
Y65749D01*
X210686Y65604D02*
Y65749D01*
X211953Y72825D02*
Y72971D01*
X210703Y72825D02*
Y72971D01*
X193475Y56632D02*
X193621D01*
X193475Y55382D02*
X193621D01*
X213795Y56632D02*
X213941D01*
X213795Y55382D02*
X213941D01*
X215763Y165662D02*
Y165808D01*
X214513Y165662D02*
Y165808D01*
X207508Y165662D02*
Y165808D01*
X206258Y165662D02*
Y165808D01*
X187188Y165824D02*
Y165969D01*
X185938Y165824D02*
Y165969D01*
X195443Y165662D02*
Y165808D01*
X194193Y165662D02*
Y165808D01*
X112907Y61966D02*
X113153D01*
X112907Y60716D02*
X113153D01*
X112848Y125847D02*
X113093D01*
X112848Y124597D02*
X113093D01*
X113034Y93843D02*
X113280D01*
X113034Y92593D02*
X113280D01*
X112907Y157597D02*
X113153D01*
X112907Y156347D02*
X113153D01*
X209858Y82052D02*
X210004D01*
X209858Y83302D02*
X210004D01*
X215763Y50473D02*
Y50619D01*
X214513Y50473D02*
Y50619D01*
X207508Y50439D02*
Y50584D01*
X206258Y50439D02*
Y50584D01*
X187188Y50346D02*
Y50492D01*
X185938Y50346D02*
Y50492D01*
X195443Y50346D02*
Y50492D01*
X194193Y50346D02*
Y50492D01*
X127498Y144326D02*
Y144472D01*
X126248Y144326D02*
Y144472D01*
X124196Y144326D02*
Y144472D01*
X122946Y144326D02*
Y144472D01*
X127498Y128197D02*
Y128343D01*
X126248Y128197D02*
Y128343D01*
X124196Y128197D02*
Y128343D01*
X122946Y128197D02*
Y128343D01*
X127498Y112449D02*
Y112595D01*
X126248Y112449D02*
Y112595D01*
X124196Y112449D02*
Y112595D01*
X122946Y112449D02*
Y112595D01*
X127498Y96193D02*
Y96339D01*
X126248Y96193D02*
Y96339D01*
X124196Y96193D02*
Y96339D01*
X122946Y96193D02*
Y96339D01*
X118296Y72546D02*
Y74958D01*
X116146Y72546D02*
Y74958D01*
X107115Y147203D02*
X107261D01*
X107115Y148453D02*
X107261D01*
X108360Y166918D02*
X108810D01*
X108360Y165568D02*
X108810D01*
X102249Y74841D02*
X103999D01*
X102249Y73241D02*
X103999D01*
X100902Y69410D02*
X103314D01*
X100902Y71560D02*
X103314D01*
X102035Y66812D02*
X102181D01*
X102035Y68062D02*
X102181D01*
X101995Y49441D02*
X103745D01*
X101995Y47841D02*
X103745D01*
X101874Y147203D02*
X102019D01*
X101874Y148453D02*
X102019D01*
X101908Y51572D02*
X102054D01*
X101908Y52822D02*
X102054D01*
X100608Y85412D02*
X103020D01*
X100608Y87562D02*
X103020D01*
X102001Y83322D02*
X102146D01*
X102001Y84572D02*
X102146D01*
X102001Y99070D02*
X102146D01*
X102001Y100320D02*
X102146D01*
X101908Y131074D02*
X102054D01*
X101908Y132324D02*
X102054D01*
X102001Y115199D02*
X102146D01*
X102001Y116449D02*
X102146D01*
X102025Y161201D02*
X103775D01*
X102025Y159601D02*
X103775D01*
D83*
X203287Y67715D02*
Y70715D01*
X198287Y67715D02*
Y70715D01*
Y67715D02*
X203287D01*
X198287Y70715D02*
X203287D01*
X199037Y67715D02*
Y70715D01*
X203287Y146074D02*
Y149074D01*
X198287Y146074D02*
Y149074D01*
Y146074D02*
X203287D01*
X198287Y149074D02*
X203287D01*
X199037Y146074D02*
Y149074D01*
D84*
X214376Y101600D02*
X216916D01*
Y106680D01*
X214376D02*
X216916D01*
X214376Y101600D02*
Y106680D01*
X68643Y144010D02*
Y143010D01*
X68143D01*
X67976Y143177D01*
Y143843D01*
X68143Y144010D01*
X68643D01*
X67143Y143010D02*
Y144010D01*
X67643Y143510D01*
X66977D01*
X65977Y144010D02*
X66310Y143843D01*
X66644Y143510D01*
Y143177D01*
X66477Y143010D01*
X66144D01*
X65977Y143177D01*
Y143343D01*
X66144Y143510D01*
X66644D01*
X68643Y155313D02*
Y154313D01*
X68143D01*
X67976Y154480D01*
Y155146D01*
X68143Y155313D01*
X68643D01*
X67143Y154313D02*
Y155313D01*
X67643Y154813D01*
X66977D01*
X65977Y155313D02*
X66644D01*
Y154813D01*
X66310Y154980D01*
X66144D01*
X65977Y154813D01*
Y154480D01*
X66144Y154313D01*
X66477D01*
X66644Y154480D01*
X68770Y160012D02*
Y159012D01*
X68270D01*
X68103Y159179D01*
Y159845D01*
X68270Y160012D01*
X68770D01*
X67270Y159012D02*
Y160012D01*
X67770Y159512D01*
X67104D01*
X66271Y159012D02*
Y160012D01*
X66771Y159512D01*
X66104D01*
X68643Y171188D02*
Y170188D01*
X68143D01*
X67976Y170355D01*
Y171021D01*
X68143Y171188D01*
X68643D01*
X67143Y170188D02*
Y171188D01*
X67643Y170688D01*
X66977D01*
X66644Y171021D02*
X66477Y171188D01*
X66144D01*
X65977Y171021D01*
Y170855D01*
X66144Y170688D01*
X66310D01*
X66144D01*
X65977Y170521D01*
Y170355D01*
X66144Y170188D01*
X66477D01*
X66644Y170355D01*
X68770Y111752D02*
Y110752D01*
X68270D01*
X68103Y110919D01*
Y111585D01*
X68270Y111752D01*
X68770D01*
X67270Y110752D02*
Y111752D01*
X67770Y111252D01*
X67104D01*
X66104Y110752D02*
X66771D01*
X66104Y111419D01*
Y111585D01*
X66271Y111752D01*
X66604D01*
X66771Y111585D01*
X68730Y123436D02*
Y122436D01*
X68230D01*
X68064Y122603D01*
Y123269D01*
X68230Y123436D01*
X68730D01*
X67231Y122436D02*
Y123436D01*
X67731Y122936D01*
X67064D01*
X66731Y122436D02*
X66398D01*
X66564D01*
Y123436D01*
X66731Y123269D01*
X68516Y128135D02*
Y127135D01*
X68016D01*
X67849Y127302D01*
Y127968D01*
X68016Y128135D01*
X68516D01*
X67016Y127135D02*
Y128135D01*
X67516Y127635D01*
X66850D01*
X66517Y127968D02*
X66350Y128135D01*
X66017D01*
X65850Y127968D01*
Y127302D01*
X66017Y127135D01*
X66350D01*
X66517Y127302D01*
Y127968D01*
X68516Y139311D02*
Y138311D01*
X68016D01*
X67849Y138478D01*
Y139144D01*
X68016Y139311D01*
X68516D01*
X67516Y139144D02*
X67350Y139311D01*
X67016D01*
X66850Y139144D01*
Y138978D01*
X67016Y138811D01*
X67183D01*
X67016D01*
X66850Y138644D01*
Y138478D01*
X67016Y138311D01*
X67350D01*
X67516Y138478D01*
X66517D02*
X66350Y138311D01*
X66017D01*
X65850Y138478D01*
Y139144D01*
X66017Y139311D01*
X66350D01*
X66517Y139144D01*
Y138978D01*
X66350Y138811D01*
X65850D01*
X68643Y80256D02*
Y79256D01*
X68143D01*
X67976Y79423D01*
Y80089D01*
X68143Y80256D01*
X68643D01*
X67643Y80089D02*
X67477Y80256D01*
X67143D01*
X66977Y80089D01*
Y79923D01*
X67143Y79756D01*
X67310D01*
X67143D01*
X66977Y79589D01*
Y79423D01*
X67143Y79256D01*
X67477D01*
X67643Y79423D01*
X66644Y80089D02*
X66477Y80256D01*
X66144D01*
X65977Y80089D01*
Y79923D01*
X66144Y79756D01*
X65977Y79589D01*
Y79423D01*
X66144Y79256D01*
X66477D01*
X66644Y79423D01*
Y79589D01*
X66477Y79756D01*
X66644Y79923D01*
Y80089D01*
X66477Y79756D02*
X66144D01*
X68770Y91559D02*
Y90559D01*
X68270D01*
X68103Y90726D01*
Y91392D01*
X68270Y91559D01*
X68770D01*
X67770Y91392D02*
X67604Y91559D01*
X67270D01*
X67104Y91392D01*
Y91226D01*
X67270Y91059D01*
X67437D01*
X67270D01*
X67104Y90892D01*
Y90726D01*
X67270Y90559D01*
X67604D01*
X67770Y90726D01*
X66771Y91559D02*
X66104D01*
Y91392D01*
X66771Y90726D01*
Y90559D01*
X68643Y96004D02*
Y95004D01*
X68143D01*
X67976Y95171D01*
Y95837D01*
X68143Y96004D01*
X68643D01*
X67643Y95837D02*
X67477Y96004D01*
X67143D01*
X66977Y95837D01*
Y95671D01*
X67143Y95504D01*
X67310D01*
X67143D01*
X66977Y95337D01*
Y95171D01*
X67143Y95004D01*
X67477D01*
X67643Y95171D01*
X65977Y96004D02*
X66310Y95837D01*
X66644Y95504D01*
Y95171D01*
X66477Y95004D01*
X66144D01*
X65977Y95171D01*
Y95337D01*
X66144Y95504D01*
X66644D01*
X68643Y107561D02*
Y106561D01*
X68143D01*
X67976Y106728D01*
Y107394D01*
X68143Y107561D01*
X68643D01*
X67643Y107394D02*
X67477Y107561D01*
X67143D01*
X66977Y107394D01*
Y107228D01*
X67143Y107061D01*
X67310D01*
X67143D01*
X66977Y106894D01*
Y106728D01*
X67143Y106561D01*
X67477D01*
X67643Y106728D01*
X65977Y107561D02*
X66644D01*
Y107061D01*
X66310Y107228D01*
X66144D01*
X65977Y107061D01*
Y106728D01*
X66144Y106561D01*
X66477D01*
X66644Y106728D01*
X68516Y48125D02*
Y47125D01*
X68016D01*
X67849Y47292D01*
Y47958D01*
X68016Y48125D01*
X68516D01*
X67516Y47958D02*
X67350Y48125D01*
X67016D01*
X66850Y47958D01*
Y47792D01*
X67016Y47625D01*
X67183D01*
X67016D01*
X66850Y47458D01*
Y47292D01*
X67016Y47125D01*
X67350D01*
X67516Y47292D01*
X66017Y47125D02*
Y48125D01*
X66517Y47625D01*
X65850D01*
X68770Y59428D02*
Y58428D01*
X68270D01*
X68103Y58595D01*
Y59261D01*
X68270Y59428D01*
X68770D01*
X67770Y59261D02*
X67604Y59428D01*
X67270D01*
X67104Y59261D01*
Y59095D01*
X67270Y58928D01*
X67437D01*
X67270D01*
X67104Y58761D01*
Y58595D01*
X67270Y58428D01*
X67604D01*
X67770Y58595D01*
X66771Y59261D02*
X66604Y59428D01*
X66271D01*
X66104Y59261D01*
Y59095D01*
X66271Y58928D01*
X66437D01*
X66271D01*
X66104Y58761D01*
Y58595D01*
X66271Y58428D01*
X66604D01*
X66771Y58595D01*
X68643Y64254D02*
Y63254D01*
X68143D01*
X67976Y63421D01*
Y64087D01*
X68143Y64254D01*
X68643D01*
X67643Y64087D02*
X67477Y64254D01*
X67143D01*
X66977Y64087D01*
Y63921D01*
X67143Y63754D01*
X67310D01*
X67143D01*
X66977Y63587D01*
Y63421D01*
X67143Y63254D01*
X67477D01*
X67643Y63421D01*
X65977Y63254D02*
X66644D01*
X65977Y63921D01*
Y64087D01*
X66144Y64254D01*
X66477D01*
X66644Y64087D01*
X68770Y75557D02*
Y74557D01*
X68270D01*
X68103Y74724D01*
Y75390D01*
X68270Y75557D01*
X68770D01*
X67104Y74557D02*
X67770D01*
X67104Y75224D01*
Y75390D01*
X67270Y75557D01*
X67604D01*
X67770Y75390D01*
X66771D02*
X66604Y75557D01*
X66271D01*
X66104Y75390D01*
Y75224D01*
X66271Y75057D01*
X66104Y74890D01*
Y74724D01*
X66271Y74557D01*
X66604D01*
X66771Y74724D01*
Y74890D01*
X66604Y75057D01*
X66771Y75224D01*
Y75390D01*
X66604Y75057D02*
X66271D01*
X213423Y88892D02*
Y87892D01*
X212923D01*
X212756Y88059D01*
Y88725D01*
X212923Y88892D01*
X213423D01*
X211757Y87892D02*
X212423D01*
X211757Y88559D01*
Y88725D01*
X211923Y88892D01*
X212257D01*
X212423Y88725D01*
X211424Y88892D02*
X210757D01*
Y88725D01*
X211424Y88059D01*
Y87892D01*
X169489Y167124D02*
X168823D01*
Y166957D01*
X169489Y166291D01*
Y166124D01*
X168823D01*
X167823D02*
X168489D01*
X167823Y166791D01*
Y166957D01*
X167990Y167124D01*
X168323D01*
X168489Y166957D01*
X174656Y166870D02*
X173990D01*
Y166703D01*
X174656Y166037D01*
Y165870D01*
X173990D01*
X173657D02*
X173324D01*
X173490D01*
Y166870D01*
X173657Y166703D01*
X118725Y146296D02*
Y145463D01*
X118558Y145296D01*
X118225D01*
X118058Y145463D01*
Y146296D01*
X117725Y145296D02*
X117392D01*
X117558D01*
Y146296D01*
X117725Y146129D01*
X116225Y145296D02*
X116892D01*
X116225Y145963D01*
Y146129D01*
X116392Y146296D01*
X116725D01*
X116892Y146129D01*
X118685Y82288D02*
Y81455D01*
X118518Y81288D01*
X118185D01*
X118019Y81455D01*
Y82288D01*
X117685Y81288D02*
X117352D01*
X117519D01*
Y82288D01*
X117685Y82121D01*
X116852Y81288D02*
X116519D01*
X116686D01*
Y82288D01*
X116852Y82121D01*
X118852Y161917D02*
Y161084D01*
X118685Y160917D01*
X118352D01*
X118185Y161084D01*
Y161917D01*
X117852Y160917D02*
X117519D01*
X117685D01*
Y161917D01*
X117852Y161750D01*
X117019D02*
X116852Y161917D01*
X116519D01*
X116352Y161750D01*
Y161084D01*
X116519Y160917D01*
X116852D01*
X117019Y161084D01*
Y161750D01*
X118181Y98036D02*
Y97203D01*
X118014Y97036D01*
X117681D01*
X117515Y97203D01*
Y98036D01*
X117181Y97203D02*
X117015Y97036D01*
X116682D01*
X116515Y97203D01*
Y97869D01*
X116682Y98036D01*
X117015D01*
X117181Y97869D01*
Y97703D01*
X117015Y97536D01*
X116515D01*
X118181Y50284D02*
Y49451D01*
X118014Y49284D01*
X117681D01*
X117515Y49451D01*
Y50284D01*
X117181Y50117D02*
X117015Y50284D01*
X116682D01*
X116515Y50117D01*
Y49951D01*
X116682Y49784D01*
X116515Y49617D01*
Y49451D01*
X116682Y49284D01*
X117015D01*
X117181Y49451D01*
Y49617D01*
X117015Y49784D01*
X117181Y49951D01*
Y50117D01*
X117015Y49784D02*
X116682D01*
X118181Y114292D02*
Y113459D01*
X118014Y113292D01*
X117681D01*
X117515Y113459D01*
Y114292D01*
X117181D02*
X116515D01*
Y114125D01*
X117181Y113459D01*
Y113292D01*
X118181Y130167D02*
Y129334D01*
X118014Y129167D01*
X117681D01*
X117515Y129334D01*
Y130167D01*
X116515D02*
X116848Y130000D01*
X117181Y129667D01*
Y129334D01*
X117015Y129167D01*
X116682D01*
X116515Y129334D01*
Y129500D01*
X116682Y129667D01*
X117181D01*
X118054Y66286D02*
Y65453D01*
X117887Y65286D01*
X117554D01*
X117388Y65453D01*
Y66286D01*
X116388D02*
X117054D01*
Y65786D01*
X116721Y65953D01*
X116555D01*
X116388Y65786D01*
Y65453D01*
X116555Y65286D01*
X116888D01*
X117054Y65453D01*
X157297Y118864D02*
Y118031D01*
X157130Y117864D01*
X156797D01*
X156631Y118031D01*
Y118864D01*
X155798Y117864D02*
Y118864D01*
X156297Y118364D01*
X155631D01*
X164028Y156202D02*
Y155369D01*
X163861Y155202D01*
X163528D01*
X163362Y155369D01*
Y156202D01*
X163028Y156035D02*
X162862Y156202D01*
X162529D01*
X162362Y156035D01*
Y155869D01*
X162529Y155702D01*
X162695D01*
X162529D01*
X162362Y155535D01*
Y155369D01*
X162529Y155202D01*
X162862D01*
X163028Y155369D01*
X203906Y110990D02*
Y110157D01*
X203739Y109990D01*
X203406D01*
X203240Y110157D01*
Y110990D01*
X202240Y109990D02*
X202906D01*
X202240Y110657D01*
Y110823D01*
X202407Y110990D01*
X202740D01*
X202906Y110823D01*
X218725Y72763D02*
Y71930D01*
X218559Y71763D01*
X218226D01*
X218059Y71930D01*
Y72763D01*
X217726Y71763D02*
X217393D01*
X217559D01*
Y72763D01*
X217726Y72596D01*
X161171Y71994D02*
X162171D01*
Y72494D01*
X162004Y72660D01*
X161671D01*
X161504Y72494D01*
Y71994D01*
Y72327D02*
X161171Y72660D01*
Y72994D02*
Y73327D01*
Y73160D01*
X162171D01*
X162004Y72994D01*
X161171Y73827D02*
Y74160D01*
Y73993D01*
X162171D01*
X162004Y73827D01*
Y74660D02*
X162171Y74826D01*
Y75160D01*
X162004Y75326D01*
X161838D01*
X161671Y75160D01*
X161504Y75326D01*
X161338D01*
X161171Y75160D01*
Y74826D01*
X161338Y74660D01*
X161504D01*
X161671Y74826D01*
X161838Y74660D01*
X162004D01*
X161671Y74826D02*
Y75160D01*
X178951Y71994D02*
X179951D01*
Y72494D01*
X179784Y72660D01*
X179451D01*
X179284Y72494D01*
Y71994D01*
Y72327D02*
X178951Y72660D01*
Y72994D02*
Y73327D01*
Y73160D01*
X179951D01*
X179784Y72994D01*
X178951Y73827D02*
Y74160D01*
Y73993D01*
X179951D01*
X179784Y73827D01*
X179951Y74660D02*
Y75326D01*
X179784D01*
X179118Y74660D01*
X178951D01*
X143518Y72248D02*
X144518D01*
Y72748D01*
X144351Y72914D01*
X144018D01*
X143851Y72748D01*
Y72248D01*
Y72581D02*
X143518Y72914D01*
Y73248D02*
Y73581D01*
Y73414D01*
X144518D01*
X144351Y73248D01*
X143518Y74081D02*
Y74414D01*
Y74247D01*
X144518D01*
X144351Y74081D01*
X144518Y75580D02*
X144351Y75247D01*
X144018Y74914D01*
X143685D01*
X143518Y75080D01*
Y75414D01*
X143685Y75580D01*
X143851D01*
X144018Y75414D01*
Y74914D01*
X147963Y51928D02*
X148963D01*
Y52428D01*
X148796Y52594D01*
X148463D01*
X148296Y52428D01*
Y51928D01*
Y52261D02*
X147963Y52594D01*
Y52928D02*
Y53261D01*
Y53094D01*
X148963D01*
X148796Y52928D01*
X147963Y53761D02*
Y54094D01*
Y53927D01*
X148963D01*
X148796Y53761D01*
X148963Y55260D02*
Y54594D01*
X148463D01*
X148630Y54927D01*
Y55094D01*
X148463Y55260D01*
X148130D01*
X147963Y55094D01*
Y54760D01*
X148130Y54594D01*
X150630Y51801D02*
X151630D01*
Y52301D01*
X151463Y52467D01*
X151130D01*
X150963Y52301D01*
Y51801D01*
Y52134D02*
X150630Y52467D01*
Y52801D02*
Y53134D01*
Y52967D01*
X151630D01*
X151463Y52801D01*
X150630Y53634D02*
Y53967D01*
Y53800D01*
X151630D01*
X151463Y53634D01*
X150630Y54967D02*
X151630D01*
X151130Y54467D01*
Y55133D01*
X153170Y51674D02*
X154170D01*
Y52174D01*
X154003Y52340D01*
X153670D01*
X153503Y52174D01*
Y51674D01*
Y52007D02*
X153170Y52340D01*
Y52674D02*
Y53007D01*
Y52840D01*
X154170D01*
X154003Y52674D01*
X153170Y53507D02*
Y53840D01*
Y53673D01*
X154170D01*
X154003Y53507D01*
Y54340D02*
X154170Y54506D01*
Y54840D01*
X154003Y55006D01*
X153837D01*
X153670Y54840D01*
Y54673D01*
Y54840D01*
X153503Y55006D01*
X153337D01*
X153170Y54840D01*
Y54506D01*
X153337Y54340D01*
X114696Y158250D02*
Y159250D01*
X114196D01*
X114030Y159083D01*
Y158750D01*
X114196Y158583D01*
X114696D01*
X114363D02*
X114030Y158250D01*
X113696D02*
X113363D01*
X113530D01*
Y159250D01*
X113696Y159083D01*
X112863Y158250D02*
X112530D01*
X112697D01*
Y159250D01*
X112863Y159083D01*
X111364Y158250D02*
X112030D01*
X111364Y158917D01*
Y159083D01*
X111530Y159250D01*
X111864D01*
X112030Y159083D01*
X114657Y94496D02*
Y95496D01*
X114157D01*
X113990Y95329D01*
Y94996D01*
X114157Y94829D01*
X114657D01*
X114323D02*
X113990Y94496D01*
X113657D02*
X113324D01*
X113490D01*
Y95496D01*
X113657Y95329D01*
X112824Y94496D02*
X112491D01*
X112657D01*
Y95496D01*
X112824Y95329D01*
X111991Y94496D02*
X111657D01*
X111824D01*
Y95496D01*
X111991Y95329D01*
X109743Y158123D02*
Y159123D01*
X109243D01*
X109077Y158956D01*
Y158623D01*
X109243Y158456D01*
X109743D01*
X109410D02*
X109077Y158123D01*
X108743D02*
X108410D01*
X108577D01*
Y159123D01*
X108743Y158956D01*
X107910Y158123D02*
X107577D01*
X107744D01*
Y159123D01*
X107910Y158956D01*
X107077D02*
X106911Y159123D01*
X106577D01*
X106411Y158956D01*
Y158290D01*
X106577Y158123D01*
X106911D01*
X107077Y158290D01*
Y158956D01*
X109953Y94496D02*
Y95496D01*
X109454D01*
X109287Y95329D01*
Y94996D01*
X109454Y94829D01*
X109953D01*
X109620D02*
X109287Y94496D01*
X108954D02*
X108621D01*
X108787D01*
Y95496D01*
X108954Y95329D01*
X108121D02*
X107954Y95496D01*
X107621D01*
X107454Y95329D01*
Y94663D01*
X107621Y94496D01*
X107954D01*
X108121Y94663D01*
Y95329D01*
X107121D02*
X106954Y95496D01*
X106621D01*
X106455Y95329D01*
Y95163D01*
X106621Y94996D01*
X106455Y94829D01*
Y94663D01*
X106621Y94496D01*
X106954D01*
X107121Y94663D01*
Y94829D01*
X106954Y94996D01*
X107121Y95163D01*
Y95329D01*
X106954Y94996D02*
X106621D01*
X100047Y147455D02*
Y148455D01*
X99548D01*
X99381Y148288D01*
Y147955D01*
X99548Y147788D01*
X100047D01*
X99714D02*
X99381Y147455D01*
X99048D02*
X98715D01*
X98881D01*
Y148455D01*
X99048Y148288D01*
X98215D02*
X98048Y148455D01*
X97715D01*
X97548Y148288D01*
Y147622D01*
X97715Y147455D01*
X98048D01*
X98215Y147622D01*
Y148288D01*
X96549Y148455D02*
X96882Y148288D01*
X97215Y147955D01*
Y147622D01*
X97048Y147455D01*
X96715D01*
X96549Y147622D01*
Y147788D01*
X96715Y147955D01*
X97215D01*
X100047Y83447D02*
Y84447D01*
X99548D01*
X99381Y84280D01*
Y83947D01*
X99548Y83780D01*
X100047D01*
X99714D02*
X99381Y83447D01*
X99048D02*
X98715D01*
X98881D01*
Y84447D01*
X99048Y84280D01*
X98215D02*
X98048Y84447D01*
X97715D01*
X97548Y84280D01*
Y83614D01*
X97715Y83447D01*
X98048D01*
X98215Y83614D01*
Y84280D01*
X96549Y84447D02*
X97215D01*
Y83947D01*
X96882Y84114D01*
X96715D01*
X96549Y83947D01*
Y83614D01*
X96715Y83447D01*
X97048D01*
X97215Y83614D01*
X109318Y145677D02*
Y146677D01*
X108819D01*
X108652Y146510D01*
Y146177D01*
X108819Y146010D01*
X109318D01*
X108985D02*
X108652Y145677D01*
X108319D02*
X107986D01*
X108152D01*
Y146677D01*
X108319Y146510D01*
X107486D02*
X107319Y146677D01*
X106986D01*
X106819Y146510D01*
Y145844D01*
X106986Y145677D01*
X107319D01*
X107486Y145844D01*
Y146510D01*
X105986Y145677D02*
Y146677D01*
X106486Y146177D01*
X105820D01*
X109064Y82050D02*
Y83050D01*
X108565D01*
X108398Y82883D01*
Y82550D01*
X108565Y82383D01*
X109064D01*
X108731D02*
X108398Y82050D01*
X108065D02*
X107732D01*
X107898D01*
Y83050D01*
X108065Y82883D01*
X107232D02*
X107065Y83050D01*
X106732D01*
X106565Y82883D01*
Y82217D01*
X106732Y82050D01*
X107065D01*
X107232Y82217D01*
Y82883D01*
X106232D02*
X106065Y83050D01*
X105732D01*
X105566Y82883D01*
Y82717D01*
X105732Y82550D01*
X105899D01*
X105732D01*
X105566Y82383D01*
Y82217D01*
X105732Y82050D01*
X106065D01*
X106232Y82217D01*
X194662Y57031D02*
Y58031D01*
X194163D01*
X193996Y57864D01*
Y57531D01*
X194163Y57364D01*
X194662D01*
X194329D02*
X193996Y57031D01*
X193663D02*
X193330D01*
X193496D01*
Y58031D01*
X193663Y57864D01*
X192830D02*
X192663Y58031D01*
X192330D01*
X192163Y57864D01*
Y57198D01*
X192330Y57031D01*
X192663D01*
X192830Y57198D01*
Y57864D01*
X191164Y57031D02*
X191830D01*
X191164Y57698D01*
Y57864D01*
X191330Y58031D01*
X191663D01*
X191830Y57864D01*
X214054Y57158D02*
Y58158D01*
X213554D01*
X213387Y57991D01*
Y57658D01*
X213554Y57491D01*
X214054D01*
X213721D02*
X213387Y57158D01*
X213054D02*
X212721D01*
X212888D01*
Y58158D01*
X213054Y57991D01*
X212221D02*
X212054Y58158D01*
X211721D01*
X211555Y57991D01*
Y57325D01*
X211721Y57158D01*
X212054D01*
X212221Y57325D01*
Y57991D01*
X211221Y57158D02*
X210888D01*
X211055D01*
Y58158D01*
X211221Y57991D01*
X200250Y57031D02*
Y58031D01*
X199751D01*
X199584Y57864D01*
Y57531D01*
X199751Y57364D01*
X200250D01*
X199917D02*
X199584Y57031D01*
X199251D02*
X198918D01*
X199084D01*
Y58031D01*
X199251Y57864D01*
X198418D02*
X198251Y58031D01*
X197918D01*
X197751Y57864D01*
Y57198D01*
X197918Y57031D01*
X198251D01*
X198418Y57198D01*
Y57864D01*
X197418D02*
X197251Y58031D01*
X196918D01*
X196752Y57864D01*
Y57198D01*
X196918Y57031D01*
X197251D01*
X197418Y57198D01*
Y57864D01*
X220789Y57031D02*
Y58031D01*
X220289D01*
X220122Y57864D01*
Y57531D01*
X220289Y57364D01*
X220789D01*
X220456D02*
X220122Y57031D01*
X219789Y57198D02*
X219623Y57031D01*
X219289D01*
X219123Y57198D01*
Y57864D01*
X219289Y58031D01*
X219623D01*
X219789Y57864D01*
Y57698D01*
X219623Y57531D01*
X219123D01*
X218790Y57198D02*
X218623Y57031D01*
X218290D01*
X218123Y57198D01*
Y57864D01*
X218290Y58031D01*
X218623D01*
X218790Y57864D01*
Y57698D01*
X218623Y57531D01*
X218123D01*
X195842Y49086D02*
X196842D01*
Y49586D01*
X196675Y49753D01*
X196342D01*
X196175Y49586D01*
Y49086D01*
Y49419D02*
X195842Y49753D01*
X196009Y50086D02*
X195842Y50252D01*
Y50586D01*
X196009Y50752D01*
X196675D01*
X196842Y50586D01*
Y50252D01*
X196675Y50086D01*
X196509D01*
X196342Y50252D01*
Y50752D01*
X196675Y51085D02*
X196842Y51252D01*
Y51585D01*
X196675Y51752D01*
X196509D01*
X196342Y51585D01*
X196175Y51752D01*
X196009D01*
X195842Y51585D01*
Y51252D01*
X196009Y51085D01*
X196175D01*
X196342Y51252D01*
X196509Y51085D01*
X196675D01*
X196342Y51252D02*
Y51585D01*
X216162Y49086D02*
X217162D01*
Y49586D01*
X216995Y49753D01*
X216662D01*
X216495Y49586D01*
Y49086D01*
Y49419D02*
X216162Y49753D01*
X216329Y50086D02*
X216162Y50252D01*
Y50586D01*
X216329Y50752D01*
X216995D01*
X217162Y50586D01*
Y50252D01*
X216995Y50086D01*
X216829D01*
X216662Y50252D01*
Y50752D01*
X217162Y51085D02*
Y51752D01*
X216995D01*
X216329Y51085D01*
X216162D01*
X192794Y64453D02*
X193794D01*
Y64953D01*
X193627Y65120D01*
X193294D01*
X193127Y64953D01*
Y64453D01*
Y64786D02*
X192794Y65120D01*
X192961Y65453D02*
X192794Y65619D01*
Y65953D01*
X192961Y66119D01*
X193627D01*
X193794Y65953D01*
Y65619D01*
X193627Y65453D01*
X193461D01*
X193294Y65619D01*
Y66119D01*
X193794Y67119D02*
X193627Y66786D01*
X193294Y66452D01*
X192961D01*
X192794Y66619D01*
Y66952D01*
X192961Y67119D01*
X193127D01*
X193294Y66952D01*
Y66452D01*
X212479Y64326D02*
X213479D01*
Y64826D01*
X213312Y64993D01*
X212979D01*
X212812Y64826D01*
Y64326D01*
Y64659D02*
X212479Y64993D01*
X212646Y65326D02*
X212479Y65492D01*
Y65826D01*
X212646Y65992D01*
X213312D01*
X213479Y65826D01*
Y65492D01*
X213312Y65326D01*
X213146D01*
X212979Y65492D01*
Y65992D01*
X213479Y66992D02*
Y66325D01*
X212979D01*
X213146Y66659D01*
Y66825D01*
X212979Y66992D01*
X212646D01*
X212479Y66825D01*
Y66492D01*
X212646Y66325D01*
X184467Y57031D02*
Y58031D01*
X183967D01*
X183800Y57864D01*
Y57531D01*
X183967Y57364D01*
X184467D01*
X184134D02*
X183800Y57031D01*
X183467Y57198D02*
X183301Y57031D01*
X182967D01*
X182801Y57198D01*
Y57864D01*
X182967Y58031D01*
X183301D01*
X183467Y57864D01*
Y57698D01*
X183301Y57531D01*
X182801D01*
X181968Y57031D02*
Y58031D01*
X182468Y57531D01*
X181801D01*
X205168Y57031D02*
Y58031D01*
X204668D01*
X204501Y57864D01*
Y57531D01*
X204668Y57364D01*
X205168D01*
X204835D02*
X204501Y57031D01*
X204168Y57198D02*
X204002Y57031D01*
X203668D01*
X203502Y57198D01*
Y57864D01*
X203668Y58031D01*
X204002D01*
X204168Y57864D01*
Y57698D01*
X204002Y57531D01*
X203502D01*
X203169Y57864D02*
X203002Y58031D01*
X202669D01*
X202502Y57864D01*
Y57698D01*
X202669Y57531D01*
X202835D01*
X202669D01*
X202502Y57364D01*
Y57198D01*
X202669Y57031D01*
X203002D01*
X203169Y57198D01*
X189873Y71565D02*
X190873D01*
Y72065D01*
X190706Y72232D01*
X190373D01*
X190206Y72065D01*
Y71565D01*
Y71898D02*
X189873Y72232D01*
X190040Y72565D02*
X189873Y72731D01*
Y73065D01*
X190040Y73231D01*
X190706D01*
X190873Y73065D01*
Y72731D01*
X190706Y72565D01*
X190540D01*
X190373Y72731D01*
Y73231D01*
X189873Y74231D02*
Y73564D01*
X190540Y74231D01*
X190706D01*
X190873Y74064D01*
Y73731D01*
X190706Y73564D01*
X209304Y71859D02*
X210304D01*
Y72359D01*
X210137Y72525D01*
X209804D01*
X209637Y72359D01*
Y71859D01*
Y72192D02*
X209304Y72525D01*
X209471Y72858D02*
X209304Y73025D01*
Y73358D01*
X209471Y73525D01*
X210137D01*
X210304Y73358D01*
Y73025D01*
X210137Y72858D01*
X209971D01*
X209804Y73025D01*
Y73525D01*
X209304Y73858D02*
Y74191D01*
Y74025D01*
X210304D01*
X210137Y73858D01*
X185809Y71692D02*
X186809D01*
Y72192D01*
X186642Y72359D01*
X186309D01*
X186142Y72192D01*
Y71692D01*
Y72025D02*
X185809Y72359D01*
X185976Y72692D02*
X185809Y72858D01*
Y73192D01*
X185976Y73358D01*
X186642D01*
X186809Y73192D01*
Y72858D01*
X186642Y72692D01*
X186476D01*
X186309Y72858D01*
Y73358D01*
X186642Y73691D02*
X186809Y73858D01*
Y74191D01*
X186642Y74358D01*
X185976D01*
X185809Y74191D01*
Y73858D01*
X185976Y73691D01*
X186642D01*
X205494Y71692D02*
X206494D01*
Y72192D01*
X206327Y72359D01*
X205994D01*
X205827Y72192D01*
Y71692D01*
Y72025D02*
X205494Y72359D01*
X206327Y72692D02*
X206494Y72858D01*
Y73192D01*
X206327Y73358D01*
X206161D01*
X205994Y73192D01*
X205827Y73358D01*
X205661D01*
X205494Y73192D01*
Y72858D01*
X205661Y72692D01*
X205827D01*
X205994Y72858D01*
X206161Y72692D01*
X206327D01*
X205994Y72858D02*
Y73192D01*
X205661Y73691D02*
X205494Y73858D01*
Y74191D01*
X205661Y74358D01*
X206327D01*
X206494Y74191D01*
Y73858D01*
X206327Y73691D01*
X206161D01*
X205994Y73858D01*
Y74358D01*
X189420Y57031D02*
Y58031D01*
X188920D01*
X188753Y57864D01*
Y57531D01*
X188920Y57364D01*
X189420D01*
X189087D02*
X188753Y57031D01*
X188420Y57864D02*
X188254Y58031D01*
X187920D01*
X187754Y57864D01*
Y57698D01*
X187920Y57531D01*
X187754Y57364D01*
Y57198D01*
X187920Y57031D01*
X188254D01*
X188420Y57198D01*
Y57364D01*
X188254Y57531D01*
X188420Y57698D01*
Y57864D01*
X188254Y57531D02*
X187920D01*
X187421Y57864D02*
X187254Y58031D01*
X186921D01*
X186754Y57864D01*
Y57698D01*
X186921Y57531D01*
X186754Y57364D01*
Y57198D01*
X186921Y57031D01*
X187254D01*
X187421Y57198D01*
Y57364D01*
X187254Y57531D01*
X187421Y57698D01*
Y57864D01*
X187254Y57531D02*
X186921D01*
X210121Y57158D02*
Y58158D01*
X209621D01*
X209454Y57991D01*
Y57658D01*
X209621Y57491D01*
X210121D01*
X209788D02*
X209454Y57158D01*
X209121Y57991D02*
X208955Y58158D01*
X208621D01*
X208455Y57991D01*
Y57825D01*
X208621Y57658D01*
X208455Y57491D01*
Y57325D01*
X208621Y57158D01*
X208955D01*
X209121Y57325D01*
Y57491D01*
X208955Y57658D01*
X209121Y57825D01*
Y57991D01*
X208955Y57658D02*
X208621D01*
X208122Y58158D02*
X207455D01*
Y57991D01*
X208122Y57325D01*
Y57158D01*
X187587Y49086D02*
X188587D01*
Y49586D01*
X188420Y49753D01*
X188087D01*
X187920Y49586D01*
Y49086D01*
Y49419D02*
X187587Y49753D01*
X188420Y50086D02*
X188587Y50252D01*
Y50586D01*
X188420Y50752D01*
X188254D01*
X188087Y50586D01*
X187920Y50752D01*
X187754D01*
X187587Y50586D01*
Y50252D01*
X187754Y50086D01*
X187920D01*
X188087Y50252D01*
X188254Y50086D01*
X188420D01*
X188087Y50252D02*
Y50586D01*
X188587Y51752D02*
X188420Y51419D01*
X188087Y51085D01*
X187754D01*
X187587Y51252D01*
Y51585D01*
X187754Y51752D01*
X187920D01*
X188087Y51585D01*
Y51085D01*
X207907Y49213D02*
X208907D01*
Y49713D01*
X208740Y49880D01*
X208407D01*
X208240Y49713D01*
Y49213D01*
Y49546D02*
X207907Y49880D01*
X208740Y50213D02*
X208907Y50379D01*
Y50713D01*
X208740Y50879D01*
X208574D01*
X208407Y50713D01*
X208240Y50879D01*
X208074D01*
X207907Y50713D01*
Y50379D01*
X208074Y50213D01*
X208240D01*
X208407Y50379D01*
X208574Y50213D01*
X208740D01*
X208407Y50379D02*
Y50713D01*
X208907Y51879D02*
Y51212D01*
X208407D01*
X208574Y51546D01*
Y51712D01*
X208407Y51879D01*
X208074D01*
X207907Y51712D01*
Y51379D01*
X208074Y51212D01*
X196024Y62619D02*
Y63619D01*
X195524D01*
X195357Y63452D01*
Y63119D01*
X195524Y62952D01*
X196024D01*
X195691D02*
X195357Y62619D01*
X195024Y63452D02*
X194858Y63619D01*
X194524D01*
X194358Y63452D01*
Y63286D01*
X194524Y63119D01*
X194358Y62952D01*
Y62786D01*
X194524Y62619D01*
X194858D01*
X195024Y62786D01*
Y62952D01*
X194858Y63119D01*
X195024Y63286D01*
Y63452D01*
X194858Y63119D02*
X194524D01*
X193525Y62619D02*
Y63619D01*
X194025Y63119D01*
X193358D01*
X203263Y63000D02*
Y64000D01*
X202763D01*
X202596Y63833D01*
Y63500D01*
X202763Y63333D01*
X203263D01*
X202930D02*
X202596Y63000D01*
X202263Y63833D02*
X202097Y64000D01*
X201763D01*
X201597Y63833D01*
Y63667D01*
X201763Y63500D01*
X201597Y63333D01*
Y63167D01*
X201763Y63000D01*
X202097D01*
X202263Y63167D01*
Y63333D01*
X202097Y63500D01*
X202263Y63667D01*
Y63833D01*
X202097Y63500D02*
X201763D01*
X201264Y63833D02*
X201097Y64000D01*
X200764D01*
X200597Y63833D01*
Y63667D01*
X200764Y63500D01*
X200930D01*
X200764D01*
X200597Y63333D01*
Y63167D01*
X200764Y63000D01*
X201097D01*
X201264Y63167D01*
X121420Y143066D02*
X122420D01*
Y143566D01*
X122253Y143733D01*
X121920D01*
X121753Y143566D01*
Y143066D01*
Y143399D02*
X121420Y143733D01*
X122253Y144066D02*
X122420Y144232D01*
Y144566D01*
X122253Y144732D01*
X122087D01*
X121920Y144566D01*
X121753Y144732D01*
X121587D01*
X121420Y144566D01*
Y144232D01*
X121587Y144066D01*
X121753D01*
X121920Y144232D01*
X122087Y144066D01*
X122253D01*
X121920Y144232D02*
Y144566D01*
X121420Y145732D02*
Y145065D01*
X122087Y145732D01*
X122253D01*
X122420Y145565D01*
Y145232D01*
X122253Y145065D01*
X128024Y143106D02*
X129024D01*
Y143606D01*
X128857Y143772D01*
X128524D01*
X128357Y143606D01*
Y143106D01*
Y143439D02*
X128024Y143772D01*
X128857Y144105D02*
X129024Y144272D01*
Y144605D01*
X128857Y144772D01*
X128691D01*
X128524Y144605D01*
X128357Y144772D01*
X128191D01*
X128024Y144605D01*
Y144272D01*
X128191Y144105D01*
X128357D01*
X128524Y144272D01*
X128691Y144105D01*
X128857D01*
X128524Y144272D02*
Y144605D01*
X128024Y145105D02*
Y145438D01*
Y145272D01*
X129024D01*
X128857Y145105D01*
X121293Y79312D02*
X122293D01*
Y79812D01*
X122126Y79979D01*
X121793D01*
X121626Y79812D01*
Y79312D01*
Y79645D02*
X121293Y79979D01*
X122126Y80312D02*
X122293Y80478D01*
Y80812D01*
X122126Y80978D01*
X121960D01*
X121793Y80812D01*
X121626Y80978D01*
X121460D01*
X121293Y80812D01*
Y80478D01*
X121460Y80312D01*
X121626D01*
X121793Y80478D01*
X121960Y80312D01*
X122126D01*
X121793Y80478D02*
Y80812D01*
X122126Y81311D02*
X122293Y81478D01*
Y81811D01*
X122126Y81978D01*
X121460D01*
X121293Y81811D01*
Y81478D01*
X121460Y81311D01*
X122126D01*
X128024Y79185D02*
X129024D01*
Y79685D01*
X128857Y79852D01*
X128524D01*
X128357Y79685D01*
Y79185D01*
Y79518D02*
X128024Y79852D01*
X129024Y80185D02*
Y80851D01*
X128857D01*
X128191Y80185D01*
X128024D01*
X128191Y81184D02*
X128024Y81351D01*
Y81684D01*
X128191Y81851D01*
X128857D01*
X129024Y81684D01*
Y81351D01*
X128857Y81184D01*
X128691D01*
X128524Y81351D01*
Y81851D01*
X109918Y152154D02*
Y153154D01*
X109418D01*
X109251Y152987D01*
Y152654D01*
X109418Y152487D01*
X109918D01*
X109585D02*
X109251Y152154D01*
X108918Y153154D02*
X108252D01*
Y152987D01*
X108918Y152321D01*
Y152154D01*
X107919Y152987D02*
X107752Y153154D01*
X107419D01*
X107252Y152987D01*
Y152821D01*
X107419Y152654D01*
X107252Y152487D01*
Y152321D01*
X107419Y152154D01*
X107752D01*
X107919Y152321D01*
Y152487D01*
X107752Y152654D01*
X107919Y152821D01*
Y152987D01*
X107752Y152654D02*
X107419D01*
X189420Y157996D02*
Y158996D01*
X188920D01*
X188753Y158829D01*
Y158496D01*
X188920Y158329D01*
X189420D01*
X189087D02*
X188753Y157996D01*
X188420Y158996D02*
X187754D01*
Y158829D01*
X188420Y158163D01*
Y157996D01*
X187421Y158996D02*
X186754D01*
Y158829D01*
X187421Y158163D01*
Y157996D01*
X209740Y158123D02*
Y159123D01*
X209240D01*
X209073Y158956D01*
Y158623D01*
X209240Y158456D01*
X209740D01*
X209407D02*
X209073Y158123D01*
X208740Y159123D02*
X208074D01*
Y158956D01*
X208740Y158290D01*
Y158123D01*
X207074Y159123D02*
X207407Y158956D01*
X207741Y158623D01*
Y158290D01*
X207574Y158123D01*
X207241D01*
X207074Y158290D01*
Y158456D01*
X207241Y158623D01*
X207741D01*
X111061Y87892D02*
Y88892D01*
X110561D01*
X110394Y88725D01*
Y88392D01*
X110561Y88225D01*
X111061D01*
X110728D02*
X110394Y87892D01*
X110061Y88892D02*
X109395D01*
Y88725D01*
X110061Y88059D01*
Y87892D01*
X108395Y88892D02*
X109062D01*
Y88392D01*
X108728Y88559D01*
X108562D01*
X108395Y88392D01*
Y88059D01*
X108562Y87892D01*
X108895D01*
X109062Y88059D01*
X184086Y157996D02*
Y158996D01*
X183586D01*
X183419Y158829D01*
Y158496D01*
X183586Y158329D01*
X184086D01*
X183753D02*
X183419Y157996D01*
X183086Y158996D02*
X182420D01*
Y158829D01*
X183086Y158163D01*
Y157996D01*
X181587D02*
Y158996D01*
X182087Y158496D01*
X181420D01*
X184285Y164783D02*
X185285D01*
Y165283D01*
X185118Y165450D01*
X184785D01*
X184618Y165283D01*
Y164783D01*
Y165116D02*
X184285Y165450D01*
X185285Y165783D02*
Y166449D01*
X185118D01*
X184452Y165783D01*
X184285D01*
X185118Y166782D02*
X185285Y166949D01*
Y167282D01*
X185118Y167449D01*
X184952D01*
X184785Y167282D01*
Y167116D01*
Y167282D01*
X184618Y167449D01*
X184452D01*
X184285Y167282D01*
Y166949D01*
X184452Y166782D01*
X204533Y157996D02*
Y158996D01*
X204033D01*
X203866Y158829D01*
Y158496D01*
X204033Y158329D01*
X204533D01*
X204200D02*
X203866Y157996D01*
X203533Y158996D02*
X202867D01*
Y158829D01*
X203533Y158163D01*
Y157996D01*
X201867D02*
X202534D01*
X201867Y158663D01*
Y158829D01*
X202034Y158996D01*
X202367D01*
X202534Y158829D01*
X204732Y164950D02*
X205732D01*
Y165450D01*
X205565Y165616D01*
X205232D01*
X205065Y165450D01*
Y164950D01*
Y165283D02*
X204732Y165616D01*
X205732Y165949D02*
Y166616D01*
X205565D01*
X204899Y165949D01*
X204732D01*
Y166949D02*
Y167282D01*
Y167116D01*
X205732D01*
X205565Y166949D01*
X189746Y149289D02*
X190746D01*
Y149789D01*
X190579Y149956D01*
X190246D01*
X190079Y149789D01*
Y149289D01*
Y149622D02*
X189746Y149956D01*
X190746Y150289D02*
Y150955D01*
X190579D01*
X189913Y150289D01*
X189746D01*
X190579Y151288D02*
X190746Y151455D01*
Y151788D01*
X190579Y151955D01*
X189913D01*
X189746Y151788D01*
Y151455D01*
X189913Y151288D01*
X190579D01*
X212860Y149162D02*
X213860D01*
Y149662D01*
X213693Y149829D01*
X213360D01*
X213193Y149662D01*
Y149162D01*
Y149495D02*
X212860Y149829D01*
X213860Y150828D02*
X213693Y150495D01*
X213360Y150162D01*
X213027D01*
X212860Y150328D01*
Y150662D01*
X213027Y150828D01*
X213193D01*
X213360Y150662D01*
Y150162D01*
X213027Y151161D02*
X212860Y151328D01*
Y151661D01*
X213027Y151828D01*
X213693D01*
X213860Y151661D01*
Y151328D01*
X213693Y151161D01*
X213527D01*
X213360Y151328D01*
Y151828D01*
X100012Y150249D02*
Y151249D01*
X99512D01*
X99345Y151082D01*
Y150749D01*
X99512Y150582D01*
X100012D01*
X99679D02*
X99345Y150249D01*
X98346Y151249D02*
X98679Y151082D01*
X99012Y150749D01*
Y150416D01*
X98846Y150249D01*
X98512D01*
X98346Y150416D01*
Y150582D01*
X98512Y150749D01*
X99012D01*
X98013Y151082D02*
X97846Y151249D01*
X97513D01*
X97346Y151082D01*
Y150916D01*
X97513Y150749D01*
X97346Y150582D01*
Y150416D01*
X97513Y150249D01*
X97846D01*
X98013Y150416D01*
Y150582D01*
X97846Y150749D01*
X98013Y150916D01*
Y151082D01*
X97846Y150749D02*
X97513D01*
X200088Y157869D02*
Y158869D01*
X199588D01*
X199421Y158702D01*
Y158369D01*
X199588Y158202D01*
X200088D01*
X199755D02*
X199421Y157869D01*
X198422Y158869D02*
X198755Y158702D01*
X199088Y158369D01*
Y158036D01*
X198922Y157869D01*
X198588D01*
X198422Y158036D01*
Y158202D01*
X198588Y158369D01*
X199088D01*
X198089Y158869D02*
X197422D01*
Y158702D01*
X198089Y158036D01*
Y157869D01*
X220154Y157996D02*
Y158996D01*
X219654D01*
X219487Y158829D01*
Y158496D01*
X219654Y158329D01*
X220154D01*
X219821D02*
X219487Y157996D01*
X218488Y158996D02*
X218821Y158829D01*
X219154Y158496D01*
Y158163D01*
X218988Y157996D01*
X218654D01*
X218488Y158163D01*
Y158329D01*
X218654Y158496D01*
X219154D01*
X217488Y158996D02*
X217821Y158829D01*
X218155Y158496D01*
Y158163D01*
X217988Y157996D01*
X217655D01*
X217488Y158163D01*
Y158329D01*
X217655Y158496D01*
X218155D01*
X100139Y85987D02*
Y86987D01*
X99639D01*
X99472Y86820D01*
Y86487D01*
X99639Y86320D01*
X100139D01*
X99806D02*
X99472Y85987D01*
X98473Y86987D02*
X98806Y86820D01*
X99139Y86487D01*
Y86154D01*
X98973Y85987D01*
X98639D01*
X98473Y86154D01*
Y86320D01*
X98639Y86487D01*
X99139D01*
X97473Y86987D02*
X98140D01*
Y86487D01*
X97806Y86654D01*
X97640D01*
X97473Y86487D01*
Y86154D01*
X97640Y85987D01*
X97973D01*
X98140Y86154D01*
X193048Y142050D02*
X194048D01*
Y142550D01*
X193881Y142717D01*
X193548D01*
X193381Y142550D01*
Y142050D01*
Y142383D02*
X193048Y142717D01*
X194048Y143716D02*
X193881Y143383D01*
X193548Y143050D01*
X193215D01*
X193048Y143216D01*
Y143550D01*
X193215Y143716D01*
X193381D01*
X193548Y143550D01*
Y143050D01*
X193048Y144549D02*
X194048D01*
X193548Y144049D01*
Y144716D01*
X188984Y142050D02*
X189984D01*
Y142550D01*
X189817Y142717D01*
X189484D01*
X189317Y142550D01*
Y142050D01*
Y142383D02*
X188984Y142717D01*
X189984Y143716D02*
X189817Y143383D01*
X189484Y143050D01*
X189151D01*
X188984Y143216D01*
Y143550D01*
X189151Y143716D01*
X189317D01*
X189484Y143550D01*
Y143050D01*
X189817Y144049D02*
X189984Y144216D01*
Y144549D01*
X189817Y144716D01*
X189651D01*
X189484Y144549D01*
Y144383D01*
Y144549D01*
X189317Y144716D01*
X189151D01*
X188984Y144549D01*
Y144216D01*
X189151Y144049D01*
X212860Y142050D02*
X213860D01*
Y142550D01*
X213693Y142717D01*
X213360D01*
X213193Y142550D01*
Y142050D01*
Y142383D02*
X212860Y142717D01*
X213860Y143716D02*
X213693Y143383D01*
X213360Y143050D01*
X213027D01*
X212860Y143216D01*
Y143550D01*
X213027Y143716D01*
X213193D01*
X213360Y143550D01*
Y143050D01*
X212860Y144716D02*
Y144049D01*
X213527Y144716D01*
X213693D01*
X213860Y144549D01*
Y144216D01*
X213693Y144049D01*
X205494Y142344D02*
X206494D01*
Y142844D01*
X206327Y143010D01*
X205994D01*
X205827Y142844D01*
Y142344D01*
Y142677D02*
X205494Y143010D01*
X206494Y144010D02*
X206327Y143677D01*
X205994Y143343D01*
X205661D01*
X205494Y143510D01*
Y143843D01*
X205661Y144010D01*
X205827D01*
X205994Y143843D01*
Y143343D01*
X205494Y144343D02*
Y144676D01*
Y144510D01*
X206494D01*
X206327Y144343D01*
X100012Y162949D02*
Y163949D01*
X99512D01*
X99345Y163782D01*
Y163449D01*
X99512Y163282D01*
X100012D01*
X99679D02*
X99345Y162949D01*
X98346Y163949D02*
X98679Y163782D01*
X99012Y163449D01*
Y163116D01*
X98846Y162949D01*
X98512D01*
X98346Y163116D01*
Y163282D01*
X98512Y163449D01*
X99012D01*
X98013Y163782D02*
X97846Y163949D01*
X97513D01*
X97346Y163782D01*
Y163116D01*
X97513Y162949D01*
X97846D01*
X98013Y163116D01*
Y163782D01*
X100012Y99195D02*
Y100195D01*
X99512D01*
X99345Y100028D01*
Y99695D01*
X99512Y99528D01*
X100012D01*
X99679D02*
X99345Y99195D01*
X98346Y100195D02*
X99012D01*
Y99695D01*
X98679Y99862D01*
X98512D01*
X98346Y99695D01*
Y99362D01*
X98512Y99195D01*
X98846D01*
X99012Y99362D01*
X98013D02*
X97846Y99195D01*
X97513D01*
X97346Y99362D01*
Y100028D01*
X97513Y100195D01*
X97846D01*
X98013Y100028D01*
Y99862D01*
X97846Y99695D01*
X97346D01*
X194500Y158123D02*
Y159123D01*
X194000D01*
X193833Y158956D01*
Y158623D01*
X194000Y158456D01*
X194500D01*
X194167D02*
X193833Y158123D01*
X192834Y159123D02*
X193500D01*
Y158623D01*
X193167Y158790D01*
X193000D01*
X192834Y158623D01*
Y158290D01*
X193000Y158123D01*
X193334D01*
X193500Y158290D01*
X192501Y158956D02*
X192334Y159123D01*
X192001D01*
X191834Y158956D01*
Y158790D01*
X192001Y158623D01*
X191834Y158456D01*
Y158290D01*
X192001Y158123D01*
X192334D01*
X192501Y158290D01*
Y158456D01*
X192334Y158623D01*
X192501Y158790D01*
Y158956D01*
X192334Y158623D02*
X192001D01*
X192667Y164656D02*
X193667D01*
Y165156D01*
X193500Y165323D01*
X193167D01*
X193000Y165156D01*
Y164656D01*
Y164989D02*
X192667Y165323D01*
X193667Y166322D02*
Y165656D01*
X193167D01*
X193334Y165989D01*
Y166156D01*
X193167Y166322D01*
X192834D01*
X192667Y166156D01*
Y165822D01*
X192834Y165656D01*
X193667Y166655D02*
Y167322D01*
X193500D01*
X192834Y166655D01*
X192667D01*
X214693Y158123D02*
Y159123D01*
X214193D01*
X214026Y158956D01*
Y158623D01*
X214193Y158456D01*
X214693D01*
X214360D02*
X214026Y158123D01*
X213027Y159123D02*
X213693D01*
Y158623D01*
X213360Y158790D01*
X213193D01*
X213027Y158623D01*
Y158290D01*
X213193Y158123D01*
X213527D01*
X213693Y158290D01*
X212027Y159123D02*
X212360Y158956D01*
X212694Y158623D01*
Y158290D01*
X212527Y158123D01*
X212194D01*
X212027Y158290D01*
Y158456D01*
X212194Y158623D01*
X212694D01*
X212860Y164529D02*
X213860D01*
Y165029D01*
X213693Y165196D01*
X213360D01*
X213193Y165029D01*
Y164529D01*
Y164862D02*
X212860Y165196D01*
X213860Y166195D02*
Y165529D01*
X213360D01*
X213527Y165862D01*
Y166029D01*
X213360Y166195D01*
X213027D01*
X212860Y166029D01*
Y165695D01*
X213027Y165529D01*
X213860Y167195D02*
Y166528D01*
X213360D01*
X213527Y166862D01*
Y167028D01*
X213360Y167195D01*
X213027D01*
X212860Y167028D01*
Y166695D01*
X213027Y166528D01*
X194064Y150051D02*
X195064D01*
Y150551D01*
X194897Y150718D01*
X194564D01*
X194397Y150551D01*
Y150051D01*
Y150384D02*
X194064Y150718D01*
X195064Y151717D02*
Y151051D01*
X194564D01*
X194731Y151384D01*
Y151551D01*
X194564Y151717D01*
X194231D01*
X194064Y151551D01*
Y151217D01*
X194231Y151051D01*
X194064Y152550D02*
X195064D01*
X194564Y152050D01*
Y152717D01*
X203898Y140978D02*
Y141978D01*
X203398D01*
X203231Y141811D01*
Y141478D01*
X203398Y141311D01*
X203898D01*
X203565D02*
X203231Y140978D01*
X202232Y141978D02*
X202898D01*
Y141478D01*
X202565Y141645D01*
X202398D01*
X202232Y141478D01*
Y141145D01*
X202398Y140978D01*
X202732D01*
X202898Y141145D01*
X201899Y141811D02*
X201732Y141978D01*
X201399D01*
X201232Y141811D01*
Y141645D01*
X201399Y141478D01*
X201565D01*
X201399D01*
X201232Y141311D01*
Y141145D01*
X201399Y140978D01*
X201732D01*
X201899Y141145D01*
X110045Y161044D02*
Y162044D01*
X109545D01*
X109378Y161877D01*
Y161544D01*
X109545Y161377D01*
X110045D01*
X109712D02*
X109378Y161044D01*
X108379Y162044D02*
X109045D01*
Y161544D01*
X108712Y161711D01*
X108545D01*
X108379Y161544D01*
Y161211D01*
X108545Y161044D01*
X108879D01*
X109045Y161211D01*
X107379Y161044D02*
X108046D01*
X107379Y161711D01*
Y161877D01*
X107546Y162044D01*
X107879D01*
X108046Y161877D01*
X110259Y97544D02*
Y98544D01*
X109759D01*
X109593Y98377D01*
Y98044D01*
X109759Y97877D01*
X110259D01*
X109926D02*
X109593Y97544D01*
X108593Y98544D02*
X109260D01*
Y98044D01*
X108926Y98211D01*
X108760D01*
X108593Y98044D01*
Y97711D01*
X108760Y97544D01*
X109093D01*
X109260Y97711D01*
X108260Y97544D02*
X107927D01*
X108093D01*
Y98544D01*
X108260Y98377D01*
X121293Y158941D02*
X122293D01*
Y159441D01*
X122126Y159608D01*
X121793D01*
X121626Y159441D01*
Y158941D01*
Y159274D02*
X121293Y159608D01*
X122293Y160607D02*
Y159941D01*
X121793D01*
X121960Y160274D01*
Y160441D01*
X121793Y160607D01*
X121460D01*
X121293Y160441D01*
Y160107D01*
X121460Y159941D01*
X122126Y160940D02*
X122293Y161107D01*
Y161440D01*
X122126Y161607D01*
X121460D01*
X121293Y161440D01*
Y161107D01*
X121460Y160940D01*
X122126D01*
X128024Y158941D02*
X129024D01*
Y159441D01*
X128857Y159608D01*
X128524D01*
X128357Y159441D01*
Y158941D01*
Y159274D02*
X128024Y159608D01*
Y160441D02*
X129024D01*
X128524Y159941D01*
Y160607D01*
X128191Y160940D02*
X128024Y161107D01*
Y161440D01*
X128191Y161607D01*
X128857D01*
X129024Y161440D01*
Y161107D01*
X128857Y160940D01*
X128691D01*
X128524Y161107D01*
Y161607D01*
X100139Y51570D02*
Y52570D01*
X99639D01*
X99472Y52403D01*
Y52070D01*
X99639Y51903D01*
X100139D01*
X99806D02*
X99472Y51570D01*
X98639D02*
Y52570D01*
X99139Y52070D01*
X98473D01*
X98140Y52403D02*
X97973Y52570D01*
X97640D01*
X97473Y52403D01*
Y52237D01*
X97640Y52070D01*
X97473Y51903D01*
Y51737D01*
X97640Y51570D01*
X97973D01*
X98140Y51737D01*
Y51903D01*
X97973Y52070D01*
X98140Y52237D01*
Y52403D01*
X97973Y52070D02*
X97640D01*
X121420Y95060D02*
X122420D01*
Y95560D01*
X122253Y95727D01*
X121920D01*
X121753Y95560D01*
Y95060D01*
Y95393D02*
X121420Y95727D01*
Y96560D02*
X122420D01*
X121920Y96060D01*
Y96726D01*
X122420Y97059D02*
Y97726D01*
X122253D01*
X121587Y97059D01*
X121420D01*
X128024Y94933D02*
X129024D01*
Y95433D01*
X128857Y95600D01*
X128524D01*
X128357Y95433D01*
Y94933D01*
Y95266D02*
X128024Y95600D01*
Y96433D02*
X129024D01*
X128524Y95933D01*
Y96599D01*
X129024Y97599D02*
X128857Y97266D01*
X128524Y96932D01*
X128191D01*
X128024Y97099D01*
Y97432D01*
X128191Y97599D01*
X128357D01*
X128524Y97432D01*
Y96932D01*
X109156Y50046D02*
Y51046D01*
X108656D01*
X108489Y50879D01*
Y50546D01*
X108656Y50379D01*
X109156D01*
X108823D02*
X108489Y50046D01*
X107656D02*
Y51046D01*
X108156Y50546D01*
X107490D01*
X106490Y51046D02*
X107157D01*
Y50546D01*
X106823Y50713D01*
X106657D01*
X106490Y50546D01*
Y50213D01*
X106657Y50046D01*
X106990D01*
X107157Y50213D01*
X109918Y167394D02*
Y168394D01*
X109418D01*
X109251Y168227D01*
Y167894D01*
X109418Y167727D01*
X109918D01*
X109585D02*
X109251Y167394D01*
X108418D02*
Y168394D01*
X108918Y167894D01*
X108252D01*
X107419Y167394D02*
Y168394D01*
X107919Y167894D01*
X107252D01*
X110807Y103640D02*
Y104640D01*
X110307D01*
X110140Y104473D01*
Y104140D01*
X110307Y103973D01*
X110807D01*
X110474D02*
X110140Y103640D01*
X109307D02*
Y104640D01*
X109807Y104140D01*
X109141D01*
X108808Y104473D02*
X108641Y104640D01*
X108308D01*
X108141Y104473D01*
Y104307D01*
X108308Y104140D01*
X108474D01*
X108308D01*
X108141Y103973D01*
Y103807D01*
X108308Y103640D01*
X108641D01*
X108808Y103807D01*
X100139Y165997D02*
Y166997D01*
X99639D01*
X99472Y166830D01*
Y166497D01*
X99639Y166330D01*
X100139D01*
X99806D02*
X99472Y165997D01*
X98639D02*
Y166997D01*
X99139Y166497D01*
X98473D01*
X97473Y165997D02*
X98140D01*
X97473Y166664D01*
Y166830D01*
X97640Y166997D01*
X97973D01*
X98140Y166830D01*
X100099Y102116D02*
Y103116D01*
X99599D01*
X99433Y102949D01*
Y102616D01*
X99599Y102449D01*
X100099D01*
X99766D02*
X99433Y102116D01*
X98600D02*
Y103116D01*
X99100Y102616D01*
X98433D01*
X98100Y102116D02*
X97767D01*
X97933D01*
Y103116D01*
X98100Y102949D01*
X121420Y47435D02*
X122420D01*
Y47935D01*
X122253Y48102D01*
X121920D01*
X121753Y47935D01*
Y47435D01*
Y47768D02*
X121420Y48102D01*
Y48935D02*
X122420D01*
X121920Y48435D01*
Y49101D01*
X122253Y49434D02*
X122420Y49601D01*
Y49934D01*
X122253Y50101D01*
X121587D01*
X121420Y49934D01*
Y49601D01*
X121587Y49434D01*
X122253D01*
X145804Y161989D02*
X146804D01*
Y162489D01*
X146637Y162656D01*
X146304D01*
X146137Y162489D01*
Y161989D01*
Y162322D02*
X145804Y162656D01*
X146637Y162989D02*
X146804Y163155D01*
Y163489D01*
X146637Y163655D01*
X146471D01*
X146304Y163489D01*
Y163322D01*
Y163489D01*
X146137Y163655D01*
X145971D01*
X145804Y163489D01*
Y163155D01*
X145971Y162989D01*
Y163988D02*
X145804Y164155D01*
Y164488D01*
X145971Y164655D01*
X146637D01*
X146804Y164488D01*
Y164155D01*
X146637Y163988D01*
X146471D01*
X146304Y164155D01*
Y164655D01*
X139962Y162116D02*
X140962D01*
Y162616D01*
X140795Y162783D01*
X140462D01*
X140295Y162616D01*
Y162116D01*
Y162449D02*
X139962Y162783D01*
X140795Y163116D02*
X140962Y163282D01*
Y163616D01*
X140795Y163782D01*
X140629D01*
X140462Y163616D01*
Y163449D01*
Y163616D01*
X140295Y163782D01*
X140129D01*
X139962Y163616D01*
Y163282D01*
X140129Y163116D01*
X140795Y164115D02*
X140962Y164282D01*
Y164615D01*
X140795Y164782D01*
X140629D01*
X140462Y164615D01*
X140295Y164782D01*
X140129D01*
X139962Y164615D01*
Y164282D01*
X140129Y164115D01*
X140295D01*
X140462Y164282D01*
X140629Y164115D01*
X140795D01*
X140462Y164282D02*
Y164615D01*
X128151Y47562D02*
X129151D01*
Y48062D01*
X128984Y48229D01*
X128651D01*
X128484Y48062D01*
Y47562D01*
Y47895D02*
X128151Y48229D01*
X128984Y48562D02*
X129151Y48728D01*
Y49062D01*
X128984Y49228D01*
X128818D01*
X128651Y49062D01*
Y48895D01*
Y49062D01*
X128484Y49228D01*
X128318D01*
X128151Y49062D01*
Y48728D01*
X128318Y48562D01*
X129151Y49561D02*
Y50228D01*
X128984D01*
X128318Y49561D01*
X128151D01*
X114363Y126246D02*
Y127246D01*
X113863D01*
X113696Y127079D01*
Y126746D01*
X113863Y126579D01*
X114363D01*
X114030D02*
X113696Y126246D01*
X113363Y127079D02*
X113197Y127246D01*
X112863D01*
X112697Y127079D01*
Y126913D01*
X112863Y126746D01*
X113030D01*
X112863D01*
X112697Y126579D01*
Y126413D01*
X112863Y126246D01*
X113197D01*
X113363Y126413D01*
X111697Y127246D02*
X112030Y127079D01*
X112364Y126746D01*
Y126413D01*
X112197Y126246D01*
X111864D01*
X111697Y126413D01*
Y126579D01*
X111864Y126746D01*
X112364D01*
X114363Y62365D02*
Y63365D01*
X113863D01*
X113696Y63198D01*
Y62865D01*
X113863Y62698D01*
X114363D01*
X114030D02*
X113696Y62365D01*
X113363Y63198D02*
X113197Y63365D01*
X112863D01*
X112697Y63198D01*
Y63032D01*
X112863Y62865D01*
X113030D01*
X112863D01*
X112697Y62698D01*
Y62532D01*
X112863Y62365D01*
X113197D01*
X113363Y62532D01*
X111697Y63365D02*
X112364D01*
Y62865D01*
X112030Y63032D01*
X111864D01*
X111697Y62865D01*
Y62532D01*
X111864Y62365D01*
X112197D01*
X112364Y62532D01*
X110680Y56396D02*
Y57396D01*
X110180D01*
X110013Y57229D01*
Y56896D01*
X110180Y56729D01*
X110680D01*
X110347D02*
X110013Y56396D01*
X109680Y57229D02*
X109514Y57396D01*
X109180D01*
X109014Y57229D01*
Y57063D01*
X109180Y56896D01*
X109347D01*
X109180D01*
X109014Y56729D01*
Y56563D01*
X109180Y56396D01*
X109514D01*
X109680Y56563D01*
X108181Y56396D02*
Y57396D01*
X108681Y56896D01*
X108014D01*
X109918Y126246D02*
Y127246D01*
X109418D01*
X109251Y127079D01*
Y126746D01*
X109418Y126579D01*
X109918D01*
X109585D02*
X109251Y126246D01*
X108918Y127079D02*
X108752Y127246D01*
X108418D01*
X108252Y127079D01*
Y126913D01*
X108418Y126746D01*
X108585D01*
X108418D01*
X108252Y126579D01*
Y126413D01*
X108418Y126246D01*
X108752D01*
X108918Y126413D01*
X107919Y127079D02*
X107752Y127246D01*
X107419D01*
X107252Y127079D01*
Y126913D01*
X107419Y126746D01*
X107585D01*
X107419D01*
X107252Y126579D01*
Y126413D01*
X107419Y126246D01*
X107752D01*
X107919Y126413D01*
X99845Y54110D02*
Y55110D01*
X99345D01*
X99179Y54943D01*
Y54610D01*
X99345Y54443D01*
X99845D01*
X99512D02*
X99179Y54110D01*
X98846Y54943D02*
X98679Y55110D01*
X98346D01*
X98179Y54943D01*
Y54777D01*
X98346Y54610D01*
X98512D01*
X98346D01*
X98179Y54443D01*
Y54277D01*
X98346Y54110D01*
X98679D01*
X98846Y54277D01*
X97846Y54110D02*
X97513D01*
X97679D01*
Y55110D01*
X97846Y54943D01*
X109664Y62238D02*
Y63238D01*
X109164D01*
X108997Y63071D01*
Y62738D01*
X109164Y62571D01*
X109664D01*
X109331D02*
X108997Y62238D01*
X108664Y63071D02*
X108498Y63238D01*
X108164D01*
X107998Y63071D01*
Y62905D01*
X108164Y62738D01*
X108331D01*
X108164D01*
X107998Y62571D01*
Y62405D01*
X108164Y62238D01*
X108498D01*
X108664Y62405D01*
X107665Y63071D02*
X107498Y63238D01*
X107165D01*
X106998Y63071D01*
Y62405D01*
X107165Y62238D01*
X107498D01*
X107665Y62405D01*
Y63071D01*
X100012Y67064D02*
Y68064D01*
X99512D01*
X99345Y67897D01*
Y67564D01*
X99512Y67397D01*
X100012D01*
X99679D02*
X99345Y67064D01*
X98346D02*
X99012D01*
X98346Y67731D01*
Y67897D01*
X98512Y68064D01*
X98846D01*
X99012Y67897D01*
X98013D02*
X97846Y68064D01*
X97513D01*
X97346Y67897D01*
Y67731D01*
X97513Y67564D01*
X97346Y67397D01*
Y67231D01*
X97513Y67064D01*
X97846D01*
X98013Y67231D01*
Y67397D01*
X97846Y67564D01*
X98013Y67731D01*
Y67897D01*
X97846Y67564D02*
X97513D01*
X99885Y115451D02*
Y116451D01*
X99385D01*
X99218Y116284D01*
Y115951D01*
X99385Y115784D01*
X99885D01*
X99552D02*
X99218Y115451D01*
X98219D02*
X98885D01*
X98219Y116118D01*
Y116284D01*
X98385Y116451D01*
X98719D01*
X98885Y116284D01*
X97886Y116451D02*
X97219D01*
Y116284D01*
X97886Y115618D01*
Y115451D01*
X108902Y114054D02*
Y115054D01*
X108402D01*
X108235Y114887D01*
Y114554D01*
X108402Y114387D01*
X108902D01*
X108569D02*
X108235Y114054D01*
X107236D02*
X107902D01*
X107236Y114721D01*
Y114887D01*
X107402Y115054D01*
X107736D01*
X107902Y114887D01*
X106236Y115054D02*
X106569Y114887D01*
X106903Y114554D01*
Y114221D01*
X106736Y114054D01*
X106403D01*
X106236Y114221D01*
Y114387D01*
X106403Y114554D01*
X106903D01*
X110553Y65286D02*
Y66286D01*
X110053D01*
X109886Y66119D01*
Y65786D01*
X110053Y65619D01*
X110553D01*
X110220D02*
X109886Y65286D01*
X108887D02*
X109553D01*
X108887Y65953D01*
Y66119D01*
X109053Y66286D01*
X109387D01*
X109553Y66119D01*
X107887Y66286D02*
X108554D01*
Y65786D01*
X108220Y65953D01*
X108054D01*
X107887Y65786D01*
Y65453D01*
X108054Y65286D01*
X108387D01*
X108554Y65453D01*
X121420Y111316D02*
X122420D01*
Y111816D01*
X122253Y111983D01*
X121920D01*
X121753Y111816D01*
Y111316D01*
Y111649D02*
X121420Y111983D01*
Y112982D02*
Y112316D01*
X122087Y112982D01*
X122253D01*
X122420Y112816D01*
Y112482D01*
X122253Y112316D01*
X121420Y113815D02*
X122420D01*
X121920Y113315D01*
Y113982D01*
X128024Y111189D02*
X129024D01*
Y111689D01*
X128857Y111856D01*
X128524D01*
X128357Y111689D01*
Y111189D01*
Y111522D02*
X128024Y111856D01*
Y112855D02*
Y112189D01*
X128691Y112855D01*
X128857D01*
X129024Y112689D01*
Y112355D01*
X128857Y112189D01*
Y113188D02*
X129024Y113355D01*
Y113688D01*
X128857Y113855D01*
X128691D01*
X128524Y113688D01*
Y113522D01*
Y113688D01*
X128357Y113855D01*
X128191D01*
X128024Y113688D01*
Y113355D01*
X128191Y113188D01*
X137295Y162116D02*
X138295D01*
Y162616D01*
X138128Y162783D01*
X137795D01*
X137628Y162616D01*
Y162116D01*
Y162449D02*
X137295Y162783D01*
Y163782D02*
Y163116D01*
X137962Y163782D01*
X138128D01*
X138295Y163616D01*
Y163282D01*
X138128Y163116D01*
X137295Y164782D02*
Y164115D01*
X137962Y164782D01*
X138128D01*
X138295Y164615D01*
Y164282D01*
X138128Y164115D01*
X110259Y119388D02*
Y120388D01*
X109759D01*
X109593Y120221D01*
Y119888D01*
X109759Y119721D01*
X110259D01*
X109926D02*
X109593Y119388D01*
X108593D02*
X109260D01*
X108593Y120055D01*
Y120221D01*
X108760Y120388D01*
X109093D01*
X109260Y120221D01*
X108260Y119388D02*
X107927D01*
X108093D01*
Y120388D01*
X108260Y120221D01*
X131453Y162116D02*
X132453D01*
Y162616D01*
X132286Y162783D01*
X131953D01*
X131786Y162616D01*
Y162116D01*
Y162449D02*
X131453Y162783D01*
Y163782D02*
Y163116D01*
X132120Y163782D01*
X132286D01*
X132453Y163616D01*
Y163282D01*
X132286Y163116D01*
Y164115D02*
X132453Y164282D01*
Y164615D01*
X132286Y164782D01*
X131620D01*
X131453Y164615D01*
Y164282D01*
X131620Y164115D01*
X132286D01*
X99802Y117864D02*
Y118864D01*
X99302D01*
X99135Y118697D01*
Y118364D01*
X99302Y118197D01*
X99802D01*
X99468D02*
X99135Y117864D01*
X98802D02*
X98469D01*
X98635D01*
Y118864D01*
X98802Y118697D01*
X97969Y118031D02*
X97802Y117864D01*
X97469D01*
X97302Y118031D01*
Y118697D01*
X97469Y118864D01*
X97802D01*
X97969Y118697D01*
Y118531D01*
X97802Y118364D01*
X97302D01*
X121420Y63266D02*
X122420D01*
Y63766D01*
X122253Y63933D01*
X121920D01*
X121753Y63766D01*
Y63266D01*
Y63600D02*
X121420Y63933D01*
Y64266D02*
Y64599D01*
Y64433D01*
X122420D01*
X122253Y64266D01*
Y65099D02*
X122420Y65266D01*
Y65599D01*
X122253Y65766D01*
X122087D01*
X121920Y65599D01*
X121753Y65766D01*
X121587D01*
X121420Y65599D01*
Y65266D01*
X121587Y65099D01*
X121753D01*
X121920Y65266D01*
X122087Y65099D01*
X122253D01*
X121920Y65266D02*
Y65599D01*
X128024Y63012D02*
X129024D01*
Y63512D01*
X128857Y63679D01*
X128524D01*
X128357Y63512D01*
Y63012D01*
Y63346D02*
X128024Y63679D01*
Y64012D02*
Y64345D01*
Y64179D01*
X129024D01*
X128857Y64012D01*
X129024Y64845D02*
Y65512D01*
X128857D01*
X128191Y64845D01*
X128024D01*
X99675Y131326D02*
Y132326D01*
X99175D01*
X99008Y132159D01*
Y131826D01*
X99175Y131659D01*
X99675D01*
X99341D02*
X99008Y131326D01*
X98675D02*
X98342D01*
X98508D01*
Y132326D01*
X98675Y132159D01*
X97175Y132326D02*
X97509Y132159D01*
X97842Y131826D01*
Y131493D01*
X97675Y131326D01*
X97342D01*
X97175Y131493D01*
Y131659D01*
X97342Y131826D01*
X97842D01*
X110089Y129675D02*
Y130675D01*
X109589D01*
X109422Y130508D01*
Y130175D01*
X109589Y130008D01*
X110089D01*
X109755D02*
X109422Y129675D01*
X109089D02*
X108756D01*
X108922D01*
Y130675D01*
X109089Y130508D01*
X107589Y130675D02*
X108256D01*
Y130175D01*
X107923Y130342D01*
X107756D01*
X107589Y130175D01*
Y129842D01*
X107756Y129675D01*
X108089D01*
X108256Y129842D01*
X110343Y71890D02*
Y72890D01*
X109843D01*
X109676Y72723D01*
Y72390D01*
X109843Y72223D01*
X110343D01*
X110009D02*
X109676Y71890D01*
X109343D02*
X109010D01*
X109176D01*
Y72890D01*
X109343Y72723D01*
X108010Y71890D02*
Y72890D01*
X108510Y72390D01*
X107843D01*
X121420Y127020D02*
X122420D01*
Y127520D01*
X122253Y127687D01*
X121920D01*
X121753Y127520D01*
Y127020D01*
Y127354D02*
X121420Y127687D01*
Y128020D02*
Y128353D01*
Y128187D01*
X122420D01*
X122253Y128020D01*
Y128853D02*
X122420Y129020D01*
Y129353D01*
X122253Y129520D01*
X122087D01*
X121920Y129353D01*
Y129186D01*
Y129353D01*
X121753Y129520D01*
X121587D01*
X121420Y129353D01*
Y129020D01*
X121587Y128853D01*
X128024Y127020D02*
X129024D01*
Y127520D01*
X128857Y127687D01*
X128524D01*
X128357Y127520D01*
Y127020D01*
Y127354D02*
X128024Y127687D01*
Y128020D02*
Y128353D01*
Y128187D01*
X129024D01*
X128857Y128020D01*
X128024Y129520D02*
Y128853D01*
X128691Y129520D01*
X128857D01*
X129024Y129353D01*
Y129020D01*
X128857Y128853D01*
X100143Y69985D02*
Y70985D01*
X99643D01*
X99477Y70818D01*
Y70485D01*
X99643Y70318D01*
X100143D01*
X99810D02*
X99477Y69985D01*
X99143D02*
X98810D01*
X98977D01*
Y70985D01*
X99143Y70818D01*
X98310Y69985D02*
X97977D01*
X98144D01*
Y70985D01*
X98310Y70818D01*
X211181Y80526D02*
Y81526D01*
X210681D01*
X210514Y81359D01*
Y81026D01*
X210681Y80859D01*
X211181D01*
X210847D02*
X210514Y80526D01*
X210181D02*
X209848D01*
X210014D01*
Y81526D01*
X210181Y81359D01*
X209348D02*
X209181Y81526D01*
X208848D01*
X208681Y81359D01*
Y80693D01*
X208848Y80526D01*
X209181D01*
X209348Y80693D01*
Y81359D01*
X157742Y171506D02*
X158742D01*
Y172006D01*
X158575Y172172D01*
X158242D01*
X158075Y172006D01*
Y171506D01*
Y171839D02*
X157742Y172172D01*
X157909Y172506D02*
X157742Y172672D01*
Y173005D01*
X157909Y173172D01*
X158575D01*
X158742Y173005D01*
Y172672D01*
X158575Y172506D01*
X158409D01*
X158242Y172672D01*
Y173172D01*
X177427Y168204D02*
X178427D01*
Y168704D01*
X178260Y168870D01*
X177927D01*
X177760Y168704D01*
Y168204D01*
Y168537D02*
X177427Y168870D01*
X178260Y169204D02*
X178427Y169370D01*
Y169703D01*
X178260Y169870D01*
X178094D01*
X177927Y169703D01*
X177760Y169870D01*
X177594D01*
X177427Y169703D01*
Y169370D01*
X177594Y169204D01*
X177760D01*
X177927Y169370D01*
X178094Y169204D01*
X178260D01*
X177927Y169370D02*
Y169703D01*
X109545Y135771D02*
Y136771D01*
X109045D01*
X108879Y136604D01*
Y136271D01*
X109045Y136104D01*
X109545D01*
X109212D02*
X108879Y135771D01*
X108545Y136771D02*
X107879D01*
Y136604D01*
X108545Y135938D01*
Y135771D01*
X99893Y133866D02*
Y134866D01*
X99393D01*
X99227Y134699D01*
Y134366D01*
X99393Y134199D01*
X99893D01*
X99560D02*
X99227Y133866D01*
X98227Y134866D02*
X98560Y134699D01*
X98893Y134366D01*
Y134033D01*
X98727Y133866D01*
X98394D01*
X98227Y134033D01*
Y134199D01*
X98394Y134366D01*
X98893D01*
X164092Y167315D02*
X165092D01*
Y167815D01*
X164925Y167981D01*
X164592D01*
X164425Y167815D01*
Y167315D01*
Y167648D02*
X164092Y167981D01*
X165092Y168981D02*
Y168315D01*
X164592D01*
X164759Y168648D01*
Y168814D01*
X164592Y168981D01*
X164259D01*
X164092Y168814D01*
Y168481D01*
X164259Y168315D01*
X152535Y171506D02*
X153535D01*
Y172006D01*
X153368Y172172D01*
X153035D01*
X152868Y172006D01*
Y171506D01*
Y171839D02*
X152535Y172172D01*
Y173005D02*
X153535D01*
X153035Y172506D01*
Y173172D01*
X155202Y171506D02*
X156202D01*
Y172006D01*
X156035Y172172D01*
X155702D01*
X155535Y172006D01*
Y171506D01*
Y171839D02*
X155202Y172172D01*
X156035Y172506D02*
X156202Y172672D01*
Y173005D01*
X156035Y173172D01*
X155869D01*
X155702Y173005D01*
Y172839D01*
Y173005D01*
X155535Y173172D01*
X155369D01*
X155202Y173005D01*
Y172672D01*
X155369Y172506D01*
X163520Y121166D02*
Y122166D01*
X163020D01*
X162854Y121999D01*
Y121666D01*
X163020Y121499D01*
X163520D01*
X163187D02*
X162854Y121166D01*
X161854D02*
X162520D01*
X161854Y121833D01*
Y121999D01*
X162021Y122166D01*
X162354D01*
X162520Y121999D01*
X191928Y105164D02*
Y106164D01*
X191429D01*
X191262Y105997D01*
Y105664D01*
X191429Y105497D01*
X191928D01*
X191595D02*
X191262Y105164D01*
X190929D02*
X190596D01*
X190762D01*
Y106164D01*
X190929Y105997D01*
X100139Y145026D02*
Y144026D01*
X99639D01*
X99472Y144193D01*
Y144859D01*
X99639Y145026D01*
X100139D01*
X98473Y144026D02*
X99139D01*
X98473Y144693D01*
Y144859D01*
X98639Y145026D01*
X98973D01*
X99139Y144859D01*
X97473Y145026D02*
X97806Y144859D01*
X98140Y144526D01*
Y144193D01*
X97973Y144026D01*
X97640D01*
X97473Y144193D01*
Y144359D01*
X97640Y144526D01*
X98140D01*
X99885Y81272D02*
Y80272D01*
X99385D01*
X99218Y80439D01*
Y81105D01*
X99385Y81272D01*
X99885D01*
X98219Y80272D02*
X98885D01*
X98219Y80939D01*
Y81105D01*
X98385Y81272D01*
X98719D01*
X98885Y81105D01*
X97219Y81272D02*
X97886D01*
Y80772D01*
X97552Y80939D01*
X97386D01*
X97219Y80772D01*
Y80439D01*
X97386Y80272D01*
X97719D01*
X97886Y80439D01*
X99855Y154297D02*
Y153297D01*
X99355D01*
X99188Y153464D01*
Y154130D01*
X99355Y154297D01*
X99855D01*
X98189Y153297D02*
X98855D01*
X98189Y153964D01*
Y154130D01*
X98355Y154297D01*
X98689D01*
X98855Y154130D01*
X97356Y153297D02*
Y154297D01*
X97856Y153797D01*
X97189D01*
X197802Y69648D02*
Y68648D01*
X197302D01*
X197135Y68815D01*
Y69481D01*
X197302Y69648D01*
X197802D01*
X196136Y68648D02*
X196802D01*
X196136Y69315D01*
Y69481D01*
X196302Y69648D01*
X196636D01*
X196802Y69481D01*
X195803D02*
X195636Y69648D01*
X195303D01*
X195136Y69481D01*
Y69315D01*
X195303Y69148D01*
X195469D01*
X195303D01*
X195136Y68981D01*
Y68815D01*
X195303Y68648D01*
X195636D01*
X195803Y68815D01*
X197802Y148328D02*
Y147328D01*
X197302D01*
X197135Y147495D01*
Y148161D01*
X197302Y148328D01*
X197802D01*
X196136Y147328D02*
X196802D01*
X196136Y147995D01*
Y148161D01*
X196302Y148328D01*
X196636D01*
X196802Y148161D01*
X195136Y147328D02*
X195803D01*
X195136Y147995D01*
Y148161D01*
X195303Y148328D01*
X195636D01*
X195803Y148161D01*
X99718Y90670D02*
Y89670D01*
X99218D01*
X99052Y89837D01*
Y90503D01*
X99218Y90670D01*
X99718D01*
X98052Y89670D02*
X98719D01*
X98052Y90337D01*
Y90503D01*
X98219Y90670D01*
X98552D01*
X98719Y90503D01*
X97719Y89670D02*
X97386D01*
X97552D01*
Y90670D01*
X97719Y90503D01*
X126174Y156583D02*
Y155583D01*
X125674D01*
X125507Y155750D01*
Y156416D01*
X125674Y156583D01*
X126174D01*
X124508Y155583D02*
X125174D01*
X124508Y156250D01*
Y156416D01*
X124674Y156583D01*
X125008D01*
X125174Y156416D01*
X124175D02*
X124008Y156583D01*
X123675D01*
X123508Y156416D01*
Y155750D01*
X123675Y155583D01*
X124008D01*
X124175Y155750D01*
Y156416D01*
X126091Y92702D02*
Y91702D01*
X125591D01*
X125424Y91869D01*
Y92535D01*
X125591Y92702D01*
X126091D01*
X125091Y91702D02*
X124758D01*
X124924D01*
Y92702D01*
X125091Y92535D01*
X124258Y91869D02*
X124091Y91702D01*
X123758D01*
X123591Y91869D01*
Y92535D01*
X123758Y92702D01*
X124091D01*
X124258Y92535D01*
Y92369D01*
X124091Y92202D01*
X123591D01*
X99929Y160774D02*
Y159774D01*
X99429D01*
X99262Y159941D01*
Y160607D01*
X99429Y160774D01*
X99929D01*
X98929Y159774D02*
X98596D01*
X98762D01*
Y160774D01*
X98929Y160607D01*
X98096D02*
X97929Y160774D01*
X97596D01*
X97429Y160607D01*
Y160441D01*
X97596Y160274D01*
X97429Y160107D01*
Y159941D01*
X97596Y159774D01*
X97929D01*
X98096Y159941D01*
Y160107D01*
X97929Y160274D01*
X98096Y160441D01*
Y160607D01*
X97929Y160274D02*
X97596D01*
X99929Y97147D02*
Y96147D01*
X99429D01*
X99262Y96314D01*
Y96980D01*
X99429Y97147D01*
X99929D01*
X98929Y96147D02*
X98596D01*
X98762D01*
Y97147D01*
X98929Y96980D01*
X98096Y97147D02*
X97429D01*
Y96980D01*
X98096Y96314D01*
Y96147D01*
X99929Y49141D02*
Y48141D01*
X99429D01*
X99262Y48308D01*
Y48974D01*
X99429Y49141D01*
X99929D01*
X98929Y48141D02*
X98596D01*
X98762D01*
Y49141D01*
X98929Y48974D01*
X97429Y49141D02*
X97763Y48974D01*
X98096Y48641D01*
Y48308D01*
X97929Y48141D01*
X97596D01*
X97429Y48308D01*
Y48474D01*
X97596Y48641D01*
X98096D01*
X99802Y170426D02*
Y169426D01*
X99302D01*
X99135Y169593D01*
Y170259D01*
X99302Y170426D01*
X99802D01*
X98802Y169426D02*
X98469D01*
X98635D01*
Y170426D01*
X98802Y170259D01*
X97302Y170426D02*
X97969D01*
Y169926D01*
X97636Y170093D01*
X97469D01*
X97302Y169926D01*
Y169593D01*
X97469Y169426D01*
X97802D01*
X97969Y169593D01*
X99929Y106291D02*
Y105291D01*
X99429D01*
X99262Y105458D01*
Y106124D01*
X99429Y106291D01*
X99929D01*
X98929Y105291D02*
X98596D01*
X98762D01*
Y106291D01*
X98929Y106124D01*
X97596Y105291D02*
Y106291D01*
X98096Y105791D01*
X97429D01*
X99802Y58285D02*
Y57285D01*
X99302D01*
X99135Y57452D01*
Y58118D01*
X99302Y58285D01*
X99802D01*
X98802Y57285D02*
X98469D01*
X98635D01*
Y58285D01*
X98802Y58118D01*
X97969D02*
X97802Y58285D01*
X97469D01*
X97302Y58118D01*
Y57952D01*
X97469Y57785D01*
X97636D01*
X97469D01*
X97302Y57618D01*
Y57452D01*
X97469Y57285D01*
X97802D01*
X97969Y57452D01*
X126091Y172204D02*
Y171204D01*
X125591D01*
X125424Y171371D01*
Y172037D01*
X125591Y172204D01*
X126091D01*
X125091Y171204D02*
X124758D01*
X124924D01*
Y172204D01*
X125091Y172037D01*
X123591Y171204D02*
X124258D01*
X123591Y171871D01*
Y172037D01*
X123758Y172204D01*
X124091D01*
X124258Y172037D01*
X126051Y107815D02*
Y106815D01*
X125551D01*
X125385Y106982D01*
Y107648D01*
X125551Y107815D01*
X126051D01*
X125051Y106815D02*
X124718D01*
X124885D01*
Y107815D01*
X125051Y107648D01*
X124218Y106815D02*
X123885D01*
X124052D01*
Y107815D01*
X124218Y107648D01*
X126218Y60698D02*
Y59698D01*
X125718D01*
X125551Y59865D01*
Y60531D01*
X125718Y60698D01*
X126218D01*
X125218Y59698D02*
X124885D01*
X125051D01*
Y60698D01*
X125218Y60531D01*
X124385D02*
X124218Y60698D01*
X123885D01*
X123718Y60531D01*
Y59865D01*
X123885Y59698D01*
X124218D01*
X124385Y59865D01*
Y60531D01*
X99766Y113149D02*
Y112149D01*
X99266D01*
X99100Y112316D01*
Y112982D01*
X99266Y113149D01*
X99766D01*
X98766Y112316D02*
X98600Y112149D01*
X98267D01*
X98100Y112316D01*
Y112982D01*
X98267Y113149D01*
X98600D01*
X98766Y112982D01*
Y112816D01*
X98600Y112649D01*
X98100D01*
X100020Y122166D02*
Y121166D01*
X99520D01*
X99354Y121333D01*
Y121999D01*
X99520Y122166D01*
X100020D01*
X99020Y121999D02*
X98854Y122166D01*
X98521D01*
X98354Y121999D01*
Y121833D01*
X98521Y121666D01*
X98354Y121499D01*
Y121333D01*
X98521Y121166D01*
X98854D01*
X99020Y121333D01*
Y121499D01*
X98854Y121666D01*
X99020Y121833D01*
Y121999D01*
X98854Y121666D02*
X98521D01*
X100020Y64381D02*
Y63381D01*
X99520D01*
X99354Y63548D01*
Y64214D01*
X99520Y64381D01*
X100020D01*
X99020D02*
X98354D01*
Y64214D01*
X99020Y63548D01*
Y63381D01*
X125801Y124452D02*
Y123452D01*
X125301D01*
X125135Y123619D01*
Y124285D01*
X125301Y124452D01*
X125801D01*
X124135D02*
X124468Y124285D01*
X124801Y123952D01*
Y123619D01*
X124635Y123452D01*
X124302D01*
X124135Y123619D01*
Y123785D01*
X124302Y123952D01*
X124801D01*
X99639Y129024D02*
Y128024D01*
X99139D01*
X98973Y128191D01*
Y128857D01*
X99139Y129024D01*
X99639D01*
X97973D02*
X98639D01*
Y128524D01*
X98306Y128691D01*
X98140D01*
X97973Y128524D01*
Y128191D01*
X98140Y128024D01*
X98473D01*
X98639Y128191D01*
X100020Y74414D02*
Y73414D01*
X99520D01*
X99354Y73581D01*
Y74247D01*
X99520Y74414D01*
X100020D01*
X98521Y73414D02*
Y74414D01*
X99020Y73914D01*
X98354D01*
X99766Y138295D02*
Y137295D01*
X99266D01*
X99100Y137462D01*
Y138128D01*
X99266Y138295D01*
X99766D01*
X98766Y138128D02*
X98600Y138295D01*
X98267D01*
X98100Y138128D01*
Y137962D01*
X98267Y137795D01*
X98433D01*
X98267D01*
X98100Y137628D01*
Y137462D01*
X98267Y137295D01*
X98600D01*
X98766Y137462D01*
X125674Y139946D02*
Y138946D01*
X125174D01*
X125008Y139113D01*
Y139779D01*
X125174Y139946D01*
X125674D01*
X124008Y138946D02*
X124674D01*
X124008Y139613D01*
Y139779D01*
X124175Y139946D01*
X124508D01*
X124674Y139779D01*
X125634Y76319D02*
Y75319D01*
X125135D01*
X124968Y75486D01*
Y76152D01*
X125135Y76319D01*
X125634D01*
X124635Y75319D02*
X124302D01*
X124468D01*
Y76319D01*
X124635Y76152D01*
X160857Y64214D02*
X161024Y64381D01*
X161357D01*
X161524Y64214D01*
Y63548D01*
X161357Y63381D01*
X161024D01*
X160857Y63548D01*
X160524Y63381D02*
X160191D01*
X160357D01*
Y64381D01*
X160524Y64214D01*
X159691Y63548D02*
X159524Y63381D01*
X159191D01*
X159024Y63548D01*
Y64214D01*
X159191Y64381D01*
X159524D01*
X159691Y64214D01*
Y64048D01*
X159524Y63881D01*
X159024D01*
X178256Y64341D02*
X178423Y64508D01*
X178756D01*
X178923Y64341D01*
Y63675D01*
X178756Y63508D01*
X178423D01*
X178256Y63675D01*
X177923Y63508D02*
X177590D01*
X177756D01*
Y64508D01*
X177923Y64341D01*
X177090D02*
X176923Y64508D01*
X176590D01*
X176423Y64341D01*
Y64175D01*
X176590Y64008D01*
X176423Y63841D01*
Y63675D01*
X176590Y63508D01*
X176923D01*
X177090Y63675D01*
Y63841D01*
X176923Y64008D01*
X177090Y64175D01*
Y64341D01*
X176923Y64008D02*
X176590D01*
X142823Y63960D02*
X142990Y64127D01*
X143323D01*
X143490Y63960D01*
Y63294D01*
X143323Y63127D01*
X142990D01*
X142823Y63294D01*
X142490Y63127D02*
X142157D01*
X142323D01*
Y64127D01*
X142490Y63960D01*
X141657Y64127D02*
X140990D01*
Y63960D01*
X141657Y63294D01*
Y63127D01*
X115395Y153214D02*
X115562Y153047D01*
Y152714D01*
X115395Y152547D01*
X114729D01*
X114562Y152714D01*
Y153047D01*
X114729Y153214D01*
X114562Y153547D02*
Y153880D01*
Y153714D01*
X115562D01*
X115395Y153547D01*
X115562Y155047D02*
X115395Y154713D01*
X115062Y154380D01*
X114729D01*
X114562Y154547D01*
Y154880D01*
X114729Y155047D01*
X114895D01*
X115062Y154880D01*
Y154380D01*
X115395Y89460D02*
X115562Y89293D01*
Y88960D01*
X115395Y88793D01*
X114729D01*
X114562Y88960D01*
Y89293D01*
X114729Y89460D01*
X114562Y89793D02*
Y90126D01*
Y89960D01*
X115562D01*
X115395Y89793D01*
X115562Y91293D02*
Y90626D01*
X115062D01*
X115229Y90959D01*
Y91126D01*
X115062Y91293D01*
X114729D01*
X114562Y91126D01*
Y90793D01*
X114729Y90626D01*
X115395Y168962D02*
X115562Y168795D01*
Y168462D01*
X115395Y168295D01*
X114729D01*
X114562Y168462D01*
Y168795D01*
X114729Y168962D01*
X114562Y169295D02*
Y169628D01*
Y169462D01*
X115562D01*
X115395Y169295D01*
X114562Y170628D02*
X115562D01*
X115062Y170128D01*
Y170795D01*
X115522Y104954D02*
X115689Y104787D01*
Y104454D01*
X115522Y104287D01*
X114856D01*
X114689Y104454D01*
Y104787D01*
X114856Y104954D01*
X114689Y105287D02*
Y105620D01*
Y105454D01*
X115689D01*
X115522Y105287D01*
Y106120D02*
X115689Y106287D01*
Y106620D01*
X115522Y106787D01*
X115356D01*
X115189Y106620D01*
Y106453D01*
Y106620D01*
X115022Y106787D01*
X114856D01*
X114689Y106620D01*
Y106287D01*
X114856Y106120D01*
X115395Y57583D02*
X115562Y57416D01*
Y57083D01*
X115395Y56916D01*
X114729D01*
X114562Y57083D01*
Y57416D01*
X114729Y57583D01*
X114562Y57916D02*
Y58249D01*
Y58083D01*
X115562D01*
X115395Y57916D01*
X114562Y59416D02*
Y58749D01*
X115229Y59416D01*
X115395D01*
X115562Y59249D01*
Y58916D01*
X115395Y58749D01*
X115395Y121630D02*
X115562Y121464D01*
Y121131D01*
X115395Y120964D01*
X114729D01*
X114562Y121131D01*
Y121464D01*
X114729Y121630D01*
X114562Y121964D02*
Y122297D01*
Y122130D01*
X115562D01*
X115395Y121964D01*
X114562Y122797D02*
Y123130D01*
Y122963D01*
X115562D01*
X115395Y122797D01*
X162508Y104981D02*
X162675Y105148D01*
X163008D01*
X163175Y104981D01*
Y104315D01*
X163008Y104148D01*
X162675D01*
X162508Y104315D01*
X162175Y104148D02*
X161842D01*
X162008D01*
Y105148D01*
X162175Y104981D01*
X161342D02*
X161175Y105148D01*
X160842D01*
X160675Y104981D01*
Y104315D01*
X160842Y104148D01*
X161175D01*
X161342Y104315D01*
Y104981D01*
X115649Y73620D02*
X115816Y73454D01*
Y73121D01*
X115649Y72954D01*
X114983D01*
X114816Y73121D01*
Y73454D01*
X114983Y73620D01*
Y73954D02*
X114816Y74120D01*
Y74453D01*
X114983Y74620D01*
X115649D01*
X115816Y74453D01*
Y74120D01*
X115649Y73954D01*
X115483D01*
X115316Y74120D01*
Y74620D01*
X141391Y103711D02*
X141557Y103878D01*
X141890D01*
X142057Y103711D01*
Y103045D01*
X141890Y102878D01*
X141557D01*
X141391Y103045D01*
X141057Y103711D02*
X140891Y103878D01*
X140558D01*
X140391Y103711D01*
Y103545D01*
X140558Y103378D01*
X140391Y103211D01*
Y103045D01*
X140558Y102878D01*
X140891D01*
X141057Y103045D01*
Y103211D01*
X140891Y103378D01*
X141057Y103545D01*
Y103711D01*
X140891Y103378D02*
X140558D01*
X115522Y137501D02*
X115689Y137335D01*
Y137002D01*
X115522Y136835D01*
X114856D01*
X114689Y137002D01*
Y137335D01*
X114856Y137501D01*
X115689Y137835D02*
Y138501D01*
X115522D01*
X114856Y137835D01*
X114689D01*
X136184Y102695D02*
X136350Y102862D01*
X136683D01*
X136850Y102695D01*
Y102029D01*
X136683Y101862D01*
X136350D01*
X136184Y102029D01*
X135184Y102862D02*
X135517Y102695D01*
X135850Y102362D01*
Y102029D01*
X135684Y101862D01*
X135351D01*
X135184Y102029D01*
Y102195D01*
X135351Y102362D01*
X135850D01*
X217170Y85550D02*
X217337Y85717D01*
X217670D01*
X217836Y85550D01*
Y84884D01*
X217670Y84717D01*
X217337D01*
X217170Y84884D01*
X216837Y84717D02*
X216504D01*
X216670D01*
Y85717D01*
X216837Y85550D01*
D85*
X120306Y72609D02*
X119460Y71763D01*
X120306D02*
X119460Y72609D01*
X120306Y72186D02*
X119460D01*
X119883Y71763D02*
Y72609D01*
X120306Y56861D02*
X119460Y56015D01*
X120306D02*
X119460Y56861D01*
X120306Y56438D02*
X119460D01*
X119883Y56015D02*
Y56861D01*
X120306Y168367D02*
X119460Y167521D01*
X120306D02*
X119460Y168367D01*
X120306Y167944D02*
X119460D01*
X119883Y167521D02*
Y168367D01*
X120306Y152619D02*
X119460Y151773D01*
X120306D02*
X119460Y152619D01*
X120306Y152196D02*
X119460D01*
X119883Y151773D02*
Y152619D01*
X120306Y136490D02*
X119460Y135644D01*
X120306D02*
X119460Y136490D01*
X120306Y136067D02*
X119460D01*
X119883Y135644D02*
Y136490D01*
X120306Y120742D02*
X119460Y119896D01*
X120306D02*
X119460Y120742D01*
X120306Y120319D02*
X119460D01*
X119883Y119896D02*
Y120742D01*
X120306Y104486D02*
X119460Y103640D01*
X120306D02*
X119460Y104486D01*
X120306Y104063D02*
X119460D01*
X119883Y103640D02*
Y104486D01*
X120306Y88738D02*
X119460Y87892D01*
X120306D02*
X119460Y88738D01*
X120306Y88315D02*
X119460D01*
X119883Y87892D02*
Y88738D01*
%TF.MD5,9ae9151bcdb7329d8cb249cfebe3bd60*%
M02*
