%TF.GenerationSoftware,Altium Limited,Altium Designer,21.6.4 (81)*%
G04 Layer_Color=32768*
%FSLAX43Y43*%
%MOMM*%
%TF.SameCoordinates,5D8205C6-A8A5-4108-8313-488A8EE5113E*%
%TF.FilePolarity,Positive*%
%TF.FileFunction,Other,Mechanical_15*%
%TF.Part,Single*%
G01*
G75*
%TA.AperFunction,NonConductor*%
%ADD81C,0.152*%
%ADD82C,0.200*%
%ADD117C,0.100*%
%ADD118C,0.050*%
G36*
X119723Y167665D02*
X121378D01*
Y162281D01*
X119723D01*
Y161963D01*
X114719D01*
Y162281D01*
X113064D01*
Y167665D01*
X114719D01*
Y167983D01*
X119723D01*
Y167665D01*
D02*
G37*
G36*
Y151917D02*
X121378D01*
Y146533D01*
X119723D01*
Y146215D01*
X114719D01*
Y146533D01*
X113064D01*
Y151917D01*
X114719D01*
Y152235D01*
X119723D01*
Y151917D01*
D02*
G37*
G36*
Y135788D02*
X121378D01*
Y130404D01*
X119723D01*
Y130086D01*
X114719D01*
Y130404D01*
X113064D01*
Y135788D01*
X114719D01*
Y136106D01*
X119723D01*
Y135788D01*
D02*
G37*
G36*
X162502Y113317D02*
X161616Y112431D01*
X162033Y112014D01*
X161616Y111597D01*
X162502Y110711D01*
X157894Y106103D01*
X157008Y106989D01*
X156591Y106572D01*
X156174Y106989D01*
X155288Y106103D01*
X150680Y110711D01*
X151566Y111597D01*
X151149Y112014D01*
X151566Y112431D01*
X150680Y113317D01*
X155288Y117925D01*
X156174Y117039D01*
X156591Y117456D01*
X157008Y117039D01*
X157894Y117925D01*
X162502Y113317D01*
D02*
G37*
G36*
X119723Y120040D02*
X121378D01*
Y114656D01*
X119723D01*
Y114338D01*
X114719D01*
Y114656D01*
X113064D01*
Y120040D01*
X114719D01*
Y120358D01*
X119723D01*
Y120040D01*
D02*
G37*
G36*
X210719Y113013D02*
X217946D01*
Y110448D01*
X210719D01*
Y108822D01*
X200712D01*
Y110448D01*
X193485D01*
Y113013D01*
X200712D01*
Y114639D01*
X210719D01*
Y113013D01*
D02*
G37*
G36*
X119723Y103784D02*
X121378D01*
Y98400D01*
X119723D01*
Y98082D01*
X114719D01*
Y98400D01*
X113064D01*
Y103784D01*
X114719D01*
Y104102D01*
X119723D01*
Y103784D01*
D02*
G37*
G36*
X210591Y98184D02*
X217818D01*
Y95618D01*
X210591D01*
Y93993D01*
X200584D01*
Y95618D01*
X193357D01*
Y98184D01*
X200584D01*
Y99809D01*
X210591D01*
Y98184D01*
D02*
G37*
G36*
X119723Y88036D02*
X121378D01*
Y82652D01*
X119723D01*
Y82334D01*
X114719D01*
Y82652D01*
X113064D01*
Y88036D01*
X114719D01*
Y88354D01*
X119723D01*
Y88036D01*
D02*
G37*
G36*
Y71907D02*
X121378D01*
Y66523D01*
X119723D01*
Y66205D01*
X114719D01*
Y66523D01*
X113064D01*
Y71907D01*
X114719D01*
Y72225D01*
X119723D01*
Y71907D01*
D02*
G37*
G36*
X181051Y70955D02*
X183655D01*
Y64681D01*
X181051D01*
Y64567D01*
X174549D01*
Y64681D01*
X171945D01*
Y70955D01*
X174549D01*
Y71069D01*
X181051D01*
Y70955D01*
D02*
G37*
G36*
X163398D02*
X166002D01*
Y64681D01*
X163398D01*
Y64567D01*
X156896D01*
Y64681D01*
X154292D01*
Y70955D01*
X156896D01*
Y71069D01*
X163398D01*
Y70955D01*
D02*
G37*
G36*
X145745D02*
X148349D01*
Y64681D01*
X145745D01*
Y64567D01*
X139243D01*
Y64681D01*
X136639D01*
Y70955D01*
X139243D01*
Y71069D01*
X145745D01*
Y70955D01*
D02*
G37*
G36*
X119723Y56159D02*
X121378D01*
Y50775D01*
X119723D01*
Y50457D01*
X114719D01*
Y50775D01*
X113064D01*
Y56159D01*
X114719D01*
Y56477D01*
X119723D01*
Y56159D01*
D02*
G37*
D81*
Y66523D02*
X121378D01*
X119723Y66205D02*
Y66523D01*
X114719Y66205D02*
X119723D01*
X114719D02*
Y66523D01*
X113064D02*
X114719D01*
X113064D02*
Y71907D01*
X114719D01*
Y72225D01*
X119723D01*
Y71907D02*
Y72225D01*
Y71907D02*
X121378D01*
Y66523D02*
Y71907D01*
X119723Y50775D02*
X121378D01*
X119723Y50457D02*
Y50775D01*
X114719Y50457D02*
X119723D01*
X114719D02*
Y50775D01*
X113064D02*
X114719D01*
X113064D02*
Y56159D01*
X114719D01*
Y56477D01*
X119723D01*
Y56159D02*
Y56477D01*
Y56159D02*
X121378D01*
Y50775D02*
Y56159D01*
X119723Y162281D02*
X121378D01*
X119723Y161963D02*
Y162281D01*
X114719Y161963D02*
X119723D01*
X114719D02*
Y162281D01*
X113064D02*
X114719D01*
X113064D02*
Y167665D01*
X114719D01*
Y167983D01*
X119723D01*
Y167665D02*
Y167983D01*
Y167665D02*
X121378D01*
Y162281D02*
Y167665D01*
X119723Y146533D02*
X121378D01*
X119723Y146215D02*
Y146533D01*
X114719Y146215D02*
X119723D01*
X114719D02*
Y146533D01*
X113064D02*
X114719D01*
X113064D02*
Y151917D01*
X114719D01*
Y152235D01*
X119723D01*
Y151917D02*
Y152235D01*
Y151917D02*
X121378D01*
Y146533D02*
Y151917D01*
X119723Y130404D02*
X121378D01*
X119723Y130086D02*
Y130404D01*
X114719Y130086D02*
X119723D01*
X114719D02*
Y130404D01*
X113064D02*
X114719D01*
X113064D02*
Y135788D01*
X114719D01*
Y136106D01*
X119723D01*
Y135788D02*
Y136106D01*
Y135788D02*
X121378D01*
Y130404D02*
Y135788D01*
X119723Y114656D02*
X121378D01*
X119723Y114338D02*
Y114656D01*
X114719Y114338D02*
X119723D01*
X114719D02*
Y114656D01*
X113064D02*
X114719D01*
X113064D02*
Y120040D01*
X114719D01*
Y120358D01*
X119723D01*
Y120040D02*
Y120358D01*
Y120040D02*
X121378D01*
Y114656D02*
Y120040D01*
X119723Y98400D02*
X121378D01*
X119723Y98082D02*
Y98400D01*
X114719Y98082D02*
X119723D01*
X114719D02*
Y98400D01*
X113064D02*
X114719D01*
X113064D02*
Y103784D01*
X114719D01*
Y104102D01*
X119723D01*
Y103784D02*
Y104102D01*
Y103784D02*
X121378D01*
Y98400D02*
Y103784D01*
X119723Y82652D02*
X121378D01*
X119723Y82334D02*
Y82652D01*
X114719Y82334D02*
X119723D01*
X114719D02*
Y82652D01*
X113064D02*
X114719D01*
X113064D02*
Y88036D01*
X114719D01*
Y88354D01*
X119723D01*
Y88036D02*
Y88354D01*
Y88036D02*
X121378D01*
Y82652D02*
Y88036D01*
X156174Y106989D02*
X156591Y106572D01*
X155288Y106103D02*
X156174Y106989D01*
X150680Y110711D02*
X155288Y106103D01*
X150680Y110711D02*
X151566Y111597D01*
X151149Y112014D02*
X151566Y111597D01*
X151149Y112014D02*
X151566Y112431D01*
X150680Y113317D02*
X151566Y112431D01*
X150680Y113317D02*
X155288Y117925D01*
X156174Y117039D01*
X156591Y117456D01*
X157008Y117039D01*
X157894Y117925D01*
X162502Y113317D01*
X161616Y112431D02*
X162502Y113317D01*
X161616Y112431D02*
X162033Y112014D01*
X161616Y111597D02*
X162033Y112014D01*
X161616Y111597D02*
X162502Y110711D01*
X157894Y106103D02*
X162502Y110711D01*
X157008Y106989D02*
X157894Y106103D01*
X156591Y106572D02*
X157008Y106989D01*
X145745Y70955D02*
Y71069D01*
Y70955D02*
X148349D01*
Y64681D02*
Y70955D01*
X145745Y64681D02*
X148349D01*
X145745Y64567D02*
Y64681D01*
X139243Y64567D02*
X145745D01*
X139243D02*
Y64681D01*
X136639D02*
X139243D01*
X136639D02*
Y70955D01*
X139243D01*
Y71069D01*
X145745D01*
X181051Y70955D02*
Y71069D01*
Y70955D02*
X183655D01*
Y64681D02*
Y70955D01*
X181051Y64681D02*
X183655D01*
X181051Y64567D02*
Y64681D01*
X174549Y64567D02*
X181051D01*
X174549D02*
Y64681D01*
X171945D02*
X174549D01*
X171945D02*
Y70955D01*
X174549D01*
Y71069D01*
X181051D01*
X163398Y70955D02*
Y71069D01*
Y70955D02*
X166002D01*
Y64681D02*
Y70955D01*
X163398Y64681D02*
X166002D01*
X163398Y64567D02*
Y64681D01*
X156896Y64567D02*
X163398D01*
X156896D02*
Y64681D01*
X154292D02*
X156896D01*
X154292D02*
Y70955D01*
X156896D01*
Y71069D01*
X163398D01*
X193485Y110448D02*
Y113013D01*
X200712D01*
Y114639D01*
X210719D01*
Y113013D02*
Y114639D01*
Y113013D02*
X217946D01*
Y110448D02*
Y113013D01*
X193485Y110448D02*
X200712D01*
Y108822D02*
Y110448D01*
Y108822D02*
X210719D01*
Y110448D01*
X217946D01*
X210591Y95618D02*
X217818D01*
X210591Y93993D02*
Y95618D01*
X200584Y93993D02*
X210591D01*
X200584D02*
Y95618D01*
X193357D02*
X200584D01*
X217818D02*
Y98184D01*
X210591D02*
X217818D01*
X210591D02*
Y99809D01*
X200584D02*
X210591D01*
X200584Y98184D02*
Y99809D01*
X193357Y98184D02*
X200584D01*
X193357Y95618D02*
Y98184D01*
X208280Y65913D02*
X207518D01*
Y65405D01*
X208280Y64643D02*
Y65151D01*
X207518D01*
Y64643D01*
X207899Y65151D02*
Y64897D01*
X208280Y64389D02*
X207518D01*
Y64009D01*
X207645Y63882D01*
X208153D01*
X208280Y64009D01*
Y64389D01*
X208153Y63628D02*
X208280Y63501D01*
Y63247D01*
X208153Y63120D01*
X208026D01*
X207899Y63247D01*
Y63374D01*
Y63247D01*
X207772Y63120D01*
X207645D01*
X207518Y63247D01*
Y63501D01*
X207645Y63628D01*
X207010Y63373D02*
X206248D01*
X206502D01*
X207010Y62865D01*
X206629Y63246D01*
X206248Y62865D01*
X188722Y65913D02*
X187960D01*
Y65405D01*
X188722Y64643D02*
Y65151D01*
X187960D01*
Y64643D01*
X188341Y65151D02*
Y64897D01*
X188722Y64389D02*
X187960D01*
Y64009D01*
X188087Y63882D01*
X188595D01*
X188722Y64009D01*
Y64389D01*
X187960Y63247D02*
X188722D01*
X188341Y63628D01*
Y63120D01*
X187452Y63373D02*
X186690D01*
X186944D01*
X187452Y62865D01*
X187071Y63246D01*
X186690Y62865D01*
X187198Y150363D02*
X187960D01*
Y150871D01*
X187198Y151633D02*
Y151125D01*
X187960D01*
Y151633D01*
X187579Y151125D02*
Y151379D01*
X187198Y151887D02*
X187960D01*
Y152267D01*
X187833Y152394D01*
X187325D01*
X187198Y152267D01*
Y151887D01*
X187960Y153156D02*
Y152648D01*
X187452Y153156D01*
X187325D01*
X187198Y153029D01*
Y152775D01*
X187325Y152648D01*
X188468Y152903D02*
X189230D01*
X188976D01*
X188468Y153411D01*
X188849Y153030D01*
X189230Y153411D01*
X208026Y152908D02*
X208788D01*
X208534D01*
X208026Y153416D01*
X208407Y153035D01*
X208788Y153416D01*
X206756Y150368D02*
X207518D01*
Y150876D01*
X206756Y151638D02*
Y151130D01*
X207518D01*
Y151638D01*
X207137Y151130D02*
Y151384D01*
X206756Y151892D02*
X207518D01*
Y152272D01*
X207391Y152399D01*
X206883D01*
X206756Y152272D01*
Y151892D01*
X207518Y152653D02*
Y152907D01*
Y152780D01*
X206756D01*
X206883Y152653D01*
D82*
X208876Y63754D02*
G03*
X206138Y63774I-1355J2016D01*
G01*
X189318Y63754D02*
G03*
X186580Y63774I-1355J2016D01*
G01*
X186602Y152522D02*
G03*
X189340Y152502I1355J-2016D01*
G01*
X206160Y152527D02*
G03*
X208898Y152507I1355J-2016D01*
G01*
X125619Y157993D02*
X128127D01*
X125619D02*
Y162301D01*
X128127D01*
Y157993D02*
Y162301D01*
X125619Y78364D02*
X128127D01*
X125619D02*
Y82672D01*
X128127D01*
Y78364D02*
Y82672D01*
X125619Y62235D02*
X128127D01*
X125619D02*
Y66543D01*
X128127D01*
Y62235D02*
Y66543D01*
X125619Y46487D02*
X128127D01*
X125619D02*
Y50795D01*
X128127D01*
Y46487D02*
Y50795D01*
X105415Y50943D02*
Y53451D01*
X109723D01*
Y50943D02*
Y53451D01*
X105415Y50943D02*
X109723D01*
X109812Y60541D02*
Y62141D01*
X107104Y60541D02*
X109812D01*
X107104D02*
Y62141D01*
X109812D01*
X106939Y66056D02*
Y68564D01*
X111247D01*
Y66056D02*
Y68564D01*
X106939Y66056D02*
X111247D01*
X109812Y92418D02*
Y94018D01*
X107104Y92418D02*
X109812D01*
X107104D02*
Y94018D01*
X109812D01*
X106939Y98314D02*
Y100822D01*
X111247D01*
Y98314D02*
Y100822D01*
X106939Y98314D02*
X111247D01*
X105415Y114697D02*
Y117205D01*
X109723D01*
Y114697D02*
Y117205D01*
X105415Y114697D02*
X109723D01*
X109812Y124422D02*
Y126022D01*
X107104Y124422D02*
X109812D01*
X107104D02*
Y126022D01*
X109812D01*
X106558Y130445D02*
Y132953D01*
X110866D01*
Y130445D02*
Y132953D01*
X106558Y130445D02*
X110866D01*
X109939Y156172D02*
Y157772D01*
X107231Y156172D02*
X109939D01*
X107231D02*
Y157772D01*
X109939D01*
X106558Y161814D02*
Y164322D01*
X110866D01*
Y161814D02*
Y164322D01*
X106558Y161814D02*
X110866D01*
X99954Y162322D02*
Y164830D01*
X104262D01*
Y162322D02*
Y164830D01*
X99954Y162322D02*
X104262D01*
X105288Y82820D02*
Y85328D01*
X109596D01*
Y82820D02*
Y85328D01*
X105288Y82820D02*
X109596D01*
X154448Y167137D02*
X156956D01*
X154448D02*
Y171445D01*
X156956D01*
Y167137D02*
Y171445D01*
X156988Y171410D02*
X159496D01*
Y167102D02*
Y171410D01*
X156988Y167102D02*
X159496D01*
X156988D02*
Y171410D01*
X164989Y165613D02*
X167497D01*
X164989D02*
Y169921D01*
X167497D01*
Y165613D02*
Y169921D01*
X175022Y171445D02*
X177530D01*
Y167137D02*
Y171445D01*
X175022Y167137D02*
X177530D01*
X175022D02*
Y171445D01*
X162817Y120397D02*
X164591Y122171D01*
X167637Y119125D01*
X165863Y117351D02*
X167637Y119125D01*
X162817Y120397D02*
X165863Y117351D01*
X151727Y50998D02*
X153327D01*
Y48290D02*
Y50998D01*
X151727Y48290D02*
X153327D01*
X151727D02*
Y50998D01*
X181361Y54753D02*
Y57261D01*
X185669D01*
Y54753D02*
Y57261D01*
X181361Y54753D02*
X185669D01*
X195712D02*
Y57261D01*
X200020D01*
Y54753D02*
Y57261D01*
X195712Y54753D02*
X200020D01*
X201681D02*
Y57261D01*
X205989D01*
Y54753D02*
Y57261D01*
X201681Y54753D02*
X205989D01*
X205999D02*
Y57261D01*
X210307D01*
Y54753D02*
Y57261D01*
X205999Y54753D02*
X210307D01*
X216032D02*
Y57261D01*
X220340D01*
Y54753D02*
Y57261D01*
X216032Y54753D02*
X220340D01*
X203322Y60595D02*
Y63103D01*
X199014Y60595D02*
X203322D01*
X199014D02*
Y63103D01*
X203322D01*
X196718Y60341D02*
Y62849D01*
X192410Y60341D02*
X196718D01*
X192410D02*
Y62849D01*
X196718D01*
X190516Y63505D02*
X193024D01*
X190516D02*
Y67813D01*
X193024D01*
Y63505D02*
Y67813D01*
X186706Y70744D02*
X189214D01*
X186706D02*
Y75052D01*
X189214D01*
Y70744D02*
Y75052D01*
X190643Y70744D02*
X193151D01*
X190643D02*
Y75052D01*
X193151D01*
Y70744D02*
Y75052D01*
X206264Y70744D02*
X208772D01*
X206264D02*
Y75052D01*
X208772D01*
Y70744D02*
Y75052D01*
X194229Y103467D02*
Y105067D01*
X191521Y103467D02*
X194229D01*
X191521D02*
Y105067D01*
X194229D01*
X196477Y98837D02*
X212697D01*
X196477D02*
Y109697D01*
X212697D01*
Y98837D02*
Y109697D01*
X203449Y138700D02*
Y141208D01*
X199141Y138700D02*
X203449D01*
X199141D02*
Y141208D01*
X203449D01*
X186706Y145502D02*
X189214D01*
Y141194D02*
Y145502D01*
X186706Y141194D02*
X189214D01*
X186706D02*
Y145502D01*
X194834Y153538D02*
X197342D01*
Y149230D02*
Y153538D01*
X194834Y149230D02*
X197342D01*
X194834D02*
Y153538D01*
X206391Y145502D02*
X208899D01*
Y141194D02*
Y145502D01*
X206391Y141194D02*
X208899D01*
X206391D02*
Y145502D01*
X210328Y145537D02*
X212836D01*
Y141229D02*
Y145537D01*
X210328Y141229D02*
X212836D01*
X210328D02*
Y145537D01*
Y152649D02*
X212836D01*
Y148341D02*
Y152649D01*
X210328Y148341D02*
X212836D01*
X210328D02*
Y152649D01*
X220340Y158893D02*
Y161401D01*
X216032Y158893D02*
X220340D01*
X216032D02*
Y161401D01*
X220340D01*
X216022Y158893D02*
Y161401D01*
X211714Y158893D02*
X216022D01*
X211714D02*
Y161401D01*
X216022D01*
X205964Y158893D02*
Y161401D01*
X210272D01*
Y158893D02*
Y161401D01*
X205964Y158893D02*
X210272D01*
X205989D02*
Y161401D01*
X201681Y158893D02*
X205989D01*
X201681D02*
Y161401D01*
X205989D01*
X199985Y158893D02*
Y161401D01*
X195677Y158893D02*
X199985D01*
X195677D02*
Y161401D01*
X199985D01*
X195702Y158893D02*
Y161401D01*
X191394Y158893D02*
X195702D01*
X191394D02*
Y161401D01*
X195702D01*
X185644Y158893D02*
Y161401D01*
X189952D01*
Y158893D02*
Y161401D01*
X185644Y158893D02*
X189952D01*
X185796D02*
Y161401D01*
X181488Y158893D02*
X185796D01*
X181488D02*
Y161401D01*
X185796D01*
X177318Y44394D02*
Y50694D01*
X161518D02*
X177318D01*
X161518Y44394D02*
Y50694D01*
Y44394D02*
X177318D01*
X151752Y54053D02*
X153302D01*
Y57453D01*
X151752D02*
X153302D01*
X151752Y54053D02*
Y57453D01*
X149212Y54053D02*
Y57453D01*
X150762D01*
Y54053D02*
Y57453D01*
X149212Y54053D02*
X150762D01*
X146672D02*
Y57453D01*
X148222D01*
Y54053D02*
Y57453D01*
X146672Y54053D02*
X148222D01*
X221017Y159477D02*
Y164637D01*
X211037Y159477D02*
X221017D01*
X211037D02*
Y164637D01*
X221017D01*
X210984Y159472D02*
Y164632D01*
X201004Y159472D02*
X210984D01*
X201004D02*
Y164632D01*
X210984D01*
X200697Y159477D02*
Y164637D01*
X190717Y159477D02*
X200697D01*
X190717D02*
Y164637D01*
X200697D01*
X190664Y159477D02*
Y164637D01*
X180684Y159477D02*
X190664D01*
X180684D02*
Y164637D01*
X190664D01*
X201004Y51517D02*
X210984D01*
Y56677D01*
X201004D02*
X210984D01*
X201004Y51517D02*
Y56677D01*
X211037Y51517D02*
X221017D01*
Y56677D01*
X211037D02*
X221017D01*
X211037Y51517D02*
Y56677D01*
X190717Y51517D02*
X200697D01*
Y56677D01*
X190717D02*
X200697D01*
X190717Y51517D02*
Y56677D01*
X180684Y51517D02*
X190664D01*
Y56677D01*
X180684D02*
X190664D01*
X180684Y51517D02*
Y56677D01*
X206139Y63754D02*
X208876D01*
X186581D02*
X189318D01*
X165201Y154026D02*
X181001D01*
Y147726D02*
Y154026D01*
X165201Y147726D02*
X181001D01*
X165201D02*
Y154026D01*
X186602Y152522D02*
X189339D01*
X206160Y152527D02*
X208897D01*
X146532Y168839D02*
X162332D01*
Y162539D02*
Y168839D01*
X146532Y162539D02*
X162332D01*
X146532D02*
Y168839D01*
X134858Y161076D02*
Y165384D01*
X132350D02*
X134858D01*
X132350Y161076D02*
Y165384D01*
Y161076D02*
X134858D01*
X137398D02*
Y165384D01*
X134890D02*
X137398D01*
X134890Y161076D02*
Y165384D01*
Y161076D02*
X137398D01*
X143240D02*
Y165384D01*
X140732D02*
X143240D01*
X140732Y161076D02*
Y165384D01*
Y161076D02*
X143240D01*
X145780D02*
Y165384D01*
X143272D02*
X145780D01*
X143272Y161076D02*
Y165384D01*
Y161076D02*
X145780D01*
X154416Y167137D02*
Y171445D01*
X151908D02*
X154416D01*
X151908Y167137D02*
Y171445D01*
Y167137D02*
X154416D01*
X148733Y47817D02*
Y52125D01*
Y47817D02*
X151241D01*
Y52125D01*
X148733D02*
X151241D01*
X146193Y47817D02*
Y52125D01*
Y47817D02*
X148701D01*
Y52125D01*
X146193D02*
X148701D01*
X190643Y141172D02*
Y145480D01*
Y141172D02*
X193151D01*
Y145480D01*
X190643D02*
X193151D01*
X190643Y148468D02*
Y152776D01*
Y148468D02*
X193151D01*
Y152776D01*
X190643D02*
X193151D01*
X212565Y63522D02*
Y67831D01*
X210056D02*
X212565D01*
X210056Y63522D02*
Y67831D01*
Y63522D02*
X212565D01*
X212582Y70744D02*
Y75052D01*
X210074D02*
X212582D01*
X210074Y70744D02*
Y75052D01*
Y70744D02*
X212582D01*
X191394Y57261D02*
X195702D01*
X191394Y54753D02*
Y57261D01*
Y54753D02*
X195702D01*
Y57261D01*
X211714D02*
X216022D01*
X211714Y54753D02*
Y57261D01*
Y54753D02*
X216022D01*
Y57261D01*
X213884Y167889D02*
X216392D01*
Y163581D02*
Y167889D01*
X213884Y163581D02*
X216392D01*
X213884D02*
Y167889D01*
X205629D02*
X208137D01*
Y163581D02*
Y167889D01*
X205629Y163581D02*
X208137D01*
X205629D02*
Y167889D01*
X185309Y168051D02*
X187817D01*
Y163743D02*
Y168051D01*
X185309Y163743D02*
X187817D01*
X185309D02*
Y168051D01*
X110876Y62595D02*
X115184D01*
X110876Y60087D02*
Y62595D01*
Y60087D02*
X115184D01*
Y62595D01*
X110816Y126476D02*
X115124D01*
X110816Y123968D02*
Y126476D01*
Y123968D02*
X115124D01*
Y126476D01*
X111003Y94472D02*
X115311D01*
X111003Y91964D02*
Y94472D01*
Y91964D02*
X115311D01*
Y94472D01*
X110876Y158226D02*
X115184D01*
X110876Y155718D02*
Y158226D01*
Y155718D02*
X115184D01*
Y158226D01*
X207777Y81423D02*
X212085D01*
Y83931D01*
X207777D02*
X212085D01*
X207777Y81423D02*
Y83931D01*
X185634Y99023D02*
X190794D01*
X185634D02*
Y109003D01*
X190794D01*
Y99023D02*
Y109003D01*
X216392Y48392D02*
Y52700D01*
X213884D02*
X216392D01*
X213884Y48392D02*
Y52700D01*
Y48392D02*
X216392D01*
X208137Y48357D02*
Y52665D01*
X205629D02*
X208137D01*
X205629Y48357D02*
Y52665D01*
Y48357D02*
X208137D01*
X187817Y48265D02*
Y52573D01*
X185309D02*
X187817D01*
X185309Y48265D02*
Y52573D01*
Y48265D02*
X187817D01*
X128127Y142245D02*
Y146553D01*
X125619D02*
X128127D01*
X125619Y142245D02*
Y146553D01*
Y142245D02*
X128127D01*
Y126116D02*
Y130424D01*
X125619D02*
X128127D01*
X125619Y126116D02*
Y130424D01*
Y126116D02*
X128127D01*
Y110368D02*
Y114676D01*
X125619D02*
X128127D01*
X125619Y110368D02*
Y114676D01*
Y110368D02*
X128127D01*
Y94112D02*
Y98420D01*
X125619D02*
X128127D01*
X125619Y94112D02*
Y98420D01*
Y94112D02*
X128127D01*
X105034Y146574D02*
X109342D01*
Y149082D01*
X105034D02*
X109342D01*
X105034Y146574D02*
Y149082D01*
X99954Y66183D02*
X104262D01*
Y68691D01*
X99954D02*
X104262D01*
X99954Y66183D02*
Y68691D01*
X99792Y146574D02*
X104100D01*
Y149082D01*
X99792D02*
X104100D01*
X99792Y146574D02*
Y149082D01*
X99827Y50943D02*
X104135D01*
Y53451D01*
X99827D02*
X104135D01*
X99827Y50943D02*
Y53451D01*
X99919Y82693D02*
X104227D01*
Y85201D01*
X99919D02*
X104227D01*
X99919Y82693D02*
Y85201D01*
Y98441D02*
X104227D01*
Y100949D01*
X99919D02*
X104227D01*
X99919Y98441D02*
Y100949D01*
X99827Y130445D02*
X104135D01*
Y132953D01*
X99827D02*
X104135D01*
X99827Y130445D02*
Y132953D01*
X99919Y114570D02*
X104227D01*
Y117078D01*
X99919D02*
X104227D01*
X99919Y114570D02*
Y117078D01*
D117*
X126373Y160147D02*
X127373D01*
X126873Y159647D02*
Y160647D01*
X126373Y80518D02*
X127373D01*
X126873Y80018D02*
Y81018D01*
X126373Y64389D02*
X127373D01*
X126873Y63889D02*
Y64889D01*
X126373Y48641D02*
X127373D01*
X126873Y48141D02*
Y49141D01*
X107569Y51697D02*
Y52697D01*
X107069Y52197D02*
X108069D01*
X108458Y60841D02*
Y61841D01*
X107958Y61341D02*
X108958D01*
X109093Y66810D02*
Y67810D01*
X108593Y67310D02*
X109593D01*
X108458Y92718D02*
Y93718D01*
X107958Y93218D02*
X108958D01*
X109093Y99068D02*
Y100068D01*
X108593Y99568D02*
X109593D01*
X107569Y115451D02*
Y116451D01*
X107069Y115951D02*
X108069D01*
X108458Y124722D02*
Y125722D01*
X107958Y125222D02*
X108958D01*
X108712Y131199D02*
Y132199D01*
X108212Y131699D02*
X109212D01*
X108585Y156472D02*
Y157472D01*
X108085Y156972D02*
X109085D01*
X108712Y162568D02*
Y163568D01*
X108212Y163068D02*
X109212D01*
X102108Y163076D02*
Y164076D01*
X101608Y163576D02*
X102608D01*
X107442Y83574D02*
Y84574D01*
X106942Y84074D02*
X107942D01*
X155202Y169291D02*
X156202D01*
X155702Y168791D02*
Y169791D01*
X157742Y169256D02*
X158742D01*
X158242Y168756D02*
Y169756D01*
X165743Y167767D02*
X166743D01*
X166243Y167267D02*
Y168267D01*
X175776Y169291D02*
X176776D01*
X176276Y168791D02*
Y169791D01*
X164873Y119407D02*
X165581Y120115D01*
X164873D02*
X165581Y119407D01*
X152027Y49644D02*
X153027D01*
X152527Y49144D02*
Y50144D01*
X183515Y55507D02*
Y56507D01*
X183015Y56007D02*
X184015D01*
X197866Y55507D02*
Y56507D01*
X197366Y56007D02*
X198366D01*
X203835Y55507D02*
Y56507D01*
X203335Y56007D02*
X204335D01*
X208153Y55507D02*
Y56507D01*
X207653Y56007D02*
X208653D01*
X218186Y55507D02*
Y56507D01*
X217686Y56007D02*
X218686D01*
X201168Y61349D02*
Y62349D01*
X200668Y61849D02*
X201668D01*
X194564Y61095D02*
Y62095D01*
X194064Y61595D02*
X195064D01*
X191270Y65659D02*
X192270D01*
X191770Y65159D02*
Y66159D01*
X187460Y72898D02*
X188460D01*
X187960Y72398D02*
Y73398D01*
X191397Y72898D02*
X192397D01*
X191897Y72398D02*
Y73398D01*
X207018Y72898D02*
X208018D01*
X207518Y72398D02*
Y73398D01*
X217170Y75827D02*
Y76827D01*
X216670Y76327D02*
X217670D01*
X192875Y103767D02*
Y104767D01*
X192375Y104267D02*
X193375D01*
X204087D02*
X205087D01*
X204587Y103767D02*
Y104767D01*
X201295Y139454D02*
Y140454D01*
X200795Y139954D02*
X201795D01*
X187460Y143348D02*
X188460D01*
X187960Y142848D02*
Y143848D01*
X195588Y151384D02*
X196588D01*
X196088Y150884D02*
Y151884D01*
X207145Y143348D02*
X208145D01*
X207645Y142848D02*
Y143848D01*
X211082Y143383D02*
X212082D01*
X211582Y142883D02*
Y143883D01*
X211082Y150495D02*
X212082D01*
X211582Y149995D02*
Y150995D01*
X218186Y159647D02*
Y160647D01*
X217686Y160147D02*
X218686D01*
X213868Y159647D02*
Y160647D01*
X213368Y160147D02*
X214368D01*
X208118Y159647D02*
Y160647D01*
X207618Y160147D02*
X208618D01*
X203835Y159647D02*
Y160647D01*
X203335Y160147D02*
X204335D01*
X197831Y159647D02*
Y160647D01*
X197331Y160147D02*
X198331D01*
X193548Y159647D02*
Y160647D01*
X193048Y160147D02*
X194048D01*
X187798Y159647D02*
Y160647D01*
X187298Y160147D02*
X188298D01*
X183642Y159647D02*
Y160647D01*
X183142Y160147D02*
X184142D01*
X169418Y47044D02*
Y48044D01*
X168918Y47544D02*
X169918D01*
X152027Y55753D02*
X153027D01*
X152527Y55253D02*
Y56253D01*
X149987Y55253D02*
Y56253D01*
X149487Y55753D02*
X150487D01*
X147447Y55253D02*
Y56253D01*
X146947Y55753D02*
X147947D01*
X216027Y161557D02*
Y162557D01*
X215527Y162057D02*
X216527D01*
X205994Y161552D02*
Y162552D01*
X205494Y162052D02*
X206494D01*
X195707Y161557D02*
Y162557D01*
X195207Y162057D02*
X196207D01*
X185674Y161557D02*
Y162557D01*
X185174Y162057D02*
X186174D01*
X211643Y127181D02*
X226443D01*
X211643Y114881D02*
Y127181D01*
Y114881D02*
X226443D01*
Y127181D01*
X205494Y54097D02*
X206494D01*
X205994Y53597D02*
Y54597D01*
X215527Y54097D02*
X216527D01*
X216027Y53597D02*
Y54597D01*
X195207Y54097D02*
X196207D01*
X195707Y53597D02*
Y54597D01*
X185174Y54097D02*
X186174D01*
X185674Y53597D02*
Y54597D01*
X211643Y94034D02*
X226443D01*
X211643Y81734D02*
Y94034D01*
Y81734D02*
X226443D01*
Y94034D01*
X172601Y150876D02*
X173601D01*
X173101Y150376D02*
Y151376D01*
X153932Y165689D02*
X154932D01*
X154432Y165189D02*
Y166189D01*
X133604Y162730D02*
Y163730D01*
X133104Y163230D02*
X134104D01*
X136144Y162730D02*
Y163730D01*
X135644Y163230D02*
X136644D01*
X141986Y162730D02*
Y163730D01*
X141486Y163230D02*
X142486D01*
X144526Y162730D02*
Y163730D01*
X144026Y163230D02*
X145026D01*
X153162Y168791D02*
Y169791D01*
X152662Y169291D02*
X153662D01*
X149987Y49471D02*
Y50471D01*
X149487Y49971D02*
X150487D01*
X147447Y49471D02*
Y50471D01*
X146947Y49971D02*
X147947D01*
X191897Y142826D02*
Y143826D01*
X191397Y143326D02*
X192397D01*
X191897Y150122D02*
Y151122D01*
X191397Y150622D02*
X192397D01*
X211311Y65176D02*
Y66176D01*
X210811Y65676D02*
X211811D01*
X211328Y72398D02*
Y73398D01*
X210828Y72898D02*
X211828D01*
X193048Y56007D02*
X194048D01*
X193548Y55507D02*
Y56507D01*
X213368Y56007D02*
X214368D01*
X213868Y55507D02*
Y56507D01*
X214638Y165735D02*
X215638D01*
X215138Y165235D02*
Y166235D01*
X206383Y165735D02*
X207383D01*
X206883Y165235D02*
Y166235D01*
X186063Y165897D02*
X187063D01*
X186563Y165397D02*
Y166397D01*
X112530Y61341D02*
X113530D01*
X113030Y60841D02*
Y61841D01*
X112470Y125222D02*
X113470D01*
X112970Y124722D02*
Y125722D01*
X112657Y93218D02*
X113657D01*
X113157Y92718D02*
Y93718D01*
X112530Y156972D02*
X113530D01*
X113030Y156472D02*
Y157472D01*
X209431Y82677D02*
X210431D01*
X209931Y82177D02*
Y83177D01*
X187714Y104013D02*
X188714D01*
X188214Y103513D02*
Y104513D01*
X215138Y50046D02*
Y51046D01*
X214638Y50546D02*
X215638D01*
X206883Y50011D02*
Y51011D01*
X206383Y50511D02*
X207383D01*
X186563Y49919D02*
Y50919D01*
X186063Y50419D02*
X187063D01*
X126873Y143899D02*
Y144899D01*
X126373Y144399D02*
X127373D01*
X126873Y127770D02*
Y128770D01*
X126373Y128270D02*
X127373D01*
X126873Y112022D02*
Y113022D01*
X126373Y112522D02*
X127373D01*
X126873Y95766D02*
Y96766D01*
X126373Y96266D02*
X127373D01*
X106688Y147828D02*
X107688D01*
X107188Y147328D02*
Y148328D01*
X101608Y67437D02*
X102608D01*
X102108Y66937D02*
Y67937D01*
X101446Y147828D02*
X102446D01*
X101946Y147328D02*
Y148328D01*
X101481Y52197D02*
X102481D01*
X101981Y51697D02*
Y52697D01*
X101573Y83947D02*
X102573D01*
X102073Y83447D02*
Y84447D01*
X101573Y99695D02*
X102573D01*
X102073Y99195D02*
Y100195D01*
X101481Y131699D02*
X102481D01*
X101981Y131199D02*
Y132199D01*
X101573Y115824D02*
X102573D01*
X102073Y115324D02*
Y116324D01*
D118*
X159470Y156254D02*
X166920D01*
Y161754D01*
X159470D02*
X166920D01*
X159470Y156254D02*
Y161754D01*
X166833Y163569D02*
Y165869D01*
X170733D01*
Y163569D02*
Y165869D01*
X166833Y163569D02*
X170733D01*
X175629D02*
Y165869D01*
X171729Y163569D02*
X175629D01*
X171729D02*
Y165869D01*
X175629D01*
X135205Y99822D02*
X138811Y103428D01*
X145211Y97028D01*
X141605Y93422D02*
X145211Y97028D01*
X135205Y99822D02*
X141605Y93422D01*
X213270Y72877D02*
X221070D01*
X213270Y79777D02*
X221070D01*
X213270Y72877D02*
Y79777D01*
X221070Y72877D02*
Y79777D01*
X219318Y44369D02*
Y50719D01*
X210958D02*
X219318D01*
X210958Y44369D02*
Y50719D01*
Y44369D02*
X219318D01*
X214638Y47544D02*
X215638D01*
X215138Y47044D02*
Y48044D01*
X211063Y44369D02*
Y50719D01*
X202703D02*
X211063D01*
X202703Y44369D02*
Y50719D01*
Y44369D02*
X211063D01*
X206383Y47544D02*
X207383D01*
X206883Y47044D02*
Y48044D01*
X190743Y44369D02*
Y50719D01*
X182383D02*
X190743D01*
X182383Y44369D02*
Y50719D01*
Y44369D02*
X190743D01*
X186063Y47544D02*
X187063D01*
X186563Y47044D02*
Y48044D01*
X198998Y44369D02*
Y50719D01*
X190638D02*
X198998D01*
X190638Y44369D02*
Y50719D01*
Y44369D02*
X198998D01*
X194318Y47544D02*
X195318D01*
X194818Y47044D02*
Y48044D01*
X164939Y144624D02*
X175929D01*
X164939Y141634D02*
Y144624D01*
Y141634D02*
X175929D01*
Y144624D01*
X176369Y141634D02*
X187359D01*
Y144624D01*
X176369D02*
X187359D01*
X176369Y141634D02*
Y144624D01*
X215138Y168237D02*
Y169237D01*
X214638Y168737D02*
X215638D01*
X210958Y171912D02*
X219318D01*
Y165562D02*
Y171912D01*
X210958Y165562D02*
X219318D01*
X210958D02*
Y171912D01*
X206883Y168237D02*
Y169237D01*
X206383Y168737D02*
X207383D01*
X202703Y171912D02*
X211063D01*
Y165562D02*
Y171912D01*
X202703Y165562D02*
X211063D01*
X202703D02*
Y171912D01*
X194818Y168283D02*
Y169283D01*
X194318Y168783D02*
X195318D01*
X190638Y171958D02*
X198998D01*
Y165608D02*
Y171958D01*
X190638Y165608D02*
X198998D01*
X190638D02*
Y171958D01*
X186563Y168283D02*
Y169283D01*
X186063Y168783D02*
X187063D01*
X182383Y171958D02*
X190743D01*
Y165608D02*
Y171958D01*
X182383Y165608D02*
X190743D01*
X182383D02*
Y171958D01*
X137806Y162560D02*
Y168910D01*
Y162560D02*
X146166D01*
Y168910D01*
X137806D02*
X146166D01*
X141486Y165735D02*
X142486D01*
X141986Y165235D02*
Y166235D01*
X129424Y162514D02*
Y168864D01*
Y162514D02*
X137784D01*
Y168864D01*
X129424D02*
X137784D01*
X133104Y165689D02*
X134104D01*
X133604Y165189D02*
Y166189D01*
%TF.MD5,46d626b9bcaaa93c274f1d79f01abd93*%
M02*
