M48
;Layer_Color=9474304
;FILE_FORMAT=4:4
METRIC,LZ
;TYPE=PLATED
T1F00S00C0.4000
T2F00S00C0.7000
T3F00S00C0.7620
T4F00S00C1.0000
T5F00S00C1.0160
T6F00S00C1.0200
T7F00S00C1.1000
T8F00S00C1.1430
T9F00S00C1.3000
T10F00S00C1.5240
T11F00S00C1.5494
T12F00S00C2.5400
T13F00S00C3.0000
;TYPE=NON_PLATED
T14F00S00C0.7620
%
T01
X0200152Y0063373
X02049431Y00739489
X01756759Y00731869
X01586579
X0140716Y0073152
X0142367Y007493
X0139065Y0077978
X0137033
X0126746Y0076327
X0124587Y0070993
X012192Y006858
X0119761Y0065278
X012192Y0052832
X0124587Y0055372
X0147447Y0052705
X0149987
X0152527
X0154432Y0054102
X011049Y0061341
X0111633Y006731
Y006858
X0101092Y0065659
X0101346Y0072263
X01010235Y00563245
X01009626Y0050419
X0101092Y008255
X01010185Y0088138
X01010236Y00981075
X01010185Y01040765
X0101092Y0114427
X0111633Y0100457
Y0099187
X0110617Y0093218
X0119761Y0097409
X0122682Y0100457
X0124587Y010287
X0122047Y0111506
X012192Y0116586
X0135128Y0113284
X0138938Y0114554
X0141351Y011557
X015621Y0113538
X0157099Y0111887
X0158115Y0112903
X0154813Y0110871
Y0097409
X0157734Y0096266
Y009525
X0151511Y0094361
X0148209Y0093726
X0146558Y0091567
X0145288Y0090805
X0139716Y0091567
X0144638Y0098552
X0148844Y0097536
X0145542Y0079375
X0122047
X012192Y0084709
X0121285Y0087249
X0167132Y0084201
X0166116Y009867
X0164592Y0098298
X0163068Y0098171
X0167879Y0100315
X0164846Y0110363
X0164465Y0117729
X0163703Y0118491
X0206121Y0085725
Y0084201
X02095151Y01422749
X0200152Y014224
X0196088Y0145923
X0165227Y0125095
X0163957
X0162941
X0161671
X0160528Y0129286
X0166624Y012192
X0167229Y012065
X0157861Y0127635
X0153543Y0129286
X0151765Y0125349
X0150368
X0149225
X0148082
X0146812
X0145684
Y0130429
X0144399Y0131318
X0143256Y0131445
X0141351Y0132207
X014351Y0134747
X0148082Y013716
X0150368Y013589
X0150495Y0147574
X0154559Y0158369
X0143256Y0157353
X013589Y0154178
X0124714Y015113
X012192Y014859
X0122047Y0143383
X012192Y0132461
X0119761Y0129286
X0128032Y01346583
X0129032Y0137033
X0134898Y0127635
X0126238Y0119126
X011049Y0125222
X0111633Y0131191
Y0132461
X0100965Y0130429
X01010385Y01360805
X01009565Y0146177
X0101052Y0152069
X011049Y0156972
X01010185Y0120015
X0101122Y01620831
X0101092Y0167894
X0111633Y0164338
Y0163068
X012192Y0164338
X0124714Y0166878
X0134874Y0159385
X0158496Y0159512
X0162941Y0167513
X0220218Y0165735
T02
X0203454Y0054102
X0205994
X0208534
X0213487
X0216027
X0218567
X0198247
X0195707
X0193167
X0188214
X0185674
X0183134
X0188209Y0101473
Y0104013
Y0106553
X0188214Y0162052
X0185674
X0183134
X0193167
X0195707
X0198247
X0203454Y0162047
X0205994
X0208534
X0213487Y0162052
X0216027
X0218567
T03
X0215646Y010287
Y010537
T04
X0204343Y0047244
X0206883
X0209423
X0212598
X0215138
X0217678
X0207518Y0064643
Y0067183
X018796
Y0064643
X0189103Y0047244
X0186563
X0184023
X0175768
X0173228
X0170688
X0168148
X0165608
X0163068
X0192278
X0194818
X0197358
X0133477Y0061341
X0104367
X0104394Y0093218
X0133504
X0207518Y0149098
Y0151638
X018796Y0151633
Y0149093
X0179451Y0151176
X0176911Y0151176
X0174371
X0171831
X0169291
X0166751Y0151176
X0133477Y0157022
Y0125222
X0104367
Y0157022
X0131064Y0165989
X0133604
X0136144
X0139446Y0166035
X0141986
X0144526
X0148082Y0165989
X0150622
X0153162
X0155702
X0158242
X0160782
X0184023Y0169083
X0186563
X0189103
X0192278
X0194818
X0197358
X0204343Y0169037
X0206883
X0209423
X0212598
X0215138
X0217678
T05
X0163957Y0065532
Y0070104
X017399
Y0065532
X018161
Y0070104
X0156337
Y0065532
X0146304
Y0070104
X0138684
Y0065532
X0199644Y0136271
X0202184
X0197104
T06
X0166624Y0143129
X0169164
X0171704
X0174244
X0178054
X0180594
X0183134
X0185674
T07
X0144907Y004699
X0147447
X0149987
X0152527
X0155067
T08
X0063881Y00508
Y005334
Y005588
X0074041
Y005334
Y00508
Y0066802
Y0069342
Y0071882
X0063881
Y0069342
Y0066802
Y0082804
Y0085344
Y0087884
X0074041
Y0085344
Y0082804
Y0098679
Y0101219
Y0103759
X0063881
Y0101219
Y0098679
Y0114808
Y0117348
X0074041Y0117221
Y0114681
Y0119761
X0063881Y0119888
Y0130683
Y0133223
Y0135763
X0074168
Y0133223
Y0130683
X0074041Y0146685
Y0149225
Y0151765
X0063881
Y0149225
Y0146685
Y016256
Y01651
Y016764
X0074041
Y01651
Y016256
T09
X0223393Y007374
Y007874
X0034679Y00637142
Y00587142
Y00900833
Y00950832
X0223393Y0096727
Y0101727
Y01067308
Y01117308
Y0129747
Y0134747
X0034671Y0127682
Y0122682
X0034679Y01545992
Y01595992
X0166243Y0164719
X0171243
X0176243
T10
X0156591Y0101092
X0199771Y013081
X0156591Y0121031
T11
X01946402Y0096901
X01947681Y01117308
X02166629
X0216535Y0096901
T12
X0094234Y005334
Y0069342
X0043688
Y005334
Y0085344
Y0101219
Y0117348
X0094234Y0117221
Y0101219
Y0085344
X0094361Y0133223
X0094234Y0149225
X0043688
Y0133223
Y01651
X0094234
T13
X0224663Y0047879
X0034798
Y016891
X0224663
T14
X0200787Y0047117
X0201549Y0058293
X0205994
X0216027
X0211328Y0069342
X019177
X0190627Y0058293
X0185674
X0195707
X018034Y0047117
X012954Y0054483
X0126873Y0052578
Y0068453
X0112395Y0073279
X0109474Y0075057
X010922Y0078994
X0105537Y007112
X010541Y0067056
X0105283Y0055372
X0111633Y0052197
X0114808Y0049149
X0109474Y0047371
X0068199Y0061341
Y0093218
X0105664Y0086995
X0111633Y0084201
X0114808Y0081026
X01127465Y01062642
X0109474Y0107188
Y0110998
X0111633Y0115951
X0114808Y0113284
X0104902Y0118618
X0105664Y0102489
Y0099568
X0126873Y0100203
Y0084328
X012954Y0086106
X0129413Y0118237
X0126873Y0116459
X0193548Y0107061
X0193675Y01016
X0211582Y0146812
X0211074Y0157734
X0216027Y0157861
X0205994
X01957896Y01579054
X0190754Y0157607
X0185801Y0157861
X01918335Y01469739
X012954Y0150114
X0126873Y0148463
Y0132334
X0112395Y0137414
X0109474Y0138684
Y0142494
X0111379Y0147955
X0114681Y0144907
X0105156Y015113
X0105283Y0134747
Y0131699
X0068199Y0125222
Y0157099
X0105283Y0163576
Y0166624
X0109474Y0170307
X0112395Y0169291
X0126873Y0164465
X0180594Y0169164
X0200914Y0169037
M30
