%TF.GenerationSoftware,Altium Limited,Altium Designer,21.6.4 (81)*%
G04 Layer_Color=32768*
%FSLAX43Y43*%
%MOMM*%
%TF.SameCoordinates,5D8205C6-A8A5-4108-8313-488A8EE5113E*%
%TF.FilePolarity,Positive*%
%TF.FileFunction,Other,Bottom_Courtyard*%
%TF.Part,Single*%
G01*
G75*
%TA.AperFunction,NonConductor*%
%ADD82C,0.200*%
D82*
X69384Y49175D02*
X74864D01*
X69384Y46075D02*
Y49175D01*
Y46075D02*
X74864D01*
Y49175D01*
X69511Y60478D02*
X74991D01*
X69511Y57378D02*
Y60478D01*
Y57378D02*
X74991D01*
Y60478D01*
X69511Y65177D02*
X74991D01*
X69511Y62077D02*
Y65177D01*
Y62077D02*
X74991D01*
Y65177D01*
X69384Y81179D02*
X74864D01*
X69384Y78079D02*
Y81179D01*
Y78079D02*
X74864D01*
Y81179D01*
X69511Y92609D02*
X74991D01*
X69511Y89509D02*
Y92609D01*
Y89509D02*
X74991D01*
Y92609D01*
X69511Y97054D02*
X74991D01*
X69511Y93954D02*
Y97054D01*
Y93954D02*
X74991D01*
Y97054D01*
X69511Y108484D02*
X74991D01*
X69511Y105384D02*
Y108484D01*
Y105384D02*
X74991D01*
Y108484D01*
X69523Y112929D02*
X75003D01*
X69523Y109829D02*
Y112929D01*
Y109829D02*
X75003D01*
Y112929D01*
X69650Y124486D02*
X75130D01*
X69650Y121386D02*
Y124486D01*
Y121386D02*
X75130D01*
Y124486D01*
X69523Y128931D02*
X75003D01*
X69523Y125831D02*
Y128931D01*
Y125831D02*
X75003D01*
Y128931D01*
X69396Y140488D02*
X74876D01*
X69396Y137388D02*
Y140488D01*
Y137388D02*
X74876D01*
Y140488D01*
X69384Y145060D02*
X74864D01*
X69384Y141960D02*
Y145060D01*
Y141960D02*
X74864D01*
Y145060D01*
X69523Y156490D02*
X75003D01*
X69523Y153390D02*
Y156490D01*
Y153390D02*
X75003D01*
Y156490D01*
X69523Y160935D02*
X75003D01*
X69523Y157835D02*
Y160935D01*
Y157835D02*
X75003D01*
Y160935D01*
X69523Y172238D02*
X75003D01*
X69523Y169138D02*
Y172238D01*
Y169138D02*
X75003D01*
Y172238D01*
X69523Y76607D02*
X75003D01*
X69523Y73507D02*
Y76607D01*
Y73507D02*
X75003D01*
Y76607D01*
X105470Y79672D02*
Y81872D01*
X100270Y79672D02*
X105470D01*
X100270D02*
Y81872D01*
X105470D01*
X105343Y89070D02*
Y91270D01*
X100143Y89070D02*
X105343D01*
X100143D02*
Y91270D01*
X105343D01*
X105567Y152570D02*
Y154770D01*
X100367Y152570D02*
X105567D01*
X100367D02*
Y154770D01*
X105567D01*
X122317Y157993D02*
X124825D01*
X122317D02*
Y162301D01*
X124825D01*
Y157993D02*
Y162301D01*
X122317Y78364D02*
X124825D01*
X122317D02*
Y82672D01*
X124825D01*
Y78364D02*
Y82672D01*
X122317Y62235D02*
X124825D01*
X122317D02*
Y66543D01*
X124825D01*
Y62235D02*
Y66543D01*
X122317Y46487D02*
X124825D01*
X122317D02*
Y50795D01*
X124825D01*
Y46487D02*
Y50795D01*
X121364Y56225D02*
Y59345D01*
X128064D01*
Y56225D02*
Y59345D01*
X121364Y56225D02*
X128064D01*
X121364Y71846D02*
Y74966D01*
X128064D01*
Y71846D02*
Y74966D01*
X121364Y71846D02*
X128064D01*
X121364Y88356D02*
Y91476D01*
X128064D01*
Y88356D02*
Y91476D01*
X121364Y88356D02*
X128064D01*
X121364Y103469D02*
Y106589D01*
X128064D01*
Y103469D02*
Y106589D01*
X121364Y103469D02*
X128064D01*
X121364Y119979D02*
Y123099D01*
X128064D01*
Y119979D02*
Y123099D01*
X121364Y119979D02*
X128064D01*
X121364Y135600D02*
Y138720D01*
X128064D01*
Y135600D02*
Y138720D01*
X121364Y135600D02*
X128064D01*
X121237Y152110D02*
Y155230D01*
X127937D01*
Y152110D02*
Y155230D01*
X121237Y152110D02*
X127937D01*
X121332Y167731D02*
Y170851D01*
X128032D01*
Y167731D02*
Y170851D01*
X121332Y167731D02*
X128032D01*
X116446Y170724D02*
X117996D01*
Y168112D02*
Y170724D01*
X116446Y168112D02*
X117996D01*
X116446D02*
Y170724D01*
X116319Y155195D02*
X117869D01*
Y152583D02*
Y155195D01*
X116319Y152583D02*
X117869D01*
X116319D02*
Y155195D01*
X116446Y139066D02*
X117996D01*
Y136454D02*
Y139066D01*
X116446Y136454D02*
X117996D01*
X116446D02*
Y139066D01*
Y123445D02*
X117996D01*
Y120833D02*
Y123445D01*
X116446Y120833D02*
X117996D01*
X116446D02*
Y123445D01*
Y106843D02*
X117996D01*
Y104231D02*
Y106843D01*
X116446Y104231D02*
X117996D01*
X116446D02*
Y106843D01*
Y91222D02*
X117996D01*
Y88610D02*
Y91222D01*
X116446Y88610D02*
X117996D01*
X116446D02*
Y91222D01*
Y59218D02*
X117996D01*
Y56606D02*
Y59218D01*
X116446Y56606D02*
X117996D01*
X116446D02*
Y59218D01*
X111074Y54597D02*
Y56147D01*
X107874Y54597D02*
X111074D01*
X107874D02*
Y56147D01*
X111074D01*
X110439Y69964D02*
Y71514D01*
X107239Y69964D02*
X110439D01*
X107239D02*
Y71514D01*
X110439D01*
X111201Y85966D02*
Y87516D01*
X108001Y85966D02*
X111201D01*
X108001D02*
Y87516D01*
X111201D01*
X111074Y101714D02*
Y103264D01*
X107874Y101714D02*
X111074D01*
X107874D02*
Y103264D01*
X111074D01*
X110439Y117589D02*
Y119139D01*
X107239Y117589D02*
X110439D01*
X107239D02*
Y119139D01*
X110439D01*
X110278Y133972D02*
Y135522D01*
X107078Y133972D02*
X110278D01*
X107078D02*
Y135522D01*
X110278D01*
X110185Y150355D02*
Y151905D01*
X106985Y150355D02*
X110185D01*
X106985D02*
Y151905D01*
X110185D01*
X105500Y168572D02*
Y170772D01*
X100300Y168572D02*
X105500D01*
X100300D02*
Y170772D01*
X105500D01*
X103160Y165722D02*
Y167272D01*
X100548Y165722D02*
X103160D01*
X100548D02*
Y167272D01*
X103160D01*
X103247Y149847D02*
Y151397D01*
X100635Y149847D02*
X103247D01*
X100635D02*
Y151397D01*
X103247D01*
X105470Y143426D02*
Y145626D01*
X100270Y143426D02*
X105470D01*
X100270D02*
Y145626D01*
X105470D01*
X105500Y136695D02*
Y138895D01*
X100300Y136695D02*
X105500D01*
X100300D02*
Y138895D01*
X105500D01*
X105470Y127424D02*
Y129624D01*
X100270Y127424D02*
X105470D01*
X100270D02*
Y129624D01*
X105470D01*
X103160Y133591D02*
Y135141D01*
X100548Y133591D02*
X103160D01*
X100548D02*
Y135141D01*
X103160D01*
X105500Y111422D02*
Y113622D01*
X100300Y111422D02*
X105500D01*
X100300D02*
Y113622D01*
X105500D01*
Y120566D02*
Y122766D01*
X100300Y120566D02*
X105500D01*
X100300D02*
Y122766D01*
X105500D01*
X103120Y117589D02*
Y119139D01*
X100508Y117589D02*
X103120D01*
X100508D02*
Y119139D01*
X103120D01*
X105500Y95420D02*
Y97620D01*
X100300Y95420D02*
X105500D01*
X100300D02*
Y97620D01*
X105500D01*
Y104564D02*
Y106764D01*
X100300Y104564D02*
X105500D01*
X100300D02*
Y106764D01*
X105500D01*
X103120Y101714D02*
Y103264D01*
X100508Y101714D02*
X103120D01*
X100508D02*
Y103264D01*
X103120D01*
X105597Y62781D02*
Y64981D01*
X100397Y62781D02*
X105597D01*
X100397D02*
Y64981D01*
X105597D01*
X105470Y56812D02*
Y59012D01*
X100270Y56812D02*
X105470D01*
X100270D02*
Y59012D01*
X105470D01*
X103160Y53962D02*
Y55512D01*
X100548Y53962D02*
X103160D01*
X100548D02*
Y55512D01*
X103160D01*
X141284Y101735D02*
X143264Y99755D01*
X144466Y100957D01*
X142486Y102937D02*
X144466Y100957D01*
X141284Y101735D02*
X142486Y102937D01*
X162620Y102608D02*
X163822Y101406D01*
X162620Y102608D02*
X164600Y104588D01*
X165802Y103386D01*
X163822Y101406D02*
X165802Y103386D01*
X158893Y69982D02*
X161401D01*
X158893D02*
Y74290D01*
X161401D01*
Y69982D02*
Y74290D01*
X176395Y64395D02*
X178951D01*
X176395D02*
Y68701D01*
X178951D01*
Y64395D02*
Y68701D01*
X141089Y64268D02*
X143645D01*
X141089D02*
Y68574D01*
X143645D01*
Y64268D02*
Y68574D01*
X158869Y64395D02*
X161425D01*
X158869D02*
Y68701D01*
X161425D01*
Y64395D02*
Y68701D01*
X185679Y54753D02*
Y57261D01*
X189987D01*
Y54753D02*
Y57261D01*
X185679Y54753D02*
X189987D01*
X219758Y80877D02*
Y84477D01*
X213058Y80877D02*
X219758D01*
X213058D02*
Y84477D01*
X219758D01*
X209617Y85387D02*
Y87587D01*
X214817D01*
Y85387D02*
Y87587D01*
X209617Y85387D02*
X214817D01*
X143621Y69947D02*
Y74255D01*
X141113D02*
X143621D01*
X141113Y69947D02*
Y74255D01*
Y69947D02*
X143621D01*
X178927Y69982D02*
Y74290D01*
X176419D02*
X178927D01*
X176419Y69982D02*
Y74290D01*
Y69982D02*
X178927D01*
X193564Y167889D02*
X196072D01*
Y163581D02*
Y167889D01*
X193564Y163581D02*
X196072D01*
X193564D02*
Y167889D01*
X196072Y48265D02*
Y52573D01*
X193564D02*
X196072D01*
X193564Y48265D02*
Y52573D01*
Y48265D02*
X196072D01*
X124825Y142245D02*
Y146553D01*
X122317D02*
X124825D01*
X122317Y142245D02*
Y146553D01*
Y142245D02*
X124825D01*
Y126116D02*
Y130424D01*
X122317D02*
X124825D01*
X122317Y126116D02*
Y130424D01*
Y126116D02*
X124825D01*
Y110368D02*
Y114676D01*
X122317D02*
X124825D01*
X122317Y110368D02*
Y114676D01*
Y110368D02*
X124825D01*
Y94112D02*
Y98420D01*
X122317D02*
X124825D01*
X122317Y94112D02*
Y98420D01*
Y94112D02*
X124825D01*
X116446Y72446D02*
Y75058D01*
Y72446D02*
X117996D01*
Y75058D01*
X116446D02*
X117996D01*
X106985Y167018D02*
X110185D01*
X106985Y165468D02*
Y167018D01*
Y165468D02*
X110185D01*
Y167018D01*
X100524Y75141D02*
X105724D01*
X100524Y72941D02*
Y75141D01*
Y72941D02*
X105724D01*
Y75141D01*
X100802Y71260D02*
X103414D01*
X100802Y69710D02*
Y71260D01*
Y69710D02*
X103414D01*
Y71260D01*
X100270Y49741D02*
X105470D01*
X100270Y47541D02*
Y49741D01*
Y47541D02*
X105470D01*
Y49741D01*
X100508Y87262D02*
X103120D01*
X100508Y85712D02*
Y87262D01*
Y85712D02*
X103120D01*
Y87262D01*
X100300Y161501D02*
X105500D01*
X100300Y159301D02*
Y161501D01*
Y159301D02*
X105500D01*
Y161501D01*
%TF.MD5,f91a7328f8a9c4d1af1938bb76778147*%
M02*
