%TF.GenerationSoftware,Altium Limited,Altium Designer,21.6.4 (81)*%
G04 Layer_Color=8388736*
%FSLAX43Y43*%
%MOMM*%
%TF.SameCoordinates,5D8205C6-A8A5-4108-8313-488A8EE5113E*%
%TF.FilePolarity,Positive*%
%TF.FileFunction,Other,Top_Assembly*%
%TF.Part,Single*%
G01*
G75*
%TA.AperFunction,NonConductor*%
%ADD82C,0.200*%
%ADD83C,0.150*%
%ADD117C,0.100*%
G36*
X117135Y157021D02*
X117142Y157020D01*
X117148Y157020D01*
X117157Y157019D01*
X117166Y157017D01*
X117185Y157012D01*
X117206Y157005D01*
X117216Y157000D01*
X117226Y156994D01*
X117236Y156988D01*
X117245Y156980D01*
X117246Y156980D01*
X117247Y156979D01*
X117249Y156976D01*
X117252Y156973D01*
X117257Y156969D01*
X117261Y156963D01*
X117265Y156957D01*
X117270Y156950D01*
X117275Y156942D01*
X117280Y156934D01*
X117284Y156924D01*
X117289Y156913D01*
X117293Y156902D01*
X117297Y156890D01*
X117299Y156877D01*
X117302Y156863D01*
X117226Y156857D01*
Y156858D01*
X117225Y156860D01*
Y156862D01*
X117224Y156865D01*
X117222Y156875D01*
X117217Y156886D01*
X117213Y156900D01*
X117207Y156912D01*
X117199Y156924D01*
X117190Y156934D01*
X117188Y156935D01*
X117185Y156937D01*
X117179Y156941D01*
X117171Y156945D01*
X117161Y156950D01*
X117149Y156954D01*
X117135Y156956D01*
X117120Y156957D01*
X117114D01*
X117107Y156956D01*
X117098Y156955D01*
X117089Y156953D01*
X117078Y156950D01*
X117067Y156946D01*
X117057Y156941D01*
X117056Y156940D01*
X117052Y156938D01*
X117047Y156935D01*
X117041Y156930D01*
X117033Y156923D01*
X117026Y156915D01*
X117018Y156907D01*
X117012Y156897D01*
X117011Y156895D01*
X117008Y156892D01*
X117006Y156885D01*
X117002Y156877D01*
X116997Y156866D01*
X116992Y156854D01*
X116987Y156839D01*
X116983Y156822D01*
Y156821D01*
X116982Y156820D01*
Y156817D01*
X116981Y156814D01*
X116980Y156810D01*
X116979Y156805D01*
X116977Y156792D01*
X116974Y156778D01*
X116973Y156761D01*
X116972Y156744D01*
X116971Y156725D01*
Y156725D01*
Y156721D01*
Y156716D01*
Y156710D01*
X116972Y156711D01*
X116975Y156715D01*
X116981Y156723D01*
X116988Y156731D01*
X116998Y156741D01*
X117008Y156751D01*
X117022Y156761D01*
X117036Y156770D01*
X117037D01*
X117037Y156771D01*
X117040Y156773D01*
X117043Y156774D01*
X117051Y156778D01*
X117062Y156782D01*
X117075Y156786D01*
X117090Y156790D01*
X117107Y156793D01*
X117124Y156794D01*
X117132D01*
X117137Y156793D01*
X117144Y156792D01*
X117152Y156790D01*
X117161Y156789D01*
X117171Y156786D01*
X117181Y156784D01*
X117192Y156780D01*
X117202Y156775D01*
X117214Y156770D01*
X117226Y156763D01*
X117237Y156755D01*
X117247Y156746D01*
X117258Y156736D01*
X117259Y156735D01*
X117261Y156734D01*
X117263Y156730D01*
X117267Y156725D01*
X117271Y156720D01*
X117276Y156713D01*
X117281Y156705D01*
X117286Y156695D01*
X117291Y156685D01*
X117296Y156674D01*
X117301Y156661D01*
X117305Y156648D01*
X117308Y156634D01*
X117311Y156618D01*
X117312Y156602D01*
X117313Y156585D01*
Y156584D01*
Y156580D01*
Y156575D01*
X117312Y156569D01*
X117312Y156560D01*
X117310Y156550D01*
X117308Y156540D01*
X117306Y156529D01*
X117299Y156504D01*
X117295Y156490D01*
X117289Y156477D01*
X117282Y156465D01*
X117275Y156451D01*
X117267Y156440D01*
X117257Y156428D01*
X117256Y156427D01*
X117254Y156426D01*
X117251Y156422D01*
X117247Y156419D01*
X117241Y156414D01*
X117234Y156409D01*
X117226Y156404D01*
X117217Y156398D01*
X117207Y156392D01*
X117196Y156387D01*
X117184Y156382D01*
X117172Y156377D01*
X117158Y156374D01*
X117143Y156371D01*
X117128Y156369D01*
X117112Y156368D01*
X117107D01*
X117102Y156369D01*
X117097D01*
X117090Y156370D01*
X117075Y156372D01*
X117057Y156376D01*
X117038Y156382D01*
X117018Y156391D01*
X116998Y156402D01*
X116998D01*
X116996Y156404D01*
X116993Y156406D01*
X116990Y156408D01*
X116981Y156416D01*
X116969Y156426D01*
X116957Y156440D01*
X116943Y156456D01*
X116931Y156475D01*
X116920Y156498D01*
Y156499D01*
X116919Y156500D01*
X116918Y156505D01*
X116916Y156510D01*
X116913Y156516D01*
X116912Y156524D01*
X116909Y156533D01*
X116906Y156544D01*
X116903Y156556D01*
X116901Y156570D01*
X116899Y156584D01*
X116897Y156600D01*
X116895Y156618D01*
X116893Y156636D01*
X116893Y156656D01*
Y156678D01*
Y156680D01*
Y156683D01*
Y156690D01*
Y156698D01*
X116893Y156709D01*
X116894Y156720D01*
X116895Y156734D01*
X116896Y156749D01*
X116898Y156764D01*
X116899Y156780D01*
X116903Y156813D01*
X116910Y156845D01*
X116914Y156860D01*
X116919Y156874D01*
Y156875D01*
X116920Y156877D01*
X116922Y156880D01*
X116924Y156885D01*
X116927Y156892D01*
X116930Y156899D01*
X116939Y156915D01*
X116950Y156933D01*
X116964Y156951D01*
X116980Y156969D01*
X116999Y156985D01*
X117000D01*
X117002Y156986D01*
X117004Y156988D01*
X117008Y156990D01*
X117013Y156993D01*
X117019Y156996D01*
X117027Y157000D01*
X117034Y157003D01*
X117052Y157010D01*
X117073Y157016D01*
X117097Y157020D01*
X117109Y157021D01*
X117122Y157022D01*
X117130D01*
X117135Y157021D01*
D02*
G37*
G36*
X118922Y156371D02*
X118624D01*
X118616Y156371D01*
X118609D01*
X118600Y156372D01*
X118590Y156373D01*
X118569Y156375D01*
X118547Y156378D01*
X118526Y156382D01*
X118516Y156385D01*
X118508Y156388D01*
X118507D01*
X118506Y156389D01*
X118504Y156390D01*
X118500Y156391D01*
X118492Y156396D01*
X118482Y156402D01*
X118470Y156411D01*
X118459Y156421D01*
X118447Y156435D01*
X118436Y156450D01*
Y156450D01*
X118435Y156451D01*
X118434Y156454D01*
X118432Y156457D01*
X118428Y156466D01*
X118423Y156478D01*
X118418Y156492D01*
X118414Y156509D01*
X118410Y156527D01*
X118410Y156546D01*
Y156547D01*
Y156550D01*
Y156553D01*
X118410Y156558D01*
X118411Y156564D01*
X118412Y156570D01*
X118415Y156586D01*
X118420Y156605D01*
X118428Y156624D01*
X118433Y156633D01*
X118439Y156643D01*
X118446Y156652D01*
X118454Y156661D01*
X118455Y156662D01*
X118455Y156663D01*
X118459Y156665D01*
X118462Y156669D01*
X118467Y156672D01*
X118473Y156676D01*
X118480Y156681D01*
X118487Y156686D01*
X118496Y156691D01*
X118506Y156696D01*
X118518Y156701D01*
X118530Y156706D01*
X118544Y156710D01*
X118558Y156715D01*
X118574Y156718D01*
X118590Y156720D01*
X118589Y156721D01*
X118585Y156723D01*
X118579Y156726D01*
X118571Y156730D01*
X118555Y156741D01*
X118547Y156747D01*
X118540Y156753D01*
X118539D01*
X118538Y156755D01*
X118533Y156759D01*
X118526Y156766D01*
X118516Y156776D01*
X118505Y156788D01*
X118494Y156803D01*
X118481Y156820D01*
X118469Y156838D01*
X118358Y157011D01*
X118465D01*
X118549Y156879D01*
Y156878D01*
X118550Y156876D01*
X118552Y156873D01*
X118555Y156870D01*
X118558Y156865D01*
X118562Y156859D01*
X118570Y156846D01*
X118580Y156832D01*
X118590Y156818D01*
X118600Y156804D01*
X118610Y156791D01*
X118611Y156790D01*
X118615Y156786D01*
X118619Y156780D01*
X118625Y156775D01*
X118631Y156767D01*
X118639Y156760D01*
X118646Y156754D01*
X118654Y156748D01*
X118655Y156747D01*
X118657Y156746D01*
X118660Y156744D01*
X118665Y156741D01*
X118671Y156738D01*
X118678Y156735D01*
X118692Y156730D01*
X118693D01*
X118695Y156730D01*
X118698D01*
X118703Y156729D01*
X118710Y156728D01*
X118718D01*
X118727Y156727D01*
X118837D01*
Y157011D01*
X118922D01*
Y156371D01*
D02*
G37*
G36*
X118091Y156510D02*
X118092Y156511D01*
X118096Y156515D01*
X118102Y156520D01*
X118111Y156527D01*
X118121Y156535D01*
X118135Y156545D01*
X118149Y156555D01*
X118166Y156565D01*
X118166D01*
X118167Y156565D01*
X118170Y156567D01*
X118173Y156569D01*
X118182Y156574D01*
X118193Y156580D01*
X118206Y156586D01*
X118220Y156593D01*
X118234Y156600D01*
X118248Y156605D01*
Y156529D01*
X118247D01*
X118245Y156527D01*
X118241Y156525D01*
X118237Y156523D01*
X118231Y156520D01*
X118225Y156516D01*
X118209Y156508D01*
X118191Y156497D01*
X118171Y156484D01*
X118152Y156470D01*
X118133Y156454D01*
X118132Y156453D01*
X118131Y156452D01*
X118128Y156450D01*
X118125Y156446D01*
X118116Y156438D01*
X118106Y156426D01*
X118095Y156414D01*
X118083Y156399D01*
X118072Y156384D01*
X118063Y156368D01*
X118012D01*
Y157011D01*
X118091D01*
Y156510D01*
D02*
G37*
G36*
X117612Y157021D02*
X117617D01*
X117626Y157020D01*
X117634Y157019D01*
X117644Y157016D01*
X117655Y157014D01*
X117666Y157010D01*
X117678Y157006D01*
X117691Y157000D01*
X117703Y156995D01*
X117715Y156987D01*
X117726Y156978D01*
X117737Y156968D01*
X117748Y156956D01*
X117749Y156955D01*
X117751Y156952D01*
X117754Y156948D01*
X117758Y156941D01*
X117762Y156932D01*
X117768Y156921D01*
X117773Y156909D01*
X117779Y156894D01*
X117785Y156876D01*
X117791Y156857D01*
X117796Y156836D01*
X117801Y156812D01*
X117805Y156786D01*
X117808Y156759D01*
X117810Y156728D01*
X117811Y156695D01*
Y156694D01*
Y156690D01*
Y156685D01*
Y156676D01*
X117810Y156667D01*
X117809Y156656D01*
Y156644D01*
X117807Y156630D01*
X117805Y156601D01*
X117801Y156570D01*
X117795Y156540D01*
X117791Y156526D01*
X117787Y156513D01*
Y156512D01*
X117786Y156510D01*
X117785Y156506D01*
X117783Y156501D01*
X117781Y156495D01*
X117777Y156489D01*
X117770Y156473D01*
X117760Y156456D01*
X117748Y156438D01*
X117734Y156421D01*
X117718Y156406D01*
X117717Y156405D01*
X117716Y156404D01*
X117713Y156402D01*
X117710Y156400D01*
X117706Y156397D01*
X117700Y156394D01*
X117694Y156391D01*
X117687Y156386D01*
X117670Y156380D01*
X117650Y156374D01*
X117627Y156370D01*
X117615Y156368D01*
X117594D01*
X117589Y156369D01*
X117584D01*
X117572Y156371D01*
X117557Y156373D01*
X117542Y156377D01*
X117527Y156382D01*
X117512Y156389D01*
X117511D01*
X117510Y156390D01*
X117505Y156393D01*
X117498Y156397D01*
X117489Y156404D01*
X117479Y156413D01*
X117468Y156423D01*
X117457Y156435D01*
X117447Y156449D01*
Y156450D01*
X117447Y156450D01*
X117445Y156453D01*
X117443Y156455D01*
X117439Y156464D01*
X117433Y156475D01*
X117427Y156490D01*
X117420Y156505D01*
X117414Y156525D01*
X117408Y156545D01*
Y156545D01*
X117407Y156547D01*
X117407Y156550D01*
X117406Y156555D01*
X117405Y156560D01*
X117403Y156567D01*
X117402Y156575D01*
X117401Y156585D01*
X117399Y156595D01*
X117398Y156606D01*
X117397Y156618D01*
X117396Y156632D01*
X117395Y156646D01*
X117394Y156661D01*
X117393Y156678D01*
Y156695D01*
Y156697D01*
Y156700D01*
Y156706D01*
Y156715D01*
X117394Y156724D01*
Y156735D01*
X117395Y156747D01*
X117396Y156760D01*
X117399Y156790D01*
X117403Y156820D01*
X117409Y156850D01*
X117412Y156865D01*
X117417Y156878D01*
Y156879D01*
X117417Y156881D01*
X117419Y156885D01*
X117421Y156890D01*
X117423Y156895D01*
X117427Y156902D01*
X117434Y156917D01*
X117444Y156935D01*
X117456Y156952D01*
X117470Y156970D01*
X117487Y156985D01*
X117487D01*
X117488Y156986D01*
X117492Y156988D01*
X117495Y156990D01*
X117499Y156993D01*
X117505Y156996D01*
X117511Y157000D01*
X117518Y157003D01*
X117535Y157010D01*
X117555Y157016D01*
X117577Y157020D01*
X117590Y157021D01*
X117602Y157022D01*
X117607D01*
X117612Y157021D01*
D02*
G37*
G36*
X213966Y77082D02*
X213976D01*
X213986Y77081D01*
X213996Y77080D01*
X214009Y77078D01*
X214022Y77076D01*
X214036Y77074D01*
X214066Y77067D01*
X214095Y77058D01*
X214110Y77052D01*
X214124Y77046D01*
X214125Y77045D01*
X214127Y77044D01*
X214131Y77041D01*
X214136Y77038D01*
X214142Y77035D01*
X214150Y77030D01*
X214157Y77024D01*
X214166Y77017D01*
X214185Y77002D01*
X214203Y76983D01*
X214221Y76961D01*
X214230Y76949D01*
X214237Y76936D01*
X214238Y76936D01*
X214239Y76933D01*
X214240Y76929D01*
X214243Y76924D01*
X214246Y76917D01*
X214250Y76910D01*
X214253Y76901D01*
X214257Y76891D01*
X214260Y76879D01*
X214264Y76867D01*
X214270Y76841D01*
X214275Y76811D01*
X214276Y76796D01*
Y76771D01*
X214275Y76765D01*
X214275Y76756D01*
X214274Y76746D01*
X214272Y76736D01*
X214270Y76724D01*
X214265Y76699D01*
X214260Y76686D01*
X214255Y76671D01*
X214250Y76658D01*
X214244Y76645D01*
X214235Y76631D01*
X214227Y76619D01*
X214226Y76618D01*
X214225Y76616D01*
X214222Y76612D01*
X214218Y76608D01*
X214213Y76603D01*
X214207Y76596D01*
X214200Y76590D01*
X214191Y76582D01*
X214182Y76575D01*
X214172Y76567D01*
X214161Y76560D01*
X214149Y76552D01*
X214136Y76545D01*
X214121Y76538D01*
X214106Y76531D01*
X214090Y76526D01*
X214070Y76610D01*
X214071D01*
X214073Y76611D01*
X214076Y76612D01*
X214081Y76614D01*
X214087Y76616D01*
X214094Y76619D01*
X214109Y76626D01*
X214126Y76636D01*
X214142Y76646D01*
X214158Y76660D01*
X214165Y76667D01*
X214171Y76675D01*
Y76676D01*
X214173Y76676D01*
X214175Y76679D01*
X214176Y76682D01*
X214179Y76686D01*
X214181Y76691D01*
X214188Y76704D01*
X214194Y76720D01*
X214199Y76738D01*
X214202Y76759D01*
X214204Y76782D01*
Y76790D01*
X214203Y76795D01*
Y76801D01*
X214202Y76808D01*
X214201Y76816D01*
X214200Y76826D01*
X214196Y76845D01*
X214189Y76866D01*
X214180Y76886D01*
X214175Y76896D01*
X214168Y76906D01*
Y76907D01*
X214166Y76909D01*
X214165Y76911D01*
X214161Y76915D01*
X214154Y76923D01*
X214143Y76933D01*
X214130Y76945D01*
X214113Y76956D01*
X214095Y76967D01*
X214073Y76976D01*
X214072D01*
X214071Y76976D01*
X214067Y76977D01*
X214063Y76979D01*
X214057Y76981D01*
X214051Y76982D01*
X214043Y76984D01*
X214036Y76986D01*
X214016Y76989D01*
X213996Y76992D01*
X213973Y76995D01*
X213950Y76996D01*
X213949D01*
X213946D01*
X213942D01*
X213936D01*
X213929Y76995D01*
X213921Y76994D01*
X213911D01*
X213901Y76992D01*
X213879Y76990D01*
X213856Y76986D01*
X213831Y76980D01*
X213807Y76972D01*
X213806D01*
X213805Y76971D01*
X213801Y76970D01*
X213797Y76967D01*
X213792Y76965D01*
X213786Y76962D01*
X213773Y76954D01*
X213758Y76943D01*
X213743Y76931D01*
X213729Y76916D01*
X213716Y76898D01*
Y76897D01*
X213715Y76896D01*
X213714Y76893D01*
X213711Y76889D01*
X213710Y76885D01*
X213707Y76879D01*
X213701Y76866D01*
X213696Y76849D01*
X213691Y76831D01*
X213688Y76811D01*
X213686Y76789D01*
Y76782D01*
X213687Y76777D01*
X213688Y76771D01*
X213689Y76764D01*
X213690Y76756D01*
X213691Y76747D01*
X213696Y76728D01*
X213704Y76708D01*
X213708Y76697D01*
X213714Y76687D01*
X213720Y76677D01*
X213727Y76668D01*
X213728Y76667D01*
X213729Y76666D01*
X213731Y76663D01*
X213735Y76660D01*
X213739Y76656D01*
X213745Y76651D01*
X213751Y76646D01*
X213758Y76641D01*
X213766Y76636D01*
X213775Y76630D01*
X213785Y76625D01*
X213796Y76619D01*
X213808Y76614D01*
X213821Y76609D01*
X213834Y76605D01*
X213849Y76601D01*
X213827Y76516D01*
X213826D01*
X213823Y76517D01*
X213817Y76519D01*
X213810Y76521D01*
X213801Y76524D01*
X213791Y76528D01*
X213781Y76532D01*
X213768Y76538D01*
X213756Y76544D01*
X213742Y76551D01*
X213730Y76559D01*
X213716Y76568D01*
X213703Y76577D01*
X213691Y76588D01*
X213679Y76600D01*
X213668Y76612D01*
X213667Y76613D01*
X213666Y76616D01*
X213663Y76619D01*
X213660Y76625D01*
X213656Y76631D01*
X213651Y76640D01*
X213646Y76649D01*
X213641Y76659D01*
X213636Y76671D01*
X213631Y76684D01*
X213626Y76698D01*
X213622Y76713D01*
X213619Y76729D01*
X213616Y76746D01*
X213615Y76763D01*
X213614Y76781D01*
Y76791D01*
X213615Y76799D01*
X213616Y76807D01*
X213616Y76818D01*
X213617Y76829D01*
X213619Y76841D01*
X213624Y76868D01*
X213631Y76896D01*
X213636Y76911D01*
X213642Y76925D01*
X213648Y76938D01*
X213656Y76951D01*
X213656Y76951D01*
X213657Y76953D01*
X213660Y76956D01*
X213664Y76961D01*
X213668Y76966D01*
X213673Y76973D01*
X213680Y76980D01*
X213687Y76987D01*
X213695Y76996D01*
X213704Y77003D01*
X213714Y77011D01*
X213726Y77020D01*
X213737Y77028D01*
X213750Y77036D01*
X213764Y77043D01*
X213778Y77050D01*
X213779D01*
X213781Y77051D01*
X213786Y77053D01*
X213792Y77055D01*
X213800Y77057D01*
X213808Y77061D01*
X213818Y77063D01*
X213830Y77066D01*
X213842Y77070D01*
X213856Y77072D01*
X213870Y77076D01*
X213884Y77078D01*
X213916Y77081D01*
X213950Y77083D01*
X213951D01*
X213954D01*
X213960D01*
X213966Y77082D01*
D02*
G37*
G36*
X213642Y76454D02*
X213651Y76453D01*
X213660Y76451D01*
X213669Y76449D01*
X213679Y76446D01*
X213680D01*
X213681Y76445D01*
X213683Y76444D01*
X213686Y76442D01*
X213695Y76439D01*
X213706Y76433D01*
X213719Y76426D01*
X213733Y76417D01*
X213748Y76407D01*
X213764Y76394D01*
X213765Y76393D01*
X213766Y76392D01*
X213768Y76390D01*
X213771Y76387D01*
X213781Y76379D01*
X213792Y76367D01*
X213806Y76353D01*
X213823Y76336D01*
X213841Y76315D01*
X213861Y76291D01*
X213862Y76290D01*
X213866Y76287D01*
X213870Y76281D01*
X213876Y76274D01*
X213883Y76266D01*
X213891Y76256D01*
X213901Y76245D01*
X213911Y76234D01*
X213932Y76211D01*
X213955Y76187D01*
X213966Y76177D01*
X213977Y76167D01*
X213987Y76157D01*
X213997Y76150D01*
X213998Y76149D01*
X214000Y76148D01*
X214002Y76147D01*
X214006Y76144D01*
X214011Y76142D01*
X214016Y76138D01*
X214028Y76131D01*
X214042Y76124D01*
X214058Y76118D01*
X214076Y76114D01*
X214084Y76112D01*
X214092D01*
X214093D01*
X214095D01*
X214096D01*
X214100Y76113D01*
X214109Y76114D01*
X214120Y76117D01*
X214132Y76121D01*
X214145Y76127D01*
X214158Y76135D01*
X214171Y76147D01*
X214172Y76148D01*
X214176Y76152D01*
X214181Y76160D01*
X214187Y76170D01*
X214193Y76182D01*
X214198Y76197D01*
X214201Y76215D01*
X214203Y76234D01*
Y76240D01*
X214202Y76243D01*
Y76248D01*
X214201Y76254D01*
X214199Y76267D01*
X214195Y76281D01*
X214189Y76297D01*
X214181Y76312D01*
X214169Y76325D01*
X214167Y76327D01*
X214163Y76330D01*
X214155Y76336D01*
X214145Y76342D01*
X214131Y76348D01*
X214115Y76354D01*
X214096Y76357D01*
X214075Y76359D01*
X214083Y76440D01*
X214084D01*
X214087Y76439D01*
X214091D01*
X214098Y76438D01*
X214106Y76437D01*
X214114Y76435D01*
X214124Y76432D01*
X214134Y76429D01*
X214156Y76422D01*
X214168Y76417D01*
X214179Y76411D01*
X214191Y76404D01*
X214201Y76397D01*
X214211Y76388D01*
X214221Y76378D01*
X214221Y76377D01*
X214222Y76376D01*
X214225Y76372D01*
X214228Y76368D01*
X214231Y76362D01*
X214235Y76356D01*
X214240Y76348D01*
X214245Y76339D01*
X214249Y76329D01*
X214253Y76318D01*
X214257Y76307D01*
X214260Y76293D01*
X214264Y76280D01*
X214266Y76265D01*
X214267Y76249D01*
X214268Y76232D01*
Y76223D01*
X214267Y76217D01*
X214266Y76209D01*
X214265Y76200D01*
X214264Y76190D01*
X214261Y76179D01*
X214255Y76156D01*
X214251Y76144D01*
X214246Y76132D01*
X214240Y76119D01*
X214233Y76107D01*
X214225Y76097D01*
X214216Y76086D01*
X214215Y76085D01*
X214214Y76083D01*
X214211Y76081D01*
X214207Y76077D01*
X214202Y76073D01*
X214196Y76068D01*
X214190Y76064D01*
X214181Y76058D01*
X214173Y76053D01*
X214163Y76049D01*
X214141Y76040D01*
X214130Y76037D01*
X214117Y76034D01*
X214104Y76032D01*
X214090Y76032D01*
X214088D01*
X214083D01*
X214076Y76032D01*
X214066Y76033D01*
X214055Y76036D01*
X214041Y76038D01*
X214028Y76042D01*
X214014Y76047D01*
X214012Y76048D01*
X214007Y76051D01*
X214000Y76054D01*
X213991Y76060D01*
X213979Y76067D01*
X213966Y76077D01*
X213951Y76087D01*
X213936Y76100D01*
X213935D01*
X213934Y76102D01*
X213931Y76104D01*
X213928Y76107D01*
X213924Y76111D01*
X213919Y76116D01*
X213913Y76122D01*
X213906Y76129D01*
X213899Y76137D01*
X213891Y76146D01*
X213881Y76156D01*
X213871Y76167D01*
X213860Y76179D01*
X213849Y76192D01*
X213836Y76207D01*
X213823Y76222D01*
X213822Y76222D01*
X213821Y76225D01*
X213817Y76228D01*
X213814Y76233D01*
X213809Y76238D01*
X213803Y76245D01*
X213791Y76259D01*
X213777Y76275D01*
X213764Y76290D01*
X213758Y76297D01*
X213752Y76302D01*
X213746Y76308D01*
X213742Y76312D01*
X213741Y76313D01*
X213739Y76316D01*
X213735Y76319D01*
X213729Y76324D01*
X213723Y76329D01*
X213716Y76335D01*
X213701Y76346D01*
Y76031D01*
X213625D01*
Y76455D01*
X213626D01*
X213630D01*
X213635D01*
X213642Y76454D01*
D02*
G37*
G36*
X213174Y132630D02*
X213182Y132629D01*
X213190Y132628D01*
X213199Y132626D01*
X213209Y132623D01*
X213220Y132620D01*
X213232Y132616D01*
X213243Y132611D01*
X213256Y132605D01*
X213268Y132598D01*
X213280Y132589D01*
X213292Y132580D01*
X213303Y132569D01*
X213303Y132568D01*
X213305Y132567D01*
X213308Y132563D01*
X213312Y132558D01*
X213316Y132553D01*
X213321Y132545D01*
X213326Y132537D01*
X213331Y132528D01*
X213337Y132517D01*
X213342Y132505D01*
X213347Y132493D01*
X213351Y132478D01*
X213355Y132464D01*
X213358Y132448D01*
X213359Y132433D01*
X213360Y132415D01*
Y132407D01*
X213359Y132401D01*
X213358Y132394D01*
X213358Y132386D01*
X213356Y132376D01*
X213353Y132366D01*
X213348Y132344D01*
X213343Y132333D01*
X213339Y132321D01*
X213333Y132308D01*
X213327Y132297D01*
X213319Y132286D01*
X213310Y132275D01*
X213309Y132274D01*
X213308Y132273D01*
X213305Y132270D01*
X213301Y132266D01*
X213296Y132262D01*
X213290Y132257D01*
X213283Y132252D01*
X213275Y132246D01*
X213266Y132241D01*
X213256Y132235D01*
X213245Y132230D01*
X213233Y132225D01*
X213221Y132220D01*
X213208Y132217D01*
X213194Y132213D01*
X213179Y132212D01*
X213168Y132290D01*
X213169D01*
X213172Y132291D01*
X213175Y132292D01*
X213179Y132293D01*
X213185Y132294D01*
X213191Y132296D01*
X213206Y132301D01*
X213222Y132307D01*
X213238Y132315D01*
X213253Y132324D01*
X213260Y132329D01*
X213266Y132335D01*
X213267Y132337D01*
X213270Y132341D01*
X213275Y132348D01*
X213280Y132358D01*
X213286Y132369D01*
X213290Y132383D01*
X213293Y132398D01*
X213295Y132415D01*
Y132421D01*
X213294Y132424D01*
Y132429D01*
X213293Y132435D01*
X213290Y132448D01*
X213286Y132463D01*
X213279Y132478D01*
X213269Y132494D01*
X213263Y132502D01*
X213257Y132509D01*
X213256Y132510D01*
X213255Y132511D01*
X213253Y132513D01*
X213250Y132515D01*
X213242Y132522D01*
X213230Y132528D01*
X213217Y132535D01*
X213200Y132542D01*
X213182Y132546D01*
X213172Y132548D01*
X213162D01*
X213161D01*
X213159D01*
X213157D01*
X213153Y132547D01*
X213148D01*
X213143Y132546D01*
X213130Y132543D01*
X213116Y132539D01*
X213101Y132533D01*
X213087Y132523D01*
X213079Y132518D01*
X213073Y132512D01*
X213071Y132510D01*
X213067Y132505D01*
X213062Y132498D01*
X213055Y132488D01*
X213048Y132474D01*
X213043Y132459D01*
X213039Y132442D01*
X213038Y132422D01*
Y132413D01*
X213038Y132407D01*
X213039Y132398D01*
X213041Y132388D01*
X213043Y132378D01*
X213046Y132366D01*
X212977Y132375D01*
Y132377D01*
X212978Y132379D01*
X212978Y132383D01*
Y132393D01*
X212978Y132396D01*
X212977Y132406D01*
X212975Y132418D01*
X212972Y132432D01*
X212968Y132447D01*
X212961Y132463D01*
X212953Y132478D01*
Y132478D01*
X212951Y132479D01*
X212948Y132484D01*
X212941Y132491D01*
X212933Y132498D01*
X212921Y132506D01*
X212907Y132512D01*
X212890Y132517D01*
X212881Y132518D01*
X212871Y132518D01*
X212870D01*
X212869D01*
X212863Y132518D01*
X212856Y132517D01*
X212846Y132515D01*
X212835Y132511D01*
X212823Y132506D01*
X212811Y132498D01*
X212800Y132488D01*
X212798Y132487D01*
X212795Y132483D01*
X212791Y132477D01*
X212785Y132468D01*
X212780Y132458D01*
X212775Y132444D01*
X212772Y132430D01*
X212771Y132413D01*
Y132409D01*
X212772Y132406D01*
X212773Y132397D01*
X212774Y132386D01*
X212778Y132374D01*
X212783Y132361D01*
X212790Y132348D01*
X212800Y132336D01*
X212802Y132334D01*
X212805Y132331D01*
X212812Y132326D01*
X212822Y132320D01*
X212833Y132313D01*
X212848Y132307D01*
X212866Y132302D01*
X212886Y132298D01*
X212872Y132219D01*
X212871D01*
X212868Y132220D01*
X212864Y132221D01*
X212858Y132223D01*
X212853Y132224D01*
X212844Y132227D01*
X212836Y132229D01*
X212827Y132233D01*
X212808Y132242D01*
X212788Y132253D01*
X212768Y132267D01*
X212758Y132275D01*
X212750Y132284D01*
X212749Y132285D01*
X212749Y132287D01*
X212746Y132289D01*
X212743Y132293D01*
X212740Y132298D01*
X212736Y132304D01*
X212732Y132312D01*
X212728Y132319D01*
X212724Y132328D01*
X212720Y132338D01*
X212713Y132359D01*
X212708Y132384D01*
X212707Y132398D01*
X212706Y132412D01*
Y132421D01*
X212707Y132425D01*
Y132431D01*
X212709Y132443D01*
X212712Y132458D01*
X212715Y132474D01*
X212721Y132491D01*
X212729Y132508D01*
Y132508D01*
X212729Y132509D01*
X212731Y132512D01*
X212733Y132515D01*
X212738Y132523D01*
X212744Y132533D01*
X212753Y132543D01*
X212764Y132555D01*
X212776Y132566D01*
X212790Y132575D01*
X212791D01*
X212792Y132576D01*
X212797Y132579D01*
X212805Y132583D01*
X212815Y132588D01*
X212828Y132592D01*
X212842Y132596D01*
X212857Y132598D01*
X212873Y132599D01*
X212873D01*
X212874D01*
X212879D01*
X212888Y132598D01*
X212898Y132597D01*
X212909Y132593D01*
X212922Y132590D01*
X212935Y132584D01*
X212948Y132577D01*
X212950Y132576D01*
X212954Y132573D01*
X212960Y132568D01*
X212968Y132560D01*
X212977Y132551D01*
X212986Y132539D01*
X212994Y132526D01*
X213003Y132511D01*
Y132512D01*
X213003Y132513D01*
X213004Y132517D01*
X213005Y132520D01*
X213007Y132525D01*
X213009Y132531D01*
X213014Y132543D01*
X213022Y132558D01*
X213032Y132572D01*
X213043Y132587D01*
X213058Y132599D01*
X213058D01*
X213059Y132601D01*
X213062Y132603D01*
X213065Y132604D01*
X213069Y132607D01*
X213073Y132609D01*
X213086Y132615D01*
X213101Y132621D01*
X213118Y132626D01*
X213138Y132629D01*
X213160Y132631D01*
X213161D01*
X213163D01*
X213168D01*
X213174Y132630D01*
D02*
G37*
G36*
X213151Y132138D02*
X213157Y132136D01*
X213164Y132134D01*
X213173Y132131D01*
X213183Y132127D01*
X213193Y132123D01*
X213206Y132117D01*
X213218Y132111D01*
X213232Y132104D01*
X213244Y132096D01*
X213258Y132087D01*
X213271Y132078D01*
X213283Y132067D01*
X213295Y132055D01*
X213306Y132043D01*
X213307Y132042D01*
X213308Y132039D01*
X213311Y132036D01*
X213314Y132030D01*
X213318Y132024D01*
X213323Y132015D01*
X213328Y132006D01*
X213333Y131996D01*
X213338Y131984D01*
X213343Y131971D01*
X213348Y131957D01*
X213352Y131942D01*
X213355Y131926D01*
X213358Y131909D01*
X213359Y131892D01*
X213360Y131874D01*
Y131864D01*
X213359Y131856D01*
X213358Y131848D01*
X213358Y131837D01*
X213357Y131826D01*
X213355Y131814D01*
X213350Y131787D01*
X213343Y131759D01*
X213338Y131744D01*
X213332Y131730D01*
X213326Y131717D01*
X213318Y131704D01*
X213318Y131704D01*
X213317Y131702D01*
X213314Y131699D01*
X213310Y131694D01*
X213306Y131689D01*
X213301Y131682D01*
X213294Y131675D01*
X213287Y131668D01*
X213279Y131659D01*
X213270Y131652D01*
X213260Y131644D01*
X213248Y131635D01*
X213237Y131627D01*
X213224Y131619D01*
X213210Y131612D01*
X213196Y131605D01*
X213195D01*
X213193Y131604D01*
X213188Y131602D01*
X213182Y131600D01*
X213174Y131598D01*
X213166Y131594D01*
X213156Y131592D01*
X213144Y131589D01*
X213132Y131585D01*
X213118Y131583D01*
X213104Y131579D01*
X213090Y131577D01*
X213058Y131574D01*
X213024Y131572D01*
X213023D01*
X213020D01*
X213014D01*
X213008Y131573D01*
X212998D01*
X212988Y131574D01*
X212978Y131575D01*
X212965Y131577D01*
X212952Y131579D01*
X212938Y131581D01*
X212908Y131588D01*
X212879Y131597D01*
X212864Y131603D01*
X212850Y131609D01*
X212849Y131610D01*
X212847Y131611D01*
X212843Y131614D01*
X212838Y131617D01*
X212832Y131620D01*
X212824Y131625D01*
X212817Y131631D01*
X212808Y131638D01*
X212789Y131653D01*
X212771Y131672D01*
X212753Y131694D01*
X212744Y131706D01*
X212737Y131719D01*
X212736Y131719D01*
X212735Y131722D01*
X212734Y131726D01*
X212731Y131731D01*
X212728Y131738D01*
X212724Y131745D01*
X212721Y131754D01*
X212717Y131764D01*
X212714Y131776D01*
X212710Y131788D01*
X212704Y131814D01*
X212699Y131844D01*
X212698Y131859D01*
Y131884D01*
X212699Y131890D01*
X212699Y131899D01*
X212700Y131909D01*
X212702Y131919D01*
X212704Y131931D01*
X212709Y131956D01*
X212714Y131969D01*
X212719Y131984D01*
X212724Y131997D01*
X212730Y132010D01*
X212738Y132024D01*
X212747Y132036D01*
X212748Y132037D01*
X212749Y132039D01*
X212752Y132043D01*
X212756Y132047D01*
X212761Y132052D01*
X212767Y132059D01*
X212774Y132065D01*
X212783Y132073D01*
X212792Y132080D01*
X212802Y132088D01*
X212813Y132095D01*
X212825Y132103D01*
X212838Y132110D01*
X212853Y132117D01*
X212868Y132124D01*
X212884Y132129D01*
X212904Y132045D01*
X212903D01*
X212901Y132044D01*
X212898Y132043D01*
X212893Y132041D01*
X212887Y132039D01*
X212880Y132036D01*
X212865Y132029D01*
X212848Y132019D01*
X212832Y132009D01*
X212816Y131995D01*
X212809Y131988D01*
X212803Y131980D01*
Y131979D01*
X212801Y131979D01*
X212799Y131976D01*
X212798Y131973D01*
X212795Y131969D01*
X212793Y131964D01*
X212786Y131951D01*
X212780Y131935D01*
X212775Y131917D01*
X212772Y131896D01*
X212770Y131873D01*
Y131865D01*
X212771Y131860D01*
Y131854D01*
X212772Y131847D01*
X212773Y131839D01*
X212774Y131829D01*
X212778Y131810D01*
X212785Y131789D01*
X212794Y131769D01*
X212799Y131759D01*
X212806Y131749D01*
Y131748D01*
X212808Y131746D01*
X212809Y131744D01*
X212813Y131740D01*
X212820Y131732D01*
X212831Y131722D01*
X212844Y131710D01*
X212861Y131699D01*
X212879Y131688D01*
X212901Y131679D01*
X212902D01*
X212903Y131679D01*
X212907Y131678D01*
X212911Y131676D01*
X212917Y131674D01*
X212923Y131673D01*
X212931Y131671D01*
X212938Y131669D01*
X212958Y131666D01*
X212978Y131663D01*
X213001Y131660D01*
X213024Y131659D01*
X213025D01*
X213028D01*
X213032D01*
X213038D01*
X213045Y131660D01*
X213053Y131661D01*
X213063D01*
X213073Y131663D01*
X213095Y131665D01*
X213118Y131669D01*
X213143Y131675D01*
X213167Y131683D01*
X213168D01*
X213169Y131684D01*
X213173Y131685D01*
X213177Y131688D01*
X213182Y131690D01*
X213188Y131693D01*
X213201Y131701D01*
X213216Y131712D01*
X213231Y131724D01*
X213245Y131739D01*
X213258Y131757D01*
Y131758D01*
X213259Y131759D01*
X213260Y131762D01*
X213263Y131766D01*
X213264Y131770D01*
X213267Y131776D01*
X213273Y131789D01*
X213278Y131806D01*
X213283Y131824D01*
X213286Y131844D01*
X213288Y131866D01*
Y131873D01*
X213287Y131878D01*
X213286Y131884D01*
X213285Y131891D01*
X213284Y131899D01*
X213283Y131908D01*
X213278Y131927D01*
X213270Y131947D01*
X213266Y131958D01*
X213260Y131968D01*
X213254Y131978D01*
X213247Y131987D01*
X213246Y131988D01*
X213245Y131989D01*
X213243Y131992D01*
X213239Y131995D01*
X213235Y131999D01*
X213229Y132004D01*
X213223Y132009D01*
X213216Y132014D01*
X213208Y132019D01*
X213199Y132025D01*
X213189Y132030D01*
X213178Y132036D01*
X213166Y132041D01*
X213153Y132046D01*
X213140Y132050D01*
X213125Y132054D01*
X213147Y132139D01*
X213148D01*
X213151Y132138D01*
D02*
G37*
G36*
X118119Y125221D02*
X118126Y125220D01*
X118134Y125220D01*
X118144Y125218D01*
X118154Y125215D01*
X118176Y125210D01*
X118187Y125205D01*
X118199Y125201D01*
X118211Y125195D01*
X118223Y125189D01*
X118234Y125181D01*
X118245Y125172D01*
X118246Y125171D01*
X118247Y125170D01*
X118250Y125167D01*
X118254Y125163D01*
X118258Y125158D01*
X118263Y125152D01*
X118268Y125145D01*
X118274Y125137D01*
X118279Y125128D01*
X118285Y125118D01*
X118290Y125107D01*
X118295Y125095D01*
X118300Y125083D01*
X118303Y125070D01*
X118306Y125056D01*
X118308Y125041D01*
X118230Y125030D01*
Y125031D01*
X118229Y125034D01*
X118228Y125037D01*
X118227Y125041D01*
X118226Y125047D01*
X118224Y125053D01*
X118219Y125068D01*
X118213Y125084D01*
X118205Y125100D01*
X118196Y125115D01*
X118191Y125122D01*
X118185Y125128D01*
X118183Y125129D01*
X118179Y125132D01*
X118172Y125137D01*
X118162Y125142D01*
X118151Y125148D01*
X118137Y125152D01*
X118121Y125155D01*
X118105Y125157D01*
X118099D01*
X118096Y125156D01*
X118091D01*
X118085Y125155D01*
X118072Y125152D01*
X118057Y125148D01*
X118041Y125141D01*
X118026Y125131D01*
X118018Y125125D01*
X118011Y125119D01*
X118010Y125118D01*
X118009Y125117D01*
X118007Y125115D01*
X118005Y125112D01*
X117998Y125104D01*
X117991Y125092D01*
X117985Y125079D01*
X117978Y125062D01*
X117974Y125044D01*
X117972Y125034D01*
Y125024D01*
Y125023D01*
Y125021D01*
Y125019D01*
X117973Y125015D01*
Y125010D01*
X117974Y125005D01*
X117976Y124992D01*
X117981Y124978D01*
X117987Y124963D01*
X117996Y124949D01*
X118001Y124941D01*
X118008Y124935D01*
X118010Y124933D01*
X118015Y124929D01*
X118022Y124924D01*
X118032Y124917D01*
X118046Y124910D01*
X118061Y124905D01*
X118078Y124901D01*
X118098Y124900D01*
X118107D01*
X118113Y124900D01*
X118121Y124901D01*
X118131Y124903D01*
X118142Y124905D01*
X118154Y124908D01*
X118145Y124839D01*
X118143D01*
X118141Y124840D01*
X118136Y124840D01*
X118127D01*
X118124Y124840D01*
X118114Y124839D01*
X118102Y124837D01*
X118088Y124834D01*
X118073Y124830D01*
X118057Y124823D01*
X118042Y124815D01*
X118041D01*
X118041Y124813D01*
X118036Y124810D01*
X118029Y124803D01*
X118021Y124795D01*
X118014Y124783D01*
X118008Y124769D01*
X118003Y124752D01*
X118002Y124743D01*
X118001Y124733D01*
Y124732D01*
Y124731D01*
X118002Y124725D01*
X118003Y124718D01*
X118005Y124708D01*
X118009Y124697D01*
X118014Y124685D01*
X118021Y124673D01*
X118031Y124662D01*
X118033Y124660D01*
X118036Y124657D01*
X118043Y124653D01*
X118051Y124647D01*
X118062Y124642D01*
X118076Y124637D01*
X118090Y124634D01*
X118106Y124633D01*
X118111D01*
X118114Y124634D01*
X118123Y124635D01*
X118134Y124636D01*
X118146Y124640D01*
X118159Y124645D01*
X118171Y124652D01*
X118184Y124662D01*
X118186Y124664D01*
X118189Y124667D01*
X118194Y124674D01*
X118200Y124684D01*
X118206Y124695D01*
X118213Y124710D01*
X118218Y124728D01*
X118222Y124748D01*
X118301Y124734D01*
Y124733D01*
X118300Y124730D01*
X118299Y124726D01*
X118297Y124720D01*
X118296Y124715D01*
X118293Y124706D01*
X118291Y124698D01*
X118287Y124689D01*
X118278Y124670D01*
X118267Y124650D01*
X118253Y124630D01*
X118245Y124620D01*
X118236Y124612D01*
X118235Y124611D01*
X118233Y124610D01*
X118231Y124608D01*
X118226Y124605D01*
X118221Y124602D01*
X118216Y124598D01*
X118208Y124594D01*
X118201Y124590D01*
X118191Y124586D01*
X118182Y124582D01*
X118161Y124575D01*
X118136Y124570D01*
X118122Y124569D01*
X118108Y124568D01*
X118099D01*
X118095Y124569D01*
X118089D01*
X118076Y124571D01*
X118061Y124574D01*
X118046Y124577D01*
X118029Y124583D01*
X118012Y124590D01*
X118011D01*
X118011Y124591D01*
X118008Y124593D01*
X118005Y124595D01*
X117997Y124600D01*
X117987Y124606D01*
X117976Y124616D01*
X117965Y124626D01*
X117954Y124638D01*
X117945Y124652D01*
Y124653D01*
X117944Y124654D01*
X117941Y124659D01*
X117937Y124667D01*
X117932Y124677D01*
X117928Y124690D01*
X117924Y124704D01*
X117921Y124719D01*
X117921Y124735D01*
Y124735D01*
Y124736D01*
Y124741D01*
X117921Y124750D01*
X117923Y124760D01*
X117926Y124771D01*
X117930Y124784D01*
X117936Y124797D01*
X117943Y124810D01*
X117944Y124812D01*
X117947Y124816D01*
X117952Y124822D01*
X117960Y124830D01*
X117969Y124839D01*
X117981Y124848D01*
X117994Y124856D01*
X118009Y124865D01*
X118008D01*
X118006Y124865D01*
X118003Y124866D01*
X118000Y124867D01*
X117995Y124869D01*
X117989Y124871D01*
X117976Y124876D01*
X117962Y124884D01*
X117948Y124894D01*
X117933Y124905D01*
X117921Y124920D01*
Y124920D01*
X117919Y124921D01*
X117917Y124924D01*
X117916Y124927D01*
X117913Y124931D01*
X117911Y124935D01*
X117905Y124948D01*
X117899Y124963D01*
X117894Y124980D01*
X117891Y125000D01*
X117889Y125022D01*
Y125023D01*
Y125025D01*
Y125030D01*
X117890Y125036D01*
X117891Y125044D01*
X117892Y125052D01*
X117894Y125061D01*
X117896Y125071D01*
X117900Y125082D01*
X117904Y125094D01*
X117909Y125105D01*
X117915Y125118D01*
X117922Y125130D01*
X117931Y125142D01*
X117940Y125154D01*
X117951Y125165D01*
X117951Y125165D01*
X117953Y125167D01*
X117956Y125170D01*
X117961Y125174D01*
X117967Y125178D01*
X117975Y125183D01*
X117983Y125188D01*
X117992Y125193D01*
X118003Y125199D01*
X118015Y125204D01*
X118027Y125209D01*
X118041Y125213D01*
X118056Y125217D01*
X118071Y125220D01*
X118087Y125221D01*
X118105Y125222D01*
X118113D01*
X118119Y125221D01*
D02*
G37*
G36*
X118922Y124571D02*
X118624D01*
X118616Y124571D01*
X118609D01*
X118600Y124572D01*
X118590Y124573D01*
X118569Y124575D01*
X118547Y124578D01*
X118526Y124582D01*
X118516Y124585D01*
X118508Y124588D01*
X118507D01*
X118506Y124589D01*
X118504Y124590D01*
X118500Y124591D01*
X118492Y124595D01*
X118482Y124602D01*
X118470Y124610D01*
X118459Y124621D01*
X118447Y124635D01*
X118436Y124650D01*
Y124650D01*
X118435Y124651D01*
X118434Y124654D01*
X118432Y124657D01*
X118428Y124666D01*
X118423Y124678D01*
X118418Y124692D01*
X118414Y124709D01*
X118410Y124727D01*
X118410Y124746D01*
Y124747D01*
Y124750D01*
Y124753D01*
X118410Y124758D01*
X118411Y124764D01*
X118412Y124770D01*
X118415Y124786D01*
X118420Y124805D01*
X118428Y124824D01*
X118433Y124833D01*
X118439Y124843D01*
X118446Y124852D01*
X118454Y124861D01*
X118455Y124862D01*
X118455Y124863D01*
X118459Y124865D01*
X118462Y124869D01*
X118467Y124872D01*
X118473Y124876D01*
X118480Y124881D01*
X118487Y124886D01*
X118496Y124891D01*
X118506Y124896D01*
X118518Y124901D01*
X118530Y124906D01*
X118544Y124910D01*
X118558Y124915D01*
X118574Y124918D01*
X118590Y124920D01*
X118589Y124921D01*
X118585Y124923D01*
X118579Y124926D01*
X118571Y124930D01*
X118555Y124941D01*
X118547Y124947D01*
X118540Y124953D01*
X118539D01*
X118538Y124955D01*
X118533Y124959D01*
X118526Y124966D01*
X118516Y124976D01*
X118505Y124988D01*
X118494Y125003D01*
X118481Y125020D01*
X118469Y125038D01*
X118358Y125211D01*
X118465D01*
X118549Y125079D01*
Y125078D01*
X118550Y125076D01*
X118552Y125073D01*
X118555Y125070D01*
X118558Y125065D01*
X118562Y125059D01*
X118570Y125046D01*
X118580Y125032D01*
X118590Y125018D01*
X118600Y125004D01*
X118610Y124991D01*
X118611Y124990D01*
X118615Y124986D01*
X118619Y124980D01*
X118625Y124975D01*
X118631Y124967D01*
X118639Y124960D01*
X118646Y124954D01*
X118654Y124948D01*
X118655Y124947D01*
X118657Y124946D01*
X118660Y124944D01*
X118665Y124941D01*
X118671Y124938D01*
X118678Y124935D01*
X118692Y124930D01*
X118693D01*
X118695Y124930D01*
X118698D01*
X118703Y124929D01*
X118710Y124928D01*
X118718D01*
X118727Y124927D01*
X118837D01*
Y125211D01*
X118922D01*
Y124571D01*
D02*
G37*
G36*
X117822Y125210D02*
Y125206D01*
Y125201D01*
X117821Y125194D01*
X117821Y125185D01*
X117819Y125176D01*
X117816Y125167D01*
X117813Y125157D01*
Y125156D01*
X117812Y125155D01*
X117811Y125153D01*
X117810Y125150D01*
X117806Y125141D01*
X117801Y125130D01*
X117793Y125117D01*
X117785Y125103D01*
X117774Y125088D01*
X117761Y125072D01*
X117761Y125071D01*
X117760Y125070D01*
X117757Y125068D01*
X117755Y125065D01*
X117746Y125055D01*
X117735Y125044D01*
X117721Y125030D01*
X117703Y125013D01*
X117682Y124995D01*
X117658Y124975D01*
X117657Y124974D01*
X117654Y124970D01*
X117648Y124966D01*
X117642Y124960D01*
X117633Y124953D01*
X117623Y124945D01*
X117612Y124935D01*
X117602Y124925D01*
X117578Y124904D01*
X117555Y124881D01*
X117544Y124870D01*
X117534Y124859D01*
X117525Y124849D01*
X117517Y124839D01*
X117517Y124838D01*
X117516Y124836D01*
X117514Y124834D01*
X117512Y124830D01*
X117509Y124825D01*
X117506Y124820D01*
X117498Y124808D01*
X117492Y124794D01*
X117486Y124778D01*
X117482Y124760D01*
X117480Y124752D01*
Y124744D01*
Y124743D01*
Y124741D01*
Y124740D01*
X117481Y124736D01*
X117482Y124727D01*
X117484Y124716D01*
X117488Y124704D01*
X117494Y124691D01*
X117502Y124678D01*
X117514Y124665D01*
X117516Y124664D01*
X117520Y124660D01*
X117527Y124655D01*
X117537Y124649D01*
X117550Y124643D01*
X117565Y124638D01*
X117582Y124635D01*
X117602Y124633D01*
X117607D01*
X117611Y124634D01*
X117616D01*
X117622Y124635D01*
X117634Y124637D01*
X117648Y124641D01*
X117664Y124647D01*
X117679Y124655D01*
X117692Y124667D01*
X117694Y124669D01*
X117697Y124673D01*
X117703Y124681D01*
X117709Y124691D01*
X117716Y124705D01*
X117721Y124721D01*
X117725Y124740D01*
X117726Y124761D01*
X117807Y124753D01*
Y124752D01*
X117806Y124749D01*
Y124745D01*
X117806Y124738D01*
X117804Y124730D01*
X117802Y124722D01*
X117800Y124712D01*
X117796Y124702D01*
X117789Y124680D01*
X117784Y124668D01*
X117778Y124657D01*
X117771Y124645D01*
X117764Y124635D01*
X117756Y124625D01*
X117746Y124616D01*
X117745Y124615D01*
X117743Y124614D01*
X117740Y124611D01*
X117736Y124608D01*
X117730Y124605D01*
X117723Y124601D01*
X117716Y124596D01*
X117706Y124591D01*
X117696Y124587D01*
X117686Y124583D01*
X117674Y124579D01*
X117661Y124576D01*
X117647Y124572D01*
X117632Y124570D01*
X117617Y124569D01*
X117600Y124568D01*
X117591D01*
X117585Y124569D01*
X117577Y124570D01*
X117567Y124571D01*
X117557Y124572D01*
X117547Y124575D01*
X117523Y124581D01*
X117512Y124585D01*
X117499Y124590D01*
X117487Y124595D01*
X117475Y124603D01*
X117464Y124610D01*
X117453Y124620D01*
X117452Y124620D01*
X117451Y124622D01*
X117448Y124625D01*
X117445Y124629D01*
X117441Y124634D01*
X117436Y124640D01*
X117432Y124646D01*
X117426Y124655D01*
X117421Y124663D01*
X117417Y124673D01*
X117407Y124695D01*
X117404Y124706D01*
X117402Y124719D01*
X117400Y124732D01*
X117399Y124746D01*
Y124748D01*
Y124753D01*
X117400Y124760D01*
X117401Y124770D01*
X117403Y124781D01*
X117406Y124795D01*
X117410Y124808D01*
X117415Y124822D01*
X117416Y124824D01*
X117418Y124829D01*
X117422Y124836D01*
X117427Y124845D01*
X117435Y124857D01*
X117444Y124870D01*
X117455Y124885D01*
X117467Y124900D01*
Y124901D01*
X117469Y124902D01*
X117472Y124905D01*
X117474Y124908D01*
X117478Y124912D01*
X117483Y124917D01*
X117489Y124923D01*
X117497Y124930D01*
X117504Y124937D01*
X117513Y124945D01*
X117523Y124955D01*
X117534Y124965D01*
X117547Y124976D01*
X117559Y124987D01*
X117574Y125000D01*
X117589Y125013D01*
X117590Y125014D01*
X117592Y125015D01*
X117596Y125019D01*
X117601Y125022D01*
X117606Y125027D01*
X117612Y125033D01*
X117627Y125045D01*
X117642Y125059D01*
X117657Y125072D01*
X117664Y125078D01*
X117670Y125084D01*
X117676Y125090D01*
X117680Y125094D01*
X117681Y125095D01*
X117683Y125097D01*
X117687Y125101D01*
X117691Y125107D01*
X117696Y125113D01*
X117702Y125120D01*
X117713Y125135D01*
X117398D01*
Y125211D01*
X117822D01*
Y125210D01*
D02*
G37*
G36*
X118949Y92567D02*
X118651D01*
X118643Y92567D01*
X118636D01*
X118627Y92568D01*
X118617Y92569D01*
X118596Y92571D01*
X118574Y92574D01*
X118553Y92578D01*
X118543Y92581D01*
X118535Y92584D01*
X118534D01*
X118533Y92585D01*
X118531Y92586D01*
X118527Y92587D01*
X118519Y92591D01*
X118509Y92598D01*
X118497Y92606D01*
X118486Y92617D01*
X118474Y92631D01*
X118463Y92646D01*
Y92646D01*
X118462Y92647D01*
X118461Y92650D01*
X118459Y92653D01*
X118455Y92662D01*
X118450Y92674D01*
X118445Y92688D01*
X118441Y92705D01*
X118437Y92723D01*
X118437Y92742D01*
Y92743D01*
Y92746D01*
Y92749D01*
X118437Y92754D01*
X118438Y92760D01*
X118439Y92766D01*
X118442Y92782D01*
X118447Y92801D01*
X118455Y92820D01*
X118460Y92829D01*
X118466Y92839D01*
X118473Y92848D01*
X118481Y92857D01*
X118482Y92858D01*
X118482Y92859D01*
X118486Y92861D01*
X118489Y92865D01*
X118494Y92868D01*
X118500Y92872D01*
X118507Y92877D01*
X118514Y92882D01*
X118523Y92887D01*
X118533Y92892D01*
X118545Y92897D01*
X118557Y92902D01*
X118571Y92906D01*
X118585Y92911D01*
X118601Y92914D01*
X118617Y92916D01*
X118616Y92917D01*
X118612Y92919D01*
X118606Y92922D01*
X118598Y92926D01*
X118582Y92937D01*
X118574Y92943D01*
X118567Y92949D01*
X118566D01*
X118565Y92951D01*
X118560Y92955D01*
X118553Y92962D01*
X118543Y92972D01*
X118532Y92984D01*
X118521Y92999D01*
X118508Y93016D01*
X118496Y93034D01*
X118385Y93207D01*
X118492D01*
X118576Y93075D01*
Y93074D01*
X118577Y93072D01*
X118579Y93069D01*
X118582Y93066D01*
X118585Y93061D01*
X118589Y93055D01*
X118597Y93042D01*
X118607Y93028D01*
X118617Y93014D01*
X118627Y93000D01*
X118637Y92987D01*
X118638Y92986D01*
X118642Y92982D01*
X118646Y92976D01*
X118652Y92971D01*
X118658Y92963D01*
X118666Y92956D01*
X118673Y92950D01*
X118681Y92944D01*
X118682Y92943D01*
X118684Y92942D01*
X118687Y92940D01*
X118692Y92937D01*
X118698Y92934D01*
X118705Y92931D01*
X118719Y92926D01*
X118720D01*
X118722Y92926D01*
X118725D01*
X118730Y92925D01*
X118737Y92924D01*
X118745D01*
X118754Y92923D01*
X118864D01*
Y93207D01*
X118949D01*
Y92567D01*
D02*
G37*
G36*
X117245Y93206D02*
Y93204D01*
Y93200D01*
X117244Y93194D01*
Y93186D01*
X117244Y93178D01*
X117243Y93168D01*
X117241Y93156D01*
X117239Y93144D01*
X117238Y93130D01*
X117235Y93115D01*
X117233Y93099D01*
X117229Y93082D01*
X117225Y93064D01*
X117221Y93046D01*
X117216Y93026D01*
Y93024D01*
X117214Y93021D01*
X117213Y93015D01*
X117211Y93007D01*
X117208Y92997D01*
X117204Y92986D01*
X117200Y92974D01*
X117195Y92960D01*
X117190Y92944D01*
X117184Y92928D01*
X117170Y92893D01*
X117154Y92856D01*
X117135Y92819D01*
X117134Y92818D01*
X117133Y92815D01*
X117130Y92809D01*
X117126Y92802D01*
X117121Y92794D01*
X117115Y92784D01*
X117109Y92772D01*
X117101Y92761D01*
X117084Y92734D01*
X117065Y92706D01*
X117044Y92677D01*
X117022Y92651D01*
X117335D01*
Y92575D01*
X116921D01*
Y92636D01*
X116922Y92637D01*
X116924Y92640D01*
X116927Y92643D01*
X116932Y92648D01*
X116937Y92655D01*
X116944Y92663D01*
X116951Y92672D01*
X116960Y92682D01*
X116969Y92694D01*
X116978Y92707D01*
X116988Y92721D01*
X116999Y92737D01*
X117010Y92753D01*
X117020Y92771D01*
X117031Y92790D01*
X117043Y92810D01*
X117044Y92811D01*
X117045Y92815D01*
X117049Y92821D01*
X117053Y92828D01*
X117058Y92838D01*
X117063Y92850D01*
X117069Y92863D01*
X117076Y92878D01*
X117084Y92894D01*
X117091Y92911D01*
X117099Y92930D01*
X117106Y92949D01*
X117121Y92989D01*
X117134Y93031D01*
Y93032D01*
X117135Y93035D01*
X117137Y93040D01*
X117139Y93046D01*
X117140Y93053D01*
X117143Y93062D01*
X117144Y93072D01*
X117147Y93084D01*
X117149Y93096D01*
X117153Y93110D01*
X117155Y93125D01*
X117157Y93140D01*
X117161Y93172D01*
X117164Y93207D01*
X117245D01*
Y93206D01*
D02*
G37*
G36*
X118118Y92706D02*
X118119Y92707D01*
X118123Y92711D01*
X118129Y92716D01*
X118138Y92723D01*
X118148Y92731D01*
X118162Y92741D01*
X118176Y92751D01*
X118193Y92761D01*
X118193D01*
X118194Y92761D01*
X118197Y92763D01*
X118200Y92765D01*
X118209Y92770D01*
X118220Y92776D01*
X118233Y92782D01*
X118247Y92789D01*
X118261Y92796D01*
X118275Y92801D01*
Y92725D01*
X118274D01*
X118272Y92723D01*
X118268Y92721D01*
X118264Y92719D01*
X118258Y92716D01*
X118252Y92712D01*
X118236Y92704D01*
X118218Y92693D01*
X118198Y92680D01*
X118179Y92666D01*
X118160Y92650D01*
X118159Y92649D01*
X118158Y92648D01*
X118155Y92646D01*
X118152Y92642D01*
X118143Y92634D01*
X118133Y92622D01*
X118122Y92610D01*
X118110Y92595D01*
X118099Y92580D01*
X118090Y92564D01*
X118039D01*
Y93207D01*
X118118D01*
Y92706D01*
D02*
G37*
G36*
X117639Y93217D02*
X117644D01*
X117653Y93216D01*
X117661Y93215D01*
X117671Y93212D01*
X117682Y93210D01*
X117693Y93206D01*
X117705Y93202D01*
X117718Y93196D01*
X117730Y93191D01*
X117742Y93183D01*
X117753Y93174D01*
X117764Y93164D01*
X117775Y93152D01*
X117776Y93151D01*
X117778Y93148D01*
X117781Y93144D01*
X117785Y93137D01*
X117789Y93128D01*
X117795Y93117D01*
X117800Y93105D01*
X117806Y93090D01*
X117812Y93072D01*
X117818Y93053D01*
X117823Y93032D01*
X117828Y93008D01*
X117832Y92982D01*
X117835Y92955D01*
X117837Y92924D01*
X117838Y92891D01*
Y92890D01*
Y92886D01*
Y92881D01*
Y92872D01*
X117837Y92863D01*
X117836Y92852D01*
Y92840D01*
X117834Y92826D01*
X117832Y92797D01*
X117828Y92766D01*
X117822Y92736D01*
X117818Y92722D01*
X117814Y92709D01*
Y92708D01*
X117813Y92706D01*
X117812Y92702D01*
X117810Y92697D01*
X117808Y92691D01*
X117804Y92685D01*
X117797Y92669D01*
X117787Y92652D01*
X117775Y92634D01*
X117761Y92616D01*
X117745Y92602D01*
X117744Y92601D01*
X117743Y92600D01*
X117740Y92598D01*
X117737Y92596D01*
X117733Y92593D01*
X117727Y92590D01*
X117721Y92587D01*
X117714Y92582D01*
X117697Y92576D01*
X117677Y92570D01*
X117654Y92566D01*
X117642Y92564D01*
X117621D01*
X117616Y92565D01*
X117611D01*
X117599Y92567D01*
X117584Y92569D01*
X117569Y92573D01*
X117554Y92578D01*
X117539Y92585D01*
X117538D01*
X117537Y92586D01*
X117532Y92589D01*
X117525Y92593D01*
X117516Y92600D01*
X117506Y92609D01*
X117495Y92619D01*
X117484Y92631D01*
X117474Y92645D01*
Y92646D01*
X117474Y92646D01*
X117472Y92649D01*
X117470Y92651D01*
X117466Y92660D01*
X117460Y92671D01*
X117454Y92686D01*
X117447Y92701D01*
X117441Y92721D01*
X117435Y92741D01*
Y92741D01*
X117434Y92743D01*
X117434Y92746D01*
X117433Y92751D01*
X117432Y92756D01*
X117430Y92763D01*
X117429Y92771D01*
X117428Y92781D01*
X117426Y92791D01*
X117425Y92802D01*
X117424Y92814D01*
X117423Y92828D01*
X117422Y92842D01*
X117421Y92857D01*
X117420Y92874D01*
Y92891D01*
Y92893D01*
Y92896D01*
Y92902D01*
Y92911D01*
X117421Y92920D01*
Y92931D01*
X117422Y92943D01*
X117423Y92956D01*
X117426Y92986D01*
X117430Y93016D01*
X117436Y93046D01*
X117439Y93061D01*
X117444Y93074D01*
Y93075D01*
X117444Y93077D01*
X117446Y93081D01*
X117448Y93086D01*
X117450Y93091D01*
X117454Y93098D01*
X117461Y93113D01*
X117471Y93131D01*
X117483Y93148D01*
X117497Y93166D01*
X117514Y93181D01*
X117514D01*
X117515Y93182D01*
X117519Y93184D01*
X117522Y93186D01*
X117526Y93189D01*
X117532Y93192D01*
X117538Y93196D01*
X117545Y93199D01*
X117562Y93206D01*
X117582Y93212D01*
X117604Y93216D01*
X117617Y93217D01*
X117629Y93218D01*
X117634D01*
X117639Y93217D01*
D02*
G37*
G36*
X117632Y61340D02*
X117639Y61339D01*
X117646Y61339D01*
X117654Y61338D01*
X117663Y61336D01*
X117682Y61331D01*
X117703Y61324D01*
X117713Y61319D01*
X117723Y61313D01*
X117733Y61307D01*
X117742Y61299D01*
X117743Y61299D01*
X117744Y61298D01*
X117746Y61295D01*
X117750Y61292D01*
X117754Y61288D01*
X117758Y61282D01*
X117762Y61276D01*
X117767Y61269D01*
X117772Y61261D01*
X117777Y61253D01*
X117781Y61243D01*
X117786Y61232D01*
X117791Y61221D01*
X117794Y61209D01*
X117796Y61196D01*
X117799Y61182D01*
X117723Y61176D01*
Y61177D01*
X117722Y61179D01*
Y61181D01*
X117721Y61184D01*
X117719Y61194D01*
X117715Y61205D01*
X117711Y61219D01*
X117704Y61231D01*
X117696Y61243D01*
X117687Y61253D01*
X117686Y61254D01*
X117682Y61256D01*
X117676Y61260D01*
X117668Y61264D01*
X117658Y61269D01*
X117647Y61273D01*
X117632Y61275D01*
X117617Y61276D01*
X117612D01*
X117605Y61275D01*
X117596Y61274D01*
X117587Y61272D01*
X117576Y61269D01*
X117565Y61265D01*
X117554Y61260D01*
X117553Y61259D01*
X117549Y61257D01*
X117544Y61254D01*
X117538Y61249D01*
X117531Y61242D01*
X117523Y61234D01*
X117516Y61226D01*
X117509Y61216D01*
X117508Y61214D01*
X117506Y61211D01*
X117503Y61204D01*
X117499Y61196D01*
X117494Y61185D01*
X117489Y61173D01*
X117484Y61158D01*
X117480Y61141D01*
Y61140D01*
X117479Y61139D01*
Y61136D01*
X117478Y61133D01*
X117477Y61129D01*
X117477Y61124D01*
X117474Y61111D01*
X117472Y61097D01*
X117470Y61080D01*
X117469Y61063D01*
X117468Y61044D01*
Y61044D01*
Y61040D01*
Y61035D01*
Y61029D01*
X117469Y61030D01*
X117472Y61034D01*
X117478Y61042D01*
X117486Y61050D01*
X117495Y61060D01*
X117506Y61070D01*
X117519Y61080D01*
X117533Y61089D01*
X117534D01*
X117535Y61090D01*
X117537Y61092D01*
X117541Y61093D01*
X117548Y61097D01*
X117560Y61101D01*
X117572Y61105D01*
X117587Y61109D01*
X117604Y61112D01*
X117622Y61113D01*
X117629D01*
X117635Y61112D01*
X117642Y61111D01*
X117650Y61109D01*
X117658Y61108D01*
X117668Y61105D01*
X117678Y61103D01*
X117689Y61099D01*
X117700Y61094D01*
X117711Y61089D01*
X117723Y61082D01*
X117734Y61074D01*
X117745Y61065D01*
X117756Y61055D01*
X117756Y61054D01*
X117758Y61053D01*
X117761Y61049D01*
X117764Y61044D01*
X117768Y61039D01*
X117773Y61032D01*
X117778Y61024D01*
X117783Y61014D01*
X117788Y61004D01*
X117793Y60993D01*
X117798Y60980D01*
X117802Y60967D01*
X117806Y60953D01*
X117808Y60937D01*
X117810Y60921D01*
X117811Y60904D01*
Y60903D01*
Y60899D01*
Y60894D01*
X117810Y60888D01*
X117809Y60879D01*
X117807Y60869D01*
X117806Y60859D01*
X117803Y60848D01*
X117796Y60823D01*
X117792Y60809D01*
X117786Y60796D01*
X117780Y60784D01*
X117772Y60770D01*
X117764Y60759D01*
X117754Y60747D01*
X117753Y60746D01*
X117751Y60744D01*
X117748Y60741D01*
X117744Y60738D01*
X117738Y60733D01*
X117731Y60728D01*
X117723Y60723D01*
X117714Y60717D01*
X117705Y60711D01*
X117693Y60706D01*
X117682Y60701D01*
X117669Y60696D01*
X117656Y60693D01*
X117641Y60690D01*
X117626Y60688D01*
X117610Y60687D01*
X117604D01*
X117599Y60688D01*
X117594D01*
X117587Y60689D01*
X117572Y60691D01*
X117555Y60695D01*
X117536Y60701D01*
X117516Y60709D01*
X117496Y60721D01*
X117495D01*
X117493Y60723D01*
X117491Y60724D01*
X117487Y60727D01*
X117478Y60735D01*
X117467Y60745D01*
X117454Y60759D01*
X117441Y60775D01*
X117428Y60794D01*
X117417Y60817D01*
Y60818D01*
X117417Y60819D01*
X117415Y60824D01*
X117413Y60829D01*
X117411Y60835D01*
X117409Y60843D01*
X117407Y60852D01*
X117403Y60863D01*
X117401Y60875D01*
X117398Y60889D01*
X117397Y60903D01*
X117394Y60919D01*
X117392Y60937D01*
X117391Y60955D01*
X117390Y60975D01*
Y60997D01*
Y60999D01*
Y61002D01*
Y61009D01*
Y61017D01*
X117391Y61028D01*
X117392Y61039D01*
X117392Y61053D01*
X117393Y61068D01*
X117395Y61083D01*
X117397Y61099D01*
X117401Y61132D01*
X117407Y61164D01*
X117412Y61179D01*
X117417Y61193D01*
Y61194D01*
X117417Y61196D01*
X117419Y61199D01*
X117422Y61204D01*
X117424Y61211D01*
X117427Y61218D01*
X117437Y61234D01*
X117447Y61252D01*
X117462Y61270D01*
X117477Y61288D01*
X117497Y61304D01*
X117497D01*
X117499Y61305D01*
X117502Y61307D01*
X117506Y61309D01*
X117511Y61312D01*
X117517Y61315D01*
X117524Y61319D01*
X117532Y61322D01*
X117550Y61329D01*
X117571Y61335D01*
X117594Y61339D01*
X117607Y61340D01*
X117620Y61341D01*
X117627D01*
X117632Y61340D01*
D02*
G37*
G36*
X118922Y60690D02*
X118624D01*
X118616Y60690D01*
X118609D01*
X118600Y60691D01*
X118590Y60692D01*
X118569Y60694D01*
X118547Y60697D01*
X118526Y60701D01*
X118516Y60704D01*
X118508Y60707D01*
X118507D01*
X118506Y60708D01*
X118504Y60709D01*
X118500Y60710D01*
X118492Y60715D01*
X118482Y60721D01*
X118470Y60729D01*
X118459Y60740D01*
X118447Y60754D01*
X118436Y60769D01*
Y60769D01*
X118435Y60770D01*
X118434Y60773D01*
X118432Y60776D01*
X118428Y60785D01*
X118423Y60797D01*
X118418Y60811D01*
X118414Y60828D01*
X118410Y60846D01*
X118410Y60865D01*
Y60866D01*
Y60869D01*
Y60872D01*
X118410Y60877D01*
X118411Y60883D01*
X118412Y60889D01*
X118415Y60905D01*
X118420Y60924D01*
X118428Y60943D01*
X118433Y60952D01*
X118439Y60962D01*
X118446Y60971D01*
X118454Y60980D01*
X118455Y60981D01*
X118455Y60982D01*
X118459Y60984D01*
X118462Y60988D01*
X118467Y60991D01*
X118473Y60995D01*
X118480Y61000D01*
X118487Y61005D01*
X118496Y61010D01*
X118506Y61015D01*
X118518Y61020D01*
X118530Y61025D01*
X118544Y61029D01*
X118558Y61034D01*
X118574Y61037D01*
X118590Y61039D01*
X118589Y61040D01*
X118585Y61042D01*
X118579Y61045D01*
X118571Y61049D01*
X118555Y61060D01*
X118547Y61066D01*
X118540Y61072D01*
X118539D01*
X118538Y61074D01*
X118533Y61078D01*
X118526Y61085D01*
X118516Y61095D01*
X118505Y61107D01*
X118494Y61122D01*
X118481Y61139D01*
X118469Y61157D01*
X118358Y61330D01*
X118465D01*
X118549Y61198D01*
Y61197D01*
X118550Y61195D01*
X118552Y61192D01*
X118555Y61189D01*
X118558Y61184D01*
X118562Y61178D01*
X118570Y61165D01*
X118580Y61151D01*
X118590Y61137D01*
X118600Y61123D01*
X118610Y61110D01*
X118611Y61109D01*
X118615Y61105D01*
X118619Y61099D01*
X118625Y61094D01*
X118631Y61086D01*
X118639Y61079D01*
X118646Y61073D01*
X118654Y61067D01*
X118655Y61066D01*
X118657Y61065D01*
X118660Y61063D01*
X118665Y61060D01*
X118671Y61057D01*
X118678Y61054D01*
X118692Y61049D01*
X118693D01*
X118695Y61049D01*
X118698D01*
X118703Y61048D01*
X118710Y61047D01*
X118718D01*
X118727Y61046D01*
X118837D01*
Y61330D01*
X118922D01*
Y60690D01*
D02*
G37*
G36*
X118320Y61329D02*
Y61325D01*
Y61320D01*
X118319Y61313D01*
X118318Y61304D01*
X118316Y61295D01*
X118314Y61286D01*
X118311Y61276D01*
Y61275D01*
X118310Y61274D01*
X118309Y61272D01*
X118307Y61269D01*
X118304Y61260D01*
X118298Y61249D01*
X118291Y61236D01*
X118282Y61222D01*
X118271Y61207D01*
X118259Y61191D01*
X118258Y61190D01*
X118257Y61189D01*
X118255Y61187D01*
X118252Y61184D01*
X118244Y61174D01*
X118232Y61163D01*
X118218Y61149D01*
X118201Y61132D01*
X118180Y61114D01*
X118156Y61094D01*
X118155Y61093D01*
X118151Y61089D01*
X118146Y61085D01*
X118139Y61079D01*
X118131Y61072D01*
X118121Y61064D01*
X118110Y61054D01*
X118099Y61044D01*
X118076Y61023D01*
X118052Y61000D01*
X118041Y60989D01*
X118031Y60978D01*
X118022Y60968D01*
X118015Y60958D01*
X118014Y60957D01*
X118013Y60955D01*
X118011Y60953D01*
X118009Y60949D01*
X118006Y60944D01*
X118003Y60939D01*
X117996Y60927D01*
X117989Y60913D01*
X117983Y60897D01*
X117979Y60879D01*
X117977Y60871D01*
Y60863D01*
Y60862D01*
Y60860D01*
Y60859D01*
X117978Y60855D01*
X117979Y60846D01*
X117981Y60835D01*
X117986Y60823D01*
X117991Y60810D01*
X118000Y60797D01*
X118011Y60784D01*
X118013Y60783D01*
X118017Y60779D01*
X118025Y60774D01*
X118035Y60768D01*
X118047Y60762D01*
X118062Y60757D01*
X118080Y60754D01*
X118099Y60752D01*
X118105D01*
X118108Y60753D01*
X118113D01*
X118119Y60754D01*
X118131Y60756D01*
X118146Y60760D01*
X118161Y60766D01*
X118176Y60774D01*
X118190Y60786D01*
X118191Y60788D01*
X118195Y60792D01*
X118201Y60800D01*
X118206Y60810D01*
X118213Y60824D01*
X118219Y60840D01*
X118222Y60859D01*
X118224Y60880D01*
X118305Y60872D01*
Y60871D01*
X118304Y60868D01*
Y60864D01*
X118303Y60857D01*
X118301Y60849D01*
X118300Y60841D01*
X118297Y60831D01*
X118294Y60821D01*
X118286Y60799D01*
X118281Y60787D01*
X118276Y60776D01*
X118269Y60764D01*
X118261Y60754D01*
X118253Y60744D01*
X118243Y60735D01*
X118242Y60734D01*
X118241Y60733D01*
X118237Y60730D01*
X118233Y60727D01*
X118227Y60724D01*
X118221Y60720D01*
X118213Y60715D01*
X118204Y60710D01*
X118194Y60706D01*
X118183Y60702D01*
X118171Y60698D01*
X118158Y60695D01*
X118145Y60691D01*
X118130Y60689D01*
X118114Y60688D01*
X118097Y60687D01*
X118088D01*
X118082Y60688D01*
X118074Y60689D01*
X118065Y60690D01*
X118055Y60691D01*
X118044Y60694D01*
X118021Y60700D01*
X118009Y60704D01*
X117996Y60709D01*
X117984Y60715D01*
X117972Y60722D01*
X117961Y60729D01*
X117951Y60739D01*
X117950Y60739D01*
X117948Y60741D01*
X117946Y60744D01*
X117942Y60748D01*
X117938Y60753D01*
X117933Y60759D01*
X117929Y60765D01*
X117923Y60774D01*
X117918Y60782D01*
X117914Y60792D01*
X117905Y60814D01*
X117901Y60825D01*
X117899Y60838D01*
X117897Y60851D01*
X117896Y60865D01*
Y60867D01*
Y60872D01*
X117897Y60879D01*
X117898Y60889D01*
X117901Y60900D01*
X117903Y60914D01*
X117907Y60927D01*
X117912Y60941D01*
X117913Y60943D01*
X117916Y60948D01*
X117919Y60955D01*
X117925Y60964D01*
X117932Y60976D01*
X117941Y60989D01*
X117952Y61004D01*
X117965Y61019D01*
Y61020D01*
X117966Y61021D01*
X117969Y61024D01*
X117971Y61027D01*
X117976Y61031D01*
X117981Y61036D01*
X117986Y61042D01*
X117994Y61049D01*
X118001Y61056D01*
X118011Y61064D01*
X118021Y61074D01*
X118031Y61084D01*
X118044Y61095D01*
X118056Y61106D01*
X118071Y61119D01*
X118086Y61132D01*
X118087Y61133D01*
X118090Y61134D01*
X118093Y61138D01*
X118098Y61141D01*
X118103Y61146D01*
X118110Y61152D01*
X118124Y61164D01*
X118140Y61178D01*
X118155Y61191D01*
X118161Y61197D01*
X118167Y61203D01*
X118173Y61209D01*
X118177Y61213D01*
X118178Y61214D01*
X118181Y61216D01*
X118184Y61220D01*
X118189Y61226D01*
X118194Y61232D01*
X118200Y61239D01*
X118211Y61254D01*
X117896D01*
Y61330D01*
X118320D01*
Y61329D01*
D02*
G37*
%LPC*%
G36*
X117105Y156725D02*
X117100D01*
X117096Y156724D01*
X117092D01*
X117086Y156723D01*
X117073Y156720D01*
X117059Y156715D01*
X117044Y156709D01*
X117030Y156700D01*
X117022Y156694D01*
X117016Y156687D01*
X117015Y156686D01*
X117014Y156685D01*
X117012Y156683D01*
X117010Y156680D01*
X117007Y156676D01*
X117004Y156671D01*
X116998Y156660D01*
X116992Y156645D01*
X116986Y156626D01*
X116982Y156605D01*
X116980Y156593D01*
Y156580D01*
Y156580D01*
Y156577D01*
Y156574D01*
X116981Y156570D01*
Y156564D01*
X116982Y156557D01*
X116984Y156541D01*
X116988Y156525D01*
X116995Y156506D01*
X117004Y156489D01*
X117009Y156480D01*
X117016Y156473D01*
Y156472D01*
X117018Y156471D01*
X117022Y156466D01*
X117030Y156460D01*
X117040Y156453D01*
X117052Y156445D01*
X117067Y156439D01*
X117085Y156435D01*
X117094Y156434D01*
X117103Y156433D01*
X117108D01*
X117112Y156434D01*
X117117Y156435D01*
X117122Y156436D01*
X117134Y156438D01*
X117148Y156444D01*
X117164Y156451D01*
X117172Y156456D01*
X117179Y156462D01*
X117187Y156469D01*
X117194Y156476D01*
Y156477D01*
X117196Y156478D01*
X117197Y156480D01*
X117200Y156484D01*
X117203Y156488D01*
X117207Y156493D01*
X117210Y156500D01*
X117213Y156506D01*
X117220Y156522D01*
X117227Y156541D01*
X117231Y156563D01*
X117232Y156575D01*
X117232Y156587D01*
Y156588D01*
Y156590D01*
Y156593D01*
X117232Y156597D01*
Y156603D01*
X117231Y156609D01*
X117228Y156623D01*
X117223Y156639D01*
X117217Y156655D01*
X117208Y156672D01*
X117203Y156680D01*
X117197Y156687D01*
X117196D01*
X117195Y156689D01*
X117190Y156693D01*
X117182Y156699D01*
X117172Y156705D01*
X117158Y156713D01*
X117142Y156719D01*
X117125Y156723D01*
X117115Y156724D01*
X117105Y156725D01*
D02*
G37*
G36*
X118837Y156654D02*
X118641D01*
X118635Y156653D01*
X118622Y156652D01*
X118608Y156651D01*
X118592Y156649D01*
X118578Y156646D01*
X118565Y156642D01*
X118563Y156641D01*
X118559Y156640D01*
X118553Y156637D01*
X118545Y156633D01*
X118538Y156628D01*
X118530Y156621D01*
X118521Y156613D01*
X118515Y156604D01*
X118514Y156603D01*
X118512Y156599D01*
X118509Y156594D01*
X118505Y156586D01*
X118503Y156578D01*
X118500Y156568D01*
X118498Y156558D01*
X118497Y156546D01*
Y156545D01*
Y156545D01*
Y156542D01*
X118498Y156539D01*
X118499Y156530D01*
X118501Y156520D01*
X118505Y156508D01*
X118511Y156495D01*
X118520Y156483D01*
X118530Y156471D01*
X118532Y156470D01*
X118537Y156466D01*
X118545Y156462D01*
X118556Y156456D01*
X118563Y156454D01*
X118570Y156450D01*
X118579Y156448D01*
X118589Y156446D01*
X118599Y156444D01*
X118610Y156443D01*
X118622Y156441D01*
X118837D01*
Y156654D01*
D02*
G37*
G36*
X117602Y156957D02*
X117597D01*
X117593Y156956D01*
X117589Y156955D01*
X117583Y156955D01*
X117571Y156950D01*
X117557Y156945D01*
X117549Y156940D01*
X117542Y156935D01*
X117533Y156930D01*
X117526Y156922D01*
X117518Y156915D01*
X117512Y156905D01*
X117511Y156905D01*
X117510Y156903D01*
X117508Y156900D01*
X117506Y156895D01*
X117503Y156889D01*
X117500Y156880D01*
X117497Y156871D01*
X117492Y156860D01*
X117489Y156846D01*
X117486Y156831D01*
X117482Y156814D01*
X117480Y156795D01*
X117477Y156773D01*
X117476Y156750D01*
X117474Y156724D01*
Y156695D01*
Y156695D01*
Y156694D01*
Y156689D01*
Y156680D01*
X117475Y156670D01*
Y156657D01*
X117476Y156643D01*
X117477Y156626D01*
X117479Y156610D01*
X117483Y156575D01*
X117487Y156557D01*
X117490Y156540D01*
X117494Y156524D01*
X117499Y156510D01*
X117505Y156496D01*
X117512Y156485D01*
Y156485D01*
X117513Y156483D01*
X117515Y156480D01*
X117518Y156477D01*
X117526Y156469D01*
X117537Y156459D01*
X117550Y156450D01*
X117566Y156441D01*
X117574Y156438D01*
X117583Y156436D01*
X117593Y156434D01*
X117603Y156433D01*
X117608D01*
X117612Y156434D01*
X117622Y156436D01*
X117634Y156439D01*
X117648Y156445D01*
X117662Y156453D01*
X117670Y156458D01*
X117676Y156464D01*
X117683Y156471D01*
X117690Y156480D01*
X117691Y156480D01*
X117691Y156482D01*
X117693Y156486D01*
X117696Y156491D01*
X117699Y156498D01*
X117702Y156506D01*
X117706Y156516D01*
X117710Y156529D01*
X117713Y156542D01*
X117717Y156558D01*
X117721Y156575D01*
X117723Y156595D01*
X117726Y156617D01*
X117728Y156641D01*
X117729Y156667D01*
X117730Y156695D01*
Y156696D01*
Y156697D01*
Y156702D01*
Y156710D01*
X117729Y156721D01*
Y156734D01*
X117728Y156748D01*
X117726Y156764D01*
X117725Y156781D01*
X117721Y156816D01*
X117718Y156834D01*
X117714Y156850D01*
X117710Y156867D01*
X117705Y156881D01*
X117700Y156895D01*
X117693Y156905D01*
X117692Y156906D01*
X117691Y156908D01*
X117689Y156910D01*
X117687Y156914D01*
X117679Y156922D01*
X117668Y156931D01*
X117655Y156940D01*
X117639Y156949D01*
X117631Y156952D01*
X117622Y156955D01*
X117612Y156956D01*
X117602Y156957D01*
D02*
G37*
G36*
X118837Y124854D02*
X118641D01*
X118635Y124853D01*
X118622Y124852D01*
X118608Y124851D01*
X118592Y124849D01*
X118578Y124846D01*
X118565Y124842D01*
X118563Y124841D01*
X118559Y124840D01*
X118553Y124837D01*
X118545Y124833D01*
X118538Y124828D01*
X118530Y124821D01*
X118521Y124813D01*
X118515Y124804D01*
X118514Y124803D01*
X118512Y124799D01*
X118509Y124794D01*
X118505Y124786D01*
X118503Y124778D01*
X118500Y124768D01*
X118498Y124758D01*
X118497Y124746D01*
Y124745D01*
Y124745D01*
Y124742D01*
X118498Y124739D01*
X118499Y124730D01*
X118501Y124720D01*
X118505Y124708D01*
X118511Y124695D01*
X118520Y124683D01*
X118530Y124671D01*
X118532Y124670D01*
X118537Y124666D01*
X118545Y124662D01*
X118556Y124656D01*
X118563Y124654D01*
X118570Y124650D01*
X118579Y124648D01*
X118589Y124646D01*
X118599Y124644D01*
X118610Y124643D01*
X118622Y124641D01*
X118837D01*
Y124854D01*
D02*
G37*
G36*
X118864Y92850D02*
X118668D01*
X118662Y92849D01*
X118649Y92848D01*
X118635Y92847D01*
X118619Y92845D01*
X118605Y92842D01*
X118592Y92838D01*
X118590Y92837D01*
X118586Y92836D01*
X118580Y92833D01*
X118572Y92829D01*
X118565Y92824D01*
X118557Y92817D01*
X118548Y92809D01*
X118542Y92800D01*
X118541Y92799D01*
X118539Y92795D01*
X118536Y92790D01*
X118532Y92782D01*
X118530Y92774D01*
X118527Y92764D01*
X118525Y92754D01*
X118524Y92742D01*
Y92741D01*
Y92741D01*
Y92738D01*
X118525Y92735D01*
X118526Y92726D01*
X118528Y92716D01*
X118532Y92704D01*
X118538Y92691D01*
X118547Y92679D01*
X118557Y92667D01*
X118559Y92666D01*
X118564Y92662D01*
X118572Y92658D01*
X118583Y92652D01*
X118590Y92650D01*
X118597Y92646D01*
X118606Y92644D01*
X118616Y92642D01*
X118626Y92640D01*
X118637Y92639D01*
X118649Y92637D01*
X118864D01*
Y92850D01*
D02*
G37*
G36*
X117629Y93153D02*
X117624D01*
X117620Y93152D01*
X117616Y93151D01*
X117610Y93151D01*
X117598Y93146D01*
X117584Y93141D01*
X117576Y93136D01*
X117569Y93131D01*
X117560Y93126D01*
X117553Y93118D01*
X117545Y93111D01*
X117539Y93101D01*
X117538Y93101D01*
X117537Y93099D01*
X117535Y93096D01*
X117533Y93091D01*
X117530Y93085D01*
X117527Y93076D01*
X117524Y93067D01*
X117519Y93056D01*
X117516Y93042D01*
X117513Y93027D01*
X117509Y93010D01*
X117507Y92991D01*
X117504Y92969D01*
X117503Y92946D01*
X117501Y92920D01*
Y92891D01*
Y92891D01*
Y92890D01*
Y92885D01*
Y92876D01*
X117502Y92866D01*
Y92853D01*
X117503Y92839D01*
X117504Y92822D01*
X117506Y92806D01*
X117510Y92771D01*
X117514Y92753D01*
X117517Y92736D01*
X117521Y92720D01*
X117526Y92706D01*
X117532Y92692D01*
X117539Y92681D01*
Y92681D01*
X117540Y92679D01*
X117542Y92676D01*
X117545Y92673D01*
X117553Y92665D01*
X117564Y92655D01*
X117577Y92646D01*
X117593Y92637D01*
X117601Y92634D01*
X117610Y92631D01*
X117620Y92630D01*
X117630Y92629D01*
X117635D01*
X117639Y92630D01*
X117649Y92631D01*
X117661Y92635D01*
X117675Y92641D01*
X117689Y92649D01*
X117697Y92654D01*
X117703Y92660D01*
X117710Y92667D01*
X117717Y92676D01*
X117718Y92676D01*
X117718Y92678D01*
X117720Y92682D01*
X117723Y92687D01*
X117726Y92694D01*
X117729Y92702D01*
X117733Y92712D01*
X117737Y92725D01*
X117740Y92738D01*
X117744Y92754D01*
X117748Y92771D01*
X117750Y92791D01*
X117753Y92813D01*
X117755Y92837D01*
X117756Y92863D01*
X117757Y92891D01*
Y92892D01*
Y92893D01*
Y92898D01*
Y92906D01*
X117756Y92917D01*
Y92930D01*
X117755Y92944D01*
X117753Y92960D01*
X117752Y92977D01*
X117748Y93012D01*
X117745Y93030D01*
X117741Y93046D01*
X117737Y93063D01*
X117732Y93077D01*
X117727Y93091D01*
X117720Y93101D01*
X117719Y93102D01*
X117718Y93104D01*
X117716Y93106D01*
X117714Y93110D01*
X117706Y93118D01*
X117695Y93127D01*
X117682Y93136D01*
X117666Y93145D01*
X117658Y93148D01*
X117649Y93151D01*
X117639Y93152D01*
X117629Y93153D01*
D02*
G37*
G36*
X117602Y61044D02*
X117597D01*
X117593Y61043D01*
X117589D01*
X117583Y61042D01*
X117571Y61039D01*
X117557Y61034D01*
X117542Y61028D01*
X117527Y61019D01*
X117520Y61013D01*
X117513Y61006D01*
X117512Y61005D01*
X117512Y61004D01*
X117510Y61002D01*
X117507Y60999D01*
X117505Y60995D01*
X117502Y60990D01*
X117495Y60979D01*
X117489Y60964D01*
X117483Y60945D01*
X117479Y60924D01*
X117477Y60912D01*
Y60899D01*
Y60899D01*
Y60896D01*
Y60893D01*
X117478Y60889D01*
Y60883D01*
X117479Y60876D01*
X117482Y60860D01*
X117486Y60844D01*
X117492Y60825D01*
X117502Y60808D01*
X117507Y60799D01*
X117513Y60792D01*
Y60791D01*
X117515Y60790D01*
X117520Y60785D01*
X117527Y60779D01*
X117537Y60772D01*
X117550Y60764D01*
X117565Y60758D01*
X117582Y60754D01*
X117592Y60753D01*
X117601Y60752D01*
X117606D01*
X117610Y60753D01*
X117614Y60754D01*
X117619Y60754D01*
X117632Y60757D01*
X117646Y60763D01*
X117661Y60770D01*
X117669Y60775D01*
X117676Y60781D01*
X117684Y60788D01*
X117691Y60795D01*
Y60796D01*
X117693Y60797D01*
X117695Y60799D01*
X117697Y60803D01*
X117701Y60807D01*
X117704Y60812D01*
X117707Y60819D01*
X117711Y60825D01*
X117717Y60841D01*
X117724Y60860D01*
X117728Y60882D01*
X117729Y60894D01*
X117730Y60906D01*
Y60907D01*
Y60909D01*
Y60912D01*
X117729Y60916D01*
Y60922D01*
X117728Y60928D01*
X117726Y60942D01*
X117721Y60958D01*
X117715Y60974D01*
X117706Y60991D01*
X117701Y60999D01*
X117694Y61006D01*
X117693D01*
X117692Y61008D01*
X117687Y61012D01*
X117680Y61018D01*
X117669Y61024D01*
X117656Y61032D01*
X117640Y61038D01*
X117622Y61042D01*
X117612Y61043D01*
X117602Y61044D01*
D02*
G37*
G36*
X118837Y60973D02*
X118641D01*
X118635Y60972D01*
X118622Y60971D01*
X118608Y60970D01*
X118592Y60968D01*
X118578Y60965D01*
X118565Y60961D01*
X118563Y60960D01*
X118559Y60959D01*
X118553Y60956D01*
X118545Y60952D01*
X118538Y60947D01*
X118530Y60940D01*
X118521Y60932D01*
X118515Y60923D01*
X118514Y60922D01*
X118512Y60918D01*
X118509Y60913D01*
X118505Y60905D01*
X118503Y60897D01*
X118500Y60887D01*
X118498Y60877D01*
X118497Y60865D01*
Y60864D01*
Y60864D01*
Y60861D01*
X118498Y60858D01*
X118499Y60849D01*
X118501Y60839D01*
X118505Y60827D01*
X118511Y60814D01*
X118520Y60802D01*
X118530Y60790D01*
X118532Y60789D01*
X118537Y60785D01*
X118545Y60781D01*
X118556Y60775D01*
X118563Y60773D01*
X118570Y60769D01*
X118579Y60767D01*
X118589Y60765D01*
X118599Y60763D01*
X118610Y60762D01*
X118622Y60760D01*
X118837D01*
Y60973D01*
D02*
G37*
%LPD*%
D82*
X134352Y151672D02*
Y162372D01*
X103492D02*
X134352D01*
X103492Y151672D02*
Y162372D01*
Y151672D02*
X134352D01*
X218114Y71283D02*
Y82883D01*
X209114Y71283D02*
X218114D01*
X209114D02*
Y82883D01*
X218114D01*
X208860Y125772D02*
Y137372D01*
X217860D01*
Y125772D02*
Y137372D01*
X208860Y125772D02*
X217860D01*
X134352Y119872D02*
Y130572D01*
X103492D02*
X134352D01*
X103492Y119872D02*
Y130572D01*
Y119872D02*
X134352D01*
X103519Y87868D02*
X134379D01*
X103519D02*
Y98568D01*
X134379D01*
Y87868D02*
Y98568D01*
X134352Y55991D02*
Y66691D01*
X103492D02*
X134352D01*
X103492Y55991D02*
Y66691D01*
Y55991D02*
X134352D01*
D83*
X222143Y108356D02*
Y107856D01*
Y108106D01*
X223393D01*
X223643Y107856D01*
Y107607D01*
X223393Y107357D01*
X223643Y108856D02*
Y109356D01*
Y109106D01*
X222143D01*
X222393Y108856D01*
Y110106D02*
X222143Y110356D01*
Y110856D01*
X222393Y111105D01*
X222643D01*
X222893Y110856D01*
Y110606D01*
Y110856D01*
X223143Y111105D01*
X223393D01*
X223643Y110856D01*
Y110356D01*
X223393Y110106D01*
X222143Y98977D02*
Y98477D01*
Y98727D01*
X223393D01*
X223643Y98477D01*
Y98228D01*
X223393Y97978D01*
X223643Y100477D02*
Y99477D01*
X222643Y100477D01*
X222393D01*
X222143Y100227D01*
Y99727D01*
X222393Y99477D01*
X222143Y75990D02*
Y75490D01*
Y75740D01*
X223393D01*
X223643Y75490D01*
Y75241D01*
X223393Y74991D01*
X223643Y77240D02*
X222143D01*
X222893Y76490D01*
Y77490D01*
X222143Y132247D02*
Y131747D01*
Y131997D01*
X223393D01*
X223643Y131747D01*
Y131497D01*
X223393Y131248D01*
X223643Y132747D02*
Y133247D01*
Y132997D01*
X222143D01*
X222393Y132747D01*
X171493Y163469D02*
X171992D01*
X171743D01*
Y164719D01*
X171992Y164969D01*
X172242D01*
X172492Y164719D01*
X169993Y163469D02*
X170993D01*
Y164219D01*
X170493Y163969D01*
X170243D01*
X169993Y164219D01*
Y164719D01*
X170243Y164969D01*
X170743D01*
X170993Y164719D01*
X35929Y157974D02*
Y158474D01*
Y158224D01*
X34679D01*
X34429Y158474D01*
Y158723D01*
X34679Y158973D01*
X34429Y157474D02*
Y156974D01*
Y157224D01*
X35929D01*
X35679Y157474D01*
Y156224D02*
X35929Y155974D01*
Y155475D01*
X35679Y155225D01*
X34679D01*
X34429Y155475D01*
Y155974D01*
X34679Y156224D01*
X35679D01*
X35921Y125432D02*
Y125932D01*
Y125682D01*
X34671D01*
X34421Y125932D01*
Y126181D01*
X34671Y126431D01*
X35671Y124932D02*
X35921Y124682D01*
Y124182D01*
X35671Y123932D01*
X35421D01*
X35171Y124182D01*
Y124432D01*
Y124182D01*
X34921Y123932D01*
X34671D01*
X34421Y124182D01*
Y124682D01*
X34671Y124932D01*
X35929Y92833D02*
Y93333D01*
Y93083D01*
X34679D01*
X34429Y93333D01*
Y93583D01*
X34679Y93833D01*
Y92333D02*
X34429Y92083D01*
Y91583D01*
X34679Y91333D01*
X35679D01*
X35929Y91583D01*
Y92083D01*
X35679Y92333D01*
X35429D01*
X35179Y92083D01*
Y91333D01*
X35929Y61464D02*
Y61964D01*
Y61714D01*
X34679D01*
X34429Y61964D01*
Y62214D01*
X34679Y62464D01*
X35679Y60964D02*
X35929Y60714D01*
Y60214D01*
X35679Y59964D01*
X35429D01*
X35179Y60214D01*
X34929Y59964D01*
X34679D01*
X34429Y60214D01*
Y60714D01*
X34679Y60964D01*
X34929D01*
X35179Y60714D01*
X35429Y60964D01*
X35679D01*
X35179Y60714D02*
Y60214D01*
D117*
X220043Y114231D02*
X227393D01*
X218393D02*
X219343D01*
X218393Y104231D02*
Y114231D01*
X227393Y104231D02*
Y114231D01*
X225243Y104231D02*
X227393D01*
X218393D02*
X224543D01*
X224293Y103631D02*
X225493D01*
X225243Y104231D02*
X225493Y103631D01*
X224293D02*
X224543Y104231D01*
X219093Y114831D02*
X219343Y114231D01*
X219093Y114831D02*
X220293D01*
X220043Y114231D02*
X220293Y114831D01*
X220043Y104227D02*
X227393D01*
X218393D02*
X219343D01*
X218393Y94227D02*
Y104227D01*
X227393Y94227D02*
Y104227D01*
X225243Y94227D02*
X227393D01*
X218393D02*
X224543D01*
X224293Y93627D02*
X225493D01*
X225243Y94227D02*
X225493Y93627D01*
X224293D02*
X224543Y94227D01*
X219093Y104827D02*
X219343Y104227D01*
X219093Y104827D02*
X220293D01*
X220043Y104227D02*
X220293Y104827D01*
X220043Y81240D02*
X220293Y81840D01*
X219093D02*
X220293D01*
X219093D02*
X219343Y81240D01*
X224293Y70640D02*
X224543Y71240D01*
X225243D02*
X225493Y70640D01*
X224293D02*
X225493D01*
X218393Y71240D02*
X224543D01*
X225243D02*
X227393D01*
Y81240D01*
X218393Y71240D02*
Y81240D01*
X219343D01*
X220043D02*
X227393D01*
X220043Y137247D02*
X220293Y137847D01*
X219093D02*
X220293D01*
X219093D02*
X219343Y137247D01*
X224293Y126647D02*
X224543Y127247D01*
X225243D02*
X225493Y126647D01*
X224293D02*
X225493D01*
X218393Y127247D02*
X224543D01*
X225243D02*
X227393D01*
Y137247D01*
X218393Y127247D02*
Y137247D01*
X219343D01*
X220043D02*
X227393D01*
X163143Y161619D02*
X163743Y161369D01*
X163143Y160419D02*
Y161619D01*
Y160419D02*
X163743Y160669D01*
Y159719D02*
Y160669D01*
Y161369D02*
Y168719D01*
Y159719D02*
X178743D01*
X163743Y168719D02*
X178743D01*
Y166569D02*
Y168719D01*
Y159719D02*
Y165869D01*
X179343Y165619D02*
Y166819D01*
X178743Y166569D02*
X179343Y166819D01*
X178743Y165869D02*
X179343Y165619D01*
X37779Y151499D02*
X38029Y152099D01*
X37779Y151499D02*
X38979D01*
X38729Y152099D02*
X38979Y151499D01*
X33529Y162099D02*
X33779Y162699D01*
X32579D02*
X32829Y162099D01*
X32579Y162699D02*
X33779D01*
X33529Y162099D02*
X39679D01*
X30679D02*
X32829D01*
X30679Y152099D02*
Y162099D01*
X39679Y152099D02*
Y162099D01*
X38729Y152099D02*
X39679D01*
X30679D02*
X38029D01*
X37771Y119582D02*
X38021Y120182D01*
X37771Y119582D02*
X38971D01*
X38721Y120182D02*
X38971Y119582D01*
X33521Y130182D02*
X33771Y130782D01*
X32571D02*
X32821Y130182D01*
X32571Y130782D02*
X33771D01*
X33521Y130182D02*
X39671D01*
X30671D02*
X32821D01*
X30671Y120182D02*
Y130182D01*
X39671Y120182D02*
Y130182D01*
X38721Y120182D02*
X39671D01*
X30671D02*
X38021D01*
X37779Y86983D02*
X38029Y87583D01*
X37779Y86983D02*
X38979D01*
X38729Y87583D02*
X38979Y86983D01*
X33529Y97583D02*
X33779Y98183D01*
X32579D02*
X32829Y97583D01*
X32579Y98183D02*
X33779D01*
X33529Y97583D02*
X39679D01*
X30679D02*
X32829D01*
X30679Y87583D02*
Y97583D01*
X39679Y87583D02*
Y97583D01*
X38729Y87583D02*
X39679D01*
X30679D02*
X38029D01*
X37779Y55614D02*
X38029Y56214D01*
X37779Y55614D02*
X38979D01*
X38729Y56214D02*
X38979Y55614D01*
X33529Y66214D02*
X33779Y66814D01*
X32579D02*
X32829Y66214D01*
X32579Y66814D02*
X33779D01*
X33529Y66214D02*
X39679D01*
X30679D02*
X32829D01*
X30679Y56214D02*
Y66214D01*
X39679Y56214D02*
Y66214D01*
X38729Y56214D02*
X39679D01*
X30679D02*
X38029D01*
%TF.MD5,70ef4c9f2195bcf0f8e95f391810f575*%
M02*
