%TF.GenerationSoftware,Altium Limited,Altium Designer,21.6.4 (81)*%
G04 Layer_Color=8388736*
%FSLAX43Y43*%
%MOMM*%
%TF.SameCoordinates,5D8205C6-A8A5-4108-8313-488A8EE5113E*%
%TF.FilePolarity,Positive*%
%TF.FileFunction,Other,Bottom_Component_Center*%
%TF.Part,Single*%
G01*
G75*
%TA.AperFunction,NonConductor*%
%ADD117C,0.100*%
D117*
X71624Y47625D02*
X72624D01*
X72124Y47125D02*
Y48125D01*
X71751Y58928D02*
X72751D01*
X72251Y58428D02*
Y59428D01*
X71751Y63627D02*
X72751D01*
X72251Y63127D02*
Y64127D01*
X71624Y79629D02*
X72624D01*
X72124Y79129D02*
Y80129D01*
X71751Y91059D02*
X72751D01*
X72251Y90559D02*
Y91559D01*
X71751Y95504D02*
X72751D01*
X72251Y95004D02*
Y96004D01*
X71751Y106934D02*
X72751D01*
X72251Y106434D02*
Y107434D01*
X71763Y111379D02*
X72763D01*
X72263Y110879D02*
Y111879D01*
X71890Y122936D02*
X72890D01*
X72390Y122436D02*
Y123436D01*
X71763Y127381D02*
X72763D01*
X72263Y126881D02*
Y127881D01*
X71636Y138938D02*
X72636D01*
X72136Y138438D02*
Y139438D01*
X71624Y143510D02*
X72624D01*
X72124Y143010D02*
Y144010D01*
X71763Y154940D02*
X72763D01*
X72263Y154440D02*
Y155440D01*
X71763Y159385D02*
X72763D01*
X72263Y158885D02*
Y159885D01*
X71763Y170688D02*
X72763D01*
X72263Y170188D02*
Y171188D01*
X71763Y75057D02*
X72763D01*
X72263Y74557D02*
Y75557D01*
X102870Y80272D02*
Y81272D01*
X102370Y80772D02*
X103370D01*
X102743Y89670D02*
Y90670D01*
X102243Y90170D02*
X103243D01*
X102967Y153170D02*
Y154170D01*
X102467Y153670D02*
X103467D01*
X123071Y160147D02*
X124071D01*
X123571Y159647D02*
Y160647D01*
X123071Y80518D02*
X124071D01*
X123571Y80018D02*
Y81018D01*
X123071Y64389D02*
X124071D01*
X123571Y63889D02*
Y64889D01*
X123071Y48641D02*
X124071D01*
X123571Y48141D02*
Y49141D01*
X124714Y57285D02*
Y58285D01*
X124214Y57785D02*
X125214D01*
X124714Y72906D02*
Y73906D01*
X124214Y73406D02*
X125214D01*
X124714Y89416D02*
Y90416D01*
X124214Y89916D02*
X125214D01*
X124714Y104529D02*
Y105529D01*
X124214Y105029D02*
X125214D01*
X124714Y121039D02*
Y122039D01*
X124214Y121539D02*
X125214D01*
X124714Y136660D02*
Y137660D01*
X124214Y137160D02*
X125214D01*
X124587Y153170D02*
Y154170D01*
X124087Y153670D02*
X125087D01*
X124682Y168791D02*
Y169791D01*
X124182Y169291D02*
X125182D01*
X116721Y169418D02*
X117721D01*
X117221Y168918D02*
Y169918D01*
X116594Y153889D02*
X117594D01*
X117094Y153389D02*
Y154389D01*
X116721Y137760D02*
X117721D01*
X117221Y137260D02*
Y138260D01*
X116721Y122139D02*
X117721D01*
X117221Y121639D02*
Y122639D01*
X116721Y105537D02*
X117721D01*
X117221Y105037D02*
Y106037D01*
X116721Y89916D02*
X117721D01*
X117221Y89416D02*
Y90416D01*
X116721Y57912D02*
X117721D01*
X117221Y57412D02*
Y58412D01*
X109474Y54872D02*
Y55872D01*
X108974Y55372D02*
X109974D01*
X108839Y70239D02*
Y71239D01*
X108339Y70739D02*
X109339D01*
X109601Y86241D02*
Y87241D01*
X109101Y86741D02*
X110101D01*
X109474Y101989D02*
Y102989D01*
X108974Y102489D02*
X109974D01*
X108839Y117864D02*
Y118864D01*
X108339Y118364D02*
X109339D01*
X108678Y134247D02*
Y135247D01*
X108178Y134747D02*
X109178D01*
X108585Y150630D02*
Y151630D01*
X108085Y151130D02*
X109085D01*
X102900Y169172D02*
Y170172D01*
X102400Y169672D02*
X103400D01*
X101854Y165997D02*
Y166997D01*
X101354Y166497D02*
X102354D01*
X101941Y150122D02*
Y151122D01*
X101441Y150622D02*
X102441D01*
X102870Y144026D02*
Y145026D01*
X102370Y144526D02*
X103370D01*
X102900Y137295D02*
Y138295D01*
X102400Y137795D02*
X103400D01*
X102870Y128024D02*
Y129024D01*
X102370Y128524D02*
X103370D01*
X101854Y133866D02*
Y134866D01*
X101354Y134366D02*
X102354D01*
X102900Y112022D02*
Y113022D01*
X102400Y112522D02*
X103400D01*
X102900Y121166D02*
Y122166D01*
X102400Y121666D02*
X103400D01*
X101814Y117864D02*
Y118864D01*
X101314Y118364D02*
X102314D01*
X102900Y96020D02*
Y97020D01*
X102400Y96520D02*
X103400D01*
X102900Y105164D02*
Y106164D01*
X102400Y105664D02*
X103400D01*
X101814Y101989D02*
Y102989D01*
X101314Y102489D02*
X102314D01*
X102997Y63381D02*
Y64381D01*
X102497Y63881D02*
X103497D01*
X102870Y57412D02*
Y58412D01*
X102370Y57912D02*
X103370D01*
X101854Y54237D02*
Y55237D01*
X101354Y54737D02*
X102354D01*
X142521Y101700D02*
X143229Y100992D01*
X142521D02*
X143229Y101700D01*
X163857Y103351D02*
X164565Y102643D01*
X163857D02*
X164565Y103351D01*
X159647Y72136D02*
X160647D01*
X160147Y71636D02*
Y72636D01*
X177173Y66548D02*
X178173D01*
X177673Y66048D02*
Y67048D01*
X141867Y66421D02*
X142867D01*
X142367Y65921D02*
Y66921D01*
X159647Y66548D02*
X160647D01*
X160147Y66048D02*
Y67048D01*
X187833Y55507D02*
Y56507D01*
X187333Y56007D02*
X188333D01*
X216408Y82177D02*
Y83177D01*
X215908Y82677D02*
X216908D01*
X212217Y85987D02*
Y86987D01*
X211717Y86487D02*
X212717D01*
X142367Y71601D02*
Y72601D01*
X141867Y72101D02*
X142867D01*
X177673Y71636D02*
Y72636D01*
X177173Y72136D02*
X178173D01*
X194318Y165735D02*
X195318D01*
X194818Y165235D02*
Y166235D01*
Y49919D02*
Y50919D01*
X194318Y50419D02*
X195318D01*
X123571Y143899D02*
Y144899D01*
X123071Y144399D02*
X124071D01*
X123571Y127770D02*
Y128770D01*
X123071Y128270D02*
X124071D01*
X123571Y112022D02*
Y113022D01*
X123071Y112522D02*
X124071D01*
X123571Y95766D02*
Y96766D01*
X123071Y96266D02*
X124071D01*
X117221Y73252D02*
Y74252D01*
X116721Y73752D02*
X117721D01*
X108085Y166243D02*
X109085D01*
X108585Y165743D02*
Y166743D01*
X102624Y74041D02*
X103624D01*
X103124Y73541D02*
Y74541D01*
X101608Y70485D02*
X102608D01*
X102108Y69985D02*
Y70985D01*
X102370Y48641D02*
X103370D01*
X102870Y48141D02*
Y49141D01*
X101314Y86487D02*
X102314D01*
X101814Y85987D02*
Y86987D01*
X102400Y160401D02*
X103400D01*
X102900Y159901D02*
Y160901D01*
%TF.MD5,732e1265d0a8976dfe339b7add6e81bf*%
M02*
