%TF.GenerationSoftware,Altium Limited,Altium Designer,21.6.4 (81)*%
G04 Layer_Physical_Order=2*
G04 Layer_Color=16711680*
%FSLAX43Y43*%
%MOMM*%
%TF.SameCoordinates,5D8205C6-A8A5-4108-8313-488A8EE5113E*%
%TF.FilePolarity,Positive*%
%TF.FileFunction,Copper,L2,Bot,Signal*%
%TF.Part,Single*%
G01*
G75*
%TA.AperFunction,Conductor*%
%ADD15C,1.000*%
%ADD16C,2.000*%
%ADD17C,0.600*%
%ADD18C,0.800*%
%ADD19C,0.750*%
%ADD20C,1.200*%
%TA.AperFunction,ComponentPad*%
%ADD22O,2.286X1.778*%
%ADD23C,4.572*%
%ADD24C,1.550*%
%ADD25R,1.550X1.550*%
%ADD26C,3.048*%
%ADD28C,2.286*%
%ADD29C,1.600*%
G04:AMPARAMS|DCode=30|XSize=1.6mm|YSize=1.6mm|CornerRadius=0.4mm|HoleSize=0mm|Usage=FLASHONLY|Rotation=0.000|XOffset=0mm|YOffset=0mm|HoleType=Round|Shape=RoundedRectangle|*
%AMROUNDEDRECTD30*
21,1,1.600,0.800,0,0,0.0*
21,1,0.800,1.600,0,0,0.0*
1,1,0.800,0.400,-0.400*
1,1,0.800,-0.400,-0.400*
1,1,0.800,-0.400,0.400*
1,1,0.800,0.400,0.400*
%
%ADD30ROUNDEDRECTD30*%
%ADD31R,2.286X2.286*%
%ADD32R,1.200X1.200*%
%ADD33C,1.200*%
G04:AMPARAMS|DCode=34|XSize=1.95mm|YSize=1.95mm|CornerRadius=0.488mm|HoleSize=0mm|Usage=FLASHONLY|Rotation=90.000|XOffset=0mm|YOffset=0mm|HoleType=Round|Shape=RoundedRectangle|*
%AMROUNDEDRECTD34*
21,1,1.950,0.975,0,0,90.0*
21,1,0.975,1.950,0,0,90.0*
1,1,0.975,0.488,0.488*
1,1,0.975,0.488,-0.488*
1,1,0.975,-0.488,-0.488*
1,1,0.975,-0.488,0.488*
%
%ADD34ROUNDEDRECTD34*%
%ADD35C,1.950*%
%ADD36R,2.057X2.057*%
%ADD37C,2.057*%
%ADD38C,1.500*%
%ADD39R,1.500X1.500*%
%ADD40C,1.524*%
G04:AMPARAMS|DCode=41|XSize=1.95mm|YSize=1.95mm|CornerRadius=0.488mm|HoleSize=0mm|Usage=FLASHONLY|Rotation=180.000|XOffset=0mm|YOffset=0mm|HoleType=Round|Shape=RoundedRectangle|*
%AMROUNDEDRECTD41*
21,1,1.950,0.975,0,0,180.0*
21,1,0.975,1.950,0,0,180.0*
1,1,0.975,-0.488,0.488*
1,1,0.975,0.488,0.488*
1,1,0.975,0.488,-0.488*
1,1,0.975,-0.488,-0.488*
%
%ADD41ROUNDEDRECTD41*%
%ADD42R,1.200X1.200*%
%TA.AperFunction,ViaPad*%
%ADD43C,5.000*%
%ADD44C,0.800*%
%TA.AperFunction,SMDPad,CuDef*%
%ADD45R,1.700X1.680*%
G04:AMPARAMS|DCode=46|XSize=0.8mm|YSize=1.6mm|CornerRadius=0.2mm|HoleSize=0mm|Usage=FLASHONLY|Rotation=180.000|XOffset=0mm|YOffset=0mm|HoleType=Round|Shape=RoundedRectangle|*
%AMROUNDEDRECTD46*
21,1,0.800,1.200,0,0,180.0*
21,1,0.400,1.600,0,0,180.0*
1,1,0.400,-0.200,0.600*
1,1,0.400,0.200,0.600*
1,1,0.400,0.200,-0.600*
1,1,0.400,-0.200,-0.600*
%
%ADD46ROUNDEDRECTD46*%
G04:AMPARAMS|DCode=47|XSize=0.6mm|YSize=1.6mm|CornerRadius=0.15mm|HoleSize=0mm|Usage=FLASHONLY|Rotation=180.000|XOffset=0mm|YOffset=0mm|HoleType=Round|Shape=RoundedRectangle|*
%AMROUNDEDRECTD47*
21,1,0.600,1.300,0,0,180.0*
21,1,0.300,1.600,0,0,180.0*
1,1,0.300,-0.150,0.650*
1,1,0.300,0.150,0.650*
1,1,0.300,0.150,-0.650*
1,1,0.300,-0.150,-0.650*
%
%ADD47ROUNDEDRECTD47*%
%ADD48R,1.250X2.000*%
%ADD49R,1.508X1.207*%
%ADD50R,2.500X1.700*%
%ADD51R,1.262X0.958*%
%ADD52R,2.270X0.558*%
%ADD53R,1.207X1.508*%
%ADD54R,0.900X1.200*%
%ADD55R,0.757X1.308*%
%ADD56R,0.808X1.262*%
%ADD57R,1.525X0.650*%
%ADD58R,1.000X0.500*%
G04:AMPARAMS|DCode=59|XSize=1.207mm|YSize=1.508mm|CornerRadius=0mm|HoleSize=0mm|Usage=FLASHONLY|Rotation=315.000|XOffset=0mm|YOffset=0mm|HoleType=Round|Shape=Rectangle|*
%AMROTATEDRECTD59*
4,1,4,-0.960,-0.107,0.107,0.960,0.960,0.107,-0.107,-0.960,-0.960,-0.107,0.0*
%
%ADD59ROTATEDRECTD59*%

G04:AMPARAMS|DCode=60|XSize=1.194mm|YSize=0.305mm|CornerRadius=0mm|HoleSize=0mm|Usage=FLASHONLY|Rotation=225.000|XOffset=0mm|YOffset=0mm|HoleType=Round|Shape=Rectangle|*
%AMROTATEDRECTD60*
4,1,4,0.314,0.530,0.530,0.314,-0.314,-0.530,-0.530,-0.314,0.314,0.530,0.0*
%
%ADD60ROTATEDRECTD60*%

G04:AMPARAMS|DCode=61|XSize=1.194mm|YSize=0.305mm|CornerRadius=0mm|HoleSize=0mm|Usage=FLASHONLY|Rotation=315.000|XOffset=0mm|YOffset=0mm|HoleType=Round|Shape=Rectangle|*
%AMROTATEDRECTD61*
4,1,4,-0.530,0.314,-0.314,0.530,0.530,-0.314,0.314,-0.530,-0.530,0.314,0.0*
%
%ADD61ROTATEDRECTD61*%

G04:AMPARAMS|DCode=62|XSize=2.45mm|YSize=2.35mm|CornerRadius=0mm|HoleSize=0mm|Usage=FLASHONLY|Rotation=225.000|XOffset=0mm|YOffset=0mm|HoleType=Round|Shape=Rectangle|*
%AMROTATEDRECTD62*
4,1,4,0.035,1.697,1.697,0.035,-0.035,-1.697,-1.697,-0.035,0.035,1.697,0.0*
%
%ADD62ROTATEDRECTD62*%

G04:AMPARAMS|DCode=63|XSize=0.95mm|YSize=1.35mm|CornerRadius=0mm|HoleSize=0mm|Usage=FLASHONLY|Rotation=315.000|XOffset=0mm|YOffset=0mm|HoleType=Round|Shape=Rectangle|*
%AMROTATEDRECTD63*
4,1,4,-0.813,-0.141,0.141,0.813,0.813,0.141,-0.141,-0.813,-0.813,-0.141,0.0*
%
%ADD63ROTATEDRECTD63*%

G04:AMPARAMS|DCode=64|XSize=0.95mm|YSize=1.35mm|CornerRadius=0mm|HoleSize=0mm|Usage=FLASHONLY|Rotation=45.000|XOffset=0mm|YOffset=0mm|HoleType=Round|Shape=Rectangle|*
%AMROTATEDRECTD64*
4,1,4,0.141,-0.813,-0.813,0.141,-0.141,0.813,0.813,-0.141,0.141,-0.813,0.0*
%
%ADD64ROTATEDRECTD64*%

%ADD65R,1.556X1.505*%
%ADD66R,1.308X0.757*%
G04:AMPARAMS|DCode=67|XSize=3.15mm|YSize=1.45mm|CornerRadius=0.051mm|HoleSize=0mm|Usage=FLASHONLY|Rotation=90.000|XOffset=0mm|YOffset=0mm|HoleType=Round|Shape=RoundedRectangle|*
%AMROUNDEDRECTD67*
21,1,3.150,1.349,0,0,90.0*
21,1,3.049,1.450,0,0,90.0*
1,1,0.102,0.674,1.524*
1,1,0.102,0.674,-1.524*
1,1,0.102,-0.674,-1.524*
1,1,0.102,-0.674,1.524*
%
%ADD67ROUNDEDRECTD67*%
G04:AMPARAMS|DCode=68|XSize=0.9mm|YSize=1.45mm|CornerRadius=0.05mm|HoleSize=0mm|Usage=FLASHONLY|Rotation=90.000|XOffset=0mm|YOffset=0mm|HoleType=Round|Shape=RoundedRectangle|*
%AMROUNDEDRECTD68*
21,1,0.900,1.351,0,0,90.0*
21,1,0.801,1.450,0,0,90.0*
1,1,0.099,0.676,0.401*
1,1,0.099,0.676,-0.401*
1,1,0.099,-0.676,-0.401*
1,1,0.099,-0.676,0.401*
%
%ADD68ROUNDEDRECTD68*%
%ADD69R,2.000X2.800*%
%ADD70R,0.807X1.308*%
%ADD71R,3.050X1.016*%
%ADD72R,8.380X10.660*%
%ADD73R,1.508X1.157*%
%ADD74R,1.157X1.508*%
%TA.AperFunction,Conductor*%
%ADD75C,0.300*%
%ADD76C,0.500*%
%ADD77C,1.500*%
%ADD78R,20.701X11.557*%
%TA.AperFunction,ComponentPad*%
%ADD79O,2.032X2.540*%
G36*
X98044Y42799D02*
X77179D01*
X77089Y42889D01*
X77216Y173990D01*
X98044D01*
Y42799D01*
D02*
G37*
D15*
X198247Y47117D02*
X200787D01*
X73892Y162709D02*
X74041Y162560D01*
X68453Y159385D02*
X70473D01*
X68072Y159766D02*
X68453Y159385D01*
X101024Y82550D02*
Y83946D01*
X104775Y84074D02*
X106391D01*
X136078Y97348D02*
X140716Y92710D01*
Y73152D02*
Y92710D01*
X142365Y74932D02*
X142367Y74930D01*
X142365Y74932D02*
Y96198D01*
X202887Y54723D02*
Y56007D01*
X192600Y54723D02*
Y56007D01*
X110490Y156972D02*
X111954D01*
X109461D02*
X110490D01*
X198110Y100855D02*
X200201D01*
X200787Y97487D02*
Y100269D01*
X200201Y100855D02*
X200787Y100269D01*
X200201Y96901D02*
X200787Y97487D01*
X194640Y96901D02*
X200201D01*
X198102Y100863D02*
X198110Y100855D01*
X192024Y103505D02*
Y104267D01*
X190030Y101511D02*
X192024Y103505D01*
X188247Y101511D02*
X190030D01*
X191397Y106815D02*
X193302D01*
X188247Y104051D02*
X188633D01*
X188209Y104013D02*
X188247Y104051D01*
X188633D02*
X191397Y106815D01*
X219134Y54669D02*
Y56007D01*
X209101Y54669D02*
Y56007D01*
X198814Y54669D02*
Y56007D01*
X221234Y135333D02*
Y164719D01*
X221820Y134747D02*
X223393D01*
X221234Y135333D02*
X221820Y134747D01*
X220218Y165735D02*
X221234Y164719D01*
X219237Y129747D02*
Y160147D01*
X219134Y160250D02*
X219237Y160147D01*
X141434Y98016D02*
X142400Y97050D01*
X142365Y96198D02*
X142400Y96233D01*
X136078Y97348D02*
Y98679D01*
X138016Y100617D01*
X207403Y64758D02*
X207518Y64643D01*
X205613Y65913D02*
X206768Y64758D01*
X205613Y65913D02*
Y70982D01*
X206768Y64758D02*
X207403D01*
X211311Y64626D02*
X226236D01*
X207535D02*
X211311D01*
X205027Y71568D02*
X205613Y70982D01*
X202819Y71568D02*
X205027D01*
X202812Y71561D02*
X202819Y71568D01*
X226236Y64626D02*
X226822Y65211D01*
Y78154D01*
X138051Y100652D02*
X139006D01*
X141085Y100617D02*
X142345Y101876D01*
X139041Y100617D02*
X141085D01*
X141434Y98016D02*
Y98844D01*
X143405Y100816D01*
X142400Y96233D02*
Y97050D01*
X139006Y100652D02*
X139041Y100617D01*
X138016D02*
X138051Y100652D01*
X134874Y162179D02*
X136144D01*
X133604D02*
X134874D01*
X143256D02*
X144526D01*
X141986D02*
X143256D01*
X136778Y170307D02*
X143846D01*
X136192Y169721D02*
X136778Y170307D01*
X144432Y166129D02*
Y169721D01*
X136192Y166037D02*
Y169721D01*
X143846Y170307D02*
X144432Y169721D01*
X136144Y164281D02*
Y165989D01*
X136192Y166037D01*
X197358Y169083D02*
X198247Y168194D01*
X197108Y169333D02*
X197358Y169083D01*
X204343Y47244D02*
X204585Y47002D01*
X203454Y48133D02*
X204343Y47244D01*
X203454Y54102D02*
Y54156D01*
Y48133D02*
Y54102D01*
X183134D02*
Y54156D01*
Y48006D02*
Y54102D01*
X163068Y44450D02*
X184609D01*
X144432Y166129D02*
X144526Y166035D01*
X133604Y164281D02*
Y165989D01*
X141986Y164281D02*
Y166035D01*
X144526Y164281D02*
Y166035D01*
X174879Y164719D02*
X176243D01*
X166243D02*
X167583D01*
X163527Y168818D02*
X166243D01*
X162941Y167513D02*
Y168232D01*
X163527Y168818D01*
X152527Y50520D02*
Y52705D01*
X147447Y51047D02*
Y52705D01*
X149987Y51047D02*
Y52705D01*
X152527Y46990D02*
Y48768D01*
X149987Y46990D02*
Y48895D01*
X147447Y46990D02*
Y48895D01*
X217678Y169037D02*
X218567Y168148D01*
X217428Y169287D02*
X217678Y169037D01*
X213487Y54102D02*
Y54156D01*
Y54048D02*
Y54102D01*
X207518Y67183D02*
Y71847D01*
X187960Y64643D02*
X187995Y64608D01*
X191770D01*
X218567Y161998D02*
Y162052D01*
X219134Y160250D02*
Y161431D01*
X218567Y161998D02*
X219134Y161431D01*
X212817Y160147D02*
X212920Y160250D01*
Y161485D01*
X213487Y162052D01*
X209066Y160250D02*
X209169Y160147D01*
X209066Y160250D02*
Y161461D01*
X208534Y161993D02*
X209066Y161461D01*
X208534Y161993D02*
Y162047D01*
X202887Y161480D02*
X203454Y162047D01*
X202784Y160147D02*
X202887Y160250D01*
Y161480D01*
X198779Y160250D02*
Y161466D01*
X198247Y161998D02*
X198779Y161466D01*
X198247Y161998D02*
Y162052D01*
X192600Y161485D02*
X193167Y162052D01*
X192497Y160147D02*
X192600Y160250D01*
Y161485D01*
X188214Y161998D02*
X188746Y161466D01*
X188214Y161998D02*
Y162052D01*
X188746Y160250D02*
X188849Y160147D01*
X188746Y160250D02*
Y161466D01*
X182591Y160147D02*
X182694Y160250D01*
Y161612D01*
X183134Y162052D01*
X185674Y160193D02*
Y162052D01*
Y160193D02*
X185720Y160147D01*
X195707D02*
Y162052D01*
Y160147D02*
X196780D01*
X194599D02*
X195707D01*
X205977D02*
X207067D01*
X204886D02*
X205977D01*
X205994Y160164D01*
Y162047D01*
X216027Y160147D02*
X217135D01*
X214919D02*
X216027D01*
Y162052D01*
X218567Y54102D02*
X219134Y54669D01*
X212920Y54723D02*
Y55904D01*
X212817Y56007D02*
X212920Y55904D01*
Y54723D02*
X213487Y54156D01*
X214919Y56007D02*
X217135D01*
X205994D02*
X207102D01*
X204886D02*
X205994D01*
X208534Y54102D02*
X209101Y54669D01*
X202887Y54723D02*
X203454Y54156D01*
X198247Y54102D02*
X198814Y54669D01*
X192600Y54723D02*
X193167Y54156D01*
Y54102D02*
Y54156D01*
X195707Y56007D02*
X196815D01*
X194599D02*
X195707D01*
X185674D02*
X186782D01*
X184566D02*
X185674D01*
X188781Y55904D02*
X188884Y56007D01*
X188781Y54669D02*
Y55904D01*
X188214Y54102D02*
X188781Y54669D01*
X182464Y56007D02*
X182567Y55904D01*
Y54723D02*
Y55904D01*
Y54723D02*
X183134Y54156D01*
X185674Y54102D02*
Y56007D01*
X195707Y54102D02*
Y56007D01*
X205994Y54102D02*
Y56007D01*
X216027Y54102D02*
Y55913D01*
X223393Y78740D02*
X226236D01*
X226822Y78154D01*
X203454Y162047D02*
Y168148D01*
X200914Y169037D02*
X204343D01*
X203454Y168148D02*
X204343Y169037D01*
X198247Y47160D02*
Y54102D01*
Y47117D02*
Y47160D01*
X197358Y47117D02*
X198247D01*
X192278Y47117D02*
Y53416D01*
Y45036D02*
Y47117D01*
X191692Y44450D02*
X205170D01*
X212356Y45036D02*
Y47002D01*
X211771Y44450D02*
X212356Y45036D01*
X204585D02*
X205170Y44450D01*
X211771D01*
X204585Y45036D02*
Y47002D01*
X212356D02*
X212598Y47244D01*
X184609Y44450D02*
X191692D01*
X184023Y45036D02*
X184609Y44450D01*
X191692D02*
X192278Y45036D01*
X184023D02*
Y47117D01*
X196522Y170942D02*
X210259D01*
X216842D01*
X217428Y169287D02*
Y170356D01*
X216842Y170942D02*
X217428Y170356D01*
X209673Y169287D02*
Y170356D01*
X210259Y170942D01*
X209423Y169037D02*
X209673Y169287D01*
X189939Y170942D02*
X196522D01*
X197108Y169333D02*
Y170356D01*
X196522Y170942D02*
X197108Y170356D01*
X189103Y169083D02*
X189353Y169333D01*
Y170356D02*
X189939Y170942D01*
X189353Y169333D02*
Y170356D01*
X206032Y163833D02*
X206629Y164430D01*
X206032Y162085D02*
Y163833D01*
X205994Y162047D02*
X206032Y162085D01*
X206732Y164684D02*
X206883D01*
X206629Y164581D02*
X206732Y164684D01*
X206629Y164430D02*
Y164581D01*
X215392Y164430D02*
X216027Y163795D01*
X215392Y164430D02*
Y164581D01*
X215138Y164684D02*
X215289D01*
X215392Y164581D01*
X216027Y162052D02*
Y163795D01*
X195072Y164430D02*
X195707Y163795D01*
X195072Y164430D02*
Y164581D01*
X194818Y164684D02*
X194969D01*
X195707Y162052D02*
Y163795D01*
X194969Y164684D02*
X195072Y164581D01*
X185712Y162090D02*
Y163995D01*
X185674Y162052D02*
X185712Y162090D01*
X186412Y164846D02*
X186563D01*
X186309Y164743D02*
X186412Y164846D01*
X186309Y164592D02*
Y164743D01*
X185712Y163995D02*
X186309Y164592D01*
X186563Y166948D02*
Y169083D01*
X194818Y166786D02*
Y169083D01*
X215138Y166786D02*
Y169037D01*
X206883Y166786D02*
Y169037D01*
X218567Y162106D02*
Y168148D01*
X183134Y162052D02*
Y168194D01*
X184023Y169083D01*
X198247Y162106D02*
Y168194D01*
X192278Y162941D02*
X193167Y162052D01*
X192278Y162941D02*
Y169083D01*
X188214Y162106D02*
X189103Y162995D01*
X188214Y162052D02*
Y162106D01*
X189103Y162995D02*
Y169083D01*
X212598Y162941D02*
X213487Y162052D01*
X212598Y162941D02*
Y169037D01*
X209423Y162990D02*
Y169037D01*
X208534Y162101D02*
X209423Y162990D01*
X208534Y162047D02*
Y162101D01*
X186309Y51573D02*
Y51724D01*
X185712Y52321D02*
Y54064D01*
X186412Y51470D02*
X186563D01*
X186309Y51573D02*
X186412Y51470D01*
X185712Y52321D02*
X186309Y51724D01*
X185674Y54102D02*
X185712Y54064D01*
X194969Y51470D02*
X195072Y51573D01*
X194818Y51470D02*
X194969D01*
X195072Y51573D02*
Y51724D01*
X195669Y52321D01*
Y54064D01*
X195707Y54102D01*
X215392Y51700D02*
Y51851D01*
X215989Y52448D02*
Y54064D01*
X215138Y51597D02*
X215289D01*
X215392Y51700D01*
Y51851D02*
X215989Y52448D01*
Y54064D02*
X216027Y54102D01*
X206629Y51665D02*
X206732Y51562D01*
X206629Y51665D02*
Y51816D01*
X206732Y51562D02*
X206883D01*
X206032Y52413D02*
X206629Y51816D01*
X206032Y52413D02*
Y54064D01*
X205994Y54102D02*
X206032Y54064D01*
X206883Y47244D02*
Y49460D01*
X215138Y47244D02*
Y49495D01*
X217678Y47379D02*
X218567Y48268D01*
X217678Y47244D02*
Y47379D01*
X218567Y48268D02*
Y54102D01*
X212598Y53159D02*
X213487Y54048D01*
X212598Y47244D02*
Y53159D01*
X208634Y54002D02*
X209423Y53213D01*
Y47244D02*
Y53213D01*
X208634Y54002D02*
Y54002D01*
X208534Y54102D02*
X208634Y54002D01*
X192926Y54064D02*
X193129D01*
X193167Y54102D01*
X192278Y53416D02*
X192926Y54064D01*
X183134Y48006D02*
X184023Y47117D01*
X189103D02*
Y53213D01*
X188214Y54102D02*
X189103Y53213D01*
X194818Y47117D02*
Y49368D01*
X186563Y47117D02*
Y49368D01*
X110490Y61341D02*
X111954D01*
X109334D02*
X110490D01*
X109334Y125222D02*
X111894D01*
X109334Y93218D02*
X112081D01*
X104367Y61341D02*
X107582D01*
X104394Y93218D02*
X107582D01*
X104367Y125222D02*
X107582D01*
X104367Y157022D02*
X104392Y156997D01*
X107684D02*
X107709Y156972D01*
X104392Y156997D02*
X107684D01*
X105537Y67183D02*
X107939D01*
X108042Y67286D02*
Y67310D01*
X107939Y67183D02*
X108042Y67286D01*
X105410Y67056D02*
X105537Y67183D01*
X107739Y70789D02*
X107789Y70739D01*
X105783Y70874D02*
X107704D01*
X105537Y71120D02*
X105783Y70874D01*
X107704D02*
X107739Y70839D01*
Y70789D02*
Y70839D01*
X105029Y71120D02*
Y74011D01*
X103227Y84074D02*
X104775D01*
Y80772D02*
Y83947D01*
X103124Y83971D02*
X103227Y84074D01*
X103124Y83947D02*
Y83971D01*
X106758Y86741D02*
X108551D01*
X105664Y86995D02*
X105910Y86749D01*
X106750D02*
X106758Y86741D01*
X105910Y86749D02*
X106750D01*
X104775Y103075D02*
Y105664D01*
X104189Y102489D02*
X104775Y103075D01*
X102616Y102489D02*
X104189D01*
X104902Y98109D02*
Y99695D01*
X103124D02*
X104902D01*
X103251Y115951D02*
X104775D01*
X106518D01*
X102997Y147828D02*
X104745D01*
X106137D01*
X104745Y144526D02*
Y147828D01*
X105156Y151130D02*
X107535D01*
X107485Y166293D02*
Y166343D01*
Y166293D02*
X107535Y166243D01*
X105529Y166378D02*
X107450D01*
X105283Y166624D02*
X105529Y166378D01*
X107450D02*
X107485Y166343D01*
X102752Y166624D02*
X105283D01*
X105496Y163576D02*
X106000Y163072D01*
X107657D01*
X105291Y66921D02*
X105537Y66675D01*
X104308Y67183D02*
X104570Y66921D01*
X103262Y67183D02*
X104308D01*
X104570Y66921D02*
X105291D01*
X104443Y70485D02*
X105029Y71071D01*
X102910Y70485D02*
X104443D01*
X104999Y74041D02*
X105029Y74011D01*
X104997Y64006D02*
Y66597D01*
X103159Y67286D02*
Y67437D01*
Y67286D02*
X103262Y67183D01*
X104872Y63881D02*
X104997Y64006D01*
X101092Y63911D02*
X101122Y63881D01*
X101092Y63911D02*
Y65659D01*
X101057Y65694D02*
X101092Y65659D01*
X101057Y65694D02*
Y67437D01*
X104793Y48689D02*
Y51943D01*
X104793Y51943D02*
X104793Y51943D01*
Y52197D02*
X106518D01*
X103032D02*
X104793D01*
X104745Y48641D02*
X104793Y48689D01*
X103032Y52046D02*
Y52197D01*
Y52046D02*
X103135Y51943D01*
X104745Y55323D02*
Y57912D01*
X105664Y102489D02*
X108424D01*
X105664Y99568D02*
X108204D01*
X104775Y112522D02*
Y115570D01*
X103227D02*
Y115951D01*
X104062Y118364D02*
X104775Y119077D01*
X104965Y118427D02*
X107726D01*
X105283Y134747D02*
X107628D01*
X104189Y131699D02*
X104775Y131113D01*
X105283Y131699D02*
X107661D01*
X100963Y50419D02*
Y52165D01*
Y48673D02*
Y50419D01*
X101023Y56325D02*
Y57883D01*
Y54765D02*
Y56325D01*
X101019Y88138D02*
Y89783D01*
Y86493D02*
Y88138D01*
X101024Y98107D02*
Y99694D01*
Y96521D02*
Y98107D01*
X101019Y104076D02*
Y105658D01*
Y102495D02*
Y104076D01*
X101024Y112523D02*
Y115823D01*
X101019Y120015D02*
Y121660D01*
Y118370D02*
Y120015D01*
X100963Y128556D02*
Y131667D01*
X101038Y136081D02*
Y137781D01*
Y134380D02*
Y136081D01*
X100956Y146177D02*
Y147820D01*
Y144535D02*
Y146177D01*
X101052Y152069D02*
Y153643D01*
Y150495D02*
Y152069D01*
X101122Y162083D02*
Y163511D01*
Y160655D02*
Y162083D01*
X100995Y166628D02*
Y169799D01*
X101022Y99695D02*
X101024Y99694D01*
Y96521D02*
X101025Y96520D01*
Y137795D02*
X101038Y137781D01*
Y134380D02*
X101052Y134366D01*
X100963Y128556D02*
X100995Y128524D01*
X100930Y131699D02*
X100963Y131667D01*
X101019Y121660D02*
X101025Y121666D01*
X101012Y118364D02*
X101019Y118370D01*
X101024Y112523D02*
X101025Y112522D01*
X101022Y115824D02*
X101024Y115823D01*
X101019Y105658D02*
X101025Y105664D01*
X101012Y102489D02*
X101019Y102495D01*
Y89783D02*
X101025Y89789D01*
X101012Y86487D02*
X101019Y86493D01*
X101024Y80773D02*
Y82550D01*
X101022Y83947D02*
X101024Y83946D01*
Y80773D02*
X101025Y80772D01*
X100995Y57912D02*
X101023Y57883D01*
Y54765D02*
X101052Y54737D01*
X100930Y52197D02*
X100963Y52165D01*
Y48673D02*
X100995Y48641D01*
X104159Y54737D02*
X104745Y55323D01*
X102656Y54737D02*
X104159D01*
X104189Y86487D02*
X104775Y87073D01*
X102616Y86487D02*
X104189D01*
X104775Y87073D02*
Y89789D01*
X104900Y96645D02*
Y98107D01*
X104775Y96520D02*
X104900Y96645D01*
Y98107D02*
X104902Y98109D01*
X104775Y119077D02*
Y121666D01*
X102616Y118364D02*
X104062D01*
X104745Y128524D02*
X104775Y128554D01*
X103032Y131699D02*
X104189D01*
X104775Y128554D02*
Y131113D01*
Y134952D02*
Y137795D01*
X102656Y134366D02*
X104189D01*
X104775Y134952D01*
Y151208D02*
Y153797D01*
X104189Y150622D02*
X104775Y151208D01*
X102743Y150622D02*
X104189D01*
X104775Y160401D02*
X104900Y160526D01*
Y161988D01*
X104902Y161990D02*
Y162990D01*
X103159Y163576D02*
X104316D01*
X104900Y161988D02*
X104902Y161990D01*
X104775Y167210D02*
Y169672D01*
X102656Y166528D02*
X102752Y166624D01*
X102656Y166497D02*
Y166528D01*
X193607Y101532D02*
X193879D01*
X193302Y106815D02*
X193548Y107061D01*
X188209Y101473D02*
X188247Y101511D01*
X193726Y104267D02*
X198102D01*
X193548Y107061D02*
X193685D01*
X194777Y105969D01*
X198102D01*
X194904Y102557D02*
X198094D01*
X193879Y101532D02*
X194904Y102557D01*
X198094D02*
X198102Y102565D01*
X205003Y107671D02*
X208407Y104267D01*
X198102Y107671D02*
X205003D01*
X198102Y104267D02*
X208407D01*
D16*
X72533Y114792D02*
X73930D01*
X71120Y116205D02*
Y122416D01*
Y116205D02*
X72533Y114792D01*
X70600Y122936D02*
X71120Y122416D01*
X73930Y114792D02*
X74053Y114669D01*
X94234Y117221D02*
Y133350D01*
X74180Y122936D02*
X88519D01*
X94234Y117221D01*
X68072Y119888D02*
Y125222D01*
X63881Y119888D02*
X68072D01*
Y113780D02*
Y119888D01*
Y125222D02*
Y127381D01*
X74053Y75057D02*
X88519D01*
X94234Y69342D01*
X71120Y68339D02*
Y74410D01*
X70473Y75057D02*
X71120Y74410D01*
Y68339D02*
X72546Y66913D01*
X73930D01*
X74041Y66802D01*
X68072Y63881D02*
Y70710D01*
Y56007D02*
Y63881D01*
X70207D02*
X70461Y63627D01*
X68072Y63881D02*
X70207D01*
X74041Y63627D02*
Y66802D01*
Y58928D02*
X88646D01*
X94234Y53340D01*
X71120Y52083D02*
X72292Y50911D01*
X70461Y58928D02*
X71120Y58269D01*
Y52083D02*
Y58269D01*
X72292Y50911D02*
X73930D01*
X74041Y50800D01*
X64024Y55991D02*
X64246D01*
X64262Y56007D01*
X68072D01*
Y48797D02*
Y56007D01*
Y48797D02*
X69244Y47625D01*
X70334D01*
X73914Y50689D02*
X74025Y50800D01*
X73914Y47625D02*
Y50689D01*
X74025Y50800D02*
X74041D01*
X88519Y91059D02*
X94234Y85344D01*
X74041Y91059D02*
X88519D01*
X72165Y82915D02*
X73930D01*
X70993Y84087D02*
Y90527D01*
Y84087D02*
X72165Y82915D01*
X70461Y91059D02*
X70993Y90527D01*
X73930Y82915D02*
X74041Y82804D01*
Y106934D02*
X88519D01*
X94234Y101219D01*
X74041Y95504D02*
Y98679D01*
X68072Y95758D02*
Y102587D01*
Y87884D02*
Y95758D01*
X68326Y95504D01*
X70461D01*
X71120Y99962D02*
X72292Y98790D01*
X73930D01*
X71120Y99962D02*
Y106275D01*
X70461Y106934D02*
X71120Y106275D01*
X73930Y98790D02*
X74041Y98679D01*
X68072Y80899D02*
Y87884D01*
X69342Y79629D02*
X70334D01*
X68072Y80899D02*
X69342Y79629D01*
X63881Y87884D02*
X68072D01*
X73914Y82693D02*
X74025Y82804D01*
X74041D01*
X73914Y79629D02*
Y82693D01*
X74053Y111379D02*
Y114669D01*
X68072Y113780D02*
X70473Y111379D01*
X74164Y130683D02*
X74168D01*
X74053Y127381D02*
Y130572D01*
X74164Y130683D01*
X68072Y127381D02*
Y134591D01*
Y127381D02*
X70473D01*
X70346Y138938D02*
X71120Y138164D01*
Y131966D02*
Y138164D01*
X73926Y138938D02*
X88646D01*
X94234Y133350D01*
X223393Y106731D02*
X227301D01*
X71120Y131966D02*
X72292Y130794D01*
X74057D01*
X74168Y130683D01*
X94234Y133350D02*
Y149225D01*
Y133350D02*
X94361Y133223D01*
X73914Y146574D02*
X74025Y146685D01*
X73914Y143510D02*
Y146574D01*
X74025Y146685D02*
X74041D01*
X70993Y147968D02*
X72165Y146796D01*
X70993Y147968D02*
Y154420D01*
X70473Y154940D02*
X70993Y154420D01*
X72165Y146796D02*
X73930D01*
X74041Y146685D01*
X68072Y151765D02*
Y157099D01*
X68072Y151765D02*
X68072Y151765D01*
X63881Y151765D02*
X68072D01*
X68072Y144682D02*
Y151765D01*
X69244Y143510D02*
X70334D01*
X68072Y157099D02*
Y159766D01*
Y144682D02*
X69244Y143510D01*
X72165Y162709D02*
X73892D01*
X70993Y163880D02*
X72165Y162709D01*
X70993Y163880D02*
Y170168D01*
X70473Y170688D02*
X70993Y170168D01*
X74047Y159391D02*
Y162554D01*
X74053Y154940D02*
X84074D01*
X94234Y165100D01*
X79756Y170688D02*
X85344Y165100D01*
X94234D01*
X74053Y170688D02*
X79756D01*
X68072Y159766D02*
Y166468D01*
X216663Y111731D02*
X223393D01*
X212769D02*
X216663D01*
X211597Y110559D02*
X212769Y111731D01*
X211597Y107457D02*
Y110559D01*
X219237Y129747D02*
X223393D01*
X201118D02*
X219237D01*
X200055Y130810D02*
X201118Y129747D01*
X199771Y130810D02*
X200055D01*
X199650Y131312D02*
Y136265D01*
X199644Y136271D02*
X199650Y136265D01*
X228473Y107902D02*
Y171802D01*
X227301Y106731D02*
X228473Y107902D01*
X217007Y106731D02*
X223393D01*
X227301Y172974D02*
X228473Y171802D01*
X95481Y172974D02*
X227301D01*
X94309Y165175D02*
Y171802D01*
X95481Y172974D01*
X94234Y149225D02*
Y165100D01*
Y101219D02*
Y117221D01*
Y85344D02*
Y101219D01*
Y69342D02*
Y85344D01*
Y53340D02*
Y69342D01*
Y165100D02*
X94309Y165175D01*
X66900Y71882D02*
X68072Y70710D01*
X63881Y71882D02*
X66900D01*
Y103759D02*
X68072Y102587D01*
X63881Y103759D02*
X66900D01*
Y135763D02*
X68072Y134591D01*
X63881Y135763D02*
X66900D01*
X63881Y167640D02*
X66900D01*
X68072Y166468D01*
X208407Y104267D02*
X211597Y107457D01*
X216789Y101727D02*
X223393D01*
X215646Y102870D02*
X216789Y101727D01*
X215646Y102870D02*
X215646D01*
X215646Y97806D02*
Y102870D01*
Y105370D02*
X217007Y106731D01*
X215646Y97806D02*
X216535Y96917D01*
Y96901D02*
Y96917D01*
D17*
X74041Y162560D02*
X74047Y162554D01*
Y159391D02*
X74053Y159385D01*
X122047Y79467D02*
X123571D01*
X119735Y97409D02*
Y99187D01*
X122047Y143348D02*
X123571D01*
X121193D02*
X122047D01*
X134898Y127635D02*
X157861D01*
X160505Y129309D02*
Y157077D01*
Y129309D02*
X160528Y129286D01*
X160483Y157099D02*
X160505Y157077D01*
X126873Y129321D02*
X126890Y129303D01*
X153526D01*
X153543Y129286D01*
X150368Y135890D02*
Y147393D01*
X150495Y147520D01*
Y147574D01*
X148082Y137160D02*
Y141986D01*
X135890Y154178D02*
X148082Y141986D01*
X143510Y134747D02*
X145676Y132581D01*
Y130436D02*
Y132581D01*
Y130436D02*
X145684Y130429D01*
X143254Y131447D02*
Y132082D01*
Y131447D02*
X143256Y131445D01*
X144399Y131318D02*
Y132461D01*
X135382Y139954D02*
X143254Y132082D01*
X135509Y141351D02*
X144399Y132461D01*
X120777Y141351D02*
X135509D01*
X112014Y139954D02*
X135382D01*
X128032Y134658D02*
X138900D01*
X141351Y132207D01*
X138684Y91567D02*
X139716D01*
X133858Y96393D02*
X138684Y91567D01*
X119735Y116713D02*
X123220D01*
X119735Y128677D02*
Y131191D01*
X121193Y111471D02*
X123571D01*
X121193Y79467D02*
X122047D01*
X119735Y96673D02*
Y97409D01*
Y64796D02*
Y67310D01*
X117856Y144272D02*
X120777Y141351D01*
X117856Y144272D02*
Y148414D01*
X109474Y142494D02*
X112014Y139954D01*
X183134Y136555D02*
Y143129D01*
X167229Y120650D02*
X183134Y136555D01*
X133858Y96393D02*
Y106172D01*
X130937Y109093D02*
X133858Y106172D01*
X111379Y109093D02*
X130937D01*
X109474Y110998D02*
X111379Y109093D01*
X109632Y78994D02*
X110648Y77978D01*
X109220Y78994D02*
X109632D01*
X110648Y77978D02*
X137033D01*
X137414Y76327D02*
X139065Y77978D01*
X126746Y76327D02*
X137414D01*
X128978Y137033D02*
X129032D01*
X126714Y137160D02*
X128851D01*
X128978Y137033D01*
X113994Y138557D02*
X117151D01*
X121358D02*
X122212Y137703D01*
X112395Y137414D02*
X112851D01*
X117151Y138557D02*
X121358D01*
X112851Y137414D02*
X113994Y138557D01*
X117151D02*
X117221Y138487D01*
X118032Y148590D02*
X119735D01*
X117856Y148414D02*
X118032Y148590D01*
X126873Y84328D02*
Y84582D01*
Y81569D02*
Y84328D01*
Y100203D02*
Y100330D01*
Y97317D02*
Y100203D01*
X119735Y87249D02*
X121285D01*
X126057D01*
X126714Y87906D01*
X119735Y84709D02*
X121920D01*
X123571Y97317D02*
Y99514D01*
X122682Y100403D02*
Y100457D01*
X119735D02*
X122682D01*
Y100403D02*
X123571Y99514D01*
X119735Y96673D02*
X121193Y95215D01*
X124587Y102870D02*
X126141D01*
X124533D02*
X124587D01*
X119735Y55372D02*
X126238D01*
X126714Y55848D01*
Y57785D01*
X119735Y102997D02*
X124406D01*
X126141Y102870D02*
X126619Y103348D01*
X124406Y102997D02*
X124533Y102870D01*
Y70993D02*
X126236D01*
X126714Y71471D01*
X124406Y71120D02*
X124533Y70993D01*
X119735Y71120D02*
X124406D01*
X126714Y71471D02*
Y73406D01*
X119735Y166878D02*
X126292D01*
X126644Y167229D01*
X126682D02*
Y169291D01*
X126644Y167229D02*
X126682D01*
X119735Y151130D02*
X126268D01*
X126619Y151481D02*
Y153638D01*
X126268Y151130D02*
X126619Y151481D01*
X126714Y87906D02*
Y89916D01*
X126873Y52578D02*
Y52705D01*
Y49692D02*
Y52578D01*
X207645Y82677D02*
X208880D01*
X206121Y84201D02*
X207645Y82677D01*
X206883Y86487D02*
X210342D01*
X206121Y85725D02*
X206883Y86487D01*
X111633Y132461D02*
X114707D01*
X111633Y164338D02*
X114707D01*
X194691Y152400D02*
X199801D01*
X126314Y137160D02*
X126714D01*
X166624Y121920D02*
X180594Y135890D01*
Y143129D01*
X143256Y157353D02*
Y162179D01*
X158458Y160909D02*
X160483D01*
X156464D02*
X158458D01*
X171768Y143193D02*
Y151113D01*
X169227Y143193D02*
Y151113D01*
X154051Y157099D02*
X160483D01*
X125413Y135001D02*
X125764Y135352D01*
X119735Y135001D02*
X125413D01*
X125764Y135352D02*
Y136610D01*
X126314Y137160D01*
X125476Y165608D02*
X126873Y164211D01*
X134874Y159385D02*
Y162179D01*
X154559Y158369D02*
X160483D01*
X153162Y157988D02*
Y165989D01*
Y157988D02*
X154051Y157099D01*
X160147Y67381D02*
Y67449D01*
X142367Y70104D02*
X146304D01*
X173609Y70485D02*
X173990Y70104D01*
X126873Y116459D02*
Y116586D01*
Y113573D02*
Y116459D01*
X158458Y159550D02*
Y160909D01*
X158458Y160909D02*
X158458Y160909D01*
Y159550D02*
X158496Y159512D01*
X191770Y149571D02*
X191833Y149508D01*
Y66773D02*
Y69342D01*
X162941Y157734D02*
X163576Y157099D01*
X162941Y157734D02*
Y167513D01*
X163576Y157099D02*
X165907D01*
X161448Y163068D02*
X161799Y162717D01*
Y159768D02*
Y162717D01*
X158593Y163068D02*
X161448D01*
X161799Y158745D02*
Y159639D01*
X164465Y158745D02*
X164816Y158394D01*
X164465Y158745D02*
Y163195D01*
X165989Y164719D01*
X165882Y158394D02*
X165907Y158369D01*
X164816Y158394D02*
X165882D01*
X165989Y164719D02*
X166243D01*
X165907Y159639D02*
X175892D01*
X176243Y159990D01*
Y164719D01*
X161448Y158394D02*
X161799Y158745D01*
X160508Y158394D02*
X161448D01*
X160483Y158369D02*
X160508Y158394D01*
X161671Y159639D02*
X161799Y159768D01*
X160483Y159639D02*
X161671D01*
X158242Y163419D02*
Y165989D01*
Y163419D02*
X158593Y163068D01*
X155702Y161671D02*
X156464Y160909D01*
X155702Y161671D02*
Y165989D01*
X171243Y161845D02*
Y164719D01*
X170307Y160909D02*
X171243Y161845D01*
X165907Y160909D02*
X170307D01*
X142367Y70104D02*
Y71050D01*
Y67322D02*
Y70104D01*
X138684D02*
X142367D01*
X177673D02*
Y71085D01*
Y67449D02*
Y70104D01*
X181610D01*
X173990D02*
X177673D01*
X160147Y67449D02*
Y70104D01*
X163957D01*
X160020D02*
X160147D01*
X156337D02*
X160020D01*
Y70958D01*
X191833Y146974D02*
Y149508D01*
Y144440D02*
Y146974D01*
X185801Y157861D02*
X189230Y154432D01*
X192659D01*
X194691Y152400D01*
X191833Y144440D02*
X191897Y144377D01*
X200152Y140046D02*
X200244Y139954D01*
X200152Y140046D02*
Y144466D01*
X201422Y142494D02*
X202219Y141697D01*
X201422Y142494D02*
Y144466D01*
X202219Y139954D02*
Y141697D01*
X207518Y144434D02*
Y149098D01*
X187960Y144429D02*
Y149093D01*
X201422Y146080D02*
X201773Y146431D01*
X201422Y144466D02*
Y146080D01*
X201773Y146431D02*
X205643D01*
X205994Y146782D02*
Y157861D01*
X205643Y146431D02*
X205994Y146782D01*
X199801Y152400D02*
X200152Y152049D01*
Y149666D02*
Y152049D01*
X201422Y149666D02*
Y153670D01*
X195790Y157905D02*
X195809Y157886D01*
Y156235D02*
X197866Y154178D01*
X200914D01*
X195809Y156235D02*
Y157886D01*
X200914Y154178D02*
X201422Y153670D01*
X207518Y73949D02*
X211328D01*
X200152Y63373D02*
Y66361D01*
Y61884D02*
Y63373D01*
X204943Y73949D02*
X207518D01*
X204216Y64897D02*
X208661Y60452D01*
X204216Y64897D02*
Y68610D01*
X201773Y68961D02*
X203865D01*
X204216Y68610D01*
X208661Y60452D02*
X213868D01*
X202219Y61849D02*
Y63465D01*
X201422Y64262D02*
X202219Y63465D01*
X201422Y64262D02*
Y66361D01*
X187960Y67183D02*
Y71847D01*
X191770Y71720D02*
X191897Y71847D01*
X191770Y69342D02*
Y71720D01*
Y66710D02*
X191833Y66773D01*
X213868Y60452D02*
X216027Y58293D01*
X185674Y75341D02*
X186025Y75692D01*
X185674Y58293D02*
Y75341D01*
X201422Y71561D02*
Y75341D01*
X186025Y75692D02*
X201071D01*
X201422Y75341D01*
X200117Y61849D02*
X200406Y61560D01*
Y60198D02*
X201226Y59378D01*
X200406Y60198D02*
Y61560D01*
X201226Y58616D02*
X201549Y58293D01*
X201226Y58616D02*
Y59378D01*
X201422Y68610D02*
X201773Y68961D01*
X201422Y66361D02*
Y68610D01*
X200152Y69185D02*
Y71561D01*
X195707Y68483D02*
X196058Y68834D01*
X199801D01*
X195707Y58293D02*
Y68483D01*
X199801Y68834D02*
X200152Y69185D01*
X200117Y61849D02*
X200152Y61884D01*
X119735Y132461D02*
X121920D01*
X123220D01*
X119196Y61341D02*
X121193Y63338D01*
X114106Y61341D02*
X119196D01*
Y93218D02*
X121193Y95215D01*
X114233Y93218D02*
X119196D01*
Y125222D02*
X121193Y127219D01*
X114046Y125222D02*
X119196D01*
X114106Y156972D02*
X119069D01*
X121193Y159096D01*
X119735Y160554D02*
X121193Y159096D01*
X119735Y160554D02*
Y163068D01*
Y112929D02*
X121193Y111471D01*
X119735Y112929D02*
Y115443D01*
X121920Y164338D02*
X123220D01*
X119735D02*
X121920D01*
Y148590D02*
X123220D01*
X119735D02*
X121920D01*
Y84709D02*
X123220D01*
X121920Y68580D02*
X123220D01*
X119735D02*
X121920D01*
Y52832D02*
X123220D01*
X119735D02*
X121920D01*
X123220D02*
X123571Y52481D01*
Y49692D02*
Y52481D01*
X111633Y163068D02*
X114707D01*
X109763D02*
X111633D01*
Y131191D02*
X114707D01*
X110120D02*
X111633D01*
Y99187D02*
X114707D01*
X110659D02*
X111633D01*
Y67310D02*
X114707D01*
X110466D02*
X111633D01*
X121193Y159096D02*
X123571D01*
X119735Y144806D02*
Y147320D01*
Y144806D02*
X121193Y143348D01*
Y127219D02*
X123571D01*
X119735Y128677D02*
X121193Y127219D01*
Y95215D02*
X123571D01*
X119735Y80925D02*
Y83439D01*
Y80925D02*
X121193Y79467D01*
Y63338D02*
X123571D01*
X119735Y64796D02*
X121193Y63338D01*
X119735Y49048D02*
X121193Y47590D01*
X119735Y49048D02*
Y51562D01*
X121193Y47590D02*
X123571D01*
X119735Y165608D02*
X125476D01*
X126873Y161198D02*
Y164211D01*
X123220Y164338D02*
X123571Y163987D01*
Y161198D02*
Y163987D01*
X119735Y149860D02*
X125476D01*
X126873Y145450D02*
Y148463D01*
X125476Y149860D02*
X126873Y148463D01*
X123220Y148590D02*
X123571Y148239D01*
Y145450D02*
Y148239D01*
X119735Y133731D02*
X125476D01*
X126873Y129321D02*
Y132334D01*
X125476Y133731D02*
X126873Y132334D01*
X123220Y132461D02*
X123571Y132110D01*
Y129321D02*
Y132110D01*
X119735Y117983D02*
X125476D01*
X126873Y116586D01*
X123220Y116713D02*
X123571Y116362D01*
Y113573D02*
Y116362D01*
X119735Y101727D02*
X125476D01*
X126873Y100330D01*
X119735Y85979D02*
X125476D01*
X126873Y84582D01*
X123220Y84709D02*
X123571Y84358D01*
Y81569D02*
Y84358D01*
X119735Y69850D02*
X125476D01*
X126873Y65440D02*
Y68453D01*
X125476Y69850D02*
X126873Y68453D01*
X123220Y68580D02*
X123571Y68229D01*
Y65440D02*
Y68229D01*
X125476Y54102D02*
X126873Y52705D01*
X119735Y54102D02*
X125476D01*
X129189Y157099D02*
X129540Y156748D01*
Y150114D02*
Y156748D01*
X122938Y157099D02*
X129189D01*
X122587Y156748D02*
X122938Y157099D01*
X122587Y153670D02*
Y156748D01*
X123065Y124968D02*
X129062D01*
X122714Y121539D02*
Y124617D01*
X129062Y124968D02*
X129413Y124617D01*
Y118237D02*
Y124617D01*
X122714D02*
X123065Y124968D01*
X129189Y93218D02*
X129540Y92867D01*
X123065Y93218D02*
X129189D01*
X129540Y86106D02*
Y92867D01*
X122714Y89916D02*
Y92867D01*
X123065Y93218D01*
X129540Y54483D02*
Y60609D01*
X122714Y57785D02*
Y60609D01*
X123065Y60960D01*
X129189D01*
X129540Y60609D01*
X121301Y154616D02*
X121773Y154145D01*
X117094Y154616D02*
X121301D01*
X113547D02*
X117094D01*
X126619Y103348D02*
Y104934D01*
X126238Y119126D02*
Y119180D01*
X126184Y119126D02*
X126238D01*
X126714Y119656D02*
Y121539D01*
X126057Y119253D02*
X126184Y119126D01*
X126238Y119180D02*
X126714Y119656D01*
X119735Y119253D02*
X126057D01*
X126619Y104934D02*
X126714Y105029D01*
X126587Y153670D02*
X126619Y153638D01*
X111835Y147955D02*
X112470Y148590D01*
X111379Y147955D02*
X111835D01*
X112001Y115951D02*
X112763Y116713D01*
X111633Y115951D02*
X112001D01*
X112763Y116713D02*
X114707D01*
X111633Y84201D02*
X112089D01*
X112597Y84709D01*
X114707D01*
X111633Y52197D02*
X112089D01*
X112724Y52832D01*
X114707D01*
X112746Y106264D02*
X117221D01*
X112395Y103348D02*
Y105913D01*
X112746Y106264D01*
X113574Y122866D02*
X117221D01*
X121428D01*
X112395Y121687D02*
X113574Y122866D01*
X121428Y58639D02*
X122282Y57785D01*
X117221Y58639D02*
X121428D01*
Y74479D02*
X122282Y73625D01*
X117221Y74479D02*
X121428D01*
Y90643D02*
X122282Y89789D01*
X117221Y90643D02*
X121428D01*
X121555Y106426D02*
X122409Y105572D01*
X117348Y106426D02*
X121555D01*
X121428Y122866D02*
X122282Y122012D01*
X113249Y58639D02*
X117221D01*
X112395Y57785D02*
X113249Y58639D01*
X112395Y73279D02*
X113595Y74479D01*
X117221D01*
X112395Y71471D02*
Y73279D01*
X113376Y90643D02*
X117221D01*
X112395Y89662D02*
X113376Y90643D01*
X116870Y84709D02*
X117221Y85060D01*
Y89189D01*
Y100808D02*
Y104810D01*
X114961Y100457D02*
X116870D01*
X117221Y100808D01*
X112395Y153464D02*
X113547Y154616D01*
X116870Y132461D02*
X117221Y132812D01*
Y137033D01*
X116870Y116713D02*
X117221Y117064D01*
X114961Y116713D02*
X116870D01*
X117221Y117064D02*
Y121017D01*
X115088Y68580D02*
X116870D01*
X117221Y68931D02*
Y73025D01*
X116870Y68580D02*
X117221Y68931D01*
X114961Y52832D02*
X116870D01*
X117221Y53183D02*
Y57185D01*
X116870Y52832D02*
X117221Y53183D01*
X114834Y84709D02*
X116870D01*
X114834Y132461D02*
X116870D01*
X116616Y148590D02*
X117094Y149068D01*
Y152943D01*
X112470Y148590D02*
X116616D01*
X110524Y55372D02*
X110848D01*
X110490D02*
X110524D01*
X112395Y55723D02*
Y57785D01*
X112746Y55372D02*
X114707D01*
X112395Y55723D02*
X112746Y55372D01*
Y71120D02*
X114707D01*
X112395Y71471D02*
X112746Y71120D01*
Y151130D02*
X113872D01*
X112395Y151481D02*
Y153464D01*
Y151481D02*
X112746Y151130D01*
X112395Y135352D02*
X112746Y135001D01*
X113872D01*
X112395Y135352D02*
Y137396D01*
Y119604D02*
Y121687D01*
Y119604D02*
X112746Y119253D01*
X113872D01*
X112395Y103348D02*
X112746Y102997D01*
X113872D01*
X112395Y87600D02*
Y89662D01*
X112746Y87249D02*
X114707D01*
X112395Y87600D02*
X112746Y87249D01*
X112366Y149889D02*
X114678D01*
X111125Y151130D02*
X112366Y149889D01*
X109635Y151130D02*
X111125D01*
X122282Y169291D02*
X122682D01*
X117221Y170145D02*
X121428D01*
X122282Y169291D01*
X112851D02*
X113705Y170145D01*
X117221D01*
X112395Y169291D02*
X112851D01*
X112395Y167229D02*
X112746Y166878D01*
X114707D01*
X112395Y167229D02*
Y169291D01*
X114707Y164338D02*
X116743D01*
X117221Y164816D02*
Y168691D01*
X116743Y164338D02*
X117221Y164816D01*
X110120Y165608D02*
X114707D01*
X111633Y100457D02*
X114707D01*
X111633Y68580D02*
X114707D01*
X112118Y54102D02*
X114707D01*
X110848Y55372D02*
X112118Y54102D01*
X110628Y69850D02*
X114707D01*
X111136Y101727D02*
X114707D01*
X112141Y133731D02*
X114707D01*
X111475Y134397D02*
X112141Y133731D01*
X109928Y134397D02*
X111475D01*
X111144Y85979D02*
X114707D01*
X109889Y118364D02*
X112014D01*
X112395Y117983D01*
X114707D01*
D18*
X187994Y151599D02*
X191990D01*
X173990Y65532D02*
X181610D01*
X156337D02*
X163957D01*
X138684D02*
X146304D01*
X215558Y139954D02*
X216027Y140423D01*
Y157861D01*
X204304Y139954D02*
X215558D01*
X197340Y136507D02*
Y138920D01*
X198762Y140342D02*
Y144466D01*
X197340Y138920D02*
X198762Y140342D01*
X197104Y136271D02*
X197340Y136507D01*
X163068Y64643D02*
X163957Y65532D01*
X163068Y47244D02*
Y64643D01*
X163957Y65532D02*
X173990D01*
X198293Y148082D02*
X198762Y148551D01*
X196088Y143256D02*
Y145923D01*
Y148082D02*
Y150333D01*
Y145923D02*
Y148082D01*
X198293D01*
X198762Y148551D02*
Y149666D01*
X195107Y142275D02*
X196088Y143256D01*
X187960Y142275D02*
X191897D01*
X195107D01*
X209515D02*
X211582D01*
X207645D02*
X209515D01*
X211582Y146812D02*
Y149419D01*
Y144434D02*
Y146812D01*
X211548Y151604D02*
X211582Y151571D01*
X207518Y151638D02*
X207552Y151604D01*
X211548D01*
X203835Y140423D02*
Y142240D01*
X202812Y143263D02*
Y144466D01*
Y143263D02*
X203835Y142240D01*
Y140423D02*
X204304Y139954D01*
X198882Y157226D02*
X199517Y156591D01*
X198779Y160250D02*
X198882Y160147D01*
Y157226D02*
Y160147D01*
X199517Y156591D02*
X201676D01*
X202812Y155455D01*
Y149666D02*
Y155455D01*
X209169Y160147D02*
X209296Y160020D01*
X211319Y66736D02*
Y71838D01*
X211311Y66727D02*
X211319Y66736D01*
Y71838D02*
X211328Y71847D01*
X202812Y64523D02*
X205994Y61341D01*
Y58293D02*
Y61341D01*
X202812Y64523D02*
Y66361D01*
X191897Y73914D02*
X193716D01*
X187960Y73949D02*
X191897D01*
X193513Y61595D02*
X193716Y61798D01*
X193310Y61392D02*
X193513Y61595D01*
X193716Y73914D02*
X198293D01*
X193716Y61798D02*
Y73914D01*
X190627Y58293D02*
X190658Y58324D01*
X192309D01*
X193310Y59325D01*
Y61392D01*
X198247Y63881D02*
X198762Y64396D01*
X198247Y60432D02*
Y63881D01*
Y60432D02*
X198917Y59762D01*
X198762Y64396D02*
Y66361D01*
X198917Y56007D02*
Y59762D01*
X198293Y73914D02*
X198762Y73445D01*
Y71561D02*
Y73445D01*
D19*
X110007Y66851D02*
X110466Y67310D01*
X109889Y70589D02*
Y70739D01*
Y70589D02*
X110628Y69850D01*
X110007Y66851D02*
Y66851D01*
X101249Y70769D02*
Y74041D01*
Y70769D02*
X101306Y70712D01*
Y70485D02*
Y70712D01*
D20*
X170540Y170307D02*
X176403D01*
X126873Y95215D02*
X132626D01*
X133329Y93393D02*
Y94512D01*
Y93393D02*
X133504Y93218D01*
X132626Y95215D02*
X133329Y94512D01*
X133477Y80170D02*
Y93141D01*
X126873Y79467D02*
X132774D01*
X133477Y80170D01*
X180213Y79121D02*
X213999D01*
X177673Y76581D02*
X180213Y79121D01*
X175676Y73187D02*
X177673D01*
X140716Y73152D02*
X142367D01*
X158658Y73187D02*
X160147D01*
X126873Y159096D02*
X132599D01*
X123571D02*
X126873D01*
Y143348D02*
X132774D01*
X123571D02*
X126873D01*
Y127219D02*
X132599D01*
X123571D02*
X126873D01*
Y111471D02*
X132774D01*
X123571D02*
X126873D01*
X123571Y95215D02*
X126873D01*
X123571Y79467D02*
X126873D01*
Y63338D02*
X132599D01*
X123571D02*
X126873D01*
X171243Y164719D02*
X172479D01*
X169983D02*
X171243D01*
X166243D02*
Y166716D01*
X176259Y164736D02*
Y168237D01*
X176243Y164719D02*
X176259Y164736D01*
X176263Y168240D02*
X176276D01*
X176259Y168237D02*
X176263Y168240D01*
X160782Y170307D02*
X170540D01*
X160782Y165989D02*
Y170307D01*
X160782Y170307D02*
X160782Y170307D01*
X158242Y170307D02*
X160782D01*
X171243Y164719D02*
Y169604D01*
X170540Y170307D02*
X171243Y169604D01*
X158242Y165989D02*
Y168205D01*
X153162Y165989D02*
Y168240D01*
X148785Y170342D02*
X153162D01*
X155702D01*
X148082Y165989D02*
Y169639D01*
X148785Y170342D01*
X155702Y165989D02*
Y168240D01*
X213999Y79121D02*
X214126Y79248D01*
X133477Y144051D02*
Y157022D01*
X132774Y143348D02*
X133477Y144051D01*
X132774Y111471D02*
X133477Y112174D01*
Y125145D01*
X133302Y157197D02*
Y158393D01*
X132599Y159096D02*
X133302Y158393D01*
Y157197D02*
X133477Y157022D01*
X132599Y127219D02*
X133302Y126516D01*
Y125397D02*
X133477Y125222D01*
X133302Y125397D02*
Y126516D01*
X132599Y63338D02*
X133302Y62635D01*
Y61516D02*
X133477Y61341D01*
X133302Y61516D02*
Y62635D01*
X132936Y47752D02*
X133477Y48293D01*
Y44450D02*
Y48293D01*
X126873Y47590D02*
X126876Y47593D01*
X127385D02*
X127544Y47752D01*
X126876Y47593D02*
X127385D01*
X127544Y47752D02*
X132936D01*
X123571Y47590D02*
X126873D01*
X133477Y48293D02*
Y61341D01*
Y44450D02*
X144907D01*
X163068D01*
X144907D02*
Y46990D01*
X163068Y44450D02*
Y47244D01*
X214126Y79248D02*
Y82646D01*
Y76358D02*
Y79248D01*
X177673Y73187D02*
Y76581D01*
X214117Y82718D02*
Y86462D01*
Y82718D02*
X214158Y82677D01*
X214092Y86487D02*
X214117Y86462D01*
X210982Y82677D02*
X214158D01*
X223393Y78740D02*
X223520Y78867D01*
Y81974D01*
X218658Y82677D02*
X222817D01*
X223520Y81974D01*
X214126Y82646D02*
X214158Y82677D01*
X214095Y76327D02*
X214126Y76358D01*
X214095Y76327D02*
X220245D01*
Y74027D02*
X223106D01*
X223393Y73740D01*
X223280Y78627D02*
X223393Y78740D01*
X220245Y78627D02*
X223280D01*
D22*
X74041Y82804D02*
D03*
Y85344D02*
D03*
Y87884D02*
D03*
Y71882D02*
D03*
Y69342D02*
D03*
Y66802D02*
D03*
Y55880D02*
D03*
Y53340D02*
D03*
Y50800D02*
D03*
Y103759D02*
D03*
Y101219D02*
D03*
Y98679D02*
D03*
Y119761D02*
D03*
Y117221D02*
D03*
Y114681D02*
D03*
X74168Y135763D02*
D03*
Y133223D02*
D03*
Y130683D02*
D03*
X74041Y151765D02*
D03*
Y149225D02*
D03*
Y146685D02*
D03*
X63881Y50800D02*
D03*
Y53340D02*
D03*
Y55880D02*
D03*
Y66802D02*
D03*
Y69342D02*
D03*
Y71882D02*
D03*
Y82804D02*
D03*
Y85344D02*
D03*
Y87884D02*
D03*
Y98679D02*
D03*
Y101219D02*
D03*
Y103759D02*
D03*
Y114808D02*
D03*
Y117348D02*
D03*
Y119888D02*
D03*
Y130683D02*
D03*
Y133223D02*
D03*
Y135763D02*
D03*
Y146685D02*
D03*
Y149225D02*
D03*
Y151765D02*
D03*
X74041Y167640D02*
D03*
Y165100D02*
D03*
Y162560D02*
D03*
X63881D02*
D03*
Y165100D02*
D03*
Y167640D02*
D03*
D23*
X94234Y85344D02*
D03*
Y69342D02*
D03*
Y53340D02*
D03*
Y101219D02*
D03*
Y117221D02*
D03*
X94361Y133223D02*
D03*
X94234Y149225D02*
D03*
X43688Y53340D02*
D03*
Y69342D02*
D03*
Y85344D02*
D03*
Y101219D02*
D03*
Y117348D02*
D03*
Y133223D02*
D03*
Y149225D02*
D03*
X94234Y165100D02*
D03*
X43688D02*
D03*
D24*
X104367Y157022D02*
D03*
X163068Y47244D02*
D03*
X165608D02*
D03*
X168148D02*
D03*
X170688D02*
D03*
X173228D02*
D03*
X169291Y151176D02*
D03*
X171831D02*
D03*
X174371D02*
D03*
X176911D02*
D03*
X179451Y151176D02*
D03*
X174244Y143129D02*
D03*
X171704D02*
D03*
X169164D02*
D03*
X178054D02*
D03*
X180594D02*
D03*
X183134D02*
D03*
X150622Y165989D02*
D03*
X153162D02*
D03*
X155702D02*
D03*
X158242D02*
D03*
X160782D02*
D03*
X104367Y125222D02*
D03*
X104394Y93218D02*
D03*
X104367Y61341D02*
D03*
D25*
X133477Y157022D02*
D03*
X175768Y47244D02*
D03*
X166751Y151176D02*
D03*
X166624Y143129D02*
D03*
X185674D02*
D03*
X148082Y165989D02*
D03*
X133477Y125222D02*
D03*
X133504Y93218D02*
D03*
X133477Y61341D02*
D03*
D26*
X199771Y130810D02*
D03*
X156591Y121031D02*
D03*
Y101092D02*
D03*
D28*
X129540Y150114D02*
D03*
X126873Y148463D02*
D03*
X185801Y157861D02*
D03*
X190754Y157607D02*
D03*
X195790Y157905D02*
D03*
X205994Y157861D02*
D03*
X211074Y157734D02*
D03*
X216027Y157861D02*
D03*
X180340Y47117D02*
D03*
X200787D02*
D03*
X191770Y69342D02*
D03*
X195707Y58293D02*
D03*
X190627D02*
D03*
X185674D02*
D03*
X201549D02*
D03*
X205994D02*
D03*
X216027D02*
D03*
X211328Y69342D02*
D03*
X193675Y101600D02*
D03*
X193548Y107061D02*
D03*
X211582Y146812D02*
D03*
X191833Y146974D02*
D03*
X180594Y169164D02*
D03*
X200914Y169037D02*
D03*
X105283Y163576D02*
D03*
X109474Y170307D02*
D03*
X112395Y169291D02*
D03*
X126873Y164465D02*
D03*
X105156Y151130D02*
D03*
X111379Y147955D02*
D03*
X114681Y144907D02*
D03*
X109474Y142494D02*
D03*
Y138684D02*
D03*
X112395Y137414D02*
D03*
X105283Y134747D02*
D03*
Y131699D02*
D03*
X126873Y116459D02*
D03*
X129413Y118237D02*
D03*
X104902Y118618D02*
D03*
X111633Y115951D02*
D03*
X114808Y113284D02*
D03*
X109474Y110998D02*
D03*
Y107188D02*
D03*
X112746Y106264D02*
D03*
X105664Y102489D02*
D03*
Y99568D02*
D03*
Y86995D02*
D03*
X111633Y84201D02*
D03*
X114808Y81026D02*
D03*
X109220Y78994D02*
D03*
X109474Y75057D02*
D03*
X112395Y73279D02*
D03*
X105537Y71120D02*
D03*
X105410Y67056D02*
D03*
X129540Y86106D02*
D03*
X126873Y84328D02*
D03*
Y68453D02*
D03*
Y52578D02*
D03*
X129540Y54483D02*
D03*
X109474Y47371D02*
D03*
X111633Y52197D02*
D03*
X114808Y49149D02*
D03*
X105283Y166624D02*
D03*
X126873Y132334D02*
D03*
X105283Y55372D02*
D03*
X68199Y61341D02*
D03*
Y125222D02*
D03*
X126873Y100203D02*
D03*
X68199Y93218D02*
D03*
Y157099D02*
D03*
D29*
X149987Y46990D02*
D03*
X147447D02*
D03*
X152527D02*
D03*
X155067D02*
D03*
X207518Y64643D02*
D03*
Y67183D02*
D03*
X187960Y64643D02*
D03*
Y67183D02*
D03*
Y151633D02*
D03*
Y149093D02*
D03*
X207518Y149098D02*
D03*
Y151638D02*
D03*
D30*
X144907Y46990D02*
D03*
D31*
X138684Y65532D02*
D03*
Y70104D02*
D03*
X146304D02*
D03*
Y65532D02*
D03*
X173990D02*
D03*
Y70104D02*
D03*
X181610D02*
D03*
Y65532D02*
D03*
X156337D02*
D03*
Y70104D02*
D03*
X163957D02*
D03*
Y65532D02*
D03*
D32*
X213487Y162052D02*
D03*
X203454Y162047D02*
D03*
X193167Y162052D02*
D03*
X183134D02*
D03*
X208534Y54102D02*
D03*
X218567D02*
D03*
X198247D02*
D03*
X188214D02*
D03*
D33*
X216027Y162052D02*
D03*
X218567D02*
D03*
X205994Y162047D02*
D03*
X208534D02*
D03*
X195707Y162052D02*
D03*
X198247D02*
D03*
X185674D02*
D03*
X188214D02*
D03*
X203454Y54102D02*
D03*
X205994D02*
D03*
X213487D02*
D03*
X216027D02*
D03*
X193167D02*
D03*
X195707D02*
D03*
X183134D02*
D03*
X185674D02*
D03*
X188209Y104013D02*
D03*
Y101473D02*
D03*
D34*
X223393Y106731D02*
D03*
Y96727D02*
D03*
Y73740D02*
D03*
Y129747D02*
D03*
X34679Y159599D02*
D03*
X34671Y127682D02*
D03*
X34679Y95083D02*
D03*
Y63714D02*
D03*
D35*
X223393Y111731D02*
D03*
Y101727D02*
D03*
Y78740D02*
D03*
Y134747D02*
D03*
X166243Y164719D02*
D03*
X171243D02*
D03*
X34679Y154599D02*
D03*
X34671Y122682D02*
D03*
X34679Y90083D02*
D03*
Y58714D02*
D03*
D36*
X194768Y111731D02*
D03*
X194640Y96901D02*
D03*
D37*
X216663Y111731D02*
D03*
X216535Y96901D02*
D03*
D38*
X217678Y47244D02*
D03*
X215138D02*
D03*
X209423D02*
D03*
X206883D02*
D03*
X189103D02*
D03*
X186563D02*
D03*
X197358D02*
D03*
X194818D02*
D03*
X215138Y169037D02*
D03*
X212598D02*
D03*
X206883D02*
D03*
X204343D02*
D03*
X194818Y169083D02*
D03*
X192278D02*
D03*
X186563D02*
D03*
X184023D02*
D03*
X139446Y166035D02*
D03*
X141986D02*
D03*
X131064Y165989D02*
D03*
X133604D02*
D03*
D39*
X212598Y47244D02*
D03*
X204343D02*
D03*
X184023D02*
D03*
X192278D02*
D03*
X217678Y169037D02*
D03*
X209423D02*
D03*
X197358Y169083D02*
D03*
X189103D02*
D03*
X144526Y166035D02*
D03*
X136144Y165989D02*
D03*
D40*
X215646Y105370D02*
D03*
Y102870D02*
D03*
D41*
X176243Y164719D02*
D03*
D42*
X188209Y106553D02*
D03*
D43*
X224663Y168910D02*
D03*
X34798D02*
D03*
X224663Y47879D02*
D03*
X34798D02*
D03*
D44*
X157861Y127635D02*
D03*
X160528Y129286D02*
D03*
X153543D02*
D03*
X150495Y147574D02*
D03*
X143256Y131445D02*
D03*
X144399Y131318D02*
D03*
X143510Y134747D02*
D03*
X141351Y115570D02*
D03*
X138938Y114554D02*
D03*
X139716Y91567D02*
D03*
X167879Y100315D02*
D03*
X167132Y84201D02*
D03*
X166116Y98670D02*
D03*
X167229Y120650D02*
D03*
X145542Y79375D02*
D03*
X145288Y90805D02*
D03*
X146558Y91567D02*
D03*
X144638Y98552D02*
D03*
X148209Y93726D02*
D03*
X151511Y94361D02*
D03*
X148844Y97536D02*
D03*
X137033Y77978D02*
D03*
X126746Y76327D02*
D03*
X141351Y132207D02*
D03*
X135128Y113284D02*
D03*
X145684Y130429D02*
D03*
Y125349D02*
D03*
X134898Y127635D02*
D03*
X146812Y125349D02*
D03*
X150368D02*
D03*
X148082D02*
D03*
X149225D02*
D03*
X151765D02*
D03*
X139065Y77978D02*
D03*
X121285Y87249D02*
D03*
X121920Y84709D02*
D03*
X122682Y100457D02*
D03*
X119761Y97409D02*
D03*
X124587Y55372D02*
D03*
Y102870D02*
D03*
Y70993D02*
D03*
X124714Y166878D02*
D03*
Y151130D02*
D03*
X111633Y132461D02*
D03*
Y164338D02*
D03*
X220218Y165735D02*
D03*
X164465Y117729D02*
D03*
X163703Y118491D02*
D03*
X142367Y74930D02*
D03*
X165227Y125095D02*
D03*
X161671D02*
D03*
X162941D02*
D03*
X196088Y145923D02*
D03*
X143256Y157353D02*
D03*
X166624Y121920D02*
D03*
X163957Y125095D02*
D03*
X157734Y95250D02*
D03*
Y96266D02*
D03*
X128032Y134658D02*
D03*
X129032Y137033D02*
D03*
X154813Y97409D02*
D03*
X135890Y154178D02*
D03*
X148082Y137160D02*
D03*
X150368Y135890D02*
D03*
X134874Y159385D02*
D03*
X154559Y158369D02*
D03*
X163068Y98171D02*
D03*
X164592Y98298D02*
D03*
X158496Y159512D02*
D03*
X154432Y54102D02*
D03*
X206121Y84201D02*
D03*
Y85725D02*
D03*
X175676Y73187D02*
D03*
X140716Y73152D02*
D03*
X158658Y73187D02*
D03*
X164846Y110363D02*
D03*
X154813Y110871D02*
D03*
X157099Y111887D02*
D03*
X158115Y112903D02*
D03*
X156210Y113538D02*
D03*
X162941Y167513D02*
D03*
X152527Y52705D02*
D03*
X147447D02*
D03*
X149987D02*
D03*
X200152Y142240D02*
D03*
X209515Y142275D02*
D03*
X200152Y63373D02*
D03*
X204943Y73949D02*
D03*
X122047Y79375D02*
D03*
X119761Y65278D02*
D03*
X122047Y111506D02*
D03*
X119761Y129286D02*
D03*
X122047Y143383D02*
D03*
X110490Y61341D02*
D03*
X110617Y93218D02*
D03*
X110490Y125222D02*
D03*
Y156972D02*
D03*
X121920Y164338D02*
D03*
Y148590D02*
D03*
Y132461D02*
D03*
Y116586D02*
D03*
Y52832D02*
D03*
Y68580D02*
D03*
X111633Y67310D02*
D03*
Y99187D02*
D03*
Y131191D02*
D03*
Y163068D02*
D03*
X126238Y119126D02*
D03*
X111633Y100457D02*
D03*
Y68580D02*
D03*
X101346Y72263D02*
D03*
X101092Y65659D02*
D03*
Y82550D02*
D03*
X100963Y50419D02*
D03*
X101023Y56325D02*
D03*
X101092Y167894D02*
D03*
X101122Y162083D02*
D03*
X101052Y152069D02*
D03*
X100956Y146177D02*
D03*
X101038Y136081D02*
D03*
X100965Y130429D02*
D03*
X101019Y120015D02*
D03*
X101092Y114427D02*
D03*
X101019Y104076D02*
D03*
X101024Y98107D02*
D03*
X101019Y88138D02*
D03*
D45*
X73914Y47625D02*
D03*
X70334D02*
D03*
X74041Y58928D02*
D03*
X70461D02*
D03*
X74041Y63627D02*
D03*
X70461D02*
D03*
X73914Y79629D02*
D03*
X70334D02*
D03*
X74041Y91059D02*
D03*
X70461D02*
D03*
X74041Y95504D02*
D03*
X70461D02*
D03*
X74041Y106934D02*
D03*
X70461D02*
D03*
X74053Y111379D02*
D03*
X70473D02*
D03*
X74180Y122936D02*
D03*
X70600D02*
D03*
X74053Y127381D02*
D03*
X70473D02*
D03*
X73926Y138938D02*
D03*
X70346D02*
D03*
X73914Y143510D02*
D03*
X70334D02*
D03*
X74053Y154940D02*
D03*
X70473D02*
D03*
X74053Y159385D02*
D03*
X70473D02*
D03*
X74053Y170688D02*
D03*
X70473D02*
D03*
X74053Y75057D02*
D03*
X70473D02*
D03*
D46*
X202812Y66615D02*
D03*
X198762D02*
D03*
X202812Y71815D02*
D03*
X198762D02*
D03*
X202812Y144974D02*
D03*
X198762D02*
D03*
X202812Y150174D02*
D03*
X198762D02*
D03*
D47*
X201422Y66615D02*
D03*
X200152D02*
D03*
X201422Y71815D02*
D03*
X200152D02*
D03*
X201422Y144974D02*
D03*
X200152D02*
D03*
X201422Y150174D02*
D03*
X200152D02*
D03*
D48*
X100995Y80772D02*
D03*
X104745D02*
D03*
X100868Y90170D02*
D03*
X104618D02*
D03*
X101092Y153670D02*
D03*
X104842D02*
D03*
X101025Y169672D02*
D03*
X104775D02*
D03*
X100995Y144526D02*
D03*
X104745D02*
D03*
X101025Y137795D02*
D03*
X104775D02*
D03*
X100995Y128524D02*
D03*
X104745D02*
D03*
X101025Y112522D02*
D03*
X104775D02*
D03*
X101025Y121666D02*
D03*
X104775D02*
D03*
X101025Y96520D02*
D03*
X104775D02*
D03*
X101025Y105664D02*
D03*
X104775D02*
D03*
X101122Y63881D02*
D03*
X104872D02*
D03*
X100995Y57912D02*
D03*
X104745D02*
D03*
X214092Y86487D02*
D03*
X210342D02*
D03*
X104999Y74041D02*
D03*
X101249D02*
D03*
X104745Y48641D02*
D03*
X100995D02*
D03*
X104775Y160401D02*
D03*
X101025D02*
D03*
D49*
X123571Y161198D02*
D03*
Y159096D02*
D03*
X126873Y161198D02*
D03*
Y159096D02*
D03*
X123571Y81569D02*
D03*
Y79467D02*
D03*
X126873Y81569D02*
D03*
Y79467D02*
D03*
X123571Y65440D02*
D03*
Y63338D02*
D03*
X126873Y65440D02*
D03*
Y63338D02*
D03*
X123571Y49692D02*
D03*
Y47590D02*
D03*
X126873Y49692D02*
D03*
Y47590D02*
D03*
X155702Y170342D02*
D03*
Y168240D02*
D03*
X158242Y168205D02*
D03*
Y170307D02*
D03*
X166243Y168818D02*
D03*
Y166716D02*
D03*
X176276Y168240D02*
D03*
Y170342D02*
D03*
X160147Y73187D02*
D03*
Y71085D02*
D03*
X191770Y66710D02*
D03*
Y64608D02*
D03*
X187960Y73949D02*
D03*
Y71847D02*
D03*
X191897Y73949D02*
D03*
Y71847D02*
D03*
X207518Y73949D02*
D03*
Y71847D02*
D03*
X187960Y142297D02*
D03*
Y144399D02*
D03*
X196088Y150333D02*
D03*
Y152435D02*
D03*
X207645Y142297D02*
D03*
Y144399D02*
D03*
X211582Y142332D02*
D03*
Y144434D02*
D03*
X133604Y162179D02*
D03*
Y164281D02*
D03*
X136144Y162179D02*
D03*
Y164281D02*
D03*
X141986Y162179D02*
D03*
Y164281D02*
D03*
X144526Y162179D02*
D03*
Y164281D02*
D03*
X153162Y168240D02*
D03*
Y170342D02*
D03*
X142367Y71050D02*
D03*
Y73152D02*
D03*
X177673Y71085D02*
D03*
Y73187D02*
D03*
X191897Y144377D02*
D03*
Y142275D02*
D03*
Y151673D02*
D03*
Y149571D02*
D03*
X211311Y64626D02*
D03*
Y66727D02*
D03*
X211328Y71847D02*
D03*
Y73949D02*
D03*
X215138Y164684D02*
D03*
Y166786D02*
D03*
X206883Y164684D02*
D03*
Y166786D02*
D03*
X186563Y164846D02*
D03*
Y166948D02*
D03*
X194818Y164684D02*
D03*
Y166786D02*
D03*
X215138Y49495D02*
D03*
Y51597D02*
D03*
X206883Y49460D02*
D03*
Y51562D02*
D03*
X186563Y49368D02*
D03*
Y51470D02*
D03*
X194818Y49368D02*
D03*
Y51470D02*
D03*
X126873Y143348D02*
D03*
Y145450D02*
D03*
X123571Y143348D02*
D03*
Y145450D02*
D03*
X126873Y127219D02*
D03*
Y129321D02*
D03*
X123571Y127219D02*
D03*
Y129321D02*
D03*
X126873Y111471D02*
D03*
Y113573D02*
D03*
X123571Y111471D02*
D03*
Y113573D02*
D03*
X126873Y95215D02*
D03*
Y97317D02*
D03*
X123571Y95215D02*
D03*
Y97317D02*
D03*
D50*
X126714Y57785D02*
D03*
X122714D02*
D03*
X126714Y73406D02*
D03*
X122714D02*
D03*
X126714Y89916D02*
D03*
X122714D02*
D03*
X126714Y105029D02*
D03*
X122714D02*
D03*
X126714Y121539D02*
D03*
X122714D02*
D03*
X126714Y137160D02*
D03*
X122714D02*
D03*
X126587Y153670D02*
D03*
X122587D02*
D03*
X126682Y169291D02*
D03*
X122682D02*
D03*
D51*
X117221Y168691D02*
D03*
Y170145D02*
D03*
X117094Y153162D02*
D03*
Y154616D02*
D03*
X117221Y137033D02*
D03*
Y138487D02*
D03*
Y121412D02*
D03*
Y122866D02*
D03*
Y104810D02*
D03*
Y106264D02*
D03*
Y89189D02*
D03*
Y90643D02*
D03*
Y57185D02*
D03*
Y58639D02*
D03*
Y74479D02*
D03*
Y73025D02*
D03*
D52*
X114707Y71120D02*
D03*
Y69850D02*
D03*
Y68580D02*
D03*
Y67310D02*
D03*
X119735D02*
D03*
Y68580D02*
D03*
Y69850D02*
D03*
Y71120D02*
D03*
X114707Y55372D02*
D03*
Y54102D02*
D03*
Y52832D02*
D03*
Y51562D02*
D03*
X119735D02*
D03*
Y52832D02*
D03*
Y54102D02*
D03*
Y55372D02*
D03*
X114707Y166878D02*
D03*
Y165608D02*
D03*
Y164338D02*
D03*
Y163068D02*
D03*
X119735D02*
D03*
Y164338D02*
D03*
Y165608D02*
D03*
Y166878D02*
D03*
X114707Y151130D02*
D03*
Y149860D02*
D03*
Y148590D02*
D03*
Y147320D02*
D03*
X119735D02*
D03*
Y148590D02*
D03*
Y149860D02*
D03*
Y151130D02*
D03*
X114707Y135001D02*
D03*
Y133731D02*
D03*
Y132461D02*
D03*
Y131191D02*
D03*
X119735D02*
D03*
Y132461D02*
D03*
Y133731D02*
D03*
Y135001D02*
D03*
X114707Y119253D02*
D03*
Y117983D02*
D03*
Y116713D02*
D03*
Y115443D02*
D03*
X119735D02*
D03*
Y116713D02*
D03*
Y117983D02*
D03*
Y119253D02*
D03*
X114707Y102997D02*
D03*
Y101727D02*
D03*
Y100457D02*
D03*
Y99187D02*
D03*
X119735D02*
D03*
Y100457D02*
D03*
Y101727D02*
D03*
Y102997D02*
D03*
X114707Y87249D02*
D03*
Y85979D02*
D03*
Y84709D02*
D03*
Y83439D02*
D03*
X119735D02*
D03*
Y84709D02*
D03*
Y85979D02*
D03*
Y87249D02*
D03*
D53*
X108620Y52197D02*
D03*
X106518D02*
D03*
X110144Y67310D02*
D03*
X108042D02*
D03*
X110144Y99568D02*
D03*
X108042D02*
D03*
X108620Y115951D02*
D03*
X106518D02*
D03*
X109763Y131699D02*
D03*
X107661D02*
D03*
X109763Y163068D02*
D03*
X107661D02*
D03*
X103159Y163576D02*
D03*
X101057D02*
D03*
X108493Y84074D02*
D03*
X106391D02*
D03*
X184566Y56007D02*
D03*
X182464D02*
D03*
X188884D02*
D03*
X186782D02*
D03*
X198917D02*
D03*
X196815D02*
D03*
X204886D02*
D03*
X202784D02*
D03*
X209204D02*
D03*
X207102D02*
D03*
X219237D02*
D03*
X217135D02*
D03*
X200117Y61849D02*
D03*
X202219D02*
D03*
X193513Y61595D02*
D03*
X195615D02*
D03*
X200244Y139954D02*
D03*
X202346D02*
D03*
X217135Y160147D02*
D03*
X219237D02*
D03*
X212817D02*
D03*
X214919D02*
D03*
X209169D02*
D03*
X207067D02*
D03*
X202784D02*
D03*
X204886D02*
D03*
X196780D02*
D03*
X198882D02*
D03*
X192497D02*
D03*
X194599D02*
D03*
X188849D02*
D03*
X186747D02*
D03*
X182591D02*
D03*
X184693D02*
D03*
X194599Y56007D02*
D03*
X192497D02*
D03*
X214919D02*
D03*
X212817D02*
D03*
X208880Y82677D02*
D03*
X210982D02*
D03*
X106137Y147828D02*
D03*
X108239D02*
D03*
X101057Y67437D02*
D03*
X103159D02*
D03*
X100895Y147828D02*
D03*
X102997D02*
D03*
X100930Y52197D02*
D03*
X103032D02*
D03*
X101022Y83947D02*
D03*
X103124D02*
D03*
X101022Y99695D02*
D03*
X103124D02*
D03*
X100930Y131699D02*
D03*
X103032D02*
D03*
X101022Y115824D02*
D03*
X103124D02*
D03*
D54*
X108424Y55372D02*
D03*
X110524D02*
D03*
X107789Y70739D02*
D03*
X109889D02*
D03*
X108551Y86741D02*
D03*
X110651D02*
D03*
X108424Y102489D02*
D03*
X110524D02*
D03*
X107789Y118364D02*
D03*
X109889D02*
D03*
X107628Y134747D02*
D03*
X109728D02*
D03*
X107535Y151130D02*
D03*
X109635D02*
D03*
Y166243D02*
D03*
X107535D02*
D03*
D55*
X107582Y61341D02*
D03*
X109334D02*
D03*
X107582Y93218D02*
D03*
X109334D02*
D03*
X107582Y125222D02*
D03*
X109334D02*
D03*
X107709Y156972D02*
D03*
X109461D02*
D03*
D56*
X101052Y166497D02*
D03*
X102656D02*
D03*
X101139Y150622D02*
D03*
X102743D02*
D03*
X101052Y134366D02*
D03*
X102656D02*
D03*
X101012Y118364D02*
D03*
X102616D02*
D03*
X101012Y102489D02*
D03*
X102616D02*
D03*
X101052Y54737D02*
D03*
X102656D02*
D03*
X102910Y70485D02*
D03*
X101306D02*
D03*
X102616Y86487D02*
D03*
X101012D02*
D03*
D57*
X160483Y157099D02*
D03*
Y158369D02*
D03*
Y159639D02*
D03*
Y160909D02*
D03*
X165907D02*
D03*
Y159639D02*
D03*
Y158369D02*
D03*
Y157099D02*
D03*
D58*
X169983Y164719D02*
D03*
X167583D02*
D03*
X172479D02*
D03*
X174879D02*
D03*
D59*
X165970Y119018D02*
D03*
X164484Y120504D02*
D03*
D60*
X161541Y113075D02*
D03*
X161187Y113428D02*
D03*
X160834Y113782D02*
D03*
X160480Y114135D02*
D03*
X160127Y114489D02*
D03*
X159773Y114842D02*
D03*
X159419Y115196D02*
D03*
X159066Y115550D02*
D03*
X158712Y115903D02*
D03*
X158359Y116257D02*
D03*
X158005Y116610D02*
D03*
X157652Y116964D02*
D03*
X151641Y110953D02*
D03*
X151995Y110600D02*
D03*
X152348Y110246D02*
D03*
X152702Y109893D02*
D03*
X153055Y109539D02*
D03*
X153409Y109186D02*
D03*
X153763Y108832D02*
D03*
X154116Y108478D02*
D03*
X154470Y108125D02*
D03*
X154823Y107771D02*
D03*
X155177Y107418D02*
D03*
X155530Y107064D02*
D03*
D61*
Y116964D02*
D03*
X155177Y116610D02*
D03*
X154823Y116257D02*
D03*
X154470Y115903D02*
D03*
X154116Y115550D02*
D03*
X153763Y115196D02*
D03*
X153409Y114842D02*
D03*
X153055Y114489D02*
D03*
X152702Y114135D02*
D03*
X152348Y113782D02*
D03*
X151995Y113428D02*
D03*
X151641Y113075D02*
D03*
X157652Y107064D02*
D03*
X158005Y107418D02*
D03*
X158359Y107771D02*
D03*
X158712Y108125D02*
D03*
X159066Y108478D02*
D03*
X159419Y108832D02*
D03*
X159773Y109186D02*
D03*
X160127Y109539D02*
D03*
X160480Y109893D02*
D03*
X160834Y110246D02*
D03*
X161187Y110600D02*
D03*
X161541Y110953D02*
D03*
D62*
X142400Y96233D02*
D03*
X138016Y100617D02*
D03*
D63*
X142345Y101876D02*
D03*
X143405Y100816D02*
D03*
D64*
X164741Y103527D02*
D03*
X163681Y102467D02*
D03*
D65*
X177673Y67449D02*
D03*
Y65647D02*
D03*
X142367Y67322D02*
D03*
Y65520D02*
D03*
X160147Y67449D02*
D03*
Y65647D02*
D03*
D66*
X152527Y48768D02*
D03*
Y50520D02*
D03*
D67*
X214095Y76327D02*
D03*
D68*
X220245Y74027D02*
D03*
Y76327D02*
D03*
Y78627D02*
D03*
D69*
X214158Y82677D02*
D03*
X218658D02*
D03*
D70*
X192024Y104267D02*
D03*
X193726D02*
D03*
D71*
X198102Y107671D02*
D03*
Y105969D02*
D03*
Y104267D02*
D03*
Y102565D02*
D03*
Y100863D02*
D03*
D72*
X208407Y104267D02*
D03*
D73*
X211582Y149419D02*
D03*
Y151571D02*
D03*
X149987Y51047D02*
D03*
Y48895D02*
D03*
X147447Y51047D02*
D03*
Y48895D02*
D03*
D74*
X114106Y61341D02*
D03*
X111954D02*
D03*
X114046Y125222D02*
D03*
X111894D02*
D03*
X114233Y93218D02*
D03*
X112081D02*
D03*
X114106Y156972D02*
D03*
X111954D02*
D03*
D75*
X142454Y101767D02*
X151641Y110953D01*
X185674Y137208D02*
Y143129D01*
X153670Y121666D02*
X160274Y128270D01*
X165989D02*
X169164Y131445D01*
X160274Y128270D02*
X165989D01*
X141351Y115570D02*
X149853D01*
X151995Y113428D01*
X138938Y114554D02*
X150162D01*
X151641Y113075D01*
X155829Y74422D02*
X162179D01*
X153162Y71755D02*
X155829Y74422D01*
X153162Y59182D02*
Y71755D01*
X154051Y76454D02*
X160528D01*
X149606Y70280D02*
Y72009D01*
X154051Y76454D01*
X150622Y58801D02*
Y71628D01*
X154813Y75819D02*
X161163D01*
X150622Y71628D02*
X154813Y75819D01*
X151892Y58801D02*
Y71755D01*
X155321Y75184D02*
X161671D01*
X151892Y71755D02*
X155321Y75184D01*
X155575Y49119D02*
Y56769D01*
X153162Y59182D02*
X155575Y56769D01*
X154432Y54102D02*
Y56261D01*
X151892Y58801D02*
X154432Y56261D01*
X144653Y52832D02*
X150622Y58801D01*
X160528Y76454D02*
X167879Y83805D01*
X161163Y75819D02*
X168783Y83439D01*
X161671Y75184D02*
X169291Y82804D01*
X162179Y74422D02*
X169926Y82169D01*
X149430Y70104D02*
X149606Y70280D01*
X146304Y70104D02*
X149430D01*
X163957D02*
X170561Y76708D01*
Y103632D01*
X169926Y82169D02*
Y103505D01*
X169291Y82804D02*
Y103251D01*
X168783Y83439D02*
Y102870D01*
X167879Y83805D02*
Y100315D01*
X171196Y72898D02*
Y104013D01*
X167386Y107823D02*
X171196Y104013D01*
X163964Y107823D02*
X167386D01*
X163088Y105870D02*
X165783D01*
X163765Y107315D02*
X166878D01*
X166213Y106329D02*
X169291Y103251D01*
X162899Y105353D02*
X165158D01*
X165783Y105870D02*
X168783Y102870D01*
X163566Y106807D02*
X166624D01*
X159419Y108832D02*
X162899Y105353D01*
X163337Y106329D02*
X166213D01*
X166878Y107315D02*
X170561Y103632D01*
X160834Y110246D02*
X163765Y107315D01*
X165158Y105353D02*
X167132Y103378D01*
X161187Y110600D02*
X163964Y107823D01*
X166624Y106807D02*
X169926Y103505D01*
X160127Y109539D02*
X163337Y106329D01*
X159773Y109186D02*
X163088Y105870D01*
X160480Y109893D02*
X163566Y106807D01*
X167132Y84201D02*
Y103378D01*
X162878Y104648D02*
X163621D01*
X164741Y103527D01*
X165460Y99191D02*
X165981Y98670D01*
X166116D01*
X165223Y99191D02*
X165460D01*
X161417Y102997D02*
X165223Y99191D01*
X150368Y104023D02*
X154470Y108125D01*
X150368Y95504D02*
Y104023D01*
Y95504D02*
X151511Y94361D01*
X151257Y104205D02*
X154823Y107771D01*
X151257Y97917D02*
Y104205D01*
Y97917D02*
X153924Y95250D01*
X152273Y104511D02*
X155177Y107414D01*
X152273Y98044D02*
Y104511D01*
Y98044D02*
X154051Y96266D01*
X153162Y99060D02*
Y104696D01*
Y99060D02*
X154813Y97409D01*
X153162Y104696D02*
X155530Y107064D01*
X162941Y118961D02*
X164484Y120504D01*
X160127Y114489D02*
X162941Y117303D01*
Y118961D01*
X143405Y100933D02*
X144018Y101545D01*
Y102623D02*
X151995Y110600D01*
X143405Y100816D02*
Y100933D01*
X144018Y101545D02*
Y102623D01*
X158712Y108125D02*
X162560Y104277D01*
Y103587D02*
X163681Y102467D01*
X162560Y103587D02*
Y104277D01*
X159446Y108080D02*
X162878Y104648D01*
X163830Y109347D02*
X164846Y110363D01*
X161541Y110953D02*
X163147Y109347D01*
X163830D01*
X145684Y120446D02*
X152348Y113782D01*
X145684Y120446D02*
Y125349D01*
X145542Y79375D02*
X147335Y81168D01*
Y103112D01*
X145331Y91655D02*
X145669Y91993D01*
X145331Y90848D02*
Y91655D01*
X145288Y90805D02*
X145331Y90848D01*
X145669Y91993D02*
Y102860D01*
X152702Y109893D01*
X146558Y103042D02*
X153055Y109539D01*
X146558Y91567D02*
Y103042D01*
X144653Y98567D02*
Y102551D01*
X144638Y98552D02*
X144653Y98567D01*
X148209Y93726D02*
Y96782D01*
X147828Y97163D02*
X148209Y96782D01*
X144653Y102551D02*
X152348Y110246D01*
X148844Y97536D02*
Y103206D01*
X147335Y103112D02*
X153409Y109186D01*
X147828Y97163D02*
Y102897D01*
X135128Y113284D02*
Y123063D01*
X138557Y126492D01*
X152508D01*
X152684Y126316D01*
Y117689D02*
Y126316D01*
Y117689D02*
X154470Y115903D01*
X149225Y119026D02*
Y125349D01*
X150368Y118591D02*
Y125349D01*
X146812Y120025D02*
Y125349D01*
X148082Y119462D02*
Y125349D01*
X151765Y117901D02*
Y125349D01*
X161541Y113075D02*
X185674Y137208D01*
X155453Y111384D02*
X156184Y110654D01*
X164369Y117317D02*
Y117633D01*
X151641Y110953D02*
X152702Y112014D01*
X160834Y113782D02*
X164369Y117317D01*
X165863Y118104D02*
Y118911D01*
X156184Y110654D02*
X158712Y108125D01*
X142345Y101876D02*
X142437D01*
X163703Y117358D02*
Y118491D01*
X161187Y113428D02*
X165863Y118104D01*
X159358Y110892D02*
X161541Y113075D01*
X164369Y117633D02*
X164465Y117729D01*
X160480Y114135D02*
X163703Y117358D01*
X160154Y112395D02*
X161187Y113428D01*
X165863Y118911D02*
X165970Y119018D01*
X161290Y121158D02*
X165227Y125095D01*
X161290Y117774D02*
Y121158D01*
X160782Y121920D02*
X163957Y125095D01*
X158712Y115903D02*
X160782Y117973D01*
Y121920D01*
X159066Y115550D02*
X161290Y117774D01*
X160274Y118172D02*
Y122428D01*
X162941Y125095D01*
X158359Y116257D02*
X160274Y118172D01*
X158005Y116610D02*
X159766Y118371D01*
Y123190D02*
X161671Y125095D01*
X159766Y118371D02*
Y123190D01*
X161798Y120396D02*
X175768Y134366D01*
X162306Y120015D02*
X176530Y134239D01*
X161798Y117578D02*
Y120396D01*
X159773Y114842D02*
X162306Y117375D01*
X159419Y115199D02*
X161798Y117578D01*
X162306Y117375D02*
Y120015D01*
X176530Y134239D02*
Y150457D01*
X175768Y134366D02*
Y145796D01*
X160274Y127254D02*
X166243D01*
X159131Y126111D02*
X160274Y127254D01*
X159131Y118443D02*
Y126111D01*
X157652Y116964D02*
X159131Y118443D01*
X153670Y117410D02*
Y121666D01*
X169164Y131445D02*
Y143129D01*
X166243Y127254D02*
X171704Y132715D01*
Y143129D01*
X174371Y147193D02*
X175768Y145796D01*
X176911Y150838D02*
Y151176D01*
X176530Y150457D02*
X176911Y150838D01*
X159419Y115196D02*
Y115199D01*
X174371Y147193D02*
Y151176D01*
X171704Y143129D02*
X171768Y143193D01*
Y151113D02*
X171831Y151176D01*
X169227Y151113D02*
X169291Y151176D01*
X169164Y143129D02*
X169227Y143193D01*
X144653Y49246D02*
Y52832D01*
X153924Y95250D02*
X157734D01*
X154051Y96266D02*
X157734D01*
X171196Y72898D02*
X173609Y70485D01*
X148844Y103206D02*
X154116Y108478D01*
X155177Y107414D02*
Y107418D01*
X151995Y110600D02*
X152774Y111379D01*
X147828Y102897D02*
X153763Y108832D01*
X148082Y119462D02*
X153055Y114489D01*
X149225Y119026D02*
X153409Y114842D01*
X150368Y118591D02*
X153763Y115196D01*
X151765Y117901D02*
X154116Y115550D01*
X146812Y120025D02*
X152702Y114135D01*
X153670Y117410D02*
X154823Y116257D01*
X154305Y117482D02*
X155177Y116610D01*
X154305Y117482D02*
Y120855D01*
X160401Y100838D02*
Y104315D01*
X157652Y107064D02*
X160401Y104315D01*
Y100838D02*
X163068Y98171D01*
X160909Y101981D02*
Y104514D01*
X158005Y107418D02*
X160909Y104514D01*
Y101981D02*
X164592Y98298D01*
X161417Y102997D02*
Y104713D01*
X158359Y107771D02*
X161417Y104713D01*
X152527Y48768D02*
X155224D01*
X155575Y49119D01*
X145004Y48895D02*
X147447D01*
X144653Y49246D02*
X145004Y48895D01*
X154305Y120855D02*
X154481Y121031D01*
X156591D01*
X155177Y116610D02*
X156210Y115577D01*
X152774Y111379D02*
X154305D01*
X154796Y110888D01*
X157099Y110445D02*
Y111887D01*
Y110445D02*
X159066Y108478D01*
X158132Y112886D02*
X158623Y112395D01*
X160154D01*
X157036Y112966D02*
X159110Y110892D01*
X159358D01*
X156210Y113538D02*
Y115577D01*
X157036Y112966D02*
X158282Y114213D01*
X155453Y111384D02*
X157036Y112966D01*
X152702Y112014D02*
X154823D01*
X155453Y111384D01*
X155530Y116964D02*
X158282Y114213D01*
X159446Y108080D02*
Y108095D01*
X159073Y108468D02*
X159446Y108095D01*
D76*
X103124Y115824D02*
X103251Y115951D01*
X108239Y145380D02*
Y147828D01*
Y145380D02*
X108712Y144907D01*
X114681D01*
X108620Y113577D02*
Y115951D01*
Y113577D02*
X108913Y113284D01*
X114808D01*
X114779Y83439D02*
X114808Y83410D01*
X114707Y83439D02*
X114779D01*
X114808Y81026D02*
Y83410D01*
X108493Y81319D02*
Y84074D01*
X108786Y81026D02*
X114808D01*
X108493Y81319D02*
X108786Y81026D01*
X114808Y49149D02*
Y51533D01*
X114779Y51562D02*
X114808Y51533D01*
X114707Y51562D02*
X114779D01*
X108620Y52046D02*
Y52197D01*
Y49442D02*
Y52046D01*
X108913Y49149D02*
X114808D01*
X108620Y49442D02*
X108913Y49149D01*
X105283Y55372D02*
X108424D01*
X108620Y52046D02*
X108973Y51693D01*
X110524Y55222D02*
Y55372D01*
X108493Y83923D02*
X108846Y83570D01*
X110651Y86741D02*
X110851Y86541D01*
Y86272D02*
X111144Y85979D01*
X110851Y86272D02*
Y86541D01*
X110144Y99540D02*
Y99568D01*
Y99540D02*
X110497Y99187D01*
X110524Y102339D02*
Y102489D01*
Y102339D02*
X111136Y101727D01*
X114779Y115443D02*
X114808Y115414D01*
Y113284D02*
Y115414D01*
X114707Y115443D02*
X114779D01*
X114681Y144907D02*
Y147294D01*
X114707Y147320D01*
X104902Y118491D02*
X104965Y118427D01*
X107726D02*
X107789Y118364D01*
X109763Y131548D02*
X110120Y131191D01*
X109763Y131548D02*
Y131699D01*
X109728Y134597D02*
X109928Y134397D01*
X109728Y134597D02*
Y134747D01*
X108239Y147828D02*
X108366Y147701D01*
X114678Y149889D02*
X114707Y149860D01*
X109635Y166093D02*
X110120Y165608D01*
X109635Y166093D02*
Y166243D01*
D77*
X105283Y163576D02*
X105496D01*
D78*
X87693Y85281D02*
D03*
Y69279D02*
D03*
Y53277D02*
D03*
Y101156D02*
D03*
Y117158D02*
D03*
X87821Y133160D02*
D03*
X87693Y149161D02*
D03*
X50229Y53403D02*
D03*
Y69406D02*
D03*
Y85408D02*
D03*
Y101283D02*
D03*
Y117411D02*
D03*
Y133286D02*
D03*
Y149288D02*
D03*
X87693Y165036D02*
D03*
X50229Y165163D02*
D03*
D79*
X197104Y136271D02*
D03*
X199644D02*
D03*
X202184D02*
D03*
%TF.MD5,2f8afe7c3f447bb8d88fb43fd01d2c38*%
M02*
