%TF.GenerationSoftware,Altium Limited,Altium Designer,21.6.4 (81)*%
G04 Layer_Color=128*
%FSLAX43Y43*%
%MOMM*%
%TF.SameCoordinates,5D8205C6-A8A5-4108-8313-488A8EE5113E*%
%TF.FilePolarity,Positive*%
%TF.FileFunction,Paste,Bot*%
%TF.Part,Single*%
G01*
G75*
%TA.AperFunction,SMDPad,CuDef*%
%ADD45R,1.700X1.680*%
G04:AMPARAMS|DCode=46|XSize=0.8mm|YSize=1.6mm|CornerRadius=0.2mm|HoleSize=0mm|Usage=FLASHONLY|Rotation=180.000|XOffset=0mm|YOffset=0mm|HoleType=Round|Shape=RoundedRectangle|*
%AMROUNDEDRECTD46*
21,1,0.800,1.200,0,0,180.0*
21,1,0.400,1.600,0,0,180.0*
1,1,0.400,-0.200,0.600*
1,1,0.400,0.200,0.600*
1,1,0.400,0.200,-0.600*
1,1,0.400,-0.200,-0.600*
%
%ADD46ROUNDEDRECTD46*%
G04:AMPARAMS|DCode=47|XSize=0.6mm|YSize=1.6mm|CornerRadius=0.15mm|HoleSize=0mm|Usage=FLASHONLY|Rotation=180.000|XOffset=0mm|YOffset=0mm|HoleType=Round|Shape=RoundedRectangle|*
%AMROUNDEDRECTD47*
21,1,0.600,1.300,0,0,180.0*
21,1,0.300,1.600,0,0,180.0*
1,1,0.300,-0.150,0.650*
1,1,0.300,0.150,0.650*
1,1,0.300,0.150,-0.650*
1,1,0.300,-0.150,-0.650*
%
%ADD47ROUNDEDRECTD47*%
%ADD48R,1.250X2.000*%
%ADD49R,1.508X1.207*%
%ADD50R,2.500X1.700*%
%ADD51R,1.262X0.958*%
%ADD52R,2.270X0.558*%
%ADD53R,1.207X1.508*%
%ADD54R,0.900X1.200*%
%ADD55R,0.757X1.308*%
%ADD56R,0.808X1.262*%
%ADD57R,1.525X0.650*%
%ADD58R,1.000X0.500*%
G04:AMPARAMS|DCode=59|XSize=1.207mm|YSize=1.508mm|CornerRadius=0mm|HoleSize=0mm|Usage=FLASHONLY|Rotation=315.000|XOffset=0mm|YOffset=0mm|HoleType=Round|Shape=Rectangle|*
%AMROTATEDRECTD59*
4,1,4,-0.960,-0.107,0.107,0.960,0.960,0.107,-0.107,-0.960,-0.960,-0.107,0.0*
%
%ADD59ROTATEDRECTD59*%

G04:AMPARAMS|DCode=60|XSize=1.194mm|YSize=0.305mm|CornerRadius=0mm|HoleSize=0mm|Usage=FLASHONLY|Rotation=225.000|XOffset=0mm|YOffset=0mm|HoleType=Round|Shape=Rectangle|*
%AMROTATEDRECTD60*
4,1,4,0.314,0.530,0.530,0.314,-0.314,-0.530,-0.530,-0.314,0.314,0.530,0.0*
%
%ADD60ROTATEDRECTD60*%

G04:AMPARAMS|DCode=61|XSize=1.194mm|YSize=0.305mm|CornerRadius=0mm|HoleSize=0mm|Usage=FLASHONLY|Rotation=315.000|XOffset=0mm|YOffset=0mm|HoleType=Round|Shape=Rectangle|*
%AMROTATEDRECTD61*
4,1,4,-0.530,0.314,-0.314,0.530,0.530,-0.314,0.314,-0.530,-0.530,0.314,0.0*
%
%ADD61ROTATEDRECTD61*%

G04:AMPARAMS|DCode=62|XSize=2.45mm|YSize=2.35mm|CornerRadius=0mm|HoleSize=0mm|Usage=FLASHONLY|Rotation=225.000|XOffset=0mm|YOffset=0mm|HoleType=Round|Shape=Rectangle|*
%AMROTATEDRECTD62*
4,1,4,0.035,1.697,1.697,0.035,-0.035,-1.697,-1.697,-0.035,0.035,1.697,0.0*
%
%ADD62ROTATEDRECTD62*%

G04:AMPARAMS|DCode=63|XSize=0.95mm|YSize=1.35mm|CornerRadius=0mm|HoleSize=0mm|Usage=FLASHONLY|Rotation=315.000|XOffset=0mm|YOffset=0mm|HoleType=Round|Shape=Rectangle|*
%AMROTATEDRECTD63*
4,1,4,-0.813,-0.141,0.141,0.813,0.813,0.141,-0.141,-0.813,-0.813,-0.141,0.0*
%
%ADD63ROTATEDRECTD63*%

G04:AMPARAMS|DCode=64|XSize=0.95mm|YSize=1.35mm|CornerRadius=0mm|HoleSize=0mm|Usage=FLASHONLY|Rotation=45.000|XOffset=0mm|YOffset=0mm|HoleType=Round|Shape=Rectangle|*
%AMROTATEDRECTD64*
4,1,4,0.141,-0.813,-0.813,0.141,-0.141,0.813,0.813,-0.141,0.141,-0.813,0.0*
%
%ADD64ROTATEDRECTD64*%

%ADD65R,1.556X1.505*%
%ADD66R,1.308X0.757*%
G04:AMPARAMS|DCode=67|XSize=3.15mm|YSize=1.45mm|CornerRadius=0.051mm|HoleSize=0mm|Usage=FLASHONLY|Rotation=90.000|XOffset=0mm|YOffset=0mm|HoleType=Round|Shape=RoundedRectangle|*
%AMROUNDEDRECTD67*
21,1,3.150,1.349,0,0,90.0*
21,1,3.049,1.450,0,0,90.0*
1,1,0.102,0.674,1.524*
1,1,0.102,0.674,-1.524*
1,1,0.102,-0.674,-1.524*
1,1,0.102,-0.674,1.524*
%
%ADD67ROUNDEDRECTD67*%
G04:AMPARAMS|DCode=68|XSize=0.9mm|YSize=1.45mm|CornerRadius=0.05mm|HoleSize=0mm|Usage=FLASHONLY|Rotation=90.000|XOffset=0mm|YOffset=0mm|HoleType=Round|Shape=RoundedRectangle|*
%AMROUNDEDRECTD68*
21,1,0.900,1.351,0,0,90.0*
21,1,0.801,1.450,0,0,90.0*
1,1,0.099,0.676,0.401*
1,1,0.099,0.676,-0.401*
1,1,0.099,-0.676,-0.401*
1,1,0.099,-0.676,0.401*
%
%ADD68ROUNDEDRECTD68*%
%ADD69R,2.000X2.800*%
%ADD70R,0.807X1.308*%
%ADD71R,3.050X1.016*%
%ADD72R,8.380X10.660*%
%ADD73R,1.508X1.157*%
%ADD74R,1.157X1.508*%
D45*
X73914Y47625D02*
D03*
X70334D02*
D03*
X74041Y58928D02*
D03*
X70461D02*
D03*
X74041Y63627D02*
D03*
X70461D02*
D03*
X73914Y79629D02*
D03*
X70334D02*
D03*
X74041Y91059D02*
D03*
X70461D02*
D03*
X74041Y95504D02*
D03*
X70461D02*
D03*
X74041Y106934D02*
D03*
X70461D02*
D03*
X74053Y111379D02*
D03*
X70473D02*
D03*
X74180Y122936D02*
D03*
X70600D02*
D03*
X74053Y127381D02*
D03*
X70473D02*
D03*
X73926Y138938D02*
D03*
X70346D02*
D03*
X73914Y143510D02*
D03*
X70334D02*
D03*
X74053Y154940D02*
D03*
X70473D02*
D03*
X74053Y159385D02*
D03*
X70473D02*
D03*
X74053Y170688D02*
D03*
X70473D02*
D03*
X74053Y75057D02*
D03*
X70473D02*
D03*
D46*
X202812Y66615D02*
D03*
X198762D02*
D03*
X202812Y71815D02*
D03*
X198762D02*
D03*
X202812Y144974D02*
D03*
X198762D02*
D03*
X202812Y150174D02*
D03*
X198762D02*
D03*
D47*
X201422Y66615D02*
D03*
X200152D02*
D03*
X201422Y71815D02*
D03*
X200152D02*
D03*
X201422Y144974D02*
D03*
X200152D02*
D03*
X201422Y150174D02*
D03*
X200152D02*
D03*
D48*
X100995Y80772D02*
D03*
X104745D02*
D03*
X100868Y90170D02*
D03*
X104618D02*
D03*
X101092Y153670D02*
D03*
X104842D02*
D03*
X101025Y169672D02*
D03*
X104775D02*
D03*
X100995Y144526D02*
D03*
X104745D02*
D03*
X101025Y137795D02*
D03*
X104775D02*
D03*
X100995Y128524D02*
D03*
X104745D02*
D03*
X101025Y112522D02*
D03*
X104775D02*
D03*
X101025Y121666D02*
D03*
X104775D02*
D03*
X101025Y96520D02*
D03*
X104775D02*
D03*
X101025Y105664D02*
D03*
X104775D02*
D03*
X101122Y63881D02*
D03*
X104872D02*
D03*
X100995Y57912D02*
D03*
X104745D02*
D03*
X214092Y86487D02*
D03*
X210342D02*
D03*
X104999Y74041D02*
D03*
X101249D02*
D03*
X104745Y48641D02*
D03*
X100995D02*
D03*
X104775Y160401D02*
D03*
X101025D02*
D03*
D49*
X123571Y161198D02*
D03*
Y159096D02*
D03*
X126873Y161198D02*
D03*
Y159096D02*
D03*
X123571Y81569D02*
D03*
Y79467D02*
D03*
X126873Y81569D02*
D03*
Y79467D02*
D03*
X123571Y65440D02*
D03*
Y63338D02*
D03*
X126873Y65440D02*
D03*
Y63338D02*
D03*
X123571Y49692D02*
D03*
Y47590D02*
D03*
X126873Y49692D02*
D03*
Y47590D02*
D03*
X155702Y170342D02*
D03*
Y168240D02*
D03*
X158242Y168205D02*
D03*
Y170307D02*
D03*
X166243Y168818D02*
D03*
Y166716D02*
D03*
X176276Y168240D02*
D03*
Y170342D02*
D03*
X160147Y73187D02*
D03*
Y71085D02*
D03*
X191770Y66710D02*
D03*
Y64608D02*
D03*
X187960Y73949D02*
D03*
Y71847D02*
D03*
X191897Y73949D02*
D03*
Y71847D02*
D03*
X207518Y73949D02*
D03*
Y71847D02*
D03*
X187960Y142297D02*
D03*
Y144399D02*
D03*
X196088Y150333D02*
D03*
Y152435D02*
D03*
X207645Y142297D02*
D03*
Y144399D02*
D03*
X211582Y142332D02*
D03*
Y144434D02*
D03*
X133604Y162179D02*
D03*
Y164281D02*
D03*
X136144Y162179D02*
D03*
Y164281D02*
D03*
X141986Y162179D02*
D03*
Y164281D02*
D03*
X144526Y162179D02*
D03*
Y164281D02*
D03*
X153162Y168240D02*
D03*
Y170342D02*
D03*
X142367Y71050D02*
D03*
Y73152D02*
D03*
X177673Y71085D02*
D03*
Y73187D02*
D03*
X191897Y144377D02*
D03*
Y142275D02*
D03*
Y151673D02*
D03*
Y149571D02*
D03*
X211311Y64626D02*
D03*
Y66727D02*
D03*
X211328Y71847D02*
D03*
Y73949D02*
D03*
X215138Y164684D02*
D03*
Y166786D02*
D03*
X206883Y164684D02*
D03*
Y166786D02*
D03*
X186563Y164846D02*
D03*
Y166948D02*
D03*
X194818Y164684D02*
D03*
Y166786D02*
D03*
X215138Y49495D02*
D03*
Y51597D02*
D03*
X206883Y49460D02*
D03*
Y51562D02*
D03*
X186563Y49368D02*
D03*
Y51470D02*
D03*
X194818Y49368D02*
D03*
Y51470D02*
D03*
X126873Y143348D02*
D03*
Y145450D02*
D03*
X123571Y143348D02*
D03*
Y145450D02*
D03*
X126873Y127219D02*
D03*
Y129321D02*
D03*
X123571Y127219D02*
D03*
Y129321D02*
D03*
X126873Y111471D02*
D03*
Y113573D02*
D03*
X123571Y111471D02*
D03*
Y113573D02*
D03*
X126873Y95215D02*
D03*
Y97317D02*
D03*
X123571Y95215D02*
D03*
Y97317D02*
D03*
D50*
X126714Y57785D02*
D03*
X122714D02*
D03*
X126714Y73406D02*
D03*
X122714D02*
D03*
X126714Y89916D02*
D03*
X122714D02*
D03*
X126714Y105029D02*
D03*
X122714D02*
D03*
X126714Y121539D02*
D03*
X122714D02*
D03*
X126714Y137160D02*
D03*
X122714D02*
D03*
X126587Y153670D02*
D03*
X122587D02*
D03*
X126682Y169291D02*
D03*
X122682D02*
D03*
D51*
X117221Y168691D02*
D03*
Y170145D02*
D03*
X117094Y153162D02*
D03*
Y154616D02*
D03*
X117221Y137033D02*
D03*
Y138487D02*
D03*
Y121412D02*
D03*
Y122866D02*
D03*
Y104810D02*
D03*
Y106264D02*
D03*
Y89189D02*
D03*
Y90643D02*
D03*
Y57185D02*
D03*
Y58639D02*
D03*
Y74479D02*
D03*
Y73025D02*
D03*
D52*
X114707Y71120D02*
D03*
Y69850D02*
D03*
Y68580D02*
D03*
Y67310D02*
D03*
X119735D02*
D03*
Y68580D02*
D03*
Y69850D02*
D03*
Y71120D02*
D03*
X114707Y55372D02*
D03*
Y54102D02*
D03*
Y52832D02*
D03*
Y51562D02*
D03*
X119735D02*
D03*
Y52832D02*
D03*
Y54102D02*
D03*
Y55372D02*
D03*
X114707Y166878D02*
D03*
Y165608D02*
D03*
Y164338D02*
D03*
Y163068D02*
D03*
X119735D02*
D03*
Y164338D02*
D03*
Y165608D02*
D03*
Y166878D02*
D03*
X114707Y151130D02*
D03*
Y149860D02*
D03*
Y148590D02*
D03*
Y147320D02*
D03*
X119735D02*
D03*
Y148590D02*
D03*
Y149860D02*
D03*
Y151130D02*
D03*
X114707Y135001D02*
D03*
Y133731D02*
D03*
Y132461D02*
D03*
Y131191D02*
D03*
X119735D02*
D03*
Y132461D02*
D03*
Y133731D02*
D03*
Y135001D02*
D03*
X114707Y119253D02*
D03*
Y117983D02*
D03*
Y116713D02*
D03*
Y115443D02*
D03*
X119735D02*
D03*
Y116713D02*
D03*
Y117983D02*
D03*
Y119253D02*
D03*
X114707Y102997D02*
D03*
Y101727D02*
D03*
Y100457D02*
D03*
Y99187D02*
D03*
X119735D02*
D03*
Y100457D02*
D03*
Y101727D02*
D03*
Y102997D02*
D03*
X114707Y87249D02*
D03*
Y85979D02*
D03*
Y84709D02*
D03*
Y83439D02*
D03*
X119735D02*
D03*
Y84709D02*
D03*
Y85979D02*
D03*
Y87249D02*
D03*
D53*
X108620Y52197D02*
D03*
X106518D02*
D03*
X110144Y67310D02*
D03*
X108042D02*
D03*
X110144Y99568D02*
D03*
X108042D02*
D03*
X108620Y115951D02*
D03*
X106518D02*
D03*
X109763Y131699D02*
D03*
X107661D02*
D03*
X109763Y163068D02*
D03*
X107661D02*
D03*
X103159Y163576D02*
D03*
X101057D02*
D03*
X108493Y84074D02*
D03*
X106391D02*
D03*
X184566Y56007D02*
D03*
X182464D02*
D03*
X188884D02*
D03*
X186782D02*
D03*
X198917D02*
D03*
X196815D02*
D03*
X204886D02*
D03*
X202784D02*
D03*
X209204D02*
D03*
X207102D02*
D03*
X219237D02*
D03*
X217135D02*
D03*
X200117Y61849D02*
D03*
X202219D02*
D03*
X193513Y61595D02*
D03*
X195615D02*
D03*
X200244Y139954D02*
D03*
X202346D02*
D03*
X217135Y160147D02*
D03*
X219237D02*
D03*
X212817D02*
D03*
X214919D02*
D03*
X209169D02*
D03*
X207067D02*
D03*
X202784D02*
D03*
X204886D02*
D03*
X196780D02*
D03*
X198882D02*
D03*
X192497D02*
D03*
X194599D02*
D03*
X188849D02*
D03*
X186747D02*
D03*
X182591D02*
D03*
X184693D02*
D03*
X194599Y56007D02*
D03*
X192497D02*
D03*
X214919D02*
D03*
X212817D02*
D03*
X208880Y82677D02*
D03*
X210982D02*
D03*
X106137Y147828D02*
D03*
X108239D02*
D03*
X101057Y67437D02*
D03*
X103159D02*
D03*
X100895Y147828D02*
D03*
X102997D02*
D03*
X100930Y52197D02*
D03*
X103032D02*
D03*
X101022Y83947D02*
D03*
X103124D02*
D03*
X101022Y99695D02*
D03*
X103124D02*
D03*
X100930Y131699D02*
D03*
X103032D02*
D03*
X101022Y115824D02*
D03*
X103124D02*
D03*
D54*
X108424Y55372D02*
D03*
X110524D02*
D03*
X107789Y70739D02*
D03*
X109889D02*
D03*
X108551Y86741D02*
D03*
X110651D02*
D03*
X108424Y102489D02*
D03*
X110524D02*
D03*
X107789Y118364D02*
D03*
X109889D02*
D03*
X107628Y134747D02*
D03*
X109728D02*
D03*
X107535Y151130D02*
D03*
X109635D02*
D03*
Y166243D02*
D03*
X107535D02*
D03*
D55*
X107582Y61341D02*
D03*
X109334D02*
D03*
X107582Y93218D02*
D03*
X109334D02*
D03*
X107582Y125222D02*
D03*
X109334D02*
D03*
X107709Y156972D02*
D03*
X109461D02*
D03*
D56*
X101052Y166497D02*
D03*
X102656D02*
D03*
X101139Y150622D02*
D03*
X102743D02*
D03*
X101052Y134366D02*
D03*
X102656D02*
D03*
X101012Y118364D02*
D03*
X102616D02*
D03*
X101012Y102489D02*
D03*
X102616D02*
D03*
X101052Y54737D02*
D03*
X102656D02*
D03*
X102910Y70485D02*
D03*
X101306D02*
D03*
X102616Y86487D02*
D03*
X101012D02*
D03*
D57*
X160483Y157099D02*
D03*
Y158369D02*
D03*
Y159639D02*
D03*
Y160909D02*
D03*
X165907D02*
D03*
Y159639D02*
D03*
Y158369D02*
D03*
Y157099D02*
D03*
D58*
X169983Y164719D02*
D03*
X167583D02*
D03*
X172479D02*
D03*
X174879D02*
D03*
D59*
X165970Y119018D02*
D03*
X164484Y120504D02*
D03*
D60*
X161541Y113075D02*
D03*
X161187Y113428D02*
D03*
X160834Y113782D02*
D03*
X160480Y114135D02*
D03*
X160127Y114489D02*
D03*
X159773Y114842D02*
D03*
X159419Y115196D02*
D03*
X159066Y115550D02*
D03*
X158712Y115903D02*
D03*
X158359Y116257D02*
D03*
X158005Y116610D02*
D03*
X157652Y116964D02*
D03*
X151641Y110953D02*
D03*
X151995Y110600D02*
D03*
X152348Y110246D02*
D03*
X152702Y109893D02*
D03*
X153055Y109539D02*
D03*
X153409Y109186D02*
D03*
X153763Y108832D02*
D03*
X154116Y108478D02*
D03*
X154470Y108125D02*
D03*
X154823Y107771D02*
D03*
X155177Y107418D02*
D03*
X155530Y107064D02*
D03*
D61*
Y116964D02*
D03*
X155177Y116610D02*
D03*
X154823Y116257D02*
D03*
X154470Y115903D02*
D03*
X154116Y115550D02*
D03*
X153763Y115196D02*
D03*
X153409Y114842D02*
D03*
X153055Y114489D02*
D03*
X152702Y114135D02*
D03*
X152348Y113782D02*
D03*
X151995Y113428D02*
D03*
X151641Y113075D02*
D03*
X157652Y107064D02*
D03*
X158005Y107418D02*
D03*
X158359Y107771D02*
D03*
X158712Y108125D02*
D03*
X159066Y108478D02*
D03*
X159419Y108832D02*
D03*
X159773Y109186D02*
D03*
X160127Y109539D02*
D03*
X160480Y109893D02*
D03*
X160834Y110246D02*
D03*
X161187Y110600D02*
D03*
X161541Y110953D02*
D03*
D62*
X142400Y96233D02*
D03*
X138016Y100617D02*
D03*
D63*
X142345Y101876D02*
D03*
X143405Y100816D02*
D03*
D64*
X164741Y103527D02*
D03*
X163681Y102467D02*
D03*
D65*
X177673Y67449D02*
D03*
Y65647D02*
D03*
X142367Y67322D02*
D03*
Y65520D02*
D03*
X160147Y67449D02*
D03*
Y65647D02*
D03*
D66*
X152527Y48768D02*
D03*
Y50520D02*
D03*
D67*
X214095Y76327D02*
D03*
D68*
X220245Y74027D02*
D03*
Y76327D02*
D03*
Y78627D02*
D03*
D69*
X214158Y82677D02*
D03*
X218658D02*
D03*
D70*
X192024Y104267D02*
D03*
X193726D02*
D03*
D71*
X198102Y107671D02*
D03*
Y105969D02*
D03*
Y104267D02*
D03*
Y102565D02*
D03*
Y100863D02*
D03*
D72*
X208407Y104267D02*
D03*
D73*
X211582Y149419D02*
D03*
Y151571D02*
D03*
X149987Y51047D02*
D03*
Y48895D02*
D03*
X147447Y51047D02*
D03*
Y48895D02*
D03*
D74*
X114106Y61341D02*
D03*
X111954D02*
D03*
X114046Y125222D02*
D03*
X111894D02*
D03*
X114233Y93218D02*
D03*
X112081D02*
D03*
X114106Y156972D02*
D03*
X111954D02*
D03*
%TF.MD5,8ed5cb1962482f40afb67f2d1620197e*%
M02*
