%TF.GenerationSoftware,Altium Limited,Altium Designer,21.6.4 (81)*%
G04 Layer_Color=8388736*
%FSLAX43Y43*%
%MOMM*%
%TF.SameCoordinates,7E1728C7-8053-4159-852C-9F5DCDCDAABE*%
%TF.FilePolarity,Negative*%
%TF.FileFunction,Soldermask,Top*%
%TF.Part,Single*%
G01*
G75*
%TA.AperFunction,ComponentPad*%
%ADD25C,1.520*%
%TA.AperFunction,SMDPad,CuDef*%
%ADD26R,0.870X0.920*%
%ADD27R,0.830X1.280*%
%ADD28R,0.920X0.870*%
%ADD29R,1.520X0.620*%
%ADD30R,1.280X0.830*%
D25*
X-5110Y-35520D02*
D03*
X-2570D02*
D03*
X7540D02*
D03*
X5000D02*
D03*
X2460D02*
D03*
X-80D02*
D03*
D26*
X-6750Y-19780D02*
D03*
X-8300D02*
D03*
X-6535Y-31030D02*
D03*
X-8085D02*
D03*
X7175Y-31230D02*
D03*
X8725D02*
D03*
X7205Y-19730D02*
D03*
X8755D02*
D03*
X-10000Y-21385D02*
D03*
X-11550D02*
D03*
X-6425Y-27445D02*
D03*
X-7975D02*
D03*
X-11285Y-27705D02*
D03*
X-9735D02*
D03*
X-9735Y-29340D02*
D03*
X-11285D02*
D03*
X-11550Y-23110D02*
D03*
X-10000D02*
D03*
X-6710Y-23235D02*
D03*
X-8260D02*
D03*
X11955Y-27930D02*
D03*
X10405D02*
D03*
X10405Y-29585D02*
D03*
X11955D02*
D03*
X7080Y-27795D02*
D03*
X8630D02*
D03*
X12035Y-23145D02*
D03*
X10485D02*
D03*
Y-21510D02*
D03*
X12035D02*
D03*
X7080Y-23200D02*
D03*
X8630D02*
D03*
D27*
X-6560Y-21490D02*
D03*
X-8560D02*
D03*
X-6310Y-29280D02*
D03*
X-8310D02*
D03*
X-5210Y-24980D02*
D03*
X-7210D02*
D03*
X6950Y-29500D02*
D03*
X8950D02*
D03*
X6950Y-21510D02*
D03*
X8950D02*
D03*
X-15950Y3050D02*
D03*
X-17950D02*
D03*
X17840Y3130D02*
D03*
X15840D02*
D03*
D28*
X-5040Y-21360D02*
D03*
Y-22910D02*
D03*
X-4825Y-29245D02*
D03*
Y-27695D02*
D03*
X5430Y-29320D02*
D03*
Y-27770D02*
D03*
Y-21395D02*
D03*
Y-22945D02*
D03*
D29*
X-2570Y-21385D02*
D03*
Y-22655D02*
D03*
Y-23925D02*
D03*
Y-25195D02*
D03*
X2830Y-27735D02*
D03*
X-2570Y-29005D02*
D03*
Y-27735D02*
D03*
Y-26465D02*
D03*
X2830D02*
D03*
Y-25195D02*
D03*
Y-23925D02*
D03*
Y-22655D02*
D03*
Y-21385D02*
D03*
Y-29005D02*
D03*
D30*
X-2798Y-15768D02*
D03*
Y-17768D02*
D03*
X3000Y15970D02*
D03*
Y17970D02*
D03*
%TF.MD5,302e38d2620d4ec07a998aa122769957*%
M02*
