%TF.GenerationSoftware,Altium Limited,Altium Designer,21.6.4 (81)*%
G04 Layer_Color=65535*
%FSLAX43Y43*%
%MOMM*%
%TF.SameCoordinates,7E1728C7-8053-4159-852C-9F5DCDCDAABE*%
%TF.FilePolarity,Positive*%
%TF.FileFunction,Legend,Top*%
%TF.Part,Single*%
G01*
G75*
%TA.AperFunction,NonConductor*%
%ADD21C,0.254*%
%ADD22C,0.200*%
D21*
X-6356Y-37706D02*
X-5690D01*
X-6023Y-37373D02*
Y-38039D01*
X-4690Y-37206D02*
X-5356D01*
Y-37706D01*
X-5023Y-37540D01*
X-4856D01*
X-4690Y-37706D01*
Y-38039D01*
X-4856Y-38206D01*
X-5190D01*
X-5356Y-38039D01*
X-2691Y-37373D02*
X-2857Y-37206D01*
X-3190D01*
X-3357Y-37373D01*
Y-38039D01*
X-3190Y-38206D01*
X-2857D01*
X-2691Y-38039D01*
Y-37706D01*
X-3024D01*
X-903Y-38039D02*
X-570D01*
X-736D01*
Y-37040D01*
X-903Y-37206D01*
X-70Y-38206D02*
X596D01*
X930D02*
X1596D01*
X2596Y-38039D02*
X1929D01*
X2596Y-37373D01*
Y-37206D01*
X2429Y-37040D01*
X2096D01*
X1929Y-37206D01*
X2929Y-38206D02*
X3595D01*
X3929D02*
X4595D01*
X4928Y-37206D02*
X5095Y-37040D01*
X5428D01*
X5595Y-37206D01*
Y-37373D01*
X5428Y-37540D01*
X5262D01*
X5428D01*
X5595Y-37706D01*
Y-37873D01*
X5428Y-38039D01*
X5095D01*
X4928Y-37873D01*
X5928Y-38206D02*
X6595D01*
X6928D02*
X7594D01*
X8427Y-38039D02*
Y-37040D01*
X7927Y-37540D01*
X8594D01*
X6874Y-18510D02*
Y-17710D01*
X7274D01*
X7407Y-17843D01*
Y-18110D01*
X7274Y-18243D01*
X6874D01*
X7140D02*
X7407Y-18510D01*
X8207D02*
X7673D01*
X8207Y-17977D01*
Y-17843D01*
X8073Y-17710D01*
X7807D01*
X7673Y-17843D01*
X8473D02*
X8606Y-17710D01*
X8873D01*
X9006Y-17843D01*
Y-18377D01*
X8873Y-18510D01*
X8606D01*
X8473Y-18377D01*
Y-17843D01*
X6940Y-33260D02*
Y-32460D01*
X7340D01*
X7473Y-32593D01*
Y-32860D01*
X7340Y-32993D01*
X6940D01*
X7207D02*
X7473Y-33260D01*
X7740D02*
X8007D01*
X7873D01*
Y-32460D01*
X7740Y-32593D01*
X8407Y-33127D02*
X8540Y-33260D01*
X8806D01*
X8940Y-33127D01*
Y-32593D01*
X8806Y-32460D01*
X8540D01*
X8407Y-32593D01*
Y-32727D01*
X8540Y-32860D01*
X8940D01*
X-8370Y-33070D02*
Y-32270D01*
X-7970D01*
X-7837Y-32403D01*
Y-32670D01*
X-7970Y-32803D01*
X-8370D01*
X-8103D02*
X-7837Y-33070D01*
X-7570D02*
X-7303D01*
X-7437D01*
Y-32270D01*
X-7570Y-32403D01*
X-6903D02*
X-6770Y-32270D01*
X-6504D01*
X-6370Y-32403D01*
Y-32537D01*
X-6504Y-32670D01*
X-6370Y-32803D01*
Y-32937D01*
X-6504Y-33070D01*
X-6770D01*
X-6903Y-32937D01*
Y-32803D01*
X-6770Y-32670D01*
X-6903Y-32537D01*
Y-32403D01*
X-6770Y-32670D02*
X-6504D01*
X-8485Y-18660D02*
Y-17860D01*
X-8085D01*
X-7952Y-17993D01*
Y-18260D01*
X-8085Y-18393D01*
X-8485D01*
X-8218D02*
X-7952Y-18660D01*
X-7685D02*
X-7418D01*
X-7552D01*
Y-17860D01*
X-7685Y-17993D01*
X-7018Y-17860D02*
X-6485D01*
Y-17993D01*
X-7018Y-18527D01*
Y-18660D01*
X10260Y-25077D02*
Y-24277D01*
X10660D01*
X10793Y-24410D01*
Y-24677D01*
X10660Y-24810D01*
X10260D01*
X10527D02*
X10793Y-25077D01*
X11060D02*
X11327D01*
X11193D01*
Y-24277D01*
X11060Y-24410D01*
X12260Y-24277D02*
X11993Y-24410D01*
X11726Y-24677D01*
Y-24943D01*
X11860Y-25077D01*
X12126D01*
X12260Y-24943D01*
Y-24810D01*
X12126Y-24677D01*
X11726D01*
X10260Y-26746D02*
Y-25946D01*
X10660D01*
X10794Y-26079D01*
Y-26346D01*
X10660Y-26479D01*
X10260D01*
X10527D02*
X10794Y-26746D01*
X11060D02*
X11327D01*
X11193D01*
Y-25946D01*
X11060Y-26079D01*
X12260Y-25946D02*
X11727D01*
Y-26346D01*
X11993Y-26212D01*
X12126D01*
X12260Y-26346D01*
Y-26612D01*
X12126Y-26746D01*
X11860D01*
X11727Y-26612D01*
X-16509Y-28075D02*
Y-27275D01*
X-16110D01*
X-15976Y-27408D01*
Y-27675D01*
X-16110Y-27808D01*
X-16509D01*
X-16243D02*
X-15976Y-28075D01*
X-15710D02*
X-15443D01*
X-15576D01*
Y-27275D01*
X-15710Y-27408D01*
X-14643Y-28075D02*
Y-27275D01*
X-15043Y-27675D01*
X-14510D01*
X-16420Y-23635D02*
Y-22835D01*
X-16020D01*
X-15887Y-22969D01*
Y-23235D01*
X-16020Y-23368D01*
X-16420D01*
X-16153D02*
X-15887Y-23635D01*
X-15620D02*
X-15353D01*
X-15487D01*
Y-22835D01*
X-15620Y-22969D01*
X-14954D02*
X-14820Y-22835D01*
X-14554D01*
X-14420Y-22969D01*
Y-23102D01*
X-14554Y-23235D01*
X-14687D01*
X-14554D01*
X-14420Y-23368D01*
Y-23502D01*
X-14554Y-23635D01*
X-14820D01*
X-14954Y-23502D01*
X10300Y-20370D02*
Y-19570D01*
X10700D01*
X10833Y-19703D01*
Y-19970D01*
X10700Y-20103D01*
X10300D01*
X10567D02*
X10833Y-20370D01*
X11100D02*
X11367D01*
X11233D01*
Y-19570D01*
X11100Y-19703D01*
X12300Y-20370D02*
X11767D01*
X12300Y-19837D01*
Y-19703D01*
X12166Y-19570D01*
X11900D01*
X11767Y-19703D01*
X15354Y-29950D02*
Y-29150D01*
X15753D01*
X15887Y-29283D01*
Y-29550D01*
X15753Y-29683D01*
X15354D01*
X15620D02*
X15887Y-29950D01*
X16153D02*
X16420D01*
X16287D01*
Y-29150D01*
X16153Y-29283D01*
X16820Y-29950D02*
X17086D01*
X16953D01*
Y-29150D01*
X16820Y-29283D01*
X-16553Y-29900D02*
Y-29100D01*
X-16153D01*
X-16019Y-29234D01*
Y-29500D01*
X-16153Y-29633D01*
X-16553D01*
X-16286D02*
X-16019Y-29900D01*
X-15753D02*
X-15486D01*
X-15620D01*
Y-29100D01*
X-15753Y-29234D01*
X-15086D02*
X-14953Y-29100D01*
X-14687D01*
X-14553Y-29234D01*
Y-29767D01*
X-14687Y-29900D01*
X-14953D01*
X-15086Y-29767D01*
Y-29234D01*
X-16326Y-21770D02*
Y-20970D01*
X-15927D01*
X-15793Y-21103D01*
Y-21370D01*
X-15927Y-21503D01*
X-16326D01*
X-16060D02*
X-15793Y-21770D01*
X-15527Y-21637D02*
X-15393Y-21770D01*
X-15127D01*
X-14994Y-21637D01*
Y-21103D01*
X-15127Y-20970D01*
X-15393D01*
X-15527Y-21103D01*
Y-21237D01*
X-15393Y-21370D01*
X-14994D01*
X4664Y-20160D02*
Y-19360D01*
X5063D01*
X5197Y-19493D01*
Y-19760D01*
X5063Y-19893D01*
X4664D01*
X4930D02*
X5197Y-20160D01*
X5463Y-19493D02*
X5597Y-19360D01*
X5863D01*
X5996Y-19493D01*
Y-19627D01*
X5863Y-19760D01*
X5996Y-19893D01*
Y-20027D01*
X5863Y-20160D01*
X5597D01*
X5463Y-20027D01*
Y-19893D01*
X5597Y-19760D01*
X5463Y-19627D01*
Y-19493D01*
X5597Y-19760D02*
X5863D01*
X4594Y-31290D02*
Y-30490D01*
X4993D01*
X5127Y-30623D01*
Y-30890D01*
X4993Y-31023D01*
X4594D01*
X4860D02*
X5127Y-31290D01*
X5393Y-30490D02*
X5926D01*
Y-30623D01*
X5393Y-31157D01*
Y-31290D01*
X-5346Y-31060D02*
Y-30260D01*
X-4947D01*
X-4813Y-30393D01*
Y-30660D01*
X-4947Y-30793D01*
X-5346D01*
X-5080D02*
X-4813Y-31060D01*
X-4014Y-30260D02*
X-4280Y-30393D01*
X-4547Y-30660D01*
Y-30927D01*
X-4413Y-31060D01*
X-4147D01*
X-4014Y-30927D01*
Y-30793D01*
X-4147Y-30660D01*
X-4547D01*
X-5627Y-20160D02*
Y-19360D01*
X-5227D01*
X-5094Y-19493D01*
Y-19760D01*
X-5227Y-19893D01*
X-5627D01*
X-5360D02*
X-5094Y-20160D01*
X-4294Y-19360D02*
X-4827D01*
Y-19760D01*
X-4560Y-19627D01*
X-4427D01*
X-4294Y-19760D01*
Y-20027D01*
X-4427Y-20160D01*
X-4694D01*
X-4827Y-20027D01*
X7314Y-25100D02*
Y-24300D01*
X7713D01*
X7847Y-24433D01*
Y-24700D01*
X7713Y-24833D01*
X7314D01*
X7580D02*
X7847Y-25100D01*
X8513D02*
Y-24300D01*
X8113Y-24700D01*
X8646D01*
X7314Y-26720D02*
Y-25920D01*
X7713D01*
X7847Y-26053D01*
Y-26320D01*
X7713Y-26453D01*
X7314D01*
X7580D02*
X7847Y-26720D01*
X8113Y-26053D02*
X8247Y-25920D01*
X8513D01*
X8646Y-26053D01*
Y-26187D01*
X8513Y-26320D01*
X8380D01*
X8513D01*
X8646Y-26453D01*
Y-26587D01*
X8513Y-26720D01*
X8247D01*
X8113Y-26587D01*
X-13886Y-28020D02*
Y-27220D01*
X-13487D01*
X-13353Y-27353D01*
Y-27620D01*
X-13487Y-27753D01*
X-13886D01*
X-13620D02*
X-13353Y-28020D01*
X-12554D02*
X-13087D01*
X-12554Y-27487D01*
Y-27353D01*
X-12687Y-27220D01*
X-12953D01*
X-13087Y-27353D01*
X-13858Y-23695D02*
Y-22895D01*
X-13458D01*
X-13325Y-23029D01*
Y-23295D01*
X-13458Y-23428D01*
X-13858D01*
X-13592D02*
X-13325Y-23695D01*
X-13058D02*
X-12792D01*
X-12925D01*
Y-22895D01*
X-13058Y-23029D01*
X-3356Y-19075D02*
Y-19875D01*
X-2956D01*
X-2822Y-19742D01*
Y-19209D01*
X-2956Y-19075D01*
X-3356D01*
X-2556D02*
Y-19875D01*
X-2156D01*
X-2023Y-19742D01*
Y-19209D01*
X-2156Y-19075D01*
X-2556D01*
X-1223D02*
X-1756D01*
Y-19475D01*
X-1490Y-19342D01*
X-1356D01*
X-1223Y-19475D01*
Y-19742D01*
X-1356Y-19875D01*
X-1623D01*
X-1756Y-19742D01*
X14337Y-19083D02*
X14203Y-18950D01*
X13937D01*
X13804Y-19083D01*
Y-19617D01*
X13937Y-19750D01*
X14203D01*
X14337Y-19617D01*
X14603D02*
X14737Y-19750D01*
X15003D01*
X15136Y-19617D01*
Y-19083D01*
X15003Y-18950D01*
X14737D01*
X14603Y-19083D01*
Y-19217D01*
X14737Y-19350D01*
X15136D01*
X13757Y-29363D02*
X13623Y-29230D01*
X13357D01*
X13224Y-29363D01*
Y-29897D01*
X13357Y-30030D01*
X13623D01*
X13757Y-29897D01*
X14023Y-29363D02*
X14157Y-29230D01*
X14423D01*
X14556Y-29363D01*
Y-29497D01*
X14423Y-29630D01*
X14556Y-29763D01*
Y-29897D01*
X14423Y-30030D01*
X14157D01*
X14023Y-29897D01*
Y-29763D01*
X14157Y-29630D01*
X14023Y-29497D01*
Y-29363D01*
X14157Y-29630D02*
X14423D01*
X-13323Y-29273D02*
X-13457Y-29140D01*
X-13723D01*
X-13856Y-29273D01*
Y-29807D01*
X-13723Y-29940D01*
X-13457D01*
X-13323Y-29807D01*
X-13057Y-29140D02*
X-12524D01*
Y-29273D01*
X-13057Y-29807D01*
Y-29940D01*
X-13673Y-21103D02*
X-13807Y-20970D01*
X-14073D01*
X-14206Y-21103D01*
Y-21637D01*
X-14073Y-21770D01*
X-13807D01*
X-13673Y-21637D01*
X-12874Y-20970D02*
X-13140Y-21103D01*
X-13407Y-21370D01*
Y-21637D01*
X-13273Y-21770D01*
X-13007D01*
X-12874Y-21637D01*
Y-21503D01*
X-13007Y-21370D01*
X-13407D01*
X-9043Y-24673D02*
X-9177Y-24540D01*
X-9443D01*
X-9576Y-24673D01*
Y-25207D01*
X-9443Y-25340D01*
X-9177D01*
X-9043Y-25207D01*
X-8244Y-24540D02*
X-8777D01*
Y-24940D01*
X-8510Y-24807D01*
X-8377D01*
X-8244Y-24940D01*
Y-25207D01*
X-8377Y-25340D01*
X-8643D01*
X-8777Y-25207D01*
X9477Y-35050D02*
X10010Y-35850D01*
Y-35050D02*
X9477Y-35850D01*
X10277D02*
X10543D01*
X10410D01*
Y-35050D01*
X10277Y-35184D01*
X13887Y3397D02*
X13753Y3530D01*
X13487D01*
X13354Y3397D01*
Y2863D01*
X13487Y2730D01*
X13753D01*
X13887Y2863D01*
X14553Y2730D02*
Y3530D01*
X14153Y3130D01*
X14686D01*
X-2903Y-14033D02*
X-3037Y-13900D01*
X-3303D01*
X-3436Y-14033D01*
Y-14567D01*
X-3303Y-14700D01*
X-3037D01*
X-2903Y-14567D01*
X-2637Y-14033D02*
X-2503Y-13900D01*
X-2237D01*
X-2104Y-14033D01*
Y-14167D01*
X-2237Y-14300D01*
X-2370D01*
X-2237D01*
X-2104Y-14433D01*
Y-14567D01*
X-2237Y-14700D01*
X-2503D01*
X-2637Y-14567D01*
X-19903Y3267D02*
X-20037Y3400D01*
X-20303D01*
X-20436Y3267D01*
Y2733D01*
X-20303Y2600D01*
X-20037D01*
X-19903Y2733D01*
X-19104Y2600D02*
X-19637D01*
X-19104Y3133D01*
Y3267D01*
X-19237Y3400D01*
X-19503D01*
X-19637Y3267D01*
X3040Y19747D02*
X2907Y19880D01*
X2640D01*
X2507Y19747D01*
Y19213D01*
X2640Y19080D01*
X2907D01*
X3040Y19213D01*
X3307Y19080D02*
X3573D01*
X3440D01*
Y19880D01*
X3307Y19747D01*
D22*
X-475Y-20740D02*
G03*
X725Y-20740I600J0D01*
G01*
X-8950Y-19105D02*
X-6100D01*
X-8950Y-20455D02*
X-6100D01*
Y-19105D01*
X-8950Y-20455D02*
Y-19105D01*
X-8735Y-30355D02*
X-5885D01*
X-8735Y-31705D02*
X-5885D01*
Y-30355D01*
X-8735Y-31705D02*
Y-30355D01*
X6525Y-31905D02*
X9375D01*
X6525Y-30555D02*
X9375D01*
X6525Y-31905D02*
Y-30555D01*
X9375Y-31905D02*
Y-30555D01*
X6555Y-20405D02*
X9405D01*
X6555Y-19055D02*
X9405D01*
X6555Y-20405D02*
Y-19055D01*
X9405Y-20405D02*
Y-19055D01*
X-6360Y-36770D02*
Y-34270D01*
X-1320D01*
X-6360Y-36770D02*
X-1320D01*
Y-34270D01*
X-12200Y-20710D02*
X-9350D01*
X-12200Y-22060D02*
X-9350D01*
Y-20710D01*
X-12200Y-22060D02*
Y-20710D01*
X-9084Y-22252D02*
X-6036D01*
Y-20728D01*
X-9084Y-22252D02*
Y-20728D01*
X-6036D01*
X-5715Y-23560D02*
Y-20710D01*
X-4365Y-23560D02*
Y-20710D01*
X-5715D02*
X-4365D01*
X-5715Y-23560D02*
X-4365D01*
X-8625Y-26770D02*
X-5775D01*
X-8625Y-28120D02*
X-5775D01*
Y-26770D01*
X-8625Y-28120D02*
Y-26770D01*
X-11935Y-28380D02*
X-9085D01*
X-11935Y-27030D02*
X-9085D01*
X-11935Y-28380D02*
Y-27030D01*
X-9085Y-28380D02*
Y-27030D01*
X-11935Y-28665D02*
X-9085D01*
X-11935Y-30015D02*
X-9085D01*
Y-28665D01*
X-11935Y-30015D02*
Y-28665D01*
X-8834Y-30042D02*
X-5786D01*
Y-28518D01*
X-8834Y-30042D02*
Y-28518D01*
X-5786D01*
X-4150Y-29895D02*
Y-27045D01*
X-5500Y-29895D02*
Y-27045D01*
Y-29895D02*
X-4150D01*
X-5500Y-27045D02*
X-4150D01*
X-12200Y-23785D02*
X-9350D01*
X-12200Y-22435D02*
X-9350D01*
X-12200Y-23785D02*
Y-22435D01*
X-9350Y-23785D02*
Y-22435D01*
X-8910Y-22560D02*
X-6060D01*
X-8910Y-23910D02*
X-6060D01*
Y-22560D01*
X-8910Y-23910D02*
Y-22560D01*
X-7734Y-25742D02*
X-4686D01*
Y-24218D01*
X-7734Y-25742D02*
Y-24218D01*
X-4686D01*
X9755Y-27255D02*
X12605D01*
X9755Y-28605D02*
X12605D01*
Y-27255D01*
X9755Y-28605D02*
Y-27255D01*
X9755Y-30260D02*
X12605D01*
X9755Y-28910D02*
X12605D01*
X9755Y-30260D02*
Y-28910D01*
X12605Y-30260D02*
Y-28910D01*
X6430Y-28470D02*
X9280D01*
X6430Y-27120D02*
X9280D01*
X6430Y-28470D02*
Y-27120D01*
X9280Y-28470D02*
Y-27120D01*
X6105Y-29970D02*
Y-27120D01*
X4755Y-29970D02*
Y-27120D01*
Y-29970D02*
X6105D01*
X4755Y-27120D02*
X6105D01*
X6426Y-28738D02*
X9474D01*
X6426Y-30262D02*
Y-28738D01*
X9474Y-30262D02*
Y-28738D01*
X6426Y-30262D02*
X9474D01*
X9835Y-22470D02*
X12685D01*
X9835Y-23820D02*
X12685D01*
Y-22470D01*
X9835Y-23820D02*
Y-22470D01*
X4755Y-23595D02*
Y-20745D01*
X6105Y-23595D02*
Y-20745D01*
X4755D02*
X6105D01*
X4755Y-23595D02*
X6105D01*
X9835Y-22185D02*
X12685D01*
X9835Y-20835D02*
X12685D01*
X9835Y-22185D02*
Y-20835D01*
X12685Y-22185D02*
Y-20835D01*
X6426Y-20748D02*
X9474D01*
X6426Y-22272D02*
Y-20748D01*
X9474Y-22272D02*
Y-20748D01*
X6426Y-22272D02*
X9474D01*
X6430Y-23875D02*
X9280D01*
X6430Y-22525D02*
X9280D01*
X6430Y-23875D02*
Y-22525D01*
X9280Y-23875D02*
Y-22525D01*
X725Y-20740D02*
X3780D01*
Y-29590D02*
Y-20740D01*
X-3520D02*
X-475D01*
X-3520Y-29590D02*
X3780D01*
X-3520D02*
Y-20740D01*
X-1330Y-34270D02*
X8790Y-34270D01*
X-1330Y-36770D02*
X8790Y-36770D01*
X-1330Y-36770D02*
Y-34270D01*
X8790Y-36770D02*
Y-34270D01*
X-18474Y2288D02*
X-15426D01*
Y3812D01*
X-18474Y2288D02*
Y3812D01*
X-15426D01*
X-2036Y-18292D02*
Y-15244D01*
X-3560D02*
X-2036D01*
X-3560Y-18292D02*
X-2036D01*
X-3560D02*
Y-15244D01*
X2238Y15446D02*
Y18494D01*
Y15446D02*
X3762D01*
X2238Y18494D02*
X3762D01*
Y15446D02*
Y18494D01*
X15316Y2368D02*
X18364D01*
Y3892D01*
X15316Y2368D02*
Y3892D01*
X18364D01*
%TF.MD5,81f321fa5c54e026e9a1f3f0ff07366a*%
M02*
