%TF.GenerationSoftware,Altium Limited,Altium Designer,21.6.4 (81)*%
G04 Layer_Color=32896*
%FSLAX43Y43*%
%MOMM*%
%TF.SameCoordinates,7E1728C7-8053-4159-852C-9F5DCDCDAABE*%
%TF.FilePolarity,Positive*%
%TF.FileFunction,Legend,Bot*%
%TF.Part,Single*%
G01*
G75*
%TA.AperFunction,NonConductor*%
%ADD21C,0.254*%
%ADD22C,0.200*%
D21*
X17000Y0D02*
G03*
X17000Y0I-17000J0D01*
G01*
X0Y-27000D02*
Y-19000D01*
X20000Y0D02*
X28000D01*
X0Y20000D02*
Y28000D01*
X-27000Y0D02*
X-19000D01*
X-3130Y-37343D02*
X-2964Y-37176D01*
X-2631D01*
X-2464Y-37343D01*
Y-38009D01*
X-2631Y-38176D01*
X-2964D01*
X-3130Y-38009D01*
Y-37676D01*
X-2797D01*
X-4463D02*
X-5130D01*
X-4797Y-37343D02*
Y-38009D01*
X-6129Y-37176D02*
X-5463D01*
Y-37676D01*
X-5796Y-37510D01*
X-5963D01*
X-6129Y-37676D01*
Y-38009D01*
X-5963Y-38176D01*
X-5630D01*
X-5463Y-38009D01*
X7986Y-37949D02*
Y-36950D01*
X8486Y-37450D01*
X7820D01*
X7486Y-38116D02*
X6820D01*
X6487D02*
X5820D01*
X5487Y-37116D02*
X5320Y-36950D01*
X4987D01*
X4821Y-37116D01*
Y-37283D01*
X4987Y-37450D01*
X5154D01*
X4987D01*
X4821Y-37616D01*
Y-37783D01*
X4987Y-37949D01*
X5320D01*
X5487Y-37783D01*
X4487Y-38116D02*
X3821D01*
X3488D02*
X2821D01*
X1821Y-37949D02*
X2488D01*
X1821Y-37283D01*
Y-37116D01*
X1988Y-36950D01*
X2321D01*
X2488Y-37116D01*
X1488Y-38116D02*
X822D01*
X489D02*
X-178D01*
X-511Y-37949D02*
X-844D01*
X-678D01*
Y-36950D01*
X-511Y-37116D01*
X1756Y-31436D02*
X1248D01*
X1502D01*
Y-29912D01*
X1756Y-30166D01*
X486D02*
X232Y-29912D01*
X-275D01*
X-529Y-30166D01*
Y-30420D01*
X-275Y-30674D01*
X-529Y-30928D01*
Y-31182D01*
X-275Y-31436D01*
X232D01*
X486Y-31182D01*
Y-30928D01*
X232Y-30674D01*
X486Y-30420D01*
Y-30166D01*
X232Y-30674D02*
X-275D01*
X-1037Y-30166D02*
X-1291Y-29912D01*
X-1799D01*
X-2053Y-30166D01*
Y-31182D01*
X-1799Y-31436D01*
X-1291D01*
X-1037Y-31182D01*
Y-30166D01*
X-28694Y-272D02*
X-28948Y-526D01*
X-29456D01*
X-29710Y-272D01*
Y744D01*
X-29456Y998D01*
X-28948D01*
X-28694Y744D01*
Y490D01*
X-28948Y236D01*
X-29710D01*
X-30218Y744D02*
X-30471Y998D01*
X-30979D01*
X-31233Y744D01*
Y-272D01*
X-30979Y-526D01*
X-30471D01*
X-30218Y-272D01*
Y744D01*
X566Y31654D02*
X312Y31908D01*
X-196D01*
X-450Y31654D01*
Y30638D01*
X-196Y30384D01*
X312D01*
X566Y30638D01*
Y31654D01*
X31330Y384D02*
X32346D01*
X31330Y1400D01*
Y1654D01*
X31584Y1908D01*
X32092D01*
X32346Y1654D01*
X30822Y1908D02*
X29807D01*
Y1654D01*
X30822Y638D01*
Y384D01*
X29299Y1654D02*
X29045Y1908D01*
X28537D01*
X28283Y1654D01*
Y638D01*
X28537Y384D01*
X29045D01*
X29299Y638D01*
Y1654D01*
X14376Y440D02*
Y-360D01*
X13976D01*
X13843Y-227D01*
Y307D01*
X13976Y440D01*
X14376D01*
X13577D02*
Y-360D01*
X13177D01*
X13043Y-227D01*
Y307D01*
X13177Y440D01*
X13577D01*
X12377Y-360D02*
Y440D01*
X12777Y40D01*
X12244D01*
X1496Y-13280D02*
Y-14080D01*
X1096D01*
X963Y-13947D01*
Y-13413D01*
X1096Y-13280D01*
X1496D01*
X697D02*
Y-14080D01*
X297D01*
X163Y-13947D01*
Y-13413D01*
X297Y-13280D01*
X697D01*
X-103Y-13413D02*
X-236Y-13280D01*
X-503D01*
X-636Y-13413D01*
Y-13547D01*
X-503Y-13680D01*
X-370D01*
X-503D01*
X-636Y-13813D01*
Y-13947D01*
X-503Y-14080D01*
X-236D01*
X-103Y-13947D01*
X-12334Y460D02*
Y-340D01*
X-12734D01*
X-12867Y-207D01*
Y327D01*
X-12734Y460D01*
X-12334D01*
X-13133D02*
Y-340D01*
X-13533D01*
X-13667Y-207D01*
Y327D01*
X-13533Y460D01*
X-13133D01*
X-14466Y-340D02*
X-13933D01*
X-14466Y193D01*
Y327D01*
X-14333Y460D01*
X-14066D01*
X-13933Y327D01*
X643Y14490D02*
Y13690D01*
X243D01*
X110Y13823D01*
Y14357D01*
X243Y14490D01*
X643D01*
X-157D02*
Y13690D01*
X-557D01*
X-690Y13823D01*
Y14357D01*
X-557Y14490D01*
X-157D01*
X-956Y13690D02*
X-1223D01*
X-1090D01*
Y14490D01*
X-956Y14357D01*
D22*
X-1550Y-16600D02*
X1550D01*
X-1550Y-17400D02*
Y-16600D01*
X1550Y-17400D02*
Y-16600D01*
X-1550Y-17400D02*
X1550D01*
X-16600Y-1550D02*
Y1550D01*
X-17400D02*
X-16600D01*
X-17400Y-1550D02*
X-16600D01*
X-17400D02*
Y1550D01*
X17400Y-1550D02*
Y1550D01*
X16600D02*
X17400D01*
X16600Y-1550D02*
X17400D01*
X16600D02*
Y1550D01*
X-1550Y16600D02*
X1550D01*
Y17400D01*
X-1550Y16600D02*
Y17400D01*
X1550D01*
%TF.MD5,d452ec19ef40b3301097bc4770b1cd1c*%
M02*
