M48
;Layer_Color=9474304
;FILE_FORMAT=4:3
METRIC,LZ
;TYPE=PLATED
T1F00S00C0.300
T2F00S00C0.900
%
T01
X-000796Y-0026211
X-001563Y-001682
X-0004897Y-0014463
X-0001645Y-001575
X-000113Y-001801
X-000403Y-0023925
Y-0026465
X-000618Y-002623
X-0002798Y-003106
X000443Y-0026465
X0005188Y-002513
X000443Y-0023925
X0015865Y0001247
X0017921Y000175
X000184Y001597
X0001322Y001797
X-0015884Y000175
X-001827Y000138
T02
X-000511Y-003552
X-000257
X-000008
X000246
X0005
X000754
M30
