%TF.GenerationSoftware,Altium Limited,Altium Designer,21.6.4 (81)*%
G04 Layer_Physical_Order=2*
G04 Layer_Color=16711680*
%FSLAX43Y43*%
%MOMM*%
%TF.SameCoordinates,7E1728C7-8053-4159-852C-9F5DCDCDAABE*%
%TF.FilePolarity,Positive*%
%TF.FileFunction,Copper,L2,Bot,Signal*%
%TF.Part,Single*%
G01*
G75*
%TA.AperFunction,Conductor*%
%ADD15C,0.700*%
%TA.AperFunction,ComponentPad*%
%ADD16C,1.500*%
%TA.AperFunction,ViaPad*%
%ADD17C,0.700*%
%ADD18C,0.800*%
%TA.AperFunction,SMDPad,CuDef*%
%ADD19R,0.600X1.000*%
%ADD20R,1.000X0.600*%
G36*
X1947Y39624D02*
X3889Y39481D01*
X5821Y39243D01*
X7740Y38910D01*
X9640Y38483D01*
X11516Y37964D01*
X13365Y37353D01*
X15182Y36652D01*
X16962Y35863D01*
X18701Y34988D01*
X20396Y34028D01*
X22041Y32986D01*
X23633Y31865D01*
X25168Y30667D01*
X26642Y29395D01*
X28053Y28053D01*
X29395Y26642D01*
X30667Y25168D01*
X31865Y23633D01*
X32986Y22041D01*
X34028Y20396D01*
X34988Y18701D01*
X35863Y16962D01*
X36652Y15182D01*
X37353Y13365D01*
X37964Y11516D01*
X38483Y9640D01*
X38910Y7740D01*
X39243Y5821D01*
X39481Y3889D01*
X39624Y1947D01*
X39672Y0D01*
X39624Y-1947D01*
X39481Y-3889D01*
X39243Y-5821D01*
X38910Y-7740D01*
X38483Y-9640D01*
X37964Y-11516D01*
X37353Y-13365D01*
X36652Y-15182D01*
X35863Y-16962D01*
X34988Y-18701D01*
X34028Y-20396D01*
X32986Y-22041D01*
X31865Y-23633D01*
X30667Y-25168D01*
X29395Y-26642D01*
X28053Y-28053D01*
X26642Y-29395D01*
X25168Y-30667D01*
X23633Y-31865D01*
X22041Y-32986D01*
X20396Y-34028D01*
X18701Y-34988D01*
X16962Y-35863D01*
X15182Y-36652D01*
X13365Y-37353D01*
X11516Y-37964D01*
X9640Y-38483D01*
X7740Y-38910D01*
X5821Y-39243D01*
X3889Y-39481D01*
X1947Y-39624D01*
X0Y-39672D01*
X-1947Y-39624D01*
X-3889Y-39481D01*
X-5821Y-39243D01*
X-7740Y-38910D01*
X-9640Y-38483D01*
X-11516Y-37964D01*
X-13365Y-37353D01*
X-15182Y-36652D01*
X-16962Y-35863D01*
X-18701Y-34988D01*
X-20396Y-34028D01*
X-22041Y-32986D01*
X-23633Y-31865D01*
X-25168Y-30667D01*
X-26642Y-29395D01*
X-28053Y-28053D01*
X-29395Y-26642D01*
X-30667Y-25168D01*
X-31865Y-23633D01*
X-32986Y-22041D01*
X-34028Y-20396D01*
X-34988Y-18701D01*
X-35863Y-16962D01*
X-36652Y-15182D01*
X-37353Y-13365D01*
X-37964Y-11516D01*
X-38483Y-9640D01*
X-38910Y-7740D01*
X-39243Y-5821D01*
X-39481Y-3889D01*
X-39624Y-1947D01*
X-39672Y0D01*
X-39624Y1947D01*
X-39481Y3889D01*
X-39243Y5821D01*
X-38910Y7740D01*
X-38483Y9640D01*
X-37964Y11516D01*
X-37353Y13365D01*
X-36652Y15182D01*
X-35863Y16962D01*
X-34988Y18701D01*
X-34028Y20396D01*
X-32986Y22041D01*
X-31865Y23633D01*
X-30667Y25168D01*
X-29395Y26642D01*
X-28053Y28053D01*
X-26642Y29395D01*
X-25168Y30667D01*
X-23633Y31865D01*
X-22041Y32986D01*
X-20396Y34028D01*
X-18701Y34988D01*
X-16962Y35863D01*
X-15182Y36652D01*
X-13365Y37353D01*
X-11516Y37964D01*
X-9640Y38483D01*
X-7740Y38910D01*
X-5821Y39243D01*
X-3889Y39481D01*
X-1947Y39624D01*
X0Y39672D01*
X1947Y39624D01*
D02*
G37*
%LPC*%
G36*
X0Y36836D02*
X-358Y36801D01*
X-703Y36696D01*
X-1020Y36526D01*
X-1298Y36298D01*
X-1526Y36020D01*
X-1696Y35703D01*
X-1801Y35358D01*
X-1836Y35000D01*
X-1801Y34642D01*
X-1696Y34297D01*
X-1526Y33980D01*
X-1298Y33702D01*
X-1020Y33474D01*
X-703Y33304D01*
X-358Y33199D01*
X0Y33164D01*
X358Y33199D01*
X703Y33304D01*
X1020Y33474D01*
X1298Y33702D01*
X1526Y33980D01*
X1696Y34297D01*
X1801Y34642D01*
X1836Y35000D01*
X1801Y35358D01*
X1696Y35703D01*
X1526Y36020D01*
X1298Y36298D01*
X1020Y36526D01*
X703Y36696D01*
X358Y36801D01*
X0Y36836D01*
D02*
G37*
G36*
X24700Y26536D02*
X24342Y26501D01*
X23997Y26396D01*
X23680Y26226D01*
X23402Y25998D01*
X23174Y25720D01*
X23004Y25403D01*
X22899Y25058D01*
X22864Y24700D01*
X22899Y24342D01*
X23004Y23997D01*
X23174Y23680D01*
X23402Y23402D01*
X23680Y23174D01*
X23997Y23004D01*
X24342Y22899D01*
X24700Y22864D01*
X25058Y22899D01*
X25403Y23004D01*
X25720Y23174D01*
X25998Y23402D01*
X26226Y23680D01*
X26396Y23997D01*
X26501Y24342D01*
X26536Y24700D01*
X26501Y25058D01*
X26396Y25403D01*
X26226Y25720D01*
X25998Y25998D01*
X25720Y26226D01*
X25403Y26396D01*
X25058Y26501D01*
X24700Y26536D01*
D02*
G37*
G36*
X-24700D02*
X-25058Y26501D01*
X-25403Y26396D01*
X-25720Y26226D01*
X-25998Y25998D01*
X-26226Y25720D01*
X-26396Y25403D01*
X-26501Y25058D01*
X-26536Y24700D01*
X-26501Y24342D01*
X-26396Y23997D01*
X-26226Y23680D01*
X-25998Y23402D01*
X-25720Y23174D01*
X-25403Y23004D01*
X-25058Y22899D01*
X-24700Y22864D01*
X-24342Y22899D01*
X-23997Y23004D01*
X-23680Y23174D01*
X-23402Y23402D01*
X-23174Y23680D01*
X-23004Y23997D01*
X-22899Y24342D01*
X-22864Y24700D01*
X-22899Y25058D01*
X-23004Y25403D01*
X-23174Y25720D01*
X-23402Y25998D01*
X-23680Y26226D01*
X-23997Y26396D01*
X-24342Y26501D01*
X-24700Y26536D01*
D02*
G37*
G36*
X450Y18850D02*
X150D01*
Y18350D01*
X450D01*
Y18850D01*
D02*
G37*
G36*
X-150D02*
X-450D01*
Y18350D01*
X-150D01*
Y18850D01*
D02*
G37*
G36*
X450Y18050D02*
X150D01*
Y17550D01*
X450D01*
Y18050D01*
D02*
G37*
G36*
X-150D02*
X-450D01*
Y17550D01*
X-150D01*
Y18050D01*
D02*
G37*
G36*
X1959Y16570D02*
X1721D01*
X1580Y16512D01*
X1101D01*
X1097Y16511D01*
X1000D01*
X946Y16500D01*
X450D01*
Y16142D01*
X432Y16115D01*
X389Y15900D01*
Y15800D01*
X432Y15585D01*
X450Y15558D01*
Y15100D01*
X1450D01*
Y15390D01*
X1672D01*
X1721Y15370D01*
X1959D01*
X2180Y15461D01*
X2349Y15630D01*
X2440Y15851D01*
Y16089D01*
X2349Y16310D01*
X2180Y16479D01*
X1959Y16570D01*
D02*
G37*
G36*
X18040Y2350D02*
X17801D01*
X17581Y2259D01*
X17412Y2090D01*
X17321Y1869D01*
Y1631D01*
X17379Y1490D01*
Y1110D01*
X17422Y896D01*
X17500Y778D01*
Y450D01*
X17858D01*
X17885Y432D01*
X18100Y389D01*
X18200D01*
X18415Y432D01*
X18442Y450D01*
X18900D01*
Y1450D01*
X18501D01*
Y1582D01*
X18521Y1631D01*
Y1869D01*
X18429Y2090D01*
X18261Y2259D01*
X18040Y2350D01*
D02*
G37*
G36*
X-15764D02*
X-16003D01*
X-16224Y2259D01*
X-16392Y2090D01*
X-16484Y1869D01*
Y1631D01*
X-16462Y1577D01*
X-16500Y1450D01*
X-16500D01*
Y450D01*
X-16056D01*
X-16029Y432D01*
X-15815Y389D01*
X-15800D01*
X-15585Y432D01*
X-15558Y450D01*
X-15100D01*
Y1450D01*
X-15304D01*
Y1582D01*
X-15284Y1631D01*
Y1869D01*
X-15375Y2090D01*
X-15544Y2259D01*
X-15764Y2350D01*
D02*
G37*
G36*
X-17550Y450D02*
X-18050D01*
Y150D01*
X-17550D01*
Y450D01*
D02*
G37*
G36*
X-18350D02*
X-18850D01*
Y150D01*
X-18350D01*
Y450D01*
D02*
G37*
G36*
X16450D02*
X15950D01*
Y150D01*
X16450D01*
Y450D01*
D02*
G37*
G36*
X15650D02*
X15150D01*
Y150D01*
X15650D01*
Y450D01*
D02*
G37*
G36*
X16450Y-150D02*
X15950D01*
Y-450D01*
X16450D01*
Y-150D01*
D02*
G37*
G36*
X15650D02*
X15150D01*
Y-450D01*
X15650D01*
Y-150D01*
D02*
G37*
G36*
X-17550Y-150D02*
X-18050D01*
Y-450D01*
X-17550D01*
Y-150D01*
D02*
G37*
G36*
X-18350D02*
X-18850D01*
Y-450D01*
X-18350D01*
Y-150D01*
D02*
G37*
G36*
X35000Y1836D02*
X34642Y1801D01*
X34297Y1696D01*
X33980Y1526D01*
X33702Y1298D01*
X33474Y1020D01*
X33304Y703D01*
X33199Y358D01*
X33164Y0D01*
X33199Y-358D01*
X33304Y-703D01*
X33474Y-1020D01*
X33702Y-1298D01*
X33980Y-1526D01*
X34297Y-1696D01*
X34642Y-1801D01*
X35000Y-1836D01*
X35358Y-1801D01*
X35703Y-1696D01*
X36020Y-1526D01*
X36298Y-1298D01*
X36526Y-1020D01*
X36696Y-703D01*
X36801Y-358D01*
X36836Y0D01*
X36801Y358D01*
X36696Y703D01*
X36526Y1020D01*
X36298Y1298D01*
X36020Y1526D01*
X35703Y1696D01*
X35358Y1801D01*
X35000Y1836D01*
D02*
G37*
G36*
X-35000D02*
X-35358Y1801D01*
X-35703Y1696D01*
X-36020Y1526D01*
X-36298Y1298D01*
X-36526Y1020D01*
X-36696Y703D01*
X-36801Y358D01*
X-36836Y0D01*
X-36801Y-358D01*
X-36696Y-703D01*
X-36526Y-1020D01*
X-36298Y-1298D01*
X-36020Y-1526D01*
X-35703Y-1696D01*
X-35358Y-1801D01*
X-35000Y-1836D01*
X-34642Y-1801D01*
X-34297Y-1696D01*
X-33980Y-1526D01*
X-33702Y-1298D01*
X-33474Y-1020D01*
X-33304Y-703D01*
X-33199Y-358D01*
X-33164Y0D01*
X-33199Y358D01*
X-33304Y703D01*
X-33474Y1020D01*
X-33702Y1298D01*
X-33980Y1526D01*
X-34297Y1696D01*
X-34642Y1801D01*
X-35000Y1836D01*
D02*
G37*
G36*
X0Y9338D02*
X-915Y9293D01*
X-1822Y9159D01*
X-2711Y8936D01*
X-3574Y8627D01*
X-4402Y8236D01*
X-5188Y7764D01*
X-5924Y7219D01*
X-6603Y6603D01*
X-7219Y5924D01*
X-7764Y5188D01*
X-8236Y4402D01*
X-8627Y3574D01*
X-8936Y2711D01*
X-9159Y1822D01*
X-9293Y915D01*
X-9338Y-0D01*
X-9293Y-915D01*
X-9159Y-1822D01*
X-8936Y-2711D01*
X-8627Y-3574D01*
X-8236Y-4402D01*
X-7764Y-5188D01*
X-7219Y-5924D01*
X-6603Y-6603D01*
X-5924Y-7219D01*
X-5188Y-7764D01*
X-4402Y-8236D01*
X-3574Y-8627D01*
X-2711Y-8936D01*
X-1822Y-9159D01*
X-915Y-9293D01*
X0Y-9338D01*
X915Y-9293D01*
X1822Y-9159D01*
X2711Y-8936D01*
X3574Y-8627D01*
X4402Y-8236D01*
X5188Y-7764D01*
X5924Y-7219D01*
X6603Y-6603D01*
X7219Y-5924D01*
X7764Y-5188D01*
X8236Y-4402D01*
X8627Y-3574D01*
X8936Y-2711D01*
X9159Y-1822D01*
X9293Y-915D01*
X9338Y-0D01*
X9293Y915D01*
X9159Y1822D01*
X8936Y2711D01*
X8627Y3574D01*
X8236Y4402D01*
X7764Y5188D01*
X7219Y5924D01*
X6603Y6603D01*
X5924Y7219D01*
X5188Y7764D01*
X4402Y8236D01*
X3574Y8627D01*
X2711Y8936D01*
X1822Y9159D01*
X915Y9293D01*
X0Y9338D01*
D02*
G37*
G36*
X-1450Y-15100D02*
X-1525Y-15150D01*
X-1526Y-15150D01*
X-1764D01*
X-1985Y-15241D01*
X-2154Y-15410D01*
X-2245Y-15631D01*
Y-15869D01*
X-2154Y-16090D01*
X-1985Y-16259D01*
X-1764Y-16350D01*
X-1526D01*
X-1450Y-16456D01*
Y-16500D01*
X-450D01*
Y-16042D01*
X-432Y-16015D01*
X-389Y-15800D01*
X-432Y-15585D01*
X-450Y-15558D01*
Y-15100D01*
X-1450D01*
Y-15100D01*
D02*
G37*
G36*
X450Y-17550D02*
X150D01*
Y-18050D01*
X450D01*
Y-17550D01*
D02*
G37*
G36*
X-150D02*
X-450D01*
Y-18050D01*
X-150D01*
Y-17550D01*
D02*
G37*
G36*
X450Y-18350D02*
X150D01*
Y-18850D01*
X450D01*
Y-18350D01*
D02*
G37*
G36*
X-150D02*
X-450D01*
Y-18850D01*
X-150D01*
Y-18350D01*
D02*
G37*
G36*
X18200Y-389D02*
X18100D01*
X17885Y-432D01*
X17858Y-450D01*
X17500D01*
Y-946D01*
X17489Y-1000D01*
Y-10073D01*
X4185Y-23377D01*
X4090Y-23416D01*
X3921Y-23585D01*
X3830Y-23806D01*
Y-24044D01*
X3921Y-24265D01*
X4090Y-24434D01*
X4311Y-24525D01*
X4549D01*
X4770Y-24434D01*
X4939Y-24265D01*
X4978Y-24170D01*
X18447Y-10702D01*
X18568Y-10520D01*
X18611Y-10305D01*
Y-1450D01*
X18900D01*
Y-450D01*
X18442D01*
X18415Y-432D01*
X18200Y-389D01*
D02*
G37*
G36*
X-450Y16500D02*
X-1450D01*
Y16042D01*
X-1468Y16015D01*
X-1511Y15800D01*
Y14982D01*
X-11277Y5217D01*
X-11398Y5035D01*
X-11441Y4820D01*
Y-16380D01*
X-11398Y-16595D01*
X-11277Y-16777D01*
X-4591Y-23462D01*
Y-23711D01*
X-4630Y-23806D01*
Y-24044D01*
X-4539Y-24265D01*
X-4370Y-24434D01*
X-4149Y-24525D01*
X-3911D01*
X-3690Y-24434D01*
X-3521Y-24265D01*
X-3430Y-24044D01*
Y-23806D01*
X-3469Y-23711D01*
Y-23230D01*
X-3512Y-23015D01*
X-3633Y-22833D01*
X-10319Y-16148D01*
Y4588D01*
X-553Y14353D01*
X-432Y14535D01*
X-389Y14750D01*
Y15800D01*
X-432Y16015D01*
X-450Y16042D01*
Y16500D01*
D02*
G37*
G36*
X24700Y-22864D02*
X24342Y-22899D01*
X23997Y-23004D01*
X23680Y-23174D01*
X23402Y-23402D01*
X23174Y-23680D01*
X23004Y-23997D01*
X22899Y-24342D01*
X22864Y-24700D01*
X22899Y-25058D01*
X23004Y-25403D01*
X23174Y-25720D01*
X23402Y-25998D01*
X23680Y-26226D01*
X23997Y-26396D01*
X24342Y-26501D01*
X24700Y-26536D01*
X25058Y-26501D01*
X25403Y-26396D01*
X25720Y-26226D01*
X25998Y-25998D01*
X26226Y-25720D01*
X26396Y-25403D01*
X26501Y-25058D01*
X26536Y-24700D01*
X26501Y-24342D01*
X26396Y-23997D01*
X26226Y-23680D01*
X25998Y-23402D01*
X25720Y-23174D01*
X25403Y-23004D01*
X25058Y-22899D01*
X24700Y-22864D01*
D02*
G37*
G36*
X-24700D02*
X-25058Y-22899D01*
X-25403Y-23004D01*
X-25720Y-23174D01*
X-25998Y-23402D01*
X-26226Y-23680D01*
X-26396Y-23997D01*
X-26501Y-24342D01*
X-26536Y-24700D01*
X-26501Y-25058D01*
X-26396Y-25403D01*
X-26226Y-25720D01*
X-25998Y-25998D01*
X-25720Y-26226D01*
X-25403Y-26396D01*
X-25058Y-26501D01*
X-24700Y-26536D01*
X-24342Y-26501D01*
X-23997Y-26396D01*
X-23680Y-26226D01*
X-23402Y-25998D01*
X-23174Y-25720D01*
X-23004Y-25403D01*
X-22899Y-25058D01*
X-22864Y-24700D01*
X-22899Y-24342D01*
X-23004Y-23997D01*
X-23174Y-23680D01*
X-23402Y-23402D01*
X-23680Y-23174D01*
X-23997Y-23004D01*
X-24342Y-22899D01*
X-24700Y-22864D01*
D02*
G37*
G36*
X1450Y-15100D02*
X450D01*
Y-15558D01*
X432Y-15585D01*
X389Y-15800D01*
X432Y-16015D01*
X450Y-16042D01*
Y-16500D01*
X1450D01*
Y-16439D01*
X1596D01*
X1759Y-16602D01*
Y-24355D01*
X1802Y-24570D01*
X1923Y-24752D01*
X3882Y-26710D01*
X3921Y-26805D01*
X4090Y-26974D01*
X4311Y-27065D01*
X4549D01*
X4770Y-26974D01*
X4939Y-26805D01*
X5030Y-26584D01*
Y-26346D01*
X4939Y-26125D01*
X4770Y-25956D01*
X4675Y-25917D01*
X2881Y-24123D01*
Y-16370D01*
X2838Y-16155D01*
X2717Y-15973D01*
X2224Y-15481D01*
X2042Y-15360D01*
X1828Y-15317D01*
X1450D01*
Y-15100D01*
D02*
G37*
G36*
X-15800Y-389D02*
X-16015Y-432D01*
X-16042Y-450D01*
X-16500D01*
Y-1450D01*
X-16361D01*
Y-14695D01*
X-16318Y-14910D01*
X-16197Y-15092D01*
X-4578Y-26710D01*
X-4539Y-26805D01*
X-4370Y-26974D01*
X-4149Y-27065D01*
X-3911D01*
X-3690Y-26974D01*
X-3521Y-26805D01*
X-3430Y-26584D01*
Y-26346D01*
X-3521Y-26125D01*
X-3690Y-25956D01*
X-3785Y-25917D01*
X-15239Y-14463D01*
Y-1450D01*
X-15100D01*
Y-450D01*
X-15558D01*
X-15585Y-432D01*
X-15800Y-389D01*
D02*
G37*
G36*
X-2420Y-34629D02*
Y-35370D01*
X-1678D01*
X-1731Y-35173D01*
X-1850Y-34968D01*
X-2017Y-34800D01*
X-2223Y-34682D01*
X-2420Y-34629D01*
D02*
G37*
G36*
X-2720D02*
X-2917Y-34682D01*
X-3123Y-34800D01*
X-3290Y-34968D01*
X-3409Y-35173D01*
X-3462Y-35370D01*
X-2720D01*
Y-34629D01*
D02*
G37*
G36*
X-1678Y-35670D02*
X-2420D01*
Y-36412D01*
X-2223Y-36359D01*
X-2017Y-36241D01*
X-1850Y-36073D01*
X-1731Y-35868D01*
X-1678Y-35670D01*
D02*
G37*
G36*
X-2720D02*
X-3462D01*
X-3409Y-35868D01*
X-3290Y-36073D01*
X-3123Y-36241D01*
X-2917Y-36359D01*
X-2720Y-36412D01*
Y-35670D01*
D02*
G37*
G36*
X7665Y-34570D02*
X7415D01*
X7173Y-34635D01*
X6957Y-34760D01*
X6780Y-34937D01*
X6655Y-35154D01*
X6590Y-35395D01*
Y-35645D01*
X6655Y-35887D01*
X6780Y-36104D01*
X6957Y-36281D01*
X7173Y-36406D01*
X7415Y-36470D01*
X7665D01*
X7907Y-36406D01*
X8123Y-36281D01*
X8300Y-36104D01*
X8425Y-35887D01*
X8490Y-35645D01*
Y-35395D01*
X8425Y-35154D01*
X8300Y-34937D01*
X8123Y-34760D01*
X7907Y-34635D01*
X7665Y-34570D01*
D02*
G37*
G36*
X5125D02*
X4875D01*
X4633Y-34635D01*
X4417Y-34760D01*
X4240Y-34937D01*
X4115Y-35154D01*
X4050Y-35395D01*
Y-35645D01*
X4115Y-35887D01*
X4240Y-36104D01*
X4417Y-36281D01*
X4633Y-36406D01*
X4875Y-36470D01*
X5125D01*
X5367Y-36406D01*
X5583Y-36281D01*
X5760Y-36104D01*
X5885Y-35887D01*
X5950Y-35645D01*
Y-35395D01*
X5885Y-35154D01*
X5760Y-34937D01*
X5583Y-34760D01*
X5367Y-34635D01*
X5125Y-34570D01*
D02*
G37*
G36*
X2585D02*
X2335D01*
X2093Y-34635D01*
X1877Y-34760D01*
X1700Y-34937D01*
X1575Y-35154D01*
X1510Y-35395D01*
Y-35645D01*
X1575Y-35887D01*
X1700Y-36104D01*
X1877Y-36281D01*
X2093Y-36406D01*
X2335Y-36470D01*
X2585D01*
X2827Y-36406D01*
X3043Y-36281D01*
X3220Y-36104D01*
X3345Y-35887D01*
X3410Y-35645D01*
Y-35395D01*
X3345Y-35154D01*
X3220Y-34937D01*
X3043Y-34760D01*
X2827Y-34635D01*
X2585Y-34570D01*
D02*
G37*
G36*
X45D02*
X-205D01*
X-447Y-34635D01*
X-663Y-34760D01*
X-840Y-34937D01*
X-965Y-35154D01*
X-1030Y-35395D01*
Y-35645D01*
X-965Y-35887D01*
X-840Y-36104D01*
X-663Y-36281D01*
X-447Y-36406D01*
X-205Y-36470D01*
X45D01*
X287Y-36406D01*
X503Y-36281D01*
X680Y-36104D01*
X805Y-35887D01*
X870Y-35645D01*
Y-35395D01*
X805Y-35154D01*
X680Y-34937D01*
X503Y-34760D01*
X287Y-34635D01*
X45Y-34570D01*
D02*
G37*
G36*
X-15511Y-16220D02*
X-15749D01*
X-15970Y-16311D01*
X-16139Y-16480D01*
X-16230Y-16701D01*
Y-16939D01*
X-16139Y-17160D01*
X-15970Y-17329D01*
X-15858Y-17375D01*
X-6707Y-26526D01*
X-6689Y-26570D01*
X-6520Y-26739D01*
X-6471Y-26759D01*
X-5701Y-27529D01*
Y-34768D01*
X-5870Y-34937D01*
X-5995Y-35154D01*
X-6060Y-35395D01*
Y-35645D01*
X-5995Y-35887D01*
X-5870Y-36104D01*
X-5693Y-36281D01*
X-5477Y-36406D01*
X-5235Y-36470D01*
X-4985D01*
X-4743Y-36406D01*
X-4527Y-36281D01*
X-4350Y-36104D01*
X-4225Y-35887D01*
X-4160Y-35645D01*
Y-35395D01*
X-4225Y-35154D01*
X-4350Y-34937D01*
X-4527Y-34760D01*
X-4579Y-34730D01*
Y-27297D01*
X-4622Y-27082D01*
X-4743Y-26901D01*
X-5613Y-26031D01*
X-5671Y-25890D01*
X-5840Y-25721D01*
X-5986Y-25661D01*
X-15089Y-16558D01*
X-15121Y-16480D01*
X-15290Y-16311D01*
X-15511Y-16220D01*
D02*
G37*
%LPD*%
D15*
X-6180Y-26257D02*
X-5140Y-27297D01*
Y-35490D02*
Y-27297D01*
X-6210Y-26230D02*
Y-26227D01*
X-6180Y-26257D02*
Y-26230D01*
X-4030Y-23925D02*
Y-23230D01*
X-10880Y-16380D02*
Y4820D01*
Y-16380D02*
X-4030Y-23230D01*
X18050Y-10305D02*
Y-1000D01*
X4430Y-23925D02*
X18050Y-10305D01*
X-15630Y-16820D02*
X-15620D01*
X-6260Y-26180D01*
X-6257D02*
X-6210Y-26227D01*
X-6260Y-26180D02*
X-6257D01*
X1000Y-15878D02*
Y-15850D01*
X1828Y-15878D02*
X2320Y-16370D01*
X950Y-15800D02*
X1000Y-15850D01*
X2320Y-24355D02*
Y-16370D01*
X1000Y-15878D02*
X1828D01*
X17921Y1723D02*
X17940Y1704D01*
Y1110D02*
X18100Y950D01*
X17940Y1110D02*
Y1704D01*
X18100Y950D02*
X18200D01*
X-1130Y-18010D02*
X-1103D01*
X-1063Y-18050D02*
X-50D01*
X-1103Y-18010D02*
X-1063Y-18050D01*
X2320Y-24355D02*
X4430Y-26465D01*
X-10880Y4820D02*
X-950Y14750D01*
Y15800D01*
X18100Y-950D02*
X18200D01*
X18050Y-1000D02*
X18100Y-950D01*
X-15800Y-14695D02*
X-4030Y-26465D01*
X-15800Y-14695D02*
Y-950D01*
X-1626Y-15769D02*
X-981D01*
X-950Y-15800D01*
X-1645Y-15750D02*
X-1626Y-15769D01*
X15846Y1228D02*
X15865Y1247D01*
X15800Y0D02*
X15846Y46D01*
Y1228D01*
X950Y15900D02*
X1000Y15950D01*
X1100D02*
X1101Y15951D01*
X1821D02*
X1840Y15970D01*
X950Y15800D02*
Y15900D01*
X1000Y15950D02*
X1100D01*
X1101Y15951D02*
X1821D01*
X0Y18100D02*
X50Y18050D01*
X150D01*
X211Y17989D02*
X1303D01*
X1322Y17970D01*
X0Y18100D02*
Y18200D01*
X150Y18050D02*
X211Y17989D01*
X-15865Y1000D02*
Y1731D01*
Y1000D02*
X-15815Y950D01*
X-15884Y1750D02*
X-15865Y1731D01*
X-15815Y950D02*
X-15800D01*
X-18270Y50D02*
X-18250D01*
X-18270D02*
Y1380D01*
X-18250Y50D02*
X-18200Y0D01*
D16*
X-5110Y-35520D02*
D03*
X-2570D02*
D03*
X7540D02*
D03*
X5000D02*
D03*
X2460D02*
D03*
X-80D02*
D03*
D17*
X-2798Y-31060D02*
D03*
X-7960Y-26211D02*
D03*
X5188Y-25130D02*
D03*
X-4897Y-14463D02*
D03*
D18*
X-15630Y-16820D02*
D03*
X17921Y1750D02*
D03*
X-1130Y-18010D02*
D03*
X-6180Y-26230D02*
D03*
X-1645Y-15750D02*
D03*
X15865Y1247D02*
D03*
X1840Y15970D02*
D03*
X1322Y17970D02*
D03*
X-15884Y1750D02*
D03*
X-18270Y1380D02*
D03*
X4430Y-23925D02*
D03*
Y-26465D02*
D03*
X-4030D02*
D03*
Y-23925D02*
D03*
D19*
X-950Y-15800D02*
D03*
X950D02*
D03*
X0Y-18200D02*
D03*
X950Y15800D02*
D03*
X-950D02*
D03*
X0Y18200D02*
D03*
D20*
X-15800Y950D02*
D03*
Y-950D02*
D03*
X-18200Y0D02*
D03*
X18200Y950D02*
D03*
Y-950D02*
D03*
X15800Y0D02*
D03*
%TF.MD5,9776a25e4a7a01b3f24c17cc8af40cc2*%
M02*
