%TF.GenerationSoftware,Altium Limited,Altium Designer,21.6.4 (81)*%
G04 Layer_Color=32768*
%FSLAX43Y43*%
%MOMM*%
%TF.SameCoordinates,7E1728C7-8053-4159-852C-9F5DCDCDAABE*%
%TF.FilePolarity,Positive*%
%TF.FileFunction,Other,Top_Assembly*%
%TF.Part,Single*%
G01*
G75*
%TA.AperFunction,NonConductor*%
%ADD31C,0.100*%
D31*
X-470Y-20740D02*
G03*
X730Y-20740I600J0D01*
G01*
X-8950Y-20455D02*
X-6100D01*
X-8950Y-19105D02*
X-6100D01*
Y-20455D02*
Y-19105D01*
X-8950Y-20455D02*
Y-19105D01*
X-8735Y-31705D02*
X-5885D01*
X-8735Y-30355D02*
X-5885D01*
Y-31705D02*
Y-30355D01*
X-8735Y-31705D02*
Y-30355D01*
X6525Y-30555D02*
X9375D01*
X6525Y-31905D02*
X9375D01*
X6525D02*
Y-30555D01*
X9375Y-31905D02*
Y-30555D01*
X6555Y-19055D02*
X9405D01*
X6555Y-20405D02*
X9405D01*
X6555D02*
Y-19055D01*
X9405Y-20405D02*
Y-19055D01*
X-12200Y-22060D02*
X-9350D01*
X-12200Y-20710D02*
X-9350D01*
Y-22060D02*
Y-20710D01*
X-12200Y-22060D02*
Y-20710D01*
X-9084Y-22252D02*
X-6036D01*
X-9084Y-20728D02*
X-6036D01*
Y-22252D02*
Y-20728D01*
X-9084Y-22252D02*
Y-20728D01*
X-4365Y-23560D02*
Y-20710D01*
X-5715Y-23560D02*
Y-20710D01*
X-4365D01*
X-5715Y-23560D02*
X-4365D01*
X-8625Y-28120D02*
X-5775D01*
X-8625Y-26770D02*
X-5775D01*
Y-28120D02*
Y-26770D01*
X-8625Y-28120D02*
Y-26770D01*
X-11935Y-27030D02*
X-9085D01*
X-11935Y-28380D02*
X-9085D01*
X-11935D02*
Y-27030D01*
X-9085Y-28380D02*
Y-27030D01*
X-11935Y-30015D02*
X-9085D01*
X-11935Y-28665D02*
X-9085D01*
Y-30015D02*
Y-28665D01*
X-11935Y-30015D02*
Y-28665D01*
X-8834Y-30042D02*
X-5786D01*
X-8834Y-28518D02*
X-5786D01*
Y-30042D02*
Y-28518D01*
X-8834Y-30042D02*
Y-28518D01*
X-5500Y-29895D02*
Y-27045D01*
X-4150Y-29895D02*
Y-27045D01*
X-5500Y-29895D02*
X-4150D01*
X-5500Y-27045D02*
X-4150D01*
X-12200Y-22435D02*
X-9350D01*
X-12200Y-23785D02*
X-9350D01*
X-12200D02*
Y-22435D01*
X-9350Y-23785D02*
Y-22435D01*
X-8910Y-23910D02*
X-6060D01*
X-8910Y-22560D02*
X-6060D01*
Y-23910D02*
Y-22560D01*
X-8910Y-23910D02*
Y-22560D01*
X-7734Y-25742D02*
X-4686D01*
X-7734Y-24218D02*
X-4686D01*
Y-25742D02*
Y-24218D01*
X-7734Y-25742D02*
Y-24218D01*
X9755Y-28605D02*
X12605D01*
X9755Y-27255D02*
X12605D01*
Y-28605D02*
Y-27255D01*
X9755Y-28605D02*
Y-27255D01*
X9755Y-28910D02*
X12605D01*
X9755Y-30260D02*
X12605D01*
X9755D02*
Y-28910D01*
X12605Y-30260D02*
Y-28910D01*
X6430Y-27120D02*
X9280D01*
X6430Y-28470D02*
X9280D01*
X6430D02*
Y-27120D01*
X9280Y-28470D02*
Y-27120D01*
X4755Y-29970D02*
Y-27120D01*
X6105Y-29970D02*
Y-27120D01*
X4755Y-29970D02*
X6105D01*
X4755Y-27120D02*
X6105D01*
X6426Y-28738D02*
X9474D01*
X6426Y-30262D02*
X9474D01*
X6426D02*
Y-28738D01*
X9474Y-30262D02*
Y-28738D01*
X9835Y-23820D02*
X12685D01*
X9835Y-22470D02*
X12685D01*
Y-23820D02*
Y-22470D01*
X9835Y-23820D02*
Y-22470D01*
X6105Y-23595D02*
Y-20745D01*
X4755Y-23595D02*
Y-20745D01*
X6105D01*
X4755Y-23595D02*
X6105D01*
X9835Y-20835D02*
X12685D01*
X9835Y-22185D02*
X12685D01*
X9835D02*
Y-20835D01*
X12685Y-22185D02*
Y-20835D01*
X6426Y-20748D02*
X9474D01*
X6426Y-22272D02*
X9474D01*
X6426D02*
Y-20748D01*
X9474Y-22272D02*
Y-20748D01*
X6430Y-22525D02*
X9280D01*
X6430Y-23875D02*
X9280D01*
X6430D02*
Y-22525D01*
X9280Y-23875D02*
Y-22525D01*
X-3520Y-20740D02*
X-470D01*
X730D02*
X3780D01*
X-3520Y-29590D02*
X-1645D01*
X-3520D02*
Y-20740D01*
X3780Y-29590D02*
Y-20740D01*
X-1645Y-29590D02*
X3730D01*
X-18474Y2288D02*
X-15426D01*
X-18474Y3812D02*
X-15426D01*
Y2288D02*
Y3812D01*
X-18474Y2288D02*
Y3812D01*
X-2036Y-18292D02*
Y-15244D01*
X-3560Y-18292D02*
Y-15244D01*
X-2036D01*
X-3560Y-18292D02*
X-2036D01*
X2238Y15446D02*
Y18494D01*
X3762Y15446D02*
Y18494D01*
X2238Y15446D02*
X3762D01*
X2238Y18494D02*
X3762D01*
X15316Y2368D02*
X18364D01*
X15316Y3892D02*
X18364D01*
Y2368D02*
Y3892D01*
X15316Y2368D02*
Y3892D01*
X-8500Y-20130D02*
Y-19430D01*
X-8150D01*
X-8033Y-19547D01*
Y-19780D01*
X-8150Y-19897D01*
X-8500D01*
X-8267D02*
X-8033Y-20130D01*
X-7800D02*
X-7567D01*
X-7684D01*
Y-19430D01*
X-7800Y-19547D01*
X-7217Y-19430D02*
X-6751D01*
Y-19547D01*
X-7217Y-20013D01*
Y-20130D01*
X-8285Y-31380D02*
Y-30680D01*
X-7935D01*
X-7818Y-30797D01*
Y-31030D01*
X-7935Y-31147D01*
X-8285D01*
X-8052D02*
X-7818Y-31380D01*
X-7585D02*
X-7352D01*
X-7469D01*
Y-30680D01*
X-7585Y-30797D01*
X-7002D02*
X-6885Y-30680D01*
X-6652D01*
X-6536Y-30797D01*
Y-30913D01*
X-6652Y-31030D01*
X-6536Y-31147D01*
Y-31263D01*
X-6652Y-31380D01*
X-6885D01*
X-7002Y-31263D01*
Y-31147D01*
X-6885Y-31030D01*
X-7002Y-30913D01*
Y-30797D01*
X-6885Y-31030D02*
X-6652D01*
X8925Y-30880D02*
Y-31580D01*
X8575D01*
X8458Y-31463D01*
Y-31230D01*
X8575Y-31113D01*
X8925D01*
X8692D02*
X8458Y-30880D01*
X8225D02*
X7992D01*
X8109D01*
Y-31580D01*
X8225Y-31463D01*
X7642Y-30997D02*
X7525Y-30880D01*
X7292D01*
X7176Y-30997D01*
Y-31463D01*
X7292Y-31580D01*
X7525D01*
X7642Y-31463D01*
Y-31346D01*
X7525Y-31230D01*
X7176D01*
X8955Y-19380D02*
Y-20080D01*
X8605D01*
X8488Y-19963D01*
Y-19730D01*
X8605Y-19613D01*
X8955D01*
X8722D02*
X8488Y-19380D01*
X7789D02*
X8255D01*
X7789Y-19847D01*
Y-19963D01*
X7905Y-20080D01*
X8139D01*
X8255Y-19963D01*
X7555D02*
X7439Y-20080D01*
X7206D01*
X7089Y-19963D01*
Y-19497D01*
X7206Y-19380D01*
X7439D01*
X7555Y-19497D01*
Y-19963D01*
X-11750Y-21735D02*
Y-21035D01*
X-11400D01*
X-11283Y-21152D01*
Y-21385D01*
X-11400Y-21502D01*
X-11750D01*
X-11517D02*
X-11283Y-21735D01*
X-11050Y-21618D02*
X-10934Y-21735D01*
X-10700D01*
X-10584Y-21618D01*
Y-21152D01*
X-10700Y-21035D01*
X-10934D01*
X-11050Y-21152D01*
Y-21268D01*
X-10934Y-21385D01*
X-10584D01*
X-8068Y-21257D02*
X-8185Y-21140D01*
X-8418D01*
X-8535Y-21257D01*
Y-21723D01*
X-8418Y-21840D01*
X-8185D01*
X-8068Y-21723D01*
X-7369Y-21140D02*
X-7602Y-21257D01*
X-7835Y-21490D01*
Y-21723D01*
X-7718Y-21840D01*
X-7485D01*
X-7369Y-21723D01*
Y-21607D01*
X-7485Y-21490D01*
X-7835D01*
X-4690Y-23110D02*
X-5390D01*
Y-22760D01*
X-5273Y-22644D01*
X-5040D01*
X-4923Y-22760D01*
Y-23110D01*
Y-22877D02*
X-4690Y-22644D01*
X-5390Y-21944D02*
Y-22410D01*
X-5040D01*
X-5157Y-22177D01*
Y-22060D01*
X-5040Y-21944D01*
X-4807D01*
X-4690Y-22060D01*
Y-22294D01*
X-4807Y-22410D01*
X-8175Y-27795D02*
Y-27095D01*
X-7825D01*
X-7708Y-27212D01*
Y-27445D01*
X-7825Y-27562D01*
X-8175D01*
X-7942D02*
X-7708Y-27795D01*
X-7009D02*
X-7475D01*
X-7009Y-27328D01*
Y-27212D01*
X-7125Y-27095D01*
X-7359D01*
X-7475Y-27212D01*
X-9535Y-27355D02*
Y-28055D01*
X-9885D01*
X-10001Y-27938D01*
Y-27705D01*
X-9885Y-27588D01*
X-9535D01*
X-9768D02*
X-10001Y-27355D01*
X-10235D02*
X-10468D01*
X-10351D01*
Y-28055D01*
X-10235Y-27938D01*
X-11168Y-27355D02*
Y-28055D01*
X-10818Y-27705D01*
X-11284D01*
X-11485Y-29690D02*
Y-28990D01*
X-11135D01*
X-11018Y-29107D01*
Y-29340D01*
X-11135Y-29457D01*
X-11485D01*
X-11252D02*
X-11018Y-29690D01*
X-10785D02*
X-10552D01*
X-10668D01*
Y-28990D01*
X-10785Y-29107D01*
X-10202D02*
X-10085Y-28990D01*
X-9852D01*
X-9735Y-29107D01*
Y-29573D01*
X-9852Y-29690D01*
X-10085D01*
X-10202Y-29573D01*
Y-29107D01*
X-7818Y-29047D02*
X-7935Y-28930D01*
X-8168D01*
X-8285Y-29047D01*
Y-29513D01*
X-8168Y-29630D01*
X-7935D01*
X-7818Y-29513D01*
X-7585Y-28930D02*
X-7119D01*
Y-29047D01*
X-7585Y-29513D01*
Y-29630D01*
X-5175Y-27495D02*
X-4475D01*
Y-27845D01*
X-4592Y-27962D01*
X-4825D01*
X-4942Y-27845D01*
Y-27495D01*
Y-27728D02*
X-5175Y-27962D01*
X-4475Y-28661D02*
X-4592Y-28428D01*
X-4825Y-28195D01*
X-5058D01*
X-5175Y-28311D01*
Y-28545D01*
X-5058Y-28661D01*
X-4942D01*
X-4825Y-28545D01*
Y-28195D01*
X-9800Y-22760D02*
Y-23460D01*
X-10150D01*
X-10267Y-23343D01*
Y-23110D01*
X-10150Y-22993D01*
X-9800D01*
X-10033D02*
X-10267Y-22760D01*
X-10500D02*
X-10733D01*
X-10616D01*
Y-23460D01*
X-10500Y-23343D01*
X-11083D02*
X-11200Y-23460D01*
X-11433D01*
X-11549Y-23343D01*
Y-23227D01*
X-11433Y-23110D01*
X-11316D01*
X-11433D01*
X-11549Y-22993D01*
Y-22877D01*
X-11433Y-22760D01*
X-11200D01*
X-11083Y-22877D01*
X-8460Y-23585D02*
Y-22885D01*
X-8110D01*
X-7993Y-23002D01*
Y-23235D01*
X-8110Y-23352D01*
X-8460D01*
X-8227D02*
X-7993Y-23585D01*
X-7760D02*
X-7527D01*
X-7644D01*
Y-22885D01*
X-7760Y-23002D01*
X-6718Y-24747D02*
X-6835Y-24630D01*
X-7068D01*
X-7185Y-24747D01*
Y-25213D01*
X-7068Y-25330D01*
X-6835D01*
X-6718Y-25213D01*
X-6019Y-24630D02*
X-6485D01*
Y-24980D01*
X-6252Y-24863D01*
X-6135D01*
X-6019Y-24980D01*
Y-25213D01*
X-6135Y-25330D01*
X-6369D01*
X-6485Y-25213D01*
X10205Y-28280D02*
Y-27580D01*
X10555D01*
X10672Y-27697D01*
Y-27930D01*
X10555Y-28047D01*
X10205D01*
X10438D02*
X10672Y-28280D01*
X10905D02*
X11138D01*
X11021D01*
Y-27580D01*
X10905Y-27697D01*
X11954Y-27580D02*
X11488D01*
Y-27930D01*
X11721Y-27813D01*
X11838D01*
X11954Y-27930D01*
Y-28163D01*
X11838Y-28280D01*
X11605D01*
X11488Y-28163D01*
X12155Y-29235D02*
Y-29935D01*
X11805D01*
X11688Y-29818D01*
Y-29585D01*
X11805Y-29468D01*
X12155D01*
X11922D02*
X11688Y-29235D01*
X11455D02*
X11222D01*
X11339D01*
Y-29935D01*
X11455Y-29818D01*
X10872Y-29235D02*
X10639D01*
X10755D01*
Y-29935D01*
X10872Y-29818D01*
X8830Y-27445D02*
Y-28145D01*
X8480D01*
X8363Y-28028D01*
Y-27795D01*
X8480Y-27678D01*
X8830D01*
X8597D02*
X8363Y-27445D01*
X8130Y-28028D02*
X8014Y-28145D01*
X7780D01*
X7664Y-28028D01*
Y-27912D01*
X7780Y-27795D01*
X7897D01*
X7780D01*
X7664Y-27678D01*
Y-27562D01*
X7780Y-27445D01*
X8014D01*
X8130Y-27562D01*
X5080Y-27570D02*
X5780D01*
Y-27920D01*
X5663Y-28037D01*
X5430D01*
X5313Y-27920D01*
Y-27570D01*
Y-27803D02*
X5080Y-28037D01*
X5780Y-28270D02*
Y-28736D01*
X5663D01*
X5197Y-28270D01*
X5080D01*
X8458Y-29733D02*
X8575Y-29850D01*
X8808D01*
X8925Y-29733D01*
Y-29267D01*
X8808Y-29150D01*
X8575D01*
X8458Y-29267D01*
X8225Y-29733D02*
X8109Y-29850D01*
X7875D01*
X7759Y-29733D01*
Y-29617D01*
X7875Y-29500D01*
X7759Y-29383D01*
Y-29267D01*
X7875Y-29150D01*
X8109D01*
X8225Y-29267D01*
Y-29383D01*
X8109Y-29500D01*
X8225Y-29617D01*
Y-29733D01*
X8109Y-29500D02*
X7875D01*
X10285Y-23495D02*
Y-22795D01*
X10635D01*
X10752Y-22912D01*
Y-23145D01*
X10635Y-23262D01*
X10285D01*
X10518D02*
X10752Y-23495D01*
X10985D02*
X11218D01*
X11101D01*
Y-22795D01*
X10985Y-22912D01*
X12034Y-22795D02*
X11801Y-22912D01*
X11568Y-23145D01*
Y-23378D01*
X11685Y-23495D01*
X11918D01*
X12034Y-23378D01*
Y-23262D01*
X11918Y-23145D01*
X11568D01*
X5780Y-23145D02*
X5080D01*
Y-22795D01*
X5197Y-22678D01*
X5430D01*
X5547Y-22795D01*
Y-23145D01*
Y-22912D02*
X5780Y-22678D01*
X5197Y-22445D02*
X5080Y-22329D01*
Y-22095D01*
X5197Y-21979D01*
X5313D01*
X5430Y-22095D01*
X5547Y-21979D01*
X5663D01*
X5780Y-22095D01*
Y-22329D01*
X5663Y-22445D01*
X5547D01*
X5430Y-22329D01*
X5313Y-22445D01*
X5197D01*
X5430Y-22329D02*
Y-22095D01*
X12235Y-21160D02*
Y-21860D01*
X11885D01*
X11768Y-21743D01*
Y-21510D01*
X11885Y-21393D01*
X12235D01*
X12002D02*
X11768Y-21160D01*
X11535D02*
X11302D01*
X11419D01*
Y-21860D01*
X11535Y-21743D01*
X10486Y-21160D02*
X10952D01*
X10486Y-21627D01*
Y-21743D01*
X10602Y-21860D01*
X10835D01*
X10952Y-21743D01*
X8458D02*
X8575Y-21860D01*
X8808D01*
X8925Y-21743D01*
Y-21277D01*
X8808Y-21160D01*
X8575D01*
X8458Y-21277D01*
X8225D02*
X8109Y-21160D01*
X7875D01*
X7759Y-21277D01*
Y-21743D01*
X7875Y-21860D01*
X8109D01*
X8225Y-21743D01*
Y-21627D01*
X8109Y-21510D01*
X7759D01*
X8830Y-22850D02*
Y-23550D01*
X8480D01*
X8363Y-23433D01*
Y-23200D01*
X8480Y-23083D01*
X8830D01*
X8597D02*
X8363Y-22850D01*
X7780D02*
Y-23550D01*
X8130Y-23200D01*
X7664D01*
X-795Y-24840D02*
Y-25540D01*
X-445D01*
X-328Y-25423D01*
Y-24957D01*
X-445Y-24840D01*
X-795D01*
X-95D02*
Y-25540D01*
X255D01*
X371Y-25423D01*
Y-24957D01*
X255Y-24840D01*
X-95D01*
X1071D02*
X605D01*
Y-25190D01*
X838Y-25073D01*
X954D01*
X1071Y-25190D01*
Y-25423D01*
X954Y-25540D01*
X721D01*
X605Y-25423D01*
X-17458Y3283D02*
X-17575Y3400D01*
X-17808D01*
X-17925Y3283D01*
Y2817D01*
X-17808Y2700D01*
X-17575D01*
X-17458Y2817D01*
X-16759Y2700D02*
X-17225D01*
X-16759Y3167D01*
Y3283D01*
X-16875Y3400D01*
X-17109D01*
X-17225Y3283D01*
X-3031Y-17277D02*
X-3148Y-17393D01*
Y-17627D01*
X-3031Y-17743D01*
X-2565D01*
X-2448Y-17627D01*
Y-17393D01*
X-2565Y-17277D01*
X-3031Y-17043D02*
X-3148Y-16927D01*
Y-16693D01*
X-3031Y-16577D01*
X-2915D01*
X-2798Y-16693D01*
Y-16810D01*
Y-16693D01*
X-2681Y-16577D01*
X-2565D01*
X-2448Y-16693D01*
Y-16927D01*
X-2565Y-17043D01*
X3233Y17478D02*
X3350Y17595D01*
Y17828D01*
X3233Y17945D01*
X2767D01*
X2650Y17828D01*
Y17595D01*
X2767Y17478D01*
X2650Y17245D02*
Y17012D01*
Y17129D01*
X3350D01*
X3233Y17245D01*
X16332Y3363D02*
X16215Y3480D01*
X15982D01*
X15865Y3363D01*
Y2897D01*
X15982Y2780D01*
X16215D01*
X16332Y2897D01*
X16915Y2780D02*
Y3480D01*
X16565Y3130D01*
X17031D01*
%TF.MD5,2b52ccf6b2c5d147e27409dd7460b689*%
M02*
