%TF.GenerationSoftware,Altium Limited,Altium Designer,21.6.4 (81)*%
G04 Layer_Color=32896*
%FSLAX43Y43*%
%MOMM*%
%TF.SameCoordinates,7E1728C7-8053-4159-852C-9F5DCDCDAABE*%
%TF.FilePolarity,Positive*%
%TF.FileFunction,Other,Bottom_Assembly*%
%TF.Part,Single*%
G01*
G75*
%TA.AperFunction,NonConductor*%
%ADD31C,0.100*%
D31*
X-1750Y-15075D02*
X1750D01*
X-1750Y-18950D02*
X1750D01*
X-1750D02*
Y-15075D01*
X1750Y-18950D02*
Y-15075D01*
X-15075Y-1750D02*
Y1750D01*
X-18950Y-1750D02*
Y1750D01*
X-15075D01*
X-18950Y-1750D02*
X-15075D01*
X18925D02*
Y1750D01*
X15050Y-1750D02*
Y1750D01*
X18925D01*
X15050Y-1750D02*
X18925D01*
X-1750Y15075D02*
X1750D01*
X-1750Y18950D02*
X1750D01*
Y15075D02*
Y18950D01*
X-1750Y15075D02*
Y18950D01*
X825Y-16675D02*
Y-17375D01*
X475D01*
X358Y-17258D01*
Y-16792D01*
X475Y-16675D01*
X825D01*
X125D02*
Y-17375D01*
X-225D01*
X-341Y-17258D01*
Y-16792D01*
X-225Y-16675D01*
X125D01*
X-575Y-16792D02*
X-691Y-16675D01*
X-924D01*
X-1041Y-16792D01*
Y-16908D01*
X-924Y-17025D01*
X-808D01*
X-924D01*
X-1041Y-17142D01*
Y-17258D01*
X-924Y-17375D01*
X-691D01*
X-575Y-17258D01*
X-16590Y-882D02*
X-17290D01*
Y-532D01*
X-17173Y-416D01*
X-16707D01*
X-16590Y-532D01*
Y-882D01*
Y-182D02*
X-17290D01*
Y168D01*
X-17173Y284D01*
X-16707D01*
X-16590Y168D01*
Y-182D01*
X-17290Y984D02*
Y517D01*
X-16823Y984D01*
X-16707D01*
X-16590Y867D01*
Y634D01*
X-16707Y517D01*
X17325Y-825D02*
X16625D01*
Y-475D01*
X16742Y-358D01*
X17208D01*
X17325Y-475D01*
Y-825D01*
Y-125D02*
X16625D01*
Y225D01*
X16742Y341D01*
X17208D01*
X17325Y225D01*
Y-125D01*
X16625Y924D02*
X17325D01*
X16975Y575D01*
Y1041D01*
X-825Y16675D02*
Y17375D01*
X-475D01*
X-358Y17258D01*
Y16792D01*
X-475Y16675D01*
X-825D01*
X-125D02*
Y17375D01*
X225D01*
X341Y17258D01*
Y16792D01*
X225Y16675D01*
X-125D01*
X575Y17375D02*
X808D01*
X691D01*
Y16675D01*
X575Y16792D01*
%TF.MD5,181a5fea6c40b772c5ecbe6b9fb3fcfb*%
M02*
